# MagicaVoxel @ Ephtracy

# group
g apt:wall-main-entry

# material
mtllib default-material.mtl
usemtl palette

# normals
vn -1 0 0
vn 1 0 0
vn 0 0 1
vn 0 0 -1
vn 0 -1 0
vn 0 1 0

# texcoords
vt 0.197266 0.5
vt 0.412109 0.5
vt 0.916016 0.5
vt 0.966797 0.5
vt 0.970703 0.5
vt 0.986328 0.5

# verts
v -40 0 -1.5
v -40 0 -5.5
v -40 1 6.5
v -40 1 5.5
v -40 1 -1.5
v -40 1 -4.5
v -40 1 -5.5
v -40 37 5.5
v -40 37 -4.5
v -40 37 -5.5
v -40 37 -6.5
v -40 38 6.5
v -40 38 5.5
v -40 38 -6.5
v -27 34 -3.5
v -27 34 -4.5
v -27 37 -3.5
v -27 37 -4.5
v -23 1 6.5
v -23 1 5.5
v -23 1 -1.5
v -23 1 -4.5
v -23 1 -5.5
v -23 31 6.5
v -23 31 5.5
v -23 31 -4.5
v -23 31 -5.5
v -15 34 -3.5
v -15 34 -4.5
v -15 37 -3.5
v -15 37 -4.5
v 38 1 6.5
v 38 1 -1.5
v 38 1 -3.5
v 38 35 6.5
v 38 35 5.5
v 38 35 -3.5
v -39 1 6.5
v -39 1 5.5
v -39 1 -1.5
v -39 1 -2.5
v -39 1 -4.5
v -39 1 -5.5
v -39 31 6.5
v -39 31 5.5
v -39 31 -4.5
v -39 31 -5.5
v -32 34 -3.5
v -32 34 -4.5
v -32 37 -3.5
v -32 37 -4.5
v -25 34 -3.5
v -25 34 -4.5
v -25 37 -3.5
v -25 37 -4.5
v -11 1 6.5
v -11 1 5.5
v -11 1 -1.5
v -11 1 -3.5
v -11 35 6.5
v -11 35 5.5
v -11 35 -3.5
v 40 0 -1.5
v 40 0 -3.5
v 40 0 -5.5
v 40 1 6.5
v 40 1 -1.5
v 40 1 -3.5
v 40 1 -4.5
v 40 1 -5.5
v 40 35 5.5
v 40 35 -3.5
v 40 37 5.5
v 40 37 -4.5
v 40 37 -5.5
v 40 37 -6.5
v 40 38 6.5
v 40 38 5.5
v 40 38 -6.5
v -40 1 6.5
v -40 38 6.5
v -39 1 6.5
v -39 31 6.5
v -23 1 6.5
v -23 31 6.5
v -11 1 6.5
v -11 35 6.5
v 38 1 6.5
v 38 35 6.5
v 40 1 6.5
v 40 38 6.5
v -40 0 -1.5
v -40 1 -1.5
v -39 1 -1.5
v -24 0 -1.5
v -24 1 -1.5
v -23 0 -1.5
v -23 1 -1.5
v -11 0 -1.5
v -11 1 -1.5
v 38 1 -1.5
v 40 0 -1.5
v 40 1 -1.5
v -11 1 -3.5
v -11 35 -3.5
v 38 1 -3.5
v 38 35 -3.5
v -32 34 -4.5
v -32 37 -4.5
v -27 34 -4.5
v -27 37 -4.5
v -25 34 -4.5
v -25 37 -4.5
v -15 34 -4.5
v -15 37 -4.5
v -32 34 -3.5
v -32 37 -3.5
v -27 34 -3.5
v -27 37 -3.5
v -25 34 -3.5
v -25 37 -3.5
v -15 34 -3.5
v -15 37 -3.5
v -40 0 -5.5
v -40 1 -5.5
v -40 37 -5.5
v -39 0 -5.5
v -39 1 -5.5
v -39 31 -5.5
v -23 0 -5.5
v -23 1 -5.5
v -23 31 -5.5
v 40 0 -5.5
v 40 1 -5.5
v 40 37 -5.5
v -40 37 -6.5
v -40 38 -6.5
v 40 37 -6.5
v 40 38 -6.5
v -40 0 -1.5
v -24 0 -1.5
v -23 0 -1.5
v -11 0 -1.5
v 40 0 -1.5
v -39 0 -2.5
v -24 0 -2.5
v -11 0 -3.5
v 40 0 -3.5
v -40 0 -5.5
v -39 0 -5.5
v -23 0 -5.5
v 40 0 -5.5
v -40 1 6.5
v -39 1 6.5
v -23 1 6.5
v -11 1 6.5
v 38 1 6.5
v 40 1 6.5
v -40 1 5.5
v -39 1 5.5
v -23 1 5.5
v -11 1 5.5
v -40 1 -1.5
v -39 1 -1.5
v -23 1 -1.5
v -11 1 -1.5
v 38 1 -1.5
v 40 1 -1.5
v -39 31 6.5
v -23 31 6.5
v -39 31 5.5
v -23 31 5.5
v -39 31 -4.5
v -23 31 -4.5
v -39 31 -5.5
v -23 31 -5.5
v -11 35 6.5
v 38 35 6.5
v -11 35 5.5
v 38 35 5.5
v -11 35 -3.5
v 38 35 -3.5
v -32 37 -3.5
v -27 37 -3.5
v -25 37 -3.5
v -15 37 -3.5
v -32 37 -4.5
v -27 37 -4.5
v -25 37 -4.5
v -15 37 -4.5
v -40 37 -5.5
v 40 37 -5.5
v -40 37 -6.5
v 40 37 -6.5
v -39 1 -1.5
v -24 1 -1.5
v -23 1 -1.5
v -11 1 -1.5
v 38 1 -1.5
v -39 1 -2.5
v -24 1 -2.5
v -11 1 -3.5
v 38 1 -3.5
v -39 1 -4.5
v -23 1 -4.5
v -39 1 -5.5
v -23 1 -5.5
v -32 34 -3.5
v -27 34 -3.5
v -25 34 -3.5
v -15 34 -3.5
v -32 34 -4.5
v -27 34 -4.5
v -25 34 -4.5
v -15 34 -4.5
v -40 38 6.5
v 40 38 6.5
v -40 38 5.5
v 40 38 5.5
v -40 38 -6.5
v 40 38 -6.5

# faces
f 5/5/1 2/5/1 1/5/1
f 6/5/1 2/5/1 5/5/1
f 7/5/1 2/5/1 6/5/1
f 8/2/1 4/2/1 3/2/1
f 8/4/1 5/4/1 4/4/1
f 8/4/1 6/4/1 5/4/1
f 9/1/1 7/1/1 6/1/1
f 9/4/1 6/4/1 8/4/1
f 10/1/1 7/1/1 9/1/1
f 12/2/1 8/2/1 3/2/1
f 13/3/1 10/3/1 9/3/1
f 13/2/1 8/2/1 12/2/1
f 13/3/1 11/3/1 10/3/1
f 13/3/1 9/3/1 8/3/1
f 14/3/1 11/3/1 13/3/1
f 17/4/1 16/4/1 15/4/1
f 18/4/1 16/4/1 17/4/1
f 24/2/1 20/2/1 19/2/1
f 25/4/1 21/4/1 20/4/1
f 25/2/1 20/2/1 24/2/1
f 25/4/1 22/4/1 21/4/1
f 26/1/1 23/1/1 22/1/1
f 26/4/1 22/4/1 25/4/1
f 27/1/1 23/1/1 26/1/1
f 30/4/1 29/4/1 28/4/1
f 31/4/1 29/4/1 30/4/1
f 35/2/1 33/2/1 32/2/1
f 35/2/1 34/2/1 33/2/1
f 36/2/1 34/2/1 35/2/1
f 37/2/1 34/2/1 36/2/1
f 38/2/2 39/2/2 44/2/2
f 39/4/2 40/4/2 45/4/2
f 44/2/2 39/2/2 45/2/2
f 40/4/2 41/4/2 45/4/2
f 41/4/2 42/4/2 45/4/2
f 42/1/2 43/1/2 46/1/2
f 45/4/2 42/4/2 46/4/2
f 46/1/2 43/1/2 47/1/2
f 48/4/2 49/4/2 50/4/2
f 50/4/2 49/4/2 51/4/2
f 52/4/2 53/4/2 54/4/2
f 54/4/2 53/4/2 55/4/2
f 56/2/2 57/2/2 60/2/2
f 58/4/2 59/4/2 61/4/2
f 60/2/2 57/2/2 61/2/2
f 57/4/2 58/4/2 61/4/2
f 61/4/2 59/4/2 62/4/2
f 63/4/2 64/4/2 67/4/2
f 64/5/2 65/5/2 68/5/2
f 67/4/2 64/4/2 68/4/2
f 68/5/2 65/5/2 69/5/2
f 69/5/2 65/5/2 70/5/2
f 66/2/2 67/2/2 71/2/2
f 67/2/2 68/2/2 71/2/2
f 68/4/2 69/4/2 72/4/2
f 71/2/2 68/2/2 72/2/2
f 66/2/2 71/2/2 73/2/2
f 71/4/2 72/4/2 73/4/2
f 69/1/2 70/1/2 74/1/2
f 73/4/2 72/4/2 74/4/2
f 72/4/2 69/4/2 74/4/2
f 74/1/2 70/1/2 75/1/2
f 66/2/2 73/2/2 77/2/2
f 74/3/2 75/3/2 78/3/2
f 77/2/2 73/2/2 78/2/2
f 75/3/2 76/3/2 78/3/2
f 73/3/2 74/3/2 78/3/2
f 78/3/2 76/3/2 79/3/2
f 82/2/3 81/2/3 80/2/3
f 83/2/3 81/2/3 82/2/3
f 85/2/3 81/2/3 83/2/3
f 86/2/3 85/2/3 84/2/3
f 87/2/3 81/2/3 85/2/3
f 87/2/3 85/2/3 86/2/3
f 89/2/3 81/2/3 87/2/3
f 90/2/3 89/2/3 88/2/3
f 91/2/3 81/2/3 89/2/3
f 91/2/3 89/2/3 90/2/3
f 94/5/3 93/5/3 92/5/3
f 95/5/3 94/5/3 92/5/3
f 96/5/3 94/5/3 95/5/3
f 97/4/3 96/4/3 95/4/3
f 98/4/3 96/4/3 97/4/3
f 99/5/3 98/5/3 97/5/3
f 100/5/3 98/5/3 99/5/3
f 101/4/3 100/4/3 99/4/3
f 102/4/3 101/4/3 99/4/3
f 103/4/3 101/4/3 102/4/3
f 106/4/3 105/4/3 104/4/3
f 107/4/3 105/4/3 106/4/3
f 110/1/3 109/1/3 108/1/3
f 111/1/3 109/1/3 110/1/3
f 114/1/3 113/1/3 112/1/3
f 115/1/3 113/1/3 114/1/3
f 116/4/4 117/4/4 118/4/4
f 118/4/4 117/4/4 119/4/4
f 120/4/4 121/4/4 122/4/4
f 122/4/4 121/4/4 123/4/4
f 124/5/4 125/5/4 127/5/4
f 125/1/4 126/1/4 128/1/4
f 127/5/4 125/5/4 128/5/4
f 128/1/4 126/1/4 129/1/4
f 127/4/4 128/4/4 130/4/4
f 130/4/4 128/4/4 131/4/4
f 129/1/4 126/1/4 132/1/4
f 130/5/4 131/5/4 133/5/4
f 131/1/4 132/1/4 134/1/4
f 133/5/4 131/5/4 134/5/4
f 132/1/4 126/1/4 135/1/4
f 134/1/4 132/1/4 135/1/4
f 136/3/4 137/3/4 138/3/4
f 138/3/4 137/3/4 139/3/4
f 145/5/5 141/5/5 140/5/5
f 146/4/5 142/4/5 141/4/5
f 146/5/5 141/5/5 145/5/5
f 147/4/5 144/4/5 143/4/5
f 147/5/5 143/5/5 142/5/5
f 148/4/5 144/4/5 147/4/5
f 149/5/5 145/5/5 140/5/5
f 150/4/5 146/4/5 145/4/5
f 150/5/5 145/5/5 149/5/5
f 151/4/5 142/4/5 146/4/5
f 151/4/5 146/4/5 150/4/5
f 151/5/5 147/5/5 142/5/5
f 151/5/5 148/5/5 147/5/5
f 152/5/5 148/5/5 151/5/5
f 159/2/5 154/2/5 153/2/5
f 160/2/5 154/2/5 159/2/5
f 161/2/5 156/2/5 155/2/5
f 162/2/5 156/2/5 161/2/5
f 163/4/5 160/4/5 159/4/5
f 164/4/5 160/4/5 163/4/5
f 165/4/5 162/4/5 161/4/5
f 166/4/5 162/4/5 165/4/5
f 167/2/5 158/2/5 157/2/5
f 168/2/5 158/2/5 167/2/5
f 171/2/5 170/2/5 169/2/5
f 172/2/5 170/2/5 171/2/5
f 173/4/5 172/4/5 171/4/5
f 174/4/5 172/4/5 173/4/5
f 175/1/5 174/1/5 173/1/5
f 176/1/5 174/1/5 175/1/5
f 179/2/5 178/2/5 177/2/5
f 180/2/5 178/2/5 179/2/5
f 181/4/5 180/4/5 179/4/5
f 182/4/5 180/4/5 181/4/5
f 187/3/5 184/3/5 183/3/5
f 188/3/5 184/3/5 187/3/5
f 189/3/5 186/3/5 185/3/5
f 190/3/5 186/3/5 189/3/5
f 193/3/5 192/3/5 191/3/5
f 194/3/5 192/3/5 193/3/5
f 195/5/6 196/5/6 200/5/6
f 196/4/6 197/4/6 201/4/6
f 200/5/6 196/5/6 201/5/6
f 198/4/6 199/4/6 202/4/6
f 202/4/6 199/4/6 203/4/6
f 200/4/6 201/4/6 204/4/6
f 201/4/6 197/4/6 205/4/6
f 204/4/6 201/4/6 205/4/6
f 204/4/6 205/4/6 206/4/6
f 206/4/6 205/4/6 207/4/6
f 208/4/6 209/4/6 212/4/6
f 212/4/6 209/4/6 213/4/6
f 210/4/6 211/4/6 214/4/6
f 214/4/6 211/4/6 215/4/6
f 216/2/6 217/2/6 218/2/6
f 218/2/6 217/2/6 219/2/6
f 218/3/6 219/3/6 220/3/6
f 220/3/6 219/3/6 221/3/6
