# MagicaVoxel @ Ephtracy

# group
g apt:door-main

# material
mtllib default-material.mtl
usemtl palette

# normals
vn -1 0 0
vn 1 0 0
vn 0 0 1
vn 0 0 -1
vn 0 -1 0
vn 0 1 0

# texcoords
vt 0.458984 0.5
vt 0.923828 0.5
vt 0.962891 0.5
vt 0.982422 0.5

# verts
v -8 0 2
v -8 0 -2
v -8 30 2
v -8 30 -2
v -7 14 3
v -7 14 2
v -7 14 -2
v -7 14 -3
v -7 15 4
v -7 15 3
v -7 15 -3
v -7 15 -4
v -7 16 4
v -7 16 2
v -7 16 -2
v -7 16 -4
v -7 17 3
v -7 17 2
v -7 18 3
v -7 18 2
v -5 2 2
v -5 2 1
v -5 2 -1
v -5 2 -2
v -5 13 2
v -5 13 1
v -5 13 -1
v -5 13 -2
v -5 17 2
v -5 17 1
v -5 17 -1
v -5 17 -2
v -5 23 2
v -5 23 1
v -5 23 -1
v -5 23 -2
v -5 26 2
v -5 26 1
v -5 26 -1
v -5 26 -2
v -5 28 2
v -5 28 1
v -5 28 -1
v -5 28 -2
v -1 1 2
v -1 1 1
v -1 1 -1
v -1 1 -2
v -1 14 2
v -1 14 1
v -1 14 -1
v -1 14 -2
v -1 16 2
v -1 16 1
v -1 16 -1
v -1 16 -2
v -1 24 2
v -1 24 1
v -1 24 -1
v -1 24 -2
v -1 25 2
v -1 25 1
v -1 25 -1
v -1 25 -2
v -1 29 2
v -1 29 1
v -1 29 -1
v -1 29 -2
v 2 2 2
v 2 2 1
v 2 2 -1
v 2 2 -2
v 2 13 2
v 2 13 1
v 2 13 -1
v 2 13 -2
v 2 17 2
v 2 17 1
v 2 17 -1
v 2 17 -2
v 2 23 2
v 2 23 1
v 2 23 -1
v 2 23 -2
v 2 26 2
v 2 26 1
v 2 26 -1
v 2 26 -2
v 2 28 2
v 2 28 1
v 2 28 -1
v 2 28 -2
v 6 1 2
v 6 1 1
v 6 1 -1
v 6 1 -2
v 6 14 2
v 6 14 1
v 6 14 -1
v 6 14 -2
v 6 16 2
v 6 16 1
v 6 16 -1
v 6 16 -2
v 6 24 2
v 6 24 1
v 6 24 -1
v 6 24 -2
v 6 25 2
v 6 25 1
v 6 25 -1
v 6 25 -2
v 6 29 2
v 6 29 1
v 6 29 -1
v 6 29 -2
v -6 1 2
v -6 1 1
v -6 1 -1
v -6 1 -2
v -6 14 3
v -6 14 2
v -6 14 1
v -6 14 -1
v -6 14 -2
v -6 14 -3
v -6 15 4
v -6 15 3
v -6 15 -3
v -6 15 -4
v -6 16 4
v -6 16 2
v -6 16 1
v -6 16 -1
v -6 16 -2
v -6 16 -4
v -6 17 3
v -6 17 2
v -6 18 3
v -6 18 2
v -6 24 2
v -6 24 1
v -6 24 -1
v -6 24 -2
v -6 25 2
v -6 25 1
v -6 25 -1
v -6 25 -2
v -6 29 2
v -6 29 1
v -6 29 -1
v -6 29 -2
v -2 2 2
v -2 2 1
v -2 2 -1
v -2 2 -2
v -2 13 2
v -2 13 1
v -2 13 -1
v -2 13 -2
v -2 17 2
v -2 17 1
v -2 17 -1
v -2 17 -2
v -2 23 2
v -2 23 1
v -2 23 -1
v -2 23 -2
v -2 26 2
v -2 26 1
v -2 26 -1
v -2 26 -2
v -2 28 2
v -2 28 1
v -2 28 -1
v -2 28 -2
v 1 1 2
v 1 1 1
v 1 1 -1
v 1 1 -2
v 1 14 2
v 1 14 1
v 1 14 -1
v 1 14 -2
v 1 16 2
v 1 16 1
v 1 16 -1
v 1 16 -2
v 1 24 2
v 1 24 1
v 1 24 -1
v 1 24 -2
v 1 25 2
v 1 25 1
v 1 25 -1
v 1 25 -2
v 1 29 2
v 1 29 1
v 1 29 -1
v 1 29 -2
v 5 2 2
v 5 2 1
v 5 2 -1
v 5 2 -2
v 5 13 2
v 5 13 1
v 5 13 -1
v 5 13 -2
v 5 17 2
v 5 17 1
v 5 17 -1
v 5 17 -2
v 5 23 2
v 5 23 1
v 5 23 -1
v 5 23 -2
v 5 26 2
v 5 26 1
v 5 26 -1
v 5 26 -2
v 5 28 2
v 5 28 1
v 5 28 -1
v 5 28 -2
v 8 0 2
v 8 0 -2
v 8 30 2
v 8 30 -2
v -7 15 4
v -7 16 4
v -6 15 4
v -6 16 4
v -7 14 3
v -7 15 3
v -7 17 3
v -7 18 3
v -6 14 3
v -6 15 3
v -6 17 3
v -6 18 3
v -8 0 2
v -8 30 2
v -7 14 2
v -7 16 2
v -7 17 2
v -7 18 2
v -6 1 2
v -6 14 2
v -6 16 2
v -6 17 2
v -6 18 2
v -6 24 2
v -6 25 2
v -6 29 2
v -5 2 2
v -5 13 2
v -5 17 2
v -5 23 2
v -5 26 2
v -5 28 2
v -2 2 2
v -2 13 2
v -2 17 2
v -2 23 2
v -2 26 2
v -2 28 2
v -1 1 2
v -1 14 2
v -1 16 2
v -1 24 2
v -1 25 2
v -1 29 2
v 1 1 2
v 1 14 2
v 1 16 2
v 1 24 2
v 1 25 2
v 1 29 2
v 2 2 2
v 2 13 2
v 2 17 2
v 2 23 2
v 2 26 2
v 2 28 2
v 5 2 2
v 5 13 2
v 5 17 2
v 5 23 2
v 5 26 2
v 5 28 2
v 6 1 2
v 6 14 2
v 6 16 2
v 6 24 2
v 6 25 2
v 6 29 2
v 8 0 2
v 8 30 2
v -6 1 1
v -6 14 1
v -6 16 1
v -6 24 1
v -6 25 1
v -6 29 1
v -5 2 1
v -5 13 1
v -5 17 1
v -5 23 1
v -5 26 1
v -5 28 1
v -2 2 1
v -2 13 1
v -2 17 1
v -2 23 1
v -2 26 1
v -2 28 1
v -1 1 1
v -1 14 1
v -1 16 1
v -1 24 1
v -1 25 1
v -1 29 1
v 1 1 1
v 1 14 1
v 1 16 1
v 1 24 1
v 1 25 1
v 1 29 1
v 2 2 1
v 2 13 1
v 2 17 1
v 2 23 1
v 2 26 1
v 2 28 1
v 5 2 1
v 5 13 1
v 5 17 1
v 5 23 1
v 5 26 1
v 5 28 1
v 6 1 1
v 6 14 1
v 6 16 1
v 6 24 1
v 6 25 1
v 6 29 1
v -6 1 -1
v -6 14 -1
v -6 16 -1
v -6 24 -1
v -6 25 -1
v -6 29 -1
v -5 2 -1
v -5 13 -1
v -5 17 -1
v -5 23 -1
v -5 26 -1
v -5 28 -1
v -2 2 -1
v -2 13 -1
v -2 17 -1
v -2 23 -1
v -2 26 -1
v -2 28 -1
v -1 1 -1
v -1 14 -1
v -1 16 -1
v -1 24 -1
v -1 25 -1
v -1 29 -1
v 1 1 -1
v 1 14 -1
v 1 16 -1
v 1 24 -1
v 1 25 -1
v 1 29 -1
v 2 2 -1
v 2 13 -1
v 2 17 -1
v 2 23 -1
v 2 26 -1
v 2 28 -1
v 5 2 -1
v 5 13 -1
v 5 17 -1
v 5 23 -1
v 5 26 -1
v 5 28 -1
v 6 1 -1
v 6 14 -1
v 6 16 -1
v 6 24 -1
v 6 25 -1
v 6 29 -1
v -8 0 -2
v -8 30 -2
v -7 14 -2
v -7 16 -2
v -6 1 -2
v -6 14 -2
v -6 16 -2
v -6 24 -2
v -6 25 -2
v -6 29 -2
v -5 2 -2
v -5 13 -2
v -5 17 -2
v -5 23 -2
v -5 26 -2
v -5 28 -2
v -2 2 -2
v -2 13 -2
v -2 17 -2
v -2 23 -2
v -2 26 -2
v -2 28 -2
v -1 1 -2
v -1 14 -2
v -1 16 -2
v -1 24 -2
v -1 25 -2
v -1 29 -2
v 1 1 -2
v 1 14 -2
v 1 16 -2
v 1 24 -2
v 1 25 -2
v 1 29 -2
v 2 2 -2
v 2 13 -2
v 2 17 -2
v 2 23 -2
v 2 26 -2
v 2 28 -2
v 5 2 -2
v 5 13 -2
v 5 17 -2
v 5 23 -2
v 5 26 -2
v 5 28 -2
v 6 1 -2
v 6 14 -2
v 6 16 -2
v 6 24 -2
v 6 25 -2
v 6 29 -2
v 8 0 -2
v 8 30 -2
v -7 14 -3
v -7 15 -3
v -6 14 -3
v -6 15 -3
v -7 15 -4
v -7 16 -4
v -6 15 -4
v -6 16 -4
v -8 0 2
v 8 0 2
v -8 0 -2
v 8 0 -2
v -5 2 2
v -2 2 2
v 2 2 2
v 5 2 2
v -5 2 1
v -2 2 1
v 2 2 1
v 5 2 1
v -5 2 -1
v -2 2 -1
v 2 2 -1
v 5 2 -1
v -5 2 -2
v -2 2 -2
v 2 2 -2
v 5 2 -2
v -7 14 3
v -6 14 3
v -7 14 2
v -6 14 2
v -1 14 2
v 1 14 2
v 6 14 2
v -6 14 1
v -1 14 1
v 1 14 1
v 6 14 1
v -6 14 -1
v -1 14 -1
v 1 14 -1
v 6 14 -1
v -7 14 -2
v -6 14 -2
v -1 14 -2
v 1 14 -2
v 6 14 -2
v -7 14 -3
v -6 14 -3
v -7 15 4
v -6 15 4
v -7 15 3
v -6 15 3
v -7 15 -3
v -6 15 -3
v -7 15 -4
v -6 15 -4
v -7 17 3
v -6 17 3
v -7 17 2
v -6 17 2
v -5 17 2
v -2 17 2
v 2 17 2
v 5 17 2
v -5 17 1
v -2 17 1
v 2 17 1
v 5 17 1
v -5 17 -1
v -2 17 -1
v 2 17 -1
v 5 17 -1
v -5 17 -2
v -2 17 -2
v 2 17 -2
v 5 17 -2
v -6 24 2
v -1 24 2
v 1 24 2
v 6 24 2
v -6 24 1
v -1 24 1
v 1 24 1
v 6 24 1
v -6 24 -1
v -1 24 -1
v 1 24 -1
v 6 24 -1
v -6 24 -2
v -1 24 -2
v 1 24 -2
v 6 24 -2
v -5 26 2
v -2 26 2
v 2 26 2
v 5 26 2
v -5 26 1
v -2 26 1
v 2 26 1
v 5 26 1
v -5 26 -1
v -2 26 -1
v 2 26 -1
v 5 26 -1
v -5 26 -2
v -2 26 -2
v 2 26 -2
v 5 26 -2
v -6 29 2
v -1 29 2
v 1 29 2
v 6 29 2
v -6 29 1
v -1 29 1
v 1 29 1
v 6 29 1
v -6 29 -1
v -1 29 -1
v 1 29 -1
v 6 29 -1
v -6 29 -2
v -1 29 -2
v 1 29 -2
v 6 29 -2
v -6 1 2
v -1 1 2
v 1 1 2
v 6 1 2
v -6 1 1
v -1 1 1
v 1 1 1
v 6 1 1
v -6 1 -1
v -1 1 -1
v 1 1 -1
v 6 1 -1
v -6 1 -2
v -1 1 -2
v 1 1 -2
v 6 1 -2
v -5 13 2
v -2 13 2
v 2 13 2
v 5 13 2
v -5 13 1
v -2 13 1
v 2 13 1
v 5 13 1
v -5 13 -1
v -2 13 -1
v 2 13 -1
v 5 13 -1
v -5 13 -2
v -2 13 -2
v 2 13 -2
v 5 13 -2
v -7 16 4
v -6 16 4
v -7 16 2
v -6 16 2
v -1 16 2
v 1 16 2
v 6 16 2
v -6 16 1
v -1 16 1
v 1 16 1
v 6 16 1
v -6 16 -1
v -1 16 -1
v 1 16 -1
v 6 16 -1
v -7 16 -2
v -6 16 -2
v -1 16 -2
v 1 16 -2
v 6 16 -2
v -7 16 -4
v -6 16 -4
v -7 18 3
v -6 18 3
v -7 18 2
v -6 18 2
v -5 23 2
v -2 23 2
v 2 23 2
v 5 23 2
v -5 23 1
v -2 23 1
v 2 23 1
v 5 23 1
v -5 23 -1
v -2 23 -1
v 2 23 -1
v 5 23 -1
v -5 23 -2
v -2 23 -2
v 2 23 -2
v 5 23 -2
v -6 25 2
v -1 25 2
v 1 25 2
v 6 25 2
v -6 25 1
v -1 25 1
v 1 25 1
v 6 25 1
v -6 25 -1
v -1 25 -1
v 1 25 -1
v 6 25 -1
v -6 25 -2
v -1 25 -2
v 1 25 -2
v 6 25 -2
v -5 28 2
v -2 28 2
v 2 28 2
v 5 28 2
v -5 28 1
v -2 28 1
v 2 28 1
v 5 28 1
v -5 28 -1
v -2 28 -1
v 2 28 -1
v 5 28 -1
v -5 28 -2
v -2 28 -2
v 2 28 -2
v 5 28 -2
v -8 30 2
v 8 30 2
v -8 30 -2
v 8 30 -2

# faces
f 3/3/1 2/3/1 1/3/1
f 4/3/1 2/3/1 3/3/1
f 10/1/1 6/1/1 5/1/1
f 11/2/1 8/2/1 7/2/1
f 13/1/1 10/1/1 9/1/1
f 14/1/1 6/1/1 10/1/1
f 14/1/1 10/1/1 13/1/1
f 15/2/1 12/2/1 11/2/1
f 15/2/1 11/2/1 7/2/1
f 16/2/1 12/2/1 15/2/1
f 19/1/1 18/1/1 17/1/1
f 20/1/1 18/1/1 19/1/1
f 25/3/1 22/3/1 21/3/1
f 26/3/1 22/3/1 25/3/1
f 27/3/1 24/3/1 23/3/1
f 28/3/1 24/3/1 27/3/1
f 33/3/1 30/3/1 29/3/1
f 34/3/1 30/3/1 33/3/1
f 35/3/1 32/3/1 31/3/1
f 36/3/1 32/3/1 35/3/1
f 41/3/1 38/3/1 37/3/1
f 42/3/1 38/3/1 41/3/1
f 43/3/1 40/3/1 39/3/1
f 44/3/1 40/3/1 43/3/1
f 49/3/1 46/3/1 45/3/1
f 50/3/1 46/3/1 49/3/1
f 51/3/1 48/3/1 47/3/1
f 52/3/1 48/3/1 51/3/1
f 57/3/1 54/3/1 53/3/1
f 58/3/1 54/3/1 57/3/1
f 59/3/1 56/3/1 55/3/1
f 60/3/1 56/3/1 59/3/1
f 65/3/1 62/3/1 61/3/1
f 66/3/1 62/3/1 65/3/1
f 67/3/1 64/3/1 63/3/1
f 68/3/1 64/3/1 67/3/1
f 73/3/1 70/3/1 69/3/1
f 74/3/1 70/3/1 73/3/1
f 75/3/1 72/3/1 71/3/1
f 76/3/1 72/3/1 75/3/1
f 81/3/1 78/3/1 77/3/1
f 82/3/1 78/3/1 81/3/1
f 83/3/1 80/3/1 79/3/1
f 84/3/1 80/3/1 83/3/1
f 89/3/1 86/3/1 85/3/1
f 90/3/1 86/3/1 89/3/1
f 91/3/1 88/3/1 87/3/1
f 92/3/1 88/3/1 91/3/1
f 97/3/1 94/3/1 93/3/1
f 98/3/1 94/3/1 97/3/1
f 99/3/1 96/3/1 95/3/1
f 100/3/1 96/3/1 99/3/1
f 105/3/1 102/3/1 101/3/1
f 106/3/1 102/3/1 105/3/1
f 107/3/1 104/3/1 103/3/1
f 108/3/1 104/3/1 107/3/1
f 113/3/1 110/3/1 109/3/1
f 114/3/1 110/3/1 113/3/1
f 115/3/1 112/3/1 111/3/1
f 116/3/1 112/3/1 115/3/1
f 117/3/2 118/3/2 122/3/2
f 122/3/2 118/3/2 123/3/2
f 119/3/2 120/3/2 124/3/2
f 124/3/2 120/3/2 125/3/2
f 121/1/2 122/1/2 128/1/2
f 125/2/2 126/2/2 129/2/2
f 127/1/2 128/1/2 131/1/2
f 128/1/2 122/1/2 132/1/2
f 131/1/2 128/1/2 132/1/2
f 129/2/2 130/2/2 135/2/2
f 125/2/2 129/2/2 135/2/2
f 135/2/2 130/2/2 136/2/2
f 132/3/2 133/3/2 138/3/2
f 137/1/2 138/1/2 139/1/2
f 138/3/2 133/3/2 140/3/2
f 139/1/2 138/1/2 140/1/2
f 140/3/2 133/3/2 141/3/2
f 141/3/2 133/3/2 142/3/2
f 134/3/2 135/3/2 143/3/2
f 143/3/2 135/3/2 144/3/2
f 145/3/2 146/3/2 149/3/2
f 149/3/2 146/3/2 150/3/2
f 147/3/2 148/3/2 151/3/2
f 151/3/2 148/3/2 152/3/2
f 153/3/2 154/3/2 157/3/2
f 157/3/2 154/3/2 158/3/2
f 155/3/2 156/3/2 159/3/2
f 159/3/2 156/3/2 160/3/2
f 161/3/2 162/3/2 165/3/2
f 165/3/2 162/3/2 166/3/2
f 163/3/2 164/3/2 167/3/2
f 167/3/2 164/3/2 168/3/2
f 169/3/2 170/3/2 173/3/2
f 173/3/2 170/3/2 174/3/2
f 171/3/2 172/3/2 175/3/2
f 175/3/2 172/3/2 176/3/2
f 177/3/2 178/3/2 181/3/2
f 181/3/2 178/3/2 182/3/2
f 179/3/2 180/3/2 183/3/2
f 183/3/2 180/3/2 184/3/2
f 185/3/2 186/3/2 189/3/2
f 189/3/2 186/3/2 190/3/2
f 187/3/2 188/3/2 191/3/2
f 191/3/2 188/3/2 192/3/2
f 193/3/2 194/3/2 197/3/2
f 197/3/2 194/3/2 198/3/2
f 195/3/2 196/3/2 199/3/2
f 199/3/2 196/3/2 200/3/2
f 201/3/2 202/3/2 205/3/2
f 205/3/2 202/3/2 206/3/2
f 203/3/2 204/3/2 207/3/2
f 207/3/2 204/3/2 208/3/2
f 209/3/2 210/3/2 213/3/2
f 213/3/2 210/3/2 214/3/2
f 211/3/2 212/3/2 215/3/2
f 215/3/2 212/3/2 216/3/2
f 217/3/2 218/3/2 221/3/2
f 221/3/2 218/3/2 222/3/2
f 219/3/2 220/3/2 223/3/2
f 223/3/2 220/3/2 224/3/2
f 225/3/2 226/3/2 227/3/2
f 227/3/2 226/3/2 228/3/2
f 231/1/3 230/1/3 229/1/3
f 232/1/3 230/1/3 231/1/3
f 237/1/3 234/1/3 233/1/3
f 238/1/3 234/1/3 237/1/3
f 239/1/3 236/1/3 235/1/3
f 240/1/3 236/1/3 239/1/3
f 243/3/3 242/3/3 241/3/3
f 244/3/3 242/3/3 243/3/3
f 245/3/3 242/3/3 244/3/3
f 246/3/3 242/3/3 245/3/3
f 247/3/3 243/3/3 241/3/3
f 248/3/3 243/3/3 247/3/3
f 249/3/3 245/3/3 244/3/3
f 250/3/3 245/3/3 249/3/3
f 251/3/3 242/3/3 246/3/3
f 252/3/3 242/3/3 251/3/3
f 253/3/3 242/3/3 252/3/3
f 254/3/3 242/3/3 253/3/3
f 261/3/3 256/3/3 255/3/3
f 262/3/3 256/3/3 261/3/3
f 263/3/3 258/3/3 257/3/3
f 264/3/3 258/3/3 263/3/3
f 265/3/3 260/3/3 259/3/3
f 266/3/3 260/3/3 265/3/3
f 267/3/3 247/3/3 241/3/3
f 268/3/3 249/3/3 248/3/3
f 269/3/3 249/3/3 268/3/3
f 270/3/3 253/3/3 252/3/3
f 271/3/3 253/3/3 270/3/3
f 272/3/3 242/3/3 254/3/3
f 273/3/3 271/3/3 270/3/3
f 273/3/3 272/3/3 271/3/3
f 273/3/3 269/3/3 268/3/3
f 273/3/3 270/3/3 269/3/3
f 273/3/3 267/3/3 241/3/3
f 273/3/3 268/3/3 267/3/3
f 274/3/3 272/3/3 273/3/3
f 275/3/3 272/3/3 274/3/3
f 276/3/3 272/3/3 275/3/3
f 277/3/3 272/3/3 276/3/3
f 278/3/3 242/3/3 272/3/3
f 278/3/3 272/3/3 277/3/3
f 285/3/3 280/3/3 279/3/3
f 286/3/3 280/3/3 285/3/3
f 287/3/3 282/3/3 281/3/3
f 288/3/3 282/3/3 287/3/3
f 289/3/3 284/3/3 283/3/3
f 290/3/3 284/3/3 289/3/3
f 291/3/3 273/3/3 241/3/3
f 292/3/3 275/3/3 274/3/3
f 293/3/3 275/3/3 292/3/3
f 294/3/3 277/3/3 276/3/3
f 295/3/3 277/3/3 294/3/3
f 296/3/3 242/3/3 278/3/3
f 297/3/3 293/3/3 292/3/3
f 297/3/3 296/3/3 295/3/3
f 297/3/3 295/3/3 294/3/3
f 297/3/3 294/3/3 293/3/3
f 297/3/3 291/3/3 241/3/3
f 297/3/3 292/3/3 291/3/3
f 298/3/3 242/3/3 296/3/3
f 298/3/3 296/3/3 297/3/3
f 305/3/3 300/3/3 299/3/3
f 306/3/3 300/3/3 305/3/3
f 307/3/3 302/3/3 301/3/3
f 308/3/3 302/3/3 307/3/3
f 309/3/3 304/3/3 303/3/3
f 310/3/3 304/3/3 309/3/3
f 311/3/3 305/3/3 299/3/3
f 312/3/3 300/3/3 306/3/3
f 313/3/3 307/3/3 301/3/3
f 314/3/3 302/3/3 308/3/3
f 315/3/3 309/3/3 303/3/3
f 316/3/3 304/3/3 310/3/3
f 317/3/3 311/3/3 299/3/3
f 317/3/3 312/3/3 311/3/3
f 318/3/3 300/3/3 312/3/3
f 318/3/3 312/3/3 317/3/3
f 319/3/3 313/3/3 301/3/3
f 319/3/3 314/3/3 313/3/3
f 320/3/3 302/3/3 314/3/3
f 320/3/3 314/3/3 319/3/3
f 321/3/3 316/3/3 315/3/3
f 321/3/3 315/3/3 303/3/3
f 322/3/3 304/3/3 316/3/3
f 322/3/3 316/3/3 321/3/3
f 329/3/3 324/3/3 323/3/3
f 330/3/3 324/3/3 329/3/3
f 331/3/3 326/3/3 325/3/3
f 332/3/3 326/3/3 331/3/3
f 333/3/3 328/3/3 327/3/3
f 334/3/3 328/3/3 333/3/3
f 335/3/3 329/3/3 323/3/3
f 336/3/3 324/3/3 330/3/3
f 337/3/3 331/3/3 325/3/3
f 338/3/3 326/3/3 332/3/3
f 339/3/3 333/3/3 327/3/3
f 340/3/3 328/3/3 334/3/3
f 341/3/3 335/3/3 323/3/3
f 341/3/3 336/3/3 335/3/3
f 342/3/3 324/3/3 336/3/3
f 342/3/3 336/3/3 341/3/3
f 343/3/3 337/3/3 325/3/3
f 343/3/3 338/3/3 337/3/3
f 344/3/3 326/3/3 338/3/3
f 344/3/3 338/3/3 343/3/3
f 345/3/3 340/3/3 339/3/3
f 345/3/3 339/3/3 327/3/3
f 346/3/3 328/3/3 340/3/3
f 346/3/3 340/3/3 345/3/3
f 347/3/4 348/3/4 353/3/4
f 353/3/4 348/3/4 354/3/4
f 349/3/4 350/3/4 355/3/4
f 355/3/4 350/3/4 356/3/4
f 351/3/4 352/3/4 357/3/4
f 357/3/4 352/3/4 358/3/4
f 347/3/4 353/3/4 359/3/4
f 354/3/4 348/3/4 360/3/4
f 349/3/4 355/3/4 361/3/4
f 356/3/4 350/3/4 362/3/4
f 351/3/4 357/3/4 363/3/4
f 358/3/4 352/3/4 364/3/4
f 347/3/4 359/3/4 365/3/4
f 359/3/4 360/3/4 365/3/4
f 360/3/4 348/3/4 366/3/4
f 365/3/4 360/3/4 366/3/4
f 349/3/4 361/3/4 367/3/4
f 361/3/4 362/3/4 367/3/4
f 362/3/4 350/3/4 368/3/4
f 367/3/4 362/3/4 368/3/4
f 363/3/4 364/3/4 369/3/4
f 351/3/4 363/3/4 369/3/4
f 364/3/4 352/3/4 370/3/4
f 369/3/4 364/3/4 370/3/4
f 371/3/4 372/3/4 377/3/4
f 377/3/4 372/3/4 378/3/4
f 373/3/4 374/3/4 379/3/4
f 379/3/4 374/3/4 380/3/4
f 375/3/4 376/3/4 381/3/4
f 381/3/4 376/3/4 382/3/4
f 371/3/4 377/3/4 383/3/4
f 378/3/4 372/3/4 384/3/4
f 373/3/4 379/3/4 385/3/4
f 380/3/4 374/3/4 386/3/4
f 375/3/4 381/3/4 387/3/4
f 382/3/4 376/3/4 388/3/4
f 371/3/4 383/3/4 389/3/4
f 383/3/4 384/3/4 389/3/4
f 384/3/4 372/3/4 390/3/4
f 389/3/4 384/3/4 390/3/4
f 373/3/4 385/3/4 391/3/4
f 385/3/4 386/3/4 391/3/4
f 386/3/4 374/3/4 392/3/4
f 391/3/4 386/3/4 392/3/4
f 387/3/4 388/3/4 393/3/4
f 375/3/4 387/3/4 393/3/4
f 388/3/4 376/3/4 394/3/4
f 393/3/4 388/3/4 394/3/4
f 395/3/4 396/3/4 397/3/4
f 397/3/4 396/3/4 398/3/4
f 395/3/4 397/3/4 399/3/4
f 399/3/4 397/3/4 400/3/4
f 398/3/4 396/3/4 401/3/4
f 401/3/4 396/3/4 402/3/4
f 402/3/4 396/3/4 403/3/4
f 403/3/4 396/3/4 404/3/4
f 405/3/4 406/3/4 411/3/4
f 411/3/4 406/3/4 412/3/4
f 407/3/4 408/3/4 413/3/4
f 413/3/4 408/3/4 414/3/4
f 409/3/4 410/3/4 415/3/4
f 415/3/4 410/3/4 416/3/4
f 395/3/4 399/3/4 417/3/4
f 400/3/4 401/3/4 418/3/4
f 418/3/4 401/3/4 419/3/4
f 402/3/4 403/3/4 420/3/4
f 420/3/4 403/3/4 421/3/4
f 404/3/4 396/3/4 422/3/4
f 420/3/4 421/3/4 423/3/4
f 421/3/4 422/3/4 423/3/4
f 419/3/4 420/3/4 423/3/4
f 395/3/4 417/3/4 423/3/4
f 418/3/4 419/3/4 423/3/4
f 417/3/4 418/3/4 423/3/4
f 423/3/4 422/3/4 424/3/4
f 424/3/4 422/3/4 425/3/4
f 425/3/4 422/3/4 426/3/4
f 426/3/4 422/3/4 427/3/4
f 422/3/4 396/3/4 428/3/4
f 427/3/4 422/3/4 428/3/4
f 429/3/4 430/3/4 435/3/4
f 435/3/4 430/3/4 436/3/4
f 431/3/4 432/3/4 437/3/4
f 437/3/4 432/3/4 438/3/4
f 433/3/4 434/3/4 439/3/4
f 439/3/4 434/3/4 440/3/4
f 395/3/4 423/3/4 441/3/4
f 424/3/4 425/3/4 442/3/4
f 442/3/4 425/3/4 443/3/4
f 426/3/4 427/3/4 444/3/4
f 444/3/4 427/3/4 445/3/4
f 428/3/4 396/3/4 446/3/4
f 442/3/4 443/3/4 447/3/4
f 445/3/4 446/3/4 447/3/4
f 444/3/4 445/3/4 447/3/4
f 443/3/4 444/3/4 447/3/4
f 395/3/4 441/3/4 447/3/4
f 441/3/4 442/3/4 447/3/4
f 446/3/4 396/3/4 448/3/4
f 447/3/4 446/3/4 448/3/4
f 449/2/4 450/2/4 451/2/4
f 451/2/4 450/2/4 452/2/4
f 453/2/4 454/2/4 455/2/4
f 455/2/4 454/2/4 456/2/4
f 459/3/5 458/3/5 457/3/5
f 460/3/5 458/3/5 459/3/5
f 465/3/5 462/3/5 461/3/5
f 466/3/5 462/3/5 465/3/5
f 467/3/5 464/3/5 463/3/5
f 468/3/5 464/3/5 467/3/5
f 473/3/5 470/3/5 469/3/5
f 474/3/5 470/3/5 473/3/5
f 475/3/5 472/3/5 471/3/5
f 476/3/5 472/3/5 475/3/5
f 479/1/5 478/1/5 477/1/5
f 480/1/5 478/1/5 479/1/5
f 484/3/5 481/3/5 480/3/5
f 485/3/5 481/3/5 484/3/5
f 486/3/5 483/3/5 482/3/5
f 487/3/5 483/3/5 486/3/5
f 493/3/5 489/3/5 488/3/5
f 494/3/5 489/3/5 493/3/5
f 495/3/5 491/3/5 490/3/5
f 496/3/5 491/3/5 495/3/5
f 497/2/5 493/2/5 492/2/5
f 498/2/5 493/2/5 497/2/5
f 501/1/5 500/1/5 499/1/5
f 502/1/5 500/1/5 501/1/5
f 505/2/5 504/2/5 503/2/5
f 506/2/5 504/2/5 505/2/5
f 509/1/5 508/1/5 507/1/5
f 510/1/5 508/1/5 509/1/5
f 515/3/5 512/3/5 511/3/5
f 516/3/5 512/3/5 515/3/5
f 517/3/5 514/3/5 513/3/5
f 518/3/5 514/3/5 517/3/5
f 523/3/5 520/3/5 519/3/5
f 524/3/5 520/3/5 523/3/5
f 525/3/5 522/3/5 521/3/5
f 526/3/5 522/3/5 525/3/5
f 531/3/5 528/3/5 527/3/5
f 532/3/5 528/3/5 531/3/5
f 533/3/5 530/3/5 529/3/5
f 534/3/5 530/3/5 533/3/5
f 539/3/5 536/3/5 535/3/5
f 540/3/5 536/3/5 539/3/5
f 541/3/5 538/3/5 537/3/5
f 542/3/5 538/3/5 541/3/5
f 547/3/5 544/3/5 543/3/5
f 548/3/5 544/3/5 547/3/5
f 549/3/5 546/3/5 545/3/5
f 550/3/5 546/3/5 549/3/5
f 555/3/5 552/3/5 551/3/5
f 556/3/5 552/3/5 555/3/5
f 557/3/5 554/3/5 553/3/5
f 558/3/5 554/3/5 557/3/5
f 563/3/5 560/3/5 559/3/5
f 564/3/5 560/3/5 563/3/5
f 565/3/5 562/3/5 561/3/5
f 566/3/5 562/3/5 565/3/5
f 571/3/5 568/3/5 567/3/5
f 572/3/5 568/3/5 571/3/5
f 573/3/5 570/3/5 569/3/5
f 574/3/5 570/3/5 573/3/5
f 575/3/6 576/3/6 579/3/6
f 579/3/6 576/3/6 580/3/6
f 577/3/6 578/3/6 581/3/6
f 581/3/6 578/3/6 582/3/6
f 583/3/6 584/3/6 587/3/6
f 587/3/6 584/3/6 588/3/6
f 585/3/6 586/3/6 589/3/6
f 589/3/6 586/3/6 590/3/6
f 591/3/6 592/3/6 595/3/6
f 595/3/6 592/3/6 596/3/6
f 593/3/6 594/3/6 597/3/6
f 597/3/6 594/3/6 598/3/6
f 599/3/6 600/3/6 603/3/6
f 603/3/6 600/3/6 604/3/6
f 601/3/6 602/3/6 605/3/6
f 605/3/6 602/3/6 606/3/6
f 607/1/6 608/1/6 609/1/6
f 609/1/6 608/1/6 610/1/6
f 610/3/6 611/3/6 614/3/6
f 614/3/6 611/3/6 615/3/6
f 612/3/6 613/3/6 616/3/6
f 616/3/6 613/3/6 617/3/6
f 618/3/6 619/3/6 623/3/6
f 623/3/6 619/3/6 624/3/6
f 620/3/6 621/3/6 625/3/6
f 625/3/6 621/3/6 626/3/6
f 622/2/6 623/2/6 627/2/6
f 627/2/6 623/2/6 628/2/6
f 629/1/6 630/1/6 631/1/6
f 631/1/6 630/1/6 632/1/6
f 633/3/6 634/3/6 637/3/6
f 637/3/6 634/3/6 638/3/6
f 635/3/6 636/3/6 639/3/6
f 639/3/6 636/3/6 640/3/6
f 641/3/6 642/3/6 645/3/6
f 645/3/6 642/3/6 646/3/6
f 643/3/6 644/3/6 647/3/6
f 647/3/6 644/3/6 648/3/6
f 649/3/6 650/3/6 653/3/6
f 653/3/6 650/3/6 654/3/6
f 651/3/6 652/3/6 655/3/6
f 655/3/6 652/3/6 656/3/6
f 657/3/6 658/3/6 661/3/6
f 661/3/6 658/3/6 662/3/6
f 659/3/6 660/3/6 663/3/6
f 663/3/6 660/3/6 664/3/6
f 665/3/6 666/3/6 669/3/6
f 669/3/6 666/3/6 670/3/6
f 667/3/6 668/3/6 671/3/6
f 671/3/6 668/3/6 672/3/6
f 673/3/6 674/3/6 677/3/6
f 677/3/6 674/3/6 678/3/6
f 675/3/6 676/3/6 679/3/6
f 679/3/6 676/3/6 680/3/6
f 681/3/6 682/3/6 683/3/6
f 683/3/6 682/3/6 684/3/6
