# MagicaVoxel @ Ephtracy

# group
g apt:lamp

# material
mtllib default-material.mtl
usemtl palette

# normals
vn -1 0 0
vn 1 0 0
vn 0 0 1
vn 0 0 -1
vn 0 -1 0
vn 0 1 0

# texcoords
vt 0.412109 0.5
vt 0.435547 0.5
vt 0.916016 0.5
vt 0.962891 0.5
vt 0.966797 0.5
vt 0.982422 0.5
vt 0.994141 0.5

# verts
v -3 19 -5
v -3 19 -9
v -3 24 -5
v -3 24 -9
v -2 19 -4
v -2 19 -5
v -2 19 -9
v -2 19 -10
v -2 24 -4
v -2 24 -5
v -2 24 -9
v -2 24 -10
v -1 0 6
v -1 0 -0
v -1 1 5
v -1 1 -0
v -1 15 5
v -1 15 3
v -1 16 6
v -1 16 5
v -1 17 5
v -1 17 4
v -1 17 3
v -1 17 2
v -1 18 4
v -1 18 3
v -1 18 2
v -1 18 1
v -1 19 3
v -1 19 2
v -1 19 1
v -1 19 -0
v -1 20 2
v -1 20 1
v -1 20 -0
v -1 20 -1
v -1 21 1
v -1 21 -0
v -1 21 -1
v -1 21 -2
v -1 22 -0
v -1 22 -1
v -1 22 -2
v -1 22 -3
v -1 23 -1
v -1 23 -2
v -1 23 -3
v -1 23 -4
v -1 24 -2
v -1 24 -3
v -1 24 -4
v -1 25 -3
v -1 25 -4
v -1 25 -9
v -1 26 -4
v -1 26 -9
v 0 24 -6
v 0 24 -8
v 0 25 -6
v 0 25 -8
v 1 12 10
v 1 12 9
v 1 13 9
v 1 13 6
v 1 14 10
v 1 14 7
v 1 15 7
v 1 15 6
v 2 20 -6
v 2 20 -8
v 2 21 -6
v 2 21 -8
v 1 20 -6
v 1 20 -8
v 1 21 -6
v 1 21 -8
v 1 24 -6
v 1 24 -8
v 1 25 -6
v 1 25 -8
v 2 0 6
v 2 0 -0
v 2 1 5
v 2 1 -0
v 2 12 10
v 2 12 9
v 2 13 9
v 2 13 6
v 2 14 10
v 2 14 7
v 2 15 7
v 2 15 6
v 2 15 5
v 2 15 3
v 2 16 6
v 2 16 5
v 2 17 5
v 2 17 4
v 2 17 3
v 2 17 2
v 2 18 4
v 2 18 3
v 2 18 2
v 2 18 1
v 2 19 3
v 2 19 2
v 2 19 1
v 2 19 -0
v 2 19 -4
v 2 19 -5
v 2 19 -9
v 2 19 -10
v 2 20 2
v 2 20 1
v 2 20 -0
v 2 20 -1
v 2 21 1
v 2 21 -0
v 2 21 -1
v 2 21 -2
v 2 22 -0
v 2 22 -1
v 2 22 -2
v 2 22 -3
v 2 23 -1
v 2 23 -2
v 2 23 -3
v 2 23 -4
v 2 24 -2
v 2 24 -3
v 2 24 -4
v 2 24 -5
v 2 24 -9
v 2 24 -10
v 2 25 -3
v 2 25 -4
v 2 25 -9
v 2 26 -4
v 2 26 -9
v 3 19 -5
v 3 19 -9
v 3 24 -5
v 3 24 -9
v 1 12 10
v 1 14 10
v 2 12 10
v 2 14 10
v 1 14 7
v 1 15 7
v 2 14 7
v 2 15 7
v -1 0 6
v -1 16 6
v 1 13 6
v 1 15 6
v 2 0 6
v 2 13 6
v 2 15 6
v 2 16 6
v -1 16 5
v -1 17 5
v 2 16 5
v 2 17 5
v -1 17 4
v -1 18 4
v 2 17 4
v 2 18 4
v -1 18 3
v -1 19 3
v 2 18 3
v 2 19 3
v -1 19 2
v -1 20 2
v 2 19 2
v 2 20 2
v -1 20 1
v -1 21 1
v 2 20 1
v 2 21 1
v -1 21 -0
v -1 22 -0
v 2 21 -0
v 2 22 -0
v -1 22 -1
v -1 23 -1
v 2 22 -1
v 2 23 -1
v -1 23 -2
v -1 24 -2
v 2 23 -2
v 2 24 -2
v -1 24 -3
v -1 25 -3
v 2 24 -3
v 2 25 -3
v -2 19 -4
v -2 24 -4
v -1 20 -4
v -1 23 -4
v -1 24 -4
v -1 25 -4
v -1 26 -4
v 1 20 -4
v 1 23 -4
v 2 19 -4
v 2 23 -4
v 2 25 -4
v 2 26 -4
v -3 19 -5
v -3 24 -5
v -2 19 -5
v -2 24 -5
v 2 19 -5
v 2 24 -5
v 3 19 -5
v 3 24 -5
v 0 24 -6
v 0 25 -6
v 1 24 -6
v 1 25 -6
v 1 20 -8
v 1 21 -8
v 2 20 -8
v 2 21 -8
v 1 12 9
v 1 13 9
v 2 12 9
v 2 13 9
v -1 1 5
v -1 15 5
v 2 1 5
v 2 15 5
v -1 15 3
v -1 17 3
v 2 15 3
v 2 17 3
v -1 17 2
v -1 18 2
v 2 17 2
v 2 18 2
v -1 18 1
v -1 19 1
v 2 18 1
v 2 19 1
v -1 0 -0
v -1 1 -0
v -1 19 -0
v -1 20 -0
v 2 0 -0
v 2 1 -0
v 2 19 -0
v 2 20 -0
v -1 20 -1
v -1 21 -1
v 2 20 -1
v 2 21 -1
v -1 21 -2
v -1 22 -2
v 2 21 -2
v 2 22 -2
v -1 22 -3
v -1 23 -3
v 2 22 -3
v 2 23 -3
v -1 24 -4
v -1 25 -4
v 2 24 -4
v 2 25 -4
v 1 20 -6
v 1 21 -6
v 2 20 -6
v 2 21 -6
v 0 24 -8
v 0 25 -8
v 1 24 -8
v 1 25 -8
v -3 19 -9
v -3 24 -9
v -2 19 -9
v -2 24 -9
v -1 25 -9
v -1 26 -9
v 2 19 -9
v 2 24 -9
v 2 25 -9
v 2 26 -9
v 3 19 -9
v 3 24 -9
v -2 19 -10
v -2 24 -10
v 2 19 -10
v 2 24 -10
v -1 0 6
v 2 0 6
v -1 0 -0
v 2 0 -0
v 1 12 10
v 2 12 10
v 1 12 9
v 2 12 9
v 1 13 9
v 2 13 9
v 1 13 6
v 2 13 6
v -1 15 5
v 2 15 5
v -1 15 3
v 2 15 3
v -1 17 3
v 2 17 3
v -1 17 2
v 2 17 2
v -1 18 2
v 2 18 2
v -1 18 1
v 2 18 1
v -1 19 1
v 2 19 1
v -1 19 -0
v 2 19 -0
v -2 19 -4
v 2 19 -4
v -3 19 -5
v -2 19 -5
v 2 19 -5
v 3 19 -5
v -3 19 -9
v -2 19 -9
v 2 19 -9
v 3 19 -9
v -2 19 -10
v 2 19 -10
v -1 20 -0
v 2 20 -0
v -1 20 -1
v 2 20 -1
v -1 21 -1
v 2 21 -1
v -1 21 -2
v 2 21 -2
v 1 21 -6
v 2 21 -6
v 1 21 -8
v 2 21 -8
v -1 22 -2
v 2 22 -2
v -1 22 -3
v 2 22 -3
v -1 23 -3
v 2 23 -3
v -1 23 -4
v 1 23 -4
v 2 23 -4
v -1 25 -4
v 2 25 -4
v 0 25 -6
v 1 25 -6
v 0 25 -8
v 1 25 -8
v -1 25 -9
v 2 25 -9
v -1 1 5
v 2 1 5
v -1 1 -0
v 2 1 -0
v 1 14 10
v 2 14 10
v 1 14 7
v 2 14 7
v 1 15 7
v 2 15 7
v 1 15 6
v 2 15 6
v -1 16 6
v 2 16 6
v -1 16 5
v 2 16 5
v -1 17 5
v 2 17 5
v -1 17 4
v 2 17 4
v -1 18 4
v 2 18 4
v -1 18 3
v 2 18 3
v -1 19 3
v 2 19 3
v -1 19 2
v 2 19 2
v -1 20 2
v 2 20 2
v -1 20 1
v 2 20 1
v 1 20 -6
v 2 20 -6
v 1 20 -8
v 2 20 -8
v -1 21 1
v 2 21 1
v -1 21 -0
v 2 21 -0
v -1 22 -0
v 2 22 -0
v -1 22 -1
v 2 22 -1
v -1 23 -1
v 2 23 -1
v -1 23 -2
v 2 23 -2
v -1 24 -2
v 2 24 -2
v -1 24 -3
v 2 24 -3
v -2 24 -4
v -1 24 -4
v 2 24 -4
v -3 24 -5
v -2 24 -5
v 2 24 -5
v 3 24 -5
v 0 24 -6
v 1 24 -6
v 0 24 -8
v 1 24 -8
v -3 24 -9
v -2 24 -9
v 2 24 -9
v 3 24 -9
v -2 24 -10
v 2 24 -10
v -1 25 -3
v 2 25 -3
v -1 25 -4
v 2 25 -4
v -1 26 -4
v 2 26 -4
v -1 26 -9
v 2 26 -9

# faces
f 3/2/1 2/2/1 1/2/1
f 4/2/1 2/2/1 3/2/1
f 9/2/1 6/2/1 5/2/1
f 10/2/1 6/2/1 9/2/1
f 11/2/1 8/2/1 7/2/1
f 12/2/1 8/2/1 11/2/1
f 15/7/1 14/7/1 13/7/1
f 16/7/1 14/7/1 15/7/1
f 17/7/1 15/7/1 13/7/1
f 19/7/1 17/7/1 13/7/1
f 19/7/1 18/7/1 17/7/1
f 20/7/1 18/7/1 19/7/1
f 21/7/1 18/7/1 20/7/1
f 22/7/1 18/7/1 21/7/1
f 23/7/1 18/7/1 22/7/1
f 25/7/1 24/7/1 23/7/1
f 25/7/1 23/7/1 22/7/1
f 26/7/1 24/7/1 25/7/1
f 27/7/1 24/7/1 26/7/1
f 29/7/1 28/7/1 27/7/1
f 29/7/1 27/7/1 26/7/1
f 30/7/1 28/7/1 29/7/1
f 31/7/1 28/7/1 30/7/1
f 33/7/1 32/7/1 31/7/1
f 33/7/1 31/7/1 30/7/1
f 34/7/1 32/7/1 33/7/1
f 35/7/1 32/7/1 34/7/1
f 37/7/1 35/7/1 34/7/1
f 37/7/1 36/7/1 35/7/1
f 38/7/1 36/7/1 37/7/1
f 39/7/1 36/7/1 38/7/1
f 41/7/1 40/7/1 39/7/1
f 41/7/1 39/7/1 38/7/1
f 42/7/1 40/7/1 41/7/1
f 43/7/1 40/7/1 42/7/1
f 45/7/1 44/7/1 43/7/1
f 45/7/1 43/7/1 42/7/1
f 46/7/1 44/7/1 45/7/1
f 47/7/1 44/7/1 46/7/1
f 49/7/1 48/7/1 47/7/1
f 49/7/1 47/7/1 46/7/1
f 50/7/1 48/7/1 49/7/1
f 51/7/1 48/7/1 50/7/1
f 52/7/1 51/7/1 50/7/1
f 53/7/1 51/7/1 52/7/1
f 55/7/1 54/7/1 53/7/1
f 56/7/1 54/7/1 55/7/1
f 59/6/1 58/6/1 57/6/1
f 60/6/1 58/6/1 59/6/1
f 63/7/1 62/7/1 61/7/1
f 65/7/1 63/7/1 61/7/1
f 65/7/1 64/7/1 63/7/1
f 66/7/1 64/7/1 65/7/1
f 67/7/1 64/7/1 66/7/1
f 68/7/1 64/7/1 67/7/1
f 71/2/1 70/2/1 69/2/1
f 72/2/1 70/2/1 71/2/1
f 73/1/2 74/1/2 75/1/2
f 75/1/2 74/1/2 76/1/2
f 77/6/2 78/6/2 79/6/2
f 79/6/2 78/6/2 80/6/2
f 81/7/2 82/7/2 83/7/2
f 83/7/2 82/7/2 84/7/2
f 85/7/2 86/7/2 87/7/2
f 81/7/2 83/7/2 88/7/2
f 85/7/2 87/7/2 89/7/2
f 87/7/2 88/7/2 89/7/2
f 89/7/2 88/7/2 90/7/2
f 90/7/2 88/7/2 91/7/2
f 88/7/2 83/7/2 92/7/2
f 91/7/2 88/7/2 92/7/2
f 92/7/2 83/7/2 93/7/2
f 93/7/2 94/7/2 95/7/2
f 92/7/2 93/7/2 95/7/2
f 95/7/2 94/7/2 96/7/2
f 96/7/2 94/7/2 97/7/2
f 97/7/2 94/7/2 98/7/2
f 98/7/2 94/7/2 99/7/2
f 99/7/2 100/7/2 101/7/2
f 98/7/2 99/7/2 101/7/2
f 101/7/2 100/7/2 102/7/2
f 102/7/2 100/7/2 103/7/2
f 103/7/2 104/7/2 105/7/2
f 102/7/2 103/7/2 105/7/2
f 105/7/2 104/7/2 106/7/2
f 106/7/2 104/7/2 107/7/2
f 107/7/2 108/7/2 113/7/2
f 106/7/2 107/7/2 113/7/2
f 113/7/2 108/7/2 114/7/2
f 114/7/2 108/7/2 115/7/2
f 115/7/2 116/7/2 117/7/2
f 114/7/2 115/7/2 117/7/2
f 117/7/2 116/7/2 118/7/2
f 118/7/2 116/7/2 119/7/2
f 119/7/2 120/7/2 121/7/2
f 118/7/2 119/7/2 121/7/2
f 121/7/2 120/7/2 122/7/2
f 122/7/2 120/7/2 123/7/2
f 123/7/2 124/7/2 125/7/2
f 122/7/2 123/7/2 125/7/2
f 125/7/2 124/7/2 126/7/2
f 126/7/2 124/7/2 127/7/2
f 109/2/2 110/2/2 128/2/2
f 126/7/2 127/7/2 129/7/2
f 127/7/2 128/7/2 129/7/2
f 129/7/2 128/7/2 130/7/2
f 128/2/2 110/2/2 131/2/2
f 130/7/2 128/7/2 131/7/2
f 131/2/2 110/2/2 132/2/2
f 111/2/2 112/2/2 133/2/2
f 133/2/2 112/2/2 134/2/2
f 130/7/2 131/7/2 135/7/2
f 135/7/2 131/7/2 136/7/2
f 136/7/2 137/7/2 138/7/2
f 138/7/2 137/7/2 139/7/2
f 140/2/2 141/2/2 142/2/2
f 142/2/2 141/2/2 143/2/2
f 146/7/3 145/7/3 144/7/3
f 147/7/3 145/7/3 146/7/3
f 150/7/3 149/7/3 148/7/3
f 151/7/3 149/7/3 150/7/3
f 154/7/3 153/7/3 152/7/3
f 155/7/3 153/7/3 154/7/3
f 156/7/3 154/7/3 152/7/3
f 157/7/3 154/7/3 156/7/3
f 158/7/3 153/7/3 155/7/3
f 159/7/3 153/7/3 158/7/3
f 162/7/3 161/7/3 160/7/3
f 163/7/3 161/7/3 162/7/3
f 166/7/3 165/7/3 164/7/3
f 167/7/3 165/7/3 166/7/3
f 170/7/3 169/7/3 168/7/3
f 171/7/3 169/7/3 170/7/3
f 174/7/3 173/7/3 172/7/3
f 175/7/3 173/7/3 174/7/3
f 178/7/3 177/7/3 176/7/3
f 179/7/3 177/7/3 178/7/3
f 182/7/3 181/7/3 180/7/3
f 183/7/3 181/7/3 182/7/3
f 186/7/3 185/7/3 184/7/3
f 187/7/3 185/7/3 186/7/3
f 190/7/3 189/7/3 188/7/3
f 191/7/3 189/7/3 190/7/3
f 194/7/3 193/7/3 192/7/3
f 195/7/3 193/7/3 194/7/3
f 198/2/3 197/2/3 196/2/3
f 199/2/3 197/2/3 198/2/3
f 200/2/3 197/2/3 199/2/3
f 203/2/3 198/2/3 196/2/3
f 203/3/3 199/3/3 198/3/3
f 204/3/3 199/3/3 203/3/3
f 205/2/3 203/2/3 196/2/3
f 205/2/3 204/2/3 203/2/3
f 206/2/3 204/2/3 205/2/3
f 207/7/3 202/7/3 201/7/3
f 208/7/3 202/7/3 207/7/3
f 211/2/3 210/2/3 209/2/3
f 212/2/3 210/2/3 211/2/3
f 215/2/3 214/2/3 213/2/3
f 216/2/3 214/2/3 215/2/3
f 219/6/3 218/6/3 217/6/3
f 220/6/3 218/6/3 219/6/3
f 223/3/3 222/3/3 221/3/3
f 224/3/3 222/3/3 223/3/3
f 225/7/4 226/7/4 227/7/4
f 227/7/4 226/7/4 228/7/4
f 229/7/4 230/7/4 231/7/4
f 231/7/4 230/7/4 232/7/4
f 233/7/4 234/7/4 235/7/4
f 235/7/4 234/7/4 236/7/4
f 237/7/4 238/7/4 239/7/4
f 239/7/4 238/7/4 240/7/4
f 241/7/4 242/7/4 243/7/4
f 243/7/4 242/7/4 244/7/4
f 245/7/4 246/7/4 249/7/4
f 249/7/4 246/7/4 250/7/4
f 247/7/4 248/7/4 251/7/4
f 251/7/4 248/7/4 252/7/4
f 253/7/4 254/7/4 255/7/4
f 255/7/4 254/7/4 256/7/4
f 257/7/4 258/7/4 259/7/4
f 259/7/4 258/7/4 260/7/4
f 261/7/4 262/7/4 263/7/4
f 263/7/4 262/7/4 264/7/4
f 265/7/4 266/7/4 267/7/4
f 267/7/4 266/7/4 268/7/4
f 269/3/4 270/3/4 271/3/4
f 271/3/4 270/3/4 272/3/4
f 273/6/4 274/6/4 275/6/4
f 275/6/4 274/6/4 276/6/4
f 277/2/4 278/2/4 279/2/4
f 279/2/4 278/2/4 280/2/4
f 281/7/4 282/7/4 285/7/4
f 285/7/4 282/7/4 286/7/4
f 283/2/4 284/2/4 287/2/4
f 287/2/4 284/2/4 288/2/4
f 289/2/4 290/2/4 291/2/4
f 291/2/4 290/2/4 292/2/4
f 295/7/5 294/7/5 293/7/5
f 296/7/5 294/7/5 295/7/5
f 299/7/5 298/7/5 297/7/5
f 300/7/5 298/7/5 299/7/5
f 303/7/5 302/7/5 301/7/5
f 304/7/5 302/7/5 303/7/5
f 307/7/5 306/7/5 305/7/5
f 308/7/5 306/7/5 307/7/5
f 311/7/5 310/7/5 309/7/5
f 312/7/5 310/7/5 311/7/5
f 315/7/5 314/7/5 313/7/5
f 316/7/5 314/7/5 315/7/5
f 319/7/5 318/7/5 317/7/5
f 320/7/5 318/7/5 319/7/5
f 324/2/5 322/2/5 321/2/5
f 325/2/5 322/2/5 324/2/5
f 327/2/5 325/2/5 324/2/5
f 327/2/5 326/2/5 325/2/5
f 327/2/5 324/2/5 323/2/5
f 328/2/5 326/2/5 327/2/5
f 329/2/5 326/2/5 328/2/5
f 330/2/5 326/2/5 329/2/5
f 331/2/5 329/2/5 328/2/5
f 332/2/5 329/2/5 331/2/5
f 335/7/5 334/7/5 333/7/5
f 336/7/5 334/7/5 335/7/5
f 339/7/5 338/7/5 337/7/5
f 340/7/5 338/7/5 339/7/5
f 343/3/5 342/3/5 341/3/5
f 344/3/5 342/3/5 343/3/5
f 347/7/5 346/7/5 345/7/5
f 348/7/5 346/7/5 347/7/5
f 351/7/5 350/7/5 349/7/5
f 352/7/5 350/7/5 351/7/5
f 353/7/5 350/7/5 352/7/5
f 356/7/5 355/7/5 354/7/5
f 357/7/5 355/7/5 356/7/5
f 358/7/5 356/7/5 354/7/5
f 359/7/5 355/7/5 357/7/5
f 360/7/5 358/7/5 354/7/5
f 360/7/5 359/7/5 358/7/5
f 361/7/5 355/7/5 359/7/5
f 361/7/5 359/7/5 360/7/5
f 362/7/6 363/7/6 364/7/6
f 364/7/6 363/7/6 365/7/6
f 366/7/6 367/7/6 368/7/6
f 368/7/6 367/7/6 369/7/6
f 370/7/6 371/7/6 372/7/6
f 372/7/6 371/7/6 373/7/6
f 374/7/6 375/7/6 376/7/6
f 376/7/6 375/7/6 377/7/6
f 378/7/6 379/7/6 380/7/6
f 380/7/6 379/7/6 381/7/6
f 382/7/6 383/7/6 384/7/6
f 384/7/6 383/7/6 385/7/6
f 386/7/6 387/7/6 388/7/6
f 388/7/6 387/7/6 389/7/6
f 390/7/6 391/7/6 392/7/6
f 392/7/6 391/7/6 393/7/6
f 394/2/6 395/2/6 396/2/6
f 396/2/6 395/2/6 397/2/6
f 398/7/6 399/7/6 400/7/6
f 400/7/6 399/7/6 401/7/6
f 402/7/6 403/7/6 404/7/6
f 404/7/6 403/7/6 405/7/6
f 406/7/6 407/7/6 408/7/6
f 408/7/6 407/7/6 409/7/6
f 410/7/6 411/7/6 412/7/6
f 412/7/6 411/7/6 413/7/6
f 414/2/6 415/2/6 418/2/6
f 415/2/6 416/2/6 418/2/6
f 418/2/6 416/2/6 419/2/6
f 418/2/6 419/2/6 421/2/6
f 419/2/6 420/2/6 421/2/6
f 417/2/6 418/2/6 421/2/6
f 421/2/6 420/2/6 422/2/6
f 417/2/6 421/2/6 423/2/6
f 422/2/6 420/2/6 424/2/6
f 417/2/6 423/2/6 425/2/6
f 423/2/6 424/2/6 425/2/6
f 425/2/6 424/2/6 426/2/6
f 424/2/6 420/2/6 427/2/6
f 426/2/6 424/2/6 427/2/6
f 427/2/6 420/2/6 428/2/6
f 426/2/6 427/2/6 429/2/6
f 429/2/6 427/2/6 430/2/6
f 431/7/6 432/7/6 433/7/6
f 433/7/6 432/7/6 434/7/6
f 435/7/6 436/7/6 437/7/6
f 437/7/6 436/7/6 438/7/6
