# MagicaVoxel @ Ephtracy

# group
g apt:toliet

# material
mtllib default-material.mtl
usemtl palette

# normals
vn -1 0 0
vn 1 0 0
vn 0 0 1
vn 0 0 -1
vn 0 -1 0
vn 0 1 0

# texcoords
vt 0.916016 0.5
vt 0.982422 0.5

# verts
v -7.5 7 2.5
v -7.5 7 -1.5
v -7.5 9 2.5
v -7.5 9 -1.5
v -6.5 3 2.5
v -6.5 3 -1.5
v -6.5 7 4.5
v -6.5 7 2.5
v -6.5 7 -1.5
v -6.5 7 -3.5
v -6.5 9 4.5
v -6.5 9 2.5
v -6.5 9 -1.5
v -6.5 9 -3.5
v -5.5 0 2.5
v -5.5 0 -1.5
v -5.5 3 4.5
v -5.5 3 2.5
v -5.5 3 -1.5
v -5.5 3 -3.5
v -5.5 7 5.5
v -5.5 7 4.5
v -5.5 7 2.5
v -5.5 7 -1.5
v -5.5 7 -3.5
v -5.5 7 -4.5
v -5.5 9 5.5
v -5.5 9 4.5
v -5.5 9 -3.5
v -5.5 9 -4.5
v -4.5 0 3.5
v -4.5 0 2.5
v -4.5 0 -1.5
v -4.5 0 -2.5
v -4.5 3 3.5
v -4.5 3 2.5
v -4.5 3 -1.5
v -4.5 3 -2.5
v -3.5 0 4.5
v -3.5 0 3.5
v -3.5 0 -2.5
v -3.5 0 -3.5
v -3.5 3 5.5
v -3.5 3 4.5
v -3.5 3 3.5
v -3.5 3 -2.5
v -3.5 3 -3.5
v -3.5 3 -4.5
v -3.5 7 6.5
v -3.5 7 5.5
v -3.5 7 4.5
v -3.5 7 -3.5
v -3.5 7 -4.5
v -3.5 7 -5.5
v -3.5 9 6.5
v -3.5 9 5.5
v -3.5 9 -4.5
v -3.5 9 -5.5
v 2.5 0 5.5
v 2.5 0 2.5
v 2.5 0 -1.5
v 2.5 0 -4.5
v 2.5 3 4.5
v 2.5 3 2.5
v 2.5 3 -1.5
v 2.5 3 -3.5
v 2.5 5 7.5
v 2.5 5 5.5
v 2.5 5 -4.5
v 2.5 5 -6.5
v 2.5 7 5.5
v 2.5 7 4.5
v 2.5 7 -3.5
v 2.5 7 -4.5
v 2.5 9 5.5
v 2.5 9 -4.5
v 2.5 12 7.5
v 2.5 12 -6.5
v 2.5 13 7.5
v 2.5 13 -6.5
v 2.5 15 7.5
v 2.5 15 -6.5
v 3.5 12 6.5
v 3.5 12 -5.5
v 3.5 12 -7.5
v 3.5 12 -8.5
v 3.5 13 6.5
v 3.5 13 -5.5
v 3.5 13 -7.5
v 3.5 13 -8.5
v 4.5 12 7.5
v 4.5 12 6.5
v 4.5 12 -5.5
v 4.5 12 -6.5
v 4.5 12 -7.5
v 4.5 13 7.5
v 4.5 13 6.5
v 4.5 13 -5.5
v 4.5 13 -6.5
v 4.5 13 -7.5
v 0.5 0 4.5
v 0.5 0 3.5
v 0.5 0 -2.5
v 0.5 0 -3.5
v 0.5 3 5.5
v 0.5 3 4.5
v 0.5 3 3.5
v 0.5 3 -2.5
v 0.5 3 -3.5
v 0.5 3 -4.5
v 0.5 7 6.5
v 0.5 7 5.5
v 0.5 7 4.5
v 0.5 7 -3.5
v 0.5 7 -4.5
v 0.5 7 -5.5
v 0.5 9 6.5
v 0.5 9 5.5
v 0.5 9 -4.5
v 0.5 9 -5.5
v 1.5 0 3.5
v 1.5 0 2.5
v 1.5 0 -1.5
v 1.5 0 -2.5
v 1.5 3 3.5
v 1.5 3 2.5
v 1.5 3 -1.5
v 1.5 3 -2.5
v 5.5 12 -6.5
v 5.5 12 -8.5
v 5.5 13 -6.5
v 5.5 13 -8.5
v 7.5 0 5.5
v 7.5 0 -4.5
v 7.5 5 7.5
v 7.5 5 5.5
v 7.5 5 -4.5
v 7.5 5 -6.5
v 7.5 15 7.5
v 7.5 15 -6.5
v 2.5 5 7.5
v 2.5 12 7.5
v 2.5 13 7.5
v 2.5 15 7.5
v 4.5 12 7.5
v 4.5 13 7.5
v 7.5 5 7.5
v 7.5 15 7.5
v -3.5 7 6.5
v -3.5 9 6.5
v 0.5 7 6.5
v 0.5 9 6.5
v 3.5 12 6.5
v 3.5 13 6.5
v 4.5 12 6.5
v 4.5 13 6.5
v -5.5 7 5.5
v -5.5 9 5.5
v -3.5 3 5.5
v -3.5 7 5.5
v -3.5 9 5.5
v 0.5 3 5.5
v 0.5 7 5.5
v 0.5 9 5.5
v 2.5 0 5.5
v 2.5 5 5.5
v 2.5 7 5.5
v 2.5 9 5.5
v 7.5 0 5.5
v 7.5 5 5.5
v -6.5 7 4.5
v -6.5 9 4.5
v -5.5 3 4.5
v -5.5 7 4.5
v -5.5 9 4.5
v -3.5 0 4.5
v -3.5 3 4.5
v -3.5 7 4.5
v 0.5 0 4.5
v 0.5 3 4.5
v 0.5 7 4.5
v 2.5 3 4.5
v 2.5 7 4.5
v -4.5 0 3.5
v -4.5 3 3.5
v -3.5 0 3.5
v -3.5 3 3.5
v 0.5 0 3.5
v 0.5 3 3.5
v 1.5 0 3.5
v 1.5 3 3.5
v -7.5 7 2.5
v -7.5 9 2.5
v -6.5 3 2.5
v -6.5 7 2.5
v -6.5 9 2.5
v -5.5 0 2.5
v -5.5 3 2.5
v -5.5 7 2.5
v -4.5 0 2.5
v -4.5 3 2.5
v 1.5 0 2.5
v 1.5 3 2.5
v 2.5 0 2.5
v 2.5 3 2.5
v 3.5 12 -7.5
v 3.5 13 -7.5
v 4.5 12 -7.5
v 4.5 13 -7.5
v -7.5 7 -1.5
v -7.5 9 -1.5
v -6.5 3 -1.5
v -6.5 7 -1.5
v -6.5 9 -1.5
v -5.5 0 -1.5
v -5.5 3 -1.5
v -5.5 7 -1.5
v -4.5 0 -1.5
v -4.5 3 -1.5
v 1.5 0 -1.5
v 1.5 3 -1.5
v 2.5 0 -1.5
v 2.5 3 -1.5
v -4.5 0 -2.5
v -4.5 3 -2.5
v -3.5 0 -2.5
v -3.5 3 -2.5
v 0.5 0 -2.5
v 0.5 3 -2.5
v 1.5 0 -2.5
v 1.5 3 -2.5
v -6.5 7 -3.5
v -6.5 9 -3.5
v -5.5 3 -3.5
v -5.5 7 -3.5
v -5.5 9 -3.5
v -3.5 0 -3.5
v -3.5 3 -3.5
v -3.5 7 -3.5
v 0.5 0 -3.5
v 0.5 3 -3.5
v 0.5 7 -3.5
v 2.5 3 -3.5
v 2.5 7 -3.5
v -5.5 7 -4.5
v -5.5 9 -4.5
v -3.5 3 -4.5
v -3.5 7 -4.5
v -3.5 9 -4.5
v 0.5 3 -4.5
v 0.5 7 -4.5
v 0.5 9 -4.5
v 2.5 0 -4.5
v 2.5 5 -4.5
v 2.5 7 -4.5
v 2.5 9 -4.5
v 7.5 0 -4.5
v 7.5 5 -4.5
v -3.5 7 -5.5
v -3.5 9 -5.5
v 0.5 7 -5.5
v 0.5 9 -5.5
v 3.5 12 -5.5
v 3.5 13 -5.5
v 4.5 12 -5.5
v 4.5 13 -5.5
v 2.5 5 -6.5
v 2.5 12 -6.5
v 2.5 13 -6.5
v 2.5 15 -6.5
v 4.5 12 -6.5
v 4.5 13 -6.5
v 5.5 12 -6.5
v 5.5 13 -6.5
v 7.5 5 -6.5
v 7.5 15 -6.5
v 3.5 12 -8.5
v 3.5 13 -8.5
v 5.5 12 -8.5
v 5.5 13 -8.5
v 2.5 0 5.5
v 7.5 0 5.5
v -3.5 0 4.5
v 0.5 0 4.5
v -4.5 0 3.5
v -3.5 0 3.5
v 0.5 0 3.5
v 1.5 0 3.5
v -5.5 0 2.5
v -4.5 0 2.5
v 1.5 0 2.5
v 2.5 0 2.5
v -5.5 0 -1.5
v -4.5 0 -1.5
v 1.5 0 -1.5
v 2.5 0 -1.5
v -4.5 0 -2.5
v -3.5 0 -2.5
v 0.5 0 -2.5
v 1.5 0 -2.5
v -3.5 0 -3.5
v 0.5 0 -3.5
v 2.5 0 -4.5
v 7.5 0 -4.5
v -3.5 3 5.5
v 0.5 3 5.5
v -5.5 3 4.5
v -3.5 3 4.5
v 0.5 3 4.5
v 2.5 3 4.5
v -4.5 3 3.5
v -3.5 3 3.5
v 0.5 3 3.5
v 1.5 3 3.5
v -6.5 3 2.5
v -5.5 3 2.5
v -4.5 3 2.5
v 1.5 3 2.5
v 2.5 3 2.5
v -6.5 3 -1.5
v -5.5 3 -1.5
v -4.5 3 -1.5
v 1.5 3 -1.5
v 2.5 3 -1.5
v -4.5 3 -2.5
v -3.5 3 -2.5
v 0.5 3 -2.5
v 1.5 3 -2.5
v -5.5 3 -3.5
v -3.5 3 -3.5
v 0.5 3 -3.5
v 2.5 3 -3.5
v -3.5 3 -4.5
v 0.5 3 -4.5
v 2.5 5 7.5
v 7.5 5 7.5
v 2.5 5 5.5
v 7.5 5 5.5
v 2.5 5 -4.5
v 7.5 5 -4.5
v 2.5 5 -6.5
v 7.5 5 -6.5
v -3.5 7 6.5
v 0.5 7 6.5
v -5.5 7 5.5
v -3.5 7 5.5
v 0.5 7 5.5
v 2.5 7 5.5
v -6.5 7 4.5
v -5.5 7 4.5
v -3.5 7 4.5
v 0.5 7 4.5
v 2.5 7 4.5
v -7.5 7 2.5
v -6.5 7 2.5
v -5.5 7 2.5
v -7.5 7 -1.5
v -6.5 7 -1.5
v -5.5 7 -1.5
v -6.5 7 -3.5
v -5.5 7 -3.5
v -3.5 7 -3.5
v 0.5 7 -3.5
v 2.5 7 -3.5
v -5.5 7 -4.5
v -3.5 7 -4.5
v 0.5 7 -4.5
v 2.5 7 -4.5
v -3.5 7 -5.5
v 0.5 7 -5.5
v 4.5 12 -6.5
v 5.5 12 -6.5
v 3.5 12 -7.5
v 4.5 12 -7.5
v 3.5 12 -8.5
v 5.5 12 -8.5
v 2.5 13 7.5
v 4.5 13 7.5
v 3.5 13 6.5
v 4.5 13 6.5
v 3.5 13 -5.5
v 4.5 13 -5.5
v 2.5 13 -6.5
v 4.5 13 -6.5
v -3.5 9 6.5
v 0.5 9 6.5
v -5.5 9 5.5
v -3.5 9 5.5
v 0.5 9 5.5
v 2.5 9 5.5
v -6.5 9 4.5
v -5.5 9 4.5
v -7.5 9 2.5
v -6.5 9 2.5
v -7.5 9 -1.5
v -6.5 9 -1.5
v -6.5 9 -3.5
v -5.5 9 -3.5
v -5.5 9 -4.5
v -3.5 9 -4.5
v 0.5 9 -4.5
v 2.5 9 -4.5
v -3.5 9 -5.5
v 0.5 9 -5.5
v 2.5 12 7.5
v 4.5 12 7.5
v 3.5 12 6.5
v 4.5 12 6.5
v 3.5 12 -5.5
v 4.5 12 -5.5
v 2.5 12 -6.5
v 4.5 12 -6.5
v 4.5 13 -6.5
v 5.5 13 -6.5
v 3.5 13 -7.5
v 4.5 13 -7.5
v 3.5 13 -8.5
v 5.5 13 -8.5
v 2.5 15 7.5
v 7.5 15 7.5
v 2.5 15 -6.5
v 7.5 15 -6.5

# faces
f 3/1/1 2/1/1 1/1/1
f 4/1/1 2/1/1 3/1/1
f 8/1/1 6/1/1 5/1/1
f 9/1/1 6/1/1 8/1/1
f 11/1/1 8/1/1 7/1/1
f 12/1/1 8/1/1 11/1/1
f 13/1/1 10/1/1 9/1/1
f 14/1/1 10/1/1 13/1/1
f 18/1/1 16/1/1 15/1/1
f 19/1/1 16/1/1 18/1/1
f 22/1/1 18/1/1 17/1/1
f 23/1/1 18/1/1 22/1/1
f 24/1/1 20/1/1 19/1/1
f 25/1/1 20/1/1 24/1/1
f 27/1/1 22/1/1 21/1/1
f 28/1/1 22/1/1 27/1/1
f 29/1/1 26/1/1 25/1/1
f 30/1/1 26/1/1 29/1/1
f 35/1/1 32/1/1 31/1/1
f 36/1/1 32/1/1 35/1/1
f 37/1/1 34/1/1 33/1/1
f 38/1/1 34/1/1 37/1/1
f 44/1/1 40/1/1 39/1/1
f 45/1/1 40/1/1 44/1/1
f 46/1/1 42/1/1 41/1/1
f 47/1/1 42/1/1 46/1/1
f 50/1/1 44/1/1 43/1/1
f 51/1/1 44/1/1 50/1/1
f 52/1/1 48/1/1 47/1/1
f 53/1/1 48/1/1 52/1/1
f 55/1/1 50/1/1 49/1/1
f 56/1/1 50/1/1 55/1/1
f 57/1/1 54/1/1 53/1/1
f 58/1/1 54/1/1 57/1/1
f 63/1/1 60/1/1 59/1/1
f 64/1/1 60/1/1 63/1/1
f 65/1/1 62/1/1 61/1/1
f 66/1/1 62/1/1 65/1/1
f 68/1/1 63/1/1 59/1/1
f 69/1/1 62/1/1 66/1/1
f 71/1/1 68/1/1 67/1/1
f 71/1/1 63/1/1 68/1/1
f 72/1/1 63/1/1 71/1/1
f 73/1/1 70/1/1 69/1/1
f 73/1/1 69/1/1 66/1/1
f 74/1/1 70/1/1 73/1/1
f 75/1/1 71/1/1 67/1/1
f 76/1/1 70/1/1 74/1/1
f 77/1/1 75/1/1 67/1/1
f 77/1/1 76/1/1 75/1/1
f 78/1/1 70/1/1 76/1/1
f 78/1/1 76/1/1 77/1/1
f 81/1/1 80/1/1 79/1/1
f 82/1/1 80/1/1 81/1/1
f 87/1/1 84/1/1 83/1/1
f 88/1/1 84/1/1 87/1/1
f 89/2/1 86/2/1 85/2/1
f 90/2/1 86/2/1 89/2/1
f 96/1/1 92/1/1 91/1/1
f 97/1/1 92/1/1 96/1/1
f 98/1/1 94/1/1 93/1/1
f 99/2/1 95/2/1 94/2/1
f 99/1/1 94/1/1 98/1/1
f 100/2/1 95/2/1 99/2/1
f 101/1/2 102/1/2 106/1/2
f 106/1/2 102/1/2 107/1/2
f 103/1/2 104/1/2 108/1/2
f 108/1/2 104/1/2 109/1/2
f 105/1/2 106/1/2 112/1/2
f 112/1/2 106/1/2 113/1/2
f 109/1/2 110/1/2 114/1/2
f 114/1/2 110/1/2 115/1/2
f 111/1/2 112/1/2 117/1/2
f 117/1/2 112/1/2 118/1/2
f 115/1/2 116/1/2 119/1/2
f 119/1/2 116/1/2 120/1/2
f 121/1/2 122/1/2 125/1/2
f 125/1/2 122/1/2 126/1/2
f 123/1/2 124/1/2 127/1/2
f 127/1/2 124/1/2 128/1/2
f 129/2/2 130/2/2 131/2/2
f 131/2/2 130/2/2 132/2/2
f 133/1/2 134/1/2 136/1/2
f 136/1/2 134/1/2 137/1/2
f 135/1/2 136/1/2 139/1/2
f 137/1/2 138/1/2 139/1/2
f 136/1/2 137/1/2 139/1/2
f 139/1/2 138/1/2 140/1/2
f 145/1/3 142/1/3 141/1/3
f 146/1/3 144/1/3 143/1/3
f 147/1/3 145/1/3 141/1/3
f 147/1/3 146/1/3 145/1/3
f 148/1/3 144/1/3 146/1/3
f 148/1/3 146/1/3 147/1/3
f 151/1/3 150/1/3 149/1/3
f 152/1/3 150/1/3 151/1/3
f 155/1/3 154/1/3 153/1/3
f 156/1/3 154/1/3 155/1/3
f 160/1/3 158/1/3 157/1/3
f 161/1/3 158/1/3 160/1/3
f 162/1/3 160/1/3 159/1/3
f 163/1/3 160/1/3 162/1/3
f 167/1/3 164/1/3 163/1/3
f 168/1/3 164/1/3 167/1/3
f 169/1/3 166/1/3 165/1/3
f 170/1/3 166/1/3 169/1/3
f 174/1/3 172/1/3 171/1/3
f 175/1/3 172/1/3 174/1/3
f 177/1/3 174/1/3 173/1/3
f 178/1/3 174/1/3 177/1/3
f 179/1/3 177/1/3 176/1/3
f 180/1/3 177/1/3 179/1/3
f 182/1/3 181/1/3 180/1/3
f 183/1/3 181/1/3 182/1/3
f 186/1/3 185/1/3 184/1/3
f 187/1/3 185/1/3 186/1/3
f 190/1/3 189/1/3 188/1/3
f 191/1/3 189/1/3 190/1/3
f 195/1/3 193/1/3 192/1/3
f 196/1/3 193/1/3 195/1/3
f 198/1/3 195/1/3 194/1/3
f 199/1/3 195/1/3 198/1/3
f 200/1/3 198/1/3 197/1/3
f 201/1/3 198/1/3 200/1/3
f 204/1/3 203/1/3 202/1/3
f 205/1/3 203/1/3 204/1/3
f 208/2/3 207/2/3 206/2/3
f 209/2/3 207/2/3 208/2/3
f 210/1/4 211/1/4 213/1/4
f 213/1/4 211/1/4 214/1/4
f 212/1/4 213/1/4 216/1/4
f 216/1/4 213/1/4 217/1/4
f 215/1/4 216/1/4 218/1/4
f 218/1/4 216/1/4 219/1/4
f 220/1/4 221/1/4 222/1/4
f 222/1/4 221/1/4 223/1/4
f 224/1/4 225/1/4 226/1/4
f 226/1/4 225/1/4 227/1/4
f 228/1/4 229/1/4 230/1/4
f 230/1/4 229/1/4 231/1/4
f 232/1/4 233/1/4 235/1/4
f 235/1/4 233/1/4 236/1/4
f 234/1/4 235/1/4 238/1/4
f 238/1/4 235/1/4 239/1/4
f 237/1/4 238/1/4 240/1/4
f 240/1/4 238/1/4 241/1/4
f 241/1/4 242/1/4 243/1/4
f 243/1/4 242/1/4 244/1/4
f 245/1/4 246/1/4 248/1/4
f 248/1/4 246/1/4 249/1/4
f 247/1/4 248/1/4 250/1/4
f 250/1/4 248/1/4 251/1/4
f 251/1/4 252/1/4 255/1/4
f 255/1/4 252/1/4 256/1/4
f 253/1/4 254/1/4 257/1/4
f 257/1/4 254/1/4 258/1/4
f 259/1/4 260/1/4 261/1/4
f 261/1/4 260/1/4 262/1/4
f 263/1/4 264/1/4 265/1/4
f 265/1/4 264/1/4 266/1/4
f 267/1/4 268/1/4 271/1/4
f 269/1/4 270/1/4 272/1/4
f 267/1/4 271/1/4 273/1/4
f 272/1/4 270/1/4 274/1/4
f 267/1/4 273/1/4 275/1/4
f 273/1/4 274/1/4 275/1/4
f 274/1/4 270/1/4 276/1/4
f 275/1/4 274/1/4 276/1/4
f 277/2/4 278/2/4 279/2/4
f 279/2/4 278/2/4 280/2/4
f 286/1/5 284/1/5 283/1/5
f 287/1/5 284/1/5 286/1/5
f 290/1/5 286/1/5 285/1/5
f 290/1/5 288/1/5 287/1/5
f 290/1/5 287/1/5 286/1/5
f 291/1/5 288/1/5 290/1/5
f 292/1/5 282/1/5 281/1/5
f 293/1/5 291/1/5 290/1/5
f 293/1/5 292/1/5 291/1/5
f 293/1/5 290/1/5 289/1/5
f 294/1/5 292/1/5 293/1/5
f 295/1/5 292/1/5 294/1/5
f 296/1/5 282/1/5 292/1/5
f 296/1/5 292/1/5 295/1/5
f 297/1/5 295/1/5 294/1/5
f 298/1/5 295/1/5 297/1/5
f 299/1/5 295/1/5 298/1/5
f 300/1/5 295/1/5 299/1/5
f 301/1/5 299/1/5 298/1/5
f 302/1/5 299/1/5 301/1/5
f 303/1/5 282/1/5 296/1/5
f 304/1/5 282/1/5 303/1/5
f 308/1/5 306/1/5 305/1/5
f 309/1/5 306/1/5 308/1/5
f 311/1/5 308/1/5 307/1/5
f 312/1/5 308/1/5 311/1/5
f 313/1/5 310/1/5 309/1/5
f 314/1/5 310/1/5 313/1/5
f 316/1/5 311/1/5 307/1/5
f 317/1/5 311/1/5 316/1/5
f 318/1/5 310/1/5 314/1/5
f 319/1/5 310/1/5 318/1/5
f 320/1/5 316/1/5 315/1/5
f 321/1/5 316/1/5 320/1/5
f 325/1/5 322/1/5 321/1/5
f 328/1/5 324/1/5 323/1/5
f 329/1/5 326/1/5 325/1/5
f 329/1/5 325/1/5 321/1/5
f 330/1/5 326/1/5 329/1/5
f 331/1/5 328/1/5 327/1/5
f 332/1/5 324/1/5 328/1/5
f 332/1/5 328/1/5 331/1/5
f 333/1/5 331/1/5 330/1/5
f 334/1/5 331/1/5 333/1/5
f 337/1/5 336/1/5 335/1/5
f 338/1/5 336/1/5 337/1/5
f 341/1/5 340/1/5 339/1/5
f 342/1/5 340/1/5 341/1/5
f 346/1/5 344/1/5 343/1/5
f 347/1/5 344/1/5 346/1/5
f 350/1/5 346/1/5 345/1/5
f 351/1/5 346/1/5 350/1/5
f 352/1/5 348/1/5 347/1/5
f 353/1/5 348/1/5 352/1/5
f 355/1/5 350/1/5 349/1/5
f 356/1/5 350/1/5 355/1/5
f 357/1/5 355/1/5 354/1/5
f 358/1/5 355/1/5 357/1/5
f 360/1/5 359/1/5 358/1/5
f 361/1/5 359/1/5 360/1/5
f 365/1/5 362/1/5 361/1/5
f 366/1/5 362/1/5 365/1/5
f 367/1/5 364/1/5 363/1/5
f 368/1/5 364/1/5 367/1/5
f 369/1/5 367/1/5 366/1/5
f 370/1/5 367/1/5 369/1/5
f 374/2/5 372/2/5 371/2/5
f 375/2/5 374/2/5 373/2/5
f 376/2/5 372/2/5 374/2/5
f 376/2/5 374/2/5 375/2/5
f 379/1/5 378/1/5 377/1/5
f 380/1/5 378/1/5 379/1/5
f 381/1/5 379/1/5 377/1/5
f 383/1/5 381/1/5 377/1/5
f 383/1/5 382/1/5 381/1/5
f 384/1/5 382/1/5 383/1/5
f 385/1/6 386/1/6 388/1/6
f 388/1/6 386/1/6 389/1/6
f 387/1/6 388/1/6 392/1/6
f 389/1/6 390/1/6 392/1/6
f 388/1/6 389/1/6 392/1/6
f 391/1/6 392/1/6 394/1/6
f 393/1/6 394/1/6 395/1/6
f 394/1/6 392/1/6 396/1/6
f 395/1/6 394/1/6 396/1/6
f 396/1/6 392/1/6 397/1/6
f 392/1/6 390/1/6 398/1/6
f 397/1/6 392/1/6 398/1/6
f 398/1/6 390/1/6 399/1/6
f 399/1/6 390/1/6 400/1/6
f 400/1/6 390/1/6 401/1/6
f 401/1/6 390/1/6 402/1/6
f 400/1/6 401/1/6 403/1/6
f 403/1/6 401/1/6 404/1/6
f 405/1/6 406/1/6 407/1/6
f 407/1/6 406/1/6 408/1/6
f 405/1/6 407/1/6 409/1/6
f 405/1/6 409/1/6 411/1/6
f 409/1/6 410/1/6 411/1/6
f 411/1/6 410/1/6 412/1/6
f 413/2/6 414/2/6 416/2/6
f 415/2/6 416/2/6 417/2/6
f 416/2/6 414/2/6 418/2/6
f 417/2/6 416/2/6 418/2/6
f 419/1/6 420/1/6 421/1/6
f 421/1/6 420/1/6 422/1/6
