# MagicaVoxel @ Ephtracy

# group
g apt:wall-back-main

# material
mtllib default-material.mtl
usemtl palette

# normals
vn -1 0 0
vn 1 0 0
vn 0 0 1
vn 0 0 -1
vn 0 -1 0
vn 0 1 0

# texcoords
vt 0.197266 0.5
vt 0.412109 0.5
vt 0.916016 0.5
vt 0.966797 0.5

# verts
v -49.5 1 2
v -49.5 1 -2
v -49.5 35 1
v -49.5 35 -1
v -49.5 37 2
v -49.5 37 1
v -49.5 37 -1
v -49.5 37 -2
v -49.5 38 2
v -49.5 38 -2
v -15.5 1 2
v -15.5 1 1
v -15.5 1 -1
v -15.5 1 -2
v -15.5 31 2
v -15.5 31 1
v -15.5 31 -1
v -15.5 31 -2
v -31.5 1 2
v -31.5 1 1
v -31.5 1 -1
v -31.5 1 -2
v -31.5 31 2
v -31.5 31 1
v -31.5 31 -1
v -31.5 31 -2
v 45.5 1 2
v 45.5 1 -2
v 45.5 37 2
v 45.5 37 -2
v 45.5 38 2
v 45.5 38 -2
v -49.5 1 2
v -49.5 37 2
v -49.5 38 2
v -31.5 1 2
v -31.5 31 2
v -15.5 1 2
v -15.5 31 2
v 44.5 1 2
v 44.5 37 2
v 45.5 1 2
v 45.5 37 2
v 45.5 38 2
v -49.5 1 -2
v -49.5 37 -2
v -49.5 38 -2
v -31.5 1 -2
v -31.5 31 -2
v -15.5 1 -2
v -15.5 31 -2
v 7.5 1 -2
v 7.5 37 -2
v 45.5 1 -2
v 45.5 37 -2
v 45.5 38 -2
v -49.5 1 2
v -31.5 1 2
v -15.5 1 2
v 44.5 1 2
v 45.5 1 2
v -32.5 1 1
v -31.5 1 1
v -15.5 1 1
v -8.5 1 1
v -32.5 1 -1
v -31.5 1 -1
v -15.5 1 -1
v -8.5 1 -1
v 7.5 1 -1
v 44.5 1 -1
v -49.5 1 -2
v -31.5 1 -2
v -15.5 1 -2
v 7.5 1 -2
v 45.5 1 -2
v -31.5 31 2
v -15.5 31 2
v -31.5 31 1
v -15.5 31 1
v -31.5 31 -1
v -15.5 31 -1
v -31.5 31 -2
v -15.5 31 -2
v -49.5 38 2
v 45.5 38 2
v -49.5 38 -2
v 45.5 38 -2

# faces
f 3/2/1 2/2/1 1/2/1
f 4/2/1 2/2/1 3/2/1
f 5/2/1 3/2/1 1/2/1
f 6/4/1 4/4/1 3/4/1
f 6/2/1 3/2/1 5/2/1
f 7/2/1 2/2/1 4/2/1
f 7/4/1 4/4/1 6/4/1
f 8/2/1 2/2/1 7/2/1
f 9/3/1 6/3/1 5/3/1
f 9/3/1 7/3/1 6/3/1
f 9/3/1 8/3/1 7/3/1
f 10/3/1 8/3/1 9/3/1
f 15/2/1 12/2/1 11/2/1
f 16/4/1 13/4/1 12/4/1
f 16/2/1 12/2/1 15/2/1
f 17/2/1 14/2/1 13/2/1
f 17/4/1 13/4/1 16/4/1
f 18/2/1 14/2/1 17/2/1
f 19/2/2 20/2/2 23/2/2
f 20/4/2 21/4/2 24/4/2
f 23/2/2 20/2/2 24/2/2
f 21/2/2 22/2/2 25/2/2
f 24/4/2 21/4/2 25/4/2
f 25/2/2 22/2/2 26/2/2
f 27/1/2 28/1/2 29/1/2
f 29/1/2 28/1/2 30/1/2
f 29/3/2 30/3/2 31/3/2
f 31/3/2 30/3/2 32/3/2
f 36/2/3 34/2/3 33/2/3
f 37/2/3 34/2/3 36/2/3
f 39/2/3 34/2/3 37/2/3
f 40/2/3 39/2/3 38/2/3
f 41/3/3 35/3/3 34/3/3
f 41/2/3 39/2/3 40/2/3
f 41/2/3 34/2/3 39/2/3
f 42/1/3 41/1/3 40/1/3
f 43/3/3 35/3/3 41/3/3
f 43/1/3 41/1/3 42/1/3
f 44/3/3 35/3/3 43/3/3
f 45/2/4 46/2/4 48/2/4
f 48/2/4 46/2/4 49/2/4
f 49/2/4 46/2/4 51/2/4
f 50/2/4 51/2/4 52/2/4
f 46/3/4 47/3/4 53/3/4
f 52/2/4 51/2/4 53/2/4
f 51/2/4 46/2/4 53/2/4
f 52/1/4 53/1/4 54/1/4
f 53/3/4 47/3/4 55/3/4
f 54/1/4 53/1/4 55/1/4
f 55/3/4 47/3/4 56/3/4
f 62/2/5 58/2/5 57/2/5
f 63/2/5 58/2/5 62/2/5
f 64/2/5 60/2/5 59/2/5
f 65/2/5 60/2/5 64/2/5
f 66/4/5 63/4/5 62/4/5
f 66/2/5 62/2/5 57/2/5
f 67/4/5 63/4/5 66/4/5
f 68/4/5 65/4/5 64/4/5
f 69/2/5 60/2/5 65/2/5
f 69/4/5 65/4/5 68/4/5
f 70/2/5 60/2/5 69/2/5
f 71/1/5 61/1/5 60/1/5
f 71/2/5 60/2/5 70/2/5
f 72/2/5 67/2/5 66/2/5
f 72/2/5 66/2/5 57/2/5
f 73/2/5 67/2/5 72/2/5
f 74/2/5 70/2/5 69/2/5
f 74/2/5 69/2/5 68/2/5
f 75/1/5 71/1/5 70/1/5
f 75/2/5 70/2/5 74/2/5
f 76/1/5 61/1/5 71/1/5
f 76/1/5 71/1/5 75/1/5
f 79/2/5 78/2/5 77/2/5
f 80/2/5 78/2/5 79/2/5
f 81/4/5 80/4/5 79/4/5
f 82/4/5 80/4/5 81/4/5
f 83/2/5 82/2/5 81/2/5
f 84/2/5 82/2/5 83/2/5
f 85/3/6 86/3/6 87/3/6
f 87/3/6 86/3/6 88/3/6
