# MagicaVoxel @ Ephtracy

# group
g apt:wall-bathroom-2

# material
mtllib default-material.mtl
usemtl palette

# normals
vn -1 0 0
vn 1 0 0
vn 0 0 1
vn 0 0 -1
vn 0 -1 0
vn 0 1 0

# texcoords
vt 0.197266 0.5
vt 0.412109 0.5
vt 0.916016 0.5
vt 0.970703 0.5
vt 0.986328 0.5

# verts
v -26.5 0 2
v -26.5 0 -2
v -26.5 37 2
v -26.5 37 -2
v -26.5 38 2
v -26.5 38 -2
v -4.5 34 -0
v -4.5 34 -1
v -4.5 37 -0
v -4.5 37 -1
v 7.5 34 -0
v 7.5 34 -1
v 7.5 37 -0
v 7.5 37 -1
v 12.5 34 -0
v 12.5 34 -1
v 12.5 37 -0
v 12.5 37 -1
v -14.5 34 -0
v -14.5 34 -1
v -14.5 37 -0
v -14.5 37 -1
v -2.5 34 -0
v -2.5 34 -1
v -2.5 37 -0
v -2.5 37 -1
v 11.5 34 -0
v 11.5 34 -1
v 11.5 37 -0
v 11.5 37 -1
v 24.5 0 -1
v 24.5 0 -2
v 24.5 37 -1
v 24.5 37 -2
v 26.5 0 2
v 26.5 0 -1
v 26.5 37 2
v 26.5 37 -1
v 26.5 37 -2
v 26.5 38 2
v 26.5 38 -2
v -26.5 0 2
v -26.5 37 2
v -26.5 38 2
v 26.5 0 2
v 26.5 37 2
v 26.5 38 2
v -14.5 34 -1
v -14.5 37 -1
v -4.5 34 -1
v -4.5 37 -1
v -2.5 34 -1
v -2.5 37 -1
v 7.5 34 -1
v 7.5 37 -1
v 11.5 34 -1
v 11.5 37 -1
v 12.5 34 -1
v 12.5 37 -1
v -14.5 34 -0
v -14.5 37 -0
v -4.5 34 -0
v -4.5 37 -0
v -2.5 34 -0
v -2.5 37 -0
v 7.5 34 -0
v 7.5 37 -0
v 11.5 34 -0
v 11.5 37 -0
v 12.5 34 -0
v 12.5 37 -0
v 24.5 0 -1
v 24.5 37 -1
v 25.5 0 -1
v 25.5 37 -1
v 26.5 0 -1
v 26.5 37 -1
v -26.5 0 -2
v -26.5 37 -2
v -26.5 38 -2
v -25.5 0 -2
v -25.5 37 -2
v -21.5 0 -2
v -21.5 1 -2
v 23.5 0 -2
v 23.5 1 -2
v 24.5 0 -2
v 24.5 37 -2
v 26.5 37 -2
v 26.5 38 -2
v -26.5 0 2
v 26.5 0 2
v -25.5 0 1
v -21.5 0 1
v 24.5 0 1
v 25.5 0 1
v 23.5 0 -1
v 24.5 0 -1
v 25.5 0 -1
v 26.5 0 -1
v -26.5 0 -2
v -25.5 0 -2
v -21.5 0 -2
v 23.5 0 -2
v 24.5 0 -2
v -14.5 37 -0
v -4.5 37 -0
v -2.5 37 -0
v 7.5 37 -0
v 11.5 37 -0
v 12.5 37 -0
v -14.5 37 -1
v -4.5 37 -1
v -2.5 37 -1
v 7.5 37 -1
v 11.5 37 -1
v 12.5 37 -1
v 24.5 37 -1
v 25.5 37 -1
v 26.5 37 -1
v 24.5 37 -2
v 26.5 37 -2
v -14.5 34 -0
v -4.5 34 -0
v -2.5 34 -0
v 7.5 34 -0
v 11.5 34 -0
v 12.5 34 -0
v -14.5 34 -1
v -4.5 34 -1
v -2.5 34 -1
v 7.5 34 -1
v 11.5 34 -1
v 12.5 34 -1
v -26.5 38 2
v 26.5 38 2
v -26.5 38 -2
v 26.5 38 -2

# faces
f 3/1/1 2/1/1 1/1/1
f 4/1/1 2/1/1 3/1/1
f 5/3/1 4/3/1 3/3/1
f 6/3/1 4/3/1 5/3/1
f 9/5/1 8/5/1 7/5/1
f 10/5/1 8/5/1 9/5/1
f 13/5/1 12/5/1 11/5/1
f 14/5/1 12/5/1 13/5/1
f 17/5/1 16/5/1 15/5/1
f 18/5/1 16/5/1 17/5/1
f 19/5/2 20/5/2 21/5/2
f 21/5/2 20/5/2 22/5/2
f 23/5/2 24/5/2 25/5/2
f 25/5/2 24/5/2 26/5/2
f 27/5/2 28/5/2 29/5/2
f 29/5/2 28/5/2 30/5/2
f 31/2/2 32/2/2 33/2/2
f 33/2/2 32/2/2 34/2/2
f 35/1/2 36/1/2 37/1/2
f 37/1/2 36/1/2 38/1/2
f 37/3/2 38/3/2 40/3/2
f 38/3/2 39/3/2 40/3/2
f 40/3/2 39/3/2 41/3/2
f 45/1/3 43/1/3 42/1/3
f 46/3/3 44/3/3 43/3/3
f 46/1/3 43/1/3 45/1/3
f 47/3/3 44/3/3 46/3/3
f 50/2/3 49/2/3 48/2/3
f 51/2/3 49/2/3 50/2/3
f 54/2/3 53/2/3 52/2/3
f 55/2/3 53/2/3 54/2/3
f 58/2/3 57/2/3 56/2/3
f 59/2/3 57/2/3 58/2/3
f 60/5/4 61/5/4 62/5/4
f 62/5/4 61/5/4 63/5/4
f 64/5/4 65/5/4 66/5/4
f 66/5/4 65/5/4 67/5/4
f 68/5/4 69/5/4 70/5/4
f 70/5/4 69/5/4 71/5/4
f 72/2/4 73/2/4 74/2/4
f 74/2/4 73/2/4 75/2/4
f 74/1/4 75/1/4 76/1/4
f 76/1/4 75/1/4 77/1/4
f 78/1/4 79/1/4 81/1/4
f 79/3/4 80/3/4 82/3/4
f 81/1/4 79/1/4 82/1/4
f 81/2/4 82/2/4 83/2/4
f 83/2/4 82/2/4 84/2/4
f 83/4/4 84/4/4 85/4/4
f 84/2/4 82/2/4 86/2/4
f 85/4/4 84/4/4 86/4/4
f 85/2/4 86/2/4 87/2/4
f 82/3/4 80/3/4 88/3/4
f 87/2/4 86/2/4 88/2/4
f 86/2/4 82/2/4 88/2/4
f 88/3/4 80/3/4 89/3/4
f 89/3/4 80/3/4 90/3/4
f 93/1/5 92/1/5 91/1/5
f 94/1/5 92/1/5 93/1/5
f 95/1/5 92/1/5 94/1/5
f 96/1/5 92/1/5 95/1/5
f 97/4/5 95/4/5 94/4/5
f 98/2/5 96/2/5 95/2/5
f 98/4/5 95/4/5 97/4/5
f 99/1/5 92/1/5 96/1/5
f 99/2/5 96/2/5 98/2/5
f 100/1/5 92/1/5 99/1/5
f 101/1/5 93/1/5 91/1/5
f 102/2/5 94/2/5 93/2/5
f 102/1/5 93/1/5 101/1/5
f 103/4/5 97/4/5 94/4/5
f 103/2/5 94/2/5 102/2/5
f 104/2/5 98/2/5 97/2/5
f 104/4/5 97/4/5 103/4/5
f 105/2/5 98/2/5 104/2/5
f 112/3/5 107/3/5 106/3/5
f 113/3/5 107/3/5 112/3/5
f 114/3/5 109/3/5 108/3/5
f 115/3/5 109/3/5 114/3/5
f 116/3/5 111/3/5 110/3/5
f 117/3/5 111/3/5 116/3/5
f 121/3/5 120/3/5 119/3/5
f 121/3/5 119/3/5 118/3/5
f 122/3/5 120/3/5 121/3/5
f 123/5/6 124/5/6 129/5/6
f 129/5/6 124/5/6 130/5/6
f 125/5/6 126/5/6 131/5/6
f 131/5/6 126/5/6 132/5/6
f 127/5/6 128/5/6 133/5/6
f 133/5/6 128/5/6 134/5/6
f 135/3/6 136/3/6 137/3/6
f 137/3/6 136/3/6 138/3/6
