# MagicaVoxel @ Ephtracy

# group
g apt:couch

# material
mtllib default-material.mtl
usemtl palette

# normals
vn -1 0 0
vn 1 0 0
vn 0 0 1
vn 0 0 -1
vn 0 -1 0
vn 0 1 0

# texcoords
vt 0.412109 0.5
vt 0.912109 0.5
vt 0.916016 0.5

# verts
v -6.5 0 14
v -6.5 0 -14
v -6.5 1 13
v -6.5 1 12
v -6.5 1 -12
v -6.5 1 -13
v -6.5 6 4
v -6.5 6 3
v -6.5 6 -3
v -6.5 6 -4
v -6.5 7 10
v -6.5 7 4
v -6.5 7 3
v -6.5 7 -3
v -6.5 7 -4
v -6.5 7 -10
v -6.5 8 12
v -6.5 8 11
v -6.5 8 -11
v -6.5 8 -12
v -6.5 9 14
v -6.5 9 13
v -6.5 9 11
v -6.5 9 -11
v -6.5 9 -13
v -6.5 9 -14
v -6.5 10 13
v -6.5 10 10
v -6.5 10 -10
v -6.5 10 -13
v -5.5 1 13
v -5.5 1 12
v -5.5 1 -12
v -5.5 1 -13
v -5.5 8 12
v -5.5 8 11
v -5.5 8 -11
v -5.5 8 -12
v -5.5 9 13
v -5.5 9 11
v -5.5 9 -11
v -5.5 9 -13
v 1.5 6 4
v 1.5 6 3
v 1.5 6 -3
v 1.5 6 -4
v 1.5 7 10
v 1.5 7 4
v 1.5 7 3
v 1.5 7 -3
v 1.5 7 -4
v 1.5 7 -10
v 1.5 10 10
v 1.5 10 -10
v 1.5 15 10
v 1.5 15 9
v 1.5 15 -9
v 1.5 15 -10
v 1.5 16 9
v 1.5 16 -9
v 6.5 0 14
v 6.5 0 -14
v 6.5 9 14
v 6.5 9 13
v 6.5 9 -13
v 6.5 9 -14
v 6.5 10 13
v 6.5 10 10
v 6.5 10 -10
v 6.5 10 -13
v 6.5 15 10
v 6.5 15 9
v 6.5 15 -9
v 6.5 15 -10
v 6.5 16 9
v 6.5 16 -9
v -6.5 0 14
v -6.5 9 14
v 6.5 0 14
v 6.5 9 14
v -6.5 9 13
v -6.5 10 13
v 6.5 9 13
v 6.5 10 13
v -6.5 1 12
v -6.5 8 12
v -5.5 1 12
v -5.5 8 12
v -6.5 8 11
v -6.5 9 11
v -5.5 8 11
v -5.5 9 11
v 1.5 10 10
v 1.5 15 10
v 6.5 10 10
v 6.5 15 10
v 1.5 15 9
v 1.5 16 9
v 6.5 15 9
v 6.5 16 9
v -6.5 6 3
v -6.5 7 3
v 1.5 6 3
v 1.5 7 3
v -6.5 6 -4
v -6.5 7 -4
v 1.5 6 -4
v 1.5 7 -4
v -6.5 7 -10
v -6.5 10 -10
v 1.5 7 -10
v 1.5 10 -10
v -6.5 1 -13
v -6.5 9 -13
v -5.5 1 -13
v -5.5 9 -13
v -6.5 1 13
v -6.5 9 13
v -5.5 1 13
v -5.5 9 13
v -6.5 7 10
v -6.5 10 10
v 1.5 7 10
v 1.5 10 10
v -6.5 6 4
v -6.5 7 4
v 1.5 6 4
v 1.5 7 4
v -6.5 6 -3
v -6.5 7 -3
v 1.5 6 -3
v 1.5 7 -3
v 1.5 15 -9
v 1.5 16 -9
v 6.5 15 -9
v 6.5 16 -9
v 1.5 10 -10
v 1.5 15 -10
v 6.5 10 -10
v 6.5 15 -10
v -6.5 8 -11
v -6.5 9 -11
v -5.5 8 -11
v -5.5 9 -11
v -6.5 1 -12
v -6.5 8 -12
v -5.5 1 -12
v -5.5 8 -12
v -6.5 9 -13
v -6.5 10 -13
v 6.5 9 -13
v 6.5 10 -13
v -6.5 0 -14
v -6.5 9 -14
v 6.5 0 -14
v 6.5 9 -14
v -6.5 0 14
v 6.5 0 14
v -2.5 0 13
v 5.5 0 13
v -2.5 0 4
v 1.5 0 4
v -5.5 0 -3
v -4.5 0 -3
v 1.5 0 -3
v -5.5 0 -10
v -4.5 0 -10
v 5.5 0 -10
v -6.5 0 -14
v 6.5 0 -14
v -6.5 9 13
v -5.5 9 13
v -6.5 9 11
v -5.5 9 11
v -6.5 9 -11
v -5.5 9 -11
v -6.5 9 -13
v -5.5 9 -13
v -6.5 1 13
v -5.5 1 13
v -6.5 1 12
v -5.5 1 12
v -6.5 1 -12
v -5.5 1 -12
v -6.5 1 -13
v -5.5 1 -13
v -6.5 6 4
v 1.5 6 4
v -6.5 6 3
v 1.5 6 3
v -6.5 6 -3
v 1.5 6 -3
v -6.5 6 -4
v 1.5 6 -4
v -6.5 7 10
v 1.5 7 10
v -6.5 7 4
v 1.5 7 4
v -6.5 7 3
v 1.5 7 3
v -6.5 7 -3
v 1.5 7 -3
v -6.5 7 -4
v 1.5 7 -4
v -6.5 7 -10
v 1.5 7 -10
v -6.5 8 12
v -5.5 8 12
v -6.5 8 11
v -5.5 8 11
v -6.5 8 -11
v -5.5 8 -11
v -6.5 8 -12
v -5.5 8 -12
v -6.5 9 14
v 6.5 9 14
v -6.5 9 13
v 6.5 9 13
v -6.5 9 -13
v 6.5 9 -13
v -6.5 9 -14
v 6.5 9 -14
v -6.5 10 13
v 6.5 10 13
v -6.5 10 10
v 1.5 10 10
v 6.5 10 10
v -6.5 10 -10
v 1.5 10 -10
v 6.5 10 -10
v -6.5 10 -13
v 6.5 10 -13
v 1.5 15 10
v 6.5 15 10
v 1.5 15 9
v 6.5 15 9
v 1.5 15 -9
v 6.5 15 -9
v 1.5 15 -10
v 6.5 15 -10
v 1.5 16 9
v 6.5 16 9
v 1.5 16 -9
v 6.5 16 -9

# faces
f 3/3/1 2/3/1 1/3/1
f 4/3/1 2/3/1 3/3/1
f 5/3/1 2/3/1 4/3/1
f 6/3/1 2/3/1 5/3/1
f 7/3/1 5/3/1 4/3/1
f 8/3/1 5/3/1 7/3/1
f 9/3/1 5/3/1 8/3/1
f 10/3/1 5/3/1 9/3/1
f 11/3/1 7/3/1 4/3/1
f 12/3/1 7/3/1 11/3/1
f 13/3/1 9/3/1 8/3/1
f 14/3/1 9/3/1 13/3/1
f 15/3/1 5/3/1 10/3/1
f 16/3/1 5/3/1 15/3/1
f 17/3/1 11/3/1 4/3/1
f 18/3/1 11/3/1 17/3/1
f 19/3/1 5/3/1 16/3/1
f 20/3/1 5/3/1 19/3/1
f 21/3/1 3/3/1 1/3/1
f 22/3/1 3/3/1 21/3/1
f 23/3/1 11/3/1 18/3/1
f 24/3/1 19/3/1 16/3/1
f 25/3/1 2/3/1 6/3/1
f 26/3/1 2/3/1 25/3/1
f 27/3/1 23/3/1 22/3/1
f 28/3/1 11/3/1 23/3/1
f 28/3/1 23/3/1 27/3/1
f 29/3/1 24/3/1 16/3/1
f 29/3/1 25/3/1 24/3/1
f 30/3/1 25/3/1 29/3/1
f 35/3/1 32/3/1 31/3/1
f 38/3/1 34/3/1 33/3/1
f 39/3/1 36/3/1 35/3/1
f 39/3/1 35/3/1 31/3/1
f 40/3/1 36/3/1 39/3/1
f 41/3/1 38/3/1 37/3/1
f 42/3/1 34/3/1 38/3/1
f 42/3/1 38/3/1 41/3/1
f 48/3/1 44/3/1 43/3/1
f 49/3/1 44/3/1 48/3/1
f 50/3/1 46/3/1 45/3/1
f 51/3/1 46/3/1 50/3/1
f 53/3/1 49/3/1 48/3/1
f 53/3/1 52/3/1 51/3/1
f 53/3/1 51/3/1 50/3/1
f 53/3/1 50/3/1 49/3/1
f 53/3/1 48/3/1 47/3/1
f 54/3/1 52/3/1 53/3/1
f 55/3/1 54/3/1 53/3/1
f 56/3/1 54/3/1 55/3/1
f 57/3/1 54/3/1 56/3/1
f 58/3/1 54/3/1 57/3/1
f 59/3/1 57/3/1 56/3/1
f 60/3/1 57/3/1 59/3/1
f 61/3/2 62/3/2 63/3/2
f 63/3/2 62/3/2 64/3/2
f 64/3/2 62/3/2 65/3/2
f 65/3/2 62/3/2 66/3/2
f 64/3/2 65/3/2 67/3/2
f 67/3/2 65/3/2 68/3/2
f 68/3/2 65/3/2 69/3/2
f 69/3/2 65/3/2 70/3/2
f 68/3/2 69/3/2 71/3/2
f 71/3/2 69/3/2 72/3/2
f 72/3/2 69/3/2 73/3/2
f 73/3/2 69/3/2 74/3/2
f 72/3/2 73/3/2 75/3/2
f 75/3/2 73/3/2 76/3/2
f 79/3/3 78/3/3 77/3/3
f 80/3/3 78/3/3 79/3/3
f 83/3/3 82/3/3 81/3/3
f 84/3/3 82/3/3 83/3/3
f 87/3/3 86/3/3 85/3/3
f 88/3/3 86/3/3 87/3/3
f 91/3/3 90/3/3 89/3/3
f 92/3/3 90/3/3 91/3/3
f 95/3/3 94/3/3 93/3/3
f 96/3/3 94/3/3 95/3/3
f 99/3/3 98/3/3 97/3/3
f 100/3/3 98/3/3 99/3/3
f 103/3/3 102/3/3 101/3/3
f 104/3/3 102/3/3 103/3/3
f 107/3/3 106/3/3 105/3/3
f 108/3/3 106/3/3 107/3/3
f 111/3/3 110/3/3 109/3/3
f 112/3/3 110/3/3 111/3/3
f 115/3/3 114/3/3 113/3/3
f 116/3/3 114/3/3 115/3/3
f 117/3/4 118/3/4 119/3/4
f 119/3/4 118/3/4 120/3/4
f 121/3/4 122/3/4 123/3/4
f 123/3/4 122/3/4 124/3/4
f 125/3/4 126/3/4 127/3/4
f 127/3/4 126/3/4 128/3/4
f 129/3/4 130/3/4 131/3/4
f 131/3/4 130/3/4 132/3/4
f 133/3/4 134/3/4 135/3/4
f 135/3/4 134/3/4 136/3/4
f 137/3/4 138/3/4 139/3/4
f 139/3/4 138/3/4 140/3/4
f 141/3/4 142/3/4 143/3/4
f 143/3/4 142/3/4 144/3/4
f 145/3/4 146/3/4 147/3/4
f 147/3/4 146/3/4 148/3/4
f 149/3/4 150/3/4 151/3/4
f 151/3/4 150/3/4 152/3/4
f 153/3/4 154/3/4 155/3/4
f 155/3/4 154/3/4 156/3/4
f 159/3/5 158/3/5 157/3/5
f 160/3/5 158/3/5 159/3/5
f 161/3/5 159/3/5 157/3/5
f 161/2/5 160/2/5 159/2/5
f 162/2/5 160/2/5 161/2/5
f 163/3/5 161/3/5 157/3/5
f 163/3/5 162/3/5 161/3/5
f 164/3/5 162/3/5 163/3/5
f 165/2/5 160/2/5 162/2/5
f 165/3/5 162/3/5 164/3/5
f 166/1/5 164/1/5 163/1/5
f 166/3/5 163/3/5 157/3/5
f 167/2/5 165/2/5 164/2/5
f 167/1/5 164/1/5 166/1/5
f 168/3/5 158/3/5 160/3/5
f 168/2/5 165/2/5 167/2/5
f 168/2/5 160/2/5 165/2/5
f 169/3/5 167/3/5 166/3/5
f 169/3/5 166/3/5 157/3/5
f 169/3/5 168/3/5 167/3/5
f 170/3/5 158/3/5 168/3/5
f 170/3/5 168/3/5 169/3/5
f 173/3/5 172/3/5 171/3/5
f 174/3/5 172/3/5 173/3/5
f 177/3/5 176/3/5 175/3/5
f 178/3/5 176/3/5 177/3/5
f 179/3/6 180/3/6 181/3/6
f 181/3/6 180/3/6 182/3/6
f 183/3/6 184/3/6 185/3/6
f 185/3/6 184/3/6 186/3/6
f 187/3/6 188/3/6 189/3/6
f 189/3/6 188/3/6 190/3/6
f 191/3/6 192/3/6 193/3/6
f 193/3/6 192/3/6 194/3/6
f 195/3/6 196/3/6 197/3/6
f 197/3/6 196/3/6 198/3/6
f 199/3/6 200/3/6 201/3/6
f 201/3/6 200/3/6 202/3/6
f 203/3/6 204/3/6 205/3/6
f 205/3/6 204/3/6 206/3/6
f 207/3/6 208/3/6 209/3/6
f 209/3/6 208/3/6 210/3/6
f 211/3/6 212/3/6 213/3/6
f 213/3/6 212/3/6 214/3/6
f 215/3/6 216/3/6 217/3/6
f 217/3/6 216/3/6 218/3/6
f 219/3/6 220/3/6 221/3/6
f 221/3/6 220/3/6 222/3/6
f 223/3/6 224/3/6 225/3/6
f 225/3/6 224/3/6 226/3/6
f 226/3/6 224/3/6 227/3/6
f 228/3/6 229/3/6 231/3/6
f 229/3/6 230/3/6 231/3/6
f 231/3/6 230/3/6 232/3/6
f 233/3/6 234/3/6 235/3/6
f 235/3/6 234/3/6 236/3/6
f 237/3/6 238/3/6 239/3/6
f 239/3/6 238/3/6 240/3/6
f 241/3/6 242/3/6 243/3/6
f 243/3/6 242/3/6 244/3/6
