# MagicaVoxel @ Ephtracy

# group
g apt:cabniet-top

# material
mtllib default-material.mtl
usemtl palette

# normals
vn -1 0 0
vn 1 0 0
vn 0 0 1
vn 0 0 -1
vn 0 -1 0
vn 0 1 0

# texcoords
vt 0.197266 0.5
vt 0.927734 0.5
vt 0.958984 0.5

# verts
v -7 1 5
v -7 1 4
v -7 2 5
v -7 2 4
v -6 1 4
v -6 1 -5
v -6 2 5
v -6 2 4
v -6 2 -4
v -6 9 4
v -6 9 -4
v -6 10 5
v -6 10 -5
v -5 0 6
v -5 0 -6
v -5 1 5
v -5 1 -5
v -5 2 4
v -5 2 -4
v -5 9 4
v -5 9 -4
v -5 10 5
v -5 10 -5
v -5 11 6
v -5 11 -6
v 7 0 6
v 7 0 -6
v 7 11 6
v 7 11 -6
v -5 0 6
v -5 11 6
v 7 0 6
v 7 11 6
v -7 1 5
v -7 2 5
v -6 1 5
v -6 2 5
v -6 10 5
v -5 1 5
v -5 10 5
v -6 2 -4
v -6 9 -4
v -5 2 -4
v -5 9 -4
v -7 1 4
v -7 2 4
v -6 1 4
v -6 2 4
v -6 9 4
v -5 2 4
v -5 9 4
v -6 1 -5
v -6 10 -5
v -5 1 -5
v -5 10 -5
v -5 0 -6
v -5 11 -6
v 7 0 -6
v 7 11 -6
v -5 0 6
v 7 0 6
v -4 0 5
v 6 0 5
v -4 0 -5
v 6 0 -5
v -5 0 -6
v 7 0 -6
v -7 1 5
v -6 1 5
v -5 1 5
v -7 1 4
v -6 1 4
v -6 1 -5
v -5 1 -5
v -6 9 4
v -5 9 4
v -6 9 -4
v -5 9 -4
v -7 2 5
v -6 2 5
v -7 2 4
v -6 2 4
v -5 2 4
v -6 2 -4
v -5 2 -4
v -6 10 5
v -5 10 5
v -6 10 -5
v -5 10 -5
v -5 11 6
v 7 11 6
v -5 11 -6
v 7 11 -6

# faces
f 3/2/1 2/2/1 1/2/1
f 4/2/1 2/2/1 3/2/1
f 8/3/1 6/3/1 5/3/1
f 9/3/1 6/3/1 8/3/1
f 10/3/1 8/3/1 7/3/1
f 11/3/1 6/3/1 9/3/1
f 12/3/1 10/3/1 7/3/1
f 12/3/1 11/3/1 10/3/1
f 13/3/1 6/3/1 11/3/1
f 13/3/1 11/3/1 12/3/1
f 16/3/1 15/3/1 14/3/1
f 17/3/1 15/3/1 16/3/1
f 20/3/1 19/3/1 18/3/1
f 21/3/1 19/3/1 20/3/1
f 22/3/1 16/3/1 14/3/1
f 23/3/1 15/3/1 17/3/1
f 24/3/1 22/3/1 14/3/1
f 24/3/1 23/3/1 22/3/1
f 25/3/1 15/3/1 23/3/1
f 25/3/1 23/3/1 24/3/1
f 26/3/2 27/3/2 28/3/2
f 28/3/2 27/3/2 29/3/2
f 32/3/3 31/3/3 30/3/3
f 33/3/3 31/3/3 32/3/3
f 36/2/3 35/2/3 34/2/3
f 37/2/3 35/2/3 36/2/3
f 39/3/3 37/3/3 36/3/3
f 39/3/3 38/3/3 37/3/3
f 40/3/3 38/3/3 39/3/3
f 43/3/3 42/3/3 41/3/3
f 44/3/3 42/3/3 43/3/3
f 45/2/4 46/2/4 47/2/4
f 47/2/4 46/2/4 48/2/4
f 48/3/4 49/3/4 50/3/4
f 50/3/4 49/3/4 51/3/4
f 52/3/4 53/3/4 54/3/4
f 54/3/4 53/3/4 55/3/4
f 56/3/4 57/3/4 58/3/4
f 58/3/4 57/3/4 59/3/4
f 62/3/5 61/3/5 60/3/5
f 63/3/5 61/3/5 62/3/5
f 64/3/5 62/3/5 60/3/5
f 64/1/5 63/1/5 62/1/5
f 65/3/5 61/3/5 63/3/5
f 65/1/5 63/1/5 64/1/5
f 66/3/5 64/3/5 60/3/5
f 66/3/5 65/3/5 64/3/5
f 67/3/5 61/3/5 65/3/5
f 67/3/5 65/3/5 66/3/5
f 71/2/5 69/2/5 68/2/5
f 72/3/5 70/3/5 69/3/5
f 72/2/5 69/2/5 71/2/5
f 73/3/5 70/3/5 72/3/5
f 74/3/5 70/3/5 73/3/5
f 77/3/5 76/3/5 75/3/5
f 78/3/5 76/3/5 77/3/5
f 79/2/6 80/2/6 81/2/6
f 81/2/6 80/2/6 82/2/6
f 82/3/6 83/3/6 84/3/6
f 84/3/6 83/3/6 85/3/6
f 86/3/6 87/3/6 88/3/6
f 88/3/6 87/3/6 89/3/6
f 90/3/6 91/3/6 92/3/6
f 92/3/6 91/3/6 93/3/6
