# MagicaVoxel @ Ephtracy

# group
g apt:drawer

# material
mtllib default-material.mtl
usemtl palette

# normals
vn -1 0 0
vn 1 0 0
vn 0 0 1
vn 0 0 -1
vn 0 -1 0
vn 0 1 0

# texcoords
vt 0.197266 0.5
vt 0.927734 0.5
vt 0.958984 0.5
vt 0.990234 0.5

# verts
v -7 6 -3
v -7 6 -4
v -7 7 -3
v -7 7 -4
v -7 9 1
v -7 9 -1
v -7 10 1
v -7 10 -1
v -6 1 4
v -6 1 -4
v -6 2 3
v -6 2 -3
v -6 6 3
v -6 6 -3
v -6 6 -4
v -6 7 4
v -6 7 -3
v -6 8 4
v -6 8 -4
v -6 9 1
v -6 9 -1
v -6 10 1
v -6 10 -1
v -6 11 4
v -6 11 -4
v -5 0 6
v -5 0 -6
v -5 1 4
v -5 1 -4
v -5 2 3
v -5 2 -3
v -5 6 3
v -5 6 -3
v -5 7 4
v -5 7 -4
v -5 8 4
v -5 8 -4
v -5 11 6
v -5 11 4
v -5 11 -4
v -5 11 -6
v -5 12 6
v -5 12 -6
v 6 12 6
v 6 12 -6
v 6 13 6
v 6 13 -6
v 7 0 6
v 7 0 -6
v 7 11 6
v 7 11 -6
v 7 13 6
v 7 13 -6
v -5 0 6
v -5 11 6
v -5 12 6
v 6 12 6
v 6 13 6
v 7 0 6
v 7 11 6
v 7 13 6
v -6 1 4
v -6 7 4
v -6 8 4
v -6 11 4
v -5 1 4
v -5 7 4
v -5 8 4
v -5 11 4
v -7 9 1
v -7 10 1
v -6 9 1
v -6 10 1
v -7 6 -3
v -7 7 -3
v -6 2 -3
v -6 6 -3
v -6 7 -3
v -5 2 -3
v -5 6 -3
v -6 2 3
v -6 6 3
v -5 2 3
v -5 6 3
v -7 9 -1
v -7 10 -1
v -6 9 -1
v -6 10 -1
v -7 6 -4
v -7 7 -4
v -6 1 -4
v -6 6 -4
v -6 7 -4
v -6 8 -4
v -6 11 -4
v -5 1 -4
v -5 7 -4
v -5 8 -4
v -5 11 -4
v -5 0 -6
v -5 11 -6
v -5 12 -6
v 6 12 -6
v 6 13 -6
v 7 0 -6
v 7 11 -6
v 7 13 -6
v -5 0 6
v 7 0 6
v -4 0 5
v 6 0 5
v -4 0 -5
v 6 0 -5
v -5 0 -6
v 7 0 -6
v -6 1 4
v -5 1 4
v -6 1 -4
v -5 1 -4
v -6 6 3
v -5 6 3
v -7 6 -3
v -6 6 -3
v -5 6 -3
v -7 6 -4
v -6 6 -4
v -6 8 4
v -5 8 4
v -6 8 -4
v -5 8 -4
v -7 9 1
v -6 9 1
v -7 9 -1
v -6 9 -1
v -6 2 3
v -5 2 3
v -6 2 -3
v -5 2 -3
v -6 7 4
v -5 7 4
v -7 7 -3
v -6 7 -3
v -7 7 -4
v -6 7 -4
v -5 7 -4
v -7 10 1
v -6 10 1
v -7 10 -1
v -6 10 -1
v -6 11 4
v -5 11 4
v -6 11 -4
v -5 11 -4
v -5 12 6
v 6 12 6
v -5 12 -6
v 6 12 -6
v 6 13 6
v 7 13 6
v 6 13 -6
v 7 13 -6

# faces
f 3/2/1 2/2/1 1/2/1
f 4/2/1 2/2/1 3/2/1
f 7/2/1 6/2/1 5/2/1
f 8/2/1 6/2/1 7/2/1
f 11/3/1 10/3/1 9/3/1
f 12/3/1 10/3/1 11/3/1
f 13/3/1 11/3/1 9/3/1
f 14/3/1 10/3/1 12/3/1
f 15/3/1 10/3/1 14/3/1
f 16/3/1 13/3/1 9/3/1
f 16/3/1 14/3/1 13/3/1
f 17/3/1 14/3/1 16/3/1
f 20/3/1 19/3/1 18/3/1
f 21/3/1 19/3/1 20/3/1
f 22/3/1 20/3/1 18/3/1
f 23/3/1 19/3/1 21/3/1
f 24/3/1 22/3/1 18/3/1
f 24/3/1 23/3/1 22/3/1
f 25/3/1 19/3/1 23/3/1
f 25/3/1 23/3/1 24/3/1
f 28/3/1 27/3/1 26/3/1
f 29/3/1 27/3/1 28/3/1
f 32/3/1 31/3/1 30/3/1
f 33/3/1 31/3/1 32/3/1
f 34/3/1 28/3/1 26/3/1
f 35/3/1 27/3/1 29/3/1
f 36/3/1 34/3/1 26/3/1
f 36/3/1 35/3/1 34/3/1
f 37/3/1 27/3/1 35/3/1
f 37/3/1 35/3/1 36/3/1
f 38/3/1 36/3/1 26/3/1
f 39/3/1 36/3/1 38/3/1
f 40/3/1 27/3/1 37/3/1
f 41/3/1 27/3/1 40/3/1
f 42/4/1 39/4/1 38/4/1
f 42/4/1 40/4/1 39/4/1
f 42/4/1 41/4/1 40/4/1
f 43/4/1 41/4/1 42/4/1
f 46/4/1 45/4/1 44/4/1
f 47/4/1 45/4/1 46/4/1
f 48/3/2 49/3/2 50/3/2
f 50/3/2 49/3/2 51/3/2
f 50/4/2 51/4/2 52/4/2
f 52/4/2 51/4/2 53/4/2
f 57/4/3 56/4/3 55/4/3
f 59/3/3 55/3/3 54/3/3
f 60/4/3 58/4/3 57/4/3
f 60/3/3 55/3/3 59/3/3
f 60/4/3 57/4/3 55/4/3
f 61/4/3 58/4/3 60/4/3
f 66/3/3 63/3/3 62/3/3
f 67/3/3 63/3/3 66/3/3
f 68/3/3 65/3/3 64/3/3
f 69/3/3 65/3/3 68/3/3
f 72/2/3 71/2/3 70/2/3
f 73/2/3 71/2/3 72/2/3
f 77/2/3 75/2/3 74/2/3
f 78/2/3 75/2/3 77/2/3
f 79/3/3 77/3/3 76/3/3
f 80/3/3 77/3/3 79/3/3
f 81/3/4 82/3/4 83/3/4
f 83/3/4 82/3/4 84/3/4
f 85/2/4 86/2/4 87/2/4
f 87/2/4 86/2/4 88/2/4
f 89/2/4 90/2/4 92/2/4
f 92/2/4 90/2/4 93/2/4
f 91/3/4 92/3/4 96/3/4
f 92/3/4 93/3/4 96/3/4
f 96/3/4 93/3/4 97/3/4
f 94/3/4 95/3/4 98/3/4
f 98/3/4 95/3/4 99/3/4
f 101/4/4 102/4/4 103/4/4
f 100/3/4 101/3/4 105/3/4
f 103/4/4 104/4/4 106/4/4
f 105/3/4 101/3/4 106/3/4
f 101/4/4 103/4/4 106/4/4
f 106/4/4 104/4/4 107/4/4
f 110/3/5 109/3/5 108/3/5
f 111/3/5 109/3/5 110/3/5
f 112/3/5 110/3/5 108/3/5
f 112/1/5 111/1/5 110/1/5
f 113/3/5 109/3/5 111/3/5
f 113/1/5 111/1/5 112/1/5
f 114/3/5 112/3/5 108/3/5
f 114/3/5 113/3/5 112/3/5
f 115/3/5 109/3/5 113/3/5
f 115/3/5 113/3/5 114/3/5
f 118/3/5 117/3/5 116/3/5
f 119/3/5 117/3/5 118/3/5
f 123/3/5 121/3/5 120/3/5
f 124/3/5 121/3/5 123/3/5
f 125/2/5 123/2/5 122/2/5
f 126/2/5 123/2/5 125/2/5
f 129/3/5 128/3/5 127/3/5
f 130/3/5 128/3/5 129/3/5
f 133/2/5 132/2/5 131/2/5
f 134/2/5 132/2/5 133/2/5
f 135/3/6 136/3/6 137/3/6
f 137/3/6 136/3/6 138/3/6
f 139/3/6 140/3/6 142/3/6
f 141/2/6 142/2/6 143/2/6
f 142/3/6 140/3/6 144/3/6
f 143/2/6 142/2/6 144/2/6
f 144/3/6 140/3/6 145/3/6
f 146/2/6 147/2/6 148/2/6
f 148/2/6 147/2/6 149/2/6
f 150/3/6 151/3/6 152/3/6
f 152/3/6 151/3/6 153/3/6
f 154/4/6 155/4/6 156/4/6
f 156/4/6 155/4/6 157/4/6
f 158/4/6 159/4/6 160/4/6
f 160/4/6 159/4/6 161/4/6
