# MagicaVoxel @ Ephtracy

# group
g apt:chair-footstand

# material
mtllib default-material.mtl
usemtl palette

# normals
vn -1 0 0
vn 1 0 0
vn 0 0 1
vn 0 0 -1
vn 0 -1 0
vn 0 1 0

# texcoords
vt 0.912109 0.5
vt 0.955078 0.5

# verts
v -6 0 7
v -6 0 6
v -6 0 -5
v -6 0 -7
v -6 1 6
v -6 1 -5
v -6 2 7
v -6 2 -7
v -6 7 7
v -6 7 -7
v 5 0 7
v 5 0 6
v 5 0 -5
v 5 0 -7
v 5 1 7
v 5 1 6
v 5 1 -5
v 5 1 -6
v 5 1 -7
v -4 0 7
v -4 0 6
v -4 0 -5
v -4 0 -7
v -4 1 7
v -4 1 6
v -4 1 -5
v -4 1 -6
v -4 1 -7
v 6 0 7
v 6 0 6
v 6 0 -5
v 6 0 -7
v 6 1 6
v 6 1 -5
v 6 2 7
v 6 2 -7
v 6 7 7
v 6 7 -7
v -6 0 7
v -6 2 7
v -6 7 7
v -4 0 7
v -4 1 7
v 5 0 7
v 5 1 7
v 6 0 7
v 6 2 7
v 6 7 7
v -6 0 -5
v -6 1 -5
v -5 1 -5
v -4 0 -5
v -4 1 -5
v 5 0 -5
v 5 1 -5
v 6 0 -5
v 6 1 -5
v -6 0 6
v -6 1 6
v -5 1 6
v -4 0 6
v -4 1 6
v 5 0 6
v 5 1 6
v 6 0 6
v 6 1 6
v -6 0 -7
v -6 2 -7
v -6 7 -7
v -4 0 -7
v -4 1 -7
v 5 0 -7
v 5 1 -7
v 6 0 -7
v 6 2 -7
v 6 7 -7
v -6 0 7
v -4 0 7
v 5 0 7
v 6 0 7
v -6 0 6
v -4 0 6
v 5 0 6
v 6 0 6
v -6 0 -5
v -4 0 -5
v 5 0 -5
v 6 0 -5
v -6 0 -7
v -4 0 -7
v 5 0 -7
v 6 0 -7
v -4 1 7
v 5 1 7
v -6 1 6
v -5 1 6
v -4 1 6
v 5 1 6
v 6 1 6
v -6 1 -5
v -5 1 -5
v -4 1 -5
v 5 1 -5
v 6 1 -5
v -4 1 -6
v 5 1 -6
v -4 1 -7
v 5 1 -7
v -6 7 7
v 6 7 7
v -6 7 -7
v 6 7 -7

# faces
f 5/2/1 2/2/1 1/2/1
f 6/2/1 4/2/1 3/2/1
f 7/2/1 5/2/1 1/2/1
f 7/2/1 6/2/1 5/2/1
f 8/2/1 4/2/1 6/2/1
f 8/2/1 6/2/1 7/2/1
f 9/1/1 8/1/1 7/1/1
f 10/1/1 8/1/1 9/1/1
f 15/2/1 12/2/1 11/2/1
f 16/2/1 12/2/1 15/2/1
f 17/2/1 14/2/1 13/2/1
f 18/2/1 14/2/1 17/2/1
f 19/2/1 14/2/1 18/2/1
f 20/2/2 21/2/2 24/2/2
f 24/2/2 21/2/2 25/2/2
f 22/2/2 23/2/2 26/2/2
f 26/2/2 23/2/2 27/2/2
f 27/2/2 23/2/2 28/2/2
f 29/2/2 30/2/2 33/2/2
f 31/2/2 32/2/2 34/2/2
f 29/2/2 33/2/2 35/2/2
f 33/2/2 34/2/2 35/2/2
f 34/2/2 32/2/2 36/2/2
f 35/2/2 34/2/2 36/2/2
f 35/1/2 36/1/2 37/1/2
f 37/1/2 36/1/2 38/1/2
f 42/2/3 40/2/3 39/2/3
f 43/2/3 40/2/3 42/2/3
f 45/2/3 40/2/3 43/2/3
f 46/2/3 45/2/3 44/2/3
f 47/1/3 41/1/3 40/1/3
f 47/2/3 45/2/3 46/2/3
f 47/2/3 40/2/3 45/2/3
f 48/1/3 41/1/3 47/1/3
f 51/2/3 50/2/3 49/2/3
f 52/2/3 51/2/3 49/2/3
f 53/2/3 51/2/3 52/2/3
f 56/2/3 55/2/3 54/2/3
f 57/2/3 55/2/3 56/2/3
f 58/2/4 59/2/4 60/2/4
f 58/2/4 60/2/4 61/2/4
f 61/2/4 60/2/4 62/2/4
f 63/2/4 64/2/4 65/2/4
f 65/2/4 64/2/4 66/2/4
f 67/2/4 68/2/4 70/2/4
f 70/2/4 68/2/4 71/2/4
f 71/2/4 68/2/4 73/2/4
f 72/2/4 73/2/4 74/2/4
f 68/1/4 69/1/4 75/1/4
f 74/2/4 73/2/4 75/2/4
f 73/2/4 68/2/4 75/2/4
f 75/1/4 69/1/4 76/1/4
f 81/2/5 78/2/5 77/2/5
f 82/2/5 78/2/5 81/2/5
f 83/2/5 80/2/5 79/2/5
f 84/2/5 80/2/5 83/2/5
f 89/2/5 86/2/5 85/2/5
f 90/2/5 86/2/5 89/2/5
f 91/2/5 88/2/5 87/2/5
f 92/2/5 88/2/5 91/2/5
f 97/2/5 94/2/5 93/2/5
f 98/2/5 94/2/5 97/2/5
f 100/2/5 96/2/5 95/2/5
f 101/1/5 97/1/5 96/1/5
f 101/2/5 96/2/5 100/2/5
f 101/1/5 98/1/5 97/1/5
f 102/1/5 98/1/5 101/1/5
f 103/2/5 99/2/5 98/2/5
f 103/1/5 98/1/5 102/1/5
f 104/2/5 99/2/5 103/2/5
f 105/1/5 103/1/5 102/1/5
f 106/1/5 103/1/5 105/1/5
f 107/2/5 106/2/5 105/2/5
f 108/2/5 106/2/5 107/2/5
f 109/1/6 110/1/6 111/1/6
f 111/1/6 110/1/6 112/1/6
