# MagicaVoxel @ Ephtracy

# group
g apt:shower

# material
mtllib default-material.mtl
usemtl palette

# normals
vn -1 0 0
vn 1 0 0
vn 0 0 1
vn 0 0 -1
vn 0 -1 0
vn 0 1 0

# texcoords
vt 0.166016 0.5
vt 0.208984 0.5
vt 0.607422 0.5
vt 0.634766 0.5
vt 0.923828 0.5
vt 0.958984 0.5
vt 0.962891 0.5
vt 0.978516 0.5

# verts
v -8 0 9.5
v -8 0 -9.5
v -8 4 8.5
v -8 4 -8.5
v -8 5 7.5
v -8 5 -7.5
v -8 15 7.5
v -8 15 6.5
v -8 19 7.5
v -8 19 6.5
v -8 29 7.5
v -8 29 -7.5
v -8 30 9.5
v -8 30 8.5
v -8 30 -8.5
v -8 30 -9.5
v -2 22 -7.5
v -2 22 -8.5
v -2 23 -7.5
v -2 23 -8.5
v -2 25 -7.5
v -2 25 -8.5
v -2 28 -7.5
v -2 28 -8.5
v -1 27 -4.5
v -1 27 -5.5
v -1 27 -7.5
v -1 28 -4.5
v -1 28 -5.5
v -1 28 -7.5
v 0 22 -7.5
v 0 22 -8.5
v 0 23 -7.5
v 0 23 -8.5
v 3 15 8.5
v 3 15 6.5
v 3 16 8.5
v 3 16 6.5
v 4 15 6.5
v 4 15 5.5
v 4 16 6.5
v 4 16 5.5
v 5 15 5.5
v 5 15 4.5
v 5 16 8.5
v 5 16 6.5
v 5 16 5.5
v 5 16 4.5
v 5 20 8.5
v 5 20 6.5
v 5 21 8.5
v 5 21 6.5
v 6 16 5.5
v 6 16 4.5
v 6 18 5.5
v 6 18 4.5
v 6 19 5.5
v 6 19 4.5
v 7 1 8.5
v 7 1 -8.5
v 7 15 8.5
v 7 15 4.5
v 7 16 6.5
v 7 16 5.5
v 7 16 4.5
v 7 18 5.5
v 7 18 4.5
v 7 19 5.5
v 7 19 4.5
v 7 20 6.5
v 7 21 8.5
v 7 21 6.5
v 7 30 8.5
v 7 30 -8.5
v -7 1 8.5
v -7 1 -8.5
v -7 4 8.5
v -7 4 -8.5
v -7 5 7.5
v -7 5 -7.5
v -7 15 7.5
v -7 15 6.5
v -7 19 7.5
v -7 19 6.5
v -7 29 7.5
v -7 29 -7.5
v -7 30 8.5
v -7 30 -8.5
v -1 22 -7.5
v -1 22 -8.5
v -1 23 -7.5
v -1 23 -8.5
v 0 27 -4.5
v 0 27 -5.5
v 0 27 -7.5
v 0 28 -4.5
v 0 28 -5.5
v 0 28 -7.5
v 1 22 -7.5
v 1 22 -8.5
v 1 23 -7.5
v 1 23 -8.5
v 1 25 -7.5
v 1 25 -8.5
v 1 28 -7.5
v 1 28 -8.5
v 8 0 9.5
v 8 0 -9.5
v 8 30 9.5
v 8 30 -9.5
v -8 0 9.5
v -8 30 9.5
v 8 0 9.5
v 8 30 9.5
v 6 16 5.5
v 6 18 5.5
v 6 19 5.5
v 7 16 5.5
v 7 18 5.5
v 7 19 5.5
v -1 27 -4.5
v -1 28 -4.5
v 0 27 -4.5
v 0 28 -4.5
v -8 5 -7.5
v -8 29 -7.5
v -7 5 -7.5
v -7 29 -7.5
v -2 22 -7.5
v -2 23 -7.5
v -2 25 -7.5
v -2 28 -7.5
v -1 22 -7.5
v -1 23 -7.5
v -1 27 -7.5
v -1 28 -7.5
v 0 22 -7.5
v 0 23 -7.5
v 0 27 -7.5
v 0 28 -7.5
v 1 22 -7.5
v 1 23 -7.5
v 1 25 -7.5
v 1 28 -7.5
v -7 1 -8.5
v -7 4 -8.5
v -7 30 -8.5
v -2 22 -8.5
v -2 23 -8.5
v -2 25 -8.5
v -2 28 -8.5
v -1 22 -8.5
v -1 23 -8.5
v 0 22 -8.5
v 0 23 -8.5
v 1 22 -8.5
v 1 23 -8.5
v 1 25 -8.5
v 1 28 -8.5
v 7 1 -8.5
v 7 30 -8.5
v -7 1 8.5
v -7 4 8.5
v -7 30 8.5
v 3 15 8.5
v 3 16 8.5
v 5 16 8.5
v 5 20 8.5
v 5 21 8.5
v 7 1 8.5
v 7 15 8.5
v 7 21 8.5
v 7 30 8.5
v -8 5 7.5
v -8 15 7.5
v -8 19 7.5
v -8 29 7.5
v -7 5 7.5
v -7 15 7.5
v -7 19 7.5
v -7 29 7.5
v -8 15 6.5
v -8 19 6.5
v -7 15 6.5
v -7 19 6.5
v 3 15 6.5
v 3 16 6.5
v 4 15 6.5
v 4 16 6.5
v 5 16 6.5
v 5 20 6.5
v 5 21 6.5
v 7 16 6.5
v 7 20 6.5
v 7 21 6.5
v 4 15 5.5
v 4 16 5.5
v 5 15 5.5
v 5 16 5.5
v 5 15 4.5
v 5 16 4.5
v 6 16 4.5
v 6 18 4.5
v 6 19 4.5
v 7 15 4.5
v 7 16 4.5
v 7 18 4.5
v 7 19 4.5
v -8 0 -9.5
v -8 30 -9.5
v 8 0 -9.5
v 8 30 -9.5
v -8 0 9.5
v 8 0 9.5
v -3 0 1.5
v 0 0 1.5
v -3 0 -1.5
v 0 0 -1.5
v -8 0 -9.5
v 8 0 -9.5
v 3 15 8.5
v 7 15 8.5
v -8 15 7.5
v -7 15 7.5
v -8 15 6.5
v -7 15 6.5
v 3 15 6.5
v 4 15 6.5
v 4 15 5.5
v 5 15 5.5
v 5 15 4.5
v 7 15 4.5
v -2 22 -7.5
v -1 22 -7.5
v 0 22 -7.5
v 1 22 -7.5
v -2 22 -8.5
v -1 22 -8.5
v 0 22 -8.5
v 1 22 -8.5
v -2 25 -7.5
v 1 25 -7.5
v -2 25 -8.5
v 1 25 -8.5
v -1 27 -4.5
v 0 27 -4.5
v -1 27 -5.5
v 0 27 -5.5
v -1 27 -7.5
v 0 27 -7.5
v -8 29 7.5
v -7 29 7.5
v -8 29 -7.5
v -7 29 -7.5
v -7 1 8.5
v 7 1 8.5
v -3 1 1.5
v 0 1 1.5
v -3 1 -1.5
v 0 1 -1.5
v -7 1 -8.5
v 7 1 -8.5
v -8 5 7.5
v -7 5 7.5
v -8 5 -7.5
v -7 5 -7.5
v 3 16 8.5
v 5 16 8.5
v 3 16 6.5
v 4 16 6.5
v 5 16 6.5
v 7 16 6.5
v 4 16 5.5
v 5 16 5.5
v 6 16 5.5
v 7 16 5.5
v 5 16 4.5
v 6 16 4.5
v -8 19 7.5
v -7 19 7.5
v -8 19 6.5
v -7 19 6.5
v 6 19 5.5
v 7 19 5.5
v 6 19 4.5
v 7 19 4.5
v 5 21 8.5
v 7 21 8.5
v 5 21 6.5
v 7 21 6.5
v -2 23 -7.5
v -1 23 -7.5
v 0 23 -7.5
v 1 23 -7.5
v -2 23 -8.5
v -1 23 -8.5
v 0 23 -8.5
v 1 23 -8.5
v -1 28 -4.5
v 0 28 -4.5
v -1 28 -5.5
v 0 28 -5.5
v -2 28 -7.5
v -1 28 -7.5
v 0 28 -7.5
v 1 28 -7.5
v -2 28 -8.5
v 1 28 -8.5
v -8 30 9.5
v 8 30 9.5
v -8 30 8.5
v -7 30 8.5
v 7 30 8.5
v -8 30 -8.5
v -7 30 -8.5
v 7 30 -8.5
v -8 30 -9.5
v 8 30 -9.5

# faces
f 3/6/1 2/6/1 1/6/1
f 4/6/1 2/6/1 3/6/1
f 5/8/1 4/8/1 3/8/1
f 6/8/1 4/8/1 5/8/1
f 7/8/1 5/8/1 3/8/1
f 9/8/1 7/8/1 3/8/1
f 9/8/1 8/8/1 7/8/1
f 10/8/1 8/8/1 9/8/1
f 11/8/1 9/8/1 3/8/1
f 12/8/1 4/8/1 6/8/1
f 13/6/1 3/6/1 1/6/1
f 14/8/1 12/8/1 11/8/1
f 14/6/1 3/6/1 13/6/1
f 14/8/1 11/8/1 3/8/1
f 15/6/1 2/6/1 4/6/1
f 15/8/1 12/8/1 14/8/1
f 15/8/1 4/8/1 12/8/1
f 16/6/1 2/6/1 15/6/1
f 19/8/1 18/8/1 17/8/1
f 20/8/1 18/8/1 19/8/1
f 23/5/1 22/5/1 21/5/1
f 24/5/1 22/5/1 23/5/1
f 28/7/1 26/7/1 25/7/1
f 29/5/1 27/5/1 26/5/1
f 29/7/1 26/7/1 28/7/1
f 30/5/1 27/5/1 29/5/1
f 33/8/1 32/8/1 31/8/1
f 34/8/1 32/8/1 33/8/1
f 37/6/1 36/6/1 35/6/1
f 38/6/1 36/6/1 37/6/1
f 41/6/1 40/6/1 39/6/1
f 42/6/1 40/6/1 41/6/1
f 47/6/1 44/6/1 43/6/1
f 48/6/1 44/6/1 47/6/1
f 49/1/1 46/1/1 45/1/1
f 50/1/1 46/1/1 49/1/1
f 51/2/1 50/2/1 49/2/1
f 52/2/1 50/2/1 51/2/1
f 55/3/1 54/3/1 53/3/1
f 56/3/1 54/3/1 55/3/1
f 57/4/1 56/4/1 55/4/1
f 58/4/1 56/4/1 57/4/1
f 61/6/1 60/6/1 59/6/1
f 62/6/1 60/6/1 61/6/1
f 65/6/1 60/6/1 62/6/1
f 66/6/1 64/6/1 63/6/1
f 67/6/1 60/6/1 65/6/1
f 68/6/1 66/6/1 63/6/1
f 69/6/1 60/6/1 67/6/1
f 70/6/1 68/6/1 63/6/1
f 70/6/1 69/6/1 68/6/1
f 72/6/1 69/6/1 70/6/1
f 73/6/1 72/6/1 71/6/1
f 74/6/1 60/6/1 69/6/1
f 74/6/1 72/6/1 73/6/1
f 74/6/1 69/6/1 72/6/1
f 75/6/2 76/6/2 77/6/2
f 77/6/2 76/6/2 78/6/2
f 77/8/2 78/8/2 79/8/2
f 79/8/2 78/8/2 80/8/2
f 77/8/2 79/8/2 81/8/2
f 77/8/2 81/8/2 83/8/2
f 81/8/2 82/8/2 83/8/2
f 83/8/2 82/8/2 84/8/2
f 77/8/2 83/8/2 85/8/2
f 80/8/2 78/8/2 86/8/2
f 77/8/2 85/8/2 87/8/2
f 85/8/2 86/8/2 87/8/2
f 86/8/2 78/8/2 88/8/2
f 87/8/2 86/8/2 88/8/2
f 89/8/2 90/8/2 91/8/2
f 91/8/2 90/8/2 92/8/2
f 93/7/2 94/7/2 96/7/2
f 94/5/2 95/5/2 97/5/2
f 96/7/2 94/7/2 97/7/2
f 97/5/2 95/5/2 98/5/2
f 99/8/2 100/8/2 101/8/2
f 101/8/2 100/8/2 102/8/2
f 103/5/2 104/5/2 105/5/2
f 105/5/2 104/5/2 106/5/2
f 107/6/2 108/6/2 109/6/2
f 109/6/2 108/6/2 110/6/2
f 113/6/3 112/6/3 111/6/3
f 114/6/3 112/6/3 113/6/3
f 118/3/3 116/3/3 115/3/3
f 119/4/3 117/4/3 116/4/3
f 119/3/3 116/3/3 118/3/3
f 120/4/3 117/4/3 119/4/3
f 123/7/3 122/7/3 121/7/3
f 124/7/3 122/7/3 123/7/3
f 127/8/3 126/8/3 125/8/3
f 128/8/3 126/8/3 127/8/3
f 133/8/3 130/8/3 129/8/3
f 134/8/3 130/8/3 133/8/3
f 135/5/3 132/5/3 131/5/3
f 136/5/3 132/5/3 135/5/3
f 139/5/3 135/5/3 131/5/3
f 141/8/3 138/8/3 137/8/3
f 142/8/3 138/8/3 141/8/3
f 143/5/3 140/5/3 139/5/3
f 143/5/3 139/5/3 131/5/3
f 144/5/3 140/5/3 143/5/3
f 148/6/3 146/6/3 145/6/3
f 148/6/3 147/6/3 146/6/3
f 149/6/3 147/6/3 148/6/3
f 150/6/3 147/6/3 149/6/3
f 151/6/3 147/6/3 150/6/3
f 152/6/3 148/6/3 145/6/3
f 153/6/3 150/6/3 149/6/3
f 154/6/3 152/6/3 145/6/3
f 154/6/3 153/6/3 152/6/3
f 155/6/3 150/6/3 153/6/3
f 155/6/3 153/6/3 154/6/3
f 156/6/3 154/6/3 145/6/3
f 157/6/3 150/6/3 155/6/3
f 158/6/3 150/6/3 157/6/3
f 159/6/3 147/6/3 151/6/3
f 160/6/3 158/6/3 157/6/3
f 160/6/3 159/6/3 158/6/3
f 160/6/3 156/6/3 145/6/3
f 160/6/3 157/6/3 156/6/3
f 161/6/3 147/6/3 159/6/3
f 161/6/3 159/6/3 160/6/3
f 162/6/4 163/6/4 165/6/4
f 163/6/4 164/6/4 165/6/4
f 165/6/4 164/6/4 166/6/4
f 166/6/4 164/6/4 167/6/4
f 167/6/4 164/6/4 168/6/4
f 168/6/4 164/6/4 169/6/4
f 162/6/4 165/6/4 170/6/4
f 170/6/4 165/6/4 171/6/4
f 169/6/4 164/6/4 172/6/4
f 172/6/4 164/6/4 173/6/4
f 174/8/4 175/8/4 178/8/4
f 178/8/4 175/8/4 179/8/4
f 176/8/4 177/8/4 180/8/4
f 180/8/4 177/8/4 181/8/4
f 182/8/4 183/8/4 184/8/4
f 184/8/4 183/8/4 185/8/4
f 186/6/4 187/6/4 188/6/4
f 188/6/4 187/6/4 189/6/4
f 190/1/4 191/1/4 193/1/4
f 191/2/4 192/2/4 194/2/4
f 193/1/4 191/1/4 194/1/4
f 194/2/4 192/2/4 195/2/4
f 196/6/4 197/6/4 198/6/4
f 198/6/4 197/6/4 199/6/4
f 200/6/4 201/6/4 202/6/4
f 200/6/4 202/6/4 205/6/4
f 202/3/4 203/3/4 206/3/4
f 205/6/4 202/6/4 206/6/4
f 203/4/4 204/4/4 207/4/4
f 206/3/4 203/3/4 207/3/4
f 207/4/4 204/4/4 208/4/4
f 209/6/4 210/6/4 211/6/4
f 211/6/4 210/6/4 212/6/4
f 215/6/5 214/6/5 213/6/5
f 216/6/5 214/6/5 215/6/5
f 217/6/5 215/6/5 213/6/5
f 217/8/5 216/8/5 215/8/5
f 218/6/5 214/6/5 216/6/5
f 218/8/5 216/8/5 217/8/5
f 219/6/5 217/6/5 213/6/5
f 219/6/5 218/6/5 217/6/5
f 220/6/5 214/6/5 218/6/5
f 220/6/5 218/6/5 219/6/5
f 225/8/5 224/8/5 223/8/5
f 226/8/5 224/8/5 225/8/5
f 227/6/5 222/6/5 221/6/5
f 228/6/5 222/6/5 227/6/5
f 229/6/5 222/6/5 228/6/5
f 230/6/5 222/6/5 229/6/5
f 231/6/5 222/6/5 230/6/5
f 232/6/5 222/6/5 231/6/5
f 237/8/5 234/8/5 233/8/5
f 238/8/5 234/8/5 237/8/5
f 239/8/5 236/8/5 235/8/5
f 240/8/5 236/8/5 239/8/5
f 243/5/5 242/5/5 241/5/5
f 244/5/5 242/5/5 243/5/5
f 247/7/5 246/7/5 245/7/5
f 248/7/5 246/7/5 247/7/5
f 249/5/5 248/5/5 247/5/5
f 250/5/5 248/5/5 249/5/5
f 253/8/5 252/8/5 251/8/5
f 254/8/5 252/8/5 253/8/5
f 255/6/6 256/6/6 257/6/6
f 257/6/6 256/6/6 258/6/6
f 255/6/6 257/6/6 259/6/6
f 257/8/6 258/8/6 259/8/6
f 258/6/6 256/6/6 260/6/6
f 259/8/6 258/8/6 260/8/6
f 255/6/6 259/6/6 261/6/6
f 259/6/6 260/6/6 261/6/6
f 260/6/6 256/6/6 262/6/6
f 261/6/6 260/6/6 262/6/6
f 263/8/6 264/8/6 265/8/6
f 265/8/6 264/8/6 266/8/6
f 267/6/6 268/6/6 269/6/6
f 269/6/6 268/6/6 270/6/6
f 270/6/6 268/6/6 271/6/6
f 271/6/6 272/6/6 273/6/6
f 270/6/6 271/6/6 273/6/6
f 273/6/6 272/6/6 274/6/6
f 274/6/6 272/6/6 275/6/6
f 275/6/6 272/6/6 276/6/6
f 274/6/6 275/6/6 277/6/6
f 277/6/6 275/6/6 278/6/6
f 279/8/6 280/8/6 281/8/6
f 281/8/6 280/8/6 282/8/6
f 283/4/6 284/4/6 285/4/6
f 285/4/6 284/4/6 286/4/6
f 287/2/6 288/2/6 289/2/6
f 289/2/6 288/2/6 290/2/6
f 291/8/6 292/8/6 295/8/6
f 295/8/6 292/8/6 296/8/6
f 293/8/6 294/8/6 297/8/6
f 297/8/6 294/8/6 298/8/6
f 299/7/6 300/7/6 301/7/6
f 301/7/6 300/7/6 302/7/6
f 301/5/6 302/5/6 304/5/6
f 304/5/6 302/5/6 305/5/6
f 304/5/6 305/5/6 307/5/6
f 305/5/6 306/5/6 307/5/6
f 303/5/6 304/5/6 307/5/6
f 307/5/6 306/5/6 308/5/6
f 309/6/6 310/6/6 311/6/6
f 311/6/6 310/6/6 312/6/6
f 312/6/6 310/6/6 313/6/6
f 311/8/6 312/8/6 314/8/6
f 314/8/6 312/8/6 315/8/6
f 313/6/6 310/6/6 316/6/6
f 314/6/6 315/6/6 317/6/6
f 315/6/6 316/6/6 317/6/6
f 316/6/6 310/6/6 318/6/6
f 317/6/6 316/6/6 318/6/6
