# MagicaVoxel @ Ephtracy

# group
g apt:chair-small

# material
mtllib default-material.mtl
usemtl palette

# normals
vn -1 0 0
vn 1 0 0
vn 0 0 1
vn 0 0 -1
vn 0 -1 0
vn 0 1 0

# texcoords
vt 0.912109 0.5
vt 0.955078 0.5

# verts
v -6.5 0 8
v -6.5 0 6
v -6.5 0 -5
v -6.5 0 -8
v -6.5 1 6
v -6.5 1 -5
v -6.5 2 8
v -6.5 2 -8
v -6.5 7 5
v -6.5 7 -5
v -6.5 10 8
v -6.5 10 7
v -6.5 10 -7
v -6.5 10 -8
v -6.5 11 7
v -6.5 11 5
v -6.5 11 -5
v -6.5 11 -7
v 1.5 7 5
v 1.5 7 -5
v 1.5 11 5
v 1.5 11 -5
v 1.5 13 5
v 1.5 13 4
v 1.5 13 -4
v 1.5 13 -5
v 1.5 14 4
v 1.5 14 -4
v 4.5 0 8
v 4.5 0 6
v 4.5 0 -5
v 4.5 0 -7
v 4.5 0 -8
v 4.5 1 8
v 4.5 1 7
v 4.5 1 6
v 4.5 1 -5
v 4.5 1 -7
v 4.5 1 -8
v -4.5 0 8
v -4.5 0 6
v -4.5 0 -5
v -4.5 0 -7
v -4.5 0 -8
v -4.5 1 8
v -4.5 1 7
v -4.5 1 6
v -4.5 1 -5
v -4.5 1 -7
v -4.5 1 -8
v 6.5 0 8
v 6.5 0 6
v 6.5 0 -5
v 6.5 0 -8
v 6.5 1 6
v 6.5 1 -5
v 6.5 2 8
v 6.5 2 -8
v 6.5 10 8
v 6.5 10 7
v 6.5 10 -7
v 6.5 10 -8
v 6.5 11 7
v 6.5 11 5
v 6.5 11 -5
v 6.5 11 -7
v 6.5 13 5
v 6.5 13 4
v 6.5 13 -4
v 6.5 13 -5
v 6.5 14 4
v 6.5 14 -4
v -6.5 0 8
v -6.5 2 8
v -6.5 10 8
v -4.5 0 8
v -4.5 1 8
v 4.5 0 8
v 4.5 1 8
v 6.5 0 8
v 6.5 2 8
v 6.5 10 8
v -6.5 10 7
v -6.5 11 7
v 6.5 10 7
v 6.5 11 7
v 1.5 11 5
v 1.5 13 5
v 6.5 11 5
v 6.5 13 5
v 1.5 13 4
v 1.5 14 4
v 6.5 13 4
v 6.5 14 4
v -6.5 0 -5
v -6.5 1 -5
v -6.5 7 -5
v -6.5 11 -5
v -5.5 0 -5
v -5.5 1 -5
v -4.5 0 -5
v -4.5 1 -5
v 1.5 7 -5
v 1.5 11 -5
v 4.5 0 -5
v 4.5 1 -5
v 5.5 0 -5
v 5.5 1 -5
v 6.5 0 -5
v 6.5 1 -5
v -6.5 0 6
v -6.5 1 6
v -5.5 1 6
v -4.5 0 6
v -4.5 1 6
v 4.5 0 6
v 4.5 1 6
v 5.5 1 6
v 6.5 0 6
v 6.5 1 6
v -6.5 7 5
v -6.5 11 5
v 1.5 7 5
v 1.5 11 5
v 1.5 13 -4
v 1.5 14 -4
v 6.5 13 -4
v 6.5 14 -4
v 1.5 11 -5
v 1.5 13 -5
v 6.5 11 -5
v 6.5 13 -5
v -6.5 10 -7
v -6.5 11 -7
v 6.5 10 -7
v 6.5 11 -7
v -6.5 0 -8
v -6.5 2 -8
v -6.5 10 -8
v -4.5 0 -8
v -4.5 1 -8
v 4.5 0 -8
v 4.5 1 -8
v 6.5 0 -8
v 6.5 2 -8
v 6.5 10 -8
v -6.5 0 8
v -4.5 0 8
v 4.5 0 8
v 6.5 0 8
v -6.5 0 6
v -4.5 0 6
v 4.5 0 6
v 6.5 0 6
v -6.5 0 -5
v -5.5 0 -5
v -4.5 0 -5
v 4.5 0 -5
v 5.5 0 -5
v 6.5 0 -5
v -5.5 0 -7
v -4.5 0 -7
v 4.5 0 -7
v 5.5 0 -7
v -6.5 0 -8
v -4.5 0 -8
v 4.5 0 -8
v 6.5 0 -8
v -4.5 1 8
v 4.5 1 8
v -4.5 1 7
v 4.5 1 7
v -6.5 1 6
v -5.5 1 6
v -4.5 1 6
v 4.5 1 6
v 5.5 1 6
v 6.5 1 6
v -6.5 1 -5
v -5.5 1 -5
v -4.5 1 -5
v 4.5 1 -5
v 5.5 1 -5
v 6.5 1 -5
v -4.5 1 -7
v 4.5 1 -7
v -4.5 1 -8
v 4.5 1 -8
v -6.5 7 5
v 1.5 7 5
v -6.5 7 -5
v 1.5 7 -5
v -6.5 10 8
v 6.5 10 8
v -6.5 10 7
v 6.5 10 7
v -6.5 10 -7
v 6.5 10 -7
v -6.5 10 -8
v 6.5 10 -8
v -6.5 11 7
v 6.5 11 7
v -6.5 11 5
v 1.5 11 5
v 6.5 11 5
v -6.5 11 -5
v 1.5 11 -5
v 6.5 11 -5
v -6.5 11 -7
v 6.5 11 -7
v 1.5 13 5
v 6.5 13 5
v 1.5 13 4
v 6.5 13 4
v 1.5 13 -4
v 6.5 13 -4
v 1.5 13 -5
v 6.5 13 -5
v 1.5 14 4
v 6.5 14 4
v 1.5 14 -4
v 6.5 14 -4

# faces
f 5/2/1 2/2/1 1/2/1
f 6/2/1 4/2/1 3/2/1
f 7/2/1 5/2/1 1/2/1
f 7/2/1 6/2/1 5/2/1
f 8/2/1 4/2/1 6/2/1
f 8/2/1 6/2/1 7/2/1
f 9/1/1 8/1/1 7/1/1
f 10/1/1 8/1/1 9/1/1
f 11/1/1 9/1/1 7/1/1
f 12/1/1 9/1/1 11/1/1
f 13/1/1 8/1/1 10/1/1
f 14/1/1 8/1/1 13/1/1
f 15/1/1 9/1/1 12/1/1
f 16/1/1 9/1/1 15/1/1
f 17/1/1 13/1/1 10/1/1
f 18/1/1 13/1/1 17/1/1
f 21/1/1 20/1/1 19/1/1
f 22/1/1 20/1/1 21/1/1
f 23/1/1 22/1/1 21/1/1
f 24/1/1 22/1/1 23/1/1
f 25/1/1 22/1/1 24/1/1
f 26/1/1 22/1/1 25/1/1
f 27/1/1 25/1/1 24/1/1
f 28/1/1 25/1/1 27/1/1
f 34/2/1 30/2/1 29/2/1
f 35/2/1 30/2/1 34/2/1
f 36/2/1 30/2/1 35/2/1
f 37/1/1 32/1/1 31/1/1
f 38/2/1 33/2/1 32/2/1
f 38/1/1 32/1/1 37/1/1
f 39/2/1 33/2/1 38/2/1
f 40/2/2 41/2/2 45/2/2
f 45/2/2 41/2/2 46/2/2
f 46/2/2 41/2/2 47/2/2
f 42/1/2 43/1/2 48/1/2
f 43/2/2 44/2/2 49/2/2
f 48/1/2 43/1/2 49/1/2
f 49/2/2 44/2/2 50/2/2
f 51/2/2 52/2/2 55/2/2
f 53/2/2 54/2/2 56/2/2
f 51/2/2 55/2/2 57/2/2
f 55/2/2 56/2/2 57/2/2
f 56/2/2 54/2/2 58/2/2
f 57/2/2 56/2/2 58/2/2
f 57/1/2 58/1/2 59/1/2
f 59/1/2 58/1/2 60/1/2
f 60/1/2 58/1/2 61/1/2
f 61/1/2 58/1/2 62/1/2
f 60/1/2 61/1/2 63/1/2
f 63/1/2 61/1/2 64/1/2
f 64/1/2 61/1/2 65/1/2
f 65/1/2 61/1/2 66/1/2
f 64/1/2 65/1/2 67/1/2
f 67/1/2 65/1/2 68/1/2
f 68/1/2 65/1/2 69/1/2
f 69/1/2 65/1/2 70/1/2
f 68/1/2 69/1/2 71/1/2
f 71/1/2 69/1/2 72/1/2
f 76/2/3 74/2/3 73/2/3
f 77/2/3 74/2/3 76/2/3
f 79/2/3 74/2/3 77/2/3
f 80/2/3 79/2/3 78/2/3
f 81/1/3 75/1/3 74/1/3
f 81/2/3 79/2/3 80/2/3
f 81/2/3 74/2/3 79/2/3
f 82/1/3 75/1/3 81/1/3
f 85/1/3 84/1/3 83/1/3
f 86/1/3 84/1/3 85/1/3
f 89/1/3 88/1/3 87/1/3
f 90/1/3 88/1/3 89/1/3
f 93/1/3 92/1/3 91/1/3
f 94/1/3 92/1/3 93/1/3
f 99/2/3 96/2/3 95/2/3
f 100/2/3 96/2/3 99/2/3
f 101/1/3 100/1/3 99/1/3
f 102/1/3 100/1/3 101/1/3
f 103/1/3 98/1/3 97/1/3
f 104/1/3 98/1/3 103/1/3
f 107/1/3 106/1/3 105/1/3
f 108/1/3 106/1/3 107/1/3
f 109/2/3 108/2/3 107/2/3
f 110/2/3 108/2/3 109/2/3
f 111/2/4 112/2/4 113/2/4
f 111/2/4 113/2/4 114/2/4
f 114/2/4 113/2/4 115/2/4
f 116/2/4 117/2/4 118/2/4
f 116/2/4 118/2/4 119/2/4
f 119/2/4 118/2/4 120/2/4
f 121/1/4 122/1/4 123/1/4
f 123/1/4 122/1/4 124/1/4
f 125/1/4 126/1/4 127/1/4
f 127/1/4 126/1/4 128/1/4
f 129/1/4 130/1/4 131/1/4
f 131/1/4 130/1/4 132/1/4
f 133/1/4 134/1/4 135/1/4
f 135/1/4 134/1/4 136/1/4
f 137/2/4 138/2/4 140/2/4
f 140/2/4 138/2/4 141/2/4
f 141/2/4 138/2/4 143/2/4
f 142/2/4 143/2/4 144/2/4
f 138/1/4 139/1/4 145/1/4
f 144/2/4 143/2/4 145/2/4
f 143/2/4 138/2/4 145/2/4
f 145/1/4 139/1/4 146/1/4
f 151/2/5 148/2/5 147/2/5
f 152/2/5 148/2/5 151/2/5
f 153/2/5 150/2/5 149/2/5
f 154/2/5 150/2/5 153/2/5
f 161/2/5 156/2/5 155/2/5
f 161/1/5 157/1/5 156/1/5
f 162/1/5 157/1/5 161/1/5
f 163/1/5 159/1/5 158/1/5
f 164/2/5 160/2/5 159/2/5
f 164/1/5 159/1/5 163/1/5
f 165/2/5 162/2/5 161/2/5
f 165/2/5 161/2/5 155/2/5
f 166/2/5 162/2/5 165/2/5
f 167/2/5 164/2/5 163/2/5
f 168/2/5 160/2/5 164/2/5
f 168/2/5 164/2/5 167/2/5
f 171/2/5 170/2/5 169/2/5
f 172/2/5 170/2/5 171/2/5
f 175/1/5 172/1/5 171/1/5
f 176/1/5 172/1/5 175/1/5
f 179/2/5 174/2/5 173/2/5
f 180/1/5 176/1/5 175/1/5
f 180/2/5 174/2/5 179/2/5
f 180/1/5 175/1/5 174/1/5
f 180/1/5 177/1/5 176/1/5
f 181/1/5 177/1/5 180/1/5
f 182/1/5 177/1/5 181/1/5
f 183/2/5 178/2/5 177/2/5
f 183/1/5 177/1/5 182/1/5
f 184/2/5 178/2/5 183/2/5
f 185/1/5 182/1/5 181/1/5
f 186/1/5 182/1/5 185/1/5
f 187/2/5 186/2/5 185/2/5
f 188/2/5 186/2/5 187/2/5
f 189/1/6 190/1/6 191/1/6
f 191/1/6 190/1/6 192/1/6
f 193/1/6 194/1/6 195/1/6
f 195/1/6 194/1/6 196/1/6
f 197/1/6 198/1/6 199/1/6
f 199/1/6 198/1/6 200/1/6
f 201/1/6 202/1/6 203/1/6
f 203/1/6 202/1/6 204/1/6
f 204/1/6 202/1/6 205/1/6
f 206/1/6 207/1/6 209/1/6
f 207/1/6 208/1/6 209/1/6
f 209/1/6 208/1/6 210/1/6
f 211/1/6 212/1/6 213/1/6
f 213/1/6 212/1/6 214/1/6
f 215/1/6 216/1/6 217/1/6
f 217/1/6 216/1/6 218/1/6
f 219/1/6 220/1/6 221/1/6
f 221/1/6 220/1/6 222/1/6
