# MagicaVoxel @ Ephtracy

# group
g apt:oven

# material
mtllib default-material.mtl
usemtl palette

# normals
vn -1 0 0
vn 1 0 0
vn 0 0 1
vn 0 0 -1
vn 0 -1 0
vn 0 1 0

# texcoords
vt 0.00195312 0.5
vt 0.197266 0.5
vt 0.958984 0.5
vt 0.986328 0.5
vt 0.990234 0.5

# verts
v -5.5 0 7
v -5.5 0 -4
v -5.5 10 -4
v -5.5 10 -5
v -5.5 11 7
v -5.5 11 6
v -5.5 12 6
v -5.5 12 -4
v -5.5 12 -5
v -5.5 13 7
v -5.5 13 6
v -4.5 0 -4
v -4.5 0 -5
v -4.5 3 -4
v -4.5 3 -5
v -4.5 4 -4
v -4.5 4 -5
v -4.5 9 -5
v -4.5 9 -7
v -4.5 10 -4
v -4.5 10 -5
v -4.5 10 -7
v -2.5 10 -4
v -2.5 10 -5
v -2.5 12 -4
v -2.5 12 -5
v 0.5 10 -4
v 0.5 10 -5
v 0.5 12 -4
v 0.5 12 -5
v 3.5 9 -5
v 3.5 9 -6
v 3.5 10 -4
v 3.5 10 -5
v 3.5 10 -6
v 3.5 12 -4
v 3.5 12 -5
v -3.5 9 -5
v -3.5 9 -6
v -3.5 10 -4
v -3.5 10 -5
v -3.5 10 -6
v -3.5 12 -4
v -3.5 12 -5
v -0.5 10 -4
v -0.5 10 -5
v -0.5 12 -4
v -0.5 12 -5
v 2.5 10 -4
v 2.5 10 -5
v 2.5 12 -4
v 2.5 12 -5
v 4.5 0 -4
v 4.5 0 -5
v 4.5 3 -4
v 4.5 3 -5
v 4.5 4 -4
v 4.5 4 -5
v 4.5 9 -5
v 4.5 9 -7
v 4.5 10 -4
v 4.5 10 -5
v 4.5 10 -7
v 5.5 0 7
v 5.5 0 -4
v 5.5 10 -4
v 5.5 10 -5
v 5.5 12 7
v 5.5 12 6
v 5.5 12 -4
v 5.5 12 -5
v 5.5 13 7
v 5.5 13 6
v -5.5 0 7
v -5.5 11 7
v -5.5 13 7
v 4.5 11 7
v 4.5 12 7
v 5.5 0 7
v 5.5 12 7
v 5.5 13 7
v -3.5 9 -6
v -3.5 10 -6
v 3.5 9 -6
v 3.5 10 -6
v -5.5 12 6
v -5.5 13 6
v -4.5 12 6
v -3.5 12 6
v -1.5 12 6
v 1.5 12 6
v 3.5 12 6
v 4.5 12 6
v 5.5 12 6
v 5.5 13 6
v -5.5 0 -4
v -5.5 10 -4
v -4.5 0 -4
v -4.5 3 -4
v -4.5 4 -4
v -4.5 10 -4
v -3.5 3 -4
v -3.5 4 -4
v -3.5 10 -4
v -3.5 12 -4
v -2.5 10 -4
v -2.5 12 -4
v -0.5 10 -4
v -0.5 12 -4
v 0.5 10 -4
v 0.5 12 -4
v 2.5 10 -4
v 2.5 12 -4
v 3.5 10 -4
v 3.5 12 -4
v 4.5 0 -4
v 4.5 3 -4
v 4.5 4 -4
v 4.5 10 -4
v 5.5 0 -4
v 5.5 10 -4
v -5.5 10 -5
v -5.5 12 -5
v -4.5 0 -5
v -4.5 3 -5
v -4.5 4 -5
v -4.5 9 -5
v -4.5 10 -5
v -3.5 9 -5
v -3.5 10 -5
v -3.5 12 -5
v -2.5 10 -5
v -2.5 12 -5
v -0.5 10 -5
v -0.5 12 -5
v 0.5 10 -5
v 0.5 12 -5
v 2.5 10 -5
v 2.5 12 -5
v 3.5 9 -5
v 3.5 10 -5
v 3.5 12 -5
v 4.5 0 -5
v 4.5 3 -5
v 4.5 4 -5
v 4.5 9 -5
v 4.5 10 -5
v 5.5 10 -5
v 5.5 12 -5
v -4.5 9 -7
v -4.5 10 -7
v 4.5 9 -7
v 4.5 10 -7
v -5.5 0 7
v 5.5 0 7
v -4.5 0 6
v 4.5 0 6
v -4.5 0 -3
v 4.5 0 -3
v -5.5 0 -4
v -4.5 0 -4
v 4.5 0 -4
v 5.5 0 -4
v -4.5 0 -5
v 4.5 0 -5
v -4.5 4 -4
v -3.5 4 -4
v 4.5 4 -4
v -4.5 4 -5
v 4.5 4 -5
v -4.5 9 -5
v -3.5 9 -5
v 3.5 9 -5
v 4.5 9 -5
v -3.5 9 -6
v 3.5 9 -6
v -4.5 9 -7
v 4.5 9 -7
v -5.5 10 -4
v -4.5 10 -4
v 4.5 10 -4
v 5.5 10 -4
v -5.5 10 -5
v -4.5 10 -5
v 4.5 10 -5
v 5.5 10 -5
v -4.5 3 -4
v -3.5 3 -4
v 4.5 3 -4
v -4.5 3 -5
v 4.5 3 -5
v -3.5 10 -4
v -2.5 10 -4
v -0.5 10 -4
v 0.5 10 -4
v 2.5 10 -4
v 3.5 10 -4
v -4.5 10 -5
v -3.5 10 -5
v -2.5 10 -5
v -0.5 10 -5
v 0.5 10 -5
v 2.5 10 -5
v 3.5 10 -5
v 4.5 10 -5
v -3.5 10 -6
v 3.5 10 -6
v -4.5 10 -7
v 4.5 10 -7
v -5.5 12 6
v -4.5 12 6
v -3.5 12 6
v -1.5 12 6
v 1.5 12 6
v 3.5 12 6
v 4.5 12 6
v 5.5 12 6
v -4.5 12 5
v -3.5 12 5
v -1.5 12 5
v -0.5 12 5
v 0.5 12 5
v 1.5 12 5
v 3.5 12 5
v 4.5 12 5
v -4.5 12 3
v -3.5 12 3
v -1.5 12 3
v -0.5 12 3
v 0.5 12 3
v 1.5 12 3
v 3.5 12 3
v 4.5 12 3
v -3.5 12 2
v -1.5 12 2
v 1.5 12 2
v 3.5 12 2
v -3.5 12 1
v -1.5 12 1
v 1.5 12 1
v 3.5 12 1
v -4.5 12 -0
v -3.5 12 -0
v -1.5 12 -0
v -0.5 12 -0
v 0.5 12 -0
v 1.5 12 -0
v 3.5 12 -0
v 4.5 12 -0
v -4.5 12 -2
v -3.5 12 -2
v -1.5 12 -2
v -0.5 12 -2
v 0.5 12 -2
v 1.5 12 -2
v 3.5 12 -2
v 4.5 12 -2
v -4.5 12 -3
v -3.5 12 -3
v -1.5 12 -3
v 1.5 12 -3
v 3.5 12 -3
v 4.5 12 -3
v -5.5 12 -4
v -3.5 12 -4
v -2.5 12 -4
v -0.5 12 -4
v 0.5 12 -4
v 2.5 12 -4
v 3.5 12 -4
v 5.5 12 -4
v -5.5 12 -5
v -3.5 12 -5
v -2.5 12 -5
v -0.5 12 -5
v 0.5 12 -5
v 2.5 12 -5
v 3.5 12 -5
v 5.5 12 -5
v -5.5 13 7
v 5.5 13 7
v -5.5 13 6
v 5.5 13 6

# faces
f 3/1/1 2/1/1 1/1/1
f 5/1/1 3/1/1 1/1/1
f 6/1/1 3/1/1 5/1/1
f 7/3/1 6/3/1 5/3/1
f 7/1/1 3/1/1 6/1/1
f 8/4/1 4/4/1 3/4/1
f 8/1/1 3/1/1 7/1/1
f 9/4/1 4/4/1 8/4/1
f 10/3/1 7/3/1 5/3/1
f 11/3/1 7/3/1 10/3/1
f 14/3/1 13/3/1 12/3/1
f 15/3/1 13/3/1 14/3/1
f 18/3/1 17/3/1 16/3/1
f 20/3/1 18/3/1 16/3/1
f 20/3/1 19/3/1 18/3/1
f 21/3/1 19/3/1 20/3/1
f 22/3/1 19/3/1 21/3/1
f 25/4/1 24/4/1 23/4/1
f 26/4/1 24/4/1 25/4/1
f 29/4/1 28/4/1 27/4/1
f 30/4/1 28/4/1 29/4/1
f 34/3/1 32/3/1 31/3/1
f 35/3/1 32/3/1 34/3/1
f 36/4/1 34/4/1 33/4/1
f 37/4/1 34/4/1 36/4/1
f 38/3/2 39/3/2 41/3/2
f 41/3/2 39/3/2 42/3/2
f 40/4/2 41/4/2 43/4/2
f 43/4/2 41/4/2 44/4/2
f 45/4/2 46/4/2 47/4/2
f 47/4/2 46/4/2 48/4/2
f 49/4/2 50/4/2 51/4/2
f 51/4/2 50/4/2 52/4/2
f 53/3/2 54/3/2 55/3/2
f 55/3/2 54/3/2 56/3/2
f 57/3/2 58/3/2 59/3/2
f 57/3/2 59/3/2 61/3/2
f 59/3/2 60/3/2 61/3/2
f 61/3/2 60/3/2 62/3/2
f 62/3/2 60/3/2 63/3/2
f 64/1/2 65/1/2 66/1/2
f 64/1/2 66/1/2 68/1/2
f 68/1/2 66/1/2 69/1/2
f 66/4/2 67/4/2 70/4/2
f 69/1/2 66/1/2 70/1/2
f 70/4/2 67/4/2 71/4/2
f 68/3/2 69/3/2 72/3/2
f 72/3/2 69/3/2 73/3/2
f 77/1/3 75/1/3 74/1/3
f 77/3/3 76/3/3 75/3/3
f 78/3/3 76/3/3 77/3/3
f 79/1/3 77/1/3 74/1/3
f 79/1/3 78/1/3 77/1/3
f 80/3/3 76/3/3 78/3/3
f 80/1/3 78/1/3 79/1/3
f 81/3/3 76/3/3 80/3/3
f 84/3/3 83/3/3 82/3/3
f 85/3/3 83/3/3 84/3/3
f 86/3/4 87/3/4 88/3/4
f 88/3/4 87/3/4 89/3/4
f 89/3/4 87/3/4 90/3/4
f 90/3/4 87/3/4 91/3/4
f 91/3/4 87/3/4 92/3/4
f 92/3/4 87/3/4 93/3/4
f 93/3/4 87/3/4 94/3/4
f 94/3/4 87/3/4 95/3/4
f 96/1/4 97/1/4 98/1/4
f 98/1/4 97/1/4 99/1/4
f 99/1/4 97/1/4 100/1/4
f 100/1/4 97/1/4 101/1/4
f 99/1/4 100/1/4 102/1/4
f 102/1/4 100/1/4 103/1/4
f 104/1/4 105/1/4 106/1/4
f 106/1/4 105/1/4 107/1/4
f 108/1/4 109/1/4 110/1/4
f 110/1/4 109/1/4 111/1/4
f 112/1/4 113/1/4 114/1/4
f 114/1/4 113/1/4 115/1/4
f 102/3/4 103/3/4 117/3/4
f 117/3/4 103/3/4 118/3/4
f 116/1/4 117/1/4 120/1/4
f 118/1/4 119/1/4 120/1/4
f 117/1/4 118/1/4 120/1/4
f 120/1/4 119/1/4 121/1/4
f 122/4/4 123/4/4 128/4/4
f 126/3/4 127/3/4 129/3/4
f 128/4/4 123/4/4 130/4/4
f 130/4/4 123/4/4 131/4/4
f 129/3/4 130/3/4 132/3/4
f 129/3/4 132/3/4 134/3/4
f 132/4/4 133/4/4 134/4/4
f 134/4/4 133/4/4 135/4/4
f 129/3/4 134/3/4 136/3/4
f 129/3/4 136/3/4 138/3/4
f 136/4/4 137/4/4 138/4/4
f 138/4/4 137/4/4 139/4/4
f 126/3/4 129/3/4 140/3/4
f 129/3/4 138/3/4 140/3/4
f 140/3/4 138/3/4 141/3/4
f 124/3/4 125/3/4 143/3/4
f 143/3/4 125/3/4 144/3/4
f 126/3/4 140/3/4 145/3/4
f 145/3/4 140/3/4 146/3/4
f 141/4/4 142/4/4 147/4/4
f 147/4/4 142/4/4 148/4/4
f 148/4/4 142/4/4 149/4/4
f 150/3/4 151/3/4 152/3/4
f 152/3/4 151/3/4 153/3/4
f 156/1/5 155/1/5 154/1/5
f 157/1/5 155/1/5 156/1/5
f 158/1/5 156/1/5 154/1/5
f 158/2/5 157/2/5 156/2/5
f 159/1/5 155/1/5 157/1/5
f 159/2/5 157/2/5 158/2/5
f 160/1/5 158/1/5 154/1/5
f 160/1/5 159/1/5 158/1/5
f 161/1/5 159/1/5 160/1/5
f 162/1/5 155/1/5 159/1/5
f 162/1/5 159/1/5 161/1/5
f 163/1/5 155/1/5 162/1/5
f 164/3/5 162/3/5 161/3/5
f 165/3/5 162/3/5 164/3/5
f 169/3/5 167/3/5 166/3/5
f 169/3/5 168/3/5 167/3/5
f 170/3/5 168/3/5 169/3/5
f 175/3/5 172/3/5 171/3/5
f 176/3/5 174/3/5 173/3/5
f 177/3/5 175/3/5 171/3/5
f 177/3/5 176/3/5 175/3/5
f 178/3/5 174/3/5 176/3/5
f 178/3/5 176/3/5 177/3/5
f 183/4/5 180/4/5 179/4/5
f 184/4/5 180/4/5 183/4/5
f 185/4/5 182/4/5 181/4/5
f 186/4/5 182/4/5 185/4/5
f 187/3/6 188/3/6 190/3/6
f 188/3/6 189/3/6 190/3/6
f 190/3/6 189/3/6 191/3/6
f 192/3/6 193/3/6 199/3/6
f 199/3/6 193/3/6 200/3/6
f 194/3/6 195/3/6 201/3/6
f 201/3/6 195/3/6 202/3/6
f 196/3/6 197/3/6 203/3/6
f 203/3/6 197/3/6 204/3/6
f 198/3/6 199/3/6 206/3/6
f 204/3/6 205/3/6 207/3/6
f 198/3/6 206/3/6 208/3/6
f 206/3/6 207/3/6 208/3/6
f 207/3/6 205/3/6 209/3/6
f 208/3/6 207/3/6 209/3/6
f 210/1/6 211/1/6 218/1/6
f 211/5/6 212/5/6 218/5/6
f 212/4/6 213/4/6 219/4/6
f 218/5/6 212/5/6 219/5/6
f 213/5/6 214/5/6 220/5/6
f 219/4/6 213/4/6 220/4/6
f 220/5/6 214/5/6 221/5/6
f 221/5/6 214/5/6 222/5/6
f 214/4/6 215/4/6 223/4/6
f 222/5/6 214/5/6 223/5/6
f 215/5/6 216/5/6 224/5/6
f 223/4/6 215/4/6 224/4/6
f 216/1/6 217/1/6 225/1/6
f 224/5/6 216/5/6 225/5/6
f 210/1/6 218/1/6 226/1/6
f 218/4/6 219/4/6 226/4/6
f 219/4/6 220/4/6 226/4/6
f 220/4/6 221/4/6 226/4/6
f 226/4/6 221/4/6 227/4/6
f 227/4/6 221/4/6 228/4/6
f 221/5/6 222/5/6 229/5/6
f 228/4/6 221/4/6 229/4/6
f 223/4/6 224/4/6 230/4/6
f 229/5/6 222/5/6 230/5/6
f 222/4/6 223/4/6 230/4/6
f 224/4/6 225/4/6 230/4/6
f 230/4/6 225/4/6 231/4/6
f 231/4/6 225/4/6 232/4/6
f 225/1/6 217/1/6 233/1/6
f 232/4/6 225/4/6 233/4/6
f 226/5/6 227/5/6 234/5/6
f 227/4/6 228/4/6 234/4/6
f 228/5/6 229/5/6 235/5/6
f 234/4/6 228/4/6 235/4/6
f 229/5/6 230/5/6 235/5/6
f 230/5/6 231/5/6 235/5/6
f 231/4/6 232/4/6 236/4/6
f 235/5/6 231/5/6 236/5/6
f 232/5/6 233/5/6 237/5/6
f 236/4/6 232/4/6 237/4/6
f 226/5/6 234/5/6 238/5/6
f 234/5/6 235/5/6 238/5/6
f 236/5/6 237/5/6 238/5/6
f 235/5/6 236/5/6 238/5/6
f 238/5/6 237/5/6 239/5/6
f 239/5/6 237/5/6 240/5/6
f 237/5/6 233/5/6 241/5/6
f 240/5/6 237/5/6 241/5/6
f 210/1/6 226/1/6 242/1/6
f 226/5/6 238/5/6 242/5/6
f 238/4/6 239/4/6 243/4/6
f 242/5/6 238/5/6 243/5/6
f 239/5/6 240/5/6 244/5/6
f 243/4/6 239/4/6 244/4/6
f 244/5/6 240/5/6 245/5/6
f 245/5/6 240/5/6 246/5/6
f 240/4/6 241/4/6 247/4/6
f 246/5/6 240/5/6 247/5/6
f 241/5/6 233/5/6 248/5/6
f 247/4/6 241/4/6 248/4/6
f 233/1/6 217/1/6 249/1/6
f 248/5/6 233/5/6 249/5/6
f 242/4/6 243/4/6 250/4/6
f 210/1/6 242/1/6 250/1/6
f 243/4/6 244/4/6 250/4/6
f 244/4/6 245/4/6 250/4/6
f 250/4/6 245/4/6 251/4/6
f 251/4/6 245/4/6 252/4/6
f 245/5/6 246/5/6 253/5/6
f 252/4/6 245/4/6 253/4/6
f 247/4/6 248/4/6 254/4/6
f 253/5/6 246/5/6 254/5/6
f 246/4/6 247/4/6 254/4/6
f 248/4/6 249/4/6 254/4/6
f 254/4/6 249/4/6 255/4/6
f 255/4/6 249/4/6 256/4/6
f 249/1/6 217/1/6 257/1/6
f 256/4/6 249/4/6 257/4/6
f 250/5/6 251/5/6 258/5/6
f 210/1/6 250/1/6 258/1/6
f 251/4/6 252/4/6 259/4/6
f 258/5/6 251/5/6 259/5/6
f 252/5/6 253/5/6 260/5/6
f 259/4/6 252/4/6 260/4/6
f 253/5/6 254/5/6 260/5/6
f 254/5/6 255/5/6 260/5/6
f 255/4/6 256/4/6 261/4/6
f 260/5/6 255/5/6 261/5/6
f 256/5/6 257/5/6 262/5/6
f 261/4/6 256/4/6 262/4/6
f 257/1/6 217/1/6 263/1/6
f 262/5/6 257/5/6 263/5/6
f 259/1/6 260/1/6 264/1/6
f 258/1/6 259/1/6 264/1/6
f 262/1/6 263/1/6 264/1/6
f 260/1/6 261/1/6 264/1/6
f 210/1/6 258/1/6 264/1/6
f 261/1/6 262/1/6 264/1/6
f 264/1/6 263/1/6 265/1/6
f 265/1/6 263/1/6 266/1/6
f 266/1/6 263/1/6 267/1/6
f 267/1/6 263/1/6 268/1/6
f 268/1/6 263/1/6 269/1/6
f 269/1/6 263/1/6 270/1/6
f 263/1/6 217/1/6 271/1/6
f 270/1/6 263/1/6 271/1/6
f 264/4/6 265/4/6 272/4/6
f 272/4/6 265/4/6 273/4/6
f 266/4/6 267/4/6 274/4/6
f 274/4/6 267/4/6 275/4/6
f 268/4/6 269/4/6 276/4/6
f 276/4/6 269/4/6 277/4/6
f 270/4/6 271/4/6 278/4/6
f 278/4/6 271/4/6 279/4/6
f 280/3/6 281/3/6 282/3/6
f 282/3/6 281/3/6 283/3/6
