# MagicaVoxel @ Ephtracy

# group
g apt:microwave

# material
mtllib default-material.mtl
usemtl palette

# normals
vn -1 0 0
vn 1 0 0
vn 0 0 1
vn 0 0 -1
vn 0 -1 0
vn 0 1 0

# texcoords
vt 0.978516 0.5
vt 0.982422 0.5
vt 0.990234 0.5
vt 0.994141 0.5

# verts
v -4 0 5
v -4 0 -5
v -4 1 4
v -4 1 2
v -4 1 1
v -4 1 -4
v -4 4 4
v -4 4 2
v -4 5 4
v -4 5 2
v -4 5 1
v -4 5 -4
v -4 6 5
v -4 6 -5
v 4 0 5
v 4 0 -5
v 4 6 5
v 4 6 -5
v -4 0 5
v -4 6 5
v 4 0 5
v 4 6 5
v -4 0 -5
v -4 6 -5
v 4 0 -5
v 4 6 -5
v -4 0 5
v 4 0 5
v -4 0 -5
v 4 0 -5
v -4 6 5
v 4 6 5
v -4 6 -5
v 4 6 -5

# faces
f 3/2/1 2/2/1 1/2/1
f 4/2/1 2/2/1 3/2/1
f 5/2/1 2/2/1 4/2/1
f 6/2/1 2/2/1 5/2/1
f 7/2/1 3/2/1 1/2/1
f 7/1/1 4/1/1 3/1/1
f 8/2/1 5/2/1 4/2/1
f 8/1/1 4/1/1 7/1/1
f 9/2/1 7/2/1 1/2/1
f 9/4/1 8/4/1 7/4/1
f 10/2/1 5/2/1 8/2/1
f 10/4/1 8/4/1 9/4/1
f 11/3/1 6/3/1 5/3/1
f 11/2/1 5/2/1 10/2/1
f 12/2/1 2/2/1 6/2/1
f 12/3/1 6/3/1 11/3/1
f 13/2/1 11/2/1 10/2/1
f 13/2/1 10/2/1 9/2/1
f 13/2/1 12/2/1 11/2/1
f 13/2/1 9/2/1 1/2/1
f 14/2/1 2/2/1 12/2/1
f 14/2/1 12/2/1 13/2/1
f 15/2/2 16/2/2 17/2/2
f 17/2/2 16/2/2 18/2/2
f 21/2/3 20/2/3 19/2/3
f 22/2/3 20/2/3 21/2/3
f 23/2/4 24/2/4 25/2/4
f 25/2/4 24/2/4 26/2/4
f 29/2/5 28/2/5 27/2/5
f 30/2/5 28/2/5 29/2/5
f 31/2/6 32/2/6 33/2/6
f 33/2/6 32/2/6 34/2/6
