# MagicaVoxel @ Ephtracy

# group
g building:edge

# material
mtllib default-material.mtl
usemtl palette

# normals
vn -1 0 0
vn 1 0 0
vn 0 0 1
vn 0 0 -1
vn 0 -1 0
vn 0 1 0

# texcoords
vt 0.958984 0.5
vt 0.978516 0.5

# verts
v -63 0 63
v -63 0 -63
v -63 1 63
v -63 1 -63
v 57 0 -62
v 57 0 -63
v 57 1 63
v 57 1 -62
v 57 40 63
v 57 40 -63
v 56 0 -62
v 56 0 -63
v 56 1 -62
v 56 1 -63
v 63 0 63
v 63 0 -63
v 63 40 63
v 63 40 -63
v -63 0 63
v -63 1 63
v 57 0 63
v 57 1 63
v 57 40 63
v 63 0 63
v 63 40 63
v 56 0 -62
v 56 1 -62
v 57 0 -62
v 57 1 -62
v -63 0 -63
v -63 1 -63
v 56 0 -63
v 56 1 -63
v 57 0 -63
v 57 40 -63
v 63 0 -63
v 63 40 -63
v -63 0 63
v 57 0 63
v 63 0 63
v 56 0 -62
v 57 0 -62
v -63 0 -63
v 56 0 -63
v 57 0 -63
v 63 0 -63
v -63 1 63
v 57 1 63
v 56 1 -62
v 57 1 -62
v -63 1 -63
v 56 1 -63
v 57 40 63
v 63 40 63
v 57 40 -63
v 63 40 -63

# faces
f 3/2/1 2/2/1 1/2/1
f 4/2/1 2/2/1 3/2/1
f 8/1/1 6/1/1 5/1/1
f 9/1/1 8/1/1 7/1/1
f 10/1/1 6/1/1 8/1/1
f 10/1/1 8/1/1 9/1/1
f 11/2/2 12/2/2 13/2/2
f 13/2/2 12/2/2 14/2/2
f 15/1/2 16/1/2 17/1/2
f 17/1/2 16/1/2 18/1/2
f 21/2/3 20/2/3 19/2/3
f 22/2/3 20/2/3 21/2/3
f 24/1/3 22/1/3 21/1/3
f 24/1/3 23/1/3 22/1/3
f 25/1/3 23/1/3 24/1/3
f 26/2/4 27/2/4 28/2/4
f 28/2/4 27/2/4 29/2/4
f 30/2/4 31/2/4 32/2/4
f 32/2/4 31/2/4 33/2/4
f 34/1/4 35/1/4 36/1/4
f 36/1/4 35/1/4 37/1/4
f 41/2/5 39/2/5 38/2/5
f 42/1/5 40/1/5 39/1/5
f 42/2/5 39/2/5 41/2/5
f 43/2/5 41/2/5 38/2/5
f 44/2/5 41/2/5 43/2/5
f 45/1/5 40/1/5 42/1/5
f 46/1/5 40/1/5 45/1/5
f 47/2/6 48/2/6 49/2/6
f 49/2/6 48/2/6 50/2/6
f 47/2/6 49/2/6 51/2/6
f 51/2/6 49/2/6 52/2/6
f 53/1/6 54/1/6 55/1/6
f 55/1/6 54/1/6 56/1/6
