# MagicaVoxel @ Ephtracy

# group
g building-a:door

# material
mtllib default-material.mtl
usemtl palette

# normals
vn -1 0 0
vn 1 0 0
vn 0 0 1
vn 0 0 -1
vn 0 -1 0
vn 0 1 0

# texcoords
vt 0.677734 0.5
vt 0.755859 0.5
vt 0.791016 0.5
vt 0.978516 0.5

# verts
v -63 0 63
v -63 0 -63
v -63 1 63
v -63 1 -63
v 56 1 63
v 56 1 8
v 56 1 -10
v 56 1 -63
v 56 32 8
v 56 32 -10
v 56 39 63
v 56 39 -63
v 56 40 63
v 56 40 -63
v 62 35 63
v 62 35 -63
v 62 36 63
v 62 36 -63
v 62 37 63
v 62 37 -63
v 62 38 63
v 62 38 -63
v 63 0 63
v 63 0 -63
v 63 1 8
v 63 1 -10
v 63 32 8
v 63 32 -10
v 63 35 63
v 63 35 -63
v 63 36 63
v 63 36 -63
v 63 37 63
v 63 37 -63
v 63 38 63
v 63 38 -63
v 63 39 63
v 63 39 -63
v 63 40 63
v 63 40 -63
v -63 0 63
v -63 1 63
v 56 1 63
v 56 39 63
v 56 40 63
v 57 0 63
v 57 1 63
v 61 35 63
v 61 36 63
v 61 37 63
v 61 38 63
v 62 35 63
v 62 36 63
v 62 37 63
v 62 38 63
v 63 0 63
v 63 35 63
v 63 36 63
v 63 37 63
v 63 38 63
v 63 39 63
v 63 40 63
v 56 1 -10
v 56 32 -10
v 63 1 -10
v 63 32 -10
v 56 1 8
v 56 32 8
v 63 1 8
v 63 32 8
v -63 0 -63
v -63 1 -63
v 56 0 -63
v 56 1 -63
v 56 39 -63
v 56 40 -63
v 61 35 -63
v 61 36 -63
v 61 37 -63
v 61 38 -63
v 62 35 -63
v 62 36 -63
v 62 37 -63
v 62 38 -63
v 63 0 -63
v 63 35 -63
v 63 36 -63
v 63 37 -63
v 63 38 -63
v 63 39 -63
v 63 40 -63
v -63 0 63
v 57 0 63
v 63 0 63
v 56 0 8
v 57 0 8
v 56 0 -10
v 57 0 -10
v 56 0 -62
v 57 0 -62
v -63 0 -63
v 56 0 -63
v 63 0 -63
v 56 32 8
v 63 32 8
v 56 32 -10
v 63 32 -10
v 62 36 63
v 63 36 63
v 62 36 -63
v 63 36 -63
v 62 38 63
v 63 38 63
v 62 38 -63
v 63 38 -63
v -63 1 63
v 56 1 63
v 56 1 8
v 63 1 8
v 56 1 -10
v 63 1 -10
v -63 1 -63
v 56 1 -63
v 62 35 63
v 63 35 63
v 62 35 -63
v 63 35 -63
v 62 37 63
v 63 37 63
v 62 37 -63
v 63 37 -63
v 56 40 63
v 63 40 63
v 56 40 -63
v 63 40 -63

# faces
f 3/4/1 2/4/1 1/4/1
f 4/4/1 2/4/1 3/4/1
f 9/1/1 6/1/1 5/1/1
f 10/1/1 8/1/1 7/1/1
f 11/1/1 9/1/1 5/1/1
f 11/1/1 10/1/1 9/1/1
f 12/1/1 8/1/1 10/1/1
f 12/1/1 10/1/1 11/1/1
f 13/3/1 12/3/1 11/3/1
f 14/3/1 12/3/1 13/3/1
f 15/2/2 16/2/2 17/2/2
f 17/2/2 16/2/2 18/2/2
f 19/2/2 20/2/2 21/2/2
f 21/2/2 20/2/2 22/2/2
f 23/1/2 24/1/2 25/1/2
f 25/1/2 24/1/2 26/1/2
f 23/1/2 25/1/2 27/1/2
f 26/1/2 24/1/2 28/1/2
f 23/1/2 27/1/2 29/1/2
f 27/1/2 28/1/2 29/1/2
f 28/1/2 24/1/2 30/1/2
f 29/1/2 28/1/2 30/1/2
f 31/3/2 32/3/2 33/3/2
f 33/3/2 32/3/2 34/3/2
f 35/1/2 36/1/2 37/1/2
f 37/1/2 36/1/2 38/1/2
f 37/3/2 38/3/2 39/3/2
f 39/3/2 38/3/2 40/3/2
f 43/4/3 42/4/3 41/4/3
f 46/4/3 43/4/3 41/4/3
f 47/1/3 44/1/3 43/1/3
f 47/4/3 43/4/3 46/4/3
f 48/1/3 47/1/3 46/1/3
f 48/1/3 44/1/3 47/1/3
f 49/1/3 44/1/3 48/1/3
f 50/1/3 44/1/3 49/1/3
f 51/1/3 44/1/3 50/1/3
f 52/1/3 48/1/3 46/1/3
f 52/2/3 49/2/3 48/2/3
f 53/1/3 50/1/3 49/1/3
f 53/2/3 49/2/3 52/2/3
f 54/2/3 51/2/3 50/2/3
f 54/1/3 50/1/3 53/1/3
f 55/1/3 44/1/3 51/1/3
f 55/2/3 51/2/3 54/2/3
f 56/1/3 52/1/3 46/1/3
f 57/1/3 52/1/3 56/1/3
f 58/3/3 54/3/3 53/3/3
f 59/3/3 54/3/3 58/3/3
f 60/1/3 44/1/3 55/1/3
f 61/3/3 45/3/3 44/3/3
f 61/1/3 44/1/3 60/1/3
f 62/3/3 45/3/3 61/3/3
f 65/1/3 64/1/3 63/1/3
f 66/1/3 64/1/3 65/1/3
f 67/1/4 68/1/4 69/1/4
f 69/1/4 68/1/4 70/1/4
f 71/4/4 72/4/4 73/4/4
f 73/4/4 72/4/4 74/4/4
f 73/1/4 74/1/4 77/1/4
f 74/1/4 75/1/4 77/1/4
f 77/1/4 75/1/4 78/1/4
f 78/1/4 75/1/4 79/1/4
f 79/1/4 75/1/4 80/1/4
f 73/1/4 77/1/4 81/1/4
f 77/2/4 78/2/4 81/2/4
f 78/1/4 79/1/4 82/1/4
f 81/2/4 78/2/4 82/2/4
f 79/2/4 80/2/4 83/2/4
f 82/1/4 79/1/4 83/1/4
f 80/1/4 75/1/4 84/1/4
f 83/2/4 80/2/4 84/2/4
f 73/1/4 81/1/4 85/1/4
f 85/1/4 81/1/4 86/1/4
f 82/3/4 83/3/4 87/3/4
f 87/3/4 83/3/4 88/3/4
f 84/1/4 75/1/4 89/1/4
f 75/3/4 76/3/4 90/3/4
f 89/1/4 75/1/4 90/1/4
f 90/3/4 76/3/4 91/3/4
f 95/4/5 93/4/5 92/4/5
f 96/1/5 94/1/5 93/1/5
f 96/4/5 93/4/5 95/4/5
f 97/4/5 95/4/5 92/4/5
f 97/1/5 96/1/5 95/1/5
f 98/1/5 94/1/5 96/1/5
f 98/1/5 96/1/5 97/1/5
f 99/4/5 97/4/5 92/4/5
f 99/4/5 98/4/5 97/4/5
f 100/1/5 94/1/5 98/1/5
f 100/4/5 98/4/5 99/4/5
f 101/4/5 99/4/5 92/4/5
f 102/1/5 100/1/5 99/1/5
f 102/4/5 99/4/5 101/4/5
f 103/1/5 94/1/5 100/1/5
f 103/1/5 100/1/5 102/1/5
f 106/1/5 105/1/5 104/1/5
f 107/1/5 105/1/5 106/1/5
f 110/3/5 109/3/5 108/3/5
f 111/3/5 109/3/5 110/3/5
f 114/1/5 113/1/5 112/1/5
f 115/1/5 113/1/5 114/1/5
f 116/4/6 117/4/6 118/4/6
f 116/4/6 118/4/6 120/4/6
f 118/1/6 119/1/6 120/1/6
f 120/1/6 119/1/6 121/1/6
f 116/4/6 120/4/6 122/4/6
f 122/4/6 120/4/6 123/4/6
f 124/1/6 125/1/6 126/1/6
f 126/1/6 125/1/6 127/1/6
f 128/3/6 129/3/6 130/3/6
f 130/3/6 129/3/6 131/3/6
f 132/3/6 133/3/6 134/3/6
f 134/3/6 133/3/6 135/3/6
