# MagicaVoxel @ Ephtracy

# group
g building-a:corner

# material
mtllib default-material.mtl
usemtl palette

# normals
vn -1 0 0
vn 1 0 0
vn 0 0 1
vn 0 0 -1
vn 0 -1 0
vn 0 1 0

# texcoords
vt 0.677734 0.5
vt 0.755859 0.5
vt 0.791016 0.5
vt 0.978516 0.5

# verts
v -63 0 63
v -63 0 56
v -63 0 55
v -63 0 -63
v -63 1 55
v -63 1 -63
v -63 35 63
v -63 35 62
v -63 35 61
v -63 36 63
v -63 36 62
v -63 36 61
v -63 37 63
v -63 37 62
v -63 37 61
v -63 38 63
v -63 38 62
v -63 38 61
v -63 39 63
v -63 39 56
v -63 40 63
v -63 40 56
v -62 0 56
v -62 0 55
v -62 1 56
v -62 1 55
v 56 1 56
v 56 1 -63
v 56 39 56
v 56 39 -63
v 56 40 56
v 56 40 -63
v 62 35 62
v 62 35 -63
v 62 36 62
v 62 36 -63
v 62 37 62
v 62 37 -63
v 62 38 62
v 62 38 -63
v 63 0 63
v 63 0 -63
v 63 35 63
v 63 35 -63
v 63 36 63
v 63 36 -63
v 63 37 63
v 63 37 -63
v 63 38 63
v 63 38 -63
v 63 39 63
v 63 39 -63
v 63 40 63
v 63 40 -63
v -63 0 63
v -63 35 63
v -63 36 63
v -63 37 63
v -63 38 63
v -63 39 63
v -63 40 63
v 63 0 63
v 63 35 63
v 63 36 63
v 63 37 63
v 63 38 63
v 63 39 63
v 63 40 63
v -63 35 62
v -63 36 62
v -63 37 62
v -63 38 62
v 62 35 62
v 62 36 62
v 62 37 62
v 62 38 62
v -63 0 55
v -63 1 55
v -62 0 55
v -62 1 55
v -63 0 56
v -63 39 56
v -63 40 56
v -62 0 56
v -62 1 56
v 56 1 56
v 56 39 56
v 56 40 56
v -63 0 -63
v -63 1 -63
v 56 0 -63
v 56 1 -63
v 56 39 -63
v 56 40 -63
v 61 35 -63
v 61 36 -63
v 61 37 -63
v 61 38 -63
v 62 35 -63
v 62 36 -63
v 62 37 -63
v 62 38 -63
v 63 0 -63
v 63 35 -63
v 63 36 -63
v 63 37 -63
v 63 38 -63
v 63 39 -63
v 63 40 -63
v -63 0 63
v 63 0 63
v -63 0 56
v -62 0 56
v 57 0 56
v -63 0 55
v -62 0 55
v 56 0 -62
v 57 0 -62
v -63 0 -63
v 56 0 -63
v 63 0 -63
v -63 36 63
v 63 36 63
v -63 36 62
v 62 36 62
v 62 36 -63
v 63 36 -63
v -63 38 63
v 63 38 63
v -63 38 62
v 62 38 62
v 62 38 -63
v 63 38 -63
v -62 1 56
v 56 1 56
v -63 1 55
v -62 1 55
v -63 1 -63
v 56 1 -63
v -63 35 63
v 63 35 63
v -63 35 62
v 62 35 62
v 62 35 -63
v 63 35 -63
v -63 37 63
v 63 37 63
v -63 37 62
v 62 37 62
v 62 37 -63
v 63 37 -63
v -63 40 63
v 63 40 63
v -63 40 56
v 56 40 56
v 56 40 -63
v 63 40 -63

# faces
f 5/4/1 4/4/1 3/4/1
f 6/4/1 4/4/1 5/4/1
f 7/1/1 2/1/1 1/1/1
f 8/1/1 2/1/1 7/1/1
f 9/1/1 2/1/1 8/1/1
f 11/2/1 9/2/1 8/2/1
f 12/1/1 2/1/1 9/1/1
f 12/2/1 9/2/1 11/2/1
f 13/3/1 11/3/1 10/3/1
f 14/1/1 12/1/1 11/1/1
f 14/3/1 11/3/1 13/3/1
f 15/1/1 2/1/1 12/1/1
f 15/1/1 12/1/1 14/1/1
f 17/2/1 15/2/1 14/2/1
f 18/1/1 2/1/1 15/1/1
f 18/2/1 15/2/1 17/2/1
f 19/1/1 17/1/1 16/1/1
f 19/1/1 18/1/1 17/1/1
f 20/1/1 2/1/1 18/1/1
f 20/1/1 18/1/1 19/1/1
f 21/3/1 20/3/1 19/3/1
f 22/3/1 20/3/1 21/3/1
f 25/4/1 24/4/1 23/4/1
f 26/4/1 24/4/1 25/4/1
f 29/1/1 28/1/1 27/1/1
f 30/1/1 28/1/1 29/1/1
f 31/3/1 30/3/1 29/3/1
f 32/3/1 30/3/1 31/3/1
f 33/2/2 34/2/2 35/2/2
f 35/2/2 34/2/2 36/2/2
f 37/2/2 38/2/2 39/2/2
f 39/2/2 38/2/2 40/2/2
f 41/1/2 42/1/2 43/1/2
f 43/1/2 42/1/2 44/1/2
f 45/3/2 46/3/2 47/3/2
f 47/3/2 46/3/2 48/3/2
f 49/1/2 50/1/2 51/1/2
f 51/1/2 50/1/2 52/1/2
f 51/3/2 52/3/2 53/3/2
f 53/3/2 52/3/2 54/3/2
f 62/1/3 56/1/3 55/1/3
f 63/1/3 56/1/3 62/1/3
f 64/3/3 58/3/3 57/3/3
f 65/3/3 58/3/3 64/3/3
f 66/1/3 60/1/3 59/1/3
f 67/3/3 61/3/3 60/3/3
f 67/1/3 60/1/3 66/1/3
f 68/3/3 61/3/3 67/3/3
f 73/2/3 70/2/3 69/2/3
f 74/2/3 70/2/3 73/2/3
f 75/2/3 72/2/3 71/2/3
f 76/2/3 72/2/3 75/2/3
f 79/4/3 78/4/3 77/4/3
f 80/4/3 78/4/3 79/4/3
f 81/1/4 82/1/4 84/1/4
f 84/1/4 82/1/4 85/1/4
f 85/1/4 82/1/4 86/1/4
f 82/3/4 83/3/4 87/3/4
f 86/1/4 82/1/4 87/1/4
f 87/3/4 83/3/4 88/3/4
f 89/4/4 90/4/4 91/4/4
f 91/4/4 90/4/4 92/4/4
f 91/1/4 92/1/4 95/1/4
f 92/1/4 93/1/4 95/1/4
f 95/1/4 93/1/4 96/1/4
f 96/1/4 93/1/4 97/1/4
f 97/1/4 93/1/4 98/1/4
f 91/1/4 95/1/4 99/1/4
f 95/2/4 96/2/4 99/2/4
f 96/1/4 97/1/4 100/1/4
f 99/2/4 96/2/4 100/2/4
f 97/2/4 98/2/4 101/2/4
f 100/1/4 97/1/4 101/1/4
f 98/1/4 93/1/4 102/1/4
f 101/2/4 98/2/4 102/2/4
f 91/1/4 99/1/4 103/1/4
f 103/1/4 99/1/4 104/1/4
f 100/3/4 101/3/4 105/3/4
f 105/3/4 101/3/4 106/3/4
f 102/1/4 93/1/4 107/1/4
f 93/3/4 94/3/4 108/3/4
f 107/1/4 93/1/4 108/1/4
f 108/3/4 94/3/4 109/3/4
f 112/1/5 111/1/5 110/1/5
f 113/1/5 111/1/5 112/1/5
f 114/1/5 111/1/5 113/1/5
f 116/4/5 114/4/5 113/4/5
f 117/4/5 114/4/5 116/4/5
f 117/4/5 116/4/5 115/4/5
f 118/1/5 111/1/5 114/1/5
f 118/4/5 114/4/5 117/4/5
f 119/4/5 117/4/5 115/4/5
f 120/1/5 118/1/5 117/1/5
f 120/4/5 117/4/5 119/4/5
f 121/1/5 111/1/5 118/1/5
f 121/1/5 118/1/5 120/1/5
f 124/3/5 123/3/5 122/3/5
f 125/3/5 123/3/5 124/3/5
f 126/3/5 123/3/5 125/3/5
f 127/3/5 123/3/5 126/3/5
f 130/1/5 129/1/5 128/1/5
f 131/1/5 129/1/5 130/1/5
f 132/1/5 129/1/5 131/1/5
f 133/1/5 129/1/5 132/1/5
f 134/4/6 135/4/6 137/4/6
f 136/4/6 137/4/6 138/4/6
f 137/4/6 135/4/6 139/4/6
f 138/4/6 137/4/6 139/4/6
f 140/1/6 141/1/6 142/1/6
f 142/1/6 141/1/6 143/1/6
f 143/1/6 141/1/6 144/1/6
f 144/1/6 141/1/6 145/1/6
f 146/3/6 147/3/6 148/3/6
f 148/3/6 147/3/6 149/3/6
f 149/3/6 147/3/6 150/3/6
f 150/3/6 147/3/6 151/3/6
f 152/3/6 153/3/6 154/3/6
f 154/3/6 153/3/6 155/3/6
f 155/3/6 153/3/6 156/3/6
f 156/3/6 153/3/6 157/3/6
