# MagicaVoxel @ Ephtracy

# group
g building:door

# material
mtllib default-material.mtl
usemtl palette

# normals
vn -1 0 0
vn 1 0 0
vn 0 0 1
vn 0 0 -1
vn 0 -1 0
vn 0 1 0

# texcoords
vt 0.958984 0.5
vt 0.978516 0.5

# verts
v -63 0 63
v -63 0 -63
v -63 1 63
v -63 1 -63
v 57 0 -62
v 57 0 -63
v 57 1 63
v 57 1 8
v 57 1 -10
v 57 1 -62
v 57 32 8
v 57 32 -10
v 57 40 63
v 57 40 -63
v 56 0 -62
v 56 0 -63
v 56 1 -62
v 56 1 -63
v 63 0 63
v 63 0 -63
v 63 1 8
v 63 1 -10
v 63 32 8
v 63 32 -10
v 63 40 63
v 63 40 -63
v -63 0 63
v -63 1 63
v 57 0 63
v 57 1 63
v 57 40 63
v 63 0 63
v 63 40 63
v 57 1 -10
v 57 32 -10
v 63 1 -10
v 63 32 -10
v 57 1 8
v 57 32 8
v 63 1 8
v 63 32 8
v 56 0 -62
v 56 1 -62
v 57 0 -62
v 57 1 -62
v -63 0 -63
v -63 1 -63
v 56 0 -63
v 56 1 -63
v 57 0 -63
v 57 40 -63
v 63 0 -63
v 63 40 -63
v -63 0 63
v 57 0 63
v 63 0 63
v 56 0 -62
v 57 0 -62
v -63 0 -63
v 56 0 -63
v 57 0 -63
v 63 0 -63
v 57 32 8
v 63 32 8
v 57 32 -10
v 63 32 -10
v -63 1 63
v 57 1 63
v 57 1 8
v 63 1 8
v 57 1 -10
v 63 1 -10
v 56 1 -62
v 57 1 -62
v -63 1 -63
v 56 1 -63
v 57 40 63
v 63 40 63
v 57 40 -63
v 63 40 -63

# faces
f 3/2/1 2/2/1 1/2/1
f 4/2/1 2/2/1 3/2/1
f 10/1/1 6/1/1 5/1/1
f 11/1/1 8/1/1 7/1/1
f 12/1/1 10/1/1 9/1/1
f 13/1/1 11/1/1 7/1/1
f 13/1/1 12/1/1 11/1/1
f 14/1/1 10/1/1 12/1/1
f 14/1/1 12/1/1 13/1/1
f 14/1/1 6/1/1 10/1/1
f 15/2/2 16/2/2 17/2/2
f 17/2/2 16/2/2 18/2/2
f 19/1/2 20/1/2 21/1/2
f 21/1/2 20/1/2 22/1/2
f 19/1/2 21/1/2 23/1/2
f 22/1/2 20/1/2 24/1/2
f 19/1/2 23/1/2 25/1/2
f 23/1/2 24/1/2 25/1/2
f 24/1/2 20/1/2 26/1/2
f 25/1/2 24/1/2 26/1/2
f 29/2/3 28/2/3 27/2/3
f 30/2/3 28/2/3 29/2/3
f 32/1/3 30/1/3 29/1/3
f 32/1/3 31/1/3 30/1/3
f 33/1/3 31/1/3 32/1/3
f 36/1/3 35/1/3 34/1/3
f 37/1/3 35/1/3 36/1/3
f 38/1/4 39/1/4 40/1/4
f 40/1/4 39/1/4 41/1/4
f 42/2/4 43/2/4 44/2/4
f 44/2/4 43/2/4 45/2/4
f 46/2/4 47/2/4 48/2/4
f 48/2/4 47/2/4 49/2/4
f 50/1/4 51/1/4 52/1/4
f 52/1/4 51/1/4 53/1/4
f 57/2/5 55/2/5 54/2/5
f 58/1/5 56/1/5 55/1/5
f 58/2/5 55/2/5 57/2/5
f 59/2/5 57/2/5 54/2/5
f 60/2/5 57/2/5 59/2/5
f 61/1/5 56/1/5 58/1/5
f 62/1/5 56/1/5 61/1/5
f 65/1/5 64/1/5 63/1/5
f 66/1/5 64/1/5 65/1/5
f 67/2/6 68/2/6 69/2/6
f 67/2/6 69/2/6 71/2/6
f 69/1/6 70/1/6 71/1/6
f 71/1/6 70/1/6 72/1/6
f 67/2/6 71/2/6 73/2/6
f 73/2/6 71/2/6 74/2/6
f 67/2/6 73/2/6 75/2/6
f 75/2/6 73/2/6 76/2/6
f 77/1/6 78/1/6 79/1/6
f 79/1/6 78/1/6 80/1/6
