# MagicaVoxel @ Ephtracy

# group
g classic:wall-outside-corner-double

# material
mtllib default-material.mtl
usemtl palette

# normals
vn -1 0 0
vn 1 0 0
vn 0 0 1
vn 0 0 -1
vn 0 -1 0
vn 0 1 0

# texcoords
vt 0.919922 0.5
vt 0.923828 0.5
vt 0.958984 0.5
vt 0.970703 0.5
vt 0.982422 0.5
vt 0.986328 0.5
vt 0.990234 0.5

# verts
v -5 0 2
v -5 0 -1
v -5 0 -2
v -5 0 -5
v -5 1 2
v -5 1 -1
v -5 1 -2
v -5 1 -5
v -5 37 1
v -5 37 -1
v -5 38 1
v -5 38 -1
v -3 34 1
v -3 34 -1
v -3 36 1
v -3 36 -1
v -3 37 2
v -3 37 1
v -3 37 -1
v -3 37 -3
v -3 38 2
v -3 38 1
v -3 38 -1
v -3 38 -3
v -2 1 2
v -2 1 -1
v -2 1 -2
v -2 2 2
v -2 2 -2
v -2 3 2
v -2 3 -2
v -2 5 2
v -2 5 -2
v -2 6 2
v -2 6 -2
v -2 8 2
v -2 8 -2
v -2 9 2
v -2 9 -2
v -2 11 2
v -2 11 -2
v -2 12 2
v -2 12 -2
v -2 14 2
v -2 14 -2
v -2 15 2
v -2 15 -2
v -2 17 2
v -2 17 -2
v -2 18 2
v -2 18 -2
v -2 20 2
v -2 20 -2
v -2 21 2
v -2 21 -2
v -2 23 2
v -2 23 -2
v -2 24 2
v -2 24 -2
v -2 26 2
v -2 26 -2
v -2 27 2
v -2 27 -2
v -2 29 2
v -2 29 -2
v -2 30 2
v -2 30 -2
v -2 32 2
v -2 32 -2
v -2 33 2
v -2 33 -2
v -2 34 1
v -2 34 -1
v -2 36 1
v -2 36 -1
v -2 37 2
v -2 37 1
v -2 37 -1
v -2 37 -2
v -1 34 -2
v -1 34 -3
v -1 36 -2
v -1 36 -3
v -1 37 -2
v -1 37 -3
v -1 37 -5
v -1 38 -3
v -1 38 -5
v 1 34 -2
v 1 34 -3
v 1 36 -2
v 1 36 -3
v 1 37 -2
v 1 37 -3
v 1 37 -5
v 1 38 -3
v 1 38 -5
v 2 0 2
v 2 0 -5
v 2 1 2
v 2 1 -2
v 2 1 -5
v 2 2 -1
v 2 2 -2
v 2 3 -1
v 2 3 -2
v 2 5 -1
v 2 5 -2
v 2 6 -1
v 2 6 -2
v 2 8 -1
v 2 8 -2
v 2 9 -1
v 2 9 -2
v 2 11 -1
v 2 11 -2
v 2 12 -1
v 2 12 -2
v 2 14 -1
v 2 14 -2
v 2 15 -1
v 2 15 -2
v 2 17 -1
v 2 17 -2
v 2 18 -1
v 2 18 -2
v 2 20 -1
v 2 20 -2
v 2 21 -1
v 2 21 -2
v 2 23 -1
v 2 23 -2
v 2 24 -1
v 2 24 -2
v 2 26 -1
v 2 26 -2
v 2 27 -1
v 2 27 -2
v 2 29 -1
v 2 29 -2
v 2 30 -1
v 2 30 -2
v 2 32 -1
v 2 32 -2
v 2 33 -1
v 2 33 -2
v 2 36 2
v 2 36 1
v 2 37 -2
v 2 37 -3
v 2 38 2
v 2 38 1
v 2 38 -2
v 2 38 -3
v -5 0 2
v -5 1 2
v -3 37 2
v -3 38 2
v -2 1 2
v -2 2 2
v -2 3 2
v -2 5 2
v -2 6 2
v -2 8 2
v -2 9 2
v -2 11 2
v -2 12 2
v -2 14 2
v -2 15 2
v -2 17 2
v -2 18 2
v -2 20 2
v -2 21 2
v -2 23 2
v -2 24 2
v -2 26 2
v -2 27 2
v -2 29 2
v -2 30 2
v -2 32 2
v -2 33 2
v -2 37 2
v -2 38 2
v -1 2 2
v -1 3 2
v -1 5 2
v -1 6 2
v -1 8 2
v -1 9 2
v -1 11 2
v -1 12 2
v -1 14 2
v -1 15 2
v -1 17 2
v -1 18 2
v -1 20 2
v -1 21 2
v -1 23 2
v -1 24 2
v -1 26 2
v -1 27 2
v -1 29 2
v -1 30 2
v -1 32 2
v -1 33 2
v 1 36 2
v 1 38 2
v 2 0 2
v 2 1 2
v 2 36 2
v 2 38 2
v -5 37 1
v -5 38 1
v -3 34 1
v -3 36 1
v -3 37 1
v -3 38 1
v -2 34 1
v -2 36 1
v -2 37 1
v -5 37 -1
v -5 38 -1
v -3 34 -1
v -3 36 -1
v -3 37 -1
v -3 38 -1
v -2 34 -1
v -2 36 -1
v -2 37 -1
v -2 1 -2
v -2 2 -2
v -2 3 -2
v -2 5 -2
v -2 6 -2
v -2 8 -2
v -2 9 -2
v -2 11 -2
v -2 12 -2
v -2 14 -2
v -2 15 -2
v -2 17 -2
v -2 18 -2
v -2 20 -2
v -2 21 -2
v -2 23 -2
v -2 24 -2
v -2 26 -2
v -2 27 -2
v -2 29 -2
v -2 30 -2
v -2 32 -2
v -2 33 -2
v -2 37 -2
v -1 1 -2
v -1 34 -2
v -1 36 -2
v -1 37 -2
v 1 34 -2
v 1 36 -2
v 1 37 -2
v 2 1 -2
v 2 2 -2
v 2 3 -2
v 2 5 -2
v 2 6 -2
v 2 8 -2
v 2 9 -2
v 2 11 -2
v 2 12 -2
v 2 14 -2
v 2 15 -2
v 2 17 -2
v 2 18 -2
v 2 20 -2
v 2 21 -2
v 2 23 -2
v 2 24 -2
v 2 26 -2
v 2 27 -2
v 2 29 -2
v 2 30 -2
v 2 32 -2
v 2 33 -2
v 2 37 -2
v -3 37 -3
v -3 38 -3
v -1 34 -3
v -1 36 -3
v -1 37 -3
v -1 38 -3
v 1 34 -3
v 1 36 -3
v 1 37 -3
v 1 38 -3
v 2 37 -3
v 2 38 -3
v -5 0 -5
v -5 1 -5
v -2 0 -5
v -2 1 -5
v -1 0 -5
v -1 1 -5
v -1 37 -5
v -1 38 -5
v 1 37 -5
v 1 38 -5
v 2 0 -5
v 2 1 -5
v -5 0 2
v 2 0 2
v -5 0 -1
v -1 0 -1
v -5 0 -2
v -2 0 -2
v -5 0 -5
v -2 0 -5
v -1 0 -5
v 2 0 -5
v -3 34 1
v -2 34 1
v -3 34 -1
v -2 34 -1
v -1 34 -2
v 1 34 -2
v -1 34 -3
v 1 34 -3
v -3 37 2
v -2 37 2
v -5 37 1
v -3 37 1
v -2 37 1
v -5 37 -1
v -3 37 -1
v -2 37 -1
v -2 37 -2
v -1 37 -2
v 1 37 -2
v 2 37 -2
v -3 37 -3
v -1 37 -3
v 1 37 -3
v 2 37 -3
v -1 37 -5
v 1 37 -5
v -5 1 2
v -2 1 2
v -5 1 -1
v -2 1 -1
v -5 1 -2
v -2 1 -2
v -1 1 -2
v 2 1 -2
v -5 1 -5
v -2 1 -5
v -1 1 -5
v 2 1 -5
v -3 38 2
v -2 38 2
v 1 38 2
v 2 38 2
v -5 38 1
v -3 38 1
v 1 38 1
v 2 38 1
v -5 38 -1
v -3 38 -1
v -2 38 -2
v 2 38 -2
v -3 38 -3
v -1 38 -3
v 1 38 -3
v 2 38 -3
v -1 38 -5
v 1 38 -5

# faces
f 5/4/1 2/4/1 1/4/1
f 6/5/1 3/5/1 2/5/1
f 6/4/1 2/4/1 5/4/1
f 7/4/1 4/4/1 3/4/1
f 7/5/1 3/5/1 6/5/1
f 8/4/1 4/4/1 7/4/1
f 11/1/1 10/1/1 9/1/1
f 12/1/1 10/1/1 11/1/1
f 15/1/1 14/1/1 13/1/1
f 16/1/1 14/1/1 15/1/1
f 18/2/1 16/2/1 15/2/1
f 19/2/1 16/2/1 18/2/1
f 21/1/1 18/1/1 17/1/1
f 22/1/1 18/1/1 21/1/1
f 23/1/1 20/1/1 19/1/1
f 24/1/1 20/1/1 23/1/1
f 28/6/1 26/6/1 25/6/1
f 28/6/1 27/6/1 26/6/1
f 29/6/1 27/6/1 28/6/1
f 30/7/1 29/7/1 28/7/1
f 31/7/1 29/7/1 30/7/1
f 32/6/1 31/6/1 30/6/1
f 33/6/1 31/6/1 32/6/1
f 34/7/1 33/7/1 32/7/1
f 35/7/1 33/7/1 34/7/1
f 36/6/1 35/6/1 34/6/1
f 37/6/1 35/6/1 36/6/1
f 38/7/1 37/7/1 36/7/1
f 39/7/1 37/7/1 38/7/1
f 40/6/1 39/6/1 38/6/1
f 41/6/1 39/6/1 40/6/1
f 42/7/1 41/7/1 40/7/1
f 43/7/1 41/7/1 42/7/1
f 44/6/1 43/6/1 42/6/1
f 45/6/1 43/6/1 44/6/1
f 46/7/1 45/7/1 44/7/1
f 47/7/1 45/7/1 46/7/1
f 48/6/1 47/6/1 46/6/1
f 49/6/1 47/6/1 48/6/1
f 50/7/1 49/7/1 48/7/1
f 51/7/1 49/7/1 50/7/1
f 52/6/1 51/6/1 50/6/1
f 53/6/1 51/6/1 52/6/1
f 54/7/1 53/7/1 52/7/1
f 55/7/1 53/7/1 54/7/1
f 56/6/1 55/6/1 54/6/1
f 57/6/1 55/6/1 56/6/1
f 58/7/1 57/7/1 56/7/1
f 59/7/1 57/7/1 58/7/1
f 60/6/1 59/6/1 58/6/1
f 61/6/1 59/6/1 60/6/1
f 62/7/1 61/7/1 60/7/1
f 63/7/1 61/7/1 62/7/1
f 64/6/1 63/6/1 62/6/1
f 65/6/1 63/6/1 64/6/1
f 66/7/1 65/7/1 64/7/1
f 67/7/1 65/7/1 66/7/1
f 68/6/1 67/6/1 66/6/1
f 69/6/1 67/6/1 68/6/1
f 70/7/1 69/7/1 68/7/1
f 71/7/1 69/7/1 70/7/1
f 72/6/1 71/6/1 70/6/1
f 73/6/1 71/6/1 72/6/1
f 74/6/1 72/6/1 70/6/1
f 75/6/1 71/6/1 73/6/1
f 76/6/1 74/6/1 70/6/1
f 77/6/1 74/6/1 76/6/1
f 78/6/1 71/6/1 75/6/1
f 79/6/1 71/6/1 78/6/1
f 82/1/1 81/1/1 80/1/1
f 83/1/1 81/1/1 82/1/1
f 84/2/1 83/2/1 82/2/1
f 85/2/1 83/2/1 84/2/1
f 87/1/1 86/1/1 85/1/1
f 88/1/1 86/1/1 87/1/1
f 89/1/2 90/1/2 91/1/2
f 91/1/2 90/1/2 92/1/2
f 91/2/2 92/2/2 93/2/2
f 93/2/2 92/2/2 94/2/2
f 94/1/2 95/1/2 96/1/2
f 96/1/2 95/1/2 97/1/2
f 98/4/2 99/4/2 100/4/2
f 100/4/2 99/4/2 101/4/2
f 101/4/2 99/4/2 102/4/2
f 100/6/2 101/6/2 103/6/2
f 103/6/2 101/6/2 104/6/2
f 100/6/2 103/6/2 105/6/2
f 103/7/2 104/7/2 105/7/2
f 105/7/2 104/7/2 106/7/2
f 100/6/2 105/6/2 107/6/2
f 105/6/2 106/6/2 107/6/2
f 107/6/2 106/6/2 108/6/2
f 100/6/2 107/6/2 109/6/2
f 107/7/2 108/7/2 109/7/2
f 109/7/2 108/7/2 110/7/2
f 100/6/2 109/6/2 111/6/2
f 109/6/2 110/6/2 111/6/2
f 111/6/2 110/6/2 112/6/2
f 100/6/2 111/6/2 113/6/2
f 111/7/2 112/7/2 113/7/2
f 113/7/2 112/7/2 114/7/2
f 100/6/2 113/6/2 115/6/2
f 113/6/2 114/6/2 115/6/2
f 115/6/2 114/6/2 116/6/2
f 100/6/2 115/6/2 117/6/2
f 115/7/2 116/7/2 117/7/2
f 117/7/2 116/7/2 118/7/2
f 100/6/2 117/6/2 119/6/2
f 117/6/2 118/6/2 119/6/2
f 119/6/2 118/6/2 120/6/2
f 100/6/2 119/6/2 121/6/2
f 119/7/2 120/7/2 121/7/2
f 121/7/2 120/7/2 122/7/2
f 100/6/2 121/6/2 123/6/2
f 121/6/2 122/6/2 123/6/2
f 123/6/2 122/6/2 124/6/2
f 100/6/2 123/6/2 125/6/2
f 123/7/2 124/7/2 125/7/2
f 125/7/2 124/7/2 126/7/2
f 100/6/2 125/6/2 127/6/2
f 125/6/2 126/6/2 127/6/2
f 127/6/2 126/6/2 128/6/2
f 100/6/2 127/6/2 129/6/2
f 127/7/2 128/7/2 129/7/2
f 129/7/2 128/7/2 130/7/2
f 100/6/2 129/6/2 131/6/2
f 129/6/2 130/6/2 131/6/2
f 131/6/2 130/6/2 132/6/2
f 100/6/2 131/6/2 133/6/2
f 131/7/2 132/7/2 133/7/2
f 133/7/2 132/7/2 134/7/2
f 100/6/2 133/6/2 135/6/2
f 133/6/2 134/6/2 135/6/2
f 135/6/2 134/6/2 136/6/2
f 100/6/2 135/6/2 137/6/2
f 135/7/2 136/7/2 137/7/2
f 137/7/2 136/7/2 138/7/2
f 100/6/2 137/6/2 139/6/2
f 137/6/2 138/6/2 139/6/2
f 139/6/2 138/6/2 140/6/2
f 100/6/2 139/6/2 141/6/2
f 139/7/2 140/7/2 141/7/2
f 141/7/2 140/7/2 142/7/2
f 100/6/2 141/6/2 143/6/2
f 141/6/2 142/6/2 143/6/2
f 143/6/2 142/6/2 144/6/2
f 100/6/2 143/6/2 145/6/2
f 143/7/2 144/7/2 145/7/2
f 145/7/2 144/7/2 146/7/2
f 100/6/2 145/6/2 147/6/2
f 145/6/2 146/6/2 147/6/2
f 147/6/2 146/6/2 148/6/2
f 148/6/2 146/6/2 149/6/2
f 147/3/2 148/3/2 151/3/2
f 148/6/2 149/6/2 152/6/2
f 151/3/2 148/3/2 152/3/2
f 149/1/2 150/1/2 153/1/2
f 152/6/2 149/6/2 153/6/2
f 153/1/2 150/1/2 154/1/2
f 159/4/3 156/4/3 155/4/3
f 182/1/3 158/1/3 157/1/3
f 183/1/3 158/1/3 182/1/3
f 184/6/3 160/6/3 159/6/3
f 184/7/3 161/7/3 160/7/3
f 185/6/3 162/6/3 161/6/3
f 185/7/3 161/7/3 184/7/3
f 186/7/3 163/7/3 162/7/3
f 186/6/3 162/6/3 185/6/3
f 187/6/3 164/6/3 163/6/3
f 187/7/3 163/7/3 186/7/3
f 188/7/3 165/7/3 164/7/3
f 188/6/3 164/6/3 187/6/3
f 189/6/3 166/6/3 165/6/3
f 189/7/3 165/7/3 188/7/3
f 190/7/3 167/7/3 166/7/3
f 190/6/3 166/6/3 189/6/3
f 191/6/3 168/6/3 167/6/3
f 191/7/3 167/7/3 190/7/3
f 192/7/3 169/7/3 168/7/3
f 192/6/3 168/6/3 191/6/3
f 193/6/3 170/6/3 169/6/3
f 193/7/3 169/7/3 192/7/3
f 194/7/3 171/7/3 170/7/3
f 194/6/3 170/6/3 193/6/3
f 195/6/3 172/6/3 171/6/3
f 195/7/3 171/7/3 194/7/3
f 196/7/3 173/7/3 172/7/3
f 196/6/3 172/6/3 195/6/3
f 197/6/3 174/6/3 173/6/3
f 197/7/3 173/7/3 196/7/3
f 198/7/3 175/7/3 174/7/3
f 198/6/3 174/6/3 197/6/3
f 199/6/3 176/6/3 175/6/3
f 199/7/3 175/7/3 198/7/3
f 200/7/3 177/7/3 176/7/3
f 200/6/3 176/6/3 199/6/3
f 201/6/3 178/6/3 177/6/3
f 201/7/3 177/7/3 200/7/3
f 202/7/3 179/7/3 178/7/3
f 202/6/3 178/6/3 201/6/3
f 203/6/3 180/6/3 179/6/3
f 203/7/3 179/7/3 202/7/3
f 204/7/3 181/7/3 180/7/3
f 204/6/3 180/6/3 203/6/3
f 205/6/3 183/6/3 182/6/3
f 205/7/3 181/7/3 204/7/3
f 205/6/3 182/6/3 181/6/3
f 206/6/3 203/6/3 202/6/3
f 206/6/3 183/6/3 205/6/3
f 206/6/3 205/6/3 204/6/3
f 206/6/3 204/6/3 203/6/3
f 206/6/3 202/6/3 201/6/3
f 206/6/3 201/6/3 200/6/3
f 206/6/3 200/6/3 199/6/3
f 206/6/3 199/6/3 198/6/3
f 206/6/3 198/6/3 197/6/3
f 206/6/3 197/6/3 196/6/3
f 206/6/3 196/6/3 195/6/3
f 206/6/3 195/6/3 194/6/3
f 206/6/3 194/6/3 193/6/3
f 206/6/3 193/6/3 192/6/3
f 206/6/3 192/6/3 191/6/3
f 206/6/3 191/6/3 190/6/3
f 206/6/3 190/6/3 189/6/3
f 206/6/3 189/6/3 188/6/3
f 206/6/3 188/6/3 187/6/3
f 206/6/3 187/6/3 186/6/3
f 206/6/3 186/6/3 185/6/3
f 206/6/3 185/6/3 184/6/3
f 207/6/3 183/6/3 206/6/3
f 208/4/3 159/4/3 155/4/3
f 209/6/3 184/6/3 159/6/3
f 209/4/3 159/4/3 208/4/3
f 209/6/3 206/6/3 184/6/3
f 210/3/3 207/3/3 206/3/3
f 210/6/3 206/6/3 209/6/3
f 211/3/3 207/3/3 210/3/3
f 216/1/3 213/1/3 212/1/3
f 217/1/3 213/1/3 216/1/3
f 218/1/3 215/1/3 214/1/3
f 219/2/3 216/2/3 215/2/3
f 219/1/3 215/1/3 218/1/3
f 220/2/3 216/2/3 219/2/3
f 221/1/4 222/1/4 225/1/4
f 225/1/4 222/1/4 226/1/4
f 223/1/4 224/1/4 227/1/4
f 224/2/4 225/2/4 228/2/4
f 227/1/4 224/1/4 228/1/4
f 228/2/4 225/2/4 229/2/4
f 230/6/4 231/6/4 254/6/4
f 252/6/4 253/6/4 255/6/4
f 255/6/4 253/6/4 256/6/4
f 256/6/4 253/6/4 257/6/4
f 252/6/4 255/6/4 258/6/4
f 254/6/4 231/6/4 261/6/4
f 231/7/4 232/7/4 262/7/4
f 261/6/4 231/6/4 262/6/4
f 232/6/4 233/6/4 263/6/4
f 262/7/4 232/7/4 263/7/4
f 233/7/4 234/7/4 264/7/4
f 263/6/4 233/6/4 264/6/4
f 234/6/4 235/6/4 265/6/4
f 264/7/4 234/7/4 265/7/4
f 235/7/4 236/7/4 266/7/4
f 265/6/4 235/6/4 266/6/4
f 236/6/4 237/6/4 267/6/4
f 266/7/4 236/7/4 267/7/4
f 237/7/4 238/7/4 268/7/4
f 267/6/4 237/6/4 268/6/4
f 238/6/4 239/6/4 269/6/4
f 268/7/4 238/7/4 269/7/4
f 239/7/4 240/7/4 270/7/4
f 269/6/4 239/6/4 270/6/4
f 240/6/4 241/6/4 271/6/4
f 270/7/4 240/7/4 271/7/4
f 241/7/4 242/7/4 272/7/4
f 271/6/4 241/6/4 272/6/4
f 242/6/4 243/6/4 273/6/4
f 272/7/4 242/7/4 273/7/4
f 243/7/4 244/7/4 274/7/4
f 273/6/4 243/6/4 274/6/4
f 244/6/4 245/6/4 275/6/4
f 274/7/4 244/7/4 275/7/4
f 245/7/4 246/7/4 276/7/4
f 275/6/4 245/6/4 276/6/4
f 246/6/4 247/6/4 277/6/4
f 276/7/4 246/7/4 277/7/4
f 247/7/4 248/7/4 278/7/4
f 277/6/4 247/6/4 278/6/4
f 248/6/4 249/6/4 279/6/4
f 278/7/4 248/7/4 279/7/4
f 249/7/4 250/7/4 280/7/4
f 279/6/4 249/6/4 280/6/4
f 250/6/4 251/6/4 281/6/4
f 280/7/4 250/7/4 281/7/4
f 251/7/4 252/7/4 282/7/4
f 281/6/4 251/6/4 282/6/4
f 259/6/4 260/6/4 283/6/4
f 282/7/4 252/7/4 283/7/4
f 252/6/4 258/6/4 283/6/4
f 258/6/4 259/6/4 283/6/4
f 283/6/4 260/6/4 284/6/4
f 285/1/4 286/1/4 289/1/4
f 289/1/4 286/1/4 290/1/4
f 287/1/4 288/1/4 291/1/4
f 288/2/4 289/2/4 292/2/4
f 291/1/4 288/1/4 292/1/4
f 292/2/4 289/2/4 293/2/4
f 293/1/4 294/1/4 295/1/4
f 295/1/4 294/1/4 296/1/4
f 297/4/4 298/4/4 299/4/4
f 299/4/4 298/4/4 300/4/4
f 299/5/4 300/5/4 301/5/4
f 301/5/4 300/5/4 302/5/4
f 303/1/4 304/1/4 305/1/4
f 305/1/4 304/1/4 306/1/4
f 301/4/4 302/4/4 307/4/4
f 307/4/4 302/4/4 308/4/4
f 311/4/5 310/4/5 309/4/5
f 312/4/5 310/4/5 311/4/5
f 313/5/5 312/5/5 311/5/5
f 314/5/5 312/5/5 313/5/5
f 315/4/5 314/4/5 313/4/5
f 316/5/5 312/5/5 314/5/5
f 316/4/5 314/4/5 315/4/5
f 317/4/5 310/4/5 312/4/5
f 317/5/5 312/5/5 316/5/5
f 318/4/5 310/4/5 317/4/5
f 321/1/5 320/1/5 319/1/5
f 322/1/5 320/1/5 321/1/5
f 325/1/5 324/1/5 323/1/5
f 326/1/5 324/1/5 325/1/5
f 330/1/5 328/1/5 327/1/5
f 331/1/5 328/1/5 330/1/5
f 332/1/5 330/1/5 329/1/5
f 333/1/5 330/1/5 332/1/5
f 335/1/5 334/1/5 333/1/5
f 339/1/5 335/1/5 333/1/5
f 339/1/5 336/1/5 335/1/5
f 340/1/5 336/1/5 339/1/5
f 341/1/5 338/1/5 337/1/5
f 342/1/5 338/1/5 341/1/5
f 343/1/5 341/1/5 340/1/5
f 344/1/5 341/1/5 343/1/5
f 345/4/6 346/4/6 347/4/6
f 347/4/6 346/4/6 348/4/6
f 347/5/6 348/5/6 349/5/6
f 349/5/6 348/5/6 350/5/6
f 349/4/6 350/4/6 353/4/6
f 350/5/6 351/5/6 354/5/6
f 353/4/6 350/4/6 354/4/6
f 351/4/6 352/4/6 355/4/6
f 354/5/6 351/5/6 355/5/6
f 355/4/6 352/4/6 356/4/6
f 357/1/6 358/1/6 362/1/6
f 359/3/6 360/3/6 363/3/6
f 358/6/6 359/6/6 363/6/6
f 363/3/6 360/3/6 364/3/6
f 361/1/6 362/1/6 365/1/6
f 362/1/6 358/1/6 366/1/6
f 365/1/6 362/1/6 366/1/6
f 358/6/6 363/6/6 367/6/6
f 366/1/6 358/1/6 367/1/6
f 363/6/6 364/6/6 367/6/6
f 367/6/6 364/6/6 368/6/6
f 366/1/6 367/1/6 369/1/6
f 367/1/6 368/1/6 369/1/6
f 369/1/6 368/1/6 370/1/6
f 370/1/6 368/1/6 371/1/6
f 371/1/6 368/1/6 372/1/6
f 370/1/6 371/1/6 373/1/6
f 373/1/6 371/1/6 374/1/6
