# MagicaVoxel @ Ephtracy

# group
g classic:floor-bathroom

# material
mtllib default-material.mtl
usemtl palette

# normals
vn -1 0 0
vn 1 0 0
vn 0 0 1
vn 0 0 -1
vn 0 -1 0
vn 0 1 0

# texcoords
vt 0.353516 0.5
vt 0.357422 0.5
vt 0.919922 0.5

# verts
v -56 0 56
v -56 0 -56
v -56 1 56
v -56 1 -56
v 56 0 56
v 56 0 3
v 56 0 -56
v 56 1 56
v 56 1 3
v 56 1 -56
v -56 0 56
v -56 1 56
v -52 0 56
v -52 1 56
v -48 0 56
v -48 1 56
v -44 0 56
v -44 1 56
v -40 0 56
v -40 1 56
v -36 0 56
v -36 1 56
v -32 0 56
v -32 1 56
v -28 0 56
v -28 1 56
v -24 0 56
v -24 1 56
v -20 0 56
v -20 1 56
v -16 0 56
v -16 1 56
v -12 0 56
v -12 1 56
v -8 0 56
v -8 1 56
v -4 0 56
v -4 1 56
v 0 0 56
v 0 1 56
v 4 0 56
v 4 1 56
v 8 0 56
v 8 1 56
v 12 0 56
v 12 1 56
v 16 0 56
v 16 1 56
v 20 0 56
v 20 1 56
v 24 0 56
v 24 1 56
v 28 0 56
v 28 1 56
v 32 0 56
v 32 1 56
v 36 0 56
v 36 1 56
v 40 0 56
v 40 1 56
v 44 0 56
v 44 1 56
v 48 0 56
v 48 1 56
v 52 0 56
v 52 1 56
v 56 0 56
v 56 1 56
v -56 0 -56
v -56 1 -56
v -52 0 -56
v -52 1 -56
v -48 0 -56
v -48 1 -56
v -44 0 -56
v -44 1 -56
v -40 0 -56
v -40 1 -56
v -36 0 -56
v -36 1 -56
v -32 0 -56
v -32 1 -56
v -28 0 -56
v -28 1 -56
v -24 0 -56
v -24 1 -56
v -20 0 -56
v -20 1 -56
v -16 0 -56
v -16 1 -56
v -12 0 -56
v -12 1 -56
v -8 0 -56
v -8 1 -56
v -4 0 -56
v -4 1 -56
v 0 0 -56
v 0 1 -56
v 4 0 -56
v 4 1 -56
v 8 0 -56
v 8 1 -56
v 11 0 -56
v 11 1 -56
v 56 0 -56
v 56 1 -56
v -56 0 56
v -52 0 56
v -48 0 56
v -44 0 56
v -40 0 56
v -36 0 56
v -32 0 56
v -28 0 56
v -24 0 56
v -20 0 56
v -16 0 56
v -12 0 56
v -8 0 56
v -4 0 56
v 0 0 56
v 4 0 56
v 8 0 56
v 12 0 56
v 16 0 56
v 20 0 56
v 24 0 56
v 28 0 56
v 32 0 56
v 36 0 56
v 40 0 56
v 44 0 56
v 48 0 56
v 52 0 56
v 56 0 56
v 11 0 3
v 12 0 3
v 16 0 3
v 20 0 3
v 24 0 3
v 28 0 3
v 32 0 3
v 36 0 3
v 40 0 3
v 44 0 3
v 48 0 3
v 52 0 3
v 56 0 3
v -56 0 -56
v -52 0 -56
v -48 0 -56
v -44 0 -56
v -40 0 -56
v -36 0 -56
v -32 0 -56
v -28 0 -56
v -24 0 -56
v -20 0 -56
v -16 0 -56
v -12 0 -56
v -8 0 -56
v -4 0 -56
v 0 0 -56
v 4 0 -56
v 8 0 -56
v 11 0 -56
v 56 0 -56
v -56 1 56
v -52 1 56
v -48 1 56
v -44 1 56
v -40 1 56
v -36 1 56
v -32 1 56
v -28 1 56
v -24 1 56
v -20 1 56
v -16 1 56
v -12 1 56
v -8 1 56
v -4 1 56
v 0 1 56
v 4 1 56
v 8 1 56
v 12 1 56
v 16 1 56
v 20 1 56
v 24 1 56
v 28 1 56
v 32 1 56
v 36 1 56
v 40 1 56
v 44 1 56
v 48 1 56
v 52 1 56
v 56 1 56
v 11 1 3
v 12 1 3
v 16 1 3
v 20 1 3
v 24 1 3
v 28 1 3
v 32 1 3
v 36 1 3
v 40 1 3
v 44 1 3
v 48 1 3
v 52 1 3
v 56 1 3
v -56 1 -56
v -52 1 -56
v -48 1 -56
v -44 1 -56
v -40 1 -56
v -36 1 -56
v -32 1 -56
v -28 1 -56
v -24 1 -56
v -20 1 -56
v -16 1 -56
v -12 1 -56
v -8 1 -56
v -4 1 -56
v 0 1 -56
v 4 1 -56
v 8 1 -56
v 11 1 -56
v 56 1 -56

# faces
f 3/1/1 2/1/1 1/1/1
f 4/1/1 2/1/1 3/1/1
f 5/2/2 6/2/2 8/2/2
f 6/3/2 7/3/2 9/3/2
f 8/2/2 6/2/2 9/2/2
f 9/3/2 7/3/2 10/3/2
f 13/1/3 12/1/3 11/1/3
f 14/1/3 12/1/3 13/1/3
f 15/2/3 14/2/3 13/2/3
f 16/2/3 14/2/3 15/2/3
f 17/1/3 16/1/3 15/1/3
f 18/1/3 16/1/3 17/1/3
f 19/2/3 18/2/3 17/2/3
f 20/2/3 18/2/3 19/2/3
f 21/1/3 20/1/3 19/1/3
f 22/1/3 20/1/3 21/1/3
f 23/2/3 22/2/3 21/2/3
f 24/2/3 22/2/3 23/2/3
f 25/1/3 24/1/3 23/1/3
f 26/1/3 24/1/3 25/1/3
f 27/2/3 26/2/3 25/2/3
f 28/2/3 26/2/3 27/2/3
f 29/1/3 28/1/3 27/1/3
f 30/1/3 28/1/3 29/1/3
f 31/2/3 30/2/3 29/2/3
f 32/2/3 30/2/3 31/2/3
f 33/1/3 32/1/3 31/1/3
f 34/1/3 32/1/3 33/1/3
f 35/2/3 34/2/3 33/2/3
f 36/2/3 34/2/3 35/2/3
f 37/1/3 36/1/3 35/1/3
f 38/1/3 36/1/3 37/1/3
f 39/2/3 38/2/3 37/2/3
f 40/2/3 38/2/3 39/2/3
f 41/1/3 40/1/3 39/1/3
f 42/1/3 40/1/3 41/1/3
f 43/2/3 42/2/3 41/2/3
f 44/2/3 42/2/3 43/2/3
f 45/1/3 44/1/3 43/1/3
f 46/1/3 44/1/3 45/1/3
f 47/2/3 46/2/3 45/2/3
f 48/2/3 46/2/3 47/2/3
f 49/1/3 48/1/3 47/1/3
f 50/1/3 48/1/3 49/1/3
f 51/2/3 50/2/3 49/2/3
f 52/2/3 50/2/3 51/2/3
f 53/1/3 52/1/3 51/1/3
f 54/1/3 52/1/3 53/1/3
f 55/2/3 54/2/3 53/2/3
f 56/2/3 54/2/3 55/2/3
f 57/1/3 56/1/3 55/1/3
f 58/1/3 56/1/3 57/1/3
f 59/2/3 58/2/3 57/2/3
f 60/2/3 58/2/3 59/2/3
f 61/1/3 60/1/3 59/1/3
f 62/1/3 60/1/3 61/1/3
f 63/2/3 62/2/3 61/2/3
f 64/2/3 62/2/3 63/2/3
f 65/1/3 64/1/3 63/1/3
f 66/1/3 64/1/3 65/1/3
f 67/2/3 66/2/3 65/2/3
f 68/2/3 66/2/3 67/2/3
f 69/1/4 70/1/4 71/1/4
f 71/1/4 70/1/4 72/1/4
f 71/2/4 72/2/4 73/2/4
f 73/2/4 72/2/4 74/2/4
f 73/1/4 74/1/4 75/1/4
f 75/1/4 74/1/4 76/1/4
f 75/2/4 76/2/4 77/2/4
f 77/2/4 76/2/4 78/2/4
f 77/1/4 78/1/4 79/1/4
f 79/1/4 78/1/4 80/1/4
f 79/2/4 80/2/4 81/2/4
f 81/2/4 80/2/4 82/2/4
f 81/1/4 82/1/4 83/1/4
f 83/1/4 82/1/4 84/1/4
f 83/2/4 84/2/4 85/2/4
f 85/2/4 84/2/4 86/2/4
f 85/1/4 86/1/4 87/1/4
f 87/1/4 86/1/4 88/1/4
f 87/2/4 88/2/4 89/2/4
f 89/2/4 88/2/4 90/2/4
f 89/1/4 90/1/4 91/1/4
f 91/1/4 90/1/4 92/1/4
f 91/2/4 92/2/4 93/2/4
f 93/2/4 92/2/4 94/2/4
f 93/1/4 94/1/4 95/1/4
f 95/1/4 94/1/4 96/1/4
f 95/2/4 96/2/4 97/2/4
f 97/2/4 96/2/4 98/2/4
f 97/1/4 98/1/4 99/1/4
f 99/1/4 98/1/4 100/1/4
f 99/2/4 100/2/4 101/2/4
f 101/2/4 100/2/4 102/2/4
f 101/1/4 102/1/4 103/1/4
f 103/1/4 102/1/4 104/1/4
f 103/3/4 104/3/4 105/3/4
f 105/3/4 104/3/4 106/3/4
f 136/1/5 124/1/5 123/1/5
f 137/2/5 125/2/5 124/2/5
f 137/1/5 124/1/5 136/1/5
f 138/1/5 126/1/5 125/1/5
f 138/2/5 125/2/5 137/2/5
f 139/2/5 127/2/5 126/2/5
f 139/1/5 126/1/5 138/1/5
f 140/1/5 128/1/5 127/1/5
f 140/2/5 127/2/5 139/2/5
f 141/2/5 129/2/5 128/2/5
f 141/1/5 128/1/5 140/1/5
f 142/1/5 130/1/5 129/1/5
f 142/2/5 129/2/5 141/2/5
f 143/2/5 131/2/5 130/2/5
f 143/1/5 130/1/5 142/1/5
f 144/1/5 132/1/5 131/1/5
f 144/2/5 131/2/5 143/2/5
f 145/2/5 133/2/5 132/2/5
f 145/1/5 132/1/5 144/1/5
f 146/1/5 134/1/5 133/1/5
f 146/2/5 133/2/5 145/2/5
f 147/2/5 135/2/5 134/2/5
f 147/1/5 134/1/5 146/1/5
f 148/2/5 135/2/5 147/2/5
f 149/1/5 108/1/5 107/1/5
f 150/2/5 109/2/5 108/2/5
f 150/1/5 108/1/5 149/1/5
f 151/1/5 110/1/5 109/1/5
f 151/2/5 109/2/5 150/2/5
f 152/2/5 111/2/5 110/2/5
f 152/1/5 110/1/5 151/1/5
f 153/1/5 112/1/5 111/1/5
f 153/2/5 111/2/5 152/2/5
f 154/2/5 113/2/5 112/2/5
f 154/1/5 112/1/5 153/1/5
f 155/1/5 114/1/5 113/1/5
f 155/2/5 113/2/5 154/2/5
f 156/2/5 115/2/5 114/2/5
f 156/1/5 114/1/5 155/1/5
f 157/1/5 116/1/5 115/1/5
f 157/2/5 115/2/5 156/2/5
f 158/2/5 117/2/5 116/2/5
f 158/1/5 116/1/5 157/1/5
f 159/1/5 118/1/5 117/1/5
f 159/2/5 117/2/5 158/2/5
f 160/2/5 119/2/5 118/2/5
f 160/1/5 118/1/5 159/1/5
f 161/1/5 120/1/5 119/1/5
f 161/2/5 119/2/5 160/2/5
f 162/2/5 121/2/5 120/2/5
f 162/1/5 120/1/5 161/1/5
f 163/1/5 122/1/5 121/1/5
f 163/2/5 121/2/5 162/2/5
f 164/2/5 123/2/5 122/2/5
f 164/1/5 122/1/5 163/1/5
f 165/1/5 136/1/5 123/1/5
f 165/2/5 123/2/5 164/2/5
f 166/3/5 146/3/5 145/3/5
f 166/1/5 136/1/5 165/1/5
f 166/3/5 137/3/5 136/3/5
f 166/3/5 148/3/5 147/3/5
f 166/3/5 147/3/5 146/3/5
f 166/3/5 145/3/5 144/3/5
f 166/3/5 144/3/5 143/3/5
f 166/3/5 143/3/5 142/3/5
f 166/3/5 142/3/5 141/3/5
f 166/3/5 141/3/5 140/3/5
f 166/3/5 140/3/5 139/3/5
f 166/3/5 139/3/5 138/3/5
f 166/3/5 138/3/5 137/3/5
f 167/3/5 148/3/5 166/3/5
f 184/1/6 185/1/6 197/1/6
f 185/2/6 186/2/6 198/2/6
f 197/1/6 185/1/6 198/1/6
f 186/1/6 187/1/6 199/1/6
f 198/2/6 186/2/6 199/2/6
f 187/2/6 188/2/6 200/2/6
f 199/1/6 187/1/6 200/1/6
f 188/1/6 189/1/6 201/1/6
f 200/2/6 188/2/6 201/2/6
f 189/2/6 190/2/6 202/2/6
f 201/1/6 189/1/6 202/1/6
f 190/1/6 191/1/6 203/1/6
f 202/2/6 190/2/6 203/2/6
f 191/2/6 192/2/6 204/2/6
f 203/1/6 191/1/6 204/1/6
f 192/1/6 193/1/6 205/1/6
f 204/2/6 192/2/6 205/2/6
f 193/2/6 194/2/6 206/2/6
f 205/1/6 193/1/6 206/1/6
f 194/1/6 195/1/6 207/1/6
f 206/2/6 194/2/6 207/2/6
f 195/2/6 196/2/6 208/2/6
f 207/1/6 195/1/6 208/1/6
f 208/2/6 196/2/6 209/2/6
f 168/1/6 169/1/6 210/1/6
f 169/2/6 170/2/6 211/2/6
f 210/1/6 169/1/6 211/1/6
f 170/1/6 171/1/6 212/1/6
f 211/2/6 170/2/6 212/2/6
f 171/2/6 172/2/6 213/2/6
f 212/1/6 171/1/6 213/1/6
f 172/1/6 173/1/6 214/1/6
f 213/2/6 172/2/6 214/2/6
f 173/2/6 174/2/6 215/2/6
f 214/1/6 173/1/6 215/1/6
f 174/1/6 175/1/6 216/1/6
f 215/2/6 174/2/6 216/2/6
f 175/2/6 176/2/6 217/2/6
f 216/1/6 175/1/6 217/1/6
f 176/1/6 177/1/6 218/1/6
f 217/2/6 176/2/6 218/2/6
f 177/2/6 178/2/6 219/2/6
f 218/1/6 177/1/6 219/1/6
f 178/1/6 179/1/6 220/1/6
f 219/2/6 178/2/6 220/2/6
f 179/2/6 180/2/6 221/2/6
f 220/1/6 179/1/6 221/1/6
f 180/1/6 181/1/6 222/1/6
f 221/2/6 180/2/6 222/2/6
f 181/2/6 182/2/6 223/2/6
f 222/1/6 181/1/6 223/1/6
f 182/1/6 183/1/6 224/1/6
f 223/2/6 182/2/6 224/2/6
f 183/2/6 184/2/6 225/2/6
f 224/1/6 183/1/6 225/1/6
f 184/1/6 197/1/6 226/1/6
f 225/2/6 184/2/6 226/2/6
f 206/3/6 207/3/6 227/3/6
f 226/1/6 197/1/6 227/1/6
f 197/3/6 198/3/6 227/3/6
f 208/3/6 209/3/6 227/3/6
f 207/3/6 208/3/6 227/3/6
f 205/3/6 206/3/6 227/3/6
f 204/3/6 205/3/6 227/3/6
f 203/3/6 204/3/6 227/3/6
f 202/3/6 203/3/6 227/3/6
f 201/3/6 202/3/6 227/3/6
f 200/3/6 201/3/6 227/3/6
f 199/3/6 200/3/6 227/3/6
f 198/3/6 199/3/6 227/3/6
f 227/3/6 209/3/6 228/3/6
