# MagicaVoxel @ Ephtracy

# group
g classic:floor-bathroom-cutout

# material
mtllib default-material.mtl
usemtl palette

# normals
vn -1 0 0
vn 1 0 0
vn 0 0 1
vn 0 0 -1
vn 0 -1 0
vn 0 1 0

# texcoords
vt 0.353516 0.5
vt 0.357422 0.5
vt 0.919922 0.5

# verts
v -56 0 56
v -56 0 -56
v -56 1 56
v -56 1 -56
v -31 0 3
v -31 0 2
v -31 1 3
v -31 1 2
v -30 0 4
v -30 0 3
v -30 0 2
v -30 0 -0
v -30 1 4
v -30 1 3
v -30 1 2
v -30 1 -0
v 8 0 -16
v 8 0 -17
v 8 1 -16
v 8 1 -17
v 9 0 -36
v 9 0 -37
v 9 1 -36
v 9 1 -37
v 10 0 -35
v 10 0 -36
v 10 1 -35
v 10 1 -36
v 11 0 -17
v 11 0 -35
v 11 1 -17
v 11 1 -35
v -49 0 3
v -49 0 2
v -49 1 3
v -49 1 2
v -48 0 2
v -48 0 -0
v -48 1 2
v -48 1 -0
v -47 0 4
v -47 0 3
v -47 1 4
v -47 1 3
v 7 0 -16
v 7 0 -36
v 7 1 -16
v 7 1 -36
v 8 0 -36
v 8 0 -37
v 8 1 -36
v 8 1 -37
v 56 0 56
v 56 0 3
v 56 0 -56
v 56 1 56
v 56 1 3
v 56 1 -56
v -56 0 56
v -56 1 56
v -52 0 56
v -52 1 56
v -48 0 56
v -48 1 56
v -44 0 56
v -44 1 56
v -40 0 56
v -40 1 56
v -36 0 56
v -36 1 56
v -32 0 56
v -32 1 56
v -28 0 56
v -28 1 56
v -24 0 56
v -24 1 56
v -20 0 56
v -20 1 56
v -16 0 56
v -16 1 56
v -12 0 56
v -12 1 56
v -8 0 56
v -8 1 56
v -4 0 56
v -4 1 56
v 0 0 56
v 0 1 56
v 4 0 56
v 4 1 56
v 8 0 56
v 8 1 56
v 12 0 56
v 12 1 56
v 16 0 56
v 16 1 56
v 20 0 56
v 20 1 56
v 24 0 56
v 24 1 56
v 28 0 56
v 28 1 56
v 32 0 56
v 32 1 56
v 36 0 56
v 36 1 56
v 40 0 56
v 40 1 56
v 44 0 56
v 44 1 56
v 48 0 56
v 48 1 56
v 52 0 56
v 52 1 56
v 56 0 56
v 56 1 56
v -31 0 3
v -31 1 3
v -30 0 3
v -30 1 3
v -49 0 2
v -49 1 2
v -48 0 2
v -48 1 2
v -48 0 -0
v -48 1 -0
v -44 0 -0
v -44 1 -0
v -40 0 -0
v -40 1 -0
v -36 0 -0
v -36 1 -0
v -32 0 -0
v -32 1 -0
v -30 0 -0
v -30 1 -0
v 10 0 -35
v 10 1 -35
v 11 0 -35
v 11 1 -35
v 7 0 -36
v 7 1 -36
v 8 0 -36
v 8 1 -36
v 9 0 -36
v 9 1 -36
v 10 0 -36
v 10 1 -36
v 8 0 -37
v 8 1 -37
v 9 0 -37
v 9 1 -37
v -47 0 4
v -47 1 4
v -44 0 4
v -44 1 4
v -40 0 4
v -40 1 4
v -36 0 4
v -36 1 4
v -32 0 4
v -32 1 4
v -30 0 4
v -30 1 4
v -49 0 3
v -49 1 3
v -48 0 3
v -48 1 3
v -47 0 3
v -47 1 3
v -31 0 2
v -31 1 2
v -30 0 2
v -30 1 2
v 7 0 -16
v 7 1 -16
v 8 0 -16
v 8 1 -16
v 8 0 -17
v 8 1 -17
v 11 0 -17
v 11 1 -17
v -56 0 -56
v -56 1 -56
v -52 0 -56
v -52 1 -56
v -48 0 -56
v -48 1 -56
v -44 0 -56
v -44 1 -56
v -40 0 -56
v -40 1 -56
v -36 0 -56
v -36 1 -56
v -32 0 -56
v -32 1 -56
v -28 0 -56
v -28 1 -56
v -24 0 -56
v -24 1 -56
v -20 0 -56
v -20 1 -56
v -16 0 -56
v -16 1 -56
v -12 0 -56
v -12 1 -56
v -8 0 -56
v -8 1 -56
v -4 0 -56
v -4 1 -56
v 0 0 -56
v 0 1 -56
v 4 0 -56
v 4 1 -56
v 8 0 -56
v 8 1 -56
v 11 0 -56
v 11 1 -56
v 56 0 -56
v 56 1 -56
v -56 0 56
v -52 0 56
v -48 0 56
v -44 0 56
v -40 0 56
v -36 0 56
v -32 0 56
v -28 0 56
v -24 0 56
v -20 0 56
v -16 0 56
v -12 0 56
v -8 0 56
v -4 0 56
v 0 0 56
v 4 0 56
v 8 0 56
v 12 0 56
v 16 0 56
v 20 0 56
v 24 0 56
v 28 0 56
v 32 0 56
v 36 0 56
v 40 0 56
v 44 0 56
v 48 0 56
v 52 0 56
v 56 0 56
v -47 0 4
v -44 0 4
v -40 0 4
v -36 0 4
v -32 0 4
v -30 0 4
v -49 0 3
v -48 0 3
v -47 0 3
v -31 0 3
v -30 0 3
v 22 0 3
v 24 0 3
v 28 0 3
v 32 0 3
v 36 0 3
v 40 0 3
v 44 0 3
v 48 0 3
v 52 0 3
v 56 0 3
v -49 0 2
v -48 0 2
v -31 0 2
v -30 0 2
v 11 0 2
v 12 0 2
v 16 0 2
v 19 0 2
v 19 0 1
v 20 0 1
v 22 0 1
v -48 0 -0
v -44 0 -0
v -40 0 -0
v -36 0 -0
v -32 0 -0
v -30 0 -0
v 7 0 -16
v 8 0 -16
v 8 0 -17
v 11 0 -17
v 10 0 -35
v 11 0 -35
v 7 0 -36
v 8 0 -36
v 9 0 -36
v 10 0 -36
v 8 0 -37
v 9 0 -37
v -56 0 -56
v -52 0 -56
v -48 0 -56
v -44 0 -56
v -40 0 -56
v -36 0 -56
v -32 0 -56
v -28 0 -56
v -24 0 -56
v -20 0 -56
v -16 0 -56
v -12 0 -56
v -8 0 -56
v -4 0 -56
v 0 0 -56
v 4 0 -56
v 8 0 -56
v 11 0 -56
v 56 0 -56
v -56 1 56
v -52 1 56
v -48 1 56
v -44 1 56
v -40 1 56
v -36 1 56
v -32 1 56
v -28 1 56
v -24 1 56
v -20 1 56
v -16 1 56
v -12 1 56
v -8 1 56
v -4 1 56
v 0 1 56
v 4 1 56
v 8 1 56
v 12 1 56
v 16 1 56
v 20 1 56
v 24 1 56
v 28 1 56
v 32 1 56
v 36 1 56
v 40 1 56
v 44 1 56
v 48 1 56
v 52 1 56
v 56 1 56
v -47 1 4
v -44 1 4
v -40 1 4
v -36 1 4
v -32 1 4
v -30 1 4
v -49 1 3
v -48 1 3
v -47 1 3
v -31 1 3
v -30 1 3
v 22 1 3
v 24 1 3
v 28 1 3
v 32 1 3
v 36 1 3
v 40 1 3
v 44 1 3
v 48 1 3
v 52 1 3
v 56 1 3
v -49 1 2
v -48 1 2
v -31 1 2
v -30 1 2
v 11 1 2
v 12 1 2
v 16 1 2
v 19 1 2
v 19 1 1
v 20 1 1
v 22 1 1
v -48 1 -0
v -44 1 -0
v -40 1 -0
v -36 1 -0
v -32 1 -0
v -30 1 -0
v 7 1 -16
v 8 1 -16
v 8 1 -17
v 11 1 -17
v 10 1 -35
v 11 1 -35
v 7 1 -36
v 8 1 -36
v 9 1 -36
v 10 1 -36
v 8 1 -37
v 9 1 -37
v -56 1 -56
v -52 1 -56
v -48 1 -56
v -44 1 -56
v -40 1 -56
v -36 1 -56
v -32 1 -56
v -28 1 -56
v -24 1 -56
v -20 1 -56
v -16 1 -56
v -12 1 -56
v -8 1 -56
v -4 1 -56
v 0 1 -56
v 4 1 -56
v 8 1 -56
v 11 1 -56
v 56 1 -56

# faces
f 3/1/1 2/1/1 1/1/1
f 4/1/1 2/1/1 3/1/1
f 7/1/1 6/1/1 5/1/1
f 8/1/1 6/1/1 7/1/1
f 13/1/1 10/1/1 9/1/1
f 14/1/1 10/1/1 13/1/1
f 15/1/1 12/1/1 11/1/1
f 16/1/1 12/1/1 15/1/1
f 19/1/1 18/1/1 17/1/1
f 20/1/1 18/1/1 19/1/1
f 23/1/1 22/1/1 21/1/1
f 24/1/1 22/1/1 23/1/1
f 27/1/1 26/1/1 25/1/1
f 28/1/1 26/1/1 27/1/1
f 31/3/1 30/3/1 29/3/1
f 32/3/1 30/3/1 31/3/1
f 33/2/2 34/2/2 35/2/2
f 35/2/2 34/2/2 36/2/2
f 37/2/2 38/2/2 39/2/2
f 39/2/2 38/2/2 40/2/2
f 41/1/2 42/1/2 43/1/2
f 43/1/2 42/1/2 44/1/2
f 45/2/2 46/2/2 47/2/2
f 47/2/2 46/2/2 48/2/2
f 49/2/2 50/2/2 51/2/2
f 51/2/2 50/2/2 52/2/2
f 53/2/2 54/2/2 56/2/2
f 54/3/2 55/3/2 57/3/2
f 56/2/2 54/2/2 57/2/2
f 57/3/2 55/3/2 58/3/2
f 61/1/3 60/1/3 59/1/3
f 62/1/3 60/1/3 61/1/3
f 63/2/3 62/2/3 61/2/3
f 64/2/3 62/2/3 63/2/3
f 65/1/3 64/1/3 63/1/3
f 66/1/3 64/1/3 65/1/3
f 67/2/3 66/2/3 65/2/3
f 68/2/3 66/2/3 67/2/3
f 69/1/3 68/1/3 67/1/3
f 70/1/3 68/1/3 69/1/3
f 71/2/3 70/2/3 69/2/3
f 72/2/3 70/2/3 71/2/3
f 73/1/3 72/1/3 71/1/3
f 74/1/3 72/1/3 73/1/3
f 75/2/3 74/2/3 73/2/3
f 76/2/3 74/2/3 75/2/3
f 77/1/3 76/1/3 75/1/3
f 78/1/3 76/1/3 77/1/3
f 79/2/3 78/2/3 77/2/3
f 80/2/3 78/2/3 79/2/3
f 81/1/3 80/1/3 79/1/3
f 82/1/3 80/1/3 81/1/3
f 83/2/3 82/2/3 81/2/3
f 84/2/3 82/2/3 83/2/3
f 85/1/3 84/1/3 83/1/3
f 86/1/3 84/1/3 85/1/3
f 87/2/3 86/2/3 85/2/3
f 88/2/3 86/2/3 87/2/3
f 89/1/3 88/1/3 87/1/3
f 90/1/3 88/1/3 89/1/3
f 91/2/3 90/2/3 89/2/3
f 92/2/3 90/2/3 91/2/3
f 93/1/3 92/1/3 91/1/3
f 94/1/3 92/1/3 93/1/3
f 95/2/3 94/2/3 93/2/3
f 96/2/3 94/2/3 95/2/3
f 97/1/3 96/1/3 95/1/3
f 98/1/3 96/1/3 97/1/3
f 99/2/3 98/2/3 97/2/3
f 100/2/3 98/2/3 99/2/3
f 101/1/3 100/1/3 99/1/3
f 102/1/3 100/1/3 101/1/3
f 103/2/3 102/2/3 101/2/3
f 104/2/3 102/2/3 103/2/3
f 105/1/3 104/1/3 103/1/3
f 106/1/3 104/1/3 105/1/3
f 107/2/3 106/2/3 105/2/3
f 108/2/3 106/2/3 107/2/3
f 109/1/3 108/1/3 107/1/3
f 110/1/3 108/1/3 109/1/3
f 111/2/3 110/2/3 109/2/3
f 112/2/3 110/2/3 111/2/3
f 113/1/3 112/1/3 111/1/3
f 114/1/3 112/1/3 113/1/3
f 115/2/3 114/2/3 113/2/3
f 116/2/3 114/2/3 115/2/3
f 119/1/3 118/1/3 117/1/3
f 120/1/3 118/1/3 119/1/3
f 123/2/3 122/2/3 121/2/3
f 124/2/3 122/2/3 123/2/3
f 127/1/3 126/1/3 125/1/3
f 128/1/3 126/1/3 127/1/3
f 129/2/3 128/2/3 127/2/3
f 130/2/3 128/2/3 129/2/3
f 131/1/3 130/1/3 129/1/3
f 132/1/3 130/1/3 131/1/3
f 133/2/3 132/2/3 131/2/3
f 134/2/3 132/2/3 133/2/3
f 135/1/3 134/1/3 133/1/3
f 136/1/3 134/1/3 135/1/3
f 139/1/3 138/1/3 137/1/3
f 140/1/3 138/1/3 139/1/3
f 143/2/3 142/2/3 141/2/3
f 144/2/3 142/2/3 143/2/3
f 147/1/3 146/1/3 145/1/3
f 148/1/3 146/1/3 147/1/3
f 151/1/3 150/1/3 149/1/3
f 152/1/3 150/1/3 151/1/3
f 153/1/4 154/1/4 155/1/4
f 155/1/4 154/1/4 156/1/4
f 155/2/4 156/2/4 157/2/4
f 157/2/4 156/2/4 158/2/4
f 157/1/4 158/1/4 159/1/4
f 159/1/4 158/1/4 160/1/4
f 159/2/4 160/2/4 161/2/4
f 161/2/4 160/2/4 162/2/4
f 161/1/4 162/1/4 163/1/4
f 163/1/4 162/1/4 164/1/4
f 165/2/4 166/2/4 167/2/4
f 167/2/4 166/2/4 168/2/4
f 167/1/4 168/1/4 169/1/4
f 169/1/4 168/1/4 170/1/4
f 171/1/4 172/1/4 173/1/4
f 173/1/4 172/1/4 174/1/4
f 175/2/4 176/2/4 177/2/4
f 177/2/4 176/2/4 178/2/4
f 179/1/4 180/1/4 181/1/4
f 181/1/4 180/1/4 182/1/4
f 183/1/4 184/1/4 185/1/4
f 185/1/4 184/1/4 186/1/4
f 185/2/4 186/2/4 187/2/4
f 187/2/4 186/2/4 188/2/4
f 187/1/4 188/1/4 189/1/4
f 189/1/4 188/1/4 190/1/4
f 189/2/4 190/2/4 191/2/4
f 191/2/4 190/2/4 192/2/4
f 191/1/4 192/1/4 193/1/4
f 193/1/4 192/1/4 194/1/4
f 193/2/4 194/2/4 195/2/4
f 195/2/4 194/2/4 196/2/4
f 195/1/4 196/1/4 197/1/4
f 197/1/4 196/1/4 198/1/4
f 197/2/4 198/2/4 199/2/4
f 199/2/4 198/2/4 200/2/4
f 199/1/4 200/1/4 201/1/4
f 201/1/4 200/1/4 202/1/4
f 201/2/4 202/2/4 203/2/4
f 203/2/4 202/2/4 204/2/4
f 203/1/4 204/1/4 205/1/4
f 205/1/4 204/1/4 206/1/4
f 205/2/4 206/2/4 207/2/4
f 207/2/4 206/2/4 208/2/4
f 207/1/4 208/1/4 209/1/4
f 209/1/4 208/1/4 210/1/4
f 209/2/4 210/2/4 211/2/4
f 211/2/4 210/2/4 212/2/4
f 211/1/4 212/1/4 213/1/4
f 213/1/4 212/1/4 214/1/4
f 213/2/4 214/2/4 215/2/4
f 215/2/4 214/2/4 216/2/4
f 215/1/4 216/1/4 217/1/4
f 217/1/4 216/1/4 218/1/4
f 217/3/4 218/3/4 219/3/4
f 219/3/4 218/3/4 220/3/4
f 250/1/5 224/1/5 223/1/5
f 251/2/5 225/2/5 224/2/5
f 251/1/5 224/1/5 250/1/5
f 252/1/5 226/1/5 225/1/5
f 252/2/5 225/2/5 251/2/5
f 253/2/5 227/2/5 226/2/5
f 253/1/5 226/1/5 252/1/5
f 254/1/5 228/1/5 227/1/5
f 254/2/5 227/2/5 253/2/5
f 255/1/5 228/1/5 254/1/5
f 256/2/5 223/2/5 222/2/5
f 257/1/5 250/1/5 223/1/5
f 257/2/5 223/2/5 256/2/5
f 258/1/5 250/1/5 257/1/5
f 260/1/5 228/1/5 255/1/5
f 261/2/5 241/2/5 240/2/5
f 262/1/5 242/1/5 241/1/5
f 262/2/5 241/2/5 261/2/5
f 263/2/5 243/2/5 242/2/5
f 263/1/5 242/1/5 262/1/5
f 264/1/5 244/1/5 243/1/5
f 264/2/5 243/2/5 263/2/5
f 265/2/5 245/2/5 244/2/5
f 265/1/5 244/1/5 264/1/5
f 266/1/5 246/1/5 245/1/5
f 266/2/5 245/2/5 265/2/5
f 267/2/5 247/2/5 246/2/5
f 267/1/5 246/1/5 266/1/5
f 268/1/5 248/1/5 247/1/5
f 268/2/5 247/2/5 267/2/5
f 269/2/5 249/2/5 248/2/5
f 269/1/5 248/1/5 268/1/5
f 270/2/5 249/2/5 269/2/5
f 271/2/5 256/2/5 222/2/5
f 273/1/5 260/1/5 259/1/5
f 274/1/5 228/1/5 260/1/5
f 274/1/5 260/1/5 273/1/5
f 275/1/5 238/1/5 237/1/5
f 276/2/5 239/2/5 238/2/5
f 276/1/5 238/1/5 275/1/5
f 277/1/5 240/1/5 239/1/5
f 277/2/5 239/2/5 276/2/5
f 278/1/5 240/1/5 277/1/5
f 279/3/5 276/3/5 275/3/5
f 279/1/5 240/1/5 278/1/5
f 279/3/5 278/3/5 277/3/5
f 279/3/5 277/3/5 276/3/5
f 280/2/5 261/2/5 240/2/5
f 280/1/5 240/1/5 279/1/5
f 281/3/5 268/3/5 267/3/5
f 281/2/5 261/2/5 280/2/5
f 281/3/5 270/3/5 269/3/5
f 281/3/5 267/3/5 266/3/5
f 281/3/5 266/3/5 265/3/5
f 281/3/5 269/3/5 268/3/5
f 281/3/5 264/3/5 263/3/5
f 281/3/5 263/3/5 262/3/5
f 281/3/5 262/3/5 261/3/5
f 281/3/5 265/3/5 264/3/5
f 282/2/5 272/2/5 271/2/5
f 287/1/5 228/1/5 274/1/5
f 288/2/5 237/2/5 236/2/5
f 289/1/5 275/1/5 237/1/5
f 289/2/5 237/2/5 288/2/5
f 290/1/5 275/1/5 289/1/5
f 291/3/5 280/3/5 279/3/5
f 291/1/5 275/1/5 290/1/5
f 291/3/5 279/3/5 275/3/5
f 291/3/5 281/3/5 280/3/5
f 293/3/5 281/3/5 291/3/5
f 294/2/5 288/2/5 236/2/5
f 297/1/5 293/1/5 292/1/5
f 298/2/5 295/2/5 294/2/5
f 299/1/5 297/1/5 296/1/5
f 300/1/5 222/1/5 221/1/5
f 301/2/5 271/2/5 222/2/5
f 301/1/5 222/1/5 300/1/5
f 301/2/5 282/2/5 271/2/5
f 302/1/5 283/1/5 282/1/5
f 302/2/5 282/2/5 301/2/5
f 303/2/5 284/2/5 283/2/5
f 303/1/5 283/1/5 302/1/5
f 304/1/5 285/1/5 284/1/5
f 304/2/5 284/2/5 303/2/5
f 305/2/5 286/2/5 285/2/5
f 305/1/5 285/1/5 304/1/5
f 306/1/5 287/1/5 286/1/5
f 306/2/5 286/2/5 305/2/5
f 307/1/5 228/1/5 287/1/5
f 307/1/5 287/1/5 306/1/5
f 307/2/5 229/2/5 228/2/5
f 308/1/5 230/1/5 229/1/5
f 308/2/5 229/2/5 307/2/5
f 309/2/5 231/2/5 230/2/5
f 309/1/5 230/1/5 308/1/5
f 310/1/5 232/1/5 231/1/5
f 310/2/5 231/2/5 309/2/5
f 311/2/5 233/2/5 232/2/5
f 311/1/5 232/1/5 310/1/5
f 312/1/5 234/1/5 233/1/5
f 312/2/5 233/2/5 311/2/5
f 313/2/5 235/2/5 234/2/5
f 313/1/5 234/1/5 312/1/5
f 314/1/5 236/1/5 235/1/5
f 314/2/5 235/2/5 313/2/5
f 315/2/5 298/2/5 294/2/5
f 315/1/5 236/1/5 314/1/5
f 315/2/5 294/2/5 236/2/5
f 316/1/5 299/1/5 298/1/5
f 316/2/5 298/2/5 315/2/5
f 317/1/5 297/1/5 299/1/5
f 317/1/5 299/1/5 316/1/5
f 317/3/5 281/3/5 293/3/5
f 317/1/5 293/1/5 297/1/5
f 318/3/5 270/3/5 281/3/5
f 318/3/5 281/3/5 317/3/5
f 321/1/6 322/1/6 348/1/6
f 322/2/6 323/2/6 349/2/6
f 348/1/6 322/1/6 349/1/6
f 323/1/6 324/1/6 350/1/6
f 349/2/6 323/2/6 350/2/6
f 324/2/6 325/2/6 351/2/6
f 350/1/6 324/1/6 351/1/6
f 325/1/6 326/1/6 352/1/6
f 351/2/6 325/2/6 352/2/6
f 352/1/6 326/1/6 353/1/6
f 320/2/6 321/2/6 354/2/6
f 321/1/6 348/1/6 355/1/6
f 354/2/6 321/2/6 355/2/6
f 355/1/6 348/1/6 356/1/6
f 353/1/6 326/1/6 358/1/6
f 338/2/6 339/2/6 359/2/6
f 339/1/6 340/1/6 360/1/6
f 359/2/6 339/2/6 360/2/6
f 340/2/6 341/2/6 361/2/6
f 360/1/6 340/1/6 361/1/6
f 341/1/6 342/1/6 362/1/6
f 361/2/6 341/2/6 362/2/6
f 342/2/6 343/2/6 363/2/6
f 362/1/6 342/1/6 363/1/6
f 343/1/6 344/1/6 364/1/6
f 363/2/6 343/2/6 364/2/6
f 344/2/6 345/2/6 365/2/6
f 364/1/6 344/1/6 365/1/6
f 345/1/6 346/1/6 366/1/6
f 365/2/6 345/2/6 366/2/6
f 346/2/6 347/2/6 367/2/6
f 366/1/6 346/1/6 367/1/6
f 367/2/6 347/2/6 368/2/6
f 320/2/6 354/2/6 369/2/6
f 357/1/6 358/1/6 371/1/6
f 358/1/6 326/1/6 372/1/6
f 371/1/6 358/1/6 372/1/6
f 335/1/6 336/1/6 373/1/6
f 336/2/6 337/2/6 374/2/6
f 373/1/6 336/1/6 374/1/6
f 337/1/6 338/1/6 375/1/6
f 374/2/6 337/2/6 375/2/6
f 375/1/6 338/1/6 376/1/6
f 373/3/6 374/3/6 377/3/6
f 376/1/6 338/1/6 377/1/6
f 375/3/6 376/3/6 377/3/6
f 374/3/6 375/3/6 377/3/6
f 338/2/6 359/2/6 378/2/6
f 377/1/6 338/1/6 378/1/6
f 365/3/6 366/3/6 379/3/6
f 378/2/6 359/2/6 379/2/6
f 367/3/6 368/3/6 379/3/6
f 364/3/6 365/3/6 379/3/6
f 363/3/6 364/3/6 379/3/6
f 366/3/6 367/3/6 379/3/6
f 361/3/6 362/3/6 379/3/6
f 360/3/6 361/3/6 379/3/6
f 359/3/6 360/3/6 379/3/6
f 362/3/6 363/3/6 379/3/6
f 369/2/6 370/2/6 380/2/6
f 372/1/6 326/1/6 385/1/6
f 334/2/6 335/2/6 386/2/6
f 335/1/6 373/1/6 387/1/6
f 386/2/6 335/2/6 387/2/6
f 387/1/6 373/1/6 388/1/6
f 377/3/6 378/3/6 389/3/6
f 388/1/6 373/1/6 389/1/6
f 373/3/6 377/3/6 389/3/6
f 378/3/6 379/3/6 389/3/6
f 389/3/6 379/3/6 391/3/6
f 334/2/6 386/2/6 392/2/6
f 390/1/6 391/1/6 395/1/6
f 392/2/6 393/2/6 396/2/6
f 394/1/6 395/1/6 397/1/6
f 319/1/6 320/1/6 398/1/6
f 320/2/6 369/2/6 399/2/6
f 398/1/6 320/1/6 399/1/6
f 369/2/6 380/2/6 399/2/6
f 380/1/6 381/1/6 400/1/6
f 399/2/6 380/2/6 400/2/6
f 381/2/6 382/2/6 401/2/6
f 400/1/6 381/1/6 401/1/6
f 382/1/6 383/1/6 402/1/6
f 401/2/6 382/2/6 402/2/6
f 383/2/6 384/2/6 403/2/6
f 402/1/6 383/1/6 403/1/6
f 384/1/6 385/1/6 404/1/6
f 403/2/6 384/2/6 404/2/6
f 385/1/6 326/1/6 405/1/6
f 404/1/6 385/1/6 405/1/6
f 326/2/6 327/2/6 405/2/6
f 327/1/6 328/1/6 406/1/6
f 405/2/6 327/2/6 406/2/6
f 328/2/6 329/2/6 407/2/6
f 406/1/6 328/1/6 407/1/6
f 329/1/6 330/1/6 408/1/6
f 407/2/6 329/2/6 408/2/6
f 330/2/6 331/2/6 409/2/6
f 408/1/6 330/1/6 409/1/6
f 331/1/6 332/1/6 410/1/6
f 409/2/6 331/2/6 410/2/6
f 332/2/6 333/2/6 411/2/6
f 410/1/6 332/1/6 411/1/6
f 333/1/6 334/1/6 412/1/6
f 411/2/6 333/2/6 412/2/6
f 392/2/6 396/2/6 413/2/6
f 412/1/6 334/1/6 413/1/6
f 334/2/6 392/2/6 413/2/6
f 396/1/6 397/1/6 414/1/6
f 413/2/6 396/2/6 414/2/6
f 397/1/6 395/1/6 415/1/6
f 414/1/6 397/1/6 415/1/6
f 391/3/6 379/3/6 415/3/6
f 395/1/6 391/1/6 415/1/6
f 379/3/6 368/3/6 416/3/6
f 415/3/6 379/3/6 416/3/6
