# MagicaVoxel @ Ephtracy

# group
g classic:bathtub

# material
mtllib default-material.mtl
usemtl palette

# normals
vn -1 0 0
vn 1 0 0
vn 0 0 1
vn 0 0 -1
vn 0 -1 0
vn 0 1 0

# texcoords
vt 0.919922 0.5
vt 0.958984 0.5
vt 0.970703 0.5

# verts
v -19 0 3
v -19 0 -3
v -19 8 3
v -19 8 -3
v -18 0 5
v -18 0 3
v -18 0 -3
v -18 0 -5
v -18 8 5
v -18 8 3
v -18 8 -3
v -18 8 -5
v -17 0 6
v -17 0 5
v -17 0 -5
v -17 0 -6
v -17 8 6
v -17 8 5
v -17 8 -5
v -17 8 -6
v -16 0 7
v -16 0 6
v -16 0 -6
v -16 0 -7
v -16 8 7
v -16 8 6
v -16 8 -6
v -16 8 -7
v -15 0 8
v -15 0 7
v -15 0 -7
v -15 0 -8
v -15 8 8
v -15 8 7
v -15 8 -7
v -15 8 -8
v -13 0 9
v -13 0 8
v -13 0 -8
v -13 0 -9
v -13 8 9
v -13 8 8
v -13 8 -8
v -13 8 -9
v 12 30 2
v 12 30 -2
v 12 32 2
v 12 32 -2
v 13 2 7
v 13 2 6
v 13 2 -6
v 13 2 -7
v 13 8 7
v 13 8 6
v 13 8 -6
v 13 8 -7
v 14 2 6
v 14 2 5
v 14 2 -5
v 14 2 -6
v 14 8 6
v 14 8 5
v 14 8 -5
v 14 8 -6
v 15 2 5
v 15 2 4
v 15 2 -4
v 15 2 -5
v 15 8 5
v 15 8 4
v 15 8 -4
v 15 8 -5
v 16 2 4
v 16 2 3
v 16 2 -3
v 16 2 -4
v 16 8 4
v 16 8 3
v 16 8 -3
v 16 8 -4
v 17 2 3
v 17 2 -3
v 17 8 3
v 17 8 1
v 17 8 -1
v 17 8 -3
v 17 30 1
v 17 30 -1
v -17 2 3
v -17 2 -3
v -17 8 3
v -17 8 -3
v -16 2 4
v -16 2 3
v -16 2 -3
v -16 2 -4
v -16 8 4
v -16 8 3
v -16 8 -3
v -16 8 -4
v -15 2 5
v -15 2 4
v -15 2 -4
v -15 2 -5
v -15 8 5
v -15 8 4
v -15 8 -4
v -15 8 -5
v -14 2 6
v -14 2 5
v -14 2 -5
v -14 2 -6
v -14 8 6
v -14 8 5
v -14 8 -5
v -14 8 -6
v -13 2 7
v -13 2 6
v -13 2 -6
v -13 2 -7
v -13 8 7
v -13 8 6
v -13 8 -6
v -13 8 -7
v 13 0 9
v 13 0 8
v 13 0 -8
v 13 0 -9
v 13 8 9
v 13 8 8
v 13 8 -8
v 13 8 -9
v 15 0 8
v 15 0 7
v 15 0 -7
v 15 0 -8
v 15 8 8
v 15 8 7
v 15 8 -7
v 15 8 -8
v 16 0 7
v 16 0 6
v 16 0 -6
v 16 0 -7
v 16 8 7
v 16 8 6
v 16 8 -6
v 16 8 -7
v 16 30 2
v 16 30 1
v 16 30 -1
v 16 30 -2
v 16 32 2
v 16 32 1
v 16 32 -1
v 16 32 -2
v 17 0 6
v 17 0 5
v 17 0 -5
v 17 0 -6
v 17 8 6
v 17 8 5
v 17 8 -5
v 17 8 -6
v 18 0 5
v 18 0 3
v 18 0 -3
v 18 0 -5
v 18 8 5
v 18 8 3
v 18 8 -3
v 18 8 -5
v 19 0 3
v 19 0 -3
v 19 8 3
v 19 8 1
v 19 8 -1
v 19 8 -3
v 19 32 1
v 19 32 -1
v -13 0 9
v -13 8 9
v 13 0 9
v 13 8 9
v -15 0 8
v -15 8 8
v -13 0 8
v -13 8 8
v 13 0 8
v 13 8 8
v 15 0 8
v 15 8 8
v -16 0 7
v -16 8 7
v -15 0 7
v -15 8 7
v 15 0 7
v 15 8 7
v 16 0 7
v 16 8 7
v -17 0 6
v -17 8 6
v -16 0 6
v -16 8 6
v 16 0 6
v 16 8 6
v 17 0 6
v 17 8 6
v -18 0 5
v -18 8 5
v -17 0 5
v -17 8 5
v 17 0 5
v 17 8 5
v 18 0 5
v 18 8 5
v -19 0 3
v -19 8 3
v -18 0 3
v -18 8 3
v 18 0 3
v 18 8 3
v 19 0 3
v 19 8 3
v 12 30 2
v 12 32 2
v 16 30 2
v 16 32 2
v 16 30 1
v 16 32 1
v 17 8 1
v 17 30 1
v 19 8 1
v 19 32 1
v -17 2 -3
v -17 8 -3
v -16 2 -3
v -16 8 -3
v 16 2 -3
v 16 8 -3
v 17 2 -3
v 17 8 -3
v -16 2 -4
v -16 8 -4
v -15 2 -4
v -15 8 -4
v 15 2 -4
v 15 8 -4
v 16 2 -4
v 16 8 -4
v -15 2 -5
v -15 8 -5
v -14 2 -5
v -14 8 -5
v 14 2 -5
v 14 8 -5
v 15 2 -5
v 15 8 -5
v -14 2 -6
v -14 8 -6
v -13 2 -6
v -13 8 -6
v 13 2 -6
v 13 8 -6
v 14 2 -6
v 14 8 -6
v -13 2 -7
v -13 8 -7
v 13 2 -7
v 13 8 -7
v -13 2 7
v -13 8 7
v 13 2 7
v 13 8 7
v -14 2 6
v -14 8 6
v -13 2 6
v -13 8 6
v 13 2 6
v 13 8 6
v 14 2 6
v 14 8 6
v -15 2 5
v -15 8 5
v -14 2 5
v -14 8 5
v 14 2 5
v 14 8 5
v 15 2 5
v 15 8 5
v -16 2 4
v -16 8 4
v -15 2 4
v -15 8 4
v 15 2 4
v 15 8 4
v 16 2 4
v 16 8 4
v -17 2 3
v -17 8 3
v -16 2 3
v -16 8 3
v 16 2 3
v 16 8 3
v 17 2 3
v 17 8 3
v 16 30 -1
v 16 32 -1
v 17 8 -1
v 17 30 -1
v 19 8 -1
v 19 32 -1
v 12 30 -2
v 12 32 -2
v 16 30 -2
v 16 32 -2
v -19 0 -3
v -19 8 -3
v -18 0 -3
v -18 8 -3
v 18 0 -3
v 18 8 -3
v 19 0 -3
v 19 8 -3
v -18 0 -5
v -18 8 -5
v -17 0 -5
v -17 8 -5
v 17 0 -5
v 17 8 -5
v 18 0 -5
v 18 8 -5
v -17 0 -6
v -17 8 -6
v -16 0 -6
v -16 8 -6
v 16 0 -6
v 16 8 -6
v 17 0 -6
v 17 8 -6
v -16 0 -7
v -16 8 -7
v -15 0 -7
v -15 8 -7
v 15 0 -7
v 15 8 -7
v 16 0 -7
v 16 8 -7
v -15 0 -8
v -15 8 -8
v -13 0 -8
v -13 8 -8
v 13 0 -8
v 13 8 -8
v 15 0 -8
v 15 8 -8
v -13 0 -9
v -13 8 -9
v 13 0 -9
v 13 8 -9
v -13 0 9
v 13 0 9
v -15 0 8
v -13 0 8
v 13 0 8
v 15 0 8
v -16 0 7
v -15 0 7
v 15 0 7
v 16 0 7
v -17 0 6
v -16 0 6
v 16 0 6
v 17 0 6
v -18 0 5
v -17 0 5
v 17 0 5
v 18 0 5
v -19 0 3
v -18 0 3
v 18 0 3
v 19 0 3
v -19 0 -3
v -18 0 -3
v 18 0 -3
v 19 0 -3
v -18 0 -5
v -17 0 -5
v 17 0 -5
v 18 0 -5
v -17 0 -6
v -16 0 -6
v 16 0 -6
v 17 0 -6
v -16 0 -7
v -15 0 -7
v 15 0 -7
v 16 0 -7
v -15 0 -8
v -13 0 -8
v 13 0 -8
v 15 0 -8
v -13 0 -9
v 13 0 -9
v 12 30 2
v 16 30 2
v 16 30 1
v 17 30 1
v 16 30 -1
v 17 30 -1
v 12 30 -2
v 16 30 -2
v -13 2 7
v 13 2 7
v -14 2 6
v -13 2 6
v 13 2 6
v 14 2 6
v -15 2 5
v -14 2 5
v 14 2 5
v 15 2 5
v -16 2 4
v -15 2 4
v 15 2 4
v 16 2 4
v -17 2 3
v -16 2 3
v 16 2 3
v 17 2 3
v 14 2 1
v 16 2 1
v 14 2 -1
v 16 2 -1
v -17 2 -3
v -16 2 -3
v 16 2 -3
v 17 2 -3
v -16 2 -4
v -15 2 -4
v 15 2 -4
v 16 2 -4
v -15 2 -5
v -14 2 -5
v 14 2 -5
v 15 2 -5
v -14 2 -6
v -13 2 -6
v 13 2 -6
v 14 2 -6
v -13 2 -7
v 13 2 -7
v -13 8 9
v 13 8 9
v -15 8 8
v -13 8 8
v 13 8 8
v 15 8 8
v -16 8 7
v -15 8 7
v -13 8 7
v 13 8 7
v 15 8 7
v 16 8 7
v -17 8 6
v -16 8 6
v -14 8 6
v -13 8 6
v 13 8 6
v 14 8 6
v 16 8 6
v 17 8 6
v -18 8 5
v -17 8 5
v -15 8 5
v -14 8 5
v 14 8 5
v 15 8 5
v 17 8 5
v 18 8 5
v -16 8 4
v -15 8 4
v 15 8 4
v 16 8 4
v -19 8 3
v -18 8 3
v -17 8 3
v -16 8 3
v 16 8 3
v 17 8 3
v 18 8 3
v 19 8 3
v 17 8 1
v 19 8 1
v 17 8 -1
v 19 8 -1
v -19 8 -3
v -18 8 -3
v -17 8 -3
v -16 8 -3
v 16 8 -3
v 17 8 -3
v 18 8 -3
v 19 8 -3
v -16 8 -4
v -15 8 -4
v 15 8 -4
v 16 8 -4
v -18 8 -5
v -17 8 -5
v -15 8 -5
v -14 8 -5
v 14 8 -5
v 15 8 -5
v 17 8 -5
v 18 8 -5
v -17 8 -6
v -16 8 -6
v -14 8 -6
v -13 8 -6
v 13 8 -6
v 14 8 -6
v 16 8 -6
v 17 8 -6
v -16 8 -7
v -15 8 -7
v -13 8 -7
v 13 8 -7
v 15 8 -7
v 16 8 -7
v -15 8 -8
v -13 8 -8
v 13 8 -8
v 15 8 -8
v -13 8 -9
v 13 8 -9
v 12 32 2
v 16 32 2
v 16 32 1
v 19 32 1
v 16 32 -1
v 19 32 -1
v 12 32 -2
v 16 32 -2

# faces
f 3/2/1 2/2/1 1/2/1
f 4/2/1 2/2/1 3/2/1
f 9/2/1 6/2/1 5/2/1
f 10/2/1 6/2/1 9/2/1
f 11/2/1 8/2/1 7/2/1
f 12/2/1 8/2/1 11/2/1
f 17/2/1 14/2/1 13/2/1
f 18/2/1 14/2/1 17/2/1
f 19/2/1 16/2/1 15/2/1
f 20/2/1 16/2/1 19/2/1
f 25/2/1 22/2/1 21/2/1
f 26/2/1 22/2/1 25/2/1
f 27/2/1 24/2/1 23/2/1
f 28/2/1 24/2/1 27/2/1
f 33/2/1 30/2/1 29/2/1
f 34/2/1 30/2/1 33/2/1
f 35/2/1 32/2/1 31/2/1
f 36/2/1 32/2/1 35/2/1
f 41/2/1 38/2/1 37/2/1
f 42/2/1 38/2/1 41/2/1
f 43/2/1 40/2/1 39/2/1
f 44/2/1 40/2/1 43/2/1
f 47/3/1 46/3/1 45/3/1
f 48/3/1 46/3/1 47/3/1
f 53/2/1 50/2/1 49/2/1
f 54/2/1 50/2/1 53/2/1
f 55/2/1 52/2/1 51/2/1
f 56/2/1 52/2/1 55/2/1
f 61/2/1 58/2/1 57/2/1
f 62/2/1 58/2/1 61/2/1
f 63/2/1 60/2/1 59/2/1
f 64/2/1 60/2/1 63/2/1
f 69/2/1 66/2/1 65/2/1
f 70/2/1 66/2/1 69/2/1
f 71/2/1 68/2/1 67/2/1
f 72/2/1 68/2/1 71/2/1
f 77/2/1 74/2/1 73/2/1
f 78/2/1 74/2/1 77/2/1
f 79/2/1 76/2/1 75/2/1
f 80/2/1 76/2/1 79/2/1
f 83/2/1 82/2/1 81/2/1
f 84/2/1 82/2/1 83/2/1
f 85/2/1 82/2/1 84/2/1
f 86/2/1 82/2/1 85/2/1
f 87/3/1 85/3/1 84/3/1
f 88/3/1 85/3/1 87/3/1
f 89/2/2 90/2/2 91/2/2
f 91/2/2 90/2/2 92/2/2
f 93/2/2 94/2/2 97/2/2
f 97/2/2 94/2/2 98/2/2
f 95/2/2 96/2/2 99/2/2
f 99/2/2 96/2/2 100/2/2
f 101/2/2 102/2/2 105/2/2
f 105/2/2 102/2/2 106/2/2
f 103/2/2 104/2/2 107/2/2
f 107/2/2 104/2/2 108/2/2
f 109/2/2 110/2/2 113/2/2
f 113/2/2 110/2/2 114/2/2
f 111/2/2 112/2/2 115/2/2
f 115/2/2 112/2/2 116/2/2
f 117/2/2 118/2/2 121/2/2
f 121/2/2 118/2/2 122/2/2
f 119/2/2 120/2/2 123/2/2
f 123/2/2 120/2/2 124/2/2
f 125/2/2 126/2/2 129/2/2
f 129/2/2 126/2/2 130/2/2
f 127/2/2 128/2/2 131/2/2
f 131/2/2 128/2/2 132/2/2
f 133/2/2 134/2/2 137/2/2
f 137/2/2 134/2/2 138/2/2
f 135/2/2 136/2/2 139/2/2
f 139/2/2 136/2/2 140/2/2
f 141/2/2 142/2/2 145/2/2
f 145/2/2 142/2/2 146/2/2
f 143/2/2 144/2/2 147/2/2
f 147/2/2 144/2/2 148/2/2
f 149/3/2 150/3/2 153/3/2
f 153/3/2 150/3/2 154/3/2
f 151/3/2 152/3/2 155/3/2
f 155/3/2 152/3/2 156/3/2
f 157/2/2 158/2/2 161/2/2
f 161/2/2 158/2/2 162/2/2
f 159/2/2 160/2/2 163/2/2
f 163/2/2 160/2/2 164/2/2
f 165/2/2 166/2/2 169/2/2
f 169/2/2 166/2/2 170/2/2
f 167/2/2 168/2/2 171/2/2
f 171/2/2 168/2/2 172/2/2
f 173/2/2 174/2/2 175/2/2
f 175/2/2 174/2/2 176/2/2
f 176/2/2 174/2/2 177/2/2
f 177/2/2 174/2/2 178/2/2
f 176/3/2 177/3/2 179/3/2
f 179/3/2 177/3/2 180/3/2
f 183/2/3 182/2/3 181/2/3
f 184/2/3 182/2/3 183/2/3
f 187/2/3 186/2/3 185/2/3
f 188/2/3 186/2/3 187/2/3
f 191/2/3 190/2/3 189/2/3
f 192/2/3 190/2/3 191/2/3
f 195/2/3 194/2/3 193/2/3
f 196/2/3 194/2/3 195/2/3
f 199/2/3 198/2/3 197/2/3
f 200/2/3 198/2/3 199/2/3
f 203/2/3 202/2/3 201/2/3
f 204/2/3 202/2/3 203/2/3
f 207/2/3 206/2/3 205/2/3
f 208/2/3 206/2/3 207/2/3
f 211/2/3 210/2/3 209/2/3
f 212/2/3 210/2/3 211/2/3
f 215/2/3 214/2/3 213/2/3
f 216/2/3 214/2/3 215/2/3
f 219/2/3 218/2/3 217/2/3
f 220/2/3 218/2/3 219/2/3
f 223/2/3 222/2/3 221/2/3
f 224/2/3 222/2/3 223/2/3
f 227/3/3 226/3/3 225/3/3
f 228/3/3 226/3/3 227/3/3
f 232/3/3 230/3/3 229/3/3
f 233/3/3 232/3/3 231/3/3
f 234/3/3 230/3/3 232/3/3
f 234/3/3 232/3/3 233/3/3
f 237/2/3 236/2/3 235/2/3
f 238/2/3 236/2/3 237/2/3
f 241/2/3 240/2/3 239/2/3
f 242/2/3 240/2/3 241/2/3
f 245/2/3 244/2/3 243/2/3
f 246/2/3 244/2/3 245/2/3
f 249/2/3 248/2/3 247/2/3
f 250/2/3 248/2/3 249/2/3
f 253/2/3 252/2/3 251/2/3
f 254/2/3 252/2/3 253/2/3
f 257/2/3 256/2/3 255/2/3
f 258/2/3 256/2/3 257/2/3
f 261/2/3 260/2/3 259/2/3
f 262/2/3 260/2/3 261/2/3
f 265/2/3 264/2/3 263/2/3
f 266/2/3 264/2/3 265/2/3
f 269/2/3 268/2/3 267/2/3
f 270/2/3 268/2/3 269/2/3
f 271/2/4 272/2/4 273/2/4
f 273/2/4 272/2/4 274/2/4
f 275/2/4 276/2/4 277/2/4
f 277/2/4 276/2/4 278/2/4
f 279/2/4 280/2/4 281/2/4
f 281/2/4 280/2/4 282/2/4
f 283/2/4 284/2/4 285/2/4
f 285/2/4 284/2/4 286/2/4
f 287/2/4 288/2/4 289/2/4
f 289/2/4 288/2/4 290/2/4
f 291/2/4 292/2/4 293/2/4
f 293/2/4 292/2/4 294/2/4
f 295/2/4 296/2/4 297/2/4
f 297/2/4 296/2/4 298/2/4
f 299/2/4 300/2/4 301/2/4
f 301/2/4 300/2/4 302/2/4
f 303/2/4 304/2/4 305/2/4
f 305/2/4 304/2/4 306/2/4
f 307/3/4 308/3/4 310/3/4
f 309/3/4 310/3/4 311/3/4
f 310/3/4 308/3/4 312/3/4
f 311/3/4 310/3/4 312/3/4
f 313/3/4 314/3/4 315/3/4
f 315/3/4 314/3/4 316/3/4
f 317/2/4 318/2/4 319/2/4
f 319/2/4 318/2/4 320/2/4
f 321/2/4 322/2/4 323/2/4
f 323/2/4 322/2/4 324/2/4
f 325/2/4 326/2/4 327/2/4
f 327/2/4 326/2/4 328/2/4
f 329/2/4 330/2/4 331/2/4
f 331/2/4 330/2/4 332/2/4
f 333/2/4 334/2/4 335/2/4
f 335/2/4 334/2/4 336/2/4
f 337/2/4 338/2/4 339/2/4
f 339/2/4 338/2/4 340/2/4
f 341/2/4 342/2/4 343/2/4
f 343/2/4 342/2/4 344/2/4
f 345/2/4 346/2/4 347/2/4
f 347/2/4 346/2/4 348/2/4
f 349/2/4 350/2/4 351/2/4
f 351/2/4 350/2/4 352/2/4
f 353/2/4 354/2/4 355/2/4
f 355/2/4 354/2/4 356/2/4
f 357/2/4 358/2/4 359/2/4
f 359/2/4 358/2/4 360/2/4
f 364/2/5 362/2/5 361/2/5
f 365/2/5 362/2/5 364/2/5
f 368/2/5 364/2/5 363/2/5
f 368/2/5 366/2/5 365/2/5
f 368/2/5 365/2/5 364/2/5
f 369/2/5 366/2/5 368/2/5
f 372/2/5 368/2/5 367/2/5
f 372/2/5 370/2/5 369/2/5
f 372/2/5 369/2/5 368/2/5
f 373/2/5 370/2/5 372/2/5
f 376/2/5 372/2/5 371/2/5
f 376/2/5 374/2/5 373/2/5
f 376/2/5 373/2/5 372/2/5
f 377/2/5 374/2/5 376/2/5
f 380/2/5 376/2/5 375/2/5
f 380/2/5 378/2/5 377/2/5
f 380/2/5 377/2/5 376/2/5
f 381/2/5 378/2/5 380/2/5
f 383/2/5 380/2/5 379/2/5
f 383/2/5 382/2/5 381/2/5
f 383/2/5 381/2/5 380/2/5
f 384/2/5 382/2/5 383/2/5
f 385/2/5 382/2/5 384/2/5
f 386/2/5 382/2/5 385/2/5
f 387/2/5 385/2/5 384/2/5
f 388/2/5 385/2/5 387/2/5
f 389/2/5 385/2/5 388/2/5
f 390/2/5 385/2/5 389/2/5
f 391/2/5 389/2/5 388/2/5
f 392/2/5 389/2/5 391/2/5
f 393/2/5 389/2/5 392/2/5
f 394/2/5 389/2/5 393/2/5
f 395/2/5 393/2/5 392/2/5
f 396/2/5 393/2/5 395/2/5
f 397/2/5 393/2/5 396/2/5
f 398/2/5 393/2/5 397/2/5
f 399/2/5 397/2/5 396/2/5
f 400/2/5 397/2/5 399/2/5
f 401/2/5 397/2/5 400/2/5
f 402/2/5 397/2/5 401/2/5
f 403/2/5 401/2/5 400/2/5
f 404/2/5 401/2/5 403/2/5
f 407/3/5 406/3/5 405/3/5
f 409/3/5 407/3/5 405/3/5
f 409/3/5 408/3/5 407/3/5
f 410/3/5 408/3/5 409/3/5
f 411/3/5 409/3/5 405/3/5
f 412/3/5 409/3/5 411/3/5
f 413/2/6 414/2/6 416/2/6
f 416/2/6 414/2/6 417/2/6
f 415/2/6 416/2/6 420/2/6
f 417/2/6 418/2/6 420/2/6
f 416/2/6 417/2/6 420/2/6
f 420/2/6 418/2/6 421/2/6
f 419/2/6 420/2/6 424/2/6
f 421/2/6 422/2/6 424/2/6
f 420/2/6 421/2/6 424/2/6
f 424/2/6 422/2/6 425/2/6
f 423/2/6 424/2/6 428/2/6
f 425/2/6 426/2/6 428/2/6
f 424/2/6 425/2/6 428/2/6
f 428/2/6 426/2/6 429/2/6
f 427/2/6 428/2/6 431/2/6
f 429/2/6 430/2/6 431/2/6
f 428/2/6 429/2/6 431/2/6
f 431/2/6 430/2/6 432/2/6
f 427/2/6 431/2/6 433/2/6
f 431/1/6 432/1/6 433/1/6
f 432/2/6 430/2/6 434/2/6
f 433/1/6 432/1/6 434/1/6
f 427/2/6 433/2/6 435/2/6
f 433/2/6 434/2/6 435/2/6
f 435/2/6 434/2/6 436/2/6
f 434/2/6 430/2/6 437/2/6
f 436/2/6 434/2/6 437/2/6
f 437/2/6 430/2/6 438/2/6
f 436/2/6 437/2/6 439/2/6
f 439/2/6 437/2/6 440/2/6
f 440/2/6 437/2/6 441/2/6
f 441/2/6 437/2/6 442/2/6
f 440/2/6 441/2/6 443/2/6
f 443/2/6 441/2/6 444/2/6
f 444/2/6 441/2/6 445/2/6
f 445/2/6 441/2/6 446/2/6
f 444/2/6 445/2/6 447/2/6
f 447/2/6 445/2/6 448/2/6
f 448/2/6 445/2/6 449/2/6
f 449/2/6 445/2/6 450/2/6
f 448/2/6 449/2/6 451/2/6
f 451/2/6 449/2/6 452/2/6
f 453/2/6 454/2/6 456/2/6
f 456/2/6 454/2/6 457/2/6
f 455/2/6 456/2/6 460/2/6
f 457/2/6 458/2/6 460/2/6
f 456/2/6 457/2/6 460/2/6
f 460/2/6 458/2/6 461/2/6
f 461/2/6 458/2/6 462/2/6
f 462/2/6 458/2/6 463/2/6
f 459/2/6 460/2/6 466/2/6
f 460/2/6 461/2/6 466/2/6
f 466/2/6 461/2/6 467/2/6
f 467/2/6 461/2/6 468/2/6
f 462/2/6 463/2/6 469/2/6
f 463/2/6 464/2/6 469/2/6
f 469/2/6 464/2/6 470/2/6
f 470/2/6 464/2/6 471/2/6
f 466/2/6 467/2/6 474/2/6
f 465/2/6 466/2/6 474/2/6
f 474/2/6 467/2/6 475/2/6
f 475/2/6 467/2/6 476/2/6
f 471/2/6 472/2/6 477/2/6
f 470/2/6 471/2/6 477/2/6
f 477/2/6 472/2/6 478/2/6
f 478/2/6 472/2/6 479/2/6
f 474/2/6 475/2/6 481/2/6
f 473/2/6 474/2/6 481/2/6
f 481/2/6 475/2/6 482/2/6
f 479/2/6 480/2/6 483/2/6
f 478/2/6 479/2/6 483/2/6
f 483/2/6 480/2/6 484/2/6
f 473/2/6 481/2/6 486/2/6
f 486/2/6 481/2/6 487/2/6
f 487/2/6 481/2/6 488/2/6
f 484/2/6 480/2/6 489/2/6
f 489/2/6 480/2/6 490/2/6
f 490/2/6 480/2/6 491/2/6
f 491/2/6 492/2/6 493/2/6
f 490/2/6 491/2/6 493/2/6
f 493/2/6 492/2/6 494/2/6
f 485/2/6 486/2/6 497/2/6
f 486/2/6 487/2/6 497/2/6
f 497/2/6 487/2/6 498/2/6
f 498/2/6 487/2/6 499/2/6
f 495/2/6 496/2/6 502/2/6
f 502/2/6 496/2/6 503/2/6
f 503/2/6 496/2/6 504/2/6
f 499/2/6 500/2/6 505/2/6
f 498/2/6 499/2/6 505/2/6
f 502/2/6 503/2/6 508/2/6
f 501/2/6 502/2/6 508/2/6
f 505/2/6 506/2/6 509/2/6
f 498/2/6 505/2/6 509/2/6
f 509/2/6 506/2/6 510/2/6
f 510/2/6 506/2/6 511/2/6
f 507/2/6 508/2/6 514/2/6
f 508/2/6 503/2/6 515/2/6
f 514/2/6 508/2/6 515/2/6
f 515/2/6 503/2/6 516/2/6
f 511/2/6 512/2/6 517/2/6
f 510/2/6 511/2/6 517/2/6
f 517/2/6 512/2/6 518/2/6
f 518/2/6 512/2/6 519/2/6
f 513/2/6 514/2/6 522/2/6
f 514/2/6 515/2/6 522/2/6
f 522/2/6 515/2/6 523/2/6
f 523/2/6 515/2/6 524/2/6
f 519/2/6 520/2/6 525/2/6
f 518/2/6 519/2/6 525/2/6
f 525/2/6 520/2/6 526/2/6
f 526/2/6 520/2/6 527/2/6
f 522/2/6 523/2/6 528/2/6
f 521/2/6 522/2/6 528/2/6
f 528/2/6 523/2/6 529/2/6
f 529/2/6 523/2/6 530/2/6
f 526/2/6 527/2/6 531/2/6
f 528/2/6 529/2/6 531/2/6
f 527/2/6 528/2/6 531/2/6
f 531/2/6 529/2/6 532/2/6
f 532/2/6 529/2/6 533/2/6
f 533/2/6 529/2/6 534/2/6
f 532/2/6 533/2/6 535/2/6
f 535/2/6 533/2/6 536/2/6
f 537/3/6 538/3/6 539/3/6
f 537/3/6 539/3/6 541/3/6
f 539/3/6 540/3/6 541/3/6
f 541/3/6 540/3/6 542/3/6
f 537/3/6 541/3/6 543/3/6
f 543/3/6 541/3/6 544/3/6
