# MagicaVoxel @ Ephtracy

# group
g classic:wall-join-inner

# material
mtllib default-material.mtl
usemtl palette

# normals
vn -1 0 0
vn 1 0 0
vn 0 0 1
vn 0 0 -1
vn 0 -1 0
vn 0 1 0

# texcoords
vt 0.970703 0.5
vt 0.986328 0.5

# verts
v -2 0 2
v -2 0 -2
v -2 38 2
v -2 38 -2
v 2 0 2
v 2 0 -2
v 2 38 2
v 2 38 -2
v -2 0 2
v -2 38 2
v 2 0 2
v 2 38 2
v -2 0 -2
v -2 38 -2
v 2 0 -2
v 2 38 -2
v -2 0 2
v 2 0 2
v -1 0 1
v 1 0 1
v -1 0 -0
v 1 0 -0
v -2 0 -2
v 2 0 -2
v -2 38 2
v 2 38 2
v -2 38 -2
v 2 38 -2

# faces
f 3/2/1 2/2/1 1/2/1
f 4/2/1 2/2/1 3/2/1
f 5/2/2 6/2/2 7/2/2
f 7/2/2 6/2/2 8/2/2
f 11/2/3 10/2/3 9/2/3
f 12/2/3 10/2/3 11/2/3
f 13/2/4 14/2/4 15/2/4
f 15/2/4 14/2/4 16/2/4
f 19/2/5 18/2/5 17/2/5
f 20/2/5 18/2/5 19/2/5
f 21/2/5 19/2/5 17/2/5
f 21/1/5 20/1/5 19/1/5
f 22/2/5 18/2/5 20/2/5
f 22/1/5 20/1/5 21/1/5
f 23/2/5 21/2/5 17/2/5
f 23/2/5 22/2/5 21/2/5
f 24/2/5 18/2/5 22/2/5
f 24/2/5 22/2/5 23/2/5
f 25/2/6 26/2/6 27/2/6
f 27/2/6 26/2/6 28/2/6
