# MagicaVoxel @ Ephtracy

# group
g classic:table-small-long

# material
mtllib default-material.mtl
usemtl palette

# normals
vn -1 0 0
vn 1 0 0
vn 0 0 1
vn 0 0 -1
vn 0 -1 0
vn 0 1 0

# texcoords
vt 0.197266 0.5

# verts
v -20 0 6
v -20 0 4
v -20 0 -4
v -20 0 -6
v -20 10 4
v -20 10 -4
v -20 12 6
v -20 12 -6
v 18 0 6
v 18 0 4
v 18 0 -4
v 18 0 -6
v 18 10 6
v 18 10 4
v 18 10 -4
v 18 10 -6
v -18 0 6
v -18 0 4
v -18 0 -4
v -18 0 -6
v -18 10 6
v -18 10 4
v -18 10 -4
v -18 10 -6
v 20 0 6
v 20 0 4
v 20 0 -4
v 20 0 -6
v 20 10 4
v 20 10 -4
v 20 12 6
v 20 12 -6
v -20 0 6
v -20 12 6
v -18 0 6
v -18 10 6
v 18 0 6
v 18 10 6
v 20 0 6
v 20 12 6
v -20 0 -4
v -20 10 -4
v -18 0 -4
v -18 10 -4
v 18 0 -4
v 18 10 -4
v 20 0 -4
v 20 10 -4
v -20 0 4
v -20 10 4
v -18 0 4
v -18 10 4
v 18 0 4
v 18 10 4
v 20 0 4
v 20 10 4
v -20 0 -6
v -20 12 -6
v -18 0 -6
v -18 10 -6
v 18 0 -6
v 18 10 -6
v 20 0 -6
v 20 12 -6
v -20 0 6
v -18 0 6
v 18 0 6
v 20 0 6
v -20 0 4
v -18 0 4
v 18 0 4
v 20 0 4
v -20 0 -4
v -18 0 -4
v 18 0 -4
v 20 0 -4
v -20 0 -6
v -18 0 -6
v 18 0 -6
v 20 0 -6
v -18 10 6
v 18 10 6
v -20 10 4
v -18 10 4
v 18 10 4
v 20 10 4
v -20 10 -4
v -18 10 -4
v 18 10 -4
v 20 10 -4
v -18 10 -6
v 18 10 -6
v -20 12 6
v 20 12 6
v -20 12 -6
v 20 12 -6

# faces
f 5/1/1 2/1/1 1/1/1
f 6/1/1 4/1/1 3/1/1
f 7/1/1 5/1/1 1/1/1
f 7/1/1 6/1/1 5/1/1
f 8/1/1 4/1/1 6/1/1
f 8/1/1 6/1/1 7/1/1
f 13/1/1 10/1/1 9/1/1
f 14/1/1 10/1/1 13/1/1
f 15/1/1 12/1/1 11/1/1
f 16/1/1 12/1/1 15/1/1
f 17/1/2 18/1/2 21/1/2
f 21/1/2 18/1/2 22/1/2
f 19/1/2 20/1/2 23/1/2
f 23/1/2 20/1/2 24/1/2
f 25/1/2 26/1/2 29/1/2
f 27/1/2 28/1/2 30/1/2
f 25/1/2 29/1/2 31/1/2
f 29/1/2 30/1/2 31/1/2
f 30/1/2 28/1/2 32/1/2
f 31/1/2 30/1/2 32/1/2
f 35/1/3 34/1/3 33/1/3
f 36/1/3 34/1/3 35/1/3
f 38/1/3 34/1/3 36/1/3
f 39/1/3 38/1/3 37/1/3
f 40/1/3 34/1/3 38/1/3
f 40/1/3 38/1/3 39/1/3
f 43/1/3 42/1/3 41/1/3
f 44/1/3 42/1/3 43/1/3
f 47/1/3 46/1/3 45/1/3
f 48/1/3 46/1/3 47/1/3
f 49/1/4 50/1/4 51/1/4
f 51/1/4 50/1/4 52/1/4
f 53/1/4 54/1/4 55/1/4
f 55/1/4 54/1/4 56/1/4
f 57/1/4 58/1/4 59/1/4
f 59/1/4 58/1/4 60/1/4
f 60/1/4 58/1/4 62/1/4
f 61/1/4 62/1/4 63/1/4
f 62/1/4 58/1/4 64/1/4
f 63/1/4 62/1/4 64/1/4
f 69/1/5 66/1/5 65/1/5
f 70/1/5 66/1/5 69/1/5
f 71/1/5 68/1/5 67/1/5
f 72/1/5 68/1/5 71/1/5
f 77/1/5 74/1/5 73/1/5
f 78/1/5 74/1/5 77/1/5
f 79/1/5 76/1/5 75/1/5
f 80/1/5 76/1/5 79/1/5
f 84/1/5 82/1/5 81/1/5
f 85/1/5 82/1/5 84/1/5
f 87/1/5 84/1/5 83/1/5
f 87/1/5 86/1/5 85/1/5
f 87/1/5 85/1/5 84/1/5
f 88/1/5 86/1/5 87/1/5
f 89/1/5 86/1/5 88/1/5
f 90/1/5 86/1/5 89/1/5
f 91/1/5 89/1/5 88/1/5
f 92/1/5 89/1/5 91/1/5
f 93/1/6 94/1/6 95/1/6
f 95/1/6 94/1/6 96/1/6
