# MagicaVoxel @ Ephtracy

# group
g gnome:player

# material
mtllib default-material.mtl
usemtl palette

# normals
vn -1 0 0
vn 1 0 0
vn 0 0 1
vn 0 0 -1
vn 0 -1 0
vn 0 1 0

# texcoords
vt 0.00195312 0.5
vt 0.287109 0.5
vt 0.310547 0.5
vt 0.423828 0.5
vt 0.521484 0.5
vt 0.611328 0.5
vt 0.986328 0.5
vt 0.990234 0.5
vt 0.994141 0.5

# verts
v -3 1 1
v -3 1 -4
v -3 4 3
v -3 4 2
v -3 4 1
v -3 5 5
v -3 5 3
v -3 5 2
v -3 5 1
v -3 6 5
v -3 6 2
v -3 7 1
v -3 7 -4
v -3 12 1
v -3 12 -4
v -2 0 -1
v -2 0 -2
v -2 1 -1
v -2 1 -2
v -2 12 -0
v -2 12 -3
v -2 13 -0
v -2 13 -3
v 1 0 -1
v 1 0 -2
v 1 1 -1
v 1 1 -2
v 1 4 5
v 1 4 4
v 1 5 5
v 1 5 4
v 2 3 5
v 2 3 4
v 2 4 5
v 2 4 4
v 2 4 2
v 2 4 1
v 2 5 5
v 2 5 4
v 2 5 2
v 2 5 1
v 2 6 5
v 2 6 4
v -2 4 3
v -2 4 2
v -2 4 1
v -2 5 5
v -2 5 3
v -2 5 2
v -2 5 1
v -2 6 5
v -2 6 2
v -1 0 -1
v -1 0 -2
v -1 1 -1
v -1 1 -2
v 2 0 -1
v 2 0 -2
v 2 1 -1
v 2 1 -2
v 2 12 -0
v 2 12 -3
v 2 13 -0
v 2 13 -3
v 3 1 1
v 3 1 -4
v 3 3 5
v 3 3 4
v 3 4 5
v 3 4 4
v 3 4 2
v 3 4 1
v 3 5 5
v 3 5 4
v 3 5 2
v 3 5 1
v 3 6 5
v 3 6 4
v 3 7 1
v 3 7 -4
v 3 12 1
v 3 12 -4
v 4 4 5
v 4 4 4
v 4 5 5
v 4 5 4
v -3 5 5
v -3 6 5
v -2 5 5
v -2 6 5
v 1 4 5
v 1 5 5
v 2 3 5
v 2 4 5
v 2 5 5
v 2 6 5
v 3 3 5
v 3 4 5
v 3 5 5
v 3 6 5
v 4 4 5
v 4 5 5
v -3 4 3
v -3 5 3
v -2 4 3
v -2 5 3
v -3 1 1
v -3 4 1
v -3 5 1
v -3 7 1
v -3 12 1
v -2 4 1
v -2 5 1
v -2 6 1
v -2 7 1
v -2 8 1
v -2 9 1
v -2 10 1
v -1 8 1
v -1 9 1
v -1 10 1
v 1 8 1
v 1 9 1
v 1 10 1
v 2 4 1
v 2 5 1
v 2 6 1
v 2 7 1
v 2 8 1
v 2 9 1
v 2 10 1
v 3 1 1
v 3 4 1
v 3 5 1
v 3 7 1
v 3 12 1
v -2 12 -0
v -2 13 -0
v 2 12 -0
v 2 13 -0
v -2 0 -1
v -2 1 -1
v -1 0 -1
v -1 1 -1
v 1 0 -1
v 1 1 -1
v 2 0 -1
v 2 1 -1
v 1 4 4
v 1 5 4
v 2 3 4
v 2 4 4
v 2 5 4
v 2 6 4
v 3 3 4
v 3 4 4
v 3 5 4
v 3 6 4
v 4 4 4
v 4 5 4
v -3 5 2
v -3 6 2
v -2 5 2
v -2 6 2
v -2 0 -2
v -2 1 -2
v -1 0 -2
v -1 1 -2
v 1 0 -2
v 1 1 -2
v 2 0 -2
v 2 1 -2
v -2 12 -3
v -2 13 -3
v 2 12 -3
v 2 13 -3
v -3 1 -4
v -3 7 -4
v -3 12 -4
v 3 1 -4
v 3 7 -4
v 3 12 -4
v -2 0 -1
v -1 0 -1
v 1 0 -1
v 2 0 -1
v -2 0 -2
v -1 0 -2
v 1 0 -2
v 2 0 -2
v -3 1 1
v 3 1 1
v -2 1 -1
v -1 1 -1
v 1 1 -1
v 2 1 -1
v -2 1 -2
v -1 1 -2
v 1 1 -2
v 2 1 -2
v -3 1 -4
v 3 1 -4
v 2 3 5
v 3 3 5
v 2 3 4
v 3 3 4
v 1 4 5
v 2 4 5
v 3 4 5
v 4 4 5
v 1 4 4
v 2 4 4
v 3 4 4
v 4 4 4
v -3 4 3
v -2 4 3
v -3 4 2
v -2 4 2
v 2 4 2
v 3 4 2
v -3 4 1
v -2 4 1
v 2 4 1
v 3 4 1
v -3 5 5
v -2 5 5
v -3 5 3
v -2 5 3
v 1 5 5
v 2 5 5
v 3 5 5
v 4 5 5
v 1 5 4
v 2 5 4
v 3 5 4
v 4 5 4
v -3 5 2
v -2 5 2
v 2 5 2
v 3 5 2
v -3 5 1
v -2 5 1
v 2 5 1
v 3 5 1
v -3 6 5
v -2 6 5
v 2 6 5
v 3 6 5
v 2 6 4
v 3 6 4
v -3 6 2
v -2 6 2
v -3 12 1
v 3 12 1
v -2 12 -0
v 2 12 -0
v -2 12 -3
v 2 12 -3
v -3 12 -4
v 3 12 -4
v -2 13 -0
v 2 13 -0
v -2 13 -3
v 2 13 -3

# faces
f 5/3/1 2/3/1 1/3/1
f 7/8/1 4/8/1 3/8/1
f 8/2/1 5/2/1 4/2/1
f 8/8/1 4/8/1 7/8/1
f 9/3/1 2/3/1 5/3/1
f 9/2/1 5/2/1 8/2/1
f 10/8/1 7/8/1 6/8/1
f 10/8/1 8/8/1 7/8/1
f 11/8/1 8/8/1 10/8/1
f 12/3/1 2/3/1 9/3/1
f 13/3/1 2/3/1 12/3/1
f 14/2/1 13/2/1 12/2/1
f 15/2/1 13/2/1 14/2/1
f 18/4/1 17/4/1 16/4/1
f 19/4/1 17/4/1 18/4/1
f 22/2/1 21/2/1 20/2/1
f 23/2/1 21/2/1 22/2/1
f 26/4/1 25/4/1 24/4/1
f 27/4/1 25/4/1 26/4/1
f 30/9/1 29/9/1 28/9/1
f 31/9/1 29/9/1 30/9/1
f 34/9/1 33/9/1 32/9/1
f 35/9/1 33/9/1 34/9/1
f 39/9/1 36/9/1 35/9/1
f 40/2/1 37/2/1 36/2/1
f 40/9/1 36/9/1 39/9/1
f 41/2/1 37/2/1 40/2/1
f 42/9/1 39/9/1 38/9/1
f 43/9/1 39/9/1 42/9/1
f 44/8/2 45/8/2 48/8/2
f 45/2/2 46/2/2 49/2/2
f 48/8/2 45/8/2 49/8/2
f 49/2/2 46/2/2 50/2/2
f 47/8/2 48/8/2 51/8/2
f 48/8/2 49/8/2 51/8/2
f 51/8/2 49/8/2 52/8/2
f 53/4/2 54/4/2 55/4/2
f 55/4/2 54/4/2 56/4/2
f 57/4/2 58/4/2 59/4/2
f 59/4/2 58/4/2 60/4/2
f 61/2/2 62/2/2 63/2/2
f 63/2/2 62/2/2 64/2/2
f 67/9/2 68/9/2 69/9/2
f 69/9/2 68/9/2 70/9/2
f 65/3/2 66/3/2 72/3/2
f 70/9/2 71/9/2 74/9/2
f 71/2/2 72/2/2 75/2/2
f 74/9/2 71/9/2 75/9/2
f 72/3/2 66/3/2 76/3/2
f 75/2/2 72/2/2 76/2/2
f 73/9/2 74/9/2 77/9/2
f 77/9/2 74/9/2 78/9/2
f 76/3/2 66/3/2 79/3/2
f 79/3/2 66/3/2 80/3/2
f 79/2/2 80/2/2 81/2/2
f 81/2/2 80/2/2 82/2/2
f 83/9/2 84/9/2 85/9/2
f 85/9/2 84/9/2 86/9/2
f 89/8/3 88/8/3 87/8/3
f 90/8/3 88/8/3 89/8/3
f 94/9/3 92/9/3 91/9/3
f 95/9/3 92/9/3 94/9/3
f 97/9/3 94/9/3 93/9/3
f 98/1/3 95/1/3 94/1/3
f 98/9/3 94/9/3 97/9/3
f 99/9/3 96/9/3 95/9/3
f 99/1/3 95/1/3 98/1/3
f 100/9/3 96/9/3 99/9/3
f 101/9/3 99/9/3 98/9/3
f 102/9/3 99/9/3 101/9/3
f 105/8/3 104/8/3 103/8/3
f 106/8/3 104/8/3 105/8/3
f 112/3/3 108/3/3 107/3/3
f 113/3/3 110/3/3 109/3/3
f 114/3/3 110/3/3 113/3/3
f 115/2/3 111/2/3 110/2/3
f 115/3/3 110/3/3 114/3/3
f 116/2/3 111/2/3 115/2/3
f 117/2/3 111/2/3 116/2/3
f 118/2/3 111/2/3 117/2/3
f 119/2/3 115/2/3 114/2/3
f 119/2/3 116/2/3 115/2/3
f 119/9/3 117/9/3 116/9/3
f 120/7/3 118/7/3 117/7/3
f 120/9/3 117/9/3 119/9/3
f 121/2/3 111/2/3 118/2/3
f 121/7/3 118/7/3 120/7/3
f 122/2/3 120/2/3 119/2/3
f 122/2/3 119/2/3 114/2/3
f 122/2/3 121/2/3 120/2/3
f 123/2/3 121/2/3 122/2/3
f 124/2/3 111/2/3 121/2/3
f 124/2/3 121/2/3 123/2/3
f 125/3/3 114/3/3 113/3/3
f 125/3/3 112/3/3 107/3/3
f 125/3/3 113/3/3 112/3/3
f 126/3/3 114/3/3 125/3/3
f 127/2/3 122/2/3 114/2/3
f 127/3/3 114/3/3 126/3/3
f 128/2/3 122/2/3 127/2/3
f 129/9/3 123/9/3 122/9/3
f 129/2/3 122/2/3 128/2/3
f 130/7/3 124/7/3 123/7/3
f 130/9/3 123/9/3 129/9/3
f 131/2/3 111/2/3 124/2/3
f 131/7/3 124/7/3 130/7/3
f 132/3/3 125/3/3 107/3/3
f 133/3/3 125/3/3 132/3/3
f 134/3/3 128/3/3 127/3/3
f 134/3/3 127/3/3 126/3/3
f 135/2/3 130/2/3 129/2/3
f 135/3/3 128/3/3 134/3/3
f 135/2/3 129/2/3 128/2/3
f 135/2/3 131/2/3 130/2/3
f 136/2/3 111/2/3 131/2/3
f 136/2/3 131/2/3 135/2/3
f 139/2/3 138/2/3 137/2/3
f 140/2/3 138/2/3 139/2/3
f 143/4/3 142/4/3 141/4/3
f 144/4/3 142/4/3 143/4/3
f 147/4/3 146/4/3 145/4/3
f 148/4/3 146/4/3 147/4/3
f 149/9/4 150/9/4 152/9/4
f 152/9/4 150/9/4 153/9/4
f 151/9/4 152/9/4 155/9/4
f 155/9/4 152/9/4 156/9/4
f 153/9/4 154/9/4 157/9/4
f 157/9/4 154/9/4 158/9/4
f 156/9/4 157/9/4 159/9/4
f 159/9/4 157/9/4 160/9/4
f 161/8/4 162/8/4 163/8/4
f 163/8/4 162/8/4 164/8/4
f 165/4/4 166/4/4 167/4/4
f 167/4/4 166/4/4 168/4/4
f 169/4/4 170/4/4 171/4/4
f 171/4/4 170/4/4 172/4/4
f 173/2/4 174/2/4 175/2/4
f 175/2/4 174/2/4 176/2/4
f 177/3/4 178/3/4 180/3/4
f 178/2/4 179/2/4 181/2/4
f 180/3/4 178/3/4 181/3/4
f 181/2/4 179/2/4 182/2/4
f 187/4/5 184/4/5 183/4/5
f 188/4/5 184/4/5 187/4/5
f 189/4/5 186/4/5 185/4/5
f 190/4/5 186/4/5 189/4/5
f 193/3/5 192/3/5 191/3/5
f 194/3/5 192/3/5 193/3/5
f 195/3/5 192/3/5 194/3/5
f 196/3/5 192/3/5 195/3/5
f 197/3/5 193/3/5 191/3/5
f 198/3/5 195/3/5 194/3/5
f 199/3/5 195/3/5 198/3/5
f 200/3/5 192/3/5 196/3/5
f 201/3/5 199/3/5 198/3/5
f 201/3/5 200/3/5 199/3/5
f 201/3/5 197/3/5 191/3/5
f 201/3/5 198/3/5 197/3/5
f 202/3/5 192/3/5 200/3/5
f 202/3/5 200/3/5 201/3/5
f 205/9/5 204/9/5 203/9/5
f 206/9/5 204/9/5 205/9/5
f 211/9/5 208/9/5 207/9/5
f 212/9/5 208/9/5 211/9/5
f 213/9/5 210/9/5 209/9/5
f 214/9/5 210/9/5 213/9/5
f 217/8/5 216/8/5 215/8/5
f 218/8/5 216/8/5 217/8/5
f 219/9/5 213/9/5 212/9/5
f 220/9/5 213/9/5 219/9/5
f 221/2/5 218/2/5 217/2/5
f 222/2/5 218/2/5 221/2/5
f 223/2/5 220/2/5 219/2/5
f 224/2/5 220/2/5 223/2/5
f 227/8/5 226/8/5 225/8/5
f 228/8/5 226/8/5 227/8/5
f 229/9/6 230/9/6 233/9/6
f 233/9/6 230/9/6 234/9/6
f 231/9/6 232/9/6 235/9/6
f 235/9/6 232/9/6 236/9/6
f 234/9/6 235/9/6 239/9/6
f 239/9/6 235/9/6 240/9/6
f 237/2/6 238/2/6 241/2/6
f 241/2/6 238/2/6 242/2/6
f 239/2/6 240/2/6 243/2/6
f 243/2/6 240/2/6 244/2/6
f 247/9/6 248/9/6 249/9/6
f 249/9/6 248/9/6 250/9/6
f 245/8/6 246/8/6 251/8/6
f 251/8/6 246/8/6 252/8/6
f 253/2/6 254/2/6 255/2/6
f 255/2/6 254/2/6 256/2/6
f 253/2/6 255/2/6 257/2/6
f 256/2/6 254/2/6 258/2/6
f 253/2/6 257/2/6 259/2/6
f 257/2/6 258/2/6 259/2/6
f 258/2/6 254/2/6 260/2/6
f 259/2/6 258/2/6 260/2/6
f 261/2/6 262/2/6 263/2/6
f 263/2/6 262/2/6 264/2/6
