# MagicaVoxel @ Ephtracy

# group
g misc:server-2

# material
mtllib default-material.mtl
usemtl palette

# normals
vn -1 0 0
vn 1 0 0
vn 0 0 1
vn 0 0 -1
vn 0 -1 0
vn 0 1 0

# texcoords
vt 0.373047 0.5
vt 0.728516 0.5
vt 0.986328 0.5

# verts
v -7 0 7.5
v -7 0 -8.5
v -7 25 7.5
v -7 25 -8.5
v -4 2 8.5
v -4 2 7.5
v -4 2 5.5
v -4 3 7.5
v -4 3 5.5
v -4 4 7.5
v -4 5 7.5
v -4 6 7.5
v -4 6 5.5
v -4 7 8.5
v -4 7 7.5
v -4 7 5.5
v -4 18 8.5
v -4 18 7.5
v -4 18 5.5
v -4 19 7.5
v -4 19 5.5
v -4 20 7.5
v -4 21 7.5
v -4 22 7.5
v -4 22 5.5
v -4 23 8.5
v -4 23 7.5
v -4 23 5.5
v 6 1 7.5
v 6 1 5.5
v 6 4 7.5
v 6 4 5.5
v 6 5 7.5
v 6 5 5.5
v 6 8 7.5
v 6 8 5.5
v 6 9 7.5
v 6 9 5.5
v 6 12 7.5
v 6 12 5.5
v 6 13 7.5
v 6 13 5.5
v 6 16 7.5
v 6 16 5.5
v 6 17 7.5
v 6 17 5.5
v 6 20 7.5
v 6 20 5.5
v 6 21 7.5
v 6 21 5.5
v 6 24 7.5
v 6 24 5.5
v -6 1 7.5
v -6 1 5.5
v -6 4 7.5
v -6 4 5.5
v -6 5 7.5
v -6 5 5.5
v -6 8 7.5
v -6 8 5.5
v -6 9 7.5
v -6 9 5.5
v -6 12 7.5
v -6 12 5.5
v -6 13 7.5
v -6 13 5.5
v -6 16 7.5
v -6 16 5.5
v -6 17 7.5
v -6 17 5.5
v -6 20 7.5
v -6 20 5.5
v -6 21 7.5
v -6 21 5.5
v -6 24 7.5
v -6 24 5.5
v -2 2 8.5
v -2 2 7.5
v -2 2 5.5
v -2 3 7.5
v -2 3 5.5
v -2 4 7.5
v -2 5 7.5
v -2 6 7.5
v -2 6 5.5
v -2 7 8.5
v -2 7 7.5
v -2 7 5.5
v -2 18 8.5
v -2 18 7.5
v -2 18 5.5
v -2 19 7.5
v -2 19 5.5
v -2 20 7.5
v -2 21 7.5
v -2 22 7.5
v -2 22 5.5
v -2 23 8.5
v -2 23 7.5
v -2 23 5.5
v 7 0 7.5
v 7 0 -8.5
v 7 25 7.5
v 7 25 -8.5
v -4 2 8.5
v -4 7 8.5
v -4 18 8.5
v -4 23 8.5
v -3 2 8.5
v -3 7 8.5
v -3 18 8.5
v -3 23 8.5
v -2 2 8.5
v -2 7 8.5
v -2 18 8.5
v -2 23 8.5
v -7 0 7.5
v -7 25 7.5
v -6 1 7.5
v -6 4 7.5
v -6 5 7.5
v -6 8 7.5
v -6 9 7.5
v -6 12 7.5
v -6 13 7.5
v -6 16 7.5
v -6 17 7.5
v -6 20 7.5
v -6 21 7.5
v -6 24 7.5
v -4 4 7.5
v -4 5 7.5
v -4 20 7.5
v -4 21 7.5
v -2 4 7.5
v -2 5 7.5
v -2 20 7.5
v -2 21 7.5
v 6 1 7.5
v 6 4 7.5
v 6 5 7.5
v 6 8 7.5
v 6 9 7.5
v 6 12 7.5
v 6 13 7.5
v 6 16 7.5
v 6 17 7.5
v 6 20 7.5
v 6 21 7.5
v 6 24 7.5
v 7 0 7.5
v 7 25 7.5
v -6 1 5.5
v -6 4 5.5
v -6 5 5.5
v -6 8 5.5
v -6 9 5.5
v -6 12 5.5
v -6 13 5.5
v -6 16 5.5
v -6 17 5.5
v -6 20 5.5
v -6 21 5.5
v -6 24 5.5
v -4 2 5.5
v -4 3 5.5
v -4 6 5.5
v -4 7 5.5
v -4 18 5.5
v -4 19 5.5
v -4 22 5.5
v -4 23 5.5
v -2 2 5.5
v -2 3 5.5
v -2 6 5.5
v -2 7 5.5
v -2 18 5.5
v -2 19 5.5
v -2 22 5.5
v -2 23 5.5
v 6 1 5.5
v 6 4 5.5
v 6 5 5.5
v 6 8 5.5
v 6 9 5.5
v 6 12 5.5
v 6 13 5.5
v 6 16 5.5
v 6 17 5.5
v 6 20 5.5
v 6 21 5.5
v 6 24 5.5
v -4 3 7.5
v -4 4 7.5
v -4 5 7.5
v -4 6 7.5
v -4 19 7.5
v -4 20 7.5
v -4 21 7.5
v -4 22 7.5
v -3 3 7.5
v -3 4 7.5
v -3 5 7.5
v -3 6 7.5
v -3 19 7.5
v -3 20 7.5
v -3 21 7.5
v -3 22 7.5
v -2 3 7.5
v -2 4 7.5
v -2 5 7.5
v -2 6 7.5
v -2 19 7.5
v -2 20 7.5
v -2 21 7.5
v -2 22 7.5
v -7 0 -8.5
v -7 25 -8.5
v 7 0 -8.5
v 7 25 -8.5
v -7 0 7.5
v 7 0 7.5
v -7 0 -8.5
v 7 0 -8.5
v -4 2 8.5
v -3 2 8.5
v -2 2 8.5
v -4 2 7.5
v -3 2 7.5
v -2 2 7.5
v -4 2 5.5
v -2 2 5.5
v -6 4 7.5
v -4 4 7.5
v -3 4 7.5
v -2 4 7.5
v 6 4 7.5
v -6 4 5.5
v 6 4 5.5
v -4 6 7.5
v -3 6 7.5
v -2 6 7.5
v -4 6 5.5
v -2 6 5.5
v -6 8 7.5
v 6 8 7.5
v -6 8 5.5
v 6 8 5.5
v -6 12 7.5
v 6 12 7.5
v -6 12 5.5
v 6 12 5.5
v -6 16 7.5
v 6 16 7.5
v -6 16 5.5
v 6 16 5.5
v -4 18 8.5
v -3 18 8.5
v -2 18 8.5
v -4 18 7.5
v -3 18 7.5
v -2 18 7.5
v -4 18 5.5
v -2 18 5.5
v -6 20 7.5
v -4 20 7.5
v -3 20 7.5
v -2 20 7.5
v 6 20 7.5
v -6 20 5.5
v 6 20 5.5
v -4 22 7.5
v -3 22 7.5
v -2 22 7.5
v -4 22 5.5
v -2 22 5.5
v -6 24 7.5
v 6 24 7.5
v -6 24 5.5
v 6 24 5.5
v -6 1 7.5
v 6 1 7.5
v -6 1 5.5
v 6 1 5.5
v -4 3 7.5
v -3 3 7.5
v -2 3 7.5
v -4 3 5.5
v -2 3 5.5
v -6 5 7.5
v -4 5 7.5
v -3 5 7.5
v -2 5 7.5
v 6 5 7.5
v -6 5 5.5
v 6 5 5.5
v -4 7 8.5
v -3 7 8.5
v -2 7 8.5
v -4 7 7.5
v -3 7 7.5
v -2 7 7.5
v -4 7 5.5
v -2 7 5.5
v -6 9 7.5
v 6 9 7.5
v -6 9 5.5
v 6 9 5.5
v -6 13 7.5
v 6 13 7.5
v -6 13 5.5
v 6 13 5.5
v -6 17 7.5
v 6 17 7.5
v -6 17 5.5
v 6 17 5.5
v -4 19 7.5
v -3 19 7.5
v -2 19 7.5
v -4 19 5.5
v -2 19 5.5
v -6 21 7.5
v -4 21 7.5
v -3 21 7.5
v -2 21 7.5
v 6 21 7.5
v -6 21 5.5
v 6 21 5.5
v -4 23 8.5
v -3 23 8.5
v -2 23 8.5
v -4 23 7.5
v -3 23 7.5
v -2 23 7.5
v -4 23 5.5
v -2 23 5.5
v -7 25 7.5
v 7 25 7.5
v -7 25 -8.5
v 7 25 -8.5

# faces
f 3/3/1 2/3/1 1/3/1
f 4/3/1 2/3/1 3/3/1
f 8/1/1 6/1/1 5/1/1
f 8/3/1 7/3/1 6/3/1
f 9/3/1 7/3/1 8/3/1
f 10/1/1 8/1/1 5/1/1
f 11/1/1 10/1/1 5/1/1
f 12/1/1 11/1/1 5/1/1
f 14/1/1 12/1/1 5/1/1
f 15/3/1 13/3/1 12/3/1
f 15/1/1 12/1/1 14/1/1
f 16/3/1 13/3/1 15/3/1
f 20/1/1 18/1/1 17/1/1
f 20/3/1 19/3/1 18/3/1
f 21/3/1 19/3/1 20/3/1
f 22/1/1 20/1/1 17/1/1
f 23/1/1 22/1/1 17/1/1
f 24/1/1 23/1/1 17/1/1
f 26/1/1 24/1/1 17/1/1
f 27/3/1 25/3/1 24/3/1
f 27/1/1 24/1/1 26/1/1
f 28/3/1 25/3/1 27/3/1
f 31/3/1 30/3/1 29/3/1
f 32/3/1 30/3/1 31/3/1
f 35/3/1 34/3/1 33/3/1
f 36/3/1 34/3/1 35/3/1
f 39/3/1 38/3/1 37/3/1
f 40/3/1 38/3/1 39/3/1
f 43/3/1 42/3/1 41/3/1
f 44/3/1 42/3/1 43/3/1
f 47/3/1 46/3/1 45/3/1
f 48/3/1 46/3/1 47/3/1
f 51/3/1 50/3/1 49/3/1
f 52/3/1 50/3/1 51/3/1
f 53/3/2 54/3/2 55/3/2
f 55/3/2 54/3/2 56/3/2
f 57/3/2 58/3/2 59/3/2
f 59/3/2 58/3/2 60/3/2
f 61/3/2 62/3/2 63/3/2
f 63/3/2 62/3/2 64/3/2
f 65/3/2 66/3/2 67/3/2
f 67/3/2 66/3/2 68/3/2
f 69/3/2 70/3/2 71/3/2
f 71/3/2 70/3/2 72/3/2
f 73/3/2 74/3/2 75/3/2
f 75/3/2 74/3/2 76/3/2
f 77/2/2 78/2/2 80/2/2
f 78/3/2 79/3/2 80/3/2
f 80/3/2 79/3/2 81/3/2
f 77/2/2 80/2/2 82/2/2
f 77/2/2 82/2/2 83/2/2
f 77/2/2 83/2/2 84/2/2
f 77/2/2 84/2/2 86/2/2
f 84/3/2 85/3/2 87/3/2
f 86/2/2 84/2/2 87/2/2
f 87/3/2 85/3/2 88/3/2
f 89/2/2 90/2/2 92/2/2
f 90/3/2 91/3/2 92/3/2
f 92/3/2 91/3/2 93/3/2
f 89/2/2 92/2/2 94/2/2
f 89/2/2 94/2/2 95/2/2
f 89/2/2 95/2/2 96/2/2
f 89/2/2 96/2/2 98/2/2
f 96/3/2 97/3/2 99/3/2
f 98/2/2 96/2/2 99/2/2
f 99/3/2 97/3/2 100/3/2
f 101/3/2 102/3/2 103/3/2
f 103/3/2 102/3/2 104/3/2
f 109/1/3 106/1/3 105/1/3
f 110/1/3 106/1/3 109/1/3
f 111/1/3 108/1/3 107/1/3
f 112/1/3 108/1/3 111/1/3
f 113/2/3 110/2/3 109/2/3
f 114/2/3 110/2/3 113/2/3
f 115/2/3 112/2/3 111/2/3
f 116/2/3 112/2/3 115/2/3
f 119/3/3 118/3/3 117/3/3
f 120/3/3 118/3/3 119/3/3
f 121/3/3 118/3/3 120/3/3
f 122/3/3 118/3/3 121/3/3
f 123/3/3 118/3/3 122/3/3
f 124/3/3 118/3/3 123/3/3
f 125/3/3 118/3/3 124/3/3
f 126/3/3 118/3/3 125/3/3
f 127/3/3 118/3/3 126/3/3
f 128/3/3 118/3/3 127/3/3
f 129/3/3 118/3/3 128/3/3
f 130/3/3 118/3/3 129/3/3
f 131/3/3 121/3/3 120/3/3
f 132/3/3 121/3/3 131/3/3
f 133/3/3 129/3/3 128/3/3
f 134/3/3 129/3/3 133/3/3
f 139/3/3 119/3/3 117/3/3
f 140/3/3 136/3/3 135/3/3
f 141/3/3 136/3/3 140/3/3
f 142/3/3 123/3/3 122/3/3
f 143/3/3 123/3/3 142/3/3
f 144/3/3 125/3/3 124/3/3
f 145/3/3 125/3/3 144/3/3
f 146/3/3 127/3/3 126/3/3
f 147/3/3 127/3/3 146/3/3
f 148/3/3 138/3/3 137/3/3
f 149/3/3 138/3/3 148/3/3
f 150/3/3 118/3/3 130/3/3
f 151/3/3 147/3/3 146/3/3
f 151/3/3 150/3/3 149/3/3
f 151/3/3 149/3/3 148/3/3
f 151/3/3 148/3/3 147/3/3
f 151/3/3 145/3/3 144/3/3
f 151/3/3 146/3/3 145/3/3
f 151/3/3 141/3/3 140/3/3
f 151/3/3 144/3/3 143/3/3
f 151/3/3 143/3/3 142/3/3
f 151/3/3 142/3/3 141/3/3
f 151/3/3 139/3/3 117/3/3
f 151/3/3 140/3/3 139/3/3
f 152/3/3 118/3/3 150/3/3
f 152/3/3 150/3/3 151/3/3
f 165/3/3 154/3/3 153/3/3
f 166/3/3 154/3/3 165/3/3
f 167/3/3 156/3/3 155/3/3
f 168/3/3 156/3/3 167/3/3
f 169/3/3 162/3/3 161/3/3
f 170/3/3 162/3/3 169/3/3
f 171/3/3 164/3/3 163/3/3
f 172/3/3 164/3/3 171/3/3
f 173/3/3 165/3/3 153/3/3
f 174/3/3 154/3/3 166/3/3
f 175/3/3 167/3/3 155/3/3
f 176/3/3 156/3/3 168/3/3
f 177/3/3 169/3/3 161/3/3
f 178/3/3 162/3/3 170/3/3
f 179/3/3 171/3/3 163/3/3
f 180/3/3 164/3/3 172/3/3
f 181/3/3 173/3/3 153/3/3
f 181/3/3 174/3/3 173/3/3
f 182/3/3 154/3/3 174/3/3
f 182/3/3 174/3/3 181/3/3
f 183/3/3 175/3/3 155/3/3
f 183/3/3 176/3/3 175/3/3
f 184/3/3 156/3/3 176/3/3
f 184/3/3 176/3/3 183/3/3
f 185/3/3 158/3/3 157/3/3
f 186/3/3 158/3/3 185/3/3
f 187/3/3 160/3/3 159/3/3
f 188/3/3 160/3/3 187/3/3
f 189/3/3 177/3/3 161/3/3
f 189/3/3 178/3/3 177/3/3
f 190/3/3 162/3/3 178/3/3
f 190/3/3 178/3/3 189/3/3
f 191/3/3 180/3/3 179/3/3
f 191/3/3 179/3/3 163/3/3
f 192/3/3 164/3/3 180/3/3
f 192/3/3 180/3/3 191/3/3
f 193/1/4 194/1/4 201/1/4
f 201/1/4 194/1/4 202/1/4
f 195/1/4 196/1/4 203/1/4
f 203/1/4 196/1/4 204/1/4
f 197/1/4 198/1/4 205/1/4
f 205/1/4 198/1/4 206/1/4
f 199/1/4 200/1/4 207/1/4
f 207/1/4 200/1/4 208/1/4
f 201/2/4 202/2/4 209/2/4
f 209/2/4 202/2/4 210/2/4
f 203/2/4 204/2/4 211/2/4
f 211/2/4 204/2/4 212/2/4
f 205/2/4 206/2/4 213/2/4
f 213/2/4 206/2/4 214/2/4
f 207/2/4 208/2/4 215/2/4
f 215/2/4 208/2/4 216/2/4
f 217/3/4 218/3/4 219/3/4
f 219/3/4 218/3/4 220/3/4
f 223/3/5 222/3/5 221/3/5
f 224/3/5 222/3/5 223/3/5
f 228/1/5 226/1/5 225/1/5
f 229/2/5 227/2/5 226/2/5
f 229/1/5 226/1/5 228/1/5
f 230/2/5 227/2/5 229/2/5
f 231/3/5 229/3/5 228/3/5
f 231/3/5 230/3/5 229/3/5
f 232/3/5 230/3/5 231/3/5
f 238/3/5 234/3/5 233/3/5
f 238/3/5 237/3/5 236/3/5
f 238/3/5 236/3/5 235/3/5
f 238/3/5 235/3/5 234/3/5
f 239/3/5 237/3/5 238/3/5
f 243/3/5 241/3/5 240/3/5
f 243/3/5 242/3/5 241/3/5
f 244/3/5 242/3/5 243/3/5
f 247/3/5 246/3/5 245/3/5
f 248/3/5 246/3/5 247/3/5
f 251/3/5 250/3/5 249/3/5
f 252/3/5 250/3/5 251/3/5
f 255/3/5 254/3/5 253/3/5
f 256/3/5 254/3/5 255/3/5
f 260/1/5 258/1/5 257/1/5
f 261/2/5 259/2/5 258/2/5
f 261/1/5 258/1/5 260/1/5
f 262/2/5 259/2/5 261/2/5
f 263/3/5 261/3/5 260/3/5
f 263/3/5 262/3/5 261/3/5
f 264/3/5 262/3/5 263/3/5
f 270/3/5 266/3/5 265/3/5
f 270/3/5 269/3/5 268/3/5
f 270/3/5 268/3/5 267/3/5
f 270/3/5 267/3/5 266/3/5
f 271/3/5 269/3/5 270/3/5
f 275/3/5 273/3/5 272/3/5
f 275/3/5 274/3/5 273/3/5
f 276/3/5 274/3/5 275/3/5
f 279/3/5 278/3/5 277/3/5
f 280/3/5 278/3/5 279/3/5
f 281/3/6 282/3/6 283/3/6
f 283/3/6 282/3/6 284/3/6
f 285/3/6 286/3/6 288/3/6
f 286/3/6 287/3/6 288/3/6
f 288/3/6 287/3/6 289/3/6
f 290/3/6 291/3/6 295/3/6
f 293/3/6 294/3/6 295/3/6
f 292/3/6 293/3/6 295/3/6
f 291/3/6 292/3/6 295/3/6
f 295/3/6 294/3/6 296/3/6
f 297/1/6 298/1/6 300/1/6
f 298/2/6 299/2/6 301/2/6
f 300/1/6 298/1/6 301/1/6
f 301/2/6 299/2/6 302/2/6
f 300/3/6 301/3/6 303/3/6
f 301/3/6 302/3/6 303/3/6
f 303/3/6 302/3/6 304/3/6
f 305/3/6 306/3/6 307/3/6
f 307/3/6 306/3/6 308/3/6
f 309/3/6 310/3/6 311/3/6
f 311/3/6 310/3/6 312/3/6
f 313/3/6 314/3/6 315/3/6
f 315/3/6 314/3/6 316/3/6
f 317/3/6 318/3/6 320/3/6
f 318/3/6 319/3/6 320/3/6
f 320/3/6 319/3/6 321/3/6
f 322/3/6 323/3/6 327/3/6
f 325/3/6 326/3/6 327/3/6
f 324/3/6 325/3/6 327/3/6
f 323/3/6 324/3/6 327/3/6
f 327/3/6 326/3/6 328/3/6
f 329/1/6 330/1/6 332/1/6
f 330/2/6 331/2/6 333/2/6
f 332/1/6 330/1/6 333/1/6
f 333/2/6 331/2/6 334/2/6
f 332/3/6 333/3/6 335/3/6
f 333/3/6 334/3/6 335/3/6
f 335/3/6 334/3/6 336/3/6
f 337/3/6 338/3/6 339/3/6
f 339/3/6 338/3/6 340/3/6
