# MagicaVoxel @ Ephtracy

# group
g modern:stove

# material
mtllib default-material.mtl
usemtl palette

# normals
vn -1 0 0
vn 1 0 0
vn 0 0 1
vn 0 0 -1
vn 0 -1 0
vn 0 1 0

# texcoords
vt 0.00195312 0.5
vt 0.197266 0.5
vt 0.974609 0.5
vt 0.986328 0.5
vt 0.990234 0.5

# verts
v -5.5 0 7
v -5.5 0 -4
v -5.5 10 -4
v -5.5 10 -5
v -5.5 12 7
v -5.5 12 -4
v -5.5 12 -5
v -4.5 2 -4
v -4.5 2 -5
v -4.5 6 -5
v -4.5 6 -7
v -4.5 7 -5
v -4.5 7 -7
v -4.5 10 -4
v -4.5 10 -5
v -3.5 11 6
v -3.5 11 5
v -3.5 11 3
v -3.5 11 2
v -3.5 11 1
v -3.5 11 -0
v -3.5 11 -2
v -3.5 11 -3
v -3.5 12 6
v -3.5 12 5
v -3.5 12 3
v -3.5 12 2
v -3.5 12 1
v -3.5 12 -0
v -3.5 12 -2
v -3.5 12 -3
v -2.5 10 -4
v -2.5 10 -5
v -2.5 12 -4
v -2.5 12 -5
v 0.5 10 -4
v 0.5 10 -5
v 0.5 11 5
v 0.5 11 3
v 0.5 11 -0
v 0.5 11 -2
v 0.5 12 5
v 0.5 12 3
v 0.5 12 -0
v 0.5 12 -2
v 0.5 12 -4
v 0.5 12 -5
v 1.5 11 6
v 1.5 11 5
v 1.5 11 3
v 1.5 11 2
v 1.5 11 1
v 1.5 11 -0
v 1.5 11 -2
v 1.5 11 -3
v 1.5 12 6
v 1.5 12 5
v 1.5 12 3
v 1.5 12 2
v 1.5 12 1
v 1.5 12 -0
v 1.5 12 -2
v 1.5 12 -3
v 3.5 6 -5
v 3.5 6 -6
v 3.5 7 -5
v 3.5 7 -6
v 3.5 10 -4
v 3.5 10 -5
v 3.5 12 -4
v 3.5 12 -5
v 4.5 11 6
v 4.5 11 5
v 4.5 11 3
v 4.5 11 -0
v 4.5 11 -2
v 4.5 11 -3
v 4.5 12 6
v 4.5 12 5
v 4.5 12 3
v 4.5 12 -0
v 4.5 12 -2
v 4.5 12 -3
v -4.5 11 6
v -4.5 11 5
v -4.5 11 3
v -4.5 11 -0
v -4.5 11 -2
v -4.5 11 -3
v -4.5 12 6
v -4.5 12 5
v -4.5 12 3
v -4.5 12 -0
v -4.5 12 -2
v -4.5 12 -3
v -3.5 6 -5
v -3.5 6 -6
v -3.5 7 -5
v -3.5 7 -6
v -3.5 10 -4
v -3.5 10 -5
v -3.5 12 -4
v -3.5 12 -5
v -1.5 11 6
v -1.5 11 5
v -1.5 11 3
v -1.5 11 2
v -1.5 11 1
v -1.5 11 -0
v -1.5 11 -2
v -1.5 11 -3
v -1.5 12 6
v -1.5 12 5
v -1.5 12 3
v -1.5 12 2
v -1.5 12 1
v -1.5 12 -0
v -1.5 12 -2
v -1.5 12 -3
v -0.5 10 -4
v -0.5 10 -5
v -0.5 11 5
v -0.5 11 3
v -0.5 11 -0
v -0.5 11 -2
v -0.5 12 5
v -0.5 12 3
v -0.5 12 -0
v -0.5 12 -2
v -0.5 12 -4
v -0.5 12 -5
v 2.5 10 -4
v 2.5 10 -5
v 2.5 12 -4
v 2.5 12 -5
v 3.5 11 6
v 3.5 11 5
v 3.5 11 3
v 3.5 11 2
v 3.5 11 1
v 3.5 11 -0
v 3.5 11 -2
v 3.5 11 -3
v 3.5 12 6
v 3.5 12 5
v 3.5 12 3
v 3.5 12 2
v 3.5 12 1
v 3.5 12 -0
v 3.5 12 -2
v 3.5 12 -3
v 4.5 2 -4
v 4.5 2 -5
v 4.5 6 -5
v 4.5 6 -7
v 4.5 7 -5
v 4.5 7 -7
v 4.5 10 -4
v 4.5 10 -5
v 5.5 0 7
v 5.5 0 -4
v 5.5 10 -4
v 5.5 10 -5
v 5.5 12 7
v 5.5 12 -4
v 5.5 12 -5
v -5.5 0 7
v -5.5 12 7
v 5.5 0 7
v 5.5 12 7
v -4.5 11 5
v -4.5 12 5
v -3.5 11 5
v -3.5 12 5
v -1.5 11 5
v -1.5 12 5
v -0.5 11 5
v -0.5 12 5
v 0.5 11 5
v 0.5 12 5
v 1.5 11 5
v 1.5 12 5
v 3.5 11 5
v 3.5 12 5
v 4.5 11 5
v 4.5 12 5
v -3.5 11 1
v -3.5 12 1
v -1.5 11 1
v -1.5 12 1
v 1.5 11 1
v 1.5 12 1
v 3.5 11 1
v 3.5 12 1
v -4.5 11 -0
v -4.5 12 -0
v -3.5 11 -0
v -3.5 12 -0
v -1.5 11 -0
v -1.5 12 -0
v -0.5 11 -0
v -0.5 12 -0
v 0.5 11 -0
v 0.5 12 -0
v 1.5 11 -0
v 1.5 12 -0
v 3.5 11 -0
v 3.5 12 -0
v 4.5 11 -0
v 4.5 12 -0
v -4.5 11 -3
v -4.5 12 -3
v -3.5 11 -3
v -3.5 12 -3
v -1.5 11 -3
v -1.5 12 -3
v 1.5 11 -3
v 1.5 12 -3
v 3.5 11 -3
v 3.5 12 -3
v 4.5 11 -3
v 4.5 12 -3
v -3.5 6 -6
v -3.5 7 -6
v 3.5 6 -6
v 3.5 7 -6
v -4.5 11 6
v -4.5 12 6
v -3.5 11 6
v -3.5 12 6
v -1.5 11 6
v -1.5 12 6
v 1.5 11 6
v 1.5 12 6
v 3.5 11 6
v 3.5 12 6
v 4.5 11 6
v 4.5 12 6
v -4.5 11 3
v -4.5 12 3
v -3.5 11 3
v -3.5 12 3
v -1.5 11 3
v -1.5 12 3
v -0.5 11 3
v -0.5 12 3
v 0.5 11 3
v 0.5 12 3
v 1.5 11 3
v 1.5 12 3
v 3.5 11 3
v 3.5 12 3
v 4.5 11 3
v 4.5 12 3
v -3.5 11 2
v -3.5 12 2
v -1.5 11 2
v -1.5 12 2
v 1.5 11 2
v 1.5 12 2
v 3.5 11 2
v 3.5 12 2
v -4.5 11 -2
v -4.5 12 -2
v -3.5 11 -2
v -3.5 12 -2
v -1.5 11 -2
v -1.5 12 -2
v -0.5 11 -2
v -0.5 12 -2
v 0.5 11 -2
v 0.5 12 -2
v 1.5 11 -2
v 1.5 12 -2
v 3.5 11 -2
v 3.5 12 -2
v 4.5 11 -2
v 4.5 12 -2
v -5.5 0 -4
v -5.5 10 -4
v -4.5 2 -4
v -4.5 10 -4
v -3.5 10 -4
v -3.5 12 -4
v -2.5 10 -4
v -2.5 12 -4
v -0.5 10 -4
v -0.5 12 -4
v 0.5 10 -4
v 0.5 12 -4
v 2.5 10 -4
v 2.5 12 -4
v 3.5 10 -4
v 3.5 12 -4
v 4.5 2 -4
v 4.5 10 -4
v 5.5 0 -4
v 5.5 10 -4
v -5.5 10 -5
v -5.5 12 -5
v -4.5 2 -5
v -4.5 6 -5
v -4.5 7 -5
v -4.5 10 -5
v -3.5 6 -5
v -3.5 7 -5
v -3.5 10 -5
v -3.5 12 -5
v -2.5 10 -5
v -2.5 12 -5
v -0.5 10 -5
v -0.5 12 -5
v 0.5 10 -5
v 0.5 12 -5
v 2.5 10 -5
v 2.5 12 -5
v 3.5 6 -5
v 3.5 7 -5
v 3.5 10 -5
v 3.5 12 -5
v 4.5 2 -5
v 4.5 6 -5
v 4.5 7 -5
v 4.5 10 -5
v 5.5 10 -5
v 5.5 12 -5
v -4.5 6 -7
v -4.5 7 -7
v 4.5 6 -7
v 4.5 7 -7
v -5.5 0 7
v 5.5 0 7
v -4.5 0 6
v 4.5 0 6
v -4.5 0 -3
v 4.5 0 -3
v -5.5 0 -4
v 5.5 0 -4
v -4.5 2 -4
v 4.5 2 -4
v -4.5 2 -5
v 4.5 2 -5
v -4.5 6 -5
v -3.5 6 -5
v 3.5 6 -5
v 4.5 6 -5
v -3.5 6 -6
v 3.5 6 -6
v -4.5 6 -7
v 4.5 6 -7
v -5.5 10 -4
v -4.5 10 -4
v 4.5 10 -4
v 5.5 10 -4
v -5.5 10 -5
v -4.5 10 -5
v 4.5 10 -5
v 5.5 10 -5
v -4.5 7 -5
v -3.5 7 -5
v 3.5 7 -5
v 4.5 7 -5
v -3.5 7 -6
v 3.5 7 -6
v -4.5 7 -7
v 4.5 7 -7
v -3.5 10 -4
v -2.5 10 -4
v -0.5 10 -4
v 0.5 10 -4
v 2.5 10 -4
v 3.5 10 -4
v -3.5 10 -5
v -2.5 10 -5
v -0.5 10 -5
v 0.5 10 -5
v 2.5 10 -5
v 3.5 10 -5
v -4.5 11 6
v -3.5 11 6
v -1.5 11 6
v 1.5 11 6
v 3.5 11 6
v 4.5 11 6
v -4.5 11 5
v -3.5 11 5
v -1.5 11 5
v -0.5 11 5
v 0.5 11 5
v 1.5 11 5
v 3.5 11 5
v 4.5 11 5
v -4.5 11 3
v -3.5 11 3
v -1.5 11 3
v -0.5 11 3
v 0.5 11 3
v 1.5 11 3
v 3.5 11 3
v 4.5 11 3
v -3.5 11 2
v -1.5 11 2
v 1.5 11 2
v 3.5 11 2
v -3.5 11 1
v -1.5 11 1
v 1.5 11 1
v 3.5 11 1
v -4.5 11 -0
v -3.5 11 -0
v -1.5 11 -0
v -0.5 11 -0
v 0.5 11 -0
v 1.5 11 -0
v 3.5 11 -0
v 4.5 11 -0
v -4.5 11 -2
v -3.5 11 -2
v -1.5 11 -2
v -0.5 11 -2
v 0.5 11 -2
v 1.5 11 -2
v 3.5 11 -2
v 4.5 11 -2
v -4.5 11 -3
v -3.5 11 -3
v -1.5 11 -3
v 1.5 11 -3
v 3.5 11 -3
v 4.5 11 -3
v -5.5 12 7
v 5.5 12 7
v -4.5 12 6
v -3.5 12 6
v -1.5 12 6
v 1.5 12 6
v 3.5 12 6
v 4.5 12 6
v -4.5 12 5
v -3.5 12 5
v -1.5 12 5
v -0.5 12 5
v 0.5 12 5
v 1.5 12 5
v 3.5 12 5
v 4.5 12 5
v -4.5 12 3
v -3.5 12 3
v -1.5 12 3
v -0.5 12 3
v 0.5 12 3
v 1.5 12 3
v 3.5 12 3
v 4.5 12 3
v -3.5 12 2
v -1.5 12 2
v 1.5 12 2
v 3.5 12 2
v -3.5 12 1
v -1.5 12 1
v 1.5 12 1
v 3.5 12 1
v -4.5 12 -0
v -3.5 12 -0
v -1.5 12 -0
v -0.5 12 -0
v 0.5 12 -0
v 1.5 12 -0
v 3.5 12 -0
v 4.5 12 -0
v -4.5 12 -2
v -3.5 12 -2
v -1.5 12 -2
v -0.5 12 -2
v 0.5 12 -2
v 1.5 12 -2
v 3.5 12 -2
v 4.5 12 -2
v -4.5 12 -3
v -3.5 12 -3
v -1.5 12 -3
v 1.5 12 -3
v 3.5 12 -3
v 4.5 12 -3
v -5.5 12 -4
v -3.5 12 -4
v -2.5 12 -4
v -0.5 12 -4
v 0.5 12 -4
v 2.5 12 -4
v 3.5 12 -4
v 5.5 12 -4
v -5.5 12 -5
v -3.5 12 -5
v -2.5 12 -5
v -0.5 12 -5
v 0.5 12 -5
v 2.5 12 -5
v 3.5 12 -5
v 5.5 12 -5

# faces
f 3/3/1 2/3/1 1/3/1
f 5/3/1 3/3/1 1/3/1
f 6/4/1 4/4/1 3/4/1
f 6/3/1 3/3/1 5/3/1
f 7/4/1 4/4/1 6/4/1
f 10/5/1 9/5/1 8/5/1
f 12/5/1 10/5/1 8/5/1
f 12/3/1 11/3/1 10/3/1
f 13/3/1 11/3/1 12/3/1
f 14/5/1 12/5/1 8/5/1
f 15/5/1 12/5/1 14/5/1
f 24/4/1 17/4/1 16/4/1
f 25/4/1 17/4/1 24/4/1
f 26/4/1 19/4/1 18/4/1
f 27/4/1 19/4/1 26/4/1
f 28/4/1 21/4/1 20/4/1
f 29/4/1 21/4/1 28/4/1
f 30/4/1 23/4/1 22/4/1
f 31/4/1 23/4/1 30/4/1
f 34/4/1 33/4/1 32/4/1
f 35/4/1 33/4/1 34/4/1
f 42/4/1 39/4/1 38/4/1
f 43/4/1 39/4/1 42/4/1
f 44/4/1 41/4/1 40/4/1
f 45/4/1 41/4/1 44/4/1
f 46/4/1 37/4/1 36/4/1
f 47/4/1 37/4/1 46/4/1
f 56/4/1 49/4/1 48/4/1
f 57/4/1 49/4/1 56/4/1
f 58/4/1 51/4/1 50/4/1
f 59/4/1 51/4/1 58/4/1
f 60/4/1 53/4/1 52/4/1
f 61/4/1 53/4/1 60/4/1
f 62/4/1 55/4/1 54/4/1
f 63/4/1 55/4/1 62/4/1
f 66/3/1 65/3/1 64/3/1
f 67/3/1 65/3/1 66/3/1
f 70/4/1 69/4/1 68/4/1
f 71/4/1 69/4/1 70/4/1
f 78/3/1 73/3/1 72/3/1
f 79/3/1 73/3/1 78/3/1
f 80/3/1 75/3/1 74/3/1
f 81/3/1 75/3/1 80/3/1
f 82/3/1 77/3/1 76/3/1
f 83/3/1 77/3/1 82/3/1
f 84/3/2 85/3/2 90/3/2
f 90/3/2 85/3/2 91/3/2
f 86/3/2 87/3/2 92/3/2
f 92/3/2 87/3/2 93/3/2
f 88/3/2 89/3/2 94/3/2
f 94/3/2 89/3/2 95/3/2
f 96/3/2 97/3/2 98/3/2
f 98/3/2 97/3/2 99/3/2
f 100/4/2 101/4/2 102/4/2
f 102/4/2 101/4/2 103/4/2
f 104/4/2 105/4/2 112/4/2
f 112/4/2 105/4/2 113/4/2
f 106/4/2 107/4/2 114/4/2
f 114/4/2 107/4/2 115/4/2
f 108/4/2 109/4/2 116/4/2
f 116/4/2 109/4/2 117/4/2
f 110/4/2 111/4/2 118/4/2
f 118/4/2 111/4/2 119/4/2
f 122/4/2 123/4/2 126/4/2
f 126/4/2 123/4/2 127/4/2
f 124/4/2 125/4/2 128/4/2
f 128/4/2 125/4/2 129/4/2
f 120/4/2 121/4/2 130/4/2
f 130/4/2 121/4/2 131/4/2
f 132/4/2 133/4/2 134/4/2
f 134/4/2 133/4/2 135/4/2
f 136/4/2 137/4/2 144/4/2
f 144/4/2 137/4/2 145/4/2
f 138/4/2 139/4/2 146/4/2
f 146/4/2 139/4/2 147/4/2
f 140/4/2 141/4/2 148/4/2
f 148/4/2 141/4/2 149/4/2
f 142/4/2 143/4/2 150/4/2
f 150/4/2 143/4/2 151/4/2
f 152/5/2 153/5/2 154/5/2
f 152/5/2 154/5/2 156/5/2
f 154/3/2 155/3/2 156/3/2
f 156/3/2 155/3/2 157/3/2
f 152/5/2 156/5/2 158/5/2
f 158/5/2 156/5/2 159/5/2
f 160/3/2 161/3/2 162/3/2
f 160/3/2 162/3/2 164/3/2
f 162/4/2 163/4/2 165/4/2
f 164/3/2 162/3/2 165/3/2
f 165/4/2 163/4/2 166/4/2
f 169/3/3 168/3/3 167/3/3
f 170/3/3 168/3/3 169/3/3
f 173/4/3 172/4/3 171/4/3
f 174/4/3 172/4/3 173/4/3
f 177/4/3 176/4/3 175/4/3
f 178/4/3 176/4/3 177/4/3
f 181/4/3 180/4/3 179/4/3
f 182/4/3 180/4/3 181/4/3
f 185/4/3 184/4/3 183/4/3
f 186/4/3 184/4/3 185/4/3
f 189/4/3 188/4/3 187/4/3
f 190/4/3 188/4/3 189/4/3
f 193/4/3 192/4/3 191/4/3
f 194/4/3 192/4/3 193/4/3
f 197/4/3 196/4/3 195/4/3
f 198/4/3 196/4/3 197/4/3
f 201/4/3 200/4/3 199/4/3
f 202/4/3 200/4/3 201/4/3
f 205/4/3 204/4/3 203/4/3
f 206/4/3 204/4/3 205/4/3
f 209/4/3 208/4/3 207/4/3
f 210/4/3 208/4/3 209/4/3
f 213/3/3 212/3/3 211/3/3
f 214/3/3 212/3/3 213/3/3
f 217/3/3 216/3/3 215/3/3
f 218/3/3 216/3/3 217/3/3
f 221/3/3 220/3/3 219/3/3
f 222/3/3 220/3/3 221/3/3
f 225/3/3 224/3/3 223/3/3
f 226/3/3 224/3/3 225/3/3
f 227/3/4 228/3/4 229/3/4
f 229/3/4 228/3/4 230/3/4
f 231/3/4 232/3/4 233/3/4
f 233/3/4 232/3/4 234/3/4
f 235/3/4 236/3/4 237/3/4
f 237/3/4 236/3/4 238/3/4
f 239/4/4 240/4/4 241/4/4
f 241/4/4 240/4/4 242/4/4
f 243/4/4 244/4/4 245/4/4
f 245/4/4 244/4/4 246/4/4
f 247/4/4 248/4/4 249/4/4
f 249/4/4 248/4/4 250/4/4
f 251/4/4 252/4/4 253/4/4
f 253/4/4 252/4/4 254/4/4
f 255/4/4 256/4/4 257/4/4
f 257/4/4 256/4/4 258/4/4
f 259/4/4 260/4/4 261/4/4
f 261/4/4 260/4/4 262/4/4
f 263/4/4 264/4/4 265/4/4
f 265/4/4 264/4/4 266/4/4
f 267/4/4 268/4/4 269/4/4
f 269/4/4 268/4/4 270/4/4
f 271/4/4 272/4/4 273/4/4
f 273/4/4 272/4/4 274/4/4
f 275/4/4 276/4/4 277/4/4
f 277/4/4 276/4/4 278/4/4
f 279/3/4 280/3/4 281/3/4
f 281/3/4 280/3/4 282/3/4
f 283/3/4 284/3/4 285/3/4
f 285/3/4 284/3/4 286/3/4
f 287/3/4 288/3/4 289/3/4
f 289/3/4 288/3/4 290/3/4
f 291/3/4 292/3/4 293/3/4
f 293/3/4 292/3/4 294/3/4
f 279/3/4 281/3/4 295/3/4
f 279/3/4 295/3/4 297/3/4
f 295/3/4 296/3/4 297/3/4
f 297/3/4 296/3/4 298/3/4
f 299/4/4 300/4/4 304/4/4
f 301/5/4 302/5/4 305/5/4
f 303/5/4 304/5/4 306/5/4
f 304/4/4 300/4/4 307/4/4
f 306/5/4 304/5/4 307/5/4
f 307/4/4 300/4/4 308/4/4
f 305/5/4 306/5/4 309/5/4
f 306/5/4 307/5/4 309/5/4
f 305/5/4 309/5/4 311/5/4
f 309/4/4 310/4/4 311/4/4
f 311/4/4 310/4/4 312/4/4
f 305/5/4 311/5/4 313/5/4
f 305/5/4 313/5/4 315/5/4
f 313/4/4 314/4/4 315/4/4
f 315/4/4 314/4/4 316/4/4
f 301/5/4 305/5/4 317/5/4
f 305/5/4 315/5/4 317/5/4
f 317/5/4 315/5/4 318/5/4
f 318/5/4 315/5/4 319/5/4
f 301/5/4 317/5/4 321/5/4
f 321/5/4 317/5/4 322/5/4
f 318/5/4 319/5/4 323/5/4
f 319/4/4 320/4/4 324/4/4
f 323/5/4 319/5/4 324/5/4
f 324/4/4 320/4/4 325/4/4
f 325/4/4 320/4/4 326/4/4
f 327/3/4 328/3/4 329/3/4
f 329/3/4 328/3/4 330/3/4
f 333/3/5 332/3/5 331/3/5
f 334/3/5 332/3/5 333/3/5
f 335/3/5 333/3/5 331/3/5
f 335/2/5 334/2/5 333/2/5
f 336/3/5 332/3/5 334/3/5
f 336/2/5 334/2/5 335/2/5
f 337/3/5 335/3/5 331/3/5
f 337/3/5 336/3/5 335/3/5
f 338/3/5 332/3/5 336/3/5
f 338/3/5 336/3/5 337/3/5
f 341/5/5 340/5/5 339/5/5
f 342/5/5 340/5/5 341/5/5
f 347/3/5 344/3/5 343/3/5
f 348/3/5 346/3/5 345/3/5
f 349/3/5 347/3/5 343/3/5
f 349/3/5 348/3/5 347/3/5
f 350/3/5 346/3/5 348/3/5
f 350/3/5 348/3/5 349/3/5
f 355/4/5 352/4/5 351/4/5
f 356/4/5 352/4/5 355/4/5
f 357/4/5 354/4/5 353/4/5
f 358/4/5 354/4/5 357/4/5
f 359/3/6 360/3/6 363/3/6
f 361/3/6 362/3/6 364/3/6
f 359/3/6 363/3/6 365/3/6
f 363/3/6 364/3/6 365/3/6
f 364/3/6 362/3/6 366/3/6
f 365/3/6 364/3/6 366/3/6
f 367/5/6 368/5/6 373/5/6
f 373/5/6 368/5/6 374/5/6
f 369/5/6 370/5/6 375/5/6
f 375/5/6 370/5/6 376/5/6
f 371/5/6 372/5/6 377/5/6
f 377/5/6 372/5/6 378/5/6
f 379/5/6 380/5/6 385/5/6
f 385/5/6 380/5/6 386/5/6
f 381/5/6 382/5/6 387/5/6
f 387/5/6 382/5/6 388/5/6
f 388/5/6 382/5/6 389/5/6
f 389/5/6 382/5/6 390/5/6
f 383/5/6 384/5/6 391/5/6
f 391/5/6 384/5/6 392/5/6
f 388/5/6 389/5/6 396/5/6
f 396/5/6 389/5/6 397/5/6
f 393/5/6 394/5/6 401/5/6
f 395/5/6 396/5/6 402/5/6
f 396/5/6 397/5/6 402/5/6
f 397/5/6 398/5/6 402/5/6
f 402/5/6 398/5/6 403/5/6
f 399/5/6 400/5/6 404/5/6
f 402/5/6 403/5/6 405/5/6
f 403/5/6 404/5/6 405/5/6
f 393/5/6 401/5/6 405/5/6
f 401/5/6 402/5/6 405/5/6
f 405/5/6 404/5/6 406/5/6
f 406/5/6 404/5/6 407/5/6
f 404/5/6 400/5/6 408/5/6
f 407/5/6 404/5/6 408/5/6
f 393/5/6 405/5/6 409/5/6
f 409/5/6 405/5/6 410/5/6
f 406/5/6 407/5/6 411/5/6
f 411/5/6 407/5/6 412/5/6
f 412/5/6 407/5/6 413/5/6
f 413/5/6 407/5/6 414/5/6
f 408/5/6 400/5/6 415/5/6
f 415/5/6 400/5/6 416/5/6
f 412/5/6 413/5/6 420/5/6
f 420/5/6 413/5/6 421/5/6
f 417/5/6 418/5/6 425/5/6
f 425/5/6 418/5/6 426/5/6
f 419/5/6 420/5/6 427/5/6
f 420/5/6 421/5/6 427/5/6
f 421/5/6 422/5/6 427/5/6
f 427/5/6 422/5/6 428/5/6
f 423/5/6 424/5/6 429/5/6
f 429/5/6 424/5/6 430/5/6
f 431/3/6 432/3/6 433/3/6
f 433/3/6 432/3/6 434/3/6
f 434/3/6 432/3/6 435/3/6
f 435/3/6 432/3/6 436/3/6
f 436/3/6 432/3/6 437/3/6
f 437/3/6 432/3/6 438/3/6
f 431/3/6 433/3/6 439/3/6
f 434/4/6 435/4/6 440/4/6
f 440/4/6 435/4/6 441/4/6
f 436/4/6 437/4/6 444/4/6
f 444/4/6 437/4/6 445/4/6
f 438/3/6 432/3/6 446/3/6
f 441/4/6 442/4/6 447/4/6
f 431/3/6 439/3/6 447/3/6
f 439/4/6 440/4/6 447/4/6
f 440/4/6 441/4/6 447/4/6
f 447/4/6 442/4/6 448/4/6
f 448/4/6 442/4/6 449/4/6
f 449/4/6 442/4/6 450/4/6
f 444/4/6 445/4/6 451/4/6
f 445/4/6 446/4/6 451/4/6
f 443/4/6 444/4/6 451/4/6
f 451/4/6 446/4/6 452/4/6
f 452/4/6 446/4/6 453/4/6
f 446/3/6 432/3/6 454/3/6
f 453/4/6 446/4/6 454/4/6
f 448/4/6 449/4/6 455/4/6
f 455/4/6 449/4/6 456/4/6
f 452/4/6 453/4/6 457/4/6
f 457/4/6 453/4/6 458/4/6
f 431/3/6 447/3/6 463/3/6
f 459/4/6 460/4/6 464/4/6
f 464/4/6 460/4/6 465/4/6
f 461/4/6 462/4/6 468/4/6
f 468/4/6 462/4/6 469/4/6
f 454/3/6 432/3/6 470/3/6
f 465/4/6 466/4/6 471/4/6
f 431/3/6 463/3/6 471/3/6
f 463/4/6 464/4/6 471/4/6
f 464/4/6 465/4/6 471/4/6
f 471/4/6 466/4/6 472/4/6
f 472/4/6 466/4/6 473/4/6
f 473/4/6 466/4/6 474/4/6
f 468/4/6 469/4/6 475/4/6
f 467/4/6 468/4/6 475/4/6
f 469/4/6 470/4/6 475/4/6
f 475/4/6 470/4/6 476/4/6
f 476/4/6 470/4/6 477/4/6
f 470/3/6 432/3/6 478/3/6
f 477/4/6 470/4/6 478/4/6
f 431/3/6 471/3/6 479/3/6
f 472/4/6 473/4/6 480/4/6
f 480/4/6 473/4/6 481/4/6
f 476/4/6 477/4/6 482/4/6
f 482/4/6 477/4/6 483/4/6
f 478/3/6 432/3/6 484/3/6
f 482/3/6 483/3/6 485/3/6
f 483/3/6 484/3/6 485/3/6
f 431/3/6 479/3/6 485/3/6
f 480/3/6 481/3/6 485/3/6
f 481/3/6 482/3/6 485/3/6
f 479/3/6 480/3/6 485/3/6
f 485/3/6 484/3/6 486/3/6
f 486/3/6 484/3/6 487/3/6
f 487/3/6 484/3/6 488/3/6
f 488/3/6 484/3/6 489/3/6
f 489/3/6 484/3/6 490/3/6
f 490/3/6 484/3/6 491/3/6
f 484/3/6 432/3/6 492/3/6
f 491/3/6 484/3/6 492/3/6
f 485/4/6 486/4/6 493/4/6
f 493/4/6 486/4/6 494/4/6
f 487/4/6 488/4/6 495/4/6
f 495/4/6 488/4/6 496/4/6
f 489/4/6 490/4/6 497/4/6
f 497/4/6 490/4/6 498/4/6
f 491/4/6 492/4/6 499/4/6
f 499/4/6 492/4/6 500/4/6
