# MagicaVoxel @ Ephtracy

# group
g modern:wall-left-window

# material
mtllib default-material.mtl
usemtl palette

# normals
vn -1 0 0
vn 1 0 0
vn 0 0 1
vn 0 0 -1
vn 0 -1 0
vn 0 1 0

# texcoords
vt 0.310547 0.5
vt 0.318359 0.5
vt 0.916016 0.5
vt 0.958984 0.5
vt 0.970703 0.5
vt 0.986328 0.5
vt 0.994141 0.5

# verts
v -30 0 2
v -30 0 -2
v -30 1 2
v -30 1 1
v -30 1 -1
v -30 1 -2
v -30 3 2
v -30 3 1
v -30 3 -1
v -30 3 -2
v -30 25 -0
v -30 25 -2
v -30 26 1
v -30 26 -0
v -30 27 2
v -30 27 1
v -28 23 2
v -28 23 1
v -28 23 -1
v -28 24 2
v -28 24 1
v -28 24 -1
v -27 24 2
v -27 24 1
v -27 24 -1
v -27 24 -2
v -27 36 2
v -27 36 1
v -27 36 -1
v -27 36 -2
v -27 37 2
v -27 37 1
v -27 37 -1
v -27 37 -2
v -26 37 3
v -26 37 2
v -26 37 1
v -26 37 -1
v -26 37 -2
v -26 37 -3
v -26 38 3
v -26 38 -3
v -1 34 1
v -1 34 -0
v -1 36 1
v -1 37 1
v -1 37 -0
v 7 1 1
v 7 1 -0
v 7 1 -1
v 7 31 1
v 7 31 -0
v 7 31 -1
v 8 1 2
v 8 1 1
v 8 1 -1
v 8 1 -2
v 8 32 2
v 8 32 1
v 8 32 -1
v 8 32 -2
v 9 34 1
v 9 34 -1
v 9 35 1
v 9 35 -1
v 21 34 1
v 21 34 -0
v 21 35 1
v 21 35 -0
v 22 34 -0
v 22 34 -1
v 22 36 -1
v 22 37 -0
v 22 37 -1
v -29 23 2
v -29 23 -1
v -29 24 -1
v -29 24 -2
v -29 25 -0
v -29 25 -2
v -29 26 1
v -29 26 -0
v -29 27 2
v -29 27 1
v -10 1 2
v -10 1 1
v -10 1 -1
v -10 1 -2
v -10 32 2
v -10 32 1
v -10 32 -1
v -10 32 -2
v -9 1 1
v -9 1 -0
v -9 1 -1
v -9 31 1
v -9 31 -0
v -9 31 -1
v -2 34 1
v -2 34 -0
v -2 36 1
v -2 37 1
v -2 37 -0
v 8 34 1
v 8 34 -1
v 8 35 1
v 8 35 -1
v 12 34 -0
v 12 34 -1
v 12 36 -1
v 12 37 -0
v 12 37 -1
v 20 34 1
v 20 34 -0
v 20 35 1
v 20 35 -0
v 24 34 -0
v 24 34 -1
v 24 36 -1
v 24 37 -0
v 24 37 -1
v 28 37 3
v 28 37 2
v 28 37 1
v 28 37 -0
v 28 37 -1
v 28 37 -2
v 28 37 -3
v 28 38 3
v 28 38 -3
v 29 0 -0
v 29 0 -2
v 29 1 -0
v 29 1 -1
v 29 1 -2
v 29 2 1
v 29 2 -0
v 29 3 2
v 29 3 1
v 29 3 -1
v 29 3 -2
v 29 34 -0
v 29 34 -1
v 29 36 2
v 29 36 1
v 29 36 -1
v 29 36 -2
v 29 37 2
v 29 37 1
v 29 37 -0
v 29 37 -1
v 29 37 -2
v 30 0 2
v 30 0 -0
v 30 1 2
v 30 1 1
v 30 1 -0
v 30 2 1
v 30 2 -0
v 30 3 2
v 30 3 1
v -26 37 3
v -26 38 3
v 28 37 3
v 28 38 3
v -30 0 2
v -30 1 2
v -30 3 2
v -30 27 2
v -29 23 2
v -29 27 2
v -28 23 2
v -28 24 2
v -27 24 2
v -27 36 2
v -27 37 2
v -26 37 2
v -11 0 2
v -11 1 2
v -11 3 2
v -11 33 2
v -10 1 2
v -10 32 2
v 8 1 2
v 8 32 2
v 9 0 2
v 9 1 2
v 9 3 2
v 9 33 2
v 28 37 2
v 29 3 2
v 29 36 2
v 29 37 2
v 30 0 2
v 30 1 2
v 30 3 2
v -10 1 1
v -10 32 1
v -9 1 1
v -9 31 1
v 7 1 1
v 7 31 1
v 8 1 1
v 8 32 1
v -2 34 -0
v -2 37 -0
v -1 34 -0
v -1 37 -0
v -29 23 -1
v -29 24 -1
v -28 23 -1
v -28 24 -1
v 8 34 -1
v 8 35 -1
v 9 34 -1
v 9 35 -1
v 12 34 -1
v 12 36 -1
v 12 37 -1
v 22 34 -1
v 22 36 -1
v 22 37 -1
v 24 34 -1
v 24 36 -1
v 24 37 -1
v 28 37 -1
v 29 34 -1
v 29 36 -1
v 29 37 -1
v -30 26 1
v -30 27 1
v -29 26 1
v -29 27 1
v -2 34 1
v -2 36 1
v -2 37 1
v -1 34 1
v -1 36 1
v -1 37 1
v 8 34 1
v 8 35 1
v 9 34 1
v 9 35 1
v 20 34 1
v 20 35 1
v 21 34 1
v 21 35 1
v 29 2 1
v 29 3 1
v 30 2 1
v 30 3 1
v -30 25 -0
v -30 26 -0
v -29 25 -0
v -29 26 -0
v 12 34 -0
v 12 37 -0
v 20 34 -0
v 20 35 -0
v 21 34 -0
v 21 35 -0
v 22 34 -0
v 22 37 -0
v 24 34 -0
v 24 37 -0
v 28 37 -0
v 29 0 -0
v 29 1 -0
v 29 2 -0
v 29 34 -0
v 29 37 -0
v 30 0 -0
v 30 1 -0
v 30 2 -0
v -10 1 -1
v -10 32 -1
v -9 1 -1
v -9 31 -1
v 7 1 -1
v 7 31 -1
v 8 1 -1
v 8 32 -1
v -30 0 -2
v -30 1 -2
v -30 3 -2
v -30 25 -2
v -29 24 -2
v -29 25 -2
v -27 24 -2
v -27 36 -2
v -27 37 -2
v -26 37 -2
v -11 1 -2
v -11 3 -2
v -11 33 -2
v -10 0 -2
v -10 1 -2
v -10 32 -2
v 8 0 -2
v 8 1 -2
v 8 32 -2
v 9 1 -2
v 9 3 -2
v 9 33 -2
v 15 0 -2
v 15 1 -2
v 19 0 -2
v 19 1 -2
v 28 37 -2
v 29 0 -2
v 29 1 -2
v 29 3 -2
v 29 36 -2
v 29 37 -2
v -26 37 -3
v -26 38 -3
v 28 37 -3
v 28 38 -3
v -30 0 2
v -11 0 2
v 9 0 2
v 30 0 2
v -11 0 1
v -9 0 1
v 7 0 1
v 9 0 1
v 29 0 -0
v 30 0 -0
v -10 0 -1
v -9 0 -1
v 7 0 -1
v 8 0 -1
v 15 0 -1
v 19 0 -1
v -30 0 -2
v -10 0 -2
v 8 0 -2
v 15 0 -2
v 19 0 -2
v 29 0 -2
v -9 31 1
v 7 31 1
v -9 31 -0
v 7 31 -0
v -9 31 -1
v 7 31 -1
v -10 32 2
v 8 32 2
v -10 32 1
v 8 32 1
v -10 32 -1
v 8 32 -1
v -10 32 -2
v 8 32 -2
v 8 35 1
v 9 35 1
v 20 35 1
v 21 35 1
v 20 35 -0
v 21 35 -0
v 8 35 -1
v 9 35 -1
v -26 37 3
v 28 37 3
v -26 37 2
v 28 37 2
v -2 37 1
v -1 37 1
v -2 37 -0
v -1 37 -0
v 12 37 -0
v 22 37 -0
v 24 37 -0
v 28 37 -0
v 12 37 -1
v 22 37 -1
v 24 37 -1
v 28 37 -1
v -26 37 -2
v 28 37 -2
v -26 37 -3
v 28 37 -3
v -10 1 2
v 8 1 2
v -10 1 1
v -9 1 1
v 7 1 1
v 8 1 1
v -9 1 -0
v 7 1 -0
v -10 1 -1
v -9 1 -1
v 7 1 -1
v 8 1 -1
v -10 1 -2
v 8 1 -2
v 29 2 1
v 30 2 1
v 29 2 -0
v 30 2 -0
v 29 3 2
v 30 3 2
v 29 3 1
v 30 3 1
v -29 23 2
v -28 23 2
v -28 23 1
v -29 23 -1
v -28 23 -1
v -28 24 2
v -27 24 2
v -28 24 1
v -27 24 1
v -29 24 -1
v -28 24 -1
v -27 24 -1
v -29 24 -2
v -27 24 -2
v -30 25 -0
v -29 25 -0
v -30 25 -2
v -29 25 -2
v -30 26 1
v -29 26 1
v -30 26 -0
v -29 26 -0
v -30 27 2
v -29 27 2
v -30 27 1
v -29 27 1
v -2 34 1
v -1 34 1
v 8 34 1
v 9 34 1
v 20 34 1
v 21 34 1
v -2 34 -0
v -1 34 -0
v 12 34 -0
v 20 34 -0
v 21 34 -0
v 22 34 -0
v 24 34 -0
v 29 34 -0
v 8 34 -1
v 9 34 -1
v 12 34 -1
v 22 34 -1
v 24 34 -1
v 29 34 -1
v -27 37 2
v -26 37 2
v 28 37 2
v 29 37 2
v -27 37 1
v -26 37 1
v 28 37 1
v 29 37 1
v 28 37 -0
v 29 37 -0
v -27 37 -1
v -26 37 -1
v 28 37 -1
v 29 37 -1
v -27 37 -2
v -26 37 -2
v 28 37 -2
v 29 37 -2
v -26 38 3
v 28 38 3
v -26 38 -3
v 28 38 -3

# faces
f 3/5/1 2/5/1 1/5/1
f 4/5/1 2/5/1 3/5/1
f 5/5/1 2/5/1 4/5/1
f 6/5/1 2/5/1 5/5/1
f 7/4/1 4/4/1 3/4/1
f 8/6/1 5/6/1 4/6/1
f 8/4/1 4/4/1 7/4/1
f 9/3/1 6/3/1 5/3/1
f 9/6/1 5/6/1 8/6/1
f 10/3/1 6/3/1 9/3/1
f 11/6/1 8/6/1 7/6/1
f 11/6/1 9/6/1 8/6/1
f 11/6/1 10/6/1 9/6/1
f 12/6/1 10/6/1 11/6/1
f 13/6/1 11/6/1 7/6/1
f 14/6/1 11/6/1 13/6/1
f 15/6/1 13/6/1 7/6/1
f 16/6/1 13/6/1 15/6/1
f 20/6/1 18/6/1 17/6/1
f 21/1/1 19/1/1 18/1/1
f 21/6/1 18/6/1 20/6/1
f 22/1/1 19/1/1 21/1/1
f 27/6/1 24/6/1 23/6/1
f 27/6/1 26/6/1 25/6/1
f 27/6/1 25/6/1 24/6/1
f 28/6/1 26/6/1 27/6/1
f 29/6/1 26/6/1 28/6/1
f 30/6/1 26/6/1 29/6/1
f 31/4/1 28/4/1 27/4/1
f 32/6/1 29/6/1 28/6/1
f 32/4/1 28/4/1 31/4/1
f 33/3/1 30/3/1 29/3/1
f 33/6/1 29/6/1 32/6/1
f 34/3/1 30/3/1 33/3/1
f 41/3/1 36/3/1 35/3/1
f 41/3/1 40/3/1 39/3/1
f 41/3/1 39/3/1 38/3/1
f 41/3/1 38/3/1 37/3/1
f 41/3/1 37/3/1 36/3/1
f 42/3/1 40/3/1 41/3/1
f 45/6/1 44/6/1 43/6/1
f 46/6/1 44/6/1 45/6/1
f 47/6/1 44/6/1 46/6/1
f 51/1/1 49/1/1 48/1/1
f 52/7/1 50/7/1 49/7/1
f 52/1/1 49/1/1 51/1/1
f 53/7/1 50/7/1 52/7/1
f 58/7/1 55/7/1 54/7/1
f 59/7/1 55/7/1 58/7/1
f 60/7/1 57/7/1 56/7/1
f 61/7/1 57/7/1 60/7/1
f 64/6/1 63/6/1 62/6/1
f 65/6/1 63/6/1 64/6/1
f 68/6/1 67/6/1 66/6/1
f 69/6/1 67/6/1 68/6/1
f 72/6/1 71/6/1 70/6/1
f 73/6/1 72/6/1 70/6/1
f 74/6/1 72/6/1 73/6/1
f 75/6/2 76/6/2 77/6/2
f 75/6/2 77/6/2 79/6/2
f 77/6/2 78/6/2 79/6/2
f 79/6/2 78/6/2 80/6/2
f 75/6/2 79/6/2 81/6/2
f 81/6/2 79/6/2 82/6/2
f 75/6/2 81/6/2 83/6/2
f 83/6/2 81/6/2 84/6/2
f 85/7/2 86/7/2 89/7/2
f 89/7/2 86/7/2 90/7/2
f 87/7/2 88/7/2 91/7/2
f 91/7/2 88/7/2 92/7/2
f 93/1/2 94/1/2 96/1/2
f 94/7/2 95/7/2 97/7/2
f 96/1/2 94/1/2 97/1/2
f 97/7/2 95/7/2 98/7/2
f 99/6/2 100/6/2 101/6/2
f 101/6/2 100/6/2 102/6/2
f 102/6/2 100/6/2 103/6/2
f 104/6/2 105/6/2 106/6/2
f 106/6/2 105/6/2 107/6/2
f 108/6/2 109/6/2 110/6/2
f 108/6/2 110/6/2 111/6/2
f 111/6/2 110/6/2 112/6/2
f 113/6/2 114/6/2 115/6/2
f 115/6/2 114/6/2 116/6/2
f 117/6/2 118/6/2 119/6/2
f 117/6/2 119/6/2 120/6/2
f 120/6/2 119/6/2 121/6/2
f 122/3/2 123/3/2 129/3/2
f 127/3/2 128/3/2 129/3/2
f 126/3/2 127/3/2 129/3/2
f 125/3/2 126/3/2 129/3/2
f 124/3/2 125/3/2 129/3/2
f 123/3/2 124/3/2 129/3/2
f 129/3/2 128/3/2 130/3/2
f 131/5/2 132/5/2 133/5/2
f 133/5/2 132/5/2 134/5/2
f 134/5/2 132/5/2 135/5/2
f 133/6/2 134/6/2 137/6/2
f 136/6/2 137/6/2 139/6/2
f 134/3/2 135/3/2 140/3/2
f 137/6/2 134/6/2 140/6/2
f 139/6/2 137/6/2 140/6/2
f 140/3/2 135/3/2 141/3/2
f 138/6/2 139/6/2 142/6/2
f 139/6/2 140/6/2 142/6/2
f 140/6/2 141/6/2 142/6/2
f 142/6/2 141/6/2 143/6/2
f 138/6/2 142/6/2 144/6/2
f 144/6/2 142/6/2 145/6/2
f 143/6/2 141/6/2 146/6/2
f 146/6/2 141/6/2 147/6/2
f 144/4/2 145/4/2 148/4/2
f 145/6/2 142/6/2 149/6/2
f 148/4/2 145/4/2 149/4/2
f 149/6/2 142/6/2 150/6/2
f 146/3/2 147/3/2 151/3/2
f 151/3/2 147/3/2 152/3/2
f 153/5/2 154/5/2 155/5/2
f 155/5/2 154/5/2 156/5/2
f 156/5/2 154/5/2 157/5/2
f 155/4/2 156/4/2 158/4/2
f 156/6/2 157/6/2 158/6/2
f 158/6/2 157/6/2 159/6/2
f 155/4/2 158/4/2 160/4/2
f 160/4/2 158/4/2 161/4/2
f 164/3/3 163/3/3 162/3/3
f 165/3/3 163/3/3 164/3/3
f 170/6/3 169/6/3 168/6/3
f 171/6/3 169/6/3 170/6/3
f 172/6/3 170/6/3 168/6/3
f 174/6/3 173/6/3 172/6/3
f 177/4/3 176/4/3 175/4/3
f 178/5/3 167/5/3 166/5/3
f 179/4/3 168/4/3 167/4/3
f 179/5/3 167/5/3 178/5/3
f 180/6/3 174/6/3 172/6/3
f 180/4/3 168/4/3 179/4/3
f 180/6/3 172/6/3 168/6/3
f 180/6/3 175/6/3 174/6/3
f 181/6/3 175/6/3 180/6/3
f 182/7/3 179/7/3 178/7/3
f 182/7/3 180/7/3 179/7/3
f 182/7/3 181/7/3 180/7/3
f 183/7/3 181/7/3 182/7/3
f 184/7/3 182/7/3 178/7/3
f 185/7/3 181/7/3 183/7/3
f 186/7/3 184/7/3 178/7/3
f 186/7/3 185/7/3 184/7/3
f 187/7/3 185/7/3 186/7/3
f 188/7/3 185/7/3 187/7/3
f 189/6/3 175/6/3 181/6/3
f 189/7/3 185/7/3 188/7/3
f 189/7/3 181/7/3 185/7/3
f 190/4/3 177/4/3 175/4/3
f 191/4/3 188/4/3 187/4/3
f 191/6/3 189/6/3 188/6/3
f 192/6/3 175/6/3 189/6/3
f 192/6/3 189/6/3 191/6/3
f 192/4/3 190/4/3 175/4/3
f 193/4/3 190/4/3 192/4/3
f 194/5/3 187/5/3 186/5/3
f 195/4/3 191/4/3 187/4/3
f 195/5/3 187/5/3 194/5/3
f 196/4/3 191/4/3 195/4/3
f 199/1/3 198/1/3 197/1/3
f 200/1/3 198/1/3 199/1/3
f 202/1/3 198/1/3 200/1/3
f 203/1/3 202/1/3 201/1/3
f 204/1/3 198/1/3 202/1/3
f 204/1/3 202/1/3 203/1/3
f 207/6/3 206/6/3 205/6/3
f 208/6/3 206/6/3 207/6/3
f 211/6/3 210/6/3 209/6/3
f 212/6/3 210/6/3 211/6/3
f 215/6/3 214/6/3 213/6/3
f 216/6/3 214/6/3 215/6/3
f 220/6/3 218/6/3 217/6/3
f 221/3/3 219/3/3 218/3/3
f 221/6/3 218/6/3 220/6/3
f 222/3/3 219/3/3 221/3/3
f 226/3/3 225/3/3 224/3/3
f 227/6/3 224/6/3 223/6/3
f 228/3/3 226/3/3 224/3/3
f 228/6/3 224/6/3 227/6/3
f 229/3/3 226/3/3 228/3/3
f 230/6/4 231/6/4 232/6/4
f 232/6/4 231/6/4 233/6/4
f 234/6/4 235/6/4 237/6/4
f 235/4/4 236/4/4 238/4/4
f 237/6/4 235/6/4 238/6/4
f 238/4/4 236/4/4 239/4/4
f 240/6/4 241/6/4 242/6/4
f 242/6/4 241/6/4 243/6/4
f 244/6/4 245/6/4 246/6/4
f 246/6/4 245/6/4 247/6/4
f 248/4/4 249/4/4 250/4/4
f 250/4/4 249/4/4 251/4/4
f 252/6/4 253/6/4 254/6/4
f 254/6/4 253/6/4 255/6/4
f 256/6/4 257/6/4 258/6/4
f 258/6/4 257/6/4 259/6/4
f 259/6/4 257/6/4 261/6/4
f 260/6/4 261/6/4 262/6/4
f 261/6/4 257/6/4 263/6/4
f 262/6/4 261/6/4 263/6/4
f 264/6/4 265/6/4 266/6/4
f 264/6/4 266/6/4 270/6/4
f 270/6/4 266/6/4 271/6/4
f 267/5/4 268/5/4 272/5/4
f 268/6/4 269/6/4 273/6/4
f 272/5/4 268/5/4 273/5/4
f 273/6/4 269/6/4 274/6/4
f 275/7/4 276/7/4 277/7/4
f 277/7/4 276/7/4 278/7/4
f 278/7/4 276/7/4 280/7/4
f 279/7/4 280/7/4 281/7/4
f 280/7/4 276/7/4 282/7/4
f 281/7/4 280/7/4 282/7/4
f 285/6/4 286/6/4 287/6/4
f 287/6/4 286/6/4 288/6/4
f 285/6/4 287/6/4 289/6/4
f 290/3/4 291/3/4 292/3/4
f 283/5/4 284/5/4 293/5/4
f 284/3/4 285/3/4 293/3/4
f 285/6/4 289/6/4 294/6/4
f 293/3/4 285/3/4 294/3/4
f 289/6/4 290/6/4 294/6/4
f 294/6/4 290/6/4 295/6/4
f 283/5/4 293/5/4 296/5/4
f 293/7/4 294/7/4 297/7/4
f 296/5/4 293/5/4 297/5/4
f 294/7/4 295/7/4 297/7/4
f 297/7/4 295/7/4 298/7/4
f 296/2/4 297/2/4 299/2/4
f 299/2/4 297/2/4 300/2/4
f 298/7/4 295/7/4 301/7/4
f 299/5/4 300/5/4 302/5/4
f 300/7/4 301/7/4 302/7/4
f 302/7/4 301/7/4 303/7/4
f 295/6/4 290/6/4 304/6/4
f 303/7/4 301/7/4 304/7/4
f 301/7/4 295/7/4 304/7/4
f 299/5/4 302/5/4 305/5/4
f 302/3/4 303/3/4 306/3/4
f 305/5/4 302/5/4 306/5/4
f 305/3/4 306/3/4 307/3/4
f 306/3/4 303/3/4 308/3/4
f 307/3/4 306/3/4 308/3/4
f 290/3/4 292/3/4 309/3/4
f 307/5/4 308/5/4 310/5/4
f 308/3/4 303/3/4 311/3/4
f 310/5/4 308/5/4 311/5/4
f 303/6/4 304/6/4 312/6/4
f 311/3/4 303/3/4 312/3/4
f 304/6/4 290/6/4 313/6/4
f 312/6/4 304/6/4 313/6/4
f 290/3/4 309/3/4 313/3/4
f 313/3/4 309/3/4 314/3/4
f 315/3/4 316/3/4 317/3/4
f 317/3/4 316/3/4 318/3/4
f 323/5/5 320/5/5 319/5/5
f 323/7/5 321/7/5 320/7/5
f 324/7/5 321/7/5 323/7/5
f 325/7/5 321/7/5 324/7/5
f 326/5/5 322/5/5 321/5/5
f 326/7/5 321/7/5 325/7/5
f 327/5/5 326/5/5 325/5/5
f 327/5/5 322/5/5 326/5/5
f 328/5/5 322/5/5 327/5/5
f 329/5/5 324/5/5 323/5/5
f 330/1/5 325/1/5 324/1/5
f 330/5/5 324/5/5 329/5/5
f 331/5/5 327/5/5 325/5/5
f 331/1/5 325/1/5 330/1/5
f 332/5/5 327/5/5 331/5/5
f 333/5/5 327/5/5 332/5/5
f 334/5/5 327/5/5 333/5/5
f 335/5/5 329/5/5 323/5/5
f 335/5/5 323/5/5 319/5/5
f 336/2/5 330/2/5 329/2/5
f 336/5/5 329/5/5 335/5/5
f 336/2/5 331/2/5 330/2/5
f 336/2/5 332/2/5 331/2/5
f 337/5/5 333/5/5 332/5/5
f 337/2/5 332/2/5 336/2/5
f 338/3/5 334/3/5 333/3/5
f 338/5/5 333/5/5 337/5/5
f 339/5/5 327/5/5 334/5/5
f 339/3/5 334/3/5 338/3/5
f 340/5/5 327/5/5 339/5/5
f 343/1/5 342/1/5 341/1/5
f 344/1/5 342/1/5 343/1/5
f 345/7/5 344/7/5 343/7/5
f 346/7/5 344/7/5 345/7/5
f 349/7/5 348/7/5 347/7/5
f 350/7/5 348/7/5 349/7/5
f 353/7/5 352/7/5 351/7/5
f 354/7/5 352/7/5 353/7/5
f 359/6/5 358/6/5 357/6/5
f 360/6/5 358/6/5 359/6/5
f 361/6/5 356/6/5 355/6/5
f 362/6/5 356/6/5 361/6/5
f 365/3/5 364/3/5 363/3/5
f 366/3/5 364/3/5 365/3/5
f 369/3/5 368/3/5 367/3/5
f 370/3/5 368/3/5 369/3/5
f 375/3/5 372/3/5 371/3/5
f 376/3/5 372/3/5 375/3/5
f 377/3/5 374/3/5 373/3/5
f 378/3/5 374/3/5 377/3/5
f 381/3/5 380/3/5 379/3/5
f 382/3/5 380/3/5 381/3/5
f 383/7/6 384/7/6 385/7/6
f 385/7/6 384/7/6 386/7/6
f 386/7/6 384/7/6 387/7/6
f 387/7/6 384/7/6 388/7/6
f 386/1/6 387/1/6 389/1/6
f 389/1/6 387/1/6 390/1/6
f 389/1/6 390/1/6 392/1/6
f 392/1/6 390/1/6 393/1/6
f 392/2/6 393/2/6 395/2/6
f 393/2/6 394/2/6 395/2/6
f 391/2/6 392/2/6 395/2/6
f 395/2/6 394/2/6 396/2/6
f 397/6/6 398/6/6 399/6/6
f 399/6/6 398/6/6 400/6/6
f 401/4/6 402/4/6 403/4/6
f 403/4/6 402/4/6 404/4/6
f 405/6/6 406/6/6 407/6/6
f 405/6/6 407/6/6 408/6/6
f 408/6/6 407/6/6 409/6/6
f 410/6/6 411/6/6 412/6/6
f 412/6/6 411/6/6 413/6/6
f 412/1/6 413/1/6 415/1/6
f 415/1/6 413/1/6 416/1/6
f 414/6/6 415/6/6 417/6/6
f 415/6/6 416/6/6 417/6/6
f 417/6/6 416/6/6 418/6/6
f 419/6/6 420/6/6 421/6/6
f 421/6/6 420/6/6 422/6/6
f 423/6/6 424/6/6 425/6/6
f 425/6/6 424/6/6 426/6/6
f 427/6/6 428/6/6 429/6/6
f 429/6/6 428/6/6 430/6/6
f 431/6/6 432/6/6 437/6/6
f 437/6/6 432/6/6 438/6/6
f 435/6/6 436/6/6 440/6/6
f 440/6/6 436/6/6 441/6/6
f 433/6/6 434/6/6 445/6/6
f 445/6/6 434/6/6 446/6/6
f 441/6/6 442/6/6 447/6/6
f 439/6/6 440/6/6 447/6/6
f 440/6/6 441/6/6 447/6/6
f 447/6/6 442/6/6 448/6/6
f 443/6/6 444/6/6 449/6/6
f 449/6/6 444/6/6 450/6/6
f 451/4/6 452/4/6 455/4/6
f 455/4/6 452/4/6 456/4/6
f 453/4/6 454/4/6 457/4/6
f 457/4/6 454/4/6 458/4/6
f 457/6/6 458/6/6 459/6/6
f 459/6/6 458/6/6 460/6/6
f 455/6/6 456/6/6 461/6/6
f 461/6/6 456/6/6 462/6/6
f 461/3/6 462/3/6 465/3/6
f 465/3/6 462/3/6 466/3/6
f 463/3/6 464/3/6 467/3/6
f 467/3/6 464/3/6 468/3/6
f 469/3/6 470/3/6 471/3/6
f 471/3/6 470/3/6 472/3/6
