# MagicaVoxel @ Ephtracy

# group
g modern:wall-joint-outside

# material
mtllib default-material.mtl
usemtl palette

# normals
vn -1 0 0
vn 1 0 0
vn 0 0 1
vn 0 0 -1
vn 0 -1 0
vn 0 1 0

# texcoords
vt 0.916016 0.5
vt 0.970703 0.5
vt 0.982422 0.5
vt 0.986328 0.5

# verts
v -5 0 2
v -5 0 -1
v -5 0 -2
v -5 0 -4
v -5 1 2
v -5 1 -1
v -5 1 -2
v -5 1 -4
v -5 37 2
v -5 37 -4
v -5 38 2
v -5 38 -4
v -2 1 2
v -2 1 -1
v -2 1 -2
v -2 1 -4
v -2 37 2
v -2 37 -4
v 0 0 -4
v 0 0 -5
v 0 1 -4
v 0 1 -5
v 1 0 -2
v 1 0 -4
v 1 1 -2
v 1 1 -4
v -2 0 -2
v -2 0 -4
v -2 1 -2
v -2 1 -4
v 1 0 -4
v 1 0 -5
v 1 1 -4
v 1 1 -5
v 2 0 2
v 2 0 -4
v 2 38 2
v 2 38 -4
v -5 0 2
v -5 1 2
v -5 37 2
v -5 38 2
v -2 1 2
v -2 37 2
v -1 1 2
v -1 36 2
v 1 0 2
v 1 1 2
v 1 36 2
v 2 0 2
v 2 38 2
v 0 0 -4
v 0 1 -4
v 1 0 -4
v 1 1 -4
v -2 0 -2
v -2 1 -2
v -1 0 -2
v -1 1 -2
v 1 0 -2
v 1 1 -2
v -5 0 -4
v -5 1 -4
v -5 37 -4
v -5 38 -4
v -2 0 -4
v -2 1 -4
v -2 37 -4
v 0 1 -4
v 1 0 -4
v 1 1 -4
v 2 0 -4
v 2 38 -4
v 0 0 -5
v 0 1 -5
v 1 0 -5
v 1 1 -5
v -5 0 2
v 1 0 2
v 2 0 2
v -5 0 -1
v -1 0 -1
v -5 0 -2
v -2 0 -2
v -1 0 -2
v 1 0 -2
v -5 0 -4
v -2 0 -4
v 0 0 -4
v 1 0 -4
v 2 0 -4
v 0 0 -5
v 1 0 -5
v -2 1 -2
v -1 1 -2
v 1 1 -2
v -2 1 -4
v 0 1 -4
v 1 1 -4
v -5 37 2
v -2 37 2
v -5 37 -4
v -2 37 -4
v -5 1 2
v -2 1 2
v -5 1 -1
v -2 1 -1
v -5 1 -2
v -2 1 -2
v -5 1 -4
v -2 1 -4
v 0 1 -4
v 1 1 -4
v 0 1 -5
v 1 1 -5
v -5 38 2
v 2 38 2
v -5 38 -4
v 2 38 -4

# faces
f 5/2/1 2/2/1 1/2/1
f 6/3/1 3/3/1 2/3/1
f 6/2/1 2/2/1 5/2/1
f 7/2/1 4/2/1 3/2/1
f 7/3/1 3/3/1 6/3/1
f 8/2/1 4/2/1 7/2/1
f 11/1/1 10/1/1 9/1/1
f 12/1/1 10/1/1 11/1/1
f 17/1/1 14/1/1 13/1/1
f 17/1/1 16/1/1 15/1/1
f 17/1/1 15/1/1 14/1/1
f 18/1/1 16/1/1 17/1/1
f 21/2/1 20/2/1 19/2/1
f 22/2/1 20/2/1 21/2/1
f 25/1/1 24/1/1 23/1/1
f 26/1/1 24/1/1 25/1/1
f 27/2/2 28/2/2 29/2/2
f 29/2/2 28/2/2 30/2/2
f 31/2/2 32/2/2 33/2/2
f 33/2/2 32/2/2 34/2/2
f 35/1/2 36/1/2 37/1/2
f 37/1/2 36/1/2 38/1/2
f 43/2/3 40/2/3 39/2/3
f 44/1/3 42/1/3 41/1/3
f 45/2/3 43/2/3 39/2/3
f 45/1/3 44/1/3 43/1/3
f 46/1/3 44/1/3 45/1/3
f 47/2/3 45/2/3 39/2/3
f 48/4/3 46/4/3 45/4/3
f 48/2/3 45/2/3 47/2/3
f 49/1/3 44/1/3 46/1/3
f 49/4/3 46/4/3 48/4/3
f 50/1/3 48/1/3 47/1/3
f 50/1/3 49/1/3 48/1/3
f 51/1/3 42/1/3 44/1/3
f 51/1/3 49/1/3 50/1/3
f 51/1/3 44/1/3 49/1/3
f 54/2/3 53/2/3 52/2/3
f 55/2/3 53/2/3 54/2/3
f 56/3/4 57/3/4 58/3/4
f 58/3/4 57/3/4 59/3/4
f 58/2/4 59/2/4 60/2/4
f 60/2/4 59/2/4 61/2/4
f 62/2/4 63/2/4 66/2/4
f 66/2/4 63/2/4 67/2/4
f 64/1/4 65/1/4 68/1/4
f 67/1/4 68/1/4 69/1/4
f 69/1/4 68/1/4 71/1/4
f 70/1/4 71/1/4 72/1/4
f 68/1/4 65/1/4 73/1/4
f 72/1/4 71/1/4 73/1/4
f 71/1/4 68/1/4 73/1/4
f 74/2/4 75/2/4 76/2/4
f 76/2/4 75/2/4 77/2/4
f 81/2/5 79/2/5 78/2/5
f 82/2/5 79/2/5 81/2/5
f 83/3/5 82/3/5 81/3/5
f 84/3/5 82/3/5 83/3/5
f 85/2/5 79/2/5 82/2/5
f 85/3/5 82/3/5 84/3/5
f 86/1/5 80/1/5 79/1/5
f 86/2/5 79/2/5 85/2/5
f 87/2/5 84/2/5 83/2/5
f 88/2/5 84/2/5 87/2/5
f 90/1/5 80/1/5 86/1/5
f 91/1/5 80/1/5 90/1/5
f 92/2/5 90/2/5 89/2/5
f 93/2/5 90/2/5 92/2/5
f 97/1/5 95/1/5 94/1/5
f 97/1/5 96/1/5 95/1/5
f 98/1/5 96/1/5 97/1/5
f 99/1/5 96/1/5 98/1/5
f 102/1/5 101/1/5 100/1/5
f 103/1/5 101/1/5 102/1/5
f 104/2/6 105/2/6 106/2/6
f 106/2/6 105/2/6 107/2/6
f 106/3/6 107/3/6 108/3/6
f 108/3/6 107/3/6 109/3/6
f 108/2/6 109/2/6 110/2/6
f 110/2/6 109/2/6 111/2/6
f 112/2/6 113/2/6 114/2/6
f 114/2/6 113/2/6 115/2/6
f 116/1/6 117/1/6 118/1/6
f 118/1/6 117/1/6 119/1/6
