# MagicaVoxel @ Ephtracy

# group
g modern:wall-white

# material
mtllib default-material.mtl
usemtl palette

# normals
vn -1 0 0
vn 1 0 0
vn 0 0 1
vn 0 0 -1
vn 0 -1 0
vn 0 1 0

# texcoords
vt 0.916016 0.5
vt 0.958984 0.5
vt 0.970703 0.5
vt 0.986328 0.5

# verts
v -54.5 0 2
v -54.5 0 1
v -54.5 1 1
v -54.5 1 -2
v -54.5 37 3
v -54.5 37 2
v -54.5 37 -2
v -54.5 37 -3
v -54.5 38 3
v -54.5 38 -3
v 1.5 0 1
v 1.5 0 -1
v 1.5 0 -2
v 1.5 1 1
v 1.5 1 -1
v 1.5 1 -2
v 13.5 34 1
v 13.5 34 -0
v 13.5 35 1
v 13.5 35 -0
v 14.5 34 -0
v 14.5 34 -1
v 14.5 37 -0
v 14.5 37 -1
v 25.5 34 1
v 25.5 34 -0
v 25.5 35 1
v 25.5 35 -0
v 26.5 34 -0
v 26.5 34 -1
v 26.5 37 -0
v 26.5 37 -1
v 37.5 34 1
v 37.5 34 -0
v 37.5 35 1
v 37.5 35 -0
v 38.5 34 -0
v 38.5 34 -1
v 38.5 37 -0
v 38.5 37 -1
v 4.5 34 -0
v 4.5 34 -1
v 4.5 37 -0
v 4.5 37 -1
v 12.5 34 1
v 12.5 34 -0
v 12.5 35 1
v 12.5 35 -0
v 16.5 34 -0
v 16.5 34 -1
v 16.5 37 -0
v 16.5 37 -1
v 24.5 34 1
v 24.5 34 -0
v 24.5 35 1
v 24.5 35 -0
v 28.5 34 -0
v 28.5 34 -1
v 28.5 37 -0
v 28.5 37 -1
v 36.5 34 1
v 36.5 34 -0
v 36.5 35 1
v 36.5 35 -0
v 56.5 0 1
v 56.5 0 -1
v 56.5 0 -2
v 56.5 1 1
v 56.5 1 -1
v 56.5 1 -2
v 57.5 0 2
v 57.5 0 1
v 57.5 1 1
v 57.5 1 -2
v 57.5 37 3
v 57.5 37 2
v 57.5 37 -2
v 57.5 37 -3
v 57.5 38 3
v 57.5 38 -3
v -54.5 37 3
v -54.5 38 3
v 57.5 37 3
v 57.5 38 3
v -54.5 0 2
v -54.5 37 2
v 1.5 36 2
v 1.5 37 2
v 56.5 36 2
v 56.5 37 2
v 57.5 0 2
v 57.5 37 2
v 4.5 34 -1
v 4.5 37 -1
v 14.5 34 -1
v 14.5 37 -1
v 16.5 34 -1
v 16.5 37 -1
v 26.5 34 -1
v 26.5 37 -1
v 28.5 34 -1
v 28.5 37 -1
v 38.5 34 -1
v 38.5 37 -1
v -54.5 0 1
v -54.5 1 1
v 1.5 0 1
v 1.5 1 1
v 12.5 34 1
v 12.5 35 1
v 13.5 34 1
v 13.5 35 1
v 24.5 34 1
v 24.5 35 1
v 25.5 34 1
v 25.5 35 1
v 36.5 34 1
v 36.5 35 1
v 37.5 34 1
v 37.5 35 1
v 56.5 0 1
v 56.5 1 1
v 57.5 0 1
v 57.5 1 1
v 4.5 34 -0
v 4.5 37 -0
v 12.5 34 -0
v 12.5 35 -0
v 13.5 34 -0
v 13.5 35 -0
v 14.5 34 -0
v 14.5 37 -0
v 16.5 34 -0
v 16.5 37 -0
v 24.5 34 -0
v 24.5 35 -0
v 25.5 34 -0
v 25.5 35 -0
v 26.5 34 -0
v 26.5 37 -0
v 28.5 34 -0
v 28.5 37 -0
v 36.5 34 -0
v 36.5 35 -0
v 37.5 34 -0
v 37.5 35 -0
v 38.5 34 -0
v 38.5 37 -0
v -54.5 1 -2
v -54.5 37 -2
v 1.5 0 -2
v 1.5 1 -2
v 56.5 0 -2
v 56.5 1 -2
v 57.5 1 -2
v 57.5 37 -2
v -54.5 37 -3
v -54.5 38 -3
v 57.5 37 -3
v 57.5 38 -3
v -54.5 0 2
v 57.5 0 2
v -54.5 0 1
v 1.5 0 1
v 56.5 0 1
v 57.5 0 1
v 1.5 0 -1
v 56.5 0 -1
v 1.5 0 -2
v 56.5 0 -2
v -54.5 1 1
v 1.5 1 1
v 56.5 1 1
v 57.5 1 1
v 1.5 1 -1
v 56.5 1 -1
v -54.5 1 -2
v 1.5 1 -2
v 56.5 1 -2
v 57.5 1 -2
v 12.5 35 1
v 13.5 35 1
v 24.5 35 1
v 25.5 35 1
v 36.5 35 1
v 37.5 35 1
v 12.5 35 -0
v 13.5 35 -0
v 24.5 35 -0
v 25.5 35 -0
v 36.5 35 -0
v 37.5 35 -0
v -54.5 37 3
v 57.5 37 3
v -54.5 37 2
v 1.5 37 2
v 56.5 37 2
v 57.5 37 2
v 4.5 37 -0
v 14.5 37 -0
v 16.5 37 -0
v 26.5 37 -0
v 28.5 37 -0
v 38.5 37 -0
v 4.5 37 -1
v 14.5 37 -1
v 16.5 37 -1
v 26.5 37 -1
v 28.5 37 -1
v 38.5 37 -1
v -54.5 37 -2
v 57.5 37 -2
v -54.5 37 -3
v 57.5 37 -3
v 12.5 34 1
v 13.5 34 1
v 24.5 34 1
v 25.5 34 1
v 36.5 34 1
v 37.5 34 1
v 4.5 34 -0
v 12.5 34 -0
v 13.5 34 -0
v 14.5 34 -0
v 16.5 34 -0
v 24.5 34 -0
v 25.5 34 -0
v 26.5 34 -0
v 28.5 34 -0
v 36.5 34 -0
v 37.5 34 -0
v 38.5 34 -0
v 4.5 34 -1
v 14.5 34 -1
v 16.5 34 -1
v 26.5 34 -1
v 28.5 34 -1
v 38.5 34 -1
v -54.5 38 3
v 57.5 38 3
v -54.5 38 -3
v 57.5 38 -3

# faces
f 3/1/1 2/1/1 1/1/1
f 6/1/1 3/1/1 1/1/1
f 6/1/1 4/1/1 3/1/1
f 7/1/1 4/1/1 6/1/1
f 9/1/1 6/1/1 5/1/1
f 9/1/1 8/1/1 7/1/1
f 9/1/1 7/1/1 6/1/1
f 10/1/1 8/1/1 9/1/1
f 14/3/1 12/3/1 11/3/1
f 15/1/1 13/1/1 12/1/1
f 15/3/1 12/3/1 14/3/1
f 16/1/1 13/1/1 15/1/1
f 19/4/1 18/4/1 17/4/1
f 20/4/1 18/4/1 19/4/1
f 23/4/1 22/4/1 21/4/1
f 24/4/1 22/4/1 23/4/1
f 27/4/1 26/4/1 25/4/1
f 28/4/1 26/4/1 27/4/1
f 31/4/1 30/4/1 29/4/1
f 32/4/1 30/4/1 31/4/1
f 35/4/1 34/4/1 33/4/1
f 36/4/1 34/4/1 35/4/1
f 39/4/1 38/4/1 37/4/1
f 40/4/1 38/4/1 39/4/1
f 41/4/2 42/4/2 43/4/2
f 43/4/2 42/4/2 44/4/2
f 45/4/2 46/4/2 47/4/2
f 47/4/2 46/4/2 48/4/2
f 49/4/2 50/4/2 51/4/2
f 51/4/2 50/4/2 52/4/2
f 53/4/2 54/4/2 55/4/2
f 55/4/2 54/4/2 56/4/2
f 57/4/2 58/4/2 59/4/2
f 59/4/2 58/4/2 60/4/2
f 61/4/2 62/4/2 63/4/2
f 63/4/2 62/4/2 64/4/2
f 65/3/2 66/3/2 68/3/2
f 66/1/2 67/1/2 69/1/2
f 68/3/2 66/3/2 69/3/2
f 69/1/2 67/1/2 70/1/2
f 71/1/2 72/1/2 73/1/2
f 71/1/2 73/1/2 76/1/2
f 73/1/2 74/1/2 76/1/2
f 76/1/2 74/1/2 77/1/2
f 75/1/2 76/1/2 79/1/2
f 77/1/2 78/1/2 79/1/2
f 76/1/2 77/1/2 79/1/2
f 79/1/2 78/1/2 80/1/2
f 83/1/3 82/1/3 81/1/3
f 84/1/3 82/1/3 83/1/3
f 87/1/3 86/1/3 85/1/3
f 88/1/3 86/1/3 87/1/3
f 89/1/3 87/1/3 85/1/3
f 89/2/3 88/2/3 87/2/3
f 90/2/3 88/2/3 89/2/3
f 91/1/3 89/1/3 85/1/3
f 91/1/3 90/1/3 89/1/3
f 92/1/3 90/1/3 91/1/3
f 95/1/3 94/1/3 93/1/3
f 96/1/3 94/1/3 95/1/3
f 99/1/3 98/1/3 97/1/3
f 100/1/3 98/1/3 99/1/3
f 103/1/3 102/1/3 101/1/3
f 104/1/3 102/1/3 103/1/3
f 105/1/4 106/1/4 107/1/4
f 107/1/4 106/1/4 108/1/4
f 109/1/4 110/1/4 111/1/4
f 111/1/4 110/1/4 112/1/4
f 113/1/4 114/1/4 115/1/4
f 115/1/4 114/1/4 116/1/4
f 117/1/4 118/1/4 119/1/4
f 119/1/4 118/1/4 120/1/4
f 121/1/4 122/1/4 123/1/4
f 123/1/4 122/1/4 124/1/4
f 125/4/4 126/4/4 127/4/4
f 127/4/4 126/4/4 128/4/4
f 128/4/4 126/4/4 130/4/4
f 129/4/4 130/4/4 131/4/4
f 130/4/4 126/4/4 132/4/4
f 131/4/4 130/4/4 132/4/4
f 133/4/4 134/4/4 135/4/4
f 135/4/4 134/4/4 136/4/4
f 136/4/4 134/4/4 138/4/4
f 137/4/4 138/4/4 139/4/4
f 138/4/4 134/4/4 140/4/4
f 139/4/4 138/4/4 140/4/4
f 141/4/4 142/4/4 143/4/4
f 143/4/4 142/4/4 144/4/4
f 144/4/4 142/4/4 146/4/4
f 145/4/4 146/4/4 147/4/4
f 146/4/4 142/4/4 148/4/4
f 147/4/4 146/4/4 148/4/4
f 149/1/4 150/1/4 152/1/4
f 151/1/4 152/1/4 153/1/4
f 152/1/4 150/1/4 154/1/4
f 153/1/4 152/1/4 154/1/4
f 154/1/4 150/1/4 155/1/4
f 155/1/4 150/1/4 156/1/4
f 157/1/4 158/1/4 159/1/4
f 159/1/4 158/1/4 160/1/4
f 163/1/5 162/1/5 161/1/5
f 164/1/5 162/1/5 163/1/5
f 165/1/5 162/1/5 164/1/5
f 166/1/5 162/1/5 165/1/5
f 167/3/5 165/3/5 164/3/5
f 168/3/5 165/3/5 167/3/5
f 169/1/5 168/1/5 167/1/5
f 170/1/5 168/1/5 169/1/5
f 175/1/5 172/1/5 171/1/5
f 176/1/5 174/1/5 173/1/5
f 177/1/5 175/1/5 171/1/5
f 178/1/5 175/1/5 177/1/5
f 179/1/5 174/1/5 176/1/5
f 180/1/5 174/1/5 179/1/5
f 187/4/5 182/4/5 181/4/5
f 188/4/5 182/4/5 187/4/5
f 189/4/5 184/4/5 183/4/5
f 190/4/5 184/4/5 189/4/5
f 191/4/5 186/4/5 185/4/5
f 192/4/5 186/4/5 191/4/5
f 195/1/5 194/1/5 193/1/5
f 196/1/5 194/1/5 195/1/5
f 197/1/5 194/1/5 196/1/5
f 198/1/5 194/1/5 197/1/5
f 205/1/5 200/1/5 199/1/5
f 206/1/5 200/1/5 205/1/5
f 207/1/5 202/1/5 201/1/5
f 208/1/5 202/1/5 207/1/5
f 209/1/5 204/1/5 203/1/5
f 210/1/5 204/1/5 209/1/5
f 213/1/5 212/1/5 211/1/5
f 214/1/5 212/1/5 213/1/5
f 215/4/6 216/4/6 222/4/6
f 222/4/6 216/4/6 223/4/6
f 217/4/6 218/4/6 226/4/6
f 226/4/6 218/4/6 227/4/6
f 219/4/6 220/4/6 230/4/6
f 230/4/6 220/4/6 231/4/6
f 223/4/6 224/4/6 233/4/6
f 221/4/6 222/4/6 233/4/6
f 222/4/6 223/4/6 233/4/6
f 233/4/6 224/4/6 234/4/6
f 227/4/6 228/4/6 235/4/6
f 225/4/6 226/4/6 235/4/6
f 226/4/6 227/4/6 235/4/6
f 235/4/6 228/4/6 236/4/6
f 231/4/6 232/4/6 237/4/6
f 230/4/6 231/4/6 237/4/6
f 229/4/6 230/4/6 237/4/6
f 237/4/6 232/4/6 238/4/6
f 239/1/6 240/1/6 241/1/6
f 241/1/6 240/1/6 242/1/6
