# MagicaVoxel @ Ephtracy

# group
g modern:dining-table

# material
mtllib default-material.mtl
usemtl palette

# normals
vn -1 0 0
vn 1 0 0
vn 0 0 1
vn 0 0 -1
vn 0 -1 0
vn 0 1 0

# texcoords
vt 0.271484 0.5
vt 0.318359 0.5
vt 0.994141 0.5

# verts
v -14 0 13
v -14 0 9
v -14 0 -9
v -14 0 -13
v -14 11 13
v -14 11 9
v -14 11 -9
v -14 11 -13
v -14 12 13
v -14 12 -13
v 10 0 13
v 10 0 9
v 10 0 -9
v 10 0 -13
v 10 11 13
v 10 11 9
v 10 11 -9
v 10 11 -13
v -10 0 13
v -10 0 9
v -10 0 -9
v -10 0 -13
v -10 11 13
v -10 11 9
v -10 11 -9
v -10 11 -13
v 14 0 13
v 14 0 9
v 14 0 -9
v 14 0 -13
v 14 11 13
v 14 11 9
v 14 11 -9
v 14 11 -13
v 14 12 13
v 14 12 -13
v -14 0 13
v -14 11 13
v -14 12 13
v -10 0 13
v -10 11 13
v 10 0 13
v 10 11 13
v 14 0 13
v 14 11 13
v 14 12 13
v -14 0 -9
v -14 11 -9
v -10 0 -9
v -10 11 -9
v 10 0 -9
v 10 11 -9
v 14 0 -9
v 14 11 -9
v -14 0 9
v -14 11 9
v -10 0 9
v -10 11 9
v 10 0 9
v 10 11 9
v 14 0 9
v 14 11 9
v -14 0 -13
v -14 11 -13
v -14 12 -13
v -10 0 -13
v -10 11 -13
v 10 0 -13
v 10 11 -13
v 14 0 -13
v 14 11 -13
v 14 12 -13
v -14 0 13
v -10 0 13
v 10 0 13
v 14 0 13
v -13 0 12
v -11 0 12
v 11 0 12
v 13 0 12
v -13 0 10
v -11 0 10
v 11 0 10
v 13 0 10
v -14 0 9
v -10 0 9
v 10 0 9
v 14 0 9
v -14 0 -9
v -10 0 -9
v 10 0 -9
v 14 0 -9
v -13 0 -10
v -11 0 -10
v 11 0 -10
v 13 0 -10
v -13 0 -12
v -11 0 -12
v 11 0 -12
v 13 0 -12
v -14 0 -13
v -10 0 -13
v 10 0 -13
v 14 0 -13
v -10 11 13
v 10 11 13
v -14 11 9
v -10 11 9
v 10 11 9
v 14 11 9
v -14 11 -9
v -10 11 -9
v 10 11 -9
v 14 11 -9
v -10 11 -13
v 10 11 -13
v -14 12 13
v 14 12 13
v -14 12 -13
v 14 12 -13

# faces
f 5/3/1 2/3/1 1/3/1
f 6/3/1 2/3/1 5/3/1
f 7/3/1 4/3/1 3/3/1
f 8/3/1 4/3/1 7/3/1
f 9/2/1 6/2/1 5/2/1
f 9/2/1 7/2/1 6/2/1
f 9/2/1 8/2/1 7/2/1
f 10/2/1 8/2/1 9/2/1
f 15/3/1 12/3/1 11/3/1
f 16/3/1 12/3/1 15/3/1
f 17/3/1 14/3/1 13/3/1
f 18/3/1 14/3/1 17/3/1
f 19/3/2 20/3/2 23/3/2
f 23/3/2 20/3/2 24/3/2
f 21/3/2 22/3/2 25/3/2
f 25/3/2 22/3/2 26/3/2
f 27/3/2 28/3/2 31/3/2
f 31/3/2 28/3/2 32/3/2
f 29/3/2 30/3/2 33/3/2
f 33/3/2 30/3/2 34/3/2
f 31/2/2 32/2/2 35/2/2
f 32/2/2 33/2/2 35/2/2
f 33/2/2 34/2/2 35/2/2
f 35/2/2 34/2/2 36/2/2
f 40/3/3 38/3/3 37/3/3
f 41/2/3 39/2/3 38/2/3
f 41/3/3 38/3/3 40/3/3
f 43/2/3 39/2/3 41/2/3
f 44/3/3 43/3/3 42/3/3
f 45/2/3 39/2/3 43/2/3
f 45/3/3 43/3/3 44/3/3
f 46/2/3 39/2/3 45/2/3
f 49/3/3 48/3/3 47/3/3
f 50/3/3 48/3/3 49/3/3
f 53/3/3 52/3/3 51/3/3
f 54/3/3 52/3/3 53/3/3
f 55/3/4 56/3/4 57/3/4
f 57/3/4 56/3/4 58/3/4
f 59/3/4 60/3/4 61/3/4
f 61/3/4 60/3/4 62/3/4
f 63/3/4 64/3/4 66/3/4
f 64/2/4 65/2/4 67/2/4
f 66/3/4 64/3/4 67/3/4
f 67/2/4 65/2/4 69/2/4
f 68/3/4 69/3/4 70/3/4
f 69/2/4 65/2/4 71/2/4
f 70/3/4 69/3/4 71/3/4
f 71/2/4 65/2/4 72/2/4
f 77/3/5 74/3/5 73/3/5
f 78/3/5 74/3/5 77/3/5
f 79/3/5 76/3/5 75/3/5
f 80/3/5 76/3/5 79/3/5
f 81/3/5 77/3/5 73/3/5
f 81/1/5 78/1/5 77/1/5
f 82/3/5 74/3/5 78/3/5
f 82/1/5 78/1/5 81/1/5
f 83/1/5 80/1/5 79/1/5
f 83/3/5 79/3/5 75/3/5
f 84/3/5 76/3/5 80/3/5
f 84/1/5 80/1/5 83/1/5
f 85/3/5 81/3/5 73/3/5
f 85/3/5 82/3/5 81/3/5
f 86/3/5 74/3/5 82/3/5
f 86/3/5 82/3/5 85/3/5
f 87/3/5 83/3/5 75/3/5
f 87/3/5 84/3/5 83/3/5
f 88/3/5 76/3/5 84/3/5
f 88/3/5 84/3/5 87/3/5
f 93/3/5 90/3/5 89/3/5
f 94/3/5 90/3/5 93/3/5
f 95/3/5 92/3/5 91/3/5
f 96/3/5 92/3/5 95/3/5
f 97/3/5 93/3/5 89/3/5
f 97/1/5 94/1/5 93/1/5
f 98/3/5 90/3/5 94/3/5
f 98/1/5 94/1/5 97/1/5
f 99/1/5 96/1/5 95/1/5
f 99/3/5 95/3/5 91/3/5
f 100/3/5 92/3/5 96/3/5
f 100/1/5 96/1/5 99/1/5
f 101/3/5 97/3/5 89/3/5
f 101/3/5 98/3/5 97/3/5
f 102/3/5 90/3/5 98/3/5
f 102/3/5 98/3/5 101/3/5
f 103/3/5 99/3/5 91/3/5
f 103/3/5 100/3/5 99/3/5
f 104/3/5 92/3/5 100/3/5
f 104/3/5 100/3/5 103/3/5
f 108/2/5 106/2/5 105/2/5
f 109/2/5 106/2/5 108/2/5
f 111/2/5 108/2/5 107/2/5
f 111/2/5 110/2/5 109/2/5
f 111/2/5 109/2/5 108/2/5
f 112/2/5 110/2/5 111/2/5
f 113/2/5 110/2/5 112/2/5
f 114/2/5 110/2/5 113/2/5
f 115/2/5 113/2/5 112/2/5
f 116/2/5 113/2/5 115/2/5
f 117/2/6 118/2/6 119/2/6
f 119/2/6 118/2/6 120/2/6
