# MagicaVoxel @ Ephtracy

# group
g modern:wall-join-brown-white-grey

# material
mtllib default-material.mtl
usemtl palette

# normals
vn -1 0 0
vn 1 0 0
vn 0 0 1
vn 0 0 -1
vn 0 -1 0
vn 0 1 0

# texcoords
vt 0.470703 0.5
vt 0.916016 0.5
vt 0.970703 0.5
vt 0.982422 0.5
vt 0.986328 0.5

# verts
v -4 0 2
v -4 0 -0
v -4 0 -3
v -4 37 2
v -4 37 -0
v -4 37 -3
v -4 37 -4
v -4 38 2
v -4 38 -4
v 1 0 2
v 1 0 -3
v 1 37 2
v 1 37 -3
v 2 37 2
v 2 37 -4
v 2 38 2
v 2 38 -4
v -4 0 2
v -4 37 2
v -4 38 2
v -2 0 2
v -2 1 2
v -2 37 2
v -1 1 2
v -1 36 2
v 0 0 2
v 0 1 2
v 0 36 2
v 1 0 2
v 1 37 2
v 2 37 2
v 2 38 2
v -4 0 -3
v -4 37 -3
v 1 0 -3
v 1 37 -3
v -4 37 -4
v -4 38 -4
v 2 37 -4
v 2 38 -4
v -4 0 2
v -2 0 2
v 0 0 2
v 1 0 2
v -3 0 1
v -2 0 1
v -4 0 -0
v -3 0 -0
v -2 0 -1
v -1 0 -1
v -2 0 -2
v -1 0 -2
v 0 0 -2
v -4 0 -3
v 1 0 -3
v 1 37 2
v 2 37 2
v -4 37 -3
v 1 37 -3
v -4 37 -4
v 2 37 -4
v -4 38 2
v 2 38 2
v -4 38 -4
v 2 38 -4

# faces
f 4/1/1 2/1/1 1/1/1
f 5/2/1 3/2/1 2/2/1
f 5/1/1 2/1/1 4/1/1
f 6/2/1 3/2/1 5/2/1
f 8/2/1 5/2/1 4/2/1
f 8/2/1 7/2/1 6/2/1
f 8/2/1 6/2/1 5/2/1
f 9/2/1 7/2/1 8/2/1
f 10/2/2 11/2/2 12/2/2
f 12/2/2 11/2/2 13/2/2
f 14/2/2 15/2/2 16/2/2
f 16/2/2 15/2/2 17/2/2
f 21/1/3 19/1/3 18/1/3
f 22/1/3 19/1/3 21/1/3
f 23/2/3 20/2/3 19/2/3
f 23/1/3 19/1/3 22/1/3
f 24/3/3 22/3/3 21/3/3
f 24/2/3 23/2/3 22/2/3
f 25/2/3 23/2/3 24/2/3
f 26/3/3 24/3/3 21/3/3
f 27/5/3 25/5/3 24/5/3
f 27/3/3 24/3/3 26/3/3
f 28/2/3 23/2/3 25/2/3
f 28/5/3 25/5/3 27/5/3
f 29/2/3 27/2/3 26/2/3
f 29/2/3 28/2/3 27/2/3
f 30/2/3 20/2/3 23/2/3
f 30/2/3 28/2/3 29/2/3
f 30/2/3 23/2/3 28/2/3
f 31/2/3 20/2/3 30/2/3
f 32/2/3 20/2/3 31/2/3
f 33/2/4 34/2/4 35/2/4
f 35/2/4 34/2/4 36/2/4
f 37/2/4 38/2/4 39/2/4
f 39/2/4 38/2/4 40/2/4
f 45/1/5 42/1/5 41/1/5
f 46/3/5 43/3/5 42/3/5
f 46/1/5 42/1/5 45/1/5
f 47/1/5 45/1/5 41/1/5
f 48/2/5 46/2/5 45/2/5
f 48/1/5 45/1/5 47/1/5
f 49/3/5 43/3/5 46/3/5
f 49/2/5 46/2/5 48/2/5
f 49/2/5 48/2/5 47/2/5
f 50/3/5 43/3/5 49/3/5
f 51/2/5 49/2/5 47/2/5
f 51/4/5 50/4/5 49/4/5
f 52/3/5 43/3/5 50/3/5
f 52/4/5 50/4/5 51/4/5
f 53/2/5 44/2/5 43/2/5
f 53/3/5 43/3/5 52/3/5
f 54/2/5 52/2/5 51/2/5
f 54/2/5 51/2/5 47/2/5
f 54/2/5 53/2/5 52/2/5
f 55/2/5 44/2/5 53/2/5
f 55/2/5 53/2/5 54/2/5
f 59/2/5 57/2/5 56/2/5
f 60/2/5 59/2/5 58/2/5
f 61/2/5 57/2/5 59/2/5
f 61/2/5 59/2/5 60/2/5
f 62/2/6 63/2/6 64/2/6
f 64/2/6 63/2/6 65/2/6
