# MagicaVoxel @ Ephtracy

# group
g modern:door-outside

# material
mtllib default-material.mtl
usemtl palette

# normals
vn -1 0 0
vn 1 0 0
vn 0 0 1
vn 0 0 -1
vn 0 -1 0
vn 0 1 0

# texcoords
vt 0.318359 0.5
vt 0.482422 0.5
vt 0.955078 0.5
vt 0.958984 0.5

# verts
v -8 0 2
v -8 0 -2
v -8 14 -2
v -8 14 -3
v -8 16 -2
v -8 16 -3
v -8 30 2
v -8 30 -2
v -7 14 3
v -7 14 2
v -7 15 4
v -7 15 3
v -7 16 4
v -7 16 3
v -7 17 3
v -7 17 2
v -6 14 4
v -6 14 3
v -6 15 4
v -6 15 3
v -6 16 4
v -6 16 3
v -6 17 4
v -6 17 3
v -4 2 -1
v -4 2 -2
v -4 28 -1
v -4 28 -2
v 3 3 -1
v 3 3 -2
v 3 7 -1
v 3 7 -2
v 3 9 -1
v 3 9 -2
v 3 13 -1
v 3 13 -2
v 3 17 -1
v 3 17 -2
v 3 21 -1
v 3 21 -2
v 3 23 -1
v 3 23 -2
v 3 27 -1
v 3 27 -2
v 5 1 -1
v 5 1 -2
v 5 29 -1
v 5 29 -2
v -5 1 -1
v -5 1 -2
v -5 14 4
v -5 14 3
v -5 14 -2
v -5 14 -3
v -5 15 4
v -5 15 3
v -5 16 4
v -5 16 3
v -5 16 -2
v -5 16 -3
v -5 17 4
v -5 17 3
v -5 29 -1
v -5 29 -2
v -4 14 3
v -4 14 2
v -4 15 4
v -4 15 3
v -4 16 4
v -4 16 3
v -4 17 3
v -4 17 2
v -3 3 -1
v -3 3 -2
v -3 7 -1
v -3 7 -2
v -3 9 -1
v -3 9 -2
v -3 13 -1
v -3 13 -2
v -3 17 -1
v -3 17 -2
v -3 21 -1
v -3 21 -2
v -3 23 -1
v -3 23 -2
v -3 27 -1
v -3 27 -2
v 4 2 -1
v 4 2 -2
v 4 28 -1
v 4 28 -2
v 8 0 2
v 8 0 -2
v 8 30 2
v 8 30 -2
v -7 15 4
v -7 16 4
v -6 14 4
v -6 15 4
v -6 16 4
v -6 17 4
v -5 14 4
v -5 15 4
v -5 16 4
v -5 17 4
v -4 15 4
v -4 16 4
v -7 14 3
v -7 15 3
v -7 16 3
v -7 17 3
v -6 14 3
v -6 15 3
v -6 16 3
v -6 17 3
v -5 14 3
v -5 15 3
v -5 16 3
v -5 17 3
v -4 14 3
v -4 15 3
v -4 16 3
v -4 17 3
v -8 0 2
v -8 30 2
v -7 14 2
v -7 17 2
v -4 14 2
v -4 17 2
v 8 0 2
v 8 30 2
v -5 1 -1
v -5 29 -1
v -4 2 -1
v -4 28 -1
v -3 3 -1
v -3 7 -1
v -3 9 -1
v -3 13 -1
v -3 17 -1
v -3 21 -1
v -3 23 -1
v -3 27 -1
v 3 3 -1
v 3 7 -1
v 3 9 -1
v 3 13 -1
v 3 17 -1
v 3 21 -1
v 3 23 -1
v 3 27 -1
v 4 2 -1
v 4 28 -1
v 5 1 -1
v 5 29 -1
v -8 0 -2
v -8 14 -2
v -8 16 -2
v -8 30 -2
v -5 1 -2
v -5 14 -2
v -5 16 -2
v -5 29 -2
v -4 2 -2
v -4 28 -2
v -3 3 -2
v -3 7 -2
v -3 9 -2
v -3 13 -2
v -3 17 -2
v -3 21 -2
v -3 23 -2
v -3 27 -2
v 3 3 -2
v 3 7 -2
v 3 9 -2
v 3 13 -2
v 3 17 -2
v 3 21 -2
v 3 23 -2
v 3 27 -2
v 4 2 -2
v 4 28 -2
v 5 1 -2
v 5 29 -2
v 8 0 -2
v 8 30 -2
v -8 14 -3
v -8 16 -3
v -5 14 -3
v -5 16 -3
v -8 0 2
v 8 0 2
v -8 0 -2
v 8 0 -2
v -4 2 -1
v 4 2 -1
v -4 2 -2
v 4 2 -2
v -3 7 -1
v 3 7 -1
v -3 7 -2
v 3 7 -2
v -3 13 -1
v 3 13 -1
v -3 13 -2
v 3 13 -2
v -6 14 4
v -5 14 4
v -7 14 3
v -6 14 3
v -5 14 3
v -4 14 3
v -7 14 2
v -4 14 2
v -8 14 -2
v -5 14 -2
v -8 14 -3
v -5 14 -3
v -7 15 4
v -6 15 4
v -5 15 4
v -4 15 4
v -7 15 3
v -6 15 3
v -5 15 3
v -4 15 3
v -3 21 -1
v 3 21 -1
v -3 21 -2
v 3 21 -2
v -3 27 -1
v 3 27 -1
v -3 27 -2
v 3 27 -2
v -5 29 -1
v 5 29 -1
v -5 29 -2
v 5 29 -2
v -5 1 -1
v 5 1 -1
v -5 1 -2
v 5 1 -2
v -3 3 -1
v 3 3 -1
v -3 3 -2
v 3 3 -2
v -3 9 -1
v 3 9 -1
v -3 9 -2
v 3 9 -2
v -7 16 4
v -6 16 4
v -5 16 4
v -4 16 4
v -7 16 3
v -6 16 3
v -5 16 3
v -4 16 3
v -8 16 -2
v -5 16 -2
v -8 16 -3
v -5 16 -3
v -6 17 4
v -5 17 4
v -7 17 3
v -6 17 3
v -5 17 3
v -4 17 3
v -7 17 2
v -4 17 2
v -3 17 -1
v 3 17 -1
v -3 17 -2
v 3 17 -2
v -3 23 -1
v 3 23 -1
v -3 23 -2
v 3 23 -2
v -4 28 -1
v 4 28 -1
v -4 28 -2
v 4 28 -2
v -8 30 2
v 8 30 2
v -8 30 -2
v 8 30 -2

# faces
f 3/1/1 2/1/1 1/1/1
f 5/1/1 3/1/1 1/1/1
f 5/2/1 4/2/1 3/2/1
f 6/2/1 4/2/1 5/2/1
f 7/1/1 5/1/1 1/1/1
f 8/1/1 5/1/1 7/1/1
f 12/1/1 10/1/1 9/1/1
f 13/1/1 12/1/1 11/1/1
f 14/1/1 10/1/1 12/1/1
f 14/1/1 12/1/1 13/1/1
f 15/1/1 10/1/1 14/1/1
f 16/1/1 10/1/1 15/1/1
f 19/1/1 18/1/1 17/1/1
f 20/1/1 18/1/1 19/1/1
f 23/1/1 22/1/1 21/1/1
f 24/1/1 22/1/1 23/1/1
f 27/3/1 26/3/1 25/3/1
f 28/3/1 26/3/1 27/3/1
f 31/3/1 30/3/1 29/3/1
f 32/3/1 30/3/1 31/3/1
f 35/3/1 34/3/1 33/3/1
f 36/3/1 34/3/1 35/3/1
f 39/3/1 38/3/1 37/3/1
f 40/3/1 38/3/1 39/3/1
f 43/3/1 42/3/1 41/3/1
f 44/3/1 42/3/1 43/3/1
f 47/1/1 46/1/1 45/1/1
f 48/1/1 46/1/1 47/1/1
f 49/1/2 50/1/2 53/1/2
f 51/1/2 52/1/2 55/1/2
f 55/1/2 52/1/2 56/1/2
f 53/2/2 54/2/2 59/2/2
f 49/1/2 53/1/2 59/1/2
f 59/2/2 54/2/2 60/2/2
f 57/1/2 58/1/2 61/1/2
f 61/1/2 58/1/2 62/1/2
f 49/1/2 59/1/2 63/1/2
f 63/1/2 59/1/2 64/1/2
f 65/1/2 66/1/2 68/1/2
f 67/1/2 68/1/2 69/1/2
f 68/1/2 66/1/2 70/1/2
f 69/1/2 68/1/2 70/1/2
f 70/1/2 66/1/2 71/1/2
f 71/1/2 66/1/2 72/1/2
f 73/3/2 74/3/2 75/3/2
f 75/3/2 74/3/2 76/3/2
f 77/3/2 78/3/2 79/3/2
f 79/3/2 78/3/2 80/3/2
f 81/3/2 82/3/2 83/3/2
f 83/3/2 82/3/2 84/3/2
f 85/3/2 86/3/2 87/3/2
f 87/3/2 86/3/2 88/3/2
f 89/3/2 90/3/2 91/3/2
f 91/3/2 90/3/2 92/3/2
f 93/1/2 94/1/2 95/1/2
f 95/1/2 94/1/2 96/1/2
f 100/1/3 98/1/3 97/1/3
f 101/1/3 98/1/3 100/1/3
f 103/1/3 100/1/3 99/1/3
f 103/1/3 102/1/3 101/1/3
f 103/1/3 101/1/3 100/1/3
f 104/1/3 102/1/3 103/1/3
f 105/1/3 102/1/3 104/1/3
f 106/1/3 102/1/3 105/1/3
f 107/1/3 105/1/3 104/1/3
f 108/1/3 105/1/3 107/1/3
f 113/1/3 110/1/3 109/1/3
f 114/1/3 110/1/3 113/1/3
f 115/1/3 112/1/3 111/1/3
f 116/1/3 112/1/3 115/1/3
f 121/1/3 118/1/3 117/1/3
f 122/1/3 118/1/3 121/1/3
f 123/1/3 120/1/3 119/1/3
f 124/1/3 120/1/3 123/1/3
f 127/1/3 126/1/3 125/1/3
f 128/1/3 126/1/3 127/1/3
f 129/1/3 127/1/3 125/1/3
f 130/1/3 126/1/3 128/1/3
f 131/1/3 129/1/3 125/1/3
f 131/1/3 130/1/3 129/1/3
f 132/1/3 126/1/3 130/1/3
f 132/1/3 130/1/3 131/1/3
f 133/1/4 134/1/4 135/1/4
f 135/1/4 134/1/4 136/1/4
f 137/4/4 138/4/4 145/4/4
f 145/4/4 138/4/4 146/4/4
f 139/4/4 140/4/4 147/4/4
f 147/4/4 140/4/4 148/4/4
f 141/4/4 142/4/4 149/4/4
f 149/4/4 142/4/4 150/4/4
f 143/4/4 144/4/4 151/4/4
f 151/4/4 144/4/4 152/4/4
f 133/1/4 135/1/4 153/1/4
f 136/1/4 134/1/4 154/1/4
f 133/1/4 153/1/4 155/1/4
f 153/1/4 154/1/4 155/1/4
f 154/1/4 134/1/4 156/1/4
f 155/1/4 154/1/4 156/1/4
f 157/1/4 158/1/4 161/1/4
f 161/1/4 158/1/4 162/1/4
f 159/1/4 160/1/4 163/1/4
f 163/1/4 160/1/4 164/1/4
f 165/3/4 166/3/4 167/3/4
f 167/3/4 166/3/4 168/3/4
f 168/3/4 166/3/4 169/3/4
f 169/3/4 166/3/4 170/3/4
f 170/3/4 166/3/4 171/3/4
f 171/3/4 166/3/4 172/3/4
f 172/3/4 166/3/4 173/3/4
f 173/3/4 166/3/4 174/3/4
f 165/3/4 167/3/4 175/3/4
f 168/3/4 169/3/4 176/3/4
f 176/3/4 169/3/4 177/3/4
f 170/3/4 171/3/4 178/3/4
f 178/3/4 171/3/4 179/3/4
f 172/3/4 173/3/4 180/3/4
f 180/3/4 173/3/4 181/3/4
f 174/3/4 166/3/4 182/3/4
f 180/3/4 181/3/4 183/3/4
f 181/3/4 182/3/4 183/3/4
f 178/3/4 179/3/4 183/3/4
f 165/3/4 175/3/4 183/3/4
f 179/3/4 180/3/4 183/3/4
f 176/3/4 177/3/4 183/3/4
f 177/3/4 178/3/4 183/3/4
f 175/3/4 176/3/4 183/3/4
f 182/3/4 166/3/4 184/3/4
f 183/3/4 182/3/4 184/3/4
f 157/1/4 161/1/4 185/1/4
f 164/1/4 160/1/4 186/1/4
f 157/1/4 185/1/4 187/1/4
f 185/1/4 186/1/4 187/1/4
f 186/1/4 160/1/4 188/1/4
f 187/1/4 186/1/4 188/1/4
f 189/2/4 190/2/4 191/2/4
f 191/2/4 190/2/4 192/2/4
f 195/1/5 194/1/5 193/1/5
f 196/1/5 194/1/5 195/1/5
f 199/3/5 198/3/5 197/3/5
f 200/3/5 198/3/5 199/3/5
f 203/3/5 202/3/5 201/3/5
f 204/3/5 202/3/5 203/3/5
f 207/3/5 206/3/5 205/3/5
f 208/3/5 206/3/5 207/3/5
f 212/1/5 210/1/5 209/1/5
f 213/1/5 210/1/5 212/1/5
f 215/1/5 212/1/5 211/1/5
f 215/1/5 214/1/5 213/1/5
f 215/1/5 213/1/5 212/1/5
f 216/1/5 214/1/5 215/1/5
f 219/2/5 218/2/5 217/2/5
f 220/2/5 218/2/5 219/2/5
f 225/1/5 222/1/5 221/1/5
f 226/1/5 222/1/5 225/1/5
f 227/1/5 224/1/5 223/1/5
f 228/1/5 224/1/5 227/1/5
f 231/3/5 230/3/5 229/3/5
f 232/3/5 230/3/5 231/3/5
f 235/3/5 234/3/5 233/3/5
f 236/3/5 234/3/5 235/3/5
f 239/1/5 238/1/5 237/1/5
f 240/1/5 238/1/5 239/1/5
f 241/1/6 242/1/6 243/1/6
f 243/1/6 242/1/6 244/1/6
f 245/3/6 246/3/6 247/3/6
f 247/3/6 246/3/6 248/3/6
f 249/3/6 250/3/6 251/3/6
f 251/3/6 250/3/6 252/3/6
f 253/1/6 254/1/6 257/1/6
f 257/1/6 254/1/6 258/1/6
f 255/1/6 256/1/6 259/1/6
f 259/1/6 256/1/6 260/1/6
f 261/2/6 262/2/6 263/2/6
f 263/2/6 262/2/6 264/2/6
f 265/1/6 266/1/6 268/1/6
f 268/1/6 266/1/6 269/1/6
f 267/1/6 268/1/6 271/1/6
f 269/1/6 270/1/6 271/1/6
f 268/1/6 269/1/6 271/1/6
f 271/1/6 270/1/6 272/1/6
f 273/3/6 274/3/6 275/3/6
f 275/3/6 274/3/6 276/3/6
f 277/3/6 278/3/6 279/3/6
f 279/3/6 278/3/6 280/3/6
f 281/3/6 282/3/6 283/3/6
f 283/3/6 282/3/6 284/3/6
f 285/1/6 286/1/6 287/1/6
f 287/1/6 286/1/6 288/1/6
