# MagicaVoxel @ Ephtracy

# group
g modern:wall-bathroom

# material
mtllib default-material.mtl
usemtl palette

# normals
vn -1 0 0
vn 1 0 0
vn 0 0 1
vn 0 0 -1
vn 0 -1 0
vn 0 1 0

# texcoords
vt 0.470703 0.5
vt 0.916016 0.5
vt 0.970703 0.5
vt 0.986328 0.5

# verts
v -34 0 2
v -34 0 1
v -34 1 1
v -34 1 -0
v -34 1 -2
v -34 37 3
v -34 37 2
v -34 37 -0
v -34 37 -2
v -34 37 -3
v -34 38 3
v -34 38 -3
v -15 0 1
v -15 0 -0
v -15 0 -2
v -15 1 1
v -15 1 -0
v -15 1 -2
v -3 34 1
v -3 34 -0
v -3 35 1
v -3 35 -0
v -2 34 -0
v -2 34 -1
v -2 37 -0
v -2 37 -1
v 9 34 1
v 9 34 -0
v 9 35 1
v 9 35 -0
v 10 34 -0
v 10 34 -1
v 10 37 -0
v 10 37 -1
v -12 34 -0
v -12 34 -1
v -12 37 -0
v -12 37 -1
v -4 34 1
v -4 34 -0
v -4 35 1
v -4 35 -0
v 0 34 -0
v 0 34 -1
v 0 37 -0
v 0 37 -1
v 8 34 1
v 8 34 -0
v 8 35 1
v 8 35 -0
v 12 34 -0
v 12 34 -1
v 12 37 -0
v 12 37 -1
v 15 0 2
v 15 0 -0
v 15 0 -2
v 15 1 -0
v 15 1 -1
v 15 1 -2
v 15 34 -0
v 15 34 -1
v 15 37 3
v 15 37 2
v 15 37 -0
v 15 37 -1
v 15 37 -2
v 15 37 -3
v 15 38 3
v 15 38 -3
v -34 37 3
v -34 38 3
v 15 37 3
v 15 38 3
v -34 0 2
v -34 37 2
v 15 0 2
v 15 37 2
v -12 34 -1
v -12 37 -1
v -2 34 -1
v -2 37 -1
v 0 34 -1
v 0 37 -1
v 10 34 -1
v 10 37 -1
v 12 34 -1
v 12 37 -1
v 15 34 -1
v 15 37 -1
v -34 0 1
v -34 1 1
v -15 0 1
v -15 1 1
v -4 34 1
v -4 35 1
v -3 34 1
v -3 35 1
v 8 34 1
v 8 35 1
v 9 34 1
v 9 35 1
v -12 34 -0
v -12 37 -0
v -4 34 -0
v -4 35 -0
v -3 34 -0
v -3 35 -0
v -2 34 -0
v -2 37 -0
v 0 34 -0
v 0 37 -0
v 8 34 -0
v 8 35 -0
v 9 34 -0
v 9 35 -0
v 10 34 -0
v 10 37 -0
v 12 34 -0
v 12 37 -0
v 15 34 -0
v 15 37 -0
v -34 1 -2
v -34 37 -2
v -15 0 -2
v -15 1 -2
v 15 0 -2
v 15 1 -2
v 15 37 -2
v -34 37 -3
v -34 38 -3
v 15 37 -3
v 15 38 -3
v -34 0 2
v 15 0 2
v -34 0 1
v -15 0 1
v -15 0 -0
v 15 0 -0
v -15 0 -2
v 15 0 -2
v -34 1 1
v -15 1 1
v -34 1 -0
v -15 1 -0
v -34 1 -2
v -15 1 -2
v -4 35 1
v -3 35 1
v 8 35 1
v 9 35 1
v -4 35 -0
v -3 35 -0
v 8 35 -0
v 9 35 -0
v -34 37 3
v 15 37 3
v -34 37 2
v 15 37 2
v -12 37 -0
v -2 37 -0
v 0 37 -0
v 10 37 -0
v 12 37 -0
v 15 37 -0
v -12 37 -1
v -2 37 -1
v 0 37 -1
v 10 37 -1
v 12 37 -1
v 15 37 -1
v -34 37 -2
v 15 37 -2
v -34 37 -3
v 15 37 -3
v -4 34 1
v -3 34 1
v 8 34 1
v 9 34 1
v -12 34 -0
v -4 34 -0
v -3 34 -0
v -2 34 -0
v 0 34 -0
v 8 34 -0
v 9 34 -0
v 10 34 -0
v 12 34 -0
v 15 34 -0
v -12 34 -1
v -2 34 -1
v 0 34 -1
v 10 34 -1
v 12 34 -1
v 15 34 -1
v -34 38 3
v 15 38 3
v -34 38 -3
v 15 38 -3

# faces
f 3/1/1 2/1/1 1/1/1
f 7/1/1 3/1/1 1/1/1
f 7/1/1 4/1/1 3/1/1
f 8/2/1 5/2/1 4/2/1
f 8/1/1 4/1/1 7/1/1
f 9/2/1 5/2/1 8/2/1
f 11/2/1 7/2/1 6/2/1
f 11/2/1 10/2/1 9/2/1
f 11/2/1 9/2/1 8/2/1
f 11/2/1 8/2/1 7/2/1
f 12/2/1 10/2/1 11/2/1
f 16/1/1 14/1/1 13/1/1
f 17/3/1 15/3/1 14/3/1
f 17/1/1 14/1/1 16/1/1
f 18/3/1 15/3/1 17/3/1
f 21/1/1 20/1/1 19/1/1
f 22/1/1 20/1/1 21/1/1
f 25/4/1 24/4/1 23/4/1
f 26/4/1 24/4/1 25/4/1
f 29/1/1 28/1/1 27/1/1
f 30/1/1 28/1/1 29/1/1
f 33/4/1 32/4/1 31/4/1
f 34/4/1 32/4/1 33/4/1
f 35/4/2 36/4/2 37/4/2
f 37/4/2 36/4/2 38/4/2
f 39/1/2 40/1/2 41/1/2
f 41/1/2 40/1/2 42/1/2
f 43/4/2 44/4/2 45/4/2
f 45/4/2 44/4/2 46/4/2
f 47/1/2 48/1/2 49/1/2
f 49/1/2 48/1/2 50/1/2
f 51/4/2 52/4/2 53/4/2
f 53/4/2 52/4/2 54/4/2
f 55/1/2 56/1/2 58/1/2
f 56/3/2 57/3/2 58/3/2
f 58/3/2 57/3/2 59/3/2
f 59/3/2 57/3/2 60/3/2
f 55/1/2 58/1/2 61/1/2
f 58/4/2 59/4/2 61/4/2
f 59/2/2 60/2/2 62/2/2
f 61/4/2 59/4/2 62/4/2
f 55/1/2 61/1/2 64/1/2
f 64/1/2 61/1/2 65/1/2
f 62/2/2 60/2/2 66/2/2
f 66/2/2 60/2/2 67/2/2
f 66/2/2 67/2/2 69/2/2
f 67/2/2 68/2/2 69/2/2
f 65/2/2 66/2/2 69/2/2
f 64/2/2 65/2/2 69/2/2
f 63/2/2 64/2/2 69/2/2
f 69/2/2 68/2/2 70/2/2
f 73/2/3 72/2/3 71/2/3
f 74/2/3 72/2/3 73/2/3
f 77/1/3 76/1/3 75/1/3
f 78/1/3 76/1/3 77/1/3
f 81/2/3 80/2/3 79/2/3
f 82/2/3 80/2/3 81/2/3
f 85/2/3 84/2/3 83/2/3
f 86/2/3 84/2/3 85/2/3
f 89/2/3 88/2/3 87/2/3
f 90/2/3 88/2/3 89/2/3
f 91/1/4 92/1/4 93/1/4
f 93/1/4 92/1/4 94/1/4
f 95/1/4 96/1/4 97/1/4
f 97/1/4 96/1/4 98/1/4
f 99/1/4 100/1/4 101/1/4
f 101/1/4 100/1/4 102/1/4
f 103/1/4 104/1/4 105/1/4
f 105/1/4 104/1/4 106/1/4
f 106/1/4 104/1/4 108/1/4
f 107/1/4 108/1/4 109/1/4
f 108/1/4 104/1/4 110/1/4
f 109/1/4 108/1/4 110/1/4
f 111/1/4 112/1/4 113/1/4
f 113/1/4 112/1/4 114/1/4
f 114/1/4 112/1/4 116/1/4
f 115/1/4 116/1/4 117/1/4
f 116/1/4 112/1/4 118/1/4
f 117/1/4 116/1/4 118/1/4
f 119/1/4 120/1/4 121/1/4
f 121/1/4 120/1/4 122/1/4
f 123/2/4 124/2/4 126/2/4
f 125/3/4 126/3/4 127/3/4
f 126/2/4 124/2/4 128/2/4
f 127/3/4 126/3/4 128/3/4
f 128/2/4 124/2/4 129/2/4
f 130/2/4 131/2/4 132/2/4
f 132/2/4 131/2/4 133/2/4
f 136/1/5 135/1/5 134/1/5
f 137/1/5 135/1/5 136/1/5
f 138/1/5 135/1/5 137/1/5
f 139/1/5 135/1/5 138/1/5
f 140/3/5 139/3/5 138/3/5
f 141/3/5 139/3/5 140/3/5
f 144/1/5 143/1/5 142/1/5
f 145/1/5 143/1/5 144/1/5
f 146/2/5 145/2/5 144/2/5
f 147/2/5 145/2/5 146/2/5
f 152/1/5 149/1/5 148/1/5
f 153/1/5 149/1/5 152/1/5
f 154/1/5 151/1/5 150/1/5
f 155/1/5 151/1/5 154/1/5
f 158/2/5 157/2/5 156/2/5
f 159/2/5 157/2/5 158/2/5
f 166/2/5 161/2/5 160/2/5
f 167/2/5 161/2/5 166/2/5
f 168/2/5 163/2/5 162/2/5
f 169/2/5 163/2/5 168/2/5
f 170/2/5 165/2/5 164/2/5
f 171/2/5 165/2/5 170/2/5
f 174/2/5 173/2/5 172/2/5
f 175/2/5 173/2/5 174/2/5
f 176/1/6 177/1/6 181/1/6
f 181/1/6 177/1/6 182/1/6
f 178/1/6 179/1/6 185/1/6
f 185/1/6 179/1/6 186/1/6
f 182/4/6 183/4/6 190/4/6
f 180/4/6 181/4/6 190/4/6
f 181/4/6 182/4/6 190/4/6
f 190/4/6 183/4/6 191/4/6
f 186/4/6 187/4/6 192/4/6
f 185/4/6 186/4/6 192/4/6
f 184/4/6 185/4/6 192/4/6
f 192/4/6 187/4/6 193/4/6
f 188/4/6 189/4/6 194/4/6
f 194/4/6 189/4/6 195/4/6
f 196/2/6 197/2/6 198/2/6
f 198/2/6 197/2/6 199/2/6
