# MagicaVoxel @ Ephtracy

# group
g modern:wall-white-small

# material
mtllib default-material.mtl
usemtl palette

# normals
vn -1 0 0
vn 1 0 0
vn 0 0 1
vn 0 0 -1
vn 0 -1 0
vn 0 1 0

# texcoords
vt 0.470703 0.5
vt 0.916016 0.5
vt 0.958984 0.5
vt 0.970703 0.5
vt 0.986328 0.5

# verts
v -31 0 2
v -31 0 1
v -31 1 1
v -31 1 -1
v -31 1 -2
v -31 37 3
v -31 37 2
v -31 37 -1
v -31 37 -2
v -31 37 -3
v -31 38 3
v -31 38 -3
v -16 0 1
v -16 0 -1
v -16 0 -2
v -16 1 1
v -16 1 -1
v -16 1 -2
v -4 34 1
v -4 34 -0
v -4 35 1
v -4 35 -0
v -3 34 -0
v -3 34 -1
v -3 37 -0
v -3 37 -1
v 8 34 1
v 8 34 -0
v 8 35 1
v 8 35 -0
v 9 34 -0
v 9 34 -1
v 9 37 -0
v 9 37 -1
v 20 34 1
v 20 34 -0
v 20 35 1
v 20 35 -0
v 21 34 -0
v 21 34 -1
v 21 37 -0
v 21 37 -1
v -13 34 -0
v -13 34 -1
v -13 37 -0
v -13 37 -1
v -5 34 1
v -5 34 -0
v -5 35 1
v -5 35 -0
v -1 34 -0
v -1 34 -1
v -1 37 -0
v -1 37 -1
v 7 34 1
v 7 34 -0
v 7 35 1
v 7 35 -0
v 11 34 -0
v 11 34 -1
v 11 37 -0
v 11 37 -1
v 19 34 1
v 19 34 -0
v 19 35 1
v 19 35 -0
v 39 37 3
v 39 37 2
v 39 37 1
v 39 37 -1
v 39 37 -2
v 39 37 -3
v 39 38 3
v 39 38 1
v 39 38 -1
v 39 38 -2
v 39 38 -3
v 40 0 2
v 40 0 1
v 40 0 -1
v 40 0 -2
v 40 1 2
v 40 1 1
v 40 37 2
v 40 37 -1
v 40 37 -2
v -31 37 3
v -31 38 3
v -16 37 3
v -16 38 3
v 39 37 3
v 39 38 3
v -31 0 2
v -31 37 2
v -16 36 2
v -16 37 2
v 39 0 2
v 39 1 2
v 39 36 2
v 39 37 2
v 40 0 2
v 40 1 2
v 40 37 2
v -13 34 -1
v -13 37 -1
v -3 34 -1
v -3 37 -1
v -1 34 -1
v -1 37 -1
v 9 34 -1
v 9 37 -1
v 11 34 -1
v 11 37 -1
v 21 34 -1
v 21 37 -1
v -31 0 1
v -31 1 1
v -16 0 1
v -16 1 1
v -5 34 1
v -5 35 1
v -4 34 1
v -4 35 1
v 7 34 1
v 7 35 1
v 8 34 1
v 8 35 1
v 19 34 1
v 19 35 1
v 20 34 1
v 20 35 1
v -13 34 -0
v -13 37 -0
v -5 34 -0
v -5 35 -0
v -4 34 -0
v -4 35 -0
v -3 34 -0
v -3 37 -0
v -1 34 -0
v -1 37 -0
v 7 34 -0
v 7 35 -0
v 8 34 -0
v 8 35 -0
v 9 34 -0
v 9 37 -0
v 11 34 -0
v 11 37 -0
v 19 34 -0
v 19 35 -0
v 20 34 -0
v 20 35 -0
v 21 34 -0
v 21 37 -0
v -31 1 -2
v -31 37 -2
v -16 0 -2
v -16 1 -2
v 29 37 -2
v 31 37 -2
v 39 37 -2
v 40 0 -2
v 40 37 -2
v -31 37 -3
v -31 38 -3
v 29 37 -3
v 29 38 -3
v 31 37 -3
v 31 38 -3
v 39 37 -3
v 39 38 -3
v -31 0 2
v 39 0 2
v 40 0 2
v -31 0 1
v -16 0 1
v 39 0 1
v 40 0 1
v -16 0 -1
v 39 0 -1
v 40 0 -1
v -16 0 -2
v 40 0 -2
v -31 1 1
v -16 1 1
v -31 1 -1
v -16 1 -1
v -31 1 -2
v -16 1 -2
v -5 35 1
v -4 35 1
v 7 35 1
v 8 35 1
v 19 35 1
v 20 35 1
v -5 35 -0
v -4 35 -0
v 7 35 -0
v 8 35 -0
v 19 35 -0
v 20 35 -0
v -31 37 3
v -16 37 3
v 39 37 3
v -31 37 2
v -16 37 2
v 39 37 2
v -13 37 -0
v -3 37 -0
v -1 37 -0
v 9 37 -0
v 11 37 -0
v 21 37 -0
v -13 37 -1
v -3 37 -1
v -1 37 -1
v 9 37 -1
v 11 37 -1
v 21 37 -1
v -31 37 -2
v 29 37 -2
v 31 37 -2
v 39 37 -2
v -31 37 -3
v 29 37 -3
v 31 37 -3
v 39 37 -3
v -5 34 1
v -4 34 1
v 7 34 1
v 8 34 1
v 19 34 1
v 20 34 1
v -13 34 -0
v -5 34 -0
v -4 34 -0
v -3 34 -0
v -1 34 -0
v 7 34 -0
v 8 34 -0
v 9 34 -0
v 11 34 -0
v 19 34 -0
v 20 34 -0
v 21 34 -0
v -13 34 -1
v -3 34 -1
v -1 34 -1
v 9 34 -1
v 11 34 -1
v 21 34 -1
v 39 37 2
v 40 37 2
v 39 37 1
v 39 37 -1
v 40 37 -1
v 39 37 -2
v 40 37 -2
v -31 38 3
v -16 38 3
v 39 38 3
v -16 38 1
v 39 38 1
v -16 38 -1
v 39 38 -1
v -16 38 -2
v 29 38 -2
v 31 38 -2
v 39 38 -2
v -31 38 -3
v 29 38 -3
v 31 38 -3
v 39 38 -3

# faces
f 3/2/1 2/2/1 1/2/1
f 7/2/1 3/2/1 1/2/1
f 7/2/1 4/2/1 3/2/1
f 8/1/1 5/1/1 4/1/1
f 8/2/1 4/2/1 7/2/1
f 9/1/1 5/1/1 8/1/1
f 11/2/1 7/2/1 6/2/1
f 11/2/1 10/2/1 9/2/1
f 11/2/1 9/2/1 8/2/1
f 11/2/1 8/2/1 7/2/1
f 12/2/1 10/2/1 11/2/1
f 16/4/1 14/4/1 13/4/1
f 17/1/1 15/1/1 14/1/1
f 17/4/1 14/4/1 16/4/1
f 18/1/1 15/1/1 17/1/1
f 21/5/1 20/5/1 19/5/1
f 22/5/1 20/5/1 21/5/1
f 25/5/1 24/5/1 23/5/1
f 26/5/1 24/5/1 25/5/1
f 29/5/1 28/5/1 27/5/1
f 30/5/1 28/5/1 29/5/1
f 33/5/1 32/5/1 31/5/1
f 34/5/1 32/5/1 33/5/1
f 37/5/1 36/5/1 35/5/1
f 38/5/1 36/5/1 37/5/1
f 41/5/1 40/5/1 39/5/1
f 42/5/1 40/5/1 41/5/1
f 43/5/2 44/5/2 45/5/2
f 45/5/2 44/5/2 46/5/2
f 47/5/2 48/5/2 49/5/2
f 49/5/2 48/5/2 50/5/2
f 51/5/2 52/5/2 53/5/2
f 53/5/2 52/5/2 54/5/2
f 55/5/2 56/5/2 57/5/2
f 57/5/2 56/5/2 58/5/2
f 59/5/2 60/5/2 61/5/2
f 61/5/2 60/5/2 62/5/2
f 63/5/2 64/5/2 65/5/2
f 65/5/2 64/5/2 66/5/2
f 67/3/2 68/3/2 73/3/2
f 68/3/2 69/3/2 73/3/2
f 69/2/2 70/2/2 74/2/2
f 73/3/2 69/3/2 74/3/2
f 70/3/2 71/3/2 75/3/2
f 74/2/2 70/2/2 75/2/2
f 71/2/2 72/2/2 76/2/2
f 75/3/2 71/3/2 76/3/2
f 76/2/2 72/2/2 77/2/2
f 78/1/2 79/1/2 82/1/2
f 79/2/2 80/2/2 83/2/2
f 82/1/2 79/1/2 83/1/2
f 82/2/2 83/2/2 84/2/2
f 80/1/2 81/1/2 85/1/2
f 84/2/2 83/2/2 85/2/2
f 83/2/2 80/2/2 85/2/2
f 85/1/2 81/1/2 86/1/2
f 89/2/3 88/2/3 87/2/3
f 90/2/3 88/2/3 89/2/3
f 91/3/3 90/3/3 89/3/3
f 92/3/3 90/3/3 91/3/3
f 95/2/3 94/2/3 93/2/3
f 96/2/3 94/2/3 95/2/3
f 97/2/3 95/2/3 93/2/3
f 98/2/3 95/2/3 97/2/3
f 99/3/3 96/3/3 95/3/3
f 99/2/3 95/2/3 98/2/3
f 100/3/3 96/3/3 99/3/3
f 101/1/3 98/1/3 97/1/3
f 102/2/3 99/2/3 98/2/3
f 102/1/3 98/1/3 101/1/3
f 102/2/3 100/2/3 99/2/3
f 103/2/3 100/2/3 102/2/3
f 106/1/3 105/1/3 104/1/3
f 107/1/3 105/1/3 106/1/3
f 110/1/3 109/1/3 108/1/3
f 111/1/3 109/1/3 110/1/3
f 114/1/3 113/1/3 112/1/3
f 115/1/3 113/1/3 114/1/3
f 116/2/4 117/2/4 118/2/4
f 118/2/4 117/2/4 119/2/4
f 120/2/4 121/2/4 122/2/4
f 122/2/4 121/2/4 123/2/4
f 124/2/4 125/2/4 126/2/4
f 126/2/4 125/2/4 127/2/4
f 128/2/4 129/2/4 130/2/4
f 130/2/4 129/2/4 131/2/4
f 132/5/4 133/5/4 134/5/4
f 134/5/4 133/5/4 135/5/4
f 135/5/4 133/5/4 137/5/4
f 136/5/4 137/5/4 138/5/4
f 137/5/4 133/5/4 139/5/4
f 138/5/4 137/5/4 139/5/4
f 140/5/4 141/5/4 142/5/4
f 142/5/4 141/5/4 143/5/4
f 143/5/4 141/5/4 145/5/4
f 144/5/4 145/5/4 146/5/4
f 145/5/4 141/5/4 147/5/4
f 146/5/4 145/5/4 147/5/4
f 148/5/4 149/5/4 150/5/4
f 150/5/4 149/5/4 151/5/4
f 151/5/4 149/5/4 153/5/4
f 152/5/4 153/5/4 154/5/4
f 153/5/4 149/5/4 155/5/4
f 154/5/4 153/5/4 155/5/4
f 156/1/4 157/1/4 159/1/4
f 159/1/4 157/1/4 160/1/4
f 158/1/4 159/1/4 160/1/4
f 158/1/4 160/1/4 161/1/4
f 158/1/4 161/1/4 162/1/4
f 158/1/4 162/1/4 163/1/4
f 163/1/4 162/1/4 164/1/4
f 165/2/4 166/2/4 167/2/4
f 167/2/4 166/2/4 168/2/4
f 167/3/4 168/3/4 169/3/4
f 169/3/4 168/3/4 170/3/4
f 169/2/4 170/2/4 171/2/4
f 171/2/4 170/2/4 172/2/4
f 176/2/5 174/2/5 173/2/5
f 177/2/5 174/2/5 176/2/5
f 178/1/5 175/1/5 174/1/5
f 178/2/5 174/2/5 177/2/5
f 179/1/5 175/1/5 178/1/5
f 180/4/5 178/4/5 177/4/5
f 181/2/5 179/2/5 178/2/5
f 181/4/5 178/4/5 180/4/5
f 182/2/5 179/2/5 181/2/5
f 183/1/5 181/1/5 180/1/5
f 183/1/5 182/1/5 181/1/5
f 184/1/5 182/1/5 183/1/5
f 187/2/5 186/2/5 185/2/5
f 188/2/5 186/2/5 187/2/5
f 189/1/5 188/1/5 187/1/5
f 190/1/5 188/1/5 189/1/5
f 197/5/5 192/5/5 191/5/5
f 198/5/5 192/5/5 197/5/5
f 199/5/5 194/5/5 193/5/5
f 200/5/5 194/5/5 199/5/5
f 201/5/5 196/5/5 195/5/5
f 202/5/5 196/5/5 201/5/5
f 206/2/5 204/2/5 203/2/5
f 207/3/5 205/3/5 204/3/5
f 207/2/5 204/2/5 206/2/5
f 208/3/5 205/3/5 207/3/5
f 215/2/5 210/2/5 209/2/5
f 216/2/5 210/2/5 215/2/5
f 217/2/5 212/2/5 211/2/5
f 218/2/5 212/2/5 217/2/5
f 219/2/5 214/2/5 213/2/5
f 220/2/5 214/2/5 219/2/5
f 225/2/5 222/2/5 221/2/5
f 226/3/5 223/3/5 222/3/5
f 226/2/5 222/2/5 225/2/5
f 227/2/5 224/2/5 223/2/5
f 227/3/5 223/3/5 226/3/5
f 228/2/5 224/2/5 227/2/5
f 229/5/6 230/5/6 236/5/6
f 236/5/6 230/5/6 237/5/6
f 231/5/6 232/5/6 240/5/6
f 240/5/6 232/5/6 241/5/6
f 233/5/6 234/5/6 244/5/6
f 244/5/6 234/5/6 245/5/6
f 237/5/6 238/5/6 247/5/6
f 235/5/6 236/5/6 247/5/6
f 236/5/6 237/5/6 247/5/6
f 247/5/6 238/5/6 248/5/6
f 241/5/6 242/5/6 249/5/6
f 239/5/6 240/5/6 249/5/6
f 240/5/6 241/5/6 249/5/6
f 249/5/6 242/5/6 250/5/6
f 245/5/6 246/5/6 251/5/6
f 244/5/6 245/5/6 251/5/6
f 243/5/6 244/5/6 251/5/6
f 251/5/6 246/5/6 252/5/6
f 253/2/6 254/2/6 255/2/6
f 255/2/6 254/2/6 256/2/6
f 256/2/6 254/2/6 257/2/6
f 256/1/6 257/1/6 258/1/6
f 258/1/6 257/1/6 259/1/6
f 260/2/6 261/2/6 263/2/6
f 261/3/6 262/3/6 263/3/6
f 263/3/6 262/3/6 264/3/6
f 260/2/6 263/2/6 265/2/6
f 263/2/6 264/2/6 265/2/6
f 265/2/6 264/2/6 266/2/6
f 260/2/6 265/2/6 267/2/6
f 265/3/6 266/3/6 267/3/6
f 267/3/6 266/3/6 268/3/6
f 268/3/6 266/3/6 269/3/6
f 269/3/6 266/3/6 270/3/6
f 260/2/6 267/2/6 271/2/6
f 267/2/6 268/2/6 271/2/6
f 268/3/6 269/3/6 272/3/6
f 271/2/6 268/2/6 272/2/6
f 269/2/6 270/2/6 273/2/6
f 272/3/6 269/3/6 273/3/6
f 273/2/6 270/2/6 274/2/6
