# MagicaVoxel @ Ephtracy

# group
g modern:couch-small

# material
mtllib default-material.mtl
usemtl palette

# normals
vn -1 0 0
vn 1 0 0
vn 0 0 1
vn 0 0 -1
vn 0 -1 0
vn 0 1 0

# texcoords
vt 0.912109 0.5
vt 0.994141 0.5

# verts
v -6.5 0 8
v -6.5 0 -8
v -6.5 2 8
v -6.5 2 7
v -6.5 2 -7
v -6.5 2 -8
v -6.5 3 8
v -6.5 3 7
v -6.5 3 -7
v -6.5 3 -8
v -6.5 7 5
v -6.5 7 -5
v -6.5 8 8
v -6.5 8 5
v -6.5 8 -5
v -6.5 8 -8
v -5.5 2 7
v -5.5 2 -7
v -5.5 3 7
v -5.5 3 -7
v 1.5 7 5
v 1.5 7 -5
v 1.5 8 5
v 1.5 8 -5
v 1.5 10 5
v 1.5 10 -5
v 5.5 2 8
v 5.5 2 7
v 5.5 2 -7
v 5.5 2 -8
v 5.5 3 8
v 5.5 3 7
v 5.5 3 -7
v 5.5 3 -8
v -5.5 2 8
v -5.5 2 7
v -5.5 2 -7
v -5.5 2 -8
v -5.5 3 8
v -5.5 3 7
v -5.5 3 -7
v -5.5 3 -8
v 5.5 2 7
v 5.5 2 -7
v 5.5 3 7
v 5.5 3 -7
v 6.5 0 8
v 6.5 0 -8
v 6.5 2 8
v 6.5 2 7
v 6.5 2 -7
v 6.5 2 -8
v 6.5 3 8
v 6.5 3 7
v 6.5 3 -7
v 6.5 3 -8
v 6.5 8 8
v 6.5 8 5
v 6.5 8 -5
v 6.5 8 -8
v 6.5 10 5
v 6.5 10 -5
v -6.5 0 8
v -6.5 2 8
v -6.5 3 8
v -6.5 8 8
v -5.5 2 8
v -5.5 3 8
v 5.5 2 8
v 5.5 3 8
v 6.5 0 8
v 6.5 2 8
v 6.5 3 8
v 6.5 8 8
v -5.5 2 7
v -5.5 3 7
v 5.5 2 7
v 5.5 3 7
v 1.5 8 5
v 1.5 10 5
v 6.5 8 5
v 6.5 10 5
v -6.5 7 -5
v -6.5 8 -5
v 1.5 7 -5
v 1.5 8 -5
v -6.5 2 -7
v -6.5 3 -7
v -5.5 2 -7
v -5.5 3 -7
v 5.5 2 -7
v 5.5 3 -7
v 6.5 2 -7
v 6.5 3 -7
v -6.5 2 7
v -6.5 3 7
v -5.5 2 7
v -5.5 3 7
v 5.5 2 7
v 5.5 3 7
v 6.5 2 7
v 6.5 3 7
v -6.5 7 5
v -6.5 8 5
v 1.5 7 5
v 1.5 8 5
v 1.5 8 -5
v 1.5 10 -5
v 6.5 8 -5
v 6.5 10 -5
v -5.5 2 -7
v -5.5 3 -7
v 5.5 2 -7
v 5.5 3 -7
v -6.5 0 -8
v -6.5 2 -8
v -6.5 3 -8
v -6.5 8 -8
v -5.5 2 -8
v -5.5 3 -8
v 5.5 2 -8
v 5.5 3 -8
v 6.5 0 -8
v 6.5 2 -8
v 6.5 3 -8
v 6.5 8 -8
v -6.5 0 8
v 6.5 0 8
v -6.5 0 -8
v 6.5 0 -8
v -5.5 3 8
v 5.5 3 8
v -6.5 3 7
v -5.5 3 7
v 5.5 3 7
v 6.5 3 7
v -6.5 3 -7
v -5.5 3 -7
v 5.5 3 -7
v 6.5 3 -7
v -5.5 3 -8
v 5.5 3 -8
v -5.5 2 8
v 5.5 2 8
v -6.5 2 7
v -5.5 2 7
v 5.5 2 7
v 6.5 2 7
v -6.5 2 -7
v -5.5 2 -7
v 5.5 2 -7
v 6.5 2 -7
v -5.5 2 -8
v 5.5 2 -8
v -6.5 7 5
v 1.5 7 5
v -6.5 7 -5
v 1.5 7 -5
v -6.5 8 8
v 6.5 8 8
v -6.5 8 5
v 1.5 8 5
v 6.5 8 5
v -6.5 8 -5
v 1.5 8 -5
v 6.5 8 -5
v -6.5 8 -8
v 6.5 8 -8
v 1.5 10 5
v 6.5 10 5
v 1.5 10 -5
v 6.5 10 -5

# faces
f 3/1/1 2/1/1 1/1/1
f 4/1/1 2/1/1 3/1/1
f 5/1/1 2/1/1 4/1/1
f 6/1/1 2/1/1 5/1/1
f 7/2/1 4/2/1 3/2/1
f 8/2/1 4/2/1 7/2/1
f 9/2/1 6/2/1 5/2/1
f 10/2/1 6/2/1 9/2/1
f 11/1/1 8/1/1 7/1/1
f 11/1/1 9/1/1 8/1/1
f 11/1/1 10/1/1 9/1/1
f 12/1/1 10/1/1 11/1/1
f 13/1/1 11/1/1 7/1/1
f 14/1/1 11/1/1 13/1/1
f 15/1/1 10/1/1 12/1/1
f 16/1/1 10/1/1 15/1/1
f 19/1/1 18/1/1 17/1/1
f 20/1/1 18/1/1 19/1/1
f 23/1/1 22/1/1 21/1/1
f 24/1/1 22/1/1 23/1/1
f 25/1/1 24/1/1 23/1/1
f 26/1/1 24/1/1 25/1/1
f 31/2/1 28/2/1 27/2/1
f 32/2/1 28/2/1 31/2/1
f 33/2/1 30/2/1 29/2/1
f 34/2/1 30/2/1 33/2/1
f 35/2/2 36/2/2 39/2/2
f 39/2/2 36/2/2 40/2/2
f 37/2/2 38/2/2 41/2/2
f 41/2/2 38/2/2 42/2/2
f 43/1/2 44/1/2 45/1/2
f 45/1/2 44/1/2 46/1/2
f 47/1/2 48/1/2 49/1/2
f 49/1/2 48/1/2 50/1/2
f 50/1/2 48/1/2 51/1/2
f 51/1/2 48/1/2 52/1/2
f 49/2/2 50/2/2 53/2/2
f 53/2/2 50/2/2 54/2/2
f 51/2/2 52/2/2 55/2/2
f 55/2/2 52/2/2 56/2/2
f 53/1/2 54/1/2 57/1/2
f 54/1/2 55/1/2 57/1/2
f 55/1/2 56/1/2 57/1/2
f 57/1/2 56/1/2 58/1/2
f 58/1/2 56/1/2 59/1/2
f 59/1/2 56/1/2 60/1/2
f 58/1/2 59/1/2 61/1/2
f 61/1/2 59/1/2 62/1/2
f 67/1/3 64/1/3 63/1/3
f 67/2/3 65/2/3 64/2/3
f 68/1/3 66/1/3 65/1/3
f 68/2/3 65/2/3 67/2/3
f 69/1/3 67/1/3 63/1/3
f 70/1/3 66/1/3 68/1/3
f 71/1/3 69/1/3 63/1/3
f 72/2/3 70/2/3 69/2/3
f 72/1/3 69/1/3 71/1/3
f 73/1/3 66/1/3 70/1/3
f 73/2/3 70/2/3 72/2/3
f 74/1/3 66/1/3 73/1/3
f 77/1/3 76/1/3 75/1/3
f 78/1/3 76/1/3 77/1/3
f 81/1/3 80/1/3 79/1/3
f 82/1/3 80/1/3 81/1/3
f 85/1/3 84/1/3 83/1/3
f 86/1/3 84/1/3 85/1/3
f 89/2/3 88/2/3 87/2/3
f 90/2/3 88/2/3 89/2/3
f 93/2/3 92/2/3 91/2/3
f 94/2/3 92/2/3 93/2/3
f 95/2/4 96/2/4 97/2/4
f 97/2/4 96/2/4 98/2/4
f 99/2/4 100/2/4 101/2/4
f 101/2/4 100/2/4 102/2/4
f 103/1/4 104/1/4 105/1/4
f 105/1/4 104/1/4 106/1/4
f 107/1/4 108/1/4 109/1/4
f 109/1/4 108/1/4 110/1/4
f 111/1/4 112/1/4 113/1/4
f 113/1/4 112/1/4 114/1/4
f 115/1/4 116/1/4 119/1/4
f 116/2/4 117/2/4 119/2/4
f 117/1/4 118/1/4 120/1/4
f 119/2/4 117/2/4 120/2/4
f 115/1/4 119/1/4 121/1/4
f 120/1/4 118/1/4 122/1/4
f 115/1/4 121/1/4 123/1/4
f 121/2/4 122/2/4 124/2/4
f 123/1/4 121/1/4 124/1/4
f 122/1/4 118/1/4 125/1/4
f 124/2/4 122/2/4 125/2/4
f 125/1/4 118/1/4 126/1/4
f 129/1/5 128/1/5 127/1/5
f 130/1/5 128/1/5 129/1/5
f 134/1/5 132/1/5 131/1/5
f 135/1/5 132/1/5 134/1/5
f 137/1/5 134/1/5 133/1/5
f 138/1/5 134/1/5 137/1/5
f 139/1/5 136/1/5 135/1/5
f 140/1/5 136/1/5 139/1/5
f 141/1/5 139/1/5 138/1/5
f 142/1/5 139/1/5 141/1/5
f 143/1/6 144/1/6 146/1/6
f 146/1/6 144/1/6 147/1/6
f 145/1/6 146/1/6 149/1/6
f 149/1/6 146/1/6 150/1/6
f 147/1/6 148/1/6 151/1/6
f 151/1/6 148/1/6 152/1/6
f 150/1/6 151/1/6 153/1/6
f 153/1/6 151/1/6 154/1/6
f 155/1/6 156/1/6 157/1/6
f 157/1/6 156/1/6 158/1/6
f 159/1/6 160/1/6 161/1/6
f 161/1/6 160/1/6 162/1/6
f 162/1/6 160/1/6 163/1/6
f 164/1/6 165/1/6 167/1/6
f 165/1/6 166/1/6 167/1/6
f 167/1/6 166/1/6 168/1/6
f 169/1/6 170/1/6 171/1/6
f 171/1/6 170/1/6 172/1/6
