# MagicaVoxel @ Ephtracy

# group
g modern:wall-door-small

# material
mtllib default-material.mtl
usemtl palette

# normals
vn -1 0 0
vn 1 0 0
vn 0 0 1
vn 0 0 -1
vn 0 -1 0
vn 0 1 0

# texcoords
vt 0.310547 0.5
vt 0.916016 0.5
vt 0.958984 0.5
vt 0.970703 0.5
vt 0.986328 0.5
vt 0.994141 0.5

# verts
v -15 0 4
v -15 0 -0
v -15 1 4
v -15 1 3
v -15 1 1
v -15 1 -0
v -15 3 4
v -15 3 3
v -15 36 4
v -15 36 3
v -15 37 5
v -15 37 4
v -15 37 3
v -15 37 1
v -15 37 -0
v -15 37 -1
v -15 38 5
v -15 38 3
v -15 38 1
v -15 38 -0
v -15 38 -1
v 1 34 3
v 1 34 2
v 1 36 3
v 1 37 3
v 1 37 2
v 9 1 3
v 9 1 1
v 9 31 3
v 9 31 1
v 10 1 4
v 10 1 3
v 10 1 1
v 10 1 -0
v 10 32 4
v 10 32 3
v 10 32 1
v 10 32 -0
v 11 34 3
v 11 34 1
v 11 35 3
v 11 35 1
v -8 1 4
v -8 1 3
v -8 1 1
v -8 1 -0
v -8 32 4
v -8 32 3
v -8 32 1
v -8 32 -0
v -7 1 3
v -7 1 1
v -7 31 3
v -7 31 1
v 0 34 3
v 0 34 2
v 0 36 3
v 0 37 3
v 0 37 2
v 10 34 3
v 10 34 1
v 10 35 3
v 10 35 1
v 14 34 2
v 14 34 1
v 14 37 2
v 14 37 1
v 15 0 4
v 15 0 3
v 15 0 -0
v 15 1 3
v 15 1 1
v 15 1 -0
v 15 34 2
v 15 34 1
v 15 36 4
v 15 36 3
v 15 37 5
v 15 37 4
v 15 37 3
v 15 37 2
v 15 37 1
v 15 37 -0
v 15 37 -1
v 15 38 5
v 15 38 3
v 15 38 1
v 15 38 -0
v 15 38 -1
v -15 37 5
v -15 38 5
v 15 37 5
v 15 38 5
v -15 0 4
v -15 1 4
v -15 3 4
v -15 36 4
v -15 37 4
v -9 0 4
v -9 1 4
v -9 3 4
v -9 33 4
v -8 1 4
v -8 32 4
v 10 1 4
v 10 32 4
v 11 0 4
v 11 33 4
v 15 0 4
v 15 36 4
v 15 37 4
v -8 1 3
v -8 32 3
v -7 1 3
v -7 31 3
v 9 1 3
v 9 31 3
v 10 1 3
v 10 32 3
v 0 34 2
v 0 37 2
v 1 34 2
v 1 37 2
v 10 34 1
v 10 35 1
v 11 34 1
v 11 35 1
v 14 34 1
v 14 37 1
v 15 34 1
v 15 37 1
v 0 34 3
v 0 36 3
v 0 37 3
v 1 34 3
v 1 36 3
v 1 37 3
v 10 34 3
v 10 35 3
v 11 34 3
v 11 35 3
v 14 34 2
v 14 37 2
v 15 34 2
v 15 37 2
v -8 1 1
v -8 32 1
v -7 1 1
v -7 31 1
v 9 1 1
v 9 31 1
v 10 1 1
v 10 32 1
v -15 0 -0
v -15 1 -0
v -15 37 -0
v -9 1 -0
v -9 33 -0
v -8 0 -0
v -8 1 -0
v -8 32 -0
v 10 0 -0
v 10 1 -0
v 10 32 -0
v 11 1 -0
v 11 33 -0
v 15 0 -0
v 15 1 -0
v 15 37 -0
v -15 37 -1
v -15 38 -1
v 15 37 -1
v 15 38 -1
v -15 0 4
v -9 0 4
v 11 0 4
v 15 0 4
v -9 0 3
v -7 0 3
v 9 0 3
v 11 0 3
v 15 0 3
v -8 0 1
v -7 0 1
v 9 0 1
v 10 0 1
v -15 0 -0
v -8 0 -0
v 10 0 -0
v 15 0 -0
v -7 31 3
v 9 31 3
v -7 31 1
v 9 31 1
v -8 32 4
v 10 32 4
v -8 32 3
v 10 32 3
v -8 32 1
v 10 32 1
v -8 32 -0
v 10 32 -0
v 10 35 3
v 11 35 3
v 10 35 1
v 11 35 1
v -15 37 5
v 15 37 5
v -15 37 4
v 15 37 4
v 0 37 3
v 1 37 3
v 0 37 2
v 1 37 2
v 14 37 2
v 15 37 2
v 14 37 1
v 15 37 1
v -15 37 -0
v 15 37 -0
v -15 37 -1
v 15 37 -1
v -8 1 4
v 10 1 4
v -8 1 3
v -7 1 3
v 9 1 3
v 10 1 3
v -8 1 1
v -7 1 1
v 9 1 1
v 10 1 1
v -8 1 -0
v 10 1 -0
v 0 34 3
v 1 34 3
v 10 34 3
v 11 34 3
v 0 34 2
v 1 34 2
v 14 34 2
v 15 34 2
v 10 34 1
v 11 34 1
v 14 34 1
v 15 34 1
v -15 38 5
v 15 38 5
v 7 38 4
v 8 38 4
v -15 38 3
v 7 38 3
v 8 38 3
v 15 38 3
v -15 38 1
v 15 38 1
v -15 38 -0
v 15 38 -0
v -15 38 -1
v 15 38 -1

# faces
f 3/4/1 2/4/1 1/4/1
f 4/4/1 2/4/1 3/4/1
f 5/4/1 2/4/1 4/4/1
f 6/4/1 2/4/1 5/4/1
f 7/3/1 4/3/1 3/3/1
f 8/5/1 5/5/1 4/5/1
f 8/3/1 4/3/1 7/3/1
f 9/2/1 8/2/1 7/2/1
f 10/5/1 5/5/1 8/5/1
f 10/2/1 8/2/1 9/2/1
f 12/3/1 10/3/1 9/3/1
f 13/5/1 5/5/1 10/5/1
f 13/3/1 10/3/1 12/3/1
f 14/2/1 6/2/1 5/2/1
f 14/5/1 5/5/1 13/5/1
f 15/2/1 6/2/1 14/2/1
f 17/3/1 13/3/1 12/3/1
f 17/3/1 12/3/1 11/3/1
f 18/2/1 14/2/1 13/2/1
f 18/3/1 13/3/1 17/3/1
f 19/3/1 15/3/1 14/3/1
f 19/2/1 14/2/1 18/2/1
f 20/2/1 16/2/1 15/2/1
f 20/3/1 15/3/1 19/3/1
f 21/2/1 16/2/1 20/2/1
f 24/5/1 23/5/1 22/5/1
f 25/5/1 23/5/1 24/5/1
f 26/5/1 23/5/1 25/5/1
f 29/1/1 28/1/1 27/1/1
f 30/1/1 28/1/1 29/1/1
f 35/6/1 32/6/1 31/6/1
f 36/6/1 32/6/1 35/6/1
f 37/6/1 34/6/1 33/6/1
f 38/6/1 34/6/1 37/6/1
f 41/5/1 40/5/1 39/5/1
f 42/5/1 40/5/1 41/5/1
f 43/6/2 44/6/2 47/6/2
f 47/6/2 44/6/2 48/6/2
f 45/6/2 46/6/2 49/6/2
f 49/6/2 46/6/2 50/6/2
f 51/1/2 52/1/2 53/1/2
f 53/1/2 52/1/2 54/1/2
f 55/5/2 56/5/2 57/5/2
f 57/5/2 56/5/2 58/5/2
f 58/5/2 56/5/2 59/5/2
f 60/5/2 61/5/2 62/5/2
f 62/5/2 61/5/2 63/5/2
f 64/5/2 65/5/2 66/5/2
f 66/5/2 65/5/2 67/5/2
f 68/2/2 69/2/2 71/2/2
f 69/4/2 70/4/2 71/4/2
f 71/4/2 70/4/2 72/4/2
f 72/4/2 70/4/2 73/4/2
f 71/5/2 72/5/2 74/5/2
f 72/2/2 73/2/2 75/2/2
f 74/5/2 72/5/2 75/5/2
f 68/2/2 71/2/2 76/2/2
f 71/5/2 74/5/2 77/5/2
f 76/2/2 71/2/2 77/2/2
f 76/3/2 77/3/2 79/3/2
f 77/5/2 74/5/2 80/5/2
f 79/3/2 77/3/2 80/3/2
f 80/5/2 74/5/2 81/5/2
f 75/2/2 73/2/2 82/2/2
f 82/2/2 73/2/2 83/2/2
f 78/3/2 79/3/2 85/3/2
f 79/3/2 80/3/2 85/3/2
f 80/2/2 81/2/2 86/2/2
f 85/3/2 80/3/2 86/3/2
f 81/2/2 82/2/2 86/2/2
f 82/3/2 83/3/2 87/3/2
f 86/2/2 82/2/2 87/2/2
f 83/2/2 84/2/2 88/2/2
f 87/3/2 83/3/2 88/3/2
f 88/2/2 84/2/2 89/2/2
f 92/3/3 91/3/3 90/3/3
f 93/3/3 91/3/3 92/3/3
f 99/4/3 95/4/3 94/4/3
f 100/3/3 96/3/3 95/3/3
f 100/4/3 95/4/3 99/4/3
f 101/2/3 97/2/3 96/2/3
f 101/3/3 96/3/3 100/3/3
f 102/2/3 97/2/3 101/2/3
f 103/6/3 100/6/3 99/6/3
f 103/6/3 101/6/3 100/6/3
f 103/6/3 102/6/3 101/6/3
f 104/6/3 102/6/3 103/6/3
f 105/6/3 103/6/3 99/6/3
f 106/6/3 102/6/3 104/6/3
f 107/6/3 105/6/3 99/6/3
f 107/6/3 106/6/3 105/6/3
f 108/2/3 97/2/3 102/2/3
f 108/6/3 106/6/3 107/6/3
f 108/6/3 102/6/3 106/6/3
f 109/2/3 108/2/3 107/2/3
f 110/3/3 98/3/3 97/3/3
f 110/2/3 108/2/3 109/2/3
f 110/2/3 97/2/3 108/2/3
f 111/3/3 98/3/3 110/3/3
f 114/1/3 113/1/3 112/1/3
f 115/1/3 113/1/3 114/1/3
f 117/1/3 113/1/3 115/1/3
f 118/1/3 117/1/3 116/1/3
f 119/1/3 113/1/3 117/1/3
f 119/1/3 117/1/3 118/1/3
f 122/5/3 121/5/3 120/5/3
f 123/5/3 121/5/3 122/5/3
f 126/2/3 125/2/3 124/2/3
f 127/2/3 125/2/3 126/2/3
f 130/2/3 129/2/3 128/2/3
f 131/2/3 129/2/3 130/2/3
f 132/2/4 133/2/4 135/2/4
f 133/3/4 134/3/4 136/3/4
f 135/2/4 133/2/4 136/2/4
f 136/3/4 134/3/4 137/3/4
f 138/2/4 139/2/4 140/2/4
f 140/2/4 139/2/4 141/2/4
f 142/5/4 143/5/4 144/5/4
f 144/5/4 143/5/4 145/5/4
f 146/1/4 147/1/4 148/1/4
f 148/1/4 147/1/4 149/1/4
f 149/1/4 147/1/4 151/1/4
f 150/1/4 151/1/4 152/1/4
f 151/1/4 147/1/4 153/1/4
f 152/1/4 151/1/4 153/1/4
f 154/4/4 155/4/4 157/4/4
f 155/2/4 156/2/4 157/2/4
f 157/2/4 156/2/4 158/2/4
f 154/4/4 157/4/4 159/4/4
f 157/6/4 158/6/4 160/6/4
f 159/4/4 157/4/4 160/4/4
f 160/6/4 158/6/4 161/6/4
f 159/6/4 160/6/4 162/6/4
f 162/6/4 160/6/4 163/6/4
f 161/6/4 158/6/4 164/6/4
f 162/4/4 163/4/4 165/4/4
f 163/6/4 164/6/4 165/6/4
f 158/2/4 156/2/4 166/2/4
f 165/6/4 164/6/4 166/6/4
f 164/6/4 158/6/4 166/6/4
f 162/4/4 165/4/4 167/4/4
f 165/2/4 166/2/4 168/2/4
f 167/4/4 165/4/4 168/4/4
f 166/2/4 156/2/4 169/2/4
f 168/2/4 166/2/4 169/2/4
f 170/2/4 171/2/4 172/2/4
f 172/2/4 171/2/4 173/2/4
f 178/4/5 175/4/5 174/4/5
f 178/6/5 176/6/5 175/6/5
f 179/6/5 176/6/5 178/6/5
f 180/6/5 176/6/5 179/6/5
f 181/2/5 177/2/5 176/2/5
f 181/6/5 176/6/5 180/6/5
f 182/2/5 177/2/5 181/2/5
f 183/4/5 179/4/5 178/4/5
f 184/1/5 180/1/5 179/1/5
f 184/4/5 179/4/5 183/4/5
f 185/4/5 181/4/5 180/4/5
f 185/1/5 180/1/5 184/1/5
f 185/4/5 182/4/5 181/4/5
f 186/4/5 182/4/5 185/4/5
f 187/4/5 183/4/5 178/4/5
f 187/4/5 178/4/5 174/4/5
f 188/6/5 186/6/5 185/6/5
f 188/4/5 183/4/5 187/4/5
f 188/6/5 184/6/5 183/6/5
f 188/6/5 185/6/5 184/6/5
f 189/4/5 182/4/5 186/4/5
f 189/6/5 186/6/5 188/6/5
f 190/4/5 182/4/5 189/4/5
f 193/1/5 192/1/5 191/1/5
f 194/1/5 192/1/5 193/1/5
f 197/6/5 196/6/5 195/6/5
f 198/6/5 196/6/5 197/6/5
f 201/6/5 200/6/5 199/6/5
f 202/6/5 200/6/5 201/6/5
f 205/5/5 204/5/5 203/5/5
f 206/5/5 204/5/5 205/5/5
f 209/3/5 208/3/5 207/3/5
f 210/3/5 208/3/5 209/3/5
f 213/2/5 212/2/5 211/2/5
f 214/2/5 212/2/5 213/2/5
f 217/2/5 216/2/5 215/2/5
f 218/2/5 216/2/5 217/2/5
f 221/2/5 220/2/5 219/2/5
f 222/2/5 220/2/5 221/2/5
f 223/6/6 224/6/6 225/6/6
f 225/6/6 224/6/6 226/6/6
f 226/6/6 224/6/6 227/6/6
f 227/6/6 224/6/6 228/6/6
f 226/1/6 227/1/6 230/1/6
f 230/1/6 227/1/6 231/1/6
f 229/6/6 230/6/6 233/6/6
f 231/6/6 232/6/6 233/6/6
f 230/6/6 231/6/6 233/6/6
f 233/6/6 232/6/6 234/6/6
f 235/5/6 236/5/6 239/5/6
f 239/5/6 236/5/6 240/5/6
f 237/5/6 238/5/6 243/5/6
f 243/5/6 238/5/6 244/5/6
f 241/5/6 242/5/6 245/5/6
f 245/5/6 242/5/6 246/5/6
f 247/3/6 248/3/6 249/3/6
f 249/3/6 248/3/6 250/3/6
f 247/3/6 249/3/6 251/3/6
f 249/2/6 250/2/6 252/2/6
f 251/3/6 249/3/6 252/3/6
f 250/3/6 248/3/6 253/3/6
f 252/2/6 250/2/6 253/2/6
f 253/3/6 248/3/6 254/3/6
f 251/2/6 252/2/6 255/2/6
f 252/2/6 253/2/6 255/2/6
f 253/2/6 254/2/6 255/2/6
f 255/2/6 254/2/6 256/2/6
f 255/3/6 256/3/6 257/3/6
f 257/3/6 256/3/6 258/3/6
f 257/2/6 258/2/6 259/2/6
f 259/2/6 258/2/6 260/2/6
