# MagicaVoxel @ Ephtracy

# group
g nature-walledge

# material
mtllib default-material.mtl
usemtl palette

# normals
vn -1 0 0
vn 1 0 0
vn 0 0 1
vn 0 0 -1
vn 0 -1 0
vn 0 1 0

# texcoords
vt 0.103516 0.5
vt 0.142578 0.5
vt 0.177734 0.5
vt 0.982422 0.5

# verts
v -10 0 10
v -10 0 8
v -10 0 7
v -10 0 3
v -10 0 2
v -10 0 -2
v -10 0 -3
v -10 0 -7
v -10 0 -8
v -10 0 -10
v -10 3 10
v -10 3 8
v -10 3 7
v -10 3 3
v -10 3 2
v -10 3 -2
v -10 3 -3
v -10 3 -7
v -10 3 -8
v -10 3 -10
v -10 4 9
v -10 4 5
v -10 4 4
v -10 4 -0
v -10 4 -1
v -10 4 -5
v -10 4 -6
v -10 4 -9
v -10 7 9
v -10 7 5
v -10 7 4
v -10 7 -0
v -10 7 -1
v -10 7 -5
v -10 7 -6
v -10 7 -9
v -10 8 10
v -10 8 7
v -10 8 6
v -10 8 2
v -10 8 1
v -10 8 -3
v -10 8 -4
v -10 8 -8
v -10 8 -9
v -10 8 -10
v -10 11 10
v -10 11 7
v -10 11 6
v -10 11 2
v -10 11 1
v -10 11 -3
v -10 11 -4
v -10 11 -8
v -10 11 -9
v -10 11 -10
v -10 12 10
v -10 12 -10
v -10 14 10
v -10 14 -10
v -10 15 10
v -10 15 -10
v -9 12 9
v -9 12 -9
v -9 14 9
v -9 14 -9
v -8 15 8
v -8 15 6
v -8 15 -6
v -8 15 -8
v -8 18 8
v -8 18 6
v -8 18 -6
v -8 18 -8
v -8 21 8
v -8 21 -8
v -7 15 6
v -7 15 -6
v -7 18 6
v -7 18 -6
v 6 15 8
v 6 15 7
v 6 15 -7
v 6 15 -8
v 6 18 8
v 6 18 7
v 6 18 -7
v 6 18 -8
v -6 15 8
v -6 15 7
v -6 15 -7
v -6 15 -8
v -6 18 8
v -6 18 7
v -6 18 -7
v -6 18 -8
v 7 15 6
v 7 15 -6
v 7 18 6
v 7 18 -6
v 8 15 8
v 8 15 6
v 8 15 -6
v 8 15 -8
v 8 18 8
v 8 18 6
v 8 18 -6
v 8 18 -8
v 8 21 8
v 8 21 -8
v 9 12 9
v 9 12 -9
v 9 14 9
v 9 14 -9
v 10 0 10
v 10 0 7
v 10 0 6
v 10 0 -0
v 10 0 -1
v 10 0 -5
v 10 0 -6
v 10 0 -10
v 10 3 10
v 10 3 7
v 10 3 6
v 10 3 -0
v 10 3 -1
v 10 3 -5
v 10 3 -6
v 10 3 -10
v 10 4 9
v 10 4 3
v 10 4 2
v 10 4 -2
v 10 4 -3
v 10 4 -8
v 10 4 -9
v 10 4 -10
v 10 7 9
v 10 7 3
v 10 7 2
v 10 7 -2
v 10 7 -3
v 10 7 -8
v 10 7 -9
v 10 7 -10
v 10 8 10
v 10 8 6
v 10 8 5
v 10 8 1
v 10 8 -0
v 10 8 -5
v 10 8 -6
v 10 8 -10
v 10 11 10
v 10 11 6
v 10 11 5
v 10 11 1
v 10 11 -0
v 10 11 -5
v 10 11 -6
v 10 11 -10
v 10 12 10
v 10 12 -10
v 10 14 10
v 10 14 -10
v 10 15 10
v 10 15 -10
v -10 0 10
v -10 3 10
v -10 8 10
v -10 11 10
v -10 12 10
v -10 14 10
v -10 15 10
v -9 4 10
v -9 7 10
v -9 8 10
v -9 11 10
v -8 0 10
v -8 3 10
v -8 8 10
v -8 11 10
v -7 0 10
v -7 3 10
v -6 4 10
v -6 7 10
v -5 4 10
v -5 7 10
v -4 0 10
v -4 3 10
v -4 8 10
v -4 11 10
v -3 0 10
v -3 3 10
v -3 8 10
v -3 11 10
v -1 4 10
v -1 7 10
v 0 4 10
v 0 7 10
v 1 0 10
v 1 3 10
v 1 8 10
v 1 11 10
v 2 0 10
v 2 3 10
v 2 8 10
v 2 11 10
v 4 4 10
v 4 7 10
v 5 4 10
v 5 7 10
v 6 0 10
v 6 3 10
v 6 8 10
v 6 11 10
v 7 0 10
v 7 3 10
v 7 8 10
v 7 11 10
v 9 4 10
v 9 7 10
v 10 0 10
v 10 3 10
v 10 8 10
v 10 11 10
v 10 12 10
v 10 14 10
v 10 15 10
v -9 12 9
v -9 14 9
v 9 12 9
v 9 14 9
v -8 15 8
v -8 18 8
v -8 21 8
v -6 15 8
v -6 18 8
v 6 15 8
v 6 18 8
v 8 15 8
v 8 18 8
v 8 21 8
v -6 15 7
v -6 18 7
v 6 15 7
v 6 18 7
v -8 15 -6
v -8 18 -6
v -7 15 -6
v -7 18 -6
v 7 15 -6
v 7 18 -6
v 8 15 -6
v 8 18 -6
v -8 15 6
v -8 18 6
v -7 15 6
v -7 18 6
v 7 15 6
v 7 18 6
v 8 15 6
v 8 18 6
v -6 15 -7
v -6 18 -7
v 6 15 -7
v 6 18 -7
v -8 15 -8
v -8 18 -8
v -8 21 -8
v -6 15 -8
v -6 18 -8
v 6 15 -8
v 6 18 -8
v 8 15 -8
v 8 18 -8
v 8 21 -8
v -9 12 -9
v -9 14 -9
v 9 12 -9
v 9 14 -9
v -10 0 -10
v -10 3 -10
v -10 8 -10
v -10 11 -10
v -10 12 -10
v -10 14 -10
v -10 15 -10
v -9 4 -10
v -9 7 -10
v -8 0 -10
v -8 3 -10
v -7 0 -10
v -7 3 -10
v -7 8 -10
v -7 11 -10
v -6 8 -10
v -6 11 -10
v -5 4 -10
v -5 7 -10
v -4 4 -10
v -4 7 -10
v -3 0 -10
v -3 3 -10
v -2 0 -10
v -2 3 -10
v -2 8 -10
v -2 11 -10
v -1 8 -10
v -1 11 -10
v 0 4 -10
v 0 7 -10
v 1 4 -10
v 1 7 -10
v 2 0 -10
v 2 3 -10
v 3 0 -10
v 3 3 -10
v 3 8 -10
v 3 11 -10
v 4 8 -10
v 4 11 -10
v 5 4 -10
v 5 7 -10
v 6 4 -10
v 6 7 -10
v 8 0 -10
v 8 3 -10
v 8 8 -10
v 8 11 -10
v 9 0 -10
v 9 3 -10
v 9 8 -10
v 9 11 -10
v 10 0 -10
v 10 3 -10
v 10 4 -10
v 10 7 -10
v 10 8 -10
v 10 11 -10
v 10 12 -10
v 10 14 -10
v 10 15 -10
v -10 0 10
v -8 0 10
v -7 0 10
v -4 0 10
v -3 0 10
v 1 0 10
v 2 0 10
v 6 0 10
v 7 0 10
v 10 0 10
v -8 0 9
v -7 0 9
v -4 0 9
v -3 0 9
v 1 0 9
v 2 0 9
v 6 0 9
v 7 0 9
v -10 0 8
v -9 0 8
v -10 0 7
v -9 0 7
v 9 0 7
v 10 0 7
v 9 0 6
v 10 0 6
v -10 0 3
v -9 0 3
v -10 0 2
v -9 0 2
v 9 0 -0
v 10 0 -0
v 9 0 -1
v 10 0 -1
v -10 0 -2
v -9 0 -2
v -10 0 -3
v -9 0 -3
v 9 0 -5
v 10 0 -5
v 9 0 -6
v 10 0 -6
v -10 0 -7
v -9 0 -7
v -10 0 -8
v -9 0 -8
v -8 0 -9
v -7 0 -9
v -3 0 -9
v -2 0 -9
v 2 0 -9
v 3 0 -9
v 8 0 -9
v 9 0 -9
v -10 0 -10
v -8 0 -10
v -7 0 -10
v -3 0 -10
v -2 0 -10
v 2 0 -10
v 3 0 -10
v 8 0 -10
v 9 0 -10
v 10 0 -10
v -10 14 10
v 10 14 10
v -9 14 9
v 9 14 9
v -9 14 -9
v 9 14 -9
v -10 14 -10
v 10 14 -10
v -6 18 8
v 6 18 8
v -6 18 7
v 6 18 7
v -8 18 6
v -7 18 6
v 7 18 6
v 8 18 6
v -8 18 -6
v -7 18 -6
v 7 18 -6
v 8 18 -6
v -6 18 -7
v 6 18 -7
v -6 18 -8
v 6 18 -8
v -10 12 10
v 10 12 10
v -9 12 9
v 9 12 9
v -9 12 -9
v 9 12 -9
v -10 12 -10
v 10 12 -10
v -10 15 10
v 10 15 10
v -9 15 9
v 9 15 9
v -8 15 8
v -6 15 8
v 6 15 8
v 8 15 8
v -6 15 7
v 6 15 7
v -8 15 6
v -7 15 6
v 7 15 6
v 8 15 6
v -8 15 -6
v -7 15 -6
v 7 15 -6
v 8 15 -6
v -6 15 -7
v 6 15 -7
v -8 15 -8
v -6 15 -8
v 6 15 -8
v 8 15 -8
v -9 15 -9
v 9 15 -9
v -10 15 -10
v 10 15 -10
v -8 21 8
v 8 21 8
v -8 21 -8
v 8 21 -8

# faces
f 11/2/1 2/2/1 1/2/1
f 12/1/1 3/1/1 2/1/1
f 12/2/1 2/2/1 11/2/1
f 13/2/1 4/2/1 3/2/1
f 13/1/1 3/1/1 12/1/1
f 14/1/1 5/1/1 4/1/1
f 14/2/1 4/2/1 13/2/1
f 15/2/1 6/2/1 5/2/1
f 15/1/1 5/1/1 14/1/1
f 16/1/1 7/1/1 6/1/1
f 16/2/1 6/2/1 15/2/1
f 17/2/1 8/2/1 7/2/1
f 17/1/1 7/1/1 16/1/1
f 18/1/1 9/1/1 8/1/1
f 18/2/1 8/2/1 17/2/1
f 19/2/1 10/2/1 9/2/1
f 19/1/1 9/1/1 18/1/1
f 20/2/1 10/2/1 19/2/1
f 21/1/1 18/1/1 17/1/1
f 21/1/1 12/1/1 11/1/1
f 21/1/1 20/1/1 19/1/1
f 21/1/1 19/1/1 18/1/1
f 21/1/1 17/1/1 16/1/1
f 21/1/1 16/1/1 15/1/1
f 21/1/1 15/1/1 14/1/1
f 21/1/1 14/1/1 13/1/1
f 21/1/1 13/1/1 12/1/1
f 22/1/1 20/1/1 21/1/1
f 23/1/1 20/1/1 22/1/1
f 24/1/1 20/1/1 23/1/1
f 25/1/1 20/1/1 24/1/1
f 26/1/1 20/1/1 25/1/1
f 27/1/1 20/1/1 26/1/1
f 28/1/1 20/1/1 27/1/1
f 29/1/1 21/1/1 11/1/1
f 29/2/1 22/2/1 21/2/1
f 30/1/1 23/1/1 22/1/1
f 30/2/1 22/2/1 29/2/1
f 31/2/1 24/2/1 23/2/1
f 31/1/1 23/1/1 30/1/1
f 32/1/1 25/1/1 24/1/1
f 32/2/1 24/2/1 31/2/1
f 33/2/1 26/2/1 25/2/1
f 33/1/1 25/1/1 32/1/1
f 34/1/1 27/1/1 26/1/1
f 34/2/1 26/2/1 33/2/1
f 35/2/1 28/2/1 27/2/1
f 35/1/1 27/1/1 34/1/1
f 36/1/1 20/1/1 28/1/1
f 36/2/1 28/2/1 35/2/1
f 37/1/1 35/1/1 34/1/1
f 37/1/1 34/1/1 33/1/1
f 37/1/1 36/1/1 35/1/1
f 37/1/1 33/1/1 32/1/1
f 37/1/1 32/1/1 31/1/1
f 37/1/1 31/1/1 30/1/1
f 37/1/1 30/1/1 29/1/1
f 37/1/1 29/1/1 11/1/1
f 38/1/1 36/1/1 37/1/1
f 39/1/1 36/1/1 38/1/1
f 40/1/1 36/1/1 39/1/1
f 41/1/1 36/1/1 40/1/1
f 42/1/1 36/1/1 41/1/1
f 43/1/1 36/1/1 42/1/1
f 44/1/1 36/1/1 43/1/1
f 45/1/1 20/1/1 36/1/1
f 45/1/1 36/1/1 44/1/1
f 46/1/1 20/1/1 45/1/1
f 47/2/1 38/2/1 37/2/1
f 48/1/1 39/1/1 38/1/1
f 48/2/1 38/2/1 47/2/1
f 49/2/1 40/2/1 39/2/1
f 49/1/1 39/1/1 48/1/1
f 50/1/1 41/1/1 40/1/1
f 50/2/1 40/2/1 49/2/1
f 51/2/1 42/2/1 41/2/1
f 51/1/1 41/1/1 50/1/1
f 52/1/1 43/1/1 42/1/1
f 52/2/1 42/2/1 51/2/1
f 53/2/1 44/2/1 43/2/1
f 53/1/1 43/1/1 52/1/1
f 54/1/1 45/1/1 44/1/1
f 54/2/1 44/2/1 53/2/1
f 55/2/1 46/2/1 45/2/1
f 55/1/1 45/1/1 54/1/1
f 56/2/1 46/2/1 55/2/1
f 57/1/1 52/1/1 51/1/1
f 57/1/1 48/1/1 47/1/1
f 57/1/1 56/1/1 55/1/1
f 57/1/1 55/1/1 54/1/1
f 57/1/1 54/1/1 53/1/1
f 57/1/1 53/1/1 52/1/1
f 57/1/1 51/1/1 50/1/1
f 57/1/1 50/1/1 49/1/1
f 57/1/1 49/1/1 48/1/1
f 58/1/1 56/1/1 57/1/1
f 61/1/1 60/1/1 59/1/1
f 62/1/1 60/1/1 61/1/1
f 65/3/1 64/3/1 63/3/1
f 66/3/1 64/3/1 65/3/1
f 71/1/1 68/1/1 67/1/1
f 72/1/1 68/1/1 71/1/1
f 73/1/1 70/1/1 69/1/1
f 74/1/1 70/1/1 73/1/1
f 75/4/1 72/4/1 71/4/1
f 75/4/1 73/4/1 72/4/1
f 75/4/1 74/4/1 73/4/1
f 76/4/1 74/4/1 75/4/1
f 79/2/1 78/2/1 77/2/1
f 80/2/1 78/2/1 79/2/1
f 85/1/1 82/1/1 81/1/1
f 86/1/1 82/1/1 85/1/1
f 87/1/1 84/1/1 83/1/1
f 88/1/1 84/1/1 87/1/1
f 89/1/2 90/1/2 93/1/2
f 93/1/2 90/1/2 94/1/2
f 91/1/2 92/1/2 95/1/2
f 95/1/2 92/1/2 96/1/2
f 97/2/2 98/2/2 99/2/2
f 99/2/2 98/2/2 100/2/2
f 101/1/2 102/1/2 105/1/2
f 105/1/2 102/1/2 106/1/2
f 103/1/2 104/1/2 107/1/2
f 107/1/2 104/1/2 108/1/2
f 105/4/2 106/4/2 109/4/2
f 106/4/2 107/4/2 109/4/2
f 107/4/2 108/4/2 109/4/2
f 109/4/2 108/4/2 110/4/2
f 111/3/2 112/3/2 113/3/2
f 113/3/2 112/3/2 114/3/2
f 115/2/2 116/2/2 123/2/2
f 116/1/2 117/1/2 124/1/2
f 123/2/2 116/2/2 124/2/2
f 117/2/2 118/2/2 125/2/2
f 124/1/2 117/1/2 125/1/2
f 118/1/2 119/1/2 126/1/2
f 125/2/2 118/2/2 126/2/2
f 119/2/2 120/2/2 127/2/2
f 126/1/2 119/1/2 127/1/2
f 120/1/2 121/1/2 128/1/2
f 127/2/2 120/2/2 128/2/2
f 121/2/2 122/2/2 129/2/2
f 128/1/2 121/1/2 129/1/2
f 129/2/2 122/2/2 130/2/2
f 127/1/2 128/1/2 131/1/2
f 123/1/2 124/1/2 131/1/2
f 129/1/2 130/1/2 131/1/2
f 128/1/2 129/1/2 131/1/2
f 126/1/2 127/1/2 131/1/2
f 125/1/2 126/1/2 131/1/2
f 124/1/2 125/1/2 131/1/2
f 131/1/2 130/1/2 132/1/2
f 132/1/2 130/1/2 133/1/2
f 133/1/2 130/1/2 134/1/2
f 134/1/2 130/1/2 135/1/2
f 135/1/2 130/1/2 136/1/2
f 136/1/2 130/1/2 137/1/2
f 137/1/2 130/1/2 138/1/2
f 123/1/2 131/1/2 139/1/2
f 131/2/2 132/2/2 139/2/2
f 132/1/2 133/1/2 140/1/2
f 139/2/2 132/2/2 140/2/2
f 133/2/2 134/2/2 141/2/2
f 140/1/2 133/1/2 141/1/2
f 134/1/2 135/1/2 142/1/2
f 141/2/2 134/2/2 142/2/2
f 135/2/2 136/2/2 143/2/2
f 142/1/2 135/1/2 143/1/2
f 136/1/2 137/1/2 144/1/2
f 143/2/2 136/2/2 144/2/2
f 137/2/2 138/2/2 145/2/2
f 144/1/2 137/1/2 145/1/2
f 145/2/2 138/2/2 146/2/2
f 143/1/2 144/1/2 147/1/2
f 123/1/2 139/1/2 147/1/2
f 145/1/2 146/1/2 147/1/2
f 144/1/2 145/1/2 147/1/2
f 142/1/2 143/1/2 147/1/2
f 141/1/2 142/1/2 147/1/2
f 140/1/2 141/1/2 147/1/2
f 139/1/2 140/1/2 147/1/2
f 147/1/2 146/1/2 148/1/2
f 148/1/2 146/1/2 149/1/2
f 149/1/2 146/1/2 150/1/2
f 150/1/2 146/1/2 151/1/2
f 151/1/2 146/1/2 152/1/2
f 152/1/2 146/1/2 153/1/2
f 153/1/2 146/1/2 154/1/2
f 147/2/2 148/2/2 155/2/2
f 148/1/2 149/1/2 156/1/2
f 155/2/2 148/2/2 156/2/2
f 149/2/2 150/2/2 157/2/2
f 156/1/2 149/1/2 157/1/2
f 150/1/2 151/1/2 158/1/2
f 157/2/2 150/2/2 158/2/2
f 151/2/2 152/2/2 159/2/2
f 158/1/2 151/1/2 159/1/2
f 152/1/2 153/1/2 160/1/2
f 159/2/2 152/2/2 160/2/2
f 153/2/2 154/2/2 161/2/2
f 160/1/2 153/1/2 161/1/2
f 161/2/2 154/2/2 162/2/2
f 155/1/2 156/1/2 163/1/2
f 156/1/2 157/1/2 163/1/2
f 161/1/2 162/1/2 163/1/2
f 160/1/2 161/1/2 163/1/2
f 159/1/2 160/1/2 163/1/2
f 158/1/2 159/1/2 163/1/2
f 157/1/2 158/1/2 163/1/2
f 163/1/2 162/1/2 164/1/2
f 165/1/2 166/1/2 167/1/2
f 167/1/2 166/1/2 168/1/2
f 176/1/3 171/1/3 170/1/3
f 177/1/3 171/1/3 176/1/3
f 178/2/3 172/2/3 171/2/3
f 178/1/3 171/1/3 177/1/3
f 179/1/3 173/1/3 172/1/3
f 179/2/3 172/2/3 178/2/3
f 180/2/3 170/2/3 169/2/3
f 181/1/3 176/1/3 170/1/3
f 181/2/3 170/2/3 180/2/3
f 182/1/3 178/1/3 177/1/3
f 182/1/3 179/1/3 178/1/3
f 183/1/3 173/1/3 179/1/3
f 183/1/3 179/1/3 182/1/3
f 184/1/3 181/1/3 180/1/3
f 185/1/3 176/1/3 181/1/3
f 185/1/3 181/1/3 184/1/3
f 186/2/3 177/2/3 176/2/3
f 186/1/3 176/1/3 185/1/3
f 187/1/3 182/1/3 177/1/3
f 187/2/3 177/2/3 186/2/3
f 188/1/3 186/1/3 185/1/3
f 188/1/3 187/1/3 186/1/3
f 189/1/3 182/1/3 187/1/3
f 189/1/3 187/1/3 188/1/3
f 190/2/3 185/2/3 184/2/3
f 191/1/3 188/1/3 185/1/3
f 191/2/3 185/2/3 190/2/3
f 192/1/3 182/1/3 189/1/3
f 192/2/3 183/2/3 182/2/3
f 193/1/3 173/1/3 183/1/3
f 193/2/3 183/2/3 192/2/3
f 194/1/3 191/1/3 190/1/3
f 195/1/3 188/1/3 191/1/3
f 195/1/3 191/1/3 194/1/3
f 196/1/3 192/1/3 189/1/3
f 196/1/3 193/1/3 192/1/3
f 197/1/3 173/1/3 193/1/3
f 197/1/3 193/1/3 196/1/3
f 198/1/3 188/1/3 195/1/3
f 198/2/3 189/2/3 188/2/3
f 199/1/3 196/1/3 189/1/3
f 199/2/3 189/2/3 198/2/3
f 200/1/3 198/1/3 195/1/3
f 200/1/3 199/1/3 198/1/3
f 201/1/3 196/1/3 199/1/3
f 201/1/3 199/1/3 200/1/3
f 202/2/3 195/2/3 194/2/3
f 203/1/3 200/1/3 195/1/3
f 203/2/3 195/2/3 202/2/3
f 204/2/3 197/2/3 196/2/3
f 204/1/3 196/1/3 201/1/3
f 205/1/3 173/1/3 197/1/3
f 205/2/3 197/2/3 204/2/3
f 206/1/3 203/1/3 202/1/3
f 207/1/3 200/1/3 203/1/3
f 207/1/3 203/1/3 206/1/3
f 208/1/3 204/1/3 201/1/3
f 208/1/3 205/1/3 204/1/3
f 209/1/3 173/1/3 205/1/3
f 209/1/3 205/1/3 208/1/3
f 210/1/3 200/1/3 207/1/3
f 210/2/3 201/2/3 200/2/3
f 211/1/3 208/1/3 201/1/3
f 211/2/3 201/2/3 210/2/3
f 212/1/3 210/1/3 207/1/3
f 212/1/3 211/1/3 210/1/3
f 213/1/3 208/1/3 211/1/3
f 213/1/3 211/1/3 212/1/3
f 214/2/3 207/2/3 206/2/3
f 215/1/3 212/1/3 207/1/3
f 215/2/3 207/2/3 214/2/3
f 216/2/3 209/2/3 208/2/3
f 216/1/3 208/1/3 213/1/3
f 217/1/3 173/1/3 209/1/3
f 217/2/3 209/2/3 216/2/3
f 218/1/3 215/1/3 214/1/3
f 219/1/3 212/1/3 215/1/3
f 219/1/3 215/1/3 218/1/3
f 220/1/3 216/1/3 213/1/3
f 220/1/3 217/1/3 216/1/3
f 221/1/3 173/1/3 217/1/3
f 221/1/3 217/1/3 220/1/3
f 222/1/3 212/1/3 219/1/3
f 222/2/3 213/2/3 212/2/3
f 223/1/3 220/1/3 213/1/3
f 223/2/3 213/2/3 222/2/3
f 224/2/3 219/2/3 218/2/3
f 225/1/3 222/1/3 219/1/3
f 225/2/3 219/2/3 224/2/3
f 225/1/3 223/1/3 222/1/3
f 226/2/3 221/2/3 220/2/3
f 226/1/3 223/1/3 225/1/3
f 226/1/3 220/1/3 223/1/3
f 227/1/3 173/1/3 221/1/3
f 227/2/3 221/2/3 226/2/3
f 228/1/3 173/1/3 227/1/3
f 229/1/3 175/1/3 174/1/3
f 230/1/3 175/1/3 229/1/3
f 233/3/3 232/3/3 231/3/3
f 234/3/3 232/3/3 233/3/3
f 238/1/3 236/1/3 235/1/3
f 239/4/3 237/4/3 236/4/3
f 239/1/3 236/1/3 238/1/3
f 241/4/3 237/4/3 239/4/3
f 242/1/3 241/1/3 240/1/3
f 243/4/3 237/4/3 241/4/3
f 243/1/3 241/1/3 242/1/3
f 244/4/3 237/4/3 243/4/3
f 247/2/3 246/2/3 245/2/3
f 248/2/3 246/2/3 247/2/3
f 251/1/3 250/1/3 249/1/3
f 252/1/3 250/1/3 251/1/3
f 255/1/3 254/1/3 253/1/3
f 256/1/3 254/1/3 255/1/3
f 257/1/4 258/1/4 259/1/4
f 259/1/4 258/1/4 260/1/4
f 261/1/4 262/1/4 263/1/4
f 263/1/4 262/1/4 264/1/4
f 265/2/4 266/2/4 267/2/4
f 267/2/4 266/2/4 268/2/4
f 269/1/4 270/1/4 272/1/4
f 270/4/4 271/4/4 273/4/4
f 272/1/4 270/1/4 273/1/4
f 273/4/4 271/4/4 275/4/4
f 274/1/4 275/1/4 276/1/4
f 275/4/4 271/4/4 277/4/4
f 276/1/4 275/1/4 277/1/4
f 277/4/4 271/4/4 278/4/4
f 279/3/4 280/3/4 281/3/4
f 281/3/4 280/3/4 282/3/4
f 284/1/4 285/1/4 290/1/4
f 290/1/4 285/1/4 291/1/4
f 283/2/4 284/2/4 292/2/4
f 284/1/4 290/1/4 293/1/4
f 292/2/4 284/2/4 293/2/4
f 292/1/4 293/1/4 294/1/4
f 293/1/4 290/1/4 295/1/4
f 294/1/4 293/1/4 295/1/4
f 291/1/4 285/1/4 296/1/4
f 285/2/4 286/2/4 296/2/4
f 286/1/4 287/1/4 297/1/4
f 296/2/4 286/2/4 297/2/4
f 291/1/4 296/1/4 298/1/4
f 296/1/4 297/1/4 298/1/4
f 297/1/4 287/1/4 299/1/4
f 298/1/4 297/1/4 299/1/4
f 295/1/4 290/1/4 300/1/4
f 290/2/4 291/2/4 300/2/4
f 291/1/4 298/1/4 301/1/4
f 300/2/4 291/2/4 301/2/4
f 295/1/4 300/1/4 302/1/4
f 300/1/4 301/1/4 302/1/4
f 301/1/4 298/1/4 303/1/4
f 302/1/4 301/1/4 303/1/4
f 294/2/4 295/2/4 304/2/4
f 295/1/4 302/1/4 305/1/4
f 304/2/4 295/2/4 305/2/4
f 304/1/4 305/1/4 306/1/4
f 305/1/4 302/1/4 307/1/4
f 306/1/4 305/1/4 307/1/4
f 303/1/4 298/1/4 308/1/4
f 298/2/4 299/2/4 308/2/4
f 299/1/4 287/1/4 309/1/4
f 308/2/4 299/2/4 309/2/4
f 303/1/4 308/1/4 310/1/4
f 308/1/4 309/1/4 310/1/4
f 309/1/4 287/1/4 311/1/4
f 310/1/4 309/1/4 311/1/4
f 307/1/4 302/1/4 312/1/4
f 302/2/4 303/2/4 312/2/4
f 303/1/4 310/1/4 313/1/4
f 312/2/4 303/2/4 313/2/4
f 307/1/4 312/1/4 314/1/4
f 312/1/4 313/1/4 314/1/4
f 313/1/4 310/1/4 315/1/4
f 314/1/4 313/1/4 315/1/4
f 306/2/4 307/2/4 316/2/4
f 307/1/4 314/1/4 317/1/4
f 316/2/4 307/2/4 317/2/4
f 316/1/4 317/1/4 318/1/4
f 317/1/4 314/1/4 319/1/4
f 318/1/4 317/1/4 319/1/4
f 315/1/4 310/1/4 320/1/4
f 310/2/4 311/2/4 320/2/4
f 311/1/4 287/1/4 321/1/4
f 320/2/4 311/2/4 321/2/4
f 315/1/4 320/1/4 322/1/4
f 320/1/4 321/1/4 322/1/4
f 321/1/4 287/1/4 323/1/4
f 322/1/4 321/1/4 323/1/4
f 319/1/4 314/1/4 324/1/4
f 314/2/4 315/2/4 324/2/4
f 315/1/4 322/1/4 325/1/4
f 324/2/4 315/2/4 325/2/4
f 319/1/4 324/1/4 326/1/4
f 324/1/4 325/1/4 326/1/4
f 325/1/4 322/1/4 327/1/4
f 326/1/4 325/1/4 327/1/4
f 318/2/4 319/2/4 328/2/4
f 319/1/4 326/1/4 329/1/4
f 328/2/4 319/2/4 329/2/4
f 327/1/4 322/1/4 330/1/4
f 322/2/4 323/2/4 330/2/4
f 323/1/4 287/1/4 331/1/4
f 330/2/4 323/2/4 331/2/4
f 328/1/4 329/1/4 332/1/4
f 329/1/4 326/1/4 333/1/4
f 332/1/4 329/1/4 333/1/4
f 327/1/4 330/1/4 334/1/4
f 330/1/4 331/1/4 334/1/4
f 331/1/4 287/1/4 335/1/4
f 334/1/4 331/1/4 335/1/4
f 332/2/4 333/2/4 336/2/4
f 333/1/4 326/1/4 337/1/4
f 336/2/4 333/2/4 337/2/4
f 326/2/4 327/2/4 338/2/4
f 337/1/4 326/1/4 338/1/4
f 327/1/4 334/1/4 339/1/4
f 338/2/4 327/2/4 339/2/4
f 334/2/4 335/2/4 340/2/4
f 339/1/4 334/1/4 340/1/4
f 335/1/4 287/1/4 341/1/4
f 340/2/4 335/2/4 341/2/4
f 341/1/4 287/1/4 342/1/4
f 288/1/4 289/1/4 343/1/4
f 343/1/4 289/1/4 344/1/4
f 355/2/5 346/2/5 345/2/5
f 355/1/5 347/1/5 346/1/5
f 356/2/5 348/2/5 347/2/5
f 356/1/5 347/1/5 355/1/5
f 357/1/5 349/1/5 348/1/5
f 357/2/5 348/2/5 356/2/5
f 358/2/5 350/2/5 349/2/5
f 358/1/5 349/1/5 357/1/5
f 359/1/5 351/1/5 350/1/5
f 359/2/5 350/2/5 358/2/5
f 360/2/5 352/2/5 351/2/5
f 360/1/5 351/1/5 359/1/5
f 361/1/5 353/1/5 352/1/5
f 361/2/5 352/2/5 360/2/5
f 362/2/5 354/2/5 353/2/5
f 362/1/5 353/1/5 361/1/5
f 363/2/5 361/2/5 360/2/5
f 363/2/5 360/2/5 359/2/5
f 363/2/5 362/2/5 361/2/5
f 363/2/5 359/2/5 358/2/5
f 363/2/5 358/2/5 357/2/5
f 363/2/5 357/2/5 356/2/5
f 363/2/5 356/2/5 355/2/5
f 363/2/5 355/2/5 345/2/5
f 364/2/5 362/2/5 363/2/5
f 365/1/5 364/1/5 363/1/5
f 366/2/5 362/2/5 364/2/5
f 366/1/5 364/1/5 365/1/5
f 367/2/5 354/2/5 362/2/5
f 367/2/5 362/2/5 366/2/5
f 368/2/5 354/2/5 367/2/5
f 369/2/5 366/2/5 365/2/5
f 369/2/5 367/2/5 366/2/5
f 369/1/5 368/1/5 367/1/5
f 370/1/5 368/1/5 369/1/5
f 371/2/5 369/2/5 365/2/5
f 371/2/5 370/2/5 369/2/5
f 372/2/5 370/2/5 371/2/5
f 373/1/5 372/1/5 371/1/5
f 374/2/5 370/2/5 372/2/5
f 374/1/5 372/1/5 373/1/5
f 375/2/5 374/2/5 373/2/5
f 375/2/5 370/2/5 374/2/5
f 376/2/5 370/2/5 375/2/5
f 377/2/5 375/2/5 373/2/5
f 377/1/5 376/1/5 375/1/5
f 378/1/5 376/1/5 377/1/5
f 379/2/5 377/2/5 373/2/5
f 379/2/5 378/2/5 377/2/5
f 380/2/5 378/2/5 379/2/5
f 381/1/5 380/1/5 379/1/5
f 382/2/5 378/2/5 380/2/5
f 382/1/5 380/1/5 381/1/5
f 383/2/5 382/2/5 381/2/5
f 383/2/5 378/2/5 382/2/5
f 384/2/5 378/2/5 383/2/5
f 385/2/5 383/2/5 381/2/5
f 385/1/5 384/1/5 383/1/5
f 386/1/5 384/1/5 385/1/5
f 387/2/5 385/2/5 381/2/5
f 387/2/5 386/2/5 385/2/5
f 388/2/5 386/2/5 387/2/5
f 389/1/5 388/1/5 387/1/5
f 390/2/5 386/2/5 388/2/5
f 390/1/5 388/1/5 389/1/5
f 391/2/5 390/2/5 389/2/5
f 391/2/5 386/2/5 390/2/5
f 392/2/5 386/2/5 391/2/5
f 393/2/5 386/2/5 392/2/5
f 394/2/5 386/2/5 393/2/5
f 395/2/5 386/2/5 394/2/5
f 396/2/5 386/2/5 395/2/5
f 397/2/5 386/2/5 396/2/5
f 398/2/5 386/2/5 397/2/5
f 399/2/5 391/2/5 389/2/5
f 400/1/5 392/1/5 391/1/5
f 400/2/5 391/2/5 399/2/5
f 401/2/5 393/2/5 392/2/5
f 401/1/5 392/1/5 400/1/5
f 402/1/5 394/1/5 393/1/5
f 402/2/5 393/2/5 401/2/5
f 403/2/5 395/2/5 394/2/5
f 403/1/5 394/1/5 402/1/5
f 404/1/5 396/1/5 395/1/5
f 404/2/5 395/2/5 403/2/5
f 405/2/5 397/2/5 396/2/5
f 405/1/5 396/1/5 404/1/5
f 406/1/5 398/1/5 397/1/5
f 406/2/5 397/2/5 405/2/5
f 407/2/5 386/2/5 398/2/5
f 407/1/5 398/1/5 406/1/5
f 408/2/5 386/2/5 407/2/5
f 411/1/5 410/1/5 409/1/5
f 412/1/5 410/1/5 411/1/5
f 413/1/5 411/1/5 409/1/5
f 414/1/5 410/1/5 412/1/5
f 415/1/5 413/1/5 409/1/5
f 415/1/5 414/1/5 413/1/5
f 416/1/5 410/1/5 414/1/5
f 416/1/5 414/1/5 415/1/5
f 419/4/5 418/4/5 417/4/5
f 420/4/5 418/4/5 419/4/5
f 425/4/5 422/4/5 421/4/5
f 426/4/5 422/4/5 425/4/5
f 427/4/5 424/4/5 423/4/5
f 428/4/5 424/4/5 427/4/5
f 431/4/5 430/4/5 429/4/5
f 432/4/5 430/4/5 431/4/5
f 433/1/6 434/1/6 435/1/6
f 435/1/6 434/1/6 436/1/6
f 433/1/6 435/1/6 437/1/6
f 436/1/6 434/1/6 438/1/6
f 433/1/6 437/1/6 439/1/6
f 437/1/6 438/1/6 439/1/6
f 438/1/6 434/1/6 440/1/6
f 439/1/6 438/1/6 440/1/6
f 441/1/6 442/1/6 443/1/6
f 443/1/6 442/1/6 444/1/6
f 443/3/6 444/3/6 445/3/6
f 445/3/6 444/3/6 446/3/6
f 446/3/6 444/3/6 447/3/6
f 447/3/6 444/3/6 448/3/6
f 446/3/6 447/3/6 449/3/6
f 449/3/6 447/3/6 450/3/6
f 443/3/6 445/3/6 451/3/6
f 448/3/6 444/3/6 454/3/6
f 451/3/6 452/3/6 455/3/6
f 443/3/6 451/3/6 455/3/6
f 455/3/6 452/3/6 456/3/6
f 453/3/6 454/3/6 457/3/6
f 454/3/6 444/3/6 458/3/6
f 457/3/6 454/3/6 458/3/6
f 443/3/6 455/3/6 461/3/6
f 459/3/6 460/3/6 462/3/6
f 462/3/6 460/3/6 463/3/6
f 458/3/6 444/3/6 464/3/6
f 441/1/6 443/1/6 465/1/6
f 463/3/6 464/3/6 465/3/6
f 462/3/6 463/3/6 465/3/6
f 443/3/6 461/3/6 465/3/6
f 461/3/6 462/3/6 465/3/6
f 464/3/6 444/3/6 466/3/6
f 465/3/6 464/3/6 466/3/6
f 444/1/6 442/1/6 466/1/6
f 441/1/6 465/1/6 467/1/6
f 465/1/6 466/1/6 467/1/6
f 466/1/6 442/1/6 468/1/6
f 467/1/6 466/1/6 468/1/6
f 469/4/6 470/4/6 471/4/6
f 471/4/6 470/4/6 472/4/6
