# MagicaVoxel @ Ephtracy

# group
g nature:tree-yello

# material
mtllib default-material.mtl
usemtl palette

# normals
vn -1 0 0
vn 1 0 0
vn 0 0 1
vn 0 0 -1
vn 0 -1 0
vn 0 1 0

# texcoords
vt 0.341797 0.5
vt 0.501953 0.5
vt 0.583984 0.5
vt 0.955078 0.5

# verts
v -25 55 10
v -25 55 -5
v -25 70 10
v -25 70 -5
v -24 71 24
v -24 71 9
v -24 86 24
v -24 86 9
v -22 39 8
v -22 39 -7
v -22 50 23
v -22 50 8
v -22 50 -7
v -22 50 -22
v -22 55 10
v -22 55 -5
v -22 65 23
v -22 65 10
v -22 65 -6
v -22 65 -22
v -22 70 9
v -22 70 -5
v -22 71 9
v -22 71 -6
v -22 71 -17
v -22 80 9
v -22 80 -2
v -22 86 -2
v -22 86 -17
v -10 44 -22
v -10 44 -25
v -10 50 -22
v -10 59 -22
v -10 59 -25
v -7 0 8
v -7 0 -7
v -7 39 23
v -7 39 8
v -7 39 -7
v -7 39 -22
v -7 44 -22
v -7 50 23
v -7 50 8
v -7 50 -7
v -7 50 -22
v -7 65 23
v -7 65 9
v -7 65 -6
v -7 65 -22
v -7 71 -6
v -7 71 -17
v -7 80 23
v -7 80 9
v -7 80 -2
v -7 80 -17
v -7 80 -22
v -7 86 -2
v -7 86 -6
v -7 91 9
v -7 91 -6
v -6 50 25
v -6 50 23
v -6 65 25
v -6 65 23
v 3 80 -7
v 3 80 -22
v 3 85 -7
v 3 85 -22
v 4 66 -22
v 4 66 -25
v 4 81 -22
v 4 81 -25
v 5 80 23
v 5 80 9
v 5 86 23
v 5 86 9
v 6 65 25
v 6 65 23
v 6 80 25
v 6 80 23
v 23 46 24
v 23 46 9
v 23 50 23
v 23 50 9
v 23 51 -22
v 23 51 -25
v 23 61 24
v 23 61 23
v 23 65 -7
v 23 65 -8
v 23 65 -12
v 23 65 -22
v 23 66 -12
v 23 66 -25
v 23 71 -7
v 23 71 -8
v -22 65 10
v -22 65 9
v -22 70 10
v -22 70 9
v -9 71 24
v -9 71 9
v -9 80 9
v -9 86 24
v -9 86 9
v -7 80 -6
v -7 80 -17
v -7 86 -6
v -7 86 -17
v 5 44 -22
v 5 44 -25
v 5 59 -22
v 5 59 -25
v 8 0 8
v 8 0 -7
v 8 39 23
v 8 39 8
v 8 39 -7
v 8 39 -22
v 8 50 23
v 8 50 8
v 8 50 -7
v 8 50 -22
v 8 65 12
v 8 65 8
v 8 65 -7
v 8 65 -22
v 8 66 -22
v 8 70 -7
v 8 70 -22
v 8 71 12
v 8 71 8
v 8 80 8
v 8 80 -6
v 8 86 9
v 8 86 8
v 8 91 9
v 8 91 -6
v 9 50 25
v 9 50 23
v 9 65 25
v 9 65 23
v 18 70 -7
v 18 70 -22
v 18 80 -7
v 18 81 -22
v 18 85 -7
v 18 85 -22
v 19 66 -22
v 19 66 -25
v 19 81 -22
v 19 81 -25
v 20 71 12
v 20 71 8
v 20 80 23
v 20 80 12
v 20 80 8
v 20 86 23
v 20 86 8
v 21 65 25
v 21 65 23
v 21 65 12
v 21 80 25
v 21 80 12
v 23 39 8
v 23 39 -7
v 23 50 9
v 23 50 8
v 23 50 -7
v 23 50 -22
v 23 51 -12
v 23 51 -22
v 23 56 7
v 23 56 -8
v 23 61 23
v 23 61 9
v 23 65 23
v 23 65 8
v 23 65 -8
v 23 65 -12
v 23 71 7
v 23 71 -7
v 23 80 8
v 23 80 -7
v 25 46 24
v 25 46 9
v 25 51 -12
v 25 51 -25
v 25 56 7
v 25 56 -8
v 25 61 24
v 25 61 9
v 25 66 -12
v 25 66 -25
v 25 71 7
v 25 71 -8
v -6 50 25
v -6 65 25
v 6 65 25
v 6 80 25
v 9 50 25
v 9 65 25
v 21 65 25
v 21 80 25
v -24 71 24
v -24 86 24
v -9 71 24
v -9 86 24
v 23 46 24
v 23 61 24
v 25 46 24
v 25 61 24
v -22 50 23
v -22 65 23
v -7 39 23
v -7 50 23
v -7 65 23
v -7 80 23
v -6 50 23
v -6 65 23
v 5 80 23
v 5 86 23
v 6 65 23
v 6 80 23
v 8 39 23
v 8 50 23
v 9 50 23
v 9 65 23
v 20 80 23
v 20 86 23
v 21 65 23
v 23 50 23
v 23 61 23
v 23 65 23
v -25 55 10
v -25 70 10
v -22 55 10
v -22 65 10
v -22 70 10
v -22 65 9
v -22 70 9
v -22 71 9
v -9 71 9
v -9 80 9
v -7 65 9
v -7 80 9
v -7 91 9
v 5 80 9
v 5 86 9
v 8 86 9
v 8 91 9
v -22 39 8
v -22 50 8
v -7 0 8
v -7 39 8
v -7 50 8
v 8 0 8
v 8 39 8
v 8 50 8
v 8 65 8
v 8 71 8
v 20 71 8
v 20 80 8
v 23 39 8
v 23 50 8
v 23 65 8
v 23 80 8
v 23 56 7
v 23 71 7
v 25 56 7
v 25 71 7
v -22 80 -2
v -22 86 -2
v -7 80 -2
v -7 86 -2
v 3 80 -7
v 3 85 -7
v 18 80 -7
v 18 85 -7
v 23 51 -12
v 23 65 -12
v 23 66 -12
v 25 51 -12
v 25 66 -12
v -10 44 -22
v -10 50 -22
v -7 44 -22
v -7 50 -22
v 8 66 -22
v 8 70 -22
v 18 70 -22
v 18 81 -22
v 19 66 -22
v 19 81 -22
v 8 65 12
v 8 71 12
v 20 71 12
v 20 80 12
v 21 65 12
v 21 80 12
v -24 71 9
v -24 86 9
v -22 71 9
v -22 80 9
v -9 80 9
v -9 86 9
v 23 46 9
v 23 50 9
v 23 61 9
v 25 46 9
v 25 61 9
v 8 80 8
v 8 86 8
v 20 80 8
v 20 86 8
v -25 55 -5
v -25 70 -5
v -22 55 -5
v -22 70 -5
v -22 65 -6
v -22 71 -6
v -7 65 -6
v -7 71 -6
v -7 80 -6
v -7 86 -6
v -7 91 -6
v 8 80 -6
v 8 91 -6
v -22 39 -7
v -22 50 -7
v -7 0 -7
v -7 39 -7
v -7 50 -7
v 8 0 -7
v 8 39 -7
v 8 50 -7
v 8 65 -7
v 8 70 -7
v 18 70 -7
v 18 80 -7
v 23 39 -7
v 23 50 -7
v 23 65 -7
v 23 71 -7
v 23 80 -7
v 23 56 -8
v 23 65 -8
v 23 71 -8
v 25 56 -8
v 25 71 -8
v -22 71 -17
v -22 86 -17
v -7 71 -17
v -7 80 -17
v -7 86 -17
v -22 50 -22
v -22 65 -22
v -10 50 -22
v -10 59 -22
v -7 39 -22
v -7 44 -22
v -7 65 -22
v -7 80 -22
v 3 80 -22
v 3 85 -22
v 4 66 -22
v 4 81 -22
v 5 44 -22
v 5 59 -22
v 8 39 -22
v 8 50 -22
v 8 65 -22
v 8 66 -22
v 18 81 -22
v 18 85 -22
v 23 50 -22
v 23 51 -22
v 23 65 -22
v -10 44 -25
v -10 59 -25
v 4 66 -25
v 4 81 -25
v 5 44 -25
v 5 59 -25
v 19 66 -25
v 19 81 -25
v 23 51 -25
v 23 66 -25
v 25 51 -25
v 25 66 -25
v -7 0 8
v 8 0 8
v -7 0 -7
v 8 0 -7
v -7 39 23
v 8 39 23
v -22 39 8
v -7 39 8
v 8 39 8
v 23 39 8
v -22 39 -7
v -7 39 -7
v 8 39 -7
v 23 39 -7
v -7 39 -22
v 8 39 -22
v -10 44 -22
v -7 44 -22
v 5 44 -22
v -10 44 -25
v 5 44 -25
v 23 46 24
v 25 46 24
v 23 46 9
v 25 46 9
v -6 50 25
v 9 50 25
v -22 50 23
v -7 50 23
v -6 50 23
v 8 50 23
v 9 50 23
v 23 50 23
v 23 50 9
v -22 50 8
v -7 50 8
v 8 50 8
v 23 50 8
v -22 50 -7
v -7 50 -7
v 8 50 -7
v 23 50 -7
v -22 50 -22
v -10 50 -22
v -7 50 -22
v 8 50 -22
v 23 50 -22
v 23 51 -12
v 25 51 -12
v 23 51 -22
v 23 51 -25
v 25 51 -25
v -25 55 10
v -22 55 10
v -25 55 -5
v -22 55 -5
v 23 56 7
v 25 56 7
v 23 56 -8
v 25 56 -8
v 9 65 25
v 21 65 25
v 9 65 23
v 21 65 23
v 4 66 -22
v 8 66 -22
v 19 66 -22
v 4 66 -25
v 19 66 -25
v 8 70 -7
v 18 70 -7
v 8 70 -22
v 18 70 -22
v -24 71 24
v -9 71 24
v 8 71 12
v 20 71 12
v -24 71 9
v -22 71 9
v -9 71 9
v 8 71 8
v 20 71 8
v -22 71 -6
v -7 71 -6
v -22 71 -17
v -7 71 -17
v -10 59 -22
v 5 59 -22
v -10 59 -25
v 5 59 -25
v 23 61 24
v 25 61 24
v 23 61 23
v 23 61 9
v 25 61 9
v -6 65 25
v 6 65 25
v -22 65 23
v -7 65 23
v -6 65 23
v 6 65 23
v 21 65 23
v 23 65 23
v 8 65 12
v 21 65 12
v -22 65 10
v -22 65 9
v -7 65 9
v 8 65 8
v 23 65 8
v -22 65 -6
v -7 65 -6
v 8 65 -7
v 23 65 -7
v 23 65 -8
v 23 65 -12
v -22 65 -22
v -7 65 -22
v 8 65 -22
v 23 65 -22
v 23 66 -12
v 25 66 -12
v 23 66 -25
v 25 66 -25
v -25 70 10
v -22 70 10
v -22 70 9
v -25 70 -5
v -22 70 -5
v 23 71 7
v 25 71 7
v 23 71 -7
v 23 71 -8
v 25 71 -8
v 6 80 25
v 21 80 25
v -7 80 23
v 5 80 23
v 6 80 23
v 20 80 23
v 20 80 12
v 21 80 12
v -22 80 9
v -9 80 9
v -7 80 9
v 5 80 9
v 8 80 8
v 20 80 8
v 23 80 8
v -22 80 -2
v -7 80 -2
v -7 80 -6
v 8 80 -6
v 3 80 -7
v 18 80 -7
v 23 80 -7
v -7 80 -17
v -7 80 -22
v 3 80 -22
v 4 81 -22
v 18 81 -22
v 19 81 -22
v 4 81 -25
v 19 81 -25
v 3 85 -7
v 18 85 -7
v 3 85 -22
v 18 85 -22
v -24 86 24
v -9 86 24
v 5 86 23
v 20 86 23
v -24 86 9
v -9 86 9
v 5 86 9
v 8 86 9
v 8 86 8
v 20 86 8
v -22 86 -2
v -7 86 -2
v -7 86 -6
v -22 86 -17
v -7 86 -17
v -7 91 9
v 8 91 9
v -7 91 -6
v 8 91 -6

# faces
f 3/2/1 2/2/1 1/2/1
f 4/2/1 2/2/1 3/2/1
f 7/2/1 6/2/1 5/2/1
f 8/2/1 6/2/1 7/2/1
f 12/2/1 10/2/1 9/2/1
f 13/2/1 10/2/1 12/2/1
f 15/2/1 12/2/1 11/2/1
f 15/2/1 14/2/1 13/2/1
f 15/2/1 13/2/1 12/2/1
f 16/2/1 14/2/1 15/2/1
f 17/2/1 15/2/1 11/2/1
f 18/2/1 15/2/1 17/2/1
f 19/2/1 14/2/1 16/2/1
f 20/2/1 14/2/1 19/2/1
f 22/2/1 19/2/1 16/2/1
f 23/2/1 22/2/1 21/2/1
f 24/2/1 19/2/1 22/2/1
f 24/2/1 22/2/1 23/2/1
f 26/2/1 24/2/1 23/2/1
f 26/2/1 25/2/1 24/2/1
f 27/2/1 25/2/1 26/2/1
f 28/2/1 25/2/1 27/2/1
f 29/2/1 25/2/1 28/2/1
f 32/2/1 31/2/1 30/2/1
f 33/2/1 31/2/1 32/2/1
f 34/2/1 31/2/1 33/2/1
f 38/4/1 36/4/1 35/4/1
f 39/4/1 36/4/1 38/4/1
f 41/2/1 40/2/1 39/2/1
f 42/2/1 38/2/1 37/2/1
f 43/2/1 38/2/1 42/2/1
f 44/2/1 41/2/1 39/2/1
f 45/2/1 41/2/1 44/2/1
f 50/2/1 49/2/1 48/2/1
f 51/2/1 49/2/1 50/2/1
f 52/2/1 47/2/1 46/2/1
f 53/2/1 47/2/1 52/2/1
f 55/2/1 49/2/1 51/2/1
f 56/2/1 49/2/1 55/2/1
f 57/2/1 54/2/1 53/2/1
f 59/2/1 57/2/1 53/2/1
f 59/2/1 58/2/1 57/2/1
f 60/2/1 58/2/1 59/2/1
f 63/2/1 62/2/1 61/2/1
f 64/2/1 62/2/1 63/2/1
f 67/2/1 66/2/1 65/2/1
f 68/2/1 66/2/1 67/2/1
f 71/2/1 70/2/1 69/2/1
f 72/2/1 70/2/1 71/2/1
f 75/2/1 74/2/1 73/2/1
f 76/2/1 74/2/1 75/2/1
f 79/2/1 78/2/1 77/2/1
f 80/2/1 78/2/1 79/2/1
f 83/2/1 82/2/1 81/2/1
f 84/2/1 82/2/1 83/2/1
f 87/2/1 83/2/1 81/2/1
f 88/2/1 83/2/1 87/2/1
f 92/2/1 86/2/1 85/2/1
f 93/2/1 92/2/1 91/2/1
f 94/2/1 86/2/1 92/2/1
f 94/2/1 92/2/1 93/2/1
f 95/2/1 90/2/1 89/2/1
f 96/2/1 90/2/1 95/2/1
f 97/2/2 98/2/2 99/2/2
f 99/2/2 98/2/2 100/2/2
f 101/2/2 102/2/2 103/2/2
f 101/2/2 103/2/2 104/2/2
f 104/2/2 103/2/2 105/2/2
f 106/2/2 107/2/2 108/2/2
f 108/2/2 107/2/2 109/2/2
f 110/2/2 111/2/2 112/2/2
f 112/2/2 111/2/2 113/2/2
f 114/4/2 115/4/2 117/4/2
f 117/4/2 115/4/2 118/4/2
f 116/2/2 117/2/2 120/2/2
f 120/2/2 117/2/2 121/2/2
f 118/2/2 119/2/2 122/2/2
f 122/2/2 119/2/2 123/2/2
f 126/2/2 127/2/2 128/2/2
f 126/2/2 128/2/2 129/2/2
f 129/2/2 128/2/2 130/2/2
f 124/2/2 125/2/2 131/2/2
f 131/2/2 125/2/2 132/2/2
f 133/2/2 134/2/2 136/2/2
f 135/2/2 136/2/2 137/2/2
f 136/2/2 134/2/2 138/2/2
f 137/2/2 136/2/2 138/2/2
f 139/2/2 140/2/2 141/2/2
f 141/2/2 140/2/2 142/2/2
f 143/2/2 144/2/2 145/2/2
f 145/2/2 144/2/2 146/2/2
f 145/2/2 146/2/2 147/2/2
f 147/2/2 146/2/2 148/2/2
f 149/2/2 150/2/2 151/2/2
f 151/2/2 150/2/2 152/2/2
f 153/2/2 154/2/2 156/2/2
f 156/2/2 154/2/2 157/2/2
f 155/2/2 156/2/2 158/2/2
f 156/2/2 157/2/2 158/2/2
f 158/2/2 157/2/2 159/2/2
f 160/2/2 161/2/2 163/2/2
f 161/2/2 162/2/2 163/2/2
f 163/2/2 162/2/2 164/2/2
f 165/2/2 166/2/2 168/2/2
f 168/2/2 166/2/2 169/2/2
f 167/2/2 168/2/2 171/2/2
f 169/2/2 170/2/2 171/2/2
f 168/2/2 169/2/2 171/2/2
f 171/2/2 170/2/2 172/2/2
f 167/2/2 171/2/2 173/2/2
f 173/2/2 171/2/2 174/2/2
f 167/2/2 173/2/2 176/2/2
f 175/2/2 176/2/2 177/2/2
f 176/2/2 173/2/2 178/2/2
f 177/2/2 176/2/2 178/2/2
f 174/2/2 171/2/2 179/2/2
f 179/2/2 171/2/2 180/2/2
f 178/2/2 173/2/2 181/2/2
f 178/2/2 181/2/2 183/2/2
f 181/2/2 182/2/2 183/2/2
f 183/2/2 182/2/2 184/2/2
f 185/2/2 186/2/2 191/2/2
f 191/2/2 186/2/2 192/2/2
f 187/2/2 188/2/2 193/2/2
f 193/2/2 188/2/2 194/2/2
f 189/2/2 190/2/2 195/2/2
f 195/2/2 190/2/2 196/2/2
f 199/2/3 198/2/3 197/2/3
f 201/2/3 199/2/3 197/2/3
f 201/2/3 200/2/3 199/2/3
f 202/2/3 200/2/3 201/2/3
f 203/2/3 200/2/3 202/2/3
f 204/2/3 200/2/3 203/2/3
f 207/2/3 206/2/3 205/2/3
f 208/2/3 206/2/3 207/2/3
f 211/2/3 210/2/3 209/2/3
f 212/2/3 210/2/3 211/2/3
f 216/2/3 214/2/3 213/2/3
f 217/2/3 214/2/3 216/2/3
f 219/2/3 216/2/3 215/2/3
f 219/2/3 218/2/3 217/2/3
f 219/2/3 217/2/3 216/2/3
f 220/2/3 218/2/3 219/2/3
f 221/2/3 218/2/3 220/2/3
f 223/2/3 221/2/3 220/2/3
f 223/2/3 222/2/3 221/2/3
f 224/2/3 222/2/3 223/2/3
f 225/2/3 219/2/3 215/2/3
f 226/2/3 219/2/3 225/2/3
f 229/2/3 222/2/3 224/2/3
f 230/2/3 222/2/3 229/2/3
f 231/2/3 228/2/3 227/2/3
f 232/2/3 231/2/3 227/2/3
f 233/2/3 231/2/3 232/2/3
f 234/2/3 231/2/3 233/2/3
f 237/2/3 236/2/3 235/2/3
f 238/2/3 236/2/3 237/2/3
f 239/2/3 236/2/3 238/2/3
f 243/2/3 241/2/3 240/2/3
f 243/2/3 242/2/3 241/2/3
f 245/2/3 243/2/3 240/2/3
f 245/2/3 244/2/3 243/2/3
f 246/2/3 244/2/3 245/2/3
f 248/2/3 247/2/3 246/2/3
f 249/2/3 247/2/3 248/2/3
f 250/2/3 247/2/3 249/2/3
f 251/2/3 247/2/3 250/2/3
f 255/2/3 253/2/3 252/2/3
f 256/2/3 253/2/3 255/2/3
f 257/4/3 255/4/3 254/4/3
f 258/4/3 255/4/3 257/4/3
f 262/2/3 261/2/3 260/2/3
f 264/2/3 259/2/3 258/2/3
f 265/2/3 259/2/3 264/2/3
f 266/2/3 263/2/3 262/2/3
f 266/2/3 262/2/3 260/2/3
f 267/2/3 263/2/3 266/2/3
f 270/2/3 269/2/3 268/2/3
f 271/2/3 269/2/3 270/2/3
f 274/2/3 273/2/3 272/2/3
f 275/2/3 273/2/3 274/2/3
f 278/2/3 277/2/3 276/2/3
f 279/2/3 277/2/3 278/2/3
f 283/2/3 281/2/3 280/2/3
f 283/2/3 282/2/3 281/2/3
f 284/2/3 282/2/3 283/2/3
f 287/2/3 286/2/3 285/2/3
f 288/2/3 286/2/3 287/2/3
f 291/2/3 290/2/3 289/2/3
f 293/2/3 291/2/3 289/2/3
f 293/2/3 292/2/3 291/2/3
f 294/2/3 292/2/3 293/2/3
f 295/2/4 296/2/4 297/2/4
f 295/2/4 297/2/4 299/2/4
f 297/2/4 298/2/4 299/2/4
f 299/2/4 298/2/4 300/2/4
f 301/2/4 302/2/4 303/2/4
f 303/2/4 302/2/4 304/2/4
f 304/2/4 302/2/4 305/2/4
f 305/2/4 302/2/4 306/2/4
f 307/2/4 308/2/4 310/2/4
f 308/2/4 309/2/4 310/2/4
f 310/2/4 309/2/4 311/2/4
f 312/2/4 313/2/4 314/2/4
f 314/2/4 313/2/4 315/2/4
f 316/2/4 317/2/4 318/2/4
f 318/2/4 317/2/4 319/2/4
f 320/2/4 321/2/4 322/2/4
f 322/2/4 321/2/4 323/2/4
f 325/2/4 326/2/4 327/2/4
f 324/2/4 325/2/4 327/2/4
f 327/2/4 326/2/4 328/2/4
f 329/2/4 330/2/4 332/2/4
f 332/2/4 330/2/4 333/2/4
f 331/4/4 332/4/4 334/4/4
f 334/4/4 332/4/4 335/4/4
f 337/2/4 338/2/4 339/2/4
f 335/2/4 336/2/4 341/2/4
f 341/2/4 336/2/4 342/2/4
f 339/2/4 340/2/4 343/2/4
f 337/2/4 339/2/4 343/2/4
f 343/2/4 340/2/4 344/2/4
f 344/2/4 340/2/4 345/2/4
f 346/2/4 347/2/4 349/2/4
f 347/2/4 348/2/4 349/2/4
f 349/2/4 348/2/4 350/2/4
f 351/2/4 352/2/4 353/2/4
f 353/2/4 352/2/4 354/2/4
f 354/2/4 352/2/4 355/2/4
f 356/2/4 357/2/4 358/2/4
f 358/2/4 357/2/4 359/2/4
f 359/2/4 357/2/4 362/2/4
f 362/2/4 363/2/4 364/2/4
f 362/2/4 364/2/4 366/2/4
f 364/2/4 365/2/4 366/2/4
f 366/2/4 365/2/4 367/2/4
f 360/2/4 361/2/4 368/2/4
f 359/2/4 362/2/4 369/2/4
f 362/2/4 366/2/4 369/2/4
f 360/2/4 368/2/4 370/2/4
f 368/2/4 369/2/4 370/2/4
f 370/2/4 369/2/4 371/2/4
f 369/2/4 366/2/4 372/2/4
f 371/2/4 369/2/4 372/2/4
f 372/2/4 366/2/4 373/2/4
f 367/2/4 365/2/4 374/2/4
f 374/2/4 365/2/4 375/2/4
f 371/2/4 372/2/4 376/2/4
f 376/2/4 372/2/4 377/2/4
f 377/2/4 372/2/4 378/2/4
f 379/2/4 380/2/4 383/2/4
f 383/2/4 380/2/4 384/2/4
f 381/2/4 382/2/4 385/2/4
f 385/2/4 382/2/4 386/2/4
f 387/2/4 388/2/4 389/2/4
f 389/2/4 388/2/4 390/2/4
f 393/4/5 392/4/5 391/4/5
f 394/4/5 392/4/5 393/4/5
f 398/2/5 396/2/5 395/2/5
f 399/2/5 396/2/5 398/2/5
f 401/2/5 398/2/5 397/2/5
f 402/2/5 398/2/5 401/2/5
f 403/2/5 400/2/5 399/2/5
f 404/2/5 400/2/5 403/2/5
f 405/2/5 403/2/5 402/2/5
f 406/2/5 403/2/5 405/2/5
f 410/2/5 408/2/5 407/2/5
f 410/2/5 409/2/5 408/2/5
f 411/2/5 409/2/5 410/2/5
f 414/2/5 413/2/5 412/2/5
f 415/2/5 413/2/5 414/2/5
f 420/2/5 417/2/5 416/2/5
f 421/2/5 417/2/5 420/2/5
f 422/2/5 417/2/5 421/2/5
f 424/2/5 423/2/5 422/2/5
f 424/2/5 422/2/5 421/2/5
f 425/2/5 419/2/5 418/2/5
f 426/2/5 419/2/5 425/2/5
f 427/2/5 424/2/5 421/2/5
f 428/2/5 424/2/5 427/2/5
f 433/2/5 430/2/5 429/2/5
f 434/2/5 430/2/5 433/2/5
f 435/2/5 430/2/5 434/2/5
f 436/2/5 432/2/5 431/2/5
f 437/2/5 432/2/5 436/2/5
f 440/2/5 439/2/5 438/2/5
f 441/2/5 439/2/5 440/2/5
f 442/2/5 439/2/5 441/2/5
f 445/2/5 444/2/5 443/2/5
f 446/2/5 444/2/5 445/2/5
f 449/2/5 448/2/5 447/2/5
f 450/2/5 448/2/5 449/2/5
f 453/2/5 452/2/5 451/2/5
f 454/2/5 452/2/5 453/2/5
f 458/2/5 456/2/5 455/2/5
f 458/2/5 457/2/5 456/2/5
f 459/2/5 457/2/5 458/2/5
f 462/2/5 461/2/5 460/2/5
f 463/2/5 461/2/5 462/2/5
f 468/2/5 465/2/5 464/2/5
f 469/2/5 465/2/5 468/2/5
f 470/2/5 465/2/5 469/2/5
f 471/2/5 467/2/5 466/2/5
f 472/2/5 467/2/5 471/2/5
f 475/2/5 474/2/5 473/2/5
f 476/2/5 474/2/5 475/2/5
f 477/2/6 478/2/6 479/2/6
f 479/2/6 478/2/6 480/2/6
f 481/2/6 482/2/6 483/2/6
f 483/2/6 482/2/6 484/2/6
f 484/2/6 482/2/6 485/2/6
f 486/2/6 487/2/6 490/2/6
f 490/2/6 487/2/6 491/2/6
f 492/2/6 493/2/6 495/2/6
f 488/2/6 489/2/6 496/2/6
f 496/2/6 489/2/6 497/2/6
f 497/2/6 489/2/6 498/2/6
f 494/2/6 495/2/6 499/2/6
f 495/2/6 493/2/6 500/2/6
f 499/2/6 495/2/6 500/2/6
f 503/2/6 504/2/6 505/2/6
f 503/2/6 505/2/6 506/2/6
f 501/2/6 502/2/6 507/2/6
f 507/2/6 502/2/6 508/2/6
f 503/2/6 506/2/6 509/2/6
f 509/2/6 506/2/6 510/2/6
f 511/2/6 512/2/6 513/2/6
f 513/2/6 512/2/6 514/2/6
f 515/2/6 516/2/6 517/2/6
f 515/2/6 517/2/6 518/2/6
f 518/2/6 517/2/6 519/2/6
f 520/2/6 521/2/6 522/2/6
f 522/2/6 521/2/6 523/2/6
f 523/2/6 521/2/6 524/2/6
f 525/2/6 526/2/6 529/2/6
f 529/2/6 526/2/6 530/2/6
f 530/2/6 526/2/6 531/2/6
f 531/2/6 526/2/6 532/2/6
f 527/2/6 528/2/6 535/2/6
f 535/2/6 528/2/6 536/2/6
f 533/2/6 534/2/6 540/2/6
f 534/2/6 535/2/6 540/2/6
f 540/2/6 535/2/6 541/2/6
f 538/2/6 539/2/6 543/2/6
f 537/2/6 538/2/6 543/2/6
f 542/2/6 543/2/6 544/2/6
f 543/2/6 539/2/6 545/2/6
f 544/2/6 543/2/6 545/2/6
f 545/2/6 539/2/6 546/2/6
f 542/2/6 544/2/6 547/2/6
f 547/2/6 544/2/6 548/2/6
f 548/2/6 544/2/6 549/2/6
f 550/2/6 551/2/6 553/2/6
f 551/2/6 552/2/6 553/2/6
f 553/2/6 552/2/6 554/2/6
f 555/2/6 556/2/6 557/2/6
f 557/2/6 556/2/6 558/2/6
f 559/2/6 560/2/6 563/2/6
f 563/2/6 560/2/6 564/2/6
f 561/2/6 562/2/6 565/2/6
f 565/2/6 562/2/6 566/2/6
f 566/2/6 562/2/6 567/2/6
f 567/2/6 562/2/6 568/2/6
f 569/2/6 570/2/6 571/2/6
f 569/2/6 571/2/6 572/2/6
f 572/2/6 571/2/6 573/2/6
f 574/2/6 575/2/6 576/2/6
f 576/2/6 575/2/6 577/2/6
