# MagicaVoxel @ Ephtracy

# group
g Nature:Road-A

# material
mtllib default-material.mtl
usemtl palette

# normals
vn -1 0 0
vn 1 0 0
vn 0 0 1
vn 0 0 -1
vn 0 -1 0
vn 0 1 0

# texcoords
vt 0.978516 0.5
vt 0.982422 0.5

# verts
v -12.5 0 9.5
v -12.5 0 8.5
v -12.5 0 6.5
v -12.5 1 9.5
v -12.5 1 8.5
v -12.5 1 6.5
v -9.5 0 -4.5
v -9.5 0 -5.5
v -9.5 0 -6.5
v -9.5 0 -7.5
v -9.5 0 -8.5
v -9.5 1 -4.5
v -9.5 1 -5.5
v -9.5 1 -6.5
v -9.5 1 -7.5
v -9.5 1 -8.5
v -7.5 0 5.5
v -7.5 0 4.5
v -7.5 0 3.5
v -7.5 0 1.5
v -7.5 0 -0.5
v -7.5 1 5.5
v -7.5 1 4.5
v -7.5 1 3.5
v -7.5 1 1.5
v -7.5 1 -0.5
v 0.5 0 -2.5
v 0.5 0 -3.5
v 0.5 0 -5.5
v 0.5 1 -2.5
v 0.5 1 -3.5
v 0.5 1 -5.5
v 1.5 0 6.5
v 1.5 0 5.5
v 1.5 0 4.5
v 1.5 1 6.5
v 1.5 1 5.5
v 1.5 1 4.5
v 4.5 0 2.5
v 4.5 0 1.5
v 4.5 0 -1.5
v 4.5 1 2.5
v 4.5 1 1.5
v 4.5 1 -1.5
v 5.5 0 -6.5
v 5.5 0 -7.5
v 5.5 0 -10.5
v 5.5 0 -11.5
v 5.5 1 -6.5
v 5.5 1 -7.5
v 5.5 1 -10.5
v 5.5 1 -11.5
v 6.5 0 11.5
v 6.5 0 10.5
v 6.5 0 6.5
v 6.5 0 5.5
v 6.5 1 11.5
v 6.5 1 10.5
v 6.5 1 6.5
v 6.5 1 5.5
v -9.5 0 9.5
v -9.5 0 8.5
v -9.5 0 6.5
v -9.5 1 9.5
v -9.5 1 8.5
v -9.5 1 6.5
v -5.5 0 -4.5
v -5.5 0 -7.5
v -5.5 0 -8.5
v -5.5 1 -4.5
v -5.5 1 -7.5
v -5.5 1 -8.5
v -1.5 0 5.5
v -1.5 0 -0.5
v -1.5 1 5.5
v -1.5 1 -0.5
v 3.5 0 6.5
v 3.5 0 4.5
v 3.5 0 -2.5
v 3.5 0 -4.5
v 3.5 0 -5.5
v 3.5 1 6.5
v 3.5 1 4.5
v 3.5 1 -2.5
v 3.5 1 -4.5
v 3.5 1 -5.5
v 8.5 0 2.5
v 8.5 0 -1.5
v 8.5 1 2.5
v 8.5 1 -1.5
v 10.5 0 -6.5
v 10.5 0 -11.5
v 10.5 1 -6.5
v 10.5 1 -11.5
v 12.5 0 11.5
v 12.5 0 5.5
v 12.5 1 11.5
v 12.5 1 5.5
v 6.5 0 11.5
v 6.5 1 11.5
v 7.5 0 11.5
v 7.5 1 11.5
v 10.5 0 11.5
v 10.5 1 11.5
v 12.5 0 11.5
v 12.5 1 11.5
v -12.5 0 9.5
v -12.5 1 9.5
v -10.5 0 9.5
v -10.5 1 9.5
v -9.5 0 9.5
v -9.5 1 9.5
v 1.5 0 6.5
v 1.5 1 6.5
v 2.5 0 6.5
v 2.5 1 6.5
v 3.5 0 6.5
v 3.5 1 6.5
v -7.5 0 5.5
v -7.5 1 5.5
v -3.5 0 5.5
v -3.5 1 5.5
v -1.5 0 5.5
v -1.5 1 5.5
v 4.5 0 2.5
v 4.5 1 2.5
v 8.5 0 2.5
v 8.5 1 2.5
v 0.5 0 -2.5
v 0.5 1 -2.5
v 3.5 0 -2.5
v 3.5 1 -2.5
v -9.5 0 -4.5
v -9.5 1 -4.5
v -7.5 0 -4.5
v -7.5 1 -4.5
v -5.5 0 -4.5
v -5.5 1 -4.5
v 5.5 0 -6.5
v 5.5 1 -6.5
v 10.5 0 -6.5
v 10.5 1 -6.5
v -12.5 0 6.5
v -12.5 1 6.5
v -11.5 0 6.5
v -11.5 1 6.5
v -9.5 0 6.5
v -9.5 1 6.5
v 6.5 0 5.5
v 6.5 1 5.5
v 12.5 0 5.5
v 12.5 1 5.5
v 1.5 0 4.5
v 1.5 1 4.5
v 3.5 0 4.5
v 3.5 1 4.5
v -7.5 0 -0.5
v -7.5 1 -0.5
v -1.5 0 -0.5
v -1.5 1 -0.5
v 4.5 0 -1.5
v 4.5 1 -1.5
v 5.5 0 -1.5
v 5.5 1 -1.5
v 6.5 0 -1.5
v 6.5 1 -1.5
v 7.5 0 -1.5
v 7.5 1 -1.5
v 8.5 0 -1.5
v 8.5 1 -1.5
v 0.5 0 -5.5
v 0.5 1 -5.5
v 1.5 0 -5.5
v 1.5 1 -5.5
v 2.5 0 -5.5
v 2.5 1 -5.5
v 3.5 0 -5.5
v 3.5 1 -5.5
v -9.5 0 -8.5
v -9.5 1 -8.5
v -8.5 0 -8.5
v -8.5 1 -8.5
v -5.5 0 -8.5
v -5.5 1 -8.5
v 5.5 0 -11.5
v 5.5 1 -11.5
v 10.5 0 -11.5
v 10.5 1 -11.5
v 6.5 0 11.5
v 7.5 0 11.5
v 10.5 0 11.5
v 12.5 0 11.5
v 6.5 0 10.5
v 7.5 0 10.5
v 8.5 0 10.5
v 9.5 0 10.5
v 10.5 0 10.5
v 11.5 0 10.5
v -12.5 0 9.5
v -10.5 0 9.5
v -9.5 0 9.5
v 8.5 0 9.5
v 9.5 0 9.5
v 11.5 0 9.5
v -12.5 0 8.5
v -10.5 0 8.5
v -9.5 0 8.5
v 9.5 0 8.5
v 11.5 0 8.5
v -11.5 0 7.5
v -10.5 0 7.5
v 9.5 0 7.5
v 11.5 0 7.5
v -12.5 0 6.5
v -11.5 0 6.5
v -9.5 0 6.5
v 1.5 0 6.5
v 2.5 0 6.5
v 3.5 0 6.5
v 6.5 0 6.5
v 9.5 0 6.5
v -7.5 0 5.5
v -3.5 0 5.5
v -1.5 0 5.5
v 1.5 0 5.5
v 2.5 0 5.5
v 6.5 0 5.5
v 12.5 0 5.5
v -7.5 0 4.5
v -6.5 0 4.5
v -4.5 0 4.5
v -3.5 0 4.5
v 1.5 0 4.5
v 3.5 0 4.5
v -7.5 0 3.5
v -6.5 0 3.5
v -5.5 0 3.5
v -4.5 0 3.5
v -2.5 0 3.5
v -4.5 0 2.5
v -2.5 0 2.5
v 4.5 0 2.5
v 8.5 0 2.5
v -7.5 0 1.5
v -5.5 0 1.5
v -3.5 0 1.5
v 4.5 0 1.5
v 7.5 0 1.5
v -5.5 0 0.5
v -3.5 0 0.5
v 6.5 0 0.5
v 7.5 0 0.5
v -7.5 0 -0.5
v -1.5 0 -0.5
v 5.5 0 -0.5
v 6.5 0 -0.5
v 7.5 0 -0.5
v 4.5 0 -1.5
v 5.5 0 -1.5
v 6.5 0 -1.5
v 7.5 0 -1.5
v 8.5 0 -1.5
v 0.5 0 -2.5
v 3.5 0 -2.5
v 0.5 0 -3.5
v 2.5 0 -3.5
v -9.5 0 -4.5
v -7.5 0 -4.5
v -5.5 0 -4.5
v 1.5 0 -4.5
v 2.5 0 -4.5
v 3.5 0 -4.5
v -9.5 0 -5.5
v -8.5 0 -5.5
v 0.5 0 -5.5
v 1.5 0 -5.5
v 2.5 0 -5.5
v 3.5 0 -5.5
v -9.5 0 -6.5
v -8.5 0 -6.5
v -7.5 0 -6.5
v -6.5 0 -6.5
v 5.5 0 -6.5
v 10.5 0 -6.5
v -9.5 0 -7.5
v -8.5 0 -7.5
v -6.5 0 -7.5
v -5.5 0 -7.5
v 5.5 0 -7.5
v 6.5 0 -7.5
v -9.5 0 -8.5
v -8.5 0 -8.5
v -5.5 0 -8.5
v 6.5 0 -8.5
v 7.5 0 -8.5
v 7.5 0 -9.5
v 8.5 0 -9.5
v 5.5 0 -10.5
v 8.5 0 -10.5
v 5.5 0 -11.5
v 10.5 0 -11.5
v 6.5 1 11.5
v 7.5 1 11.5
v 10.5 1 11.5
v 12.5 1 11.5
v 6.5 1 10.5
v 7.5 1 10.5
v 8.5 1 10.5
v 9.5 1 10.5
v 10.5 1 10.5
v 11.5 1 10.5
v -12.5 1 9.5
v -10.5 1 9.5
v -9.5 1 9.5
v 8.5 1 9.5
v 9.5 1 9.5
v 11.5 1 9.5
v -12.5 1 8.5
v -10.5 1 8.5
v -9.5 1 8.5
v 9.5 1 8.5
v 11.5 1 8.5
v -11.5 1 7.5
v -10.5 1 7.5
v 9.5 1 7.5
v 11.5 1 7.5
v -12.5 1 6.5
v -11.5 1 6.5
v -9.5 1 6.5
v 1.5 1 6.5
v 2.5 1 6.5
v 3.5 1 6.5
v 6.5 1 6.5
v 9.5 1 6.5
v -7.5 1 5.5
v -3.5 1 5.5
v -1.5 1 5.5
v 1.5 1 5.5
v 2.5 1 5.5
v 6.5 1 5.5
v 12.5 1 5.5
v -7.5 1 4.5
v -6.5 1 4.5
v -4.5 1 4.5
v -3.5 1 4.5
v 1.5 1 4.5
v 3.5 1 4.5
v -7.5 1 3.5
v -6.5 1 3.5
v -5.5 1 3.5
v -4.5 1 3.5
v -2.5 1 3.5
v -4.5 1 2.5
v -2.5 1 2.5
v 4.5 1 2.5
v 8.5 1 2.5
v -7.5 1 1.5
v -5.5 1 1.5
v -3.5 1 1.5
v 4.5 1 1.5
v 7.5 1 1.5
v -5.5 1 0.5
v -3.5 1 0.5
v 6.5 1 0.5
v 7.5 1 0.5
v -7.5 1 -0.5
v -1.5 1 -0.5
v 5.5 1 -0.5
v 6.5 1 -0.5
v 7.5 1 -0.5
v 4.5 1 -1.5
v 5.5 1 -1.5
v 6.5 1 -1.5
v 7.5 1 -1.5
v 8.5 1 -1.5
v 0.5 1 -2.5
v 3.5 1 -2.5
v 0.5 1 -3.5
v 2.5 1 -3.5
v -9.5 1 -4.5
v -7.5 1 -4.5
v -5.5 1 -4.5
v 1.5 1 -4.5
v 2.5 1 -4.5
v 3.5 1 -4.5
v -9.5 1 -5.5
v -8.5 1 -5.5
v 0.5 1 -5.5
v 1.5 1 -5.5
v 2.5 1 -5.5
v 3.5 1 -5.5
v -9.5 1 -6.5
v -8.5 1 -6.5
v -7.5 1 -6.5
v -6.5 1 -6.5
v 5.5 1 -6.5
v 10.5 1 -6.5
v -9.5 1 -7.5
v -8.5 1 -7.5
v -6.5 1 -7.5
v -5.5 1 -7.5
v 5.5 1 -7.5
v 6.5 1 -7.5
v -9.5 1 -8.5
v -8.5 1 -8.5
v -5.5 1 -8.5
v 6.5 1 -8.5
v 7.5 1 -8.5
v 7.5 1 -9.5
v 8.5 1 -9.5
v 5.5 1 -10.5
v 8.5 1 -10.5
v 5.5 1 -11.5
v 10.5 1 -11.5

# faces
f 4/1/1 2/1/1 1/1/1
f 5/2/1 3/2/1 2/2/1
f 5/1/1 2/1/1 4/1/1
f 6/2/1 3/2/1 5/2/1
f 12/2/1 8/2/1 7/2/1
f 13/1/1 9/1/1 8/1/1
f 13/2/1 8/2/1 12/2/1
f 14/2/1 10/2/1 9/2/1
f 14/1/1 9/1/1 13/1/1
f 15/1/1 11/1/1 10/1/1
f 15/2/1 10/2/1 14/2/1
f 16/1/1 11/1/1 15/1/1
f 22/2/1 18/2/1 17/2/1
f 23/1/1 19/1/1 18/1/1
f 23/2/1 18/2/1 22/2/1
f 24/2/1 20/2/1 19/2/1
f 24/1/1 19/1/1 23/1/1
f 25/1/1 21/1/1 20/1/1
f 25/2/1 20/2/1 24/2/1
f 26/1/1 21/1/1 25/1/1
f 30/1/1 28/1/1 27/1/1
f 31/2/1 29/2/1 28/2/1
f 31/1/1 28/1/1 30/1/1
f 32/2/1 29/2/1 31/2/1
f 36/2/1 34/2/1 33/2/1
f 37/1/1 35/1/1 34/1/1
f 37/2/1 34/2/1 36/2/1
f 38/1/1 35/1/1 37/1/1
f 42/1/1 40/1/1 39/1/1
f 43/2/1 41/2/1 40/2/1
f 43/1/1 40/1/1 42/1/1
f 44/2/1 41/2/1 43/2/1
f 49/1/1 46/1/1 45/1/1
f 50/2/1 47/2/1 46/2/1
f 50/1/1 46/1/1 49/1/1
f 51/1/1 48/1/1 47/1/1
f 51/2/1 47/2/1 50/2/1
f 52/1/1 48/1/1 51/1/1
f 57/1/1 54/1/1 53/1/1
f 58/2/1 55/2/1 54/2/1
f 58/1/1 54/1/1 57/1/1
f 59/1/1 56/1/1 55/1/1
f 59/2/1 55/2/1 58/2/1
f 60/1/1 56/1/1 59/1/1
f 61/2/2 62/2/2 64/2/2
f 62/1/2 63/1/2 65/1/2
f 64/2/2 62/2/2 65/2/2
f 65/1/2 63/1/2 66/1/2
f 67/1/2 68/1/2 70/1/2
f 68/2/2 69/2/2 71/2/2
f 70/1/2 68/1/2 71/1/2
f 71/2/2 69/2/2 72/2/2
f 73/1/2 74/1/2 75/1/2
f 75/1/2 74/1/2 76/1/2
f 77/1/2 78/1/2 82/1/2
f 82/1/2 78/1/2 83/1/2
f 79/1/2 80/1/2 84/1/2
f 80/2/2 81/2/2 85/2/2
f 84/1/2 80/1/2 85/1/2
f 85/2/2 81/2/2 86/2/2
f 87/1/2 88/1/2 89/1/2
f 89/1/2 88/1/2 90/1/2
f 91/1/2 92/1/2 93/1/2
f 93/1/2 92/1/2 94/1/2
f 95/1/2 96/1/2 97/1/2
f 97/1/2 96/1/2 98/1/2
f 101/1/3 100/1/3 99/1/3
f 102/1/3 100/1/3 101/1/3
f 103/2/3 102/2/3 101/2/3
f 104/2/3 102/2/3 103/2/3
f 105/1/3 104/1/3 103/1/3
f 106/1/3 104/1/3 105/1/3
f 109/1/3 108/1/3 107/1/3
f 110/1/3 108/1/3 109/1/3
f 111/2/3 110/2/3 109/2/3
f 112/2/3 110/2/3 111/2/3
f 115/2/3 114/2/3 113/2/3
f 116/2/3 114/2/3 115/2/3
f 117/1/3 116/1/3 115/1/3
f 118/1/3 116/1/3 117/1/3
f 121/2/3 120/2/3 119/2/3
f 122/2/3 120/2/3 121/2/3
f 123/1/3 122/1/3 121/1/3
f 124/1/3 122/1/3 123/1/3
f 127/1/3 126/1/3 125/1/3
f 128/1/3 126/1/3 127/1/3
f 131/1/3 130/1/3 129/1/3
f 132/1/3 130/1/3 131/1/3
f 135/2/3 134/2/3 133/2/3
f 136/2/3 134/2/3 135/2/3
f 137/1/3 136/1/3 135/1/3
f 138/1/3 136/1/3 137/1/3
f 141/1/3 140/1/3 139/1/3
f 142/1/3 140/1/3 141/1/3
f 143/2/4 144/2/4 145/2/4
f 145/2/4 144/2/4 146/2/4
f 145/1/4 146/1/4 147/1/4
f 147/1/4 146/1/4 148/1/4
f 149/1/4 150/1/4 151/1/4
f 151/1/4 150/1/4 152/1/4
f 153/1/4 154/1/4 155/1/4
f 155/1/4 154/1/4 156/1/4
f 157/1/4 158/1/4 159/1/4
f 159/1/4 158/1/4 160/1/4
f 161/2/4 162/2/4 163/2/4
f 163/2/4 162/2/4 164/2/4
f 163/1/4 164/1/4 165/1/4
f 165/1/4 164/1/4 166/1/4
f 165/2/4 166/2/4 167/2/4
f 167/2/4 166/2/4 168/2/4
f 167/1/4 168/1/4 169/1/4
f 169/1/4 168/1/4 170/1/4
f 171/2/4 172/2/4 173/2/4
f 173/2/4 172/2/4 174/2/4
f 173/1/4 174/1/4 175/1/4
f 175/1/4 174/1/4 176/1/4
f 175/2/4 176/2/4 177/2/4
f 177/2/4 176/2/4 178/2/4
f 179/1/4 180/1/4 181/1/4
f 181/1/4 180/1/4 182/1/4
f 181/2/4 182/2/4 183/2/4
f 183/2/4 182/2/4 184/2/4
f 185/1/4 186/1/4 187/1/4
f 187/1/4 186/1/4 188/1/4
f 193/1/5 190/1/5 189/1/5
f 194/2/5 191/2/5 190/2/5
f 194/1/5 190/1/5 193/1/5
f 195/2/5 191/2/5 194/2/5
f 196/2/5 191/2/5 195/2/5
f 197/1/5 192/1/5 191/1/5
f 197/2/5 191/2/5 196/2/5
f 198/1/5 192/1/5 197/1/5
f 202/1/5 196/1/5 195/1/5
f 202/2/5 194/2/5 193/2/5
f 202/2/5 195/2/5 194/2/5
f 203/2/5 197/2/5 196/2/5
f 203/1/5 196/1/5 202/1/5
f 203/2/5 198/2/5 197/2/5
f 204/1/5 192/1/5 198/1/5
f 204/2/5 198/2/5 203/2/5
f 205/1/5 200/1/5 199/1/5
f 206/2/5 201/2/5 200/2/5
f 206/1/5 200/1/5 205/1/5
f 207/2/5 201/2/5 206/2/5
f 208/2/5 203/2/5 202/2/5
f 208/1/5 204/1/5 203/1/5
f 209/1/5 192/1/5 204/1/5
f 209/1/5 204/1/5 208/1/5
f 210/2/5 206/2/5 205/2/5
f 211/1/5 207/1/5 206/1/5
f 211/2/5 206/2/5 210/2/5
f 212/2/5 208/2/5 202/2/5
f 212/2/5 209/2/5 208/2/5
f 213/1/5 192/1/5 209/1/5
f 213/2/5 209/2/5 212/2/5
f 214/2/5 210/2/5 205/2/5
f 215/1/5 211/1/5 210/1/5
f 215/2/5 210/2/5 214/2/5
f 216/1/5 207/1/5 211/1/5
f 216/1/5 211/1/5 215/1/5
f 220/2/5 202/2/5 193/2/5
f 220/2/5 212/2/5 202/2/5
f 221/1/5 213/1/5 212/1/5
f 221/2/5 212/2/5 220/2/5
f 225/2/5 218/2/5 217/2/5
f 226/1/5 219/1/5 218/1/5
f 226/2/5 218/2/5 225/2/5
f 227/1/5 221/1/5 220/1/5
f 228/1/5 213/1/5 221/1/5
f 228/1/5 221/1/5 227/1/5
f 228/1/5 192/1/5 213/1/5
f 229/2/5 223/2/5 222/2/5
f 230/2/5 223/2/5 229/2/5
f 231/2/5 223/2/5 230/2/5
f 232/1/5 224/1/5 223/1/5
f 232/2/5 223/2/5 231/2/5
f 233/1/5 226/1/5 225/1/5
f 234/1/5 219/1/5 226/1/5
f 234/1/5 226/1/5 233/1/5
f 235/1/5 230/1/5 229/1/5
f 236/2/5 231/2/5 230/2/5
f 236/1/5 230/1/5 235/1/5
f 237/2/5 231/2/5 236/2/5
f 238/1/5 232/1/5 231/1/5
f 238/2/5 231/2/5 237/2/5
f 239/1/5 224/1/5 232/1/5
f 239/1/5 232/1/5 238/1/5
f 240/1/5 238/1/5 237/1/5
f 240/2/5 239/2/5 238/2/5
f 241/1/5 224/1/5 239/1/5
f 241/2/5 239/2/5 240/2/5
f 244/2/5 237/2/5 236/2/5
f 244/2/5 236/2/5 235/2/5
f 245/1/5 240/1/5 237/1/5
f 245/2/5 237/2/5 244/2/5
f 245/1/5 241/1/5 240/1/5
f 246/1/5 241/1/5 245/1/5
f 247/1/5 243/1/5 242/1/5
f 248/1/5 243/1/5 247/1/5
f 249/1/5 245/1/5 244/1/5
f 249/2/5 246/2/5 245/2/5
f 250/1/5 241/1/5 246/1/5
f 250/2/5 246/2/5 249/2/5
f 251/2/5 248/2/5 247/2/5
f 252/1/5 243/1/5 248/1/5
f 252/2/5 248/2/5 251/2/5
f 253/1/5 249/1/5 244/1/5
f 253/1/5 250/1/5 249/1/5
f 254/1/5 224/1/5 241/1/5
f 254/1/5 250/1/5 253/1/5
f 254/1/5 241/1/5 250/1/5
f 255/2/5 251/2/5 247/2/5
f 256/1/5 252/1/5 251/1/5
f 256/2/5 251/2/5 255/2/5
f 257/1/5 243/1/5 252/1/5
f 257/1/5 252/1/5 256/1/5
f 258/2/5 255/2/5 247/2/5
f 259/1/5 256/1/5 255/1/5
f 259/2/5 255/2/5 258/2/5
f 260/2/5 257/2/5 256/2/5
f 260/1/5 256/1/5 259/1/5
f 261/1/5 243/1/5 257/1/5
f 261/2/5 257/2/5 260/2/5
f 262/1/5 243/1/5 261/1/5
f 265/1/5 264/1/5 263/1/5
f 266/1/5 264/1/5 265/1/5
f 270/2/5 266/2/5 265/2/5
f 271/1/5 264/1/5 266/1/5
f 271/2/5 266/2/5 270/2/5
f 272/1/5 264/1/5 271/1/5
f 273/2/5 268/2/5 267/2/5
f 274/2/5 268/2/5 273/2/5
f 275/2/5 270/2/5 265/2/5
f 276/1/5 271/1/5 270/1/5
f 276/2/5 270/2/5 275/2/5
f 277/2/5 272/2/5 271/2/5
f 277/1/5 271/1/5 276/1/5
f 278/2/5 272/2/5 277/2/5
f 279/1/5 274/1/5 273/1/5
f 280/2/5 268/2/5 274/2/5
f 280/1/5 274/1/5 279/1/5
f 281/1/5 269/1/5 268/1/5
f 281/2/5 268/2/5 280/2/5
f 282/1/5 269/1/5 281/1/5
f 285/2/5 281/2/5 280/2/5
f 285/2/5 280/2/5 279/2/5
f 285/2/5 282/2/5 281/2/5
f 286/2/5 282/2/5 285/2/5
f 287/1/5 269/1/5 282/1/5
f 287/2/5 282/2/5 286/2/5
f 288/1/5 269/1/5 287/1/5
f 289/1/5 284/1/5 283/1/5
f 290/1/5 284/1/5 289/1/5
f 291/1/5 286/1/5 285/1/5
f 292/2/5 288/2/5 287/2/5
f 292/1/5 286/1/5 291/1/5
f 292/2/5 287/2/5 286/2/5
f 293/2/5 288/2/5 292/2/5
f 294/1/5 284/1/5 290/1/5
f 294/2/5 290/2/5 289/2/5
f 295/1/5 284/1/5 294/1/5
f 296/1/5 284/1/5 295/1/5
f 296/2/5 295/2/5 294/2/5
f 297/1/5 284/1/5 296/1/5
f 298/2/5 294/2/5 289/2/5
f 298/2/5 296/2/5 294/2/5
f 298/2/5 297/2/5 296/2/5
f 299/1/5 284/1/5 297/1/5
f 299/2/5 297/2/5 298/2/5
f 300/1/5 299/1/5 298/1/5
f 301/1/5 284/1/5 299/1/5
f 301/1/5 299/1/5 300/1/5
f 302/1/6 303/1/6 306/1/6
f 303/2/6 304/2/6 307/2/6
f 306/1/6 303/1/6 307/1/6
f 307/2/6 304/2/6 308/2/6
f 308/2/6 304/2/6 309/2/6
f 304/1/6 305/1/6 310/1/6
f 309/2/6 304/2/6 310/2/6
f 310/1/6 305/1/6 311/1/6
f 308/1/6 309/1/6 315/1/6
f 306/2/6 307/2/6 315/2/6
f 307/2/6 308/2/6 315/2/6
f 309/2/6 310/2/6 316/2/6
f 315/1/6 309/1/6 316/1/6
f 310/2/6 311/2/6 316/2/6
f 311/1/6 305/1/6 317/1/6
f 316/2/6 311/2/6 317/2/6
f 312/1/6 313/1/6 318/1/6
f 313/2/6 314/2/6 319/2/6
f 318/1/6 313/1/6 319/1/6
f 319/2/6 314/2/6 320/2/6
f 315/2/6 316/2/6 321/2/6
f 316/1/6 317/1/6 321/1/6
f 317/1/6 305/1/6 322/1/6
f 321/1/6 317/1/6 322/1/6
f 318/2/6 319/2/6 323/2/6
f 319/1/6 320/1/6 324/1/6
f 323/2/6 319/2/6 324/2/6
f 315/2/6 321/2/6 325/2/6
f 321/2/6 322/2/6 325/2/6
f 322/1/6 305/1/6 326/1/6
f 325/2/6 322/2/6 326/2/6
f 318/2/6 323/2/6 327/2/6
f 323/1/6 324/1/6 328/1/6
f 327/2/6 323/2/6 328/2/6
f 324/1/6 320/1/6 329/1/6
f 328/1/6 324/1/6 329/1/6
f 306/2/6 315/2/6 333/2/6
f 315/2/6 325/2/6 333/2/6
f 325/1/6 326/1/6 334/1/6
f 333/2/6 325/2/6 334/2/6
f 330/2/6 331/2/6 338/2/6
f 331/1/6 332/1/6 339/1/6
f 338/2/6 331/2/6 339/2/6
f 333/1/6 334/1/6 340/1/6
f 334/1/6 326/1/6 341/1/6
f 340/1/6 334/1/6 341/1/6
f 326/1/6 305/1/6 341/1/6
f 335/2/6 336/2/6 342/2/6
f 342/2/6 336/2/6 343/2/6
f 343/2/6 336/2/6 344/2/6
f 336/1/6 337/1/6 345/1/6
f 344/2/6 336/2/6 345/2/6
f 338/1/6 339/1/6 346/1/6
f 339/1/6 332/1/6 347/1/6
f 346/1/6 339/1/6 347/1/6
f 342/1/6 343/1/6 348/1/6
f 343/2/6 344/2/6 349/2/6
f 348/1/6 343/1/6 349/1/6
f 349/2/6 344/2/6 350/2/6
f 344/1/6 345/1/6 351/1/6
f 350/2/6 344/2/6 351/2/6
f 345/1/6 337/1/6 352/1/6
f 351/1/6 345/1/6 352/1/6
f 350/1/6 351/1/6 353/1/6
f 351/2/6 352/2/6 353/2/6
f 352/1/6 337/1/6 354/1/6
f 353/2/6 352/2/6 354/2/6
f 349/2/6 350/2/6 357/2/6
f 348/2/6 349/2/6 357/2/6
f 350/1/6 353/1/6 358/1/6
f 357/2/6 350/2/6 358/2/6
f 353/1/6 354/1/6 358/1/6
f 358/1/6 354/1/6 359/1/6
f 355/1/6 356/1/6 360/1/6
f 360/1/6 356/1/6 361/1/6
f 357/1/6 358/1/6 362/1/6
f 358/2/6 359/2/6 362/2/6
f 359/1/6 354/1/6 363/1/6
f 362/2/6 359/2/6 363/2/6
f 360/2/6 361/2/6 364/2/6
f 361/1/6 356/1/6 365/1/6
f 364/2/6 361/2/6 365/2/6
f 357/1/6 362/1/6 366/1/6
f 362/1/6 363/1/6 366/1/6
f 354/1/6 337/1/6 367/1/6
f 366/1/6 363/1/6 367/1/6
f 363/1/6 354/1/6 367/1/6
f 360/2/6 364/2/6 368/2/6
f 364/1/6 365/1/6 369/1/6
f 368/2/6 364/2/6 369/2/6
f 365/1/6 356/1/6 370/1/6
f 369/1/6 365/1/6 370/1/6
f 360/2/6 368/2/6 371/2/6
f 368/1/6 369/1/6 372/1/6
f 371/2/6 368/2/6 372/2/6
f 369/2/6 370/2/6 373/2/6
f 372/1/6 369/1/6 373/1/6
f 370/1/6 356/1/6 374/1/6
f 373/2/6 370/2/6 374/2/6
f 374/1/6 356/1/6 375/1/6
f 376/1/6 377/1/6 378/1/6
f 378/1/6 377/1/6 379/1/6
f 378/2/6 379/2/6 383/2/6
f 379/1/6 377/1/6 384/1/6
f 383/2/6 379/2/6 384/2/6
f 384/1/6 377/1/6 385/1/6
f 380/2/6 381/2/6 386/2/6
f 386/2/6 381/2/6 387/2/6
f 378/2/6 383/2/6 388/2/6
f 383/1/6 384/1/6 389/1/6
f 388/2/6 383/2/6 389/2/6
f 384/2/6 385/2/6 390/2/6
f 389/1/6 384/1/6 390/1/6
f 390/2/6 385/2/6 391/2/6
f 386/1/6 387/1/6 392/1/6
f 387/2/6 381/2/6 393/2/6
f 392/1/6 387/1/6 393/1/6
f 381/1/6 382/1/6 394/1/6
f 393/2/6 381/2/6 394/2/6
f 394/1/6 382/1/6 395/1/6
f 393/2/6 394/2/6 398/2/6
f 392/2/6 393/2/6 398/2/6
f 394/2/6 395/2/6 398/2/6
f 398/2/6 395/2/6 399/2/6
f 395/1/6 382/1/6 400/1/6
f 399/2/6 395/2/6 400/2/6
f 400/1/6 382/1/6 401/1/6
f 396/1/6 397/1/6 402/1/6
f 402/1/6 397/1/6 403/1/6
f 398/1/6 399/1/6 404/1/6
f 400/2/6 401/2/6 405/2/6
f 404/1/6 399/1/6 405/1/6
f 399/2/6 400/2/6 405/2/6
f 405/2/6 401/2/6 406/2/6
f 403/1/6 397/1/6 407/1/6
f 402/2/6 403/2/6 407/2/6
f 407/1/6 397/1/6 408/1/6
f 408/1/6 397/1/6 409/1/6
f 407/2/6 408/2/6 409/2/6
f 409/1/6 397/1/6 410/1/6
f 402/2/6 407/2/6 411/2/6
f 407/2/6 409/2/6 411/2/6
f 409/2/6 410/2/6 411/2/6
f 410/1/6 397/1/6 412/1/6
f 411/2/6 410/2/6 412/2/6
f 411/1/6 412/1/6 413/1/6
f 412/1/6 397/1/6 414/1/6
f 413/1/6 412/1/6 414/1/6
