# MagicaVoxel @ Ephtracy

# group
g nature-gravestone1

# material
mtllib default-material.mtl
usemtl palette

# normals
vn -1 0 0
vn 1 0 0
vn 0 0 1
vn 0 0 -1
vn 0 -1 0
vn 0 1 0

# texcoords
vt 0.982422 0.5
vt 0.990234 0.5

# verts
v -2 0 6.5
v -2 0 -5.5
v -2 13 6.5
v -2 13 5.5
v -2 14 5.5
v -2 14 3.5
v -2 14 -3.5
v -2 14 -5.5
v -2 15 3.5
v -2 15 -3.5
v -1 0 7.5
v -1 0 6.5
v -1 0 -5.5
v -1 0 -7.5
v -1 13 7.5
v -1 13 6.5
v -1 13 5.5
v -1 13 -6.5
v -1 13 -7.5
v -1 14 6.5
v -1 14 5.5
v -1 14 3.5
v -1 14 -3.5
v -1 14 -5.5
v -1 14 -6.5
v -1 15 5.5
v -1 15 3.5
v -1 15 -3.5
v -1 15 -5.5
v 1 0 7.5
v 1 0 5.5
v 1 0 -5.5
v 1 0 -7.5
v 1 8 4.5
v 1 8 3.5
v 1 8 2.5
v 1 8 1.5
v 1 8 0.5
v 1 8 -0.5
v 1 8 -1.5
v 1 8 -2.5
v 1 9 3.5
v 1 9 2.5
v 1 9 1.5
v 1 9 -2.5
v 1 9 -4.5
v 1 10 3.5
v 1 10 2.5
v 1 10 1.5
v 1 10 -2.5
v 1 10 -3.5
v 1 11 3.5
v 1 11 2.5
v 1 11 -2.5
v 1 11 -3.5
v 1 12 4.5
v 1 12 1.5
v 1 12 0.5
v 1 12 -0.5
v 1 12 -1.5
v 1 12 -4.5
v 1 13 7.5
v 1 13 6.5
v 1 13 -6.5
v 1 13 -7.5
v 1 14 6.5
v 1 14 5.5
v 1 14 3.5
v 1 14 -3.5
v 1 14 -5.5
v 1 14 -6.5
v 1 15 5.5
v 1 15 3.5
v 1 15 -3.5
v 1 15 -5.5
v 2 0 5.5
v 2 0 -5.5
v 2 8 4.5
v 2 8 3.5
v 2 8 2.5
v 2 8 1.5
v 2 8 0.5
v 2 8 -0.5
v 2 8 -1.5
v 2 8 -2.5
v 2 9 3.5
v 2 9 2.5
v 2 9 1.5
v 2 9 -2.5
v 2 9 -4.5
v 2 10 3.5
v 2 10 2.5
v 2 10 1.5
v 2 10 -2.5
v 2 10 -3.5
v 2 11 3.5
v 2 11 2.5
v 2 11 -2.5
v 2 11 -3.5
v 2 12 4.5
v 2 12 1.5
v 2 12 0.5
v 2 12 -0.5
v 2 12 -1.5
v 2 12 -4.5
v 2 14 5.5
v 2 14 3.5
v 2 14 -3.5
v 2 14 -5.5
v 2 15 3.5
v 2 15 -3.5
v -1 0 7.5
v -1 13 7.5
v 1 0 7.5
v 1 13 7.5
v -2 0 6.5
v -2 13 6.5
v -1 0 6.5
v -1 13 6.5
v -1 14 6.5
v 1 13 6.5
v 1 14 6.5
v -2 13 5.5
v -2 14 5.5
v -1 13 5.5
v -1 14 5.5
v -1 15 5.5
v 1 0 5.5
v 1 14 5.5
v 1 15 5.5
v 2 0 5.5
v 2 14 5.5
v -2 14 3.5
v -2 15 3.5
v -1 14 3.5
v -1 15 3.5
v 1 8 3.5
v 1 9 3.5
v 1 10 3.5
v 1 11 3.5
v 1 14 3.5
v 1 15 3.5
v 2 8 3.5
v 2 9 3.5
v 2 10 3.5
v 2 11 3.5
v 2 14 3.5
v 2 15 3.5
v 1 9 2.5
v 1 10 2.5
v 2 9 2.5
v 2 10 2.5
v 1 8 1.5
v 1 9 1.5
v 1 10 1.5
v 1 12 1.5
v 2 8 1.5
v 2 9 1.5
v 2 10 1.5
v 2 12 1.5
v 1 8 -0.5
v 1 12 -0.5
v 2 8 -0.5
v 2 12 -0.5
v 1 8 -2.5
v 1 9 -2.5
v 1 10 -2.5
v 1 11 -2.5
v 2 8 -2.5
v 2 9 -2.5
v 2 10 -2.5
v 2 11 -2.5
v 1 9 -4.5
v 1 12 -4.5
v 2 9 -4.5
v 2 12 -4.5
v 1 8 4.5
v 1 12 4.5
v 2 8 4.5
v 2 12 4.5
v 1 8 2.5
v 1 9 2.5
v 1 10 2.5
v 1 11 2.5
v 2 8 2.5
v 2 9 2.5
v 2 10 2.5
v 2 11 2.5
v 1 8 0.5
v 1 12 0.5
v 2 8 0.5
v 2 12 0.5
v 1 8 -1.5
v 1 12 -1.5
v 2 8 -1.5
v 2 12 -1.5
v -2 14 -3.5
v -2 15 -3.5
v -1 14 -3.5
v -1 15 -3.5
v 1 10 -3.5
v 1 11 -3.5
v 1 14 -3.5
v 1 15 -3.5
v 2 10 -3.5
v 2 11 -3.5
v 2 14 -3.5
v 2 15 -3.5
v -2 0 -5.5
v -2 14 -5.5
v -1 0 -5.5
v -1 14 -5.5
v -1 15 -5.5
v 1 0 -5.5
v 1 14 -5.5
v 1 15 -5.5
v 2 0 -5.5
v 2 14 -5.5
v -1 13 -6.5
v -1 14 -6.5
v 1 13 -6.5
v 1 14 -6.5
v -1 0 -7.5
v -1 13 -7.5
v 1 0 -7.5
v 1 13 -7.5
v -1 0 7.5
v 1 0 7.5
v -2 0 6.5
v -1 0 6.5
v 1 0 5.5
v 2 0 5.5
v -2 0 -5.5
v -1 0 -5.5
v 1 0 -5.5
v 2 0 -5.5
v -1 0 -7.5
v 1 0 -7.5
v 1 9 2.5
v 2 9 2.5
v 1 9 1.5
v 2 9 1.5
v 1 10 3.5
v 2 10 3.5
v 1 10 2.5
v 2 10 2.5
v 1 10 -2.5
v 2 10 -2.5
v 1 10 -3.5
v 2 10 -3.5
v 1 12 4.5
v 2 12 4.5
v 1 12 1.5
v 2 12 1.5
v 1 12 0.5
v 2 12 0.5
v 1 12 -0.5
v 2 12 -0.5
v 1 12 -1.5
v 2 12 -1.5
v 1 12 -4.5
v 2 12 -4.5
v 1 8 4.5
v 2 8 4.5
v 1 8 3.5
v 2 8 3.5
v 1 8 2.5
v 2 8 2.5
v 1 8 1.5
v 2 8 1.5
v 1 8 0.5
v 2 8 0.5
v 1 8 -0.5
v 2 8 -0.5
v 1 8 -1.5
v 2 8 -1.5
v 1 8 -2.5
v 2 8 -2.5
v 1 9 3.5
v 2 9 3.5
v 1 9 2.5
v 2 9 2.5
v 1 9 -2.5
v 2 9 -2.5
v 1 9 -4.5
v 2 9 -4.5
v 1 10 2.5
v 2 10 2.5
v 1 10 1.5
v 2 10 1.5
v 1 11 3.5
v 2 11 3.5
v 1 11 2.5
v 2 11 2.5
v 1 11 -2.5
v 2 11 -2.5
v 1 11 -3.5
v 2 11 -3.5
v -1 13 7.5
v 1 13 7.5
v -2 13 6.5
v -1 13 6.5
v 1 13 6.5
v -2 13 5.5
v -1 13 5.5
v -1 13 -6.5
v 1 13 -6.5
v -1 13 -7.5
v 1 13 -7.5
v -1 14 6.5
v 1 14 6.5
v -2 14 5.5
v -1 14 5.5
v 1 14 5.5
v 2 14 5.5
v -2 14 3.5
v -1 14 3.5
v 1 14 3.5
v 2 14 3.5
v -2 14 -3.5
v -1 14 -3.5
v 1 14 -3.5
v 2 14 -3.5
v -2 14 -5.5
v -1 14 -5.5
v 1 14 -5.5
v 2 14 -5.5
v -1 14 -6.5
v 1 14 -6.5
v -1 15 5.5
v 1 15 5.5
v -2 15 3.5
v -1 15 3.5
v 1 15 3.5
v 2 15 3.5
v -2 15 -3.5
v -1 15 -3.5
v 1 15 -3.5
v 2 15 -3.5
v -1 15 -5.5
v 1 15 -5.5

# faces
f 3/1/1 2/1/1 1/1/1
f 4/1/1 2/1/1 3/1/1
f 5/1/1 2/1/1 4/1/1
f 6/1/1 2/1/1 5/1/1
f 7/1/1 2/1/1 6/1/1
f 8/1/1 2/1/1 7/1/1
f 9/1/1 7/1/1 6/1/1
f 10/1/1 7/1/1 9/1/1
f 15/1/1 12/1/1 11/1/1
f 16/1/1 12/1/1 15/1/1
f 18/1/1 14/1/1 13/1/1
f 19/1/1 14/1/1 18/1/1
f 20/1/1 17/1/1 16/1/1
f 21/1/1 17/1/1 20/1/1
f 24/1/1 18/1/1 13/1/1
f 25/1/1 18/1/1 24/1/1
f 26/1/1 22/1/1 21/1/1
f 27/1/1 22/1/1 26/1/1
f 28/1/1 24/1/1 23/1/1
f 29/1/1 24/1/1 28/1/1
f 34/2/2 35/2/2 42/2/2
f 36/2/2 37/2/2 43/2/2
f 43/2/2 37/2/2 44/2/2
f 40/2/2 41/2/2 45/2/2
f 34/2/2 42/2/2 47/2/2
f 42/2/2 43/2/2 47/2/2
f 47/2/2 43/2/2 48/2/2
f 45/2/2 46/2/2 50/2/2
f 40/2/2 45/2/2 50/2/2
f 50/2/2 46/2/2 51/2/2
f 34/2/2 47/2/2 52/2/2
f 48/2/2 49/2/2 53/2/2
f 40/2/2 50/2/2 54/2/2
f 51/2/2 46/2/2 55/2/2
f 34/2/2 52/2/2 56/2/2
f 52/2/2 53/2/2 56/2/2
f 53/2/2 49/2/2 57/2/2
f 56/2/2 53/2/2 57/2/2
f 38/2/2 39/2/2 58/2/2
f 58/2/2 39/2/2 59/2/2
f 54/2/2 55/2/2 60/2/2
f 40/2/2 54/2/2 60/2/2
f 55/2/2 46/2/2 61/2/2
f 60/2/2 55/2/2 61/2/2
f 30/1/2 31/1/2 62/1/2
f 62/1/2 31/1/2 63/1/2
f 32/1/2 33/1/2 64/1/2
f 64/1/2 33/1/2 65/1/2
f 63/1/2 31/1/2 66/1/2
f 66/1/2 31/1/2 67/1/2
f 32/1/2 64/1/2 70/1/2
f 70/1/2 64/1/2 71/1/2
f 67/1/2 68/1/2 72/1/2
f 72/1/2 68/1/2 73/1/2
f 69/1/2 70/1/2 74/1/2
f 74/1/2 70/1/2 75/1/2
f 76/1/2 77/1/2 78/1/2
f 78/1/2 77/1/2 79/1/2
f 79/1/2 77/1/2 80/1/2
f 80/1/2 77/1/2 81/1/2
f 81/1/2 77/1/2 82/1/2
f 82/1/2 77/1/2 83/1/2
f 83/1/2 77/1/2 84/1/2
f 84/1/2 77/1/2 85/1/2
f 79/1/2 80/1/2 86/1/2
f 86/1/2 80/1/2 87/1/2
f 81/1/2 82/1/2 88/1/2
f 85/1/2 77/1/2 89/1/2
f 89/1/2 77/1/2 90/1/2
f 87/1/2 88/1/2 92/1/2
f 88/1/2 82/1/2 93/1/2
f 92/1/2 88/1/2 93/1/2
f 91/1/2 92/1/2 96/1/2
f 96/1/2 92/1/2 97/1/2
f 94/1/2 95/1/2 98/1/2
f 98/1/2 95/1/2 99/1/2
f 76/1/2 78/1/2 100/1/2
f 93/1/2 82/1/2 101/1/2
f 101/1/2 82/1/2 102/1/2
f 83/1/2 84/1/2 103/1/2
f 103/1/2 84/1/2 104/1/2
f 90/1/2 77/1/2 105/1/2
f 103/1/2 104/1/2 106/1/2
f 104/1/2 105/1/2 106/1/2
f 101/1/2 102/1/2 106/1/2
f 102/1/2 103/1/2 106/1/2
f 76/1/2 100/1/2 106/1/2
f 100/1/2 101/1/2 106/1/2
f 106/1/2 105/1/2 107/1/2
f 107/1/2 105/1/2 108/1/2
f 105/1/2 77/1/2 109/1/2
f 108/1/2 105/1/2 109/1/2
f 107/1/2 108/1/2 110/1/2
f 110/1/2 108/1/2 111/1/2
f 114/1/3 113/1/3 112/1/3
f 115/1/3 113/1/3 114/1/3
f 118/1/3 117/1/3 116/1/3
f 119/1/3 117/1/3 118/1/3
f 121/1/3 120/1/3 119/1/3
f 122/1/3 120/1/3 121/1/3
f 125/1/3 124/1/3 123/1/3
f 126/1/3 124/1/3 125/1/3
f 129/1/3 127/1/3 126/1/3
f 130/1/3 127/1/3 129/1/3
f 131/1/3 129/1/3 128/1/3
f 132/1/3 129/1/3 131/1/3
f 135/1/3 134/1/3 133/1/3
f 136/1/3 134/1/3 135/1/3
f 143/1/3 138/1/3 137/1/3
f 144/1/3 138/1/3 143/1/3
f 145/1/3 140/1/3 139/1/3
f 146/1/3 140/1/3 145/1/3
f 147/1/3 142/1/3 141/1/3
f 148/1/3 142/1/3 147/1/3
f 151/1/3 150/1/3 149/1/3
f 152/1/3 150/1/3 151/1/3
f 157/1/3 154/1/3 153/1/3
f 158/1/3 154/1/3 157/1/3
f 159/1/3 156/1/3 155/1/3
f 160/1/3 156/1/3 159/1/3
f 163/1/3 162/1/3 161/1/3
f 164/1/3 162/1/3 163/1/3
f 169/1/3 166/1/3 165/1/3
f 170/1/3 166/1/3 169/1/3
f 171/1/3 168/1/3 167/1/3
f 172/1/3 168/1/3 171/1/3
f 175/1/3 174/1/3 173/1/3
f 176/1/3 174/1/3 175/1/3
f 177/1/4 178/1/4 179/1/4
f 179/1/4 178/1/4 180/1/4
f 181/1/4 182/1/4 185/1/4
f 185/1/4 182/1/4 186/1/4
f 183/1/4 184/1/4 187/1/4
f 187/1/4 184/1/4 188/1/4
f 189/1/4 190/1/4 191/1/4
f 191/1/4 190/1/4 192/1/4
f 193/1/4 194/1/4 195/1/4
f 195/1/4 194/1/4 196/1/4
f 197/1/4 198/1/4 199/1/4
f 199/1/4 198/1/4 200/1/4
f 201/1/4 202/1/4 205/1/4
f 205/1/4 202/1/4 206/1/4
f 203/1/4 204/1/4 207/1/4
f 207/1/4 204/1/4 208/1/4
f 209/1/4 210/1/4 211/1/4
f 211/1/4 210/1/4 212/1/4
f 212/1/4 213/1/4 215/1/4
f 215/1/4 213/1/4 216/1/4
f 214/1/4 215/1/4 217/1/4
f 217/1/4 215/1/4 218/1/4
f 219/1/4 220/1/4 221/1/4
f 221/1/4 220/1/4 222/1/4
f 223/1/4 224/1/4 225/1/4
f 225/1/4 224/1/4 226/1/4
f 230/1/5 228/1/5 227/1/5
f 231/1/5 228/1/5 230/1/5
f 231/1/5 230/1/5 229/1/5
f 233/1/5 231/1/5 229/1/5
f 233/1/5 232/1/5 231/1/5
f 234/1/5 232/1/5 233/1/5
f 235/1/5 232/1/5 234/1/5
f 236/1/5 232/1/5 235/1/5
f 237/1/5 235/1/5 234/1/5
f 238/1/5 235/1/5 237/1/5
f 241/1/5 240/1/5 239/1/5
f 242/1/5 240/1/5 241/1/5
f 245/1/5 244/1/5 243/1/5
f 246/1/5 244/1/5 245/1/5
f 249/1/5 248/1/5 247/1/5
f 250/1/5 248/1/5 249/1/5
f 253/1/5 252/1/5 251/1/5
f 254/1/5 252/1/5 253/1/5
f 257/1/5 256/1/5 255/1/5
f 258/1/5 256/1/5 257/1/5
f 261/1/5 260/1/5 259/1/5
f 262/1/5 260/1/5 261/1/5
f 263/1/6 264/1/6 265/1/6
f 265/1/6 264/1/6 266/1/6
f 267/1/6 268/1/6 269/1/6
f 269/1/6 268/1/6 270/1/6
f 271/1/6 272/1/6 273/1/6
f 273/1/6 272/1/6 274/1/6
f 275/1/6 276/1/6 277/1/6
f 277/1/6 276/1/6 278/1/6
f 279/1/6 280/1/6 281/1/6
f 281/1/6 280/1/6 282/1/6
f 283/1/6 284/1/6 285/1/6
f 285/1/6 284/1/6 286/1/6
f 287/1/6 288/1/6 289/1/6
f 289/1/6 288/1/6 290/1/6
f 291/1/6 292/1/6 293/1/6
f 293/1/6 292/1/6 294/1/6
f 295/1/6 296/1/6 297/1/6
f 297/1/6 296/1/6 298/1/6
f 299/1/6 300/1/6 302/1/6
f 302/1/6 300/1/6 303/1/6
f 301/1/6 302/1/6 304/1/6
f 304/1/6 302/1/6 305/1/6
f 306/1/6 307/1/6 308/1/6
f 308/1/6 307/1/6 309/1/6
f 310/1/6 311/1/6 313/1/6
f 313/1/6 311/1/6 314/1/6
f 312/1/6 313/1/6 316/1/6
f 316/1/6 313/1/6 317/1/6
f 314/1/6 315/1/6 318/1/6
f 318/1/6 315/1/6 319/1/6
f 320/1/6 321/1/6 324/1/6
f 324/1/6 321/1/6 325/1/6
f 322/1/6 323/1/6 326/1/6
f 326/1/6 323/1/6 327/1/6
f 325/1/6 326/1/6 328/1/6
f 328/1/6 326/1/6 329/1/6
f 330/1/6 331/1/6 333/1/6
f 333/1/6 331/1/6 334/1/6
f 332/1/6 333/1/6 336/1/6
f 334/1/6 335/1/6 336/1/6
f 333/1/6 334/1/6 336/1/6
f 336/1/6 335/1/6 337/1/6
f 337/1/6 335/1/6 338/1/6
f 338/1/6 335/1/6 339/1/6
f 337/1/6 338/1/6 340/1/6
f 340/1/6 338/1/6 341/1/6
