# MagicaVoxel @ Ephtracy

# group
g painting:blue-right

# material
mtllib default-material.mtl
usemtl palette

# normals
vn -1 0 0
vn 1 0 0
vn 0 0 1
vn 0 0 -1
vn 0 -1 0
vn 0 1 0

# texcoords
vt 0.392578 0.5
vt 0.580078 0.5
vt 0.673828 0.5
vt 0.701172 0.5
vt 0.724609 0.5
vt 0.802734 0.5
vt 0.958984 0.5

# verts
v -0.5 21 4
v -0.5 21 -4
v -0.5 22 3
v -0.5 22 -3
v -0.5 23 2
v -0.5 23 1
v -0.5 23 -0
v -0.5 23 -1
v -0.5 25 2
v -0.5 25 1
v -0.5 25 -0
v -0.5 25 -1
v -0.5 25 -2
v -0.5 27 2
v -0.5 27 1
v -0.5 27 -0
v -0.5 27 -1
v -0.5 27 -2
v -0.5 29 2
v -0.5 29 1
v -0.5 29 -0
v -0.5 29 -1
v -0.5 30 3
v -0.5 30 -3
v -0.5 31 4
v -0.5 31 -4
v 0.5 21 4
v 0.5 21 -4
v 0.5 22 3
v 0.5 22 -3
v 0.5 23 2
v 0.5 23 1
v 0.5 23 -0
v 0.5 23 -1
v 0.5 25 2
v 0.5 25 1
v 0.5 25 -0
v 0.5 25 -1
v 0.5 25 -2
v 0.5 27 2
v 0.5 27 1
v 0.5 27 -0
v 0.5 27 -1
v 0.5 27 -2
v 0.5 29 2
v 0.5 29 1
v 0.5 29 -0
v 0.5 29 -1
v 0.5 30 3
v 0.5 30 -3
v 0.5 31 4
v 0.5 31 -4
v -0.5 21 4
v -0.5 31 4
v 0.5 21 4
v 0.5 31 4
v -0.5 21 -4
v -0.5 31 -4
v 0.5 21 -4
v 0.5 31 -4
v -0.5 21 4
v 0.5 21 4
v -0.5 21 -4
v 0.5 21 -4
v -0.5 31 4
v 0.5 31 4
v -0.5 31 -4
v 0.5 31 -4

# faces
f 3/1/1 2/1/1 1/1/1
f 4/1/1 2/1/1 3/1/1
f 5/7/1 4/7/1 3/7/1
f 6/7/1 4/7/1 5/7/1
f 7/7/1 4/7/1 6/7/1
f 8/7/1 4/7/1 7/7/1
f 9/7/1 5/7/1 3/7/1
f 9/4/1 6/4/1 5/4/1
f 10/7/1 7/7/1 6/7/1
f 10/4/1 6/4/1 9/4/1
f 11/5/1 8/5/1 7/5/1
f 11/7/1 7/7/1 10/7/1
f 12/7/1 4/7/1 8/7/1
f 12/5/1 8/5/1 11/5/1
f 13/7/1 4/7/1 12/7/1
f 14/7/1 10/7/1 9/7/1
f 14/7/1 9/7/1 3/7/1
f 15/3/1 11/3/1 10/3/1
f 15/7/1 10/7/1 14/7/1
f 16/7/1 12/7/1 11/7/1
f 16/3/1 11/3/1 15/3/1
f 17/2/1 13/2/1 12/2/1
f 17/7/1 12/7/1 16/7/1
f 18/7/1 4/7/1 13/7/1
f 18/2/1 13/2/1 17/2/1
f 19/7/1 14/7/1 3/7/1
f 19/4/1 15/4/1 14/4/1
f 20/7/1 16/7/1 15/7/1
f 20/4/1 15/4/1 19/4/1
f 21/6/1 17/6/1 16/6/1
f 21/7/1 16/7/1 20/7/1
f 22/7/1 18/7/1 17/7/1
f 22/6/1 17/6/1 21/6/1
f 23/1/1 3/1/1 1/1/1
f 23/7/1 20/7/1 19/7/1
f 23/7/1 22/7/1 21/7/1
f 23/7/1 21/7/1 20/7/1
f 23/7/1 19/7/1 3/7/1
f 24/7/1 18/7/1 22/7/1
f 24/7/1 22/7/1 23/7/1
f 24/1/1 2/1/1 4/1/1
f 24/7/1 4/7/1 18/7/1
f 25/1/1 23/1/1 1/1/1
f 25/1/1 24/1/1 23/1/1
f 26/1/1 2/1/1 24/1/1
f 26/1/1 24/1/1 25/1/1
f 27/1/2 28/1/2 29/1/2
f 29/1/2 28/1/2 30/1/2
f 29/7/2 30/7/2 31/7/2
f 31/7/2 30/7/2 32/7/2
f 32/7/2 30/7/2 33/7/2
f 33/7/2 30/7/2 34/7/2
f 29/7/2 31/7/2 35/7/2
f 31/4/2 32/4/2 35/4/2
f 32/7/2 33/7/2 36/7/2
f 35/4/2 32/4/2 36/4/2
f 33/5/2 34/5/2 37/5/2
f 36/7/2 33/7/2 37/7/2
f 34/7/2 30/7/2 38/7/2
f 37/5/2 34/5/2 38/5/2
f 38/7/2 30/7/2 39/7/2
f 35/7/2 36/7/2 40/7/2
f 29/7/2 35/7/2 40/7/2
f 36/3/2 37/3/2 41/3/2
f 40/7/2 36/7/2 41/7/2
f 37/7/2 38/7/2 42/7/2
f 41/3/2 37/3/2 42/3/2
f 38/2/2 39/2/2 43/2/2
f 42/7/2 38/7/2 43/7/2
f 39/7/2 30/7/2 44/7/2
f 43/2/2 39/2/2 44/2/2
f 29/7/2 40/7/2 45/7/2
f 40/4/2 41/4/2 45/4/2
f 41/7/2 42/7/2 46/7/2
f 45/4/2 41/4/2 46/4/2
f 42/6/2 43/6/2 47/6/2
f 46/7/2 42/7/2 47/7/2
f 43/7/2 44/7/2 48/7/2
f 47/6/2 43/6/2 48/6/2
f 27/1/2 29/1/2 49/1/2
f 45/7/2 46/7/2 49/7/2
f 47/7/2 48/7/2 49/7/2
f 46/7/2 47/7/2 49/7/2
f 29/7/2 45/7/2 49/7/2
f 48/7/2 44/7/2 50/7/2
f 49/7/2 48/7/2 50/7/2
f 30/1/2 28/1/2 50/1/2
f 44/7/2 30/7/2 50/7/2
f 27/1/2 49/1/2 51/1/2
f 49/1/2 50/1/2 51/1/2
f 50/1/2 28/1/2 52/1/2
f 51/1/2 50/1/2 52/1/2
f 55/1/3 54/1/3 53/1/3
f 56/1/3 54/1/3 55/1/3
f 57/1/4 58/1/4 59/1/4
f 59/1/4 58/1/4 60/1/4
f 63/1/5 62/1/5 61/1/5
f 64/1/5 62/1/5 63/1/5
f 65/1/6 66/1/6 67/1/6
f 67/1/6 66/1/6 68/1/6
