# MagicaVoxel @ Ephtracy

# group
g player:Basic

# material
mtllib default-material.mtl
usemtl palette

# normals
vn -1 0 0
vn 1 0 0
vn 0 0 1
vn 0 0 -1
vn 0 -1 0
vn 0 1 0

# texcoords
vt 0.00195312 0.5
vt 0.193359 0.5
vt 0.259766 0.5
vt 0.283203 0.5
vt 0.287109 0.5
vt 0.310547 0.5
vt 0.435547 0.5
vt 0.521484 0.5
vt 0.611328 0.5
vt 0.986328 0.5
vt 0.990234 0.5
vt 0.994141 0.5

# verts
v -6 8 5
v -6 8 3
v -6 8 1
v -6 10 9
v -6 10 5
v -6 10 3
v -6 10 1
v -6 12 9
v -6 12 3
v -5 2 1
v -5 2 -7
v -5 8 1
v -5 10 1
v -5 12 1
v -5 12 -7
v -5 15 -1
v -5 15 -3
v -5 19 -1
v -5 19 -3
v -5 21 1
v -5 21 -7
v -4 0 -0
v -4 0 -4
v -4 1 -0
v -4 1 -2
v -4 2 -2
v -4 2 -4
v -1 14 3
v -1 14 1
v -1 15 2
v -1 15 1
v -1 16 3
v -1 16 2
v 2 0 -1
v 2 0 -4
v 2 1 -1
v 2 1 -2
v 2 2 -2
v 2 2 -4
v 3 0 -0
v 3 0 -1
v 3 1 -0
v 3 1 -1
v 3 7 9
v 3 7 8
v 3 8 8
v 3 8 7
v 3 10 8
v 3 10 7
v 3 11 9
v 3 11 8
v 4 7 8
v 4 7 7
v 4 8 8
v 4 8 7
v 4 8 3
v 4 8 1
v 4 10 8
v 4 10 7
v 4 10 3
v 4 10 1
v 4 11 8
v 4 11 7
v -4 8 5
v -4 8 3
v -4 8 1
v -4 10 9
v -4 10 5
v -4 10 3
v -4 10 1
v -4 12 9
v -4 12 3
v -2 0 -0
v -2 0 -4
v -2 1 -0
v -2 1 -2
v -2 2 -2
v -2 2 -4
v 1 14 3
v 1 14 1
v 1 15 2
v 1 15 1
v 1 16 3
v 1 16 2
v 4 0 -0
v 4 0 -4
v 4 1 -0
v 4 1 -2
v 4 2 -2
v 4 2 -4
v 5 2 1
v 5 2 -7
v 5 8 1
v 5 10 1
v 5 12 1
v 5 12 -7
v 5 15 -1
v 5 15 -3
v 5 19 -1
v 5 19 -3
v 5 21 1
v 5 21 -7
v 6 7 8
v 6 7 7
v 6 8 8
v 6 8 7
v 6 8 3
v 6 8 1
v 6 10 8
v 6 10 7
v 6 10 3
v 6 10 1
v 6 11 8
v 6 11 7
v 7 7 9
v 7 7 8
v 7 8 8
v 7 8 7
v 7 10 8
v 7 10 7
v 7 11 9
v 7 11 8
v -6 10 9
v -6 12 9
v -4 10 9
v -4 12 9
v 3 7 9
v 3 11 9
v 4 8 9
v 4 10 9
v 6 8 9
v 6 10 9
v 7 7 9
v 7 11 9
v -6 8 5
v -6 10 5
v -4 8 5
v -4 10 5
v -1 14 3
v -1 16 3
v 1 14 3
v 1 16 3
v -5 2 1
v -5 8 1
v -5 10 1
v -5 12 1
v -5 21 1
v -4 8 1
v -4 10 1
v -4 13 1
v -4 15 1
v -4 16 1
v -4 18 1
v -4 19 1
v -4 20 1
v -2 13 1
v -2 15 1
v -2 16 1
v -2 18 1
v -2 19 1
v -2 20 1
v -1 12 1
v -1 13 1
v -1 14 1
v -1 15 1
v 1 12 1
v 1 13 1
v 1 14 1
v 1 15 1
v 2 13 1
v 2 15 1
v 2 16 1
v 2 18 1
v 2 19 1
v 2 20 1
v 4 8 1
v 4 10 1
v 4 13 1
v 4 15 1
v 4 16 1
v 4 18 1
v 4 19 1
v 4 20 1
v 5 2 1
v 5 8 1
v 5 10 1
v 5 12 1
v 5 21 1
v -4 0 -0
v -4 1 -0
v -2 0 -0
v -2 1 -0
v 3 0 -0
v 3 1 -0
v 4 0 -0
v 4 1 -0
v 2 0 -1
v 2 1 -1
v 3 0 -1
v 3 1 -1
v -4 1 -2
v -4 2 -2
v -2 1 -2
v -2 2 -2
v 2 1 -2
v 2 2 -2
v 4 1 -2
v 4 2 -2
v 3 7 8
v 3 8 8
v 3 10 8
v 3 11 8
v 4 7 8
v 4 8 8
v 4 10 8
v 4 11 8
v 6 7 8
v 6 8 8
v 6 10 8
v 6 11 8
v 7 7 8
v 7 8 8
v 7 10 8
v 7 11 8
v 3 8 7
v 3 10 7
v 4 7 7
v 4 8 7
v 4 10 7
v 4 11 7
v 6 7 7
v 6 8 7
v 6 10 7
v 6 11 7
v 7 8 7
v 7 10 7
v -6 10 3
v -6 12 3
v -4 10 3
v -4 12 3
v -1 15 2
v -1 16 2
v 1 15 2
v 1 16 2
v -6 8 1
v -6 10 1
v -5 8 1
v -5 10 1
v 5 8 1
v 5 10 1
v 6 8 1
v 6 10 1
v -4 0 -4
v -4 2 -4
v -2 0 -4
v -2 2 -4
v 2 0 -4
v 2 2 -4
v 4 0 -4
v 4 2 -4
v -5 2 -7
v -5 12 -7
v -5 21 -7
v 5 2 -7
v 5 12 -7
v 5 21 -7
v -4 0 -0
v -2 0 -0
v 3 0 -0
v 4 0 -0
v 2 0 -1
v 3 0 -1
v -4 0 -4
v -2 0 -4
v 2 0 -4
v 4 0 -4
v -5 2 1
v 5 2 1
v -4 2 -2
v -2 2 -2
v 2 2 -2
v 4 2 -2
v -4 2 -4
v -2 2 -4
v 2 2 -4
v 4 2 -4
v -5 2 -7
v 5 2 -7
v 3 7 9
v 7 7 9
v 3 7 8
v 4 7 8
v 6 7 8
v 7 7 8
v 4 7 7
v 6 7 7
v 3 8 8
v 4 8 8
v 6 8 8
v 7 8 8
v 3 8 7
v 4 8 7
v 6 8 7
v 7 8 7
v -6 8 5
v -4 8 5
v -6 8 3
v -4 8 3
v 4 8 3
v 6 8 3
v -6 8 1
v -5 8 1
v -4 8 1
v 4 8 1
v 5 8 1
v 6 8 1
v -6 10 9
v -4 10 9
v -6 10 5
v -4 10 5
v -1 14 3
v 1 14 3
v -1 14 1
v 1 14 1
v -4 1 -0
v -2 1 -0
v 3 1 -0
v 4 1 -0
v 2 1 -1
v 3 1 -1
v -4 1 -2
v -2 1 -2
v 2 1 -2
v 4 1 -2
v 3 10 8
v 4 10 8
v 6 10 8
v 7 10 8
v 3 10 7
v 4 10 7
v 6 10 7
v 7 10 7
v -6 10 3
v -4 10 3
v 4 10 3
v 6 10 3
v -6 10 1
v -5 10 1
v -4 10 1
v 4 10 1
v 5 10 1
v 6 10 1
v 3 11 9
v 7 11 9
v 3 11 8
v 4 11 8
v 6 11 8
v 7 11 8
v 4 11 7
v 6 11 7
v -6 12 9
v -4 12 9
v -6 12 3
v -4 12 3
v -1 15 2
v 1 15 2
v -1 15 1
v 1 15 1
v -1 16 3
v 1 16 3
v -1 16 2
v 1 16 2
v -5 21 1
v 5 21 1
v -5 21 -7
v 5 21 -7

# faces
f 5/11/1 2/11/1 1/11/1
f 6/5/1 3/5/1 2/5/1
f 6/11/1 2/11/1 5/11/1
f 7/5/1 3/5/1 6/5/1
f 8/11/1 5/11/1 4/11/1
f 8/11/1 6/11/1 5/11/1
f 9/11/1 6/11/1 8/11/1
f 12/6/1 11/6/1 10/6/1
f 13/6/1 11/6/1 12/6/1
f 14/6/1 11/6/1 13/6/1
f 15/6/1 11/6/1 14/6/1
f 16/5/1 15/5/1 14/5/1
f 17/5/1 15/5/1 16/5/1
f 18/5/1 16/5/1 14/5/1
f 18/4/1 17/4/1 16/4/1
f 19/5/1 15/5/1 17/5/1
f 19/4/1 17/4/1 18/4/1
f 20/5/1 18/5/1 14/5/1
f 20/5/1 19/5/1 18/5/1
f 21/5/1 15/5/1 19/5/1
f 21/5/1 19/5/1 20/5/1
f 24/12/1 23/12/1 22/12/1
f 25/12/1 23/12/1 24/12/1
f 26/12/1 23/12/1 25/12/1
f 27/12/1 23/12/1 26/12/1
f 30/5/1 29/5/1 28/5/1
f 31/5/1 29/5/1 30/5/1
f 32/5/1 30/5/1 28/5/1
f 33/5/1 30/5/1 32/5/1
f 36/12/1 35/12/1 34/12/1
f 37/12/1 35/12/1 36/12/1
f 38/12/1 35/12/1 37/12/1
f 39/12/1 35/12/1 38/12/1
f 42/12/1 41/12/1 40/12/1
f 43/12/1 41/12/1 42/12/1
f 46/12/1 45/12/1 44/12/1
f 48/12/1 46/12/1 44/12/1
f 48/12/1 47/12/1 46/12/1
f 49/12/1 47/12/1 48/12/1
f 50/12/1 48/12/1 44/12/1
f 51/12/1 48/12/1 50/12/1
f 54/12/1 53/12/1 52/12/1
f 55/12/1 53/12/1 54/12/1
f 59/12/1 56/12/1 55/12/1
f 60/5/1 57/5/1 56/5/1
f 60/12/1 56/12/1 59/12/1
f 61/5/1 57/5/1 60/5/1
f 62/12/1 59/12/1 58/12/1
f 63/12/1 59/12/1 62/12/1
f 64/11/2 65/11/2 68/11/2
f 65/5/2 66/5/2 69/5/2
f 68/11/2 65/11/2 69/11/2
f 69/5/2 66/5/2 70/5/2
f 67/11/2 68/11/2 71/11/2
f 68/11/2 69/11/2 71/11/2
f 71/11/2 69/11/2 72/11/2
f 73/12/2 74/12/2 75/12/2
f 75/12/2 74/12/2 76/12/2
f 76/12/2 74/12/2 77/12/2
f 77/12/2 74/12/2 78/12/2
f 79/5/2 80/5/2 81/5/2
f 81/5/2 80/5/2 82/5/2
f 79/5/2 81/5/2 83/5/2
f 83/5/2 81/5/2 84/5/2
f 85/12/2 86/12/2 87/12/2
f 87/12/2 86/12/2 88/12/2
f 88/12/2 86/12/2 89/12/2
f 89/12/2 86/12/2 90/12/2
f 91/6/2 92/6/2 93/6/2
f 93/6/2 92/6/2 94/6/2
f 94/6/2 92/6/2 95/6/2
f 95/6/2 92/6/2 96/6/2
f 95/5/2 96/5/2 97/5/2
f 97/5/2 96/5/2 98/5/2
f 95/5/2 97/5/2 99/5/2
f 97/4/2 98/4/2 99/4/2
f 98/5/2 96/5/2 100/5/2
f 99/4/2 98/4/2 100/4/2
f 95/5/2 99/5/2 101/5/2
f 99/5/2 100/5/2 101/5/2
f 100/5/2 96/5/2 102/5/2
f 101/5/2 100/5/2 102/5/2
f 103/12/2 104/12/2 105/12/2
f 105/12/2 104/12/2 106/12/2
f 106/12/2 107/12/2 110/12/2
f 107/5/2 108/5/2 111/5/2
f 110/12/2 107/12/2 111/12/2
f 111/5/2 108/5/2 112/5/2
f 109/12/2 110/12/2 113/12/2
f 113/12/2 110/12/2 114/12/2
f 115/12/2 116/12/2 117/12/2
f 115/12/2 117/12/2 119/12/2
f 117/12/2 118/12/2 119/12/2
f 119/12/2 118/12/2 120/12/2
f 115/12/2 119/12/2 121/12/2
f 121/12/2 119/12/2 122/12/2
f 125/11/3 124/11/3 123/11/3
f 126/11/3 124/11/3 125/11/3
f 129/12/3 128/12/3 127/12/3
f 130/12/3 128/12/3 129/12/3
f 131/12/3 129/12/3 127/12/3
f 131/7/3 130/7/3 129/7/3
f 132/12/3 128/12/3 130/12/3
f 132/7/3 130/7/3 131/7/3
f 133/12/3 131/12/3 127/12/3
f 133/12/3 132/12/3 131/12/3
f 134/12/3 128/12/3 132/12/3
f 134/12/3 132/12/3 133/12/3
f 137/11/3 136/11/3 135/11/3
f 138/11/3 136/11/3 137/11/3
f 141/5/3 140/5/3 139/5/3
f 142/5/3 140/5/3 141/5/3
f 148/6/3 144/6/3 143/6/3
f 149/6/3 146/6/3 145/6/3
f 150/5/3 147/5/3 146/5/3
f 151/5/3 147/5/3 150/5/3
f 152/5/3 147/5/3 151/5/3
f 153/5/3 147/5/3 152/5/3
f 154/5/3 147/5/3 153/5/3
f 155/5/3 147/5/3 154/5/3
f 156/5/3 150/5/3 146/5/3
f 156/2/3 151/2/3 150/2/3
f 157/5/3 152/5/3 151/5/3
f 157/2/3 151/2/3 156/2/3
f 158/12/3 153/12/3 152/12/3
f 158/5/3 152/5/3 157/5/3
f 159/1/3 154/1/3 153/1/3
f 159/12/3 153/12/3 158/12/3
f 160/3/3 155/3/3 154/3/3
f 160/1/3 154/1/3 159/1/3
f 161/5/3 147/5/3 155/5/3
f 161/3/3 155/3/3 160/3/3
f 162/6/3 149/6/3 148/6/3
f 162/6/3 146/6/3 149/6/3
f 162/5/3 161/5/3 160/5/3
f 162/5/3 158/5/3 157/5/3
f 162/5/3 157/5/3 156/5/3
f 162/5/3 156/5/3 146/5/3
f 162/5/3 159/5/3 158/5/3
f 162/5/3 160/5/3 159/5/3
f 163/5/3 161/5/3 162/5/3
f 164/5/3 161/5/3 163/5/3
f 165/5/3 161/5/3 164/5/3
f 166/6/3 162/6/3 148/6/3
f 166/12/3 163/12/3 162/12/3
f 167/5/3 164/5/3 163/5/3
f 167/12/3 163/12/3 166/12/3
f 168/5/3 164/5/3 167/5/3
f 169/5/3 161/5/3 165/5/3
f 170/5/3 168/5/3 167/5/3
f 170/5/3 169/5/3 168/5/3
f 170/5/3 167/5/3 166/5/3
f 171/5/3 161/5/3 169/5/3
f 171/5/3 169/5/3 170/5/3
f 172/5/3 161/5/3 171/5/3
f 173/5/3 161/5/3 172/5/3
f 174/5/3 161/5/3 173/5/3
f 175/5/3 147/5/3 161/5/3
f 175/5/3 161/5/3 174/5/3
f 176/6/3 148/6/3 143/6/3
f 176/6/3 166/6/3 148/6/3
f 177/6/3 166/6/3 176/6/3
f 178/5/3 170/5/3 166/5/3
f 178/2/3 171/2/3 170/2/3
f 179/5/3 172/5/3 171/5/3
f 179/2/3 171/2/3 178/2/3
f 180/12/3 173/12/3 172/12/3
f 180/5/3 172/5/3 179/5/3
f 181/1/3 174/1/3 173/1/3
f 181/12/3 173/12/3 180/12/3
f 182/3/3 175/3/3 174/3/3
f 182/1/3 174/1/3 181/1/3
f 183/5/3 147/5/3 175/5/3
f 183/3/3 175/3/3 182/3/3
f 184/6/3 176/6/3 143/6/3
f 185/6/3 176/6/3 184/6/3
f 186/6/3 166/6/3 177/6/3
f 187/5/3 180/5/3 179/5/3
f 187/6/3 166/6/3 186/6/3
f 187/5/3 182/5/3 181/5/3
f 187/5/3 181/5/3 180/5/3
f 187/5/3 183/5/3 182/5/3
f 187/5/3 179/5/3 178/5/3
f 187/5/3 178/5/3 166/5/3
f 188/5/3 147/5/3 183/5/3
f 188/5/3 183/5/3 187/5/3
f 191/12/3 190/12/3 189/12/3
f 192/12/3 190/12/3 191/12/3
f 195/12/3 194/12/3 193/12/3
f 196/12/3 194/12/3 195/12/3
f 199/12/3 198/12/3 197/12/3
f 200/12/3 198/12/3 199/12/3
f 203/12/3 202/12/3 201/12/3
f 204/12/3 202/12/3 203/12/3
f 207/12/3 206/12/3 205/12/3
f 208/12/3 206/12/3 207/12/3
f 209/12/4 210/12/4 213/12/4
f 213/12/4 210/12/4 214/12/4
f 211/12/4 212/12/4 215/12/4
f 215/12/4 212/12/4 216/12/4
f 217/12/4 218/12/4 221/12/4
f 221/12/4 218/12/4 222/12/4
f 219/12/4 220/12/4 223/12/4
f 223/12/4 220/12/4 224/12/4
f 225/12/4 226/12/4 228/12/4
f 228/12/4 226/12/4 229/12/4
f 227/12/4 228/12/4 231/12/4
f 231/12/4 228/12/4 232/12/4
f 229/12/4 230/12/4 233/12/4
f 233/12/4 230/12/4 234/12/4
f 232/12/4 233/12/4 235/12/4
f 235/12/4 233/12/4 236/12/4
f 237/11/4 238/11/4 239/11/4
f 239/11/4 238/11/4 240/11/4
f 241/5/4 242/5/4 243/5/4
f 243/5/4 242/5/4 244/5/4
f 245/5/4 246/5/4 247/5/4
f 247/5/4 246/5/4 248/5/4
f 249/5/4 250/5/4 251/5/4
f 251/5/4 250/5/4 252/5/4
f 253/12/4 254/12/4 255/12/4
f 255/12/4 254/12/4 256/12/4
f 257/12/4 258/12/4 259/12/4
f 259/12/4 258/12/4 260/12/4
f 261/6/4 262/6/4 264/6/4
f 262/5/4 263/5/4 265/5/4
f 264/6/4 262/6/4 265/6/4
f 265/5/4 263/5/4 266/5/4
f 272/12/5 270/12/5 269/12/5
f 273/12/5 268/12/5 267/12/5
f 274/12/5 268/12/5 273/12/5
f 275/12/5 272/12/5 271/12/5
f 276/12/5 270/12/5 272/12/5
f 276/12/5 272/12/5 275/12/5
f 279/6/5 278/6/5 277/6/5
f 280/6/5 278/6/5 279/6/5
f 281/6/5 278/6/5 280/6/5
f 282/6/5 278/6/5 281/6/5
f 283/6/5 279/6/5 277/6/5
f 284/6/5 281/6/5 280/6/5
f 285/6/5 281/6/5 284/6/5
f 286/6/5 278/6/5 282/6/5
f 287/6/5 285/6/5 284/6/5
f 287/6/5 286/6/5 285/6/5
f 287/6/5 283/6/5 277/6/5
f 287/6/5 284/6/5 283/6/5
f 288/6/5 278/6/5 286/6/5
f 288/6/5 286/6/5 287/6/5
f 291/12/5 290/12/5 289/12/5
f 292/12/5 290/12/5 291/12/5
f 293/12/5 290/12/5 292/12/5
f 294/12/5 290/12/5 293/12/5
f 295/12/5 293/12/5 292/12/5
f 296/12/5 293/12/5 295/12/5
f 301/12/5 298/12/5 297/12/5
f 302/12/5 298/12/5 301/12/5
f 303/12/5 300/12/5 299/12/5
f 304/12/5 300/12/5 303/12/5
f 307/11/5 306/11/5 305/11/5
f 308/11/5 306/11/5 307/11/5
f 309/12/5 303/12/5 302/12/5
f 310/12/5 303/12/5 309/12/5
f 311/5/5 308/5/5 307/5/5
f 312/5/5 308/5/5 311/5/5
f 313/5/5 308/5/5 312/5/5
f 314/5/5 310/5/5 309/5/5
f 315/5/5 310/5/5 314/5/5
f 316/5/5 310/5/5 315/5/5
f 319/11/5 318/11/5 317/11/5
f 320/11/5 318/11/5 319/11/5
f 323/5/5 322/5/5 321/5/5
f 324/5/5 322/5/5 323/5/5
f 327/12/6 328/12/6 330/12/6
f 325/12/6 326/12/6 331/12/6
f 331/12/6 326/12/6 332/12/6
f 329/12/6 330/12/6 333/12/6
f 330/12/6 328/12/6 334/12/6
f 333/12/6 330/12/6 334/12/6
f 335/12/6 336/12/6 339/12/6
f 339/12/6 336/12/6 340/12/6
f 337/12/6 338/12/6 341/12/6
f 341/12/6 338/12/6 342/12/6
f 340/12/6 341/12/6 345/12/6
f 345/12/6 341/12/6 346/12/6
f 343/5/6 344/5/6 347/5/6
f 347/5/6 344/5/6 348/5/6
f 348/5/6 344/5/6 349/5/6
f 345/5/6 346/5/6 350/5/6
f 350/5/6 346/5/6 351/5/6
f 351/5/6 346/5/6 352/5/6
f 353/12/6 354/12/6 355/12/6
f 355/12/6 354/12/6 356/12/6
f 356/12/6 354/12/6 357/12/6
f 357/12/6 354/12/6 358/12/6
f 356/12/6 357/12/6 359/12/6
f 359/12/6 357/12/6 360/12/6
f 361/11/6 362/11/6 363/11/6
f 363/11/6 362/11/6 364/11/6
f 365/5/6 366/5/6 367/5/6
f 367/5/6 366/5/6 368/5/6
f 369/5/6 370/5/6 371/5/6
f 371/5/6 370/5/6 372/5/6
f 373/5/6 374/5/6 375/5/6
f 375/5/6 374/5/6 376/5/6
