# MagicaVoxel @ Ephtracy

# group
g player:og-panda

# material
mtllib default-material.mtl
usemtl palette

# normals
vn -1 0 0
vn 1 0 0
vn 0 0 1
vn 0 0 -1
vn 0 -1 0
vn 0 1 0

# texcoords
vt 0.00195312 0.5
vt 0.287109 0.5
vt 0.310547 0.5
vt 0.435547 0.5
vt 0.482422 0.5
vt 0.521484 0.5
vt 0.611328 0.5
vt 0.736328 0.5
vt 0.916016 0.5
vt 0.962891 0.5
vt 0.986328 0.5
vt 0.990234 0.5
vt 0.994141 0.5

# verts
v -6 8 5
v -6 8 3
v -6 8 1
v -6 10 9
v -6 10 5
v -6 10 3
v -6 10 1
v -6 12 9
v -6 12 3
v -6 12 1
v -6 12 -6
v -6 13 1
v -6 13 -6
v -6 13 -7
v -6 14 -6
v -6 14 -7
v -6 20 -0
v -6 20 -1
v -6 23 -0
v -6 23 -1
v -5 2 1
v -5 2 -7
v -5 6 1
v -5 6 -1
v -5 8 1
v -5 8 -1
v -5 10 1
v -5 11 2
v -5 11 1
v -5 11 -1
v -5 11 -6
v -5 11 -7
v -5 12 2
v -5 12 1
v -5 12 -1
v -5 12 -6
v -5 13 1
v -5 13 -6
v -5 13 -7
v -5 14 -6
v -5 14 -7
v -5 14 -8
v -5 15 -7
v -5 15 -8
v -5 16 1
v -5 16 -0
v -5 19 1
v -5 19 -0
v -5 20 -0
v -5 20 -1
v -5 21 1
v -5 21 -0
v -5 21 -1
v -5 21 -7
v -4 0 -0
v -4 0 -4
v -4 1 -0
v -4 1 -2
v -4 2 -2
v -4 2 -4
v -4 10 2
v -4 10 1
v -4 11 2
v -4 11 1
v -3 9 2
v -3 9 1
v -3 10 2
v -3 10 1
v -2 8 2
v -2 8 1
v -2 9 2
v -2 9 1
v -1 7 2
v -1 7 1
v -1 8 2
v -1 8 1
v -1 14 3
v -1 14 2
v -1 14 1
v -1 16 3
v -1 16 2
v -1 16 1
v 1 8 2
v 1 8 1
v 1 9 2
v 1 9 1
v 2 0 -1
v 2 0 -4
v 2 1 -1
v 2 1 -2
v 2 2 -2
v 2 2 -4
v 2 9 2
v 2 9 1
v 2 10 2
v 2 10 1
v 3 7 9
v 3 7 8
v 3 8 8
v 3 8 7
v 3 10 8
v 3 10 7
v 3 10 2
v 3 10 1
v 3 11 9
v 3 11 8
v 3 11 2
v 3 11 1
v 3 21 -0
v 3 21 -1
v 3 23 -0
v 3 23 -1
v 4 7 8
v 4 7 7
v 4 8 8
v 4 8 7
v 4 8 1
v 4 10 8
v 4 10 7
v 4 10 2
v 4 10 1
v 4 11 8
v 4 11 7
v 4 11 2
v 4 11 1
v 4 12 2
v 4 12 1
v -4 8 5
v -4 8 3
v -4 8 1
v -4 10 9
v -4 10 5
v -4 10 3
v -4 10 2
v -4 10 1
v -4 11 2
v -4 11 1
v -4 12 9
v -4 12 3
v -4 12 2
v -4 12 1
v -3 10 2
v -3 10 1
v -3 11 2
v -3 11 1
v -3 21 -0
v -3 21 -1
v -3 23 -0
v -3 23 -1
v -2 0 -0
v -2 0 -4
v -2 1 -0
v -2 1 -2
v -2 2 -2
v -2 2 -3
v -2 2 -4
v -2 9 2
v -2 9 1
v -2 10 2
v -2 10 1
v -1 8 2
v -1 8 1
v -1 9 2
v -1 9 1
v 1 7 2
v 1 7 1
v 1 8 2
v 1 8 1
v 1 14 3
v 1 14 2
v 1 14 1
v 1 16 3
v 1 16 2
v 1 16 1
v 2 8 2
v 2 8 1
v 2 9 2
v 2 9 1
v 3 9 2
v 3 9 1
v 3 10 2
v 3 10 1
v 4 0 -1
v 4 0 -4
v 4 1 -1
v 4 1 -2
v 4 2 -2
v 4 2 -4
v 4 10 2
v 4 10 1
v 4 11 2
v 4 11 1
v 5 2 1
v 5 2 -7
v 5 6 1
v 5 6 -1
v 5 8 1
v 5 8 -1
v 5 10 1
v 5 10 -0
v 5 11 2
v 5 11 1
v 5 11 -0
v 5 11 -2
v 5 12 2
v 5 12 1
v 5 12 -2
v 5 12 -6
v 5 13 1
v 5 13 -2
v 5 13 -6
v 5 13 -7
v 5 14 -2
v 5 14 -6
v 5 14 -7
v 5 14 -8
v 5 15 -7
v 5 15 -8
v 5 16 1
v 5 16 -0
v 5 19 1
v 5 19 -0
v 5 20 -0
v 5 20 -1
v 5 21 1
v 5 21 -0
v 5 21 -1
v 5 21 -7
v 6 7 8
v 6 7 7
v 6 8 8
v 6 8 7
v 6 8 1
v 6 10 8
v 6 10 7
v 6 10 1
v 6 11 8
v 6 11 7
v 6 12 1
v 6 12 -6
v 6 13 1
v 6 13 -6
v 6 13 -7
v 6 14 -6
v 6 14 -7
v 6 20 -0
v 6 20 -1
v 6 23 -0
v 6 23 -1
v 7 7 9
v 7 7 8
v 7 8 8
v 7 8 7
v 7 10 8
v 7 10 7
v 7 11 9
v 7 11 8
v -6 10 9
v -6 12 9
v -4 10 9
v -4 12 9
v 3 7 9
v 3 11 9
v 4 8 9
v 4 10 9
v 6 8 9
v 6 10 9
v 7 7 9
v 7 11 9
v -6 8 5
v -6 10 5
v -4 8 5
v -4 10 5
v -1 14 3
v -1 16 3
v 1 14 3
v 1 16 3
v -5 11 2
v -5 12 2
v -4 10 2
v -4 11 2
v -4 12 2
v -3 9 2
v -3 10 2
v -3 11 2
v -2 8 2
v -2 9 2
v -2 10 2
v -1 7 2
v -1 8 2
v -1 9 2
v 1 7 2
v 1 8 2
v 1 9 2
v 2 8 2
v 2 9 2
v 2 10 2
v 3 9 2
v 3 10 2
v 3 11 2
v 4 10 2
v 4 11 2
v 4 12 2
v 5 11 2
v 5 12 2
v -6 12 1
v -6 13 1
v -5 2 1
v -5 6 1
v -5 8 1
v -5 10 1
v -5 11 1
v -5 12 1
v -5 13 1
v -5 16 1
v -5 19 1
v -5 21 1
v -4 8 1
v -4 10 1
v -4 11 1
v -4 12 1
v -4 16 1
v -4 18 1
v -4 19 1
v -4 20 1
v -3 5 1
v -3 6 1
v -3 9 1
v -3 10 1
v -3 11 1
v -2 2 1
v -2 5 1
v -2 8 1
v -2 9 1
v -2 10 1
v -2 16 1
v -2 18 1
v -2 19 1
v -2 20 1
v -1 7 1
v -1 8 1
v -1 9 1
v -1 12 1
v -1 13 1
v -1 14 1
v -1 16 1
v 1 2 1
v 1 5 1
v 1 7 1
v 1 8 1
v 1 9 1
v 1 12 1
v 1 13 1
v 1 14 1
v 1 16 1
v 2 5 1
v 2 6 1
v 2 8 1
v 2 9 1
v 2 10 1
v 2 16 1
v 2 18 1
v 2 19 1
v 2 20 1
v 3 9 1
v 3 10 1
v 3 11 1
v 4 8 1
v 4 10 1
v 4 11 1
v 4 12 1
v 4 16 1
v 4 18 1
v 4 19 1
v 4 20 1
v 5 2 1
v 5 6 1
v 5 8 1
v 5 10 1
v 5 11 1
v 5 12 1
v 5 13 1
v 5 16 1
v 5 19 1
v 5 21 1
v 6 12 1
v 6 13 1
v -6 20 -0
v -6 23 -0
v -5 20 -0
v -5 21 -0
v -4 0 -0
v -4 1 -0
v -3 21 -0
v -3 23 -0
v -2 0 -0
v -2 1 -0
v 3 21 -0
v 3 23 -0
v 5 20 -0
v 5 21 -0
v 6 20 -0
v 6 23 -0
v 2 0 -1
v 2 1 -1
v 4 0 -1
v 4 1 -1
v -4 1 -2
v -4 2 -2
v -2 1 -2
v -2 2 -2
v 2 1 -2
v 2 2 -2
v 4 1 -2
v 4 2 -2
v -6 13 -6
v -6 14 -6
v -5 13 -6
v -5 14 -6
v 5 13 -6
v 5 14 -6
v 6 13 -6
v 6 14 -6
v 3 7 8
v 3 8 8
v 3 10 8
v 3 11 8
v 4 7 8
v 4 8 8
v 4 10 8
v 4 11 8
v 6 7 8
v 6 8 8
v 6 10 8
v 6 11 8
v 7 7 8
v 7 8 8
v 7 10 8
v 7 11 8
v 3 8 7
v 3 10 7
v 4 7 7
v 4 8 7
v 4 10 7
v 4 11 7
v 6 7 7
v 6 8 7
v 6 10 7
v 6 11 7
v 7 8 7
v 7 10 7
v -6 10 3
v -6 12 3
v -4 10 3
v -4 12 3
v -6 8 1
v -6 10 1
v -5 8 1
v -5 10 1
v 5 8 1
v 5 10 1
v 6 8 1
v 6 10 1
v -6 20 -1
v -6 23 -1
v -5 20 -1
v -5 21 -1
v -3 21 -1
v -3 23 -1
v 3 21 -1
v 3 23 -1
v 5 20 -1
v 5 21 -1
v 6 20 -1
v 6 23 -1
v -4 0 -4
v -4 2 -4
v -2 0 -4
v -2 2 -4
v 2 0 -4
v 2 2 -4
v 4 0 -4
v 4 2 -4
v -6 12 -6
v -6 13 -6
v -5 12 -6
v -5 13 -6
v 5 12 -6
v 5 13 -6
v 6 12 -6
v 6 13 -6
v -6 13 -7
v -6 14 -7
v -5 2 -7
v -5 11 -7
v -5 13 -7
v -5 14 -7
v -5 15 -7
v -5 21 -7
v -4 9 -7
v -4 11 -7
v -3 6 -7
v -3 9 -7
v -2 2 -7
v -2 6 -7
v 2 2 -7
v 2 7 -7
v 3 7 -7
v 3 9 -7
v 4 9 -7
v 4 13 -7
v 5 2 -7
v 5 13 -7
v 5 14 -7
v 5 15 -7
v 5 21 -7
v 6 13 -7
v 6 14 -7
v -5 14 -8
v -5 15 -8
v 5 14 -8
v 5 15 -8
v -4 0 -0
v -2 0 -0
v 2 0 -1
v 4 0 -1
v -4 0 -4
v -2 0 -4
v 2 0 -4
v 4 0 -4
v -5 2 1
v -2 2 1
v 1 2 1
v 5 2 1
v -2 2 -0
v -1 2 -0
v 0 2 -1
v 1 2 -1
v -4 2 -2
v -2 2 -2
v 0 2 -2
v 1 2 -2
v 2 2 -2
v 4 2 -2
v -2 2 -3
v -1 2 -3
v -4 2 -4
v -2 2 -4
v 2 2 -4
v 4 2 -4
v 1 2 -6
v 2 2 -6
v -5 2 -7
v -2 2 -7
v 2 2 -7
v 5 2 -7
v 3 7 9
v 7 7 9
v 3 7 8
v 4 7 8
v 6 7 8
v 7 7 8
v 4 7 7
v 6 7 7
v -1 7 2
v 1 7 2
v -1 7 1
v 1 7 1
v 3 8 8
v 4 8 8
v 6 8 8
v 7 8 8
v 3 8 7
v 4 8 7
v 6 8 7
v 7 8 7
v -6 8 5
v -4 8 5
v -6 8 3
v -4 8 3
v -2 8 2
v -1 8 2
v 1 8 2
v 2 8 2
v -6 8 1
v -5 8 1
v -4 8 1
v -2 8 1
v -1 8 1
v 1 8 1
v 2 8 1
v 4 8 1
v 5 8 1
v 6 8 1
v -3 9 2
v -2 9 2
v 2 9 2
v 3 9 2
v -3 9 1
v -2 9 1
v 2 9 1
v 3 9 1
v -6 10 9
v -4 10 9
v -6 10 5
v -4 10 5
v -4 10 2
v -3 10 2
v 3 10 2
v 4 10 2
v -4 10 1
v -3 10 1
v 3 10 1
v 4 10 1
v -5 11 2
v -4 11 2
v 4 11 2
v 5 11 2
v -5 11 1
v -4 11 1
v 4 11 1
v 5 11 1
v -6 12 1
v -5 12 1
v 5 12 1
v 6 12 1
v -5 12 -1
v 5 12 -2
v -6 12 -6
v -5 12 -6
v 5 12 -6
v 6 12 -6
v -6 13 -6
v -5 13 -6
v 5 13 -6
v 6 13 -6
v -6 13 -7
v -5 13 -7
v 5 13 -7
v 6 13 -7
v -1 14 3
v 1 14 3
v -1 14 2
v 1 14 2
v -1 14 1
v 1 14 1
v -5 14 -7
v 5 14 -7
v -5 14 -8
v 5 14 -8
v -6 20 -0
v -5 20 -0
v 5 20 -0
v 6 20 -0
v -6 20 -1
v -5 20 -1
v 5 20 -1
v 6 20 -1
v -4 1 -0
v -2 1 -0
v 2 1 -1
v 4 1 -1
v -4 1 -2
v -2 1 -2
v 2 1 -2
v 4 1 -2
v -1 8 2
v 1 8 2
v -1 8 1
v 1 8 1
v -2 9 2
v -1 9 2
v 1 9 2
v 2 9 2
v -2 9 1
v -1 9 1
v 1 9 1
v 2 9 1
v 3 10 8
v 4 10 8
v 6 10 8
v 7 10 8
v 3 10 7
v 4 10 7
v 6 10 7
v 7 10 7
v -6 10 3
v -4 10 3
v -4 10 2
v -3 10 2
v -2 10 2
v 2 10 2
v 3 10 2
v 4 10 2
v -6 10 1
v -5 10 1
v -4 10 1
v -3 10 1
v -2 10 1
v 2 10 1
v 3 10 1
v 4 10 1
v 5 10 1
v 6 10 1
v 3 11 9
v 7 11 9
v 3 11 8
v 4 11 8
v 6 11 8
v 7 11 8
v 4 11 7
v 6 11 7
v -4 11 2
v -3 11 2
v 3 11 2
v 4 11 2
v -4 11 1
v -3 11 1
v 3 11 1
v 4 11 1
v -6 12 9
v -4 12 9
v -6 12 3
v -4 12 3
v -5 12 2
v -4 12 2
v 4 12 2
v 5 12 2
v -5 12 1
v -4 12 1
v 4 12 1
v 5 12 1
v -6 13 1
v -5 13 1
v 5 13 1
v 6 13 1
v 5 13 -2
v -6 13 -6
v -5 13 -6
v 5 13 -6
v 6 13 -6
v -6 14 -6
v -5 14 -6
v 5 14 -6
v 6 14 -6
v -6 14 -7
v -5 14 -7
v 5 14 -7
v 6 14 -7
v -5 15 -7
v 5 15 -7
v -5 15 -8
v 5 15 -8
v -1 16 3
v 1 16 3
v -1 16 2
v 1 16 2
v -1 16 1
v 1 16 1
v -5 21 1
v 5 21 1
v -5 21 -0
v -3 21 -0
v 3 21 -0
v 5 21 -0
v -5 21 -1
v -3 21 -1
v 3 21 -1
v 5 21 -1
v -5 21 -7
v 5 21 -7
v -6 23 -0
v -3 23 -0
v 3 23 -0
v 6 23 -0
v -6 23 -1
v -3 23 -1
v 3 23 -1
v 6 23 -1

# faces
f 5/12/1 2/12/1 1/12/1
f 6/13/1 3/13/1 2/13/1
f 6/12/1 2/12/1 5/12/1
f 7/13/1 3/13/1 6/13/1
f 8/12/1 5/12/1 4/12/1
f 8/12/1 6/12/1 5/12/1
f 9/12/1 6/12/1 8/12/1
f 12/5/1 11/5/1 10/5/1
f 13/5/1 11/5/1 12/5/1
f 15/5/1 14/5/1 13/5/1
f 16/5/1 14/5/1 15/5/1
f 19/13/1 18/13/1 17/13/1
f 20/13/1 18/13/1 19/13/1
f 23/13/1 22/13/1 21/13/1
f 24/13/1 22/13/1 23/13/1
f 25/9/1 24/9/1 23/9/1
f 26/13/1 22/13/1 24/13/1
f 26/9/1 24/9/1 25/9/1
f 27/13/1 26/13/1 25/13/1
f 29/13/1 26/13/1 27/13/1
f 30/13/1 22/13/1 26/13/1
f 30/13/1 26/13/1 29/13/1
f 31/13/1 22/13/1 30/13/1
f 32/13/1 22/13/1 31/13/1
f 33/5/1 29/5/1 28/5/1
f 34/9/1 30/9/1 29/9/1
f 34/5/1 29/5/1 33/5/1
f 35/13/1 31/13/1 30/13/1
f 35/9/1 30/9/1 34/9/1
f 36/9/1 32/9/1 31/9/1
f 36/13/1 31/13/1 35/13/1
f 38/9/1 32/9/1 36/9/1
f 39/9/1 32/9/1 38/9/1
f 40/9/1 38/9/1 37/9/1
f 43/9/1 41/9/1 40/9/1
f 43/5/1 42/5/1 41/5/1
f 44/5/1 42/5/1 43/5/1
f 45/9/1 40/9/1 37/9/1
f 45/9/1 43/9/1 40/9/1
f 46/9/1 43/9/1 45/9/1
f 47/13/1 46/13/1 45/13/1
f 48/9/1 43/9/1 46/9/1
f 48/13/1 46/13/1 47/13/1
f 49/9/1 48/9/1 47/9/1
f 49/9/1 43/9/1 48/9/1
f 50/9/1 43/9/1 49/9/1
f 51/9/1 49/9/1 47/9/1
f 52/9/1 49/9/1 51/9/1
f 53/9/1 43/9/1 50/9/1
f 54/9/1 43/9/1 53/9/1
f 57/13/1 56/13/1 55/13/1
f 58/13/1 56/13/1 57/13/1
f 59/13/1 56/13/1 58/13/1
f 60/13/1 56/13/1 59/13/1
f 63/5/1 62/5/1 61/5/1
f 64/5/1 62/5/1 63/5/1
f 67/5/1 66/5/1 65/5/1
f 68/5/1 66/5/1 67/5/1
f 71/5/1 70/5/1 69/5/1
f 72/5/1 70/5/1 71/5/1
f 75/5/1 74/5/1 73/5/1
f 76/5/1 74/5/1 75/5/1
f 80/13/1 78/13/1 77/13/1
f 81/9/1 79/9/1 78/9/1
f 81/13/1 78/13/1 80/13/1
f 82/9/1 79/9/1 81/9/1
f 85/5/1 84/5/1 83/5/1
f 86/5/1 84/5/1 85/5/1
f 89/13/1 88/13/1 87/13/1
f 90/13/1 88/13/1 89/13/1
f 91/13/1 88/13/1 90/13/1
f 92/13/1 88/13/1 91/13/1
f 95/5/1 94/5/1 93/5/1
f 96/5/1 94/5/1 95/5/1
f 99/13/1 98/13/1 97/13/1
f 101/13/1 99/13/1 97/13/1
f 101/13/1 100/13/1 99/13/1
f 102/13/1 100/13/1 101/13/1
f 105/13/1 101/13/1 97/13/1
f 106/13/1 101/13/1 105/13/1
f 107/5/1 104/5/1 103/5/1
f 108/5/1 104/5/1 107/5/1
f 111/13/1 110/13/1 109/13/1
f 112/13/1 110/13/1 111/13/1
f 115/13/1 114/13/1 113/13/1
f 116/13/1 114/13/1 115/13/1
f 119/13/1 117/13/1 116/13/1
f 120/13/1 117/13/1 119/13/1
f 121/13/1 117/13/1 120/13/1
f 122/13/1 119/13/1 118/13/1
f 123/13/1 119/13/1 122/13/1
f 126/5/1 125/5/1 124/5/1
f 127/5/1 125/5/1 126/5/1
f 128/12/2 129/12/2 132/12/2
f 129/13/2 130/13/2 133/13/2
f 132/12/2 129/12/2 133/12/2
f 133/13/2 130/13/2 134/13/2
f 134/13/2 130/13/2 135/13/2
f 131/12/2 132/12/2 138/12/2
f 132/12/2 133/12/2 138/12/2
f 138/12/2 133/12/2 139/12/2
f 136/5/2 137/5/2 140/5/2
f 140/5/2 137/5/2 141/5/2
f 142/5/2 143/5/2 144/5/2
f 144/5/2 143/5/2 145/5/2
f 146/13/2 147/13/2 148/13/2
f 148/13/2 147/13/2 149/13/2
f 150/13/2 151/13/2 152/13/2
f 152/13/2 151/13/2 153/13/2
f 153/13/2 151/13/2 154/13/2
f 154/13/2 151/13/2 155/13/2
f 155/13/2 151/13/2 156/13/2
f 157/5/2 158/5/2 159/5/2
f 159/5/2 158/5/2 160/5/2
f 161/5/2 162/5/2 163/5/2
f 163/5/2 162/5/2 164/5/2
f 165/5/2 166/5/2 167/5/2
f 167/5/2 166/5/2 168/5/2
f 169/13/2 170/13/2 172/13/2
f 170/9/2 171/9/2 173/9/2
f 172/13/2 170/13/2 173/13/2
f 173/9/2 171/9/2 174/9/2
f 175/5/2 176/5/2 177/5/2
f 177/5/2 176/5/2 178/5/2
f 179/5/2 180/5/2 181/5/2
f 181/5/2 180/5/2 182/5/2
f 183/13/2 184/13/2 185/13/2
f 185/13/2 184/13/2 186/13/2
f 186/13/2 184/13/2 187/13/2
f 187/13/2 184/13/2 188/13/2
f 189/5/2 190/5/2 191/5/2
f 191/5/2 190/5/2 192/5/2
f 193/13/2 194/13/2 195/13/2
f 195/13/2 194/13/2 196/13/2
f 195/9/2 196/9/2 197/9/2
f 196/13/2 194/13/2 198/13/2
f 197/9/2 196/9/2 198/9/2
f 197/13/2 198/13/2 199/13/2
f 199/13/2 198/13/2 200/13/2
f 199/9/2 200/9/2 202/9/2
f 200/13/2 198/13/2 203/13/2
f 202/9/2 200/9/2 203/9/2
f 198/13/2 194/13/2 204/13/2
f 203/13/2 198/13/2 204/13/2
f 201/5/2 202/5/2 205/5/2
f 202/9/2 203/9/2 206/9/2
f 205/5/2 202/5/2 206/5/2
f 203/9/2 204/9/2 206/9/2
f 204/13/2 194/13/2 207/13/2
f 206/9/2 204/9/2 207/9/2
f 207/13/2 194/13/2 208/13/2
f 208/13/2 194/13/2 211/13/2
f 211/13/2 194/13/2 212/13/2
f 209/9/2 210/9/2 213/9/2
f 210/13/2 211/13/2 213/13/2
f 213/13/2 211/13/2 214/13/2
f 214/9/2 215/9/2 217/9/2
f 215/5/2 216/5/2 217/5/2
f 213/9/2 214/9/2 217/9/2
f 217/5/2 216/5/2 218/5/2
f 209/9/2 213/9/2 219/9/2
f 213/9/2 217/9/2 219/9/2
f 219/9/2 217/9/2 220/9/2
f 219/13/2 220/13/2 221/13/2
f 220/9/2 217/9/2 222/9/2
f 221/13/2 220/13/2 222/13/2
f 221/9/2 222/9/2 223/9/2
f 222/9/2 217/9/2 223/9/2
f 223/9/2 217/9/2 224/9/2
f 221/9/2 223/9/2 225/9/2
f 225/9/2 223/9/2 226/9/2
f 224/9/2 217/9/2 227/9/2
f 227/9/2 217/9/2 228/9/2
f 229/13/2 230/13/2 231/13/2
f 231/13/2 230/13/2 232/13/2
f 232/13/2 233/13/2 235/13/2
f 235/13/2 233/13/2 236/13/2
f 234/13/2 235/13/2 237/13/2
f 237/13/2 235/13/2 238/13/2
f 239/5/2 240/5/2 241/5/2
f 241/5/2 240/5/2 242/5/2
f 242/5/2 243/5/2 244/5/2
f 244/5/2 243/5/2 245/5/2
f 246/13/2 247/13/2 248/13/2
f 248/13/2 247/13/2 249/13/2
f 250/13/2 251/13/2 252/13/2
f 250/13/2 252/13/2 254/13/2
f 252/13/2 253/13/2 254/13/2
f 254/13/2 253/13/2 255/13/2
f 250/13/2 254/13/2 256/13/2
f 256/13/2 254/13/2 257/13/2
f 260/12/3 259/12/3 258/12/3
f 261/12/3 259/12/3 260/12/3
f 264/13/3 263/13/3 262/13/3
f 265/13/3 263/13/3 264/13/3
f 266/13/3 264/13/3 262/13/3
f 266/4/3 265/4/3 264/4/3
f 267/13/3 263/13/3 265/13/3
f 267/4/3 265/4/3 266/4/3
f 268/13/3 266/13/3 262/13/3
f 268/13/3 267/13/3 266/13/3
f 269/13/3 263/13/3 267/13/3
f 269/13/3 267/13/3 268/13/3
f 272/12/3 271/12/3 270/12/3
f 273/12/3 271/12/3 272/12/3
f 276/13/3 275/13/3 274/13/3
f 277/13/3 275/13/3 276/13/3
f 281/5/3 279/5/3 278/5/3
f 282/5/3 279/5/3 281/5/3
f 284/5/3 281/5/3 280/5/3
f 285/5/3 281/5/3 284/5/3
f 287/5/3 284/5/3 283/5/3
f 288/5/3 284/5/3 287/5/3
f 290/5/3 287/5/3 286/5/3
f 291/5/3 287/5/3 290/5/3
f 292/5/3 290/5/3 289/5/3
f 293/5/3 290/5/3 292/5/3
f 295/5/3 294/5/3 293/5/3
f 296/5/3 294/5/3 295/5/3
f 298/5/3 297/5/3 296/5/3
f 299/5/3 297/5/3 298/5/3
f 301/5/3 300/5/3 299/5/3
f 302/5/3 300/5/3 301/5/3
f 304/5/3 303/5/3 302/5/3
f 305/5/3 303/5/3 304/5/3
f 313/5/3 307/5/3 306/5/3
f 314/5/3 307/5/3 313/5/3
f 318/9/3 310/9/3 309/9/3
f 319/13/3 312/13/3 311/13/3
f 320/13/3 312/13/3 319/13/3
f 321/9/3 314/9/3 313/9/3
f 321/9/3 315/9/3 314/9/3
f 322/13/3 316/13/3 315/13/3
f 322/9/3 315/9/3 321/9/3
f 323/13/3 316/13/3 322/13/3
f 324/9/3 317/9/3 316/9/3
f 324/13/3 316/13/3 323/13/3
f 325/9/3 317/9/3 324/9/3
f 326/13/3 309/13/3 308/13/3
f 327/9/3 318/9/3 309/9/3
f 327/13/3 309/13/3 326/13/3
f 327/9/3 319/9/3 318/9/3
f 328/9/3 319/9/3 327/9/3
f 329/9/3 319/9/3 328/9/3
f 330/9/3 321/9/3 320/9/3
f 330/9/3 322/9/3 321/9/3
f 331/13/3 326/13/3 308/13/3
f 332/9/3 328/9/3 327/9/3
f 332/13/3 326/13/3 331/13/3
f 332/9/3 327/9/3 326/9/3
f 333/9/3 328/9/3 332/9/3
f 334/9/3 328/9/3 333/9/3
f 335/9/3 330/9/3 329/9/3
f 336/8/3 323/8/3 322/8/3
f 336/9/3 322/9/3 330/9/3
f 336/9/3 330/9/3 335/9/3
f 337/13/3 324/13/3 323/13/3
f 337/8/3 323/8/3 336/8/3
f 338/10/3 325/10/3 324/10/3
f 338/13/3 324/13/3 337/13/3
f 339/9/3 317/9/3 325/9/3
f 339/10/3 325/10/3 338/10/3
f 340/9/3 332/9/3 331/9/3
f 340/9/3 333/9/3 332/9/3
f 341/9/3 333/9/3 340/9/3
f 342/9/3 338/9/3 337/9/3
f 342/9/3 335/9/3 334/9/3
f 342/9/3 337/9/3 336/9/3
f 342/9/3 339/9/3 338/9/3
f 342/9/3 336/9/3 335/9/3
f 343/9/3 339/9/3 342/9/3
f 344/9/3 339/9/3 343/9/3
f 345/9/3 339/9/3 344/9/3
f 346/9/3 339/9/3 345/9/3
f 347/9/3 340/9/3 331/9/3
f 348/9/3 340/9/3 347/9/3
f 349/9/3 340/9/3 348/9/3
f 350/9/3 342/9/3 341/9/3
f 350/9/3 343/9/3 342/9/3
f 351/9/3 343/9/3 350/9/3
f 352/13/3 344/13/3 343/13/3
f 352/9/3 343/9/3 351/9/3
f 353/9/3 345/9/3 344/9/3
f 353/13/3 344/13/3 352/13/3
f 354/9/3 345/9/3 353/9/3
f 355/9/3 339/9/3 346/9/3
f 356/9/3 349/9/3 348/9/3
f 356/13/3 348/13/3 347/13/3
f 356/9/3 350/9/3 349/9/3
f 357/9/3 350/9/3 356/9/3
f 358/9/3 350/9/3 357/9/3
f 359/9/3 354/9/3 353/9/3
f 359/9/3 352/9/3 351/9/3
f 359/9/3 355/9/3 354/9/3
f 359/9/3 353/9/3 352/9/3
f 360/9/3 355/9/3 359/9/3
f 361/9/3 339/9/3 355/9/3
f 361/9/3 355/9/3 360/9/3
f 362/9/3 339/9/3 361/9/3
f 363/9/3 339/9/3 362/9/3
f 364/9/3 317/9/3 339/9/3
f 364/9/3 339/9/3 363/9/3
f 365/9/3 358/9/3 357/9/3
f 365/9/3 359/9/3 358/9/3
f 366/9/3 361/9/3 360/9/3
f 367/9/3 361/9/3 366/9/3
f 368/9/3 365/9/3 357/9/3
f 368/9/3 366/9/3 365/9/3
f 369/9/3 366/9/3 368/9/3
f 370/9/3 361/9/3 367/9/3
f 371/9/3 361/9/3 370/9/3
f 372/8/3 362/8/3 361/8/3
f 372/9/3 361/9/3 371/9/3
f 373/13/3 363/13/3 362/13/3
f 373/8/3 362/8/3 372/8/3
f 374/10/3 364/10/3 363/10/3
f 374/13/3 363/13/3 373/13/3
f 375/9/3 317/9/3 364/9/3
f 375/10/3 364/10/3 374/10/3
f 376/13/3 357/13/3 356/13/3
f 376/13/3 356/13/3 347/13/3
f 377/9/3 368/9/3 357/9/3
f 377/13/3 357/13/3 376/13/3
f 378/9/3 368/9/3 377/9/3
f 379/9/3 370/9/3 369/9/3
f 380/9/3 370/9/3 379/9/3
f 381/9/3 372/9/3 371/9/3
f 382/9/3 372/9/3 381/9/3
f 383/13/3 374/13/3 373/13/3
f 383/9/3 372/9/3 382/9/3
f 383/13/3 373/13/3 372/13/3
f 384/9/3 375/9/3 374/9/3
f 384/13/3 374/13/3 383/13/3
f 385/9/3 317/9/3 375/9/3
f 385/9/3 375/9/3 384/9/3
f 386/5/3 382/5/3 381/5/3
f 387/5/3 382/5/3 386/5/3
f 390/13/3 389/13/3 388/13/3
f 391/13/3 389/13/3 390/13/3
f 394/13/3 389/13/3 391/13/3
f 395/13/3 389/13/3 394/13/3
f 396/13/3 393/13/3 392/13/3
f 397/13/3 393/13/3 396/13/3
f 401/13/3 399/13/3 398/13/3
f 402/13/3 401/13/3 400/13/3
f 403/13/3 399/13/3 401/13/3
f 403/13/3 401/13/3 402/13/3
f 406/13/3 405/13/3 404/13/3
f 407/13/3 405/13/3 406/13/3
f 410/13/3 409/13/3 408/13/3
f 411/13/3 409/13/3 410/13/3
f 414/13/3 413/13/3 412/13/3
f 415/13/3 413/13/3 414/13/3
f 418/5/3 417/5/3 416/5/3
f 419/5/3 417/5/3 418/5/3
f 422/5/3 421/5/3 420/5/3
f 423/5/3 421/5/3 422/5/3
f 424/13/4 425/13/4 428/13/4
f 428/13/4 425/13/4 429/13/4
f 426/13/4 427/13/4 430/13/4
f 430/13/4 427/13/4 431/13/4
f 432/13/4 433/13/4 436/13/4
f 436/13/4 433/13/4 437/13/4
f 434/13/4 435/13/4 438/13/4
f 438/13/4 435/13/4 439/13/4
f 440/13/4 441/13/4 443/13/4
f 443/13/4 441/13/4 444/13/4
f 442/13/4 443/13/4 446/13/4
f 446/13/4 443/13/4 447/13/4
f 444/13/4 445/13/4 448/13/4
f 448/13/4 445/13/4 449/13/4
f 447/13/4 448/13/4 450/13/4
f 450/13/4 448/13/4 451/13/4
f 452/12/4 453/12/4 454/12/4
f 454/12/4 453/12/4 455/12/4
f 456/13/4 457/13/4 458/13/4
f 458/13/4 457/13/4 459/13/4
f 460/13/4 461/13/4 462/13/4
f 462/13/4 461/13/4 463/13/4
f 464/13/4 465/13/4 466/13/4
f 466/13/4 465/13/4 467/13/4
f 467/13/4 465/13/4 468/13/4
f 468/13/4 465/13/4 469/13/4
f 470/13/4 471/13/4 473/13/4
f 472/13/4 473/13/4 474/13/4
f 473/13/4 471/13/4 475/13/4
f 474/13/4 473/13/4 475/13/4
f 476/13/4 477/13/4 478/13/4
f 478/13/4 477/13/4 479/13/4
f 480/13/4 481/13/4 482/13/4
f 482/13/4 481/13/4 483/13/4
f 484/5/4 485/5/4 486/5/4
f 486/5/4 485/5/4 487/5/4
f 488/5/4 489/5/4 490/5/4
f 490/5/4 489/5/4 491/5/4
f 492/5/4 493/5/4 496/5/4
f 496/5/4 493/5/4 497/5/4
f 494/13/4 495/13/4 500/13/4
f 495/9/4 496/9/4 501/9/4
f 500/13/4 495/13/4 501/13/4
f 496/9/4 497/9/4 501/9/4
f 494/13/4 500/13/4 502/13/4
f 500/9/4 501/9/4 503/9/4
f 502/13/4 500/13/4 503/13/4
f 494/13/4 502/13/4 504/13/4
f 502/9/4 503/9/4 505/9/4
f 504/13/4 502/13/4 505/13/4
f 504/9/4 505/9/4 506/9/4
f 505/9/4 503/9/4 507/9/4
f 506/9/4 505/9/4 507/9/4
f 506/13/4 507/13/4 508/13/4
f 507/9/4 503/9/4 508/9/4
f 503/9/4 501/9/4 509/9/4
f 508/9/4 503/9/4 509/9/4
f 508/13/4 509/13/4 510/13/4
f 509/9/4 501/9/4 510/9/4
f 501/9/4 497/9/4 511/9/4
f 510/9/4 501/9/4 511/9/4
f 508/13/4 510/13/4 512/13/4
f 506/13/4 508/13/4 512/13/4
f 510/13/4 511/13/4 512/13/4
f 511/9/4 497/9/4 513/9/4
f 512/13/4 511/13/4 513/13/4
f 513/9/4 497/9/4 514/9/4
f 498/9/4 499/9/4 515/9/4
f 515/9/4 499/9/4 516/9/4
f 513/5/4 514/5/4 517/5/4
f 517/5/4 514/5/4 518/5/4
f 519/5/4 520/5/4 521/5/4
f 521/5/4 520/5/4 522/5/4
f 527/13/5 524/13/5 523/13/5
f 528/13/5 524/13/5 527/13/5
f 529/13/5 526/13/5 525/13/5
f 530/13/5 526/13/5 529/13/5
f 535/13/5 532/13/5 531/13/5
f 535/9/5 533/9/5 532/9/5
f 536/9/5 533/9/5 535/9/5
f 537/9/5 533/9/5 536/9/5
f 538/13/5 534/13/5 533/13/5
f 538/9/5 533/9/5 537/9/5
f 539/13/5 535/13/5 531/13/5
f 539/13/5 536/13/5 535/13/5
f 540/13/5 536/13/5 539/13/5
f 541/9/5 537/9/5 536/9/5
f 541/13/5 538/13/5 537/13/5
f 542/13/5 534/13/5 538/13/5
f 542/13/5 538/13/5 541/13/5
f 543/13/5 534/13/5 542/13/5
f 544/13/5 534/13/5 543/13/5
f 545/13/5 536/13/5 540/13/5
f 546/9/5 541/9/5 536/9/5
f 546/13/5 536/13/5 545/13/5
f 546/9/5 542/9/5 541/9/5
f 547/13/5 539/13/5 531/13/5
f 548/9/5 546/9/5 545/9/5
f 549/13/5 543/13/5 542/13/5
f 550/13/5 534/13/5 544/13/5
f 551/13/5 549/13/5 542/13/5
f 551/13/5 550/13/5 549/13/5
f 551/9/5 542/9/5 546/9/5
f 551/9/5 546/9/5 548/9/5
f 552/13/5 550/13/5 551/13/5
f 553/13/5 548/13/5 547/13/5
f 553/13/5 547/13/5 531/13/5
f 554/9/5 552/9/5 551/9/5
f 554/13/5 548/13/5 553/13/5
f 554/9/5 551/9/5 548/9/5
f 555/13/5 550/13/5 552/13/5
f 555/9/5 552/9/5 554/9/5
f 556/13/5 534/13/5 550/13/5
f 556/13/5 550/13/5 555/13/5
f 559/13/5 558/13/5 557/13/5
f 560/13/5 558/13/5 559/13/5
f 561/13/5 558/13/5 560/13/5
f 562/13/5 558/13/5 561/13/5
f 563/13/5 561/13/5 560/13/5
f 564/13/5 561/13/5 563/13/5
f 567/5/5 566/5/5 565/5/5
f 568/5/5 566/5/5 567/5/5
f 573/13/5 570/13/5 569/13/5
f 574/13/5 570/13/5 573/13/5
f 575/13/5 572/13/5 571/13/5
f 576/13/5 572/13/5 575/13/5
f 579/12/5 578/12/5 577/12/5
f 580/12/5 578/12/5 579/12/5
f 585/13/5 580/13/5 579/13/5
f 586/13/5 580/13/5 585/13/5
f 587/13/5 580/13/5 586/13/5
f 588/5/5 582/5/5 581/5/5
f 589/5/5 582/5/5 588/5/5
f 590/5/5 584/5/5 583/5/5
f 591/5/5 584/5/5 590/5/5
f 592/13/5 575/13/5 574/13/5
f 593/13/5 575/13/5 592/13/5
f 594/13/5 575/13/5 593/13/5
f 599/5/5 596/5/5 595/5/5
f 600/5/5 596/5/5 599/5/5
f 601/5/5 598/5/5 597/5/5
f 602/5/5 598/5/5 601/5/5
f 605/12/5 604/12/5 603/12/5
f 606/12/5 604/12/5 605/12/5
f 611/5/5 608/5/5 607/5/5
f 612/5/5 608/5/5 611/5/5
f 613/5/5 610/5/5 609/5/5
f 614/5/5 610/5/5 613/5/5
f 619/5/5 616/5/5 615/5/5
f 620/5/5 616/5/5 619/5/5
f 621/5/5 618/5/5 617/5/5
f 622/5/5 618/5/5 621/5/5
f 627/5/5 624/5/5 623/5/5
f 628/5/5 626/5/5 625/5/5
f 629/5/5 627/5/5 623/5/5
f 630/5/5 627/5/5 629/5/5
f 631/5/5 626/5/5 628/5/5
f 632/5/5 626/5/5 631/5/5
f 637/5/5 634/5/5 633/5/5
f 638/5/5 634/5/5 637/5/5
f 639/5/5 636/5/5 635/5/5
f 640/5/5 636/5/5 639/5/5
f 643/13/5 642/13/5 641/13/5
f 644/13/5 642/13/5 643/13/5
f 645/9/5 644/9/5 643/9/5
f 646/9/5 644/9/5 645/9/5
f 649/5/5 648/5/5 647/5/5
f 650/5/5 648/5/5 649/5/5
f 655/13/5 652/13/5 651/13/5
f 656/13/5 652/13/5 655/13/5
f 657/13/5 654/13/5 653/13/5
f 658/13/5 654/13/5 657/13/5
f 659/13/6 660/13/6 663/13/6
f 663/13/6 660/13/6 664/13/6
f 661/13/6 662/13/6 665/13/6
f 665/13/6 662/13/6 666/13/6
f 667/5/6 668/5/6 669/5/6
f 669/5/6 668/5/6 670/5/6
f 671/5/6 672/5/6 675/5/6
f 675/5/6 672/5/6 676/5/6
f 673/5/6 674/5/6 677/5/6
f 677/5/6 674/5/6 678/5/6
f 679/13/6 680/13/6 683/13/6
f 683/13/6 680/13/6 684/13/6
f 681/13/6 682/13/6 685/13/6
f 685/13/6 682/13/6 686/13/6
f 687/13/6 688/13/6 689/13/6
f 684/13/6 685/13/6 694/13/6
f 687/13/6 689/13/6 695/13/6
f 695/13/6 689/13/6 696/13/6
f 696/13/6 689/13/6 697/13/6
f 690/5/6 691/5/6 698/5/6
f 698/5/6 691/5/6 699/5/6
f 692/5/6 693/5/6 700/5/6
f 700/5/6 693/5/6 701/5/6
f 694/13/6 685/13/6 702/13/6
f 702/13/6 685/13/6 703/13/6
f 703/13/6 685/13/6 704/13/6
f 705/13/6 706/13/6 707/13/6
f 707/13/6 706/13/6 708/13/6
f 708/13/6 706/13/6 709/13/6
f 709/13/6 706/13/6 710/13/6
f 708/13/6 709/13/6 711/13/6
f 711/13/6 709/13/6 712/13/6
f 713/5/6 714/5/6 717/5/6
f 717/5/6 714/5/6 718/5/6
f 715/5/6 716/5/6 719/5/6
f 719/5/6 716/5/6 720/5/6
f 721/12/6 722/12/6 723/12/6
f 723/12/6 722/12/6 724/12/6
f 725/5/6 726/5/6 729/5/6
f 729/5/6 726/5/6 730/5/6
f 727/5/6 728/5/6 731/5/6
f 731/5/6 728/5/6 732/5/6
f 735/5/6 736/5/6 737/5/6
f 733/5/6 734/5/6 738/5/6
f 738/5/6 734/5/6 739/5/6
f 737/5/6 736/5/6 740/5/6
f 740/5/6 736/5/6 741/5/6
f 742/5/6 743/5/6 746/5/6
f 746/5/6 743/5/6 747/5/6
f 744/5/6 745/5/6 748/5/6
f 748/5/6 745/5/6 749/5/6
f 750/5/6 751/5/6 752/5/6
f 752/5/6 751/5/6 753/5/6
f 754/13/6 755/13/6 756/13/6
f 756/13/6 755/13/6 757/13/6
f 756/9/6 757/9/6 758/9/6
f 758/9/6 757/9/6 759/9/6
f 760/9/6 761/9/6 762/9/6
f 762/9/6 761/9/6 763/9/6
f 763/9/6 761/9/6 764/9/6
f 764/9/6 761/9/6 765/9/6
f 763/9/6 764/9/6 767/9/6
f 767/9/6 764/9/6 768/9/6
f 766/9/6 767/9/6 770/9/6
f 768/9/6 769/9/6 770/9/6
f 767/9/6 768/9/6 770/9/6
f 770/9/6 769/9/6 771/9/6
f 772/13/6 773/13/6 776/13/6
f 776/13/6 773/13/6 777/13/6
f 774/13/6 775/13/6 778/13/6
f 778/13/6 775/13/6 779/13/6
