# MagicaVoxel @ Ephtracy

# group
g RV:White-Door

# material
mtllib default-material.mtl
usemtl palette

# normals
vn -1 0 0
vn 1 0 0
vn 0 0 1
vn 0 0 -1
vn 0 -1 0
vn 0 1 0

# texcoords
vt 0.923828 0.5
vt 0.962891 0.5
vt 0.982422 0.5
vt 0.994141 0.5

# verts
v -8 0 2
v -8 0 -2
v -8 30 2
v -8 30 -2
v 5 19 2
v 5 19 -2
v 5 20 2
v 5 20 -2
v 5 27 2
v 5 27 -2
v 5 28 2
v 5 28 -2
v 6 20 2
v 6 20 -2
v 6 27 2
v 6 27 -2
v 7 13 -1
v 7 13 -2
v 7 14 -1
v 7 14 -2
v 7 16 -1
v 7 16 -2
v 7 17 -1
v 7 17 -2
v -6 20 2
v -6 20 -2
v -6 27 2
v -6 27 -2
v -5 19 2
v -5 19 -2
v -5 20 2
v -5 20 -2
v -5 27 2
v -5 27 -2
v -5 28 2
v -5 28 -2
v 4 13 -1
v 4 13 -2
v 4 14 -1
v 4 14 -2
v 4 16 -1
v 4 16 -2
v 4 17 -1
v 4 17 -2
v 8 0 2
v 8 0 -2
v 8 30 2
v 8 30 -2
v -8 0 2
v -8 30 2
v -7 20 2
v -7 27 2
v -6 19 2
v -6 20 2
v -6 27 2
v -6 28 2
v -5 18 2
v -5 19 2
v -5 20 2
v -5 27 2
v -5 28 2
v -5 29 2
v 4 9 2
v 4 12 2
v 5 18 2
v 5 19 2
v 5 20 2
v 5 27 2
v 5 28 2
v 5 29 2
v 6 9 2
v 6 12 2
v 6 19 2
v 6 20 2
v 6 27 2
v 6 28 2
v 7 20 2
v 7 27 2
v 8 0 2
v 8 30 2
v 4 13 -1
v 4 14 -1
v 4 16 -1
v 4 17 -1
v 7 13 -1
v 7 14 -1
v 7 16 -1
v 7 17 -1
v -8 0 -2
v -8 30 -2
v -7 20 -2
v -7 27 -2
v -6 19 -2
v -6 20 -2
v -6 27 -2
v -6 28 -2
v -5 18 -2
v -5 19 -2
v -5 20 -2
v -5 27 -2
v -5 28 -2
v -5 29 -2
v 4 13 -2
v 4 14 -2
v 4 16 -2
v 4 17 -2
v 5 18 -2
v 5 19 -2
v 5 20 -2
v 5 27 -2
v 5 28 -2
v 5 29 -2
v 6 19 -2
v 6 20 -2
v 6 27 -2
v 6 28 -2
v 7 13 -2
v 7 14 -2
v 7 16 -2
v 7 17 -2
v 7 20 -2
v 7 27 -2
v 8 0 -2
v 8 30 -2
v -8 0 2
v 8 0 2
v -8 0 -2
v 8 0 -2
v 4 14 -1
v 7 14 -1
v 4 14 -2
v 7 14 -2
v 4 17 -1
v 7 17 -1
v 4 17 -2
v 7 17 -2
v -6 27 2
v -5 27 2
v 5 27 2
v 6 27 2
v -6 27 -2
v -5 27 -2
v 5 27 -2
v 6 27 -2
v -5 28 2
v 5 28 2
v -5 28 -2
v 5 28 -2
v 4 13 -1
v 7 13 -1
v 4 13 -2
v 7 13 -2
v 4 16 -1
v 7 16 -1
v 4 16 -2
v 7 16 -2
v -5 19 2
v 5 19 2
v -5 19 -2
v 5 19 -2
v -6 20 2
v -5 20 2
v 5 20 2
v 6 20 2
v -6 20 -2
v -5 20 -2
v 5 20 -2
v 6 20 -2
v -8 30 2
v 8 30 2
v -8 30 -2
v 8 30 -2

# faces
f 3/2/1 2/2/1 1/2/1
f 4/2/1 2/2/1 3/2/1
f 7/4/1 6/4/1 5/4/1
f 8/4/1 6/4/1 7/4/1
f 11/4/1 10/4/1 9/4/1
f 12/4/1 10/4/1 11/4/1
f 15/4/1 14/4/1 13/4/1
f 16/4/1 14/4/1 15/4/1
f 19/2/1 18/2/1 17/2/1
f 20/2/1 18/2/1 19/2/1
f 23/2/1 22/2/1 21/2/1
f 24/2/1 22/2/1 23/2/1
f 25/4/2 26/4/2 27/4/2
f 27/4/2 26/4/2 28/4/2
f 29/4/2 30/4/2 31/4/2
f 31/4/2 30/4/2 32/4/2
f 33/4/2 34/4/2 35/4/2
f 35/4/2 34/4/2 36/4/2
f 37/2/2 38/2/2 39/2/2
f 39/2/2 38/2/2 40/2/2
f 41/2/2 42/2/2 43/2/2
f 43/2/2 42/2/2 44/2/2
f 45/2/2 46/2/2 47/2/2
f 47/2/2 46/2/2 48/2/2
f 51/2/3 50/2/3 49/2/3
f 52/2/3 50/2/3 51/2/3
f 53/2/3 51/2/3 49/2/3
f 54/4/3 52/4/3 51/4/3
f 54/2/3 51/2/3 53/2/3
f 55/2/3 50/2/3 52/2/3
f 55/4/3 52/4/3 54/4/3
f 56/2/3 50/2/3 55/2/3
f 57/2/3 53/2/3 49/2/3
f 58/4/3 54/4/3 53/4/3
f 58/2/3 53/2/3 57/2/3
f 59/4/3 54/4/3 58/4/3
f 60/4/3 56/4/3 55/4/3
f 61/2/3 50/2/3 56/2/3
f 61/4/3 56/4/3 60/4/3
f 62/2/3 50/2/3 61/2/3
f 63/2/3 57/2/3 49/2/3
f 64/2/3 57/2/3 63/2/3
f 65/4/3 58/4/3 57/4/3
f 65/2/3 57/2/3 64/2/3
f 66/4/3 58/4/3 65/4/3
f 69/4/3 62/4/3 61/4/3
f 70/2/3 50/2/3 62/2/3
f 70/4/3 62/4/3 69/4/3
f 71/4/3 64/4/3 63/4/3
f 71/2/3 63/2/3 49/2/3
f 72/2/3 65/2/3 64/2/3
f 72/4/3 64/4/3 71/4/3
f 72/2/3 66/2/3 65/2/3
f 73/4/3 67/4/3 66/4/3
f 73/2/3 66/2/3 72/2/3
f 74/4/3 67/4/3 73/4/3
f 75/4/3 69/4/3 68/4/3
f 76/2/3 70/2/3 69/2/3
f 76/4/3 69/4/3 75/4/3
f 77/2/3 74/2/3 73/2/3
f 77/2/3 72/2/3 71/2/3
f 77/4/3 75/4/3 74/4/3
f 77/2/3 73/2/3 72/2/3
f 78/2/3 76/2/3 75/2/3
f 78/4/3 75/4/3 77/4/3
f 79/2/3 77/2/3 71/2/3
f 79/2/3 71/2/3 49/2/3
f 79/2/3 78/2/3 77/2/3
f 80/2/3 70/2/3 76/2/3
f 80/2/3 78/2/3 79/2/3
f 80/2/3 76/2/3 78/2/3
f 80/2/3 50/2/3 70/2/3
f 81/2/4 82/2/4 85/2/4
f 85/2/4 82/2/4 86/2/4
f 83/2/4 84/2/4 87/2/4
f 87/2/4 84/2/4 88/2/4
f 89/2/4 90/2/4 91/2/4
f 91/2/4 90/2/4 92/2/4
f 89/2/4 91/2/4 93/2/4
f 91/4/4 92/4/4 94/4/4
f 93/2/4 91/2/4 94/2/4
f 92/2/4 90/2/4 95/2/4
f 94/4/4 92/4/4 95/4/4
f 95/2/4 90/2/4 96/2/4
f 89/2/4 93/2/4 97/2/4
f 93/4/4 94/4/4 98/4/4
f 97/2/4 93/2/4 98/2/4
f 98/4/4 94/4/4 99/4/4
f 95/4/4 96/4/4 100/4/4
f 96/2/4 90/2/4 101/2/4
f 100/4/4 96/4/4 101/4/4
f 101/2/4 90/2/4 102/2/4
f 89/2/4 97/2/4 103/2/4
f 103/2/4 97/2/4 104/2/4
f 104/2/4 97/2/4 105/2/4
f 105/2/4 97/2/4 106/2/4
f 97/4/4 98/4/4 107/4/4
f 106/2/4 97/2/4 107/2/4
f 107/4/4 98/4/4 108/4/4
f 101/4/4 102/4/4 111/4/4
f 102/2/4 90/2/4 112/2/4
f 111/4/4 102/4/4 112/4/4
f 108/4/4 109/4/4 113/4/4
f 107/2/4 108/2/4 113/2/4
f 113/4/4 109/4/4 114/4/4
f 110/4/4 111/4/4 115/4/4
f 111/2/4 112/2/4 116/2/4
f 115/4/4 111/4/4 116/4/4
f 89/2/4 103/2/4 117/2/4
f 104/4/4 105/4/4 118/4/4
f 118/4/4 105/4/4 119/4/4
f 113/2/4 114/2/4 120/2/4
f 106/2/4 107/2/4 120/2/4
f 107/2/4 113/2/4 120/2/4
f 114/4/4 115/4/4 121/4/4
f 120/2/4 114/2/4 121/2/4
f 115/2/4 116/2/4 122/2/4
f 121/4/4 115/4/4 122/4/4
f 118/2/4 119/2/4 123/2/4
f 89/2/4 117/2/4 123/2/4
f 121/2/4 122/2/4 123/2/4
f 117/2/4 118/2/4 123/2/4
f 120/2/4 121/2/4 123/2/4
f 119/2/4 120/2/4 123/2/4
f 122/2/4 116/2/4 124/2/4
f 123/2/4 122/2/4 124/2/4
f 112/2/4 90/2/4 124/2/4
f 116/2/4 112/2/4 124/2/4
f 127/2/5 126/2/5 125/2/5
f 128/2/5 126/2/5 127/2/5
f 131/4/5 130/4/5 129/4/5
f 132/4/5 130/4/5 131/4/5
f 135/2/5 134/2/5 133/2/5
f 136/2/5 134/2/5 135/2/5
f 141/4/5 138/4/5 137/4/5
f 142/4/5 138/4/5 141/4/5
f 143/4/5 140/4/5 139/4/5
f 144/4/5 140/4/5 143/4/5
f 147/4/5 146/4/5 145/4/5
f 148/4/5 146/4/5 147/4/5
f 149/2/6 150/2/6 151/2/6
f 151/2/6 150/2/6 152/2/6
f 153/4/6 154/4/6 155/4/6
f 155/4/6 154/4/6 156/4/6
f 157/4/6 158/4/6 159/4/6
f 159/4/6 158/4/6 160/4/6
f 161/4/6 162/4/6 165/4/6
f 165/4/6 162/4/6 166/4/6
f 163/4/6 164/4/6 167/4/6
f 167/4/6 164/4/6 168/4/6
f 169/2/6 170/2/6 171/2/6
f 171/2/6 170/2/6 172/2/6
