<?xml version="1.0" encoding="UTF-8" standalone="no"?>
<!DOCTYPE svg PUBLIC "-//W3C//DTD SVG 1.1//EN" "http://www.w3.org/Graphics/SVG/1.1/DTD/svg11.dtd">
<svg width="100%" height="100%" viewBox="0 0 256 256" version="1.1" xmlns="http://www.w3.org/2000/svg" xmlns:xlink="http://www.w3.org/1999/xlink" xml:space="preserve" xmlns:serif="http://www.serif.com/" style="fill-rule:evenodd;clip-rule:evenodd;stroke-linejoin:round;stroke-miterlimit:2;">
    <g transform="matrix(1,0,0,1,-2119,-329.042)">
        <g id="Artboard1" transform="matrix(1,0,0,1,2118.92,329.042)">
            <rect x="0.084" y="0" width="255.916" height="256" style="fill:none;"/>
            <clipPath id="_clip1">
                <rect x="0.084" y="0" width="255.916" height="256"/>
            </clipPath>
            <g clip-path="url(#_clip1)">
                <g transform="matrix(0.444883,0,0,0.444883,-7.03389,-7.11813)">
                    <path d="M304,592C430.2,592 500.356,592 546.178,546.178C592,500.356 592,430.2 592,304C592,177.8 592,107.644 546.178,61.822C500.356,16 430.2,16 304,16C177.8,16 107.644,16 61.822,61.822C16,107.644 16,177.8 16,304C16,430.2 16,500.356 61.822,546.178C107.644,592 177.8,592 304,592Z" style="fill:url(#_Linear2);fill-rule:nonzero;"/>
                </g>
                <g transform="matrix(0.339837,0,0,0.339837,41.1967,40.9595)">
                    <path d="M256,16C123.5,16 16,123.5 16,256C16,388.5 123.5,496 256,496C388.5,496 495.1,388.5 495.1,256C495.1,123.5 388.5,16 256,16ZM422,160L373.3,160C366.909,132.59 357.91,107.82 346.82,86.9C378.2,103.8 404.2,129.2 422,160ZM336,256C336,272.98 334.705,288.82 332.824,304L179.2,304C177.3,288.8 176,272.1 176,256C176,239.9 177.295,223.18 179.176,208L332.776,208C334.7,223.2 336,239 336,256ZM256,448C234.21,448 205.13,411.58 188.72,352L323.32,352C306.9,411.6 277.8,448 256,448ZM188.7,160C205.1,100.4 234.2,64 256,64C277.8,64 306.87,100.42 323.28,160L188.7,160ZM165.2,86.9C154.1,107.8 145.1,132.6 138.7,160L89.98,160C107.8,129.2 133.8,103.8 165.2,86.9ZM70.32,208L130.57,208C128.9,223.5 128,239.6 128,256C128,272.4 128.9,288.5 130.6,304L70.32,304C66.34,288.6 64,272.6 64,256C64,239.4 66.34,223.4 70.32,208ZM89.98,352L138.7,352C145.091,379.41 154.09,404.18 165.18,425.1C133.8,408.2 107.8,382.8 89.98,352ZM346.8,425.1C357.9,404.2 366.9,379.4 373.3,352L422.04,352C404.2,382.8 378.2,408.2 346.8,425.1ZM441.7,304L381.45,304C383.13,288.49 384.02,272.44 384.02,256C384.02,239.56 383.129,223.51 381.45,208L441.7,208C445.7,223.4 448,239.4 448,256C448,272.6 445.7,288.6 441.7,304Z" style="fill:url(#_Linear3);fill-rule:nonzero;"/>
                </g>
            </g>
        </g>
    </g>
    <defs>
        <linearGradient id="_Linear2" x1="0" y1="0" x2="1" y2="0" gradientUnits="userSpaceOnUse" gradientTransform="matrix(0.662747,575.432,-575.432,0.662747,303.621,15.9053)"><stop offset="0" style="stop-color:rgb(158,146,239);stop-opacity:1"/><stop offset="1" style="stop-color:rgb(116,104,191);stop-opacity:1"/></linearGradient>
        <linearGradient id="_Linear3" x1="0" y1="0" x2="1" y2="0" gradientUnits="userSpaceOnUse" gradientTransform="matrix(-0.619719,-480,480.902,-0.620883,256.17,496)"><stop offset="0" style="stop-color:rgb(246,239,255);stop-opacity:1"/><stop offset="1" style="stop-color:white;stop-opacity:1"/></linearGradient>
    </defs>
</svg>
