<?xml version="1.0" encoding="UTF-8" standalone="no"?>
<!DOCTYPE svg PUBLIC "-//W3C//DTD SVG 1.1//EN" "http://www.w3.org/Graphics/SVG/1.1/DTD/svg11.dtd">
<svg width="100%" height="100%" viewBox="0 0 256 256" version="1.1" xmlns="http://www.w3.org/2000/svg" xmlns:xlink="http://www.w3.org/1999/xlink" xml:space="preserve" xmlns:serif="http://www.serif.com/" style="fill-rule:evenodd;clip-rule:evenodd;stroke-linejoin:round;stroke-miterlimit:2;">
    <g transform="matrix(1,0,0,1,-2119,-642.042)">
        <g id="Artboard1" transform="matrix(1,0,0,1,2118.92,642.042)">
            <rect x="0.084" y="0" width="255.916" height="256" style="fill:none;"/>
            <clipPath id="_clip1">
                <rect x="0.084" y="0" width="255.916" height="256"/>
            </clipPath>
            <g clip-path="url(#_clip1)">
                <g transform="matrix(0.444883,0,0,0.444883,-7.03389,-7.11813)">
                    <path d="M304,592C430.2,592 500.356,592 546.178,546.178C592,500.356 592,430.2 592,304C592,177.8 592,107.644 546.178,61.822C500.356,16 430.2,16 304,16C177.8,16 107.644,16 61.822,61.822C16,107.644 16,177.8 16,304C16,430.2 16,500.356 61.822,546.178C107.644,592 177.8,592 304,592Z" style="fill:url(#_Linear2);fill-rule:nonzero;"/>
                </g>
                <g transform="matrix(0.318596,0,0,0.318596,47.3759,46.4394)">
                    <path d="M480,288L32,288C14.38,288 0,302.38 0,320L0,448C0,465.62 14.38,480 32,480L480,480C497.62,480 512,465.62 512,448L512,320C512,302.4 497.6,288 480,288ZM352,408C338.75,408 328,397.25 328,384C328,370.75 338.75,360 352,360C365.25,360 376,370.75 376,384C376,397.25 365.3,408 352,408ZM416,408C402.75,408 392,397.25 392,384C392,370.75 402.75,360 416,360C429.25,360 440,370.75 440,384C440,397.25 429.3,408 416,408ZM480,32L32,32C14.38,32 0,46.38 0,64L0,192C0,209.62 14.38,224 32,224L480,224C497.62,224 512,209.62 512,192L512,64C512,46.38 497.6,32 480,32ZM352,152C338.75,152 328,141.25 328,128C328,114.75 338.8,104 352,104C365.2,104 376,114.8 376,128C376,141.2 365.3,152 352,152ZM416,152C402.75,152 392,141.25 392,128C392,114.75 402.8,104 416,104C429.2,104 440,114.8 440,128C440,141.2 429.3,152 416,152Z" style="fill:url(#_Linear3);fill-rule:nonzero;"/>
                </g>
            </g>
        </g>
    </g>
    <defs>
        <linearGradient id="_Linear2" x1="0" y1="0" x2="1" y2="0" gradientUnits="userSpaceOnUse" gradientTransform="matrix(0.662747,575.432,-575.432,0.662747,303.621,15.9053)"><stop offset="0" style="stop-color:rgb(158,146,239);stop-opacity:1"/><stop offset="1" style="stop-color:rgb(116,104,191);stop-opacity:1"/></linearGradient>
        <linearGradient id="_Linear3" x1="0" y1="0" x2="1" y2="0" gradientUnits="userSpaceOnUse" gradientTransform="matrix(2.27857,448,-392,1.99375,253.721,32)"><stop offset="0" style="stop-color:rgb(252,252,252);stop-opacity:1"/><stop offset="1" style="stop-color:rgb(246,240,255);stop-opacity:1"/></linearGradient>
    </defs>
</svg>
