<?xml version="1.0" encoding="UTF-8" standalone="no"?>
<!DOCTYPE svg PUBLIC "-//W3C//DTD SVG 1.1//EN" "http://www.w3.org/Graphics/SVG/1.1/DTD/svg11.dtd">
<svg width="100%" height="100%" viewBox="0 0 256 256" version="1.1" xmlns="http://www.w3.org/2000/svg" xmlns:xlink="http://www.w3.org/1999/xlink" xml:space="preserve" xmlns:serif="http://www.serif.com/" style="fill-rule:evenodd;clip-rule:evenodd;stroke-linejoin:round;stroke-miterlimit:2;">
    <g transform="matrix(1,0,0,1,-1456.08,-987.042)">
        <g id="Artboard1" transform="matrix(1,0,0,1,1456,987.042)">
            <rect x="0.084" y="0" width="255.916" height="256" style="fill:none;"/>
            <clipPath id="_clip1">
                <rect x="0.084" y="0" width="255.916" height="256"/>
            </clipPath>
            <g clip-path="url(#_clip1)">
                <g transform="matrix(0.444883,0,0,0.444883,-7.03389,-7.11813)">
                    <path d="M304,592C430.2,592 500.356,592 546.178,546.178C592,500.356 592,430.2 592,304C592,177.8 592,107.644 546.178,61.822C500.356,16 430.2,16 304,16C177.8,16 107.644,16 61.822,61.822C16,107.644 16,177.8 16,304C16,430.2 16,500.356 61.822,546.178C107.644,592 177.8,592 304,592Z" style="fill:url(#_Linear2);fill-rule:nonzero;"/>
                </g>
                <g transform="matrix(0.318031,0,0,0.318598,46.4641,51.5654)">
                    <path d="M223.7,130.8L149.1,7.77C147.1,2.949 141.9,0 136.3,0L16.03,0C3.08,0 -4.5,14.58 2.93,25.18L114.23,184.08C143.9,156.4 181.7,137.3 223.7,130.8ZM256,160C158.75,160 80,238.75 80,336C80,433.25 158.8,512 256,512C353.2,512 432,433.25 432,336C432,238.75 353.3,160 256,160ZM348.5,317.3L310.62,354.3L319.495,406.55C321.12,415.8 311.245,423.05 302.865,418.55L255.985,393.93L209.1,418.5C200.725,423 190.85,415.75 192.47,406.5L201.345,354.25L163.465,317.25C156.6,310.6 160.5,299 169.9,297.6L222.28,289.975L245.7,242.5C247.7,238.25 251.825,236.125 255.95,236.125C260.075,236.125 264.2,238.3 266.2,242.5L289.7,290L342.08,297.625C351.6,299 355.4,310.6 348.5,317.3ZM495.1,0L375.7,0C370.079,0 364.87,2.949 361.98,7.77L288.22,129.87C330.22,136.37 368.1,155.49 397.72,183.25L509.02,24.35C516.5,14.58 508.9,0 495.1,0Z" style="fill:url(#_Linear3);fill-rule:nonzero;"/>
                </g>
            </g>
        </g>
    </g>
    <defs>
        <linearGradient id="_Linear2" x1="0" y1="0" x2="1" y2="0" gradientUnits="userSpaceOnUse" gradientTransform="matrix(0.662747,575.432,-575.432,0.662747,303.621,15.9053)"><stop offset="0" style="stop-color:rgb(245,196,72);stop-opacity:1"/><stop offset="1" style="stop-color:rgb(238,147,67);stop-opacity:1"/></linearGradient>
        <linearGradient id="_Linear3" x1="0" y1="0" x2="1" y2="0" gradientUnits="userSpaceOnUse" gradientTransform="matrix(0.52977,511.471,-513.345,0.52982,255.98,0)"><stop offset="0" style="stop-color:white;stop-opacity:1"/><stop offset="1" style="stop-color:rgb(255,233,209);stop-opacity:1"/></linearGradient>
    </defs>
</svg>
