<?xml version="1.0" encoding="UTF-8" standalone="no"?><!DOCTYPE svg PUBLIC "-//W3C//DTD SVG 1.1//EN" "http://www.w3.org/Graphics/SVG/1.1/DTD/svg11.dtd"><svg width="100%" height="100%" viewBox="0 0 32 32" version="1.1" xmlns="http://www.w3.org/2000/svg" xmlns:xlink="http://www.w3.org/1999/xlink" xml:space="preserve" xmlns:serif="http://www.serif.com/" style="fill-rule:evenodd;clip-rule:evenodd;stroke-linejoin:round;stroke-miterlimit:2;"><path id="Back" d="M10,1.767c0,-0.423 -0.344,-0.767 -0.767,-0.767l-5.751,0c-1.922,0 -3.482,1.56 -3.482,3.482l0,23.036c0,1.922 1.56,3.482 3.482,3.482l5.751,0c0.423,0 0.767,-0.344 0.767,-0.767l0,-28.466Z" style="fill:#fff;"/><path id="Leg" d="M26.626,20.742c-0.843,-1.513 -2.756,-2.742 -4.27,-2.742l-8.804,-0c-0.466,-0 -0.633,0.378 -0.374,0.844l5.247,9.414c0.843,1.513 2.757,2.742 4.27,2.742l8.804,-0c0.466,-0 0.633,-0.378 0.374,-0.844l-5.247,-9.414Z" style="fill:#fff;"/><path id="Head" d="M20,1c3.863,-0 7,3.137 7,7c0,3.863 -3.137,7 -7,7l-6.176,-0c-0.455,-0 -0.824,-0.369 -0.824,-0.824l0,-12.352c0,-0.455 0.369,-0.824 0.824,-0.824l6.176,-0Z" style="fill:#fff;"/></svg>