<?xml version="1.0" encoding="UTF-8" standalone="no"?>
<!DOCTYPE svg PUBLIC "-//W3C//DTD SVG 1.1//EN" "http://www.w3.org/Graphics/SVG/1.1/DTD/svg11.dtd">
<svg width="100%" height="100%" viewBox="0 0 256 256" version="1.1" xmlns="http://www.w3.org/2000/svg" xmlns:xlink="http://www.w3.org/1999/xlink" xml:space="preserve" xmlns:serif="http://www.serif.com/" style="fill-rule:evenodd;clip-rule:evenodd;stroke-linejoin:round;stroke-miterlimit:2;">
    <g transform="matrix(1,0,0,1,-2119,-3)">
        <g id="Artboard1" transform="matrix(1,0,0,1,2118.92,3)">
            <rect x="0.084" y="0" width="255.916" height="256" style="fill:none;"/>
            <clipPath id="_clip1">
                <rect x="0.084" y="0" width="255.916" height="256"/>
            </clipPath>
            <g clip-path="url(#_clip1)">
                <g transform="matrix(0.444883,0,0,0.444883,-7.03389,-7.11813)">
                    <path d="M304,592C430.2,592 500.356,592 546.178,546.178C592,500.356 592,430.2 592,304C592,177.8 592,107.644 546.178,61.822C500.356,16 430.2,16 304,16C177.8,16 107.644,16 61.822,61.822C16,107.644 16,177.8 16,304C16,430.2 16,500.356 61.822,546.178C107.644,592 177.8,592 304,592Z" style="fill:url(#_Linear2);fill-rule:nonzero;"/>
                </g>
                <g transform="matrix(0.318598,0,0,0.318598,66.8714,46.3969)">
                    <path d="M240,384L144,384C135.2,384 128,391.2 128,400C128,408.8 135.2,416 144,416L240,416C248.838,416 256,408.836 256,400C256,391.2 248.8,384 240,384ZM288,0L96,0C51.82,0 16,35.82 16,80L16,432C16,476.2 51.82,512 96,512L288,512C332.18,512 368,476.18 368,432L368,80C368,35.82 332.2,0 288,0ZM304,432C304,440.822 296.822,448 288,448L96,448C87.178,448 80,440.822 80,432L80,80C80,71.18 87.18,64 96,64L128,64L128,80C128,88.84 135.2,96 144,96L240,96C248.8,96 256,88.84 256,80L256,64L288,64C296.822,64 304,71.178 304,80L304,432Z" style="fill:url(#_Linear3);fill-rule:nonzero;"/>
                </g>
            </g>
        </g>
    </g>
    <defs>
        <linearGradient id="_Linear2" x1="0" y1="0" x2="1" y2="0" gradientUnits="userSpaceOnUse" gradientTransform="matrix(0.662747,575.432,-575.432,0.662747,303.621,15.9053)"><stop offset="0" style="stop-color:rgb(158,146,239);stop-opacity:1"/><stop offset="1" style="stop-color:rgb(116,104,191);stop-opacity:1"/></linearGradient>
        <linearGradient id="_Linear3" x1="0" y1="0" x2="1" y2="0" gradientUnits="userSpaceOnUse" gradientTransform="matrix(2.80798,512,-744.727,4.08433,192,0)"><stop offset="0" style="stop-color:rgb(252,252,252);stop-opacity:1"/><stop offset="1" style="stop-color:rgb(246,240,255);stop-opacity:1"/></linearGradient>
    </defs>
</svg>
