<?xml version="1.0" encoding="UTF-8" standalone="no"?>
<!DOCTYPE svg PUBLIC "-//W3C//DTD SVG 1.1//EN" "http://www.w3.org/Graphics/SVG/1.1/DTD/svg11.dtd">
<svg width="100%" height="100%" viewBox="0 0 256 256" version="1.1" xmlns="http://www.w3.org/2000/svg" xmlns:xlink="http://www.w3.org/1999/xlink" xml:space="preserve" xmlns:serif="http://www.serif.com/" style="fill-rule:evenodd;clip-rule:evenodd;stroke-linejoin:round;stroke-miterlimit:2;">
    <g transform="matrix(1,0,0,1,-1456.08,-642.042)">
        <g id="Artboard1" transform="matrix(1,0,0,1,1456,642.042)">
            <rect x="0.084" y="0" width="255.916" height="256" style="fill:none;"/>
            <clipPath id="_clip1">
                <rect x="0.084" y="0" width="255.916" height="256"/>
            </clipPath>
            <g clip-path="url(#_clip1)">
                <g transform="matrix(0.444883,0,0,0.444883,-7.03389,-7.11813)">
                    <path d="M304,592C430.2,592 500.356,592 546.178,546.178C592,500.356 592,430.2 592,304C592,177.8 592,107.644 546.178,61.822C500.356,16 430.2,16 304,16C177.8,16 107.644,16 61.822,61.822C16,107.644 16,177.8 16,304C16,430.2 16,500.356 61.822,546.178C107.644,592 177.8,592 304,592Z" style="fill:url(#_Linear2);fill-rule:nonzero;"/>
                </g>
                <g transform="matrix(0.31797,0,0,0.318598,46.6346,46.3969)">
                    <path d="M48.22,345.6L166.42,463.8L226.6,441.23L70.79,285.4L48.22,345.6ZM2.035,468.7C-2.371,480.45 0.504,493.7 9.379,502.58C15.47,508.7 23.66,512 32,512C35.781,512 39.594,511.344 43.25,509.969L133.5,476.129L35.87,378.499L2.035,468.7ZM150.6,201.4C142.9,193.7 131.8,190.5 121.2,192.7C110.58,195.012 101.83,202.544 98.01,212.73L83.13,252.5L259.53,428.9L299.28,414C309.47,410.188 317,401.44 319.31,390.81C321.591,380.19 318.342,369.09 310.654,361.4L150.6,201.4ZM184,160C189.438,160 194.87,158.188 199.37,154.438C235.34,124.438 255.99,80.378 255.99,33.538L255.99,24C255.99,10.75 245.24,0 232.89,0C220.54,0 209.79,10.75 209.79,24L209.79,33.531C209.79,66.091 195.45,96.721 170.42,117.561C158.4,126.1 157.1,141.2 165.6,151.4C170.3,157.1 177.1,160 184,160ZM64,63.1C81.67,63.1 95.1,48.77 95.1,32C95.1,14.33 80.78,0.9 64,0.9C47.22,0.9 32,14.33 32,32C32,49.67 46.33,63.1 64,63.1ZM487.1,256L477.569,256C431.6,256 387.6,276.7 357.6,312.6C349.1,322.79 350.475,337.91 360.662,346.41C365.1,350.2 370.6,352 375.1,352C381.975,352 388.79,349.062 393.54,343.375C415.3,318.3 445.9,304 478.5,304L488.031,304C501.281,304 511.131,293.25 511.131,280C511.131,266.75 501.2,256 487.1,256ZM389.7,176C410.58,151.53 409.07,127.81 407.95,110.5C406.981,95.53 406.888,88.53 414.794,79.28C422.669,70.061 429.574,69.09 444.454,67.75C461.704,66.188 485.364,64.062 506.294,39.59C514.888,29.53 513.732,14.37 503.638,5.75C493.608,-2.75 478.478,-1.688 469.798,8.406C461.923,17.625 455.018,18.596 440.138,19.936C422.888,21.498 399.228,23.624 378.298,48.096C357.418,72.566 358.928,96.286 360.048,113.596C361.017,128.566 361.11,135.566 353.204,144.816C345.36,154.004 338.454,154.976 323.614,156.316C306.364,157.847 282.704,159.941 261.804,184.406C253.2,194.5 254.3,209.7 264.4,218.3C268.9,222.1 274.5,224 279.1,224C285.881,224 292.6,221.156 297.35,215.594C305.194,206.406 312.1,205.434 326.91,204.094C345.1,202.6 368.7,200.5 389.7,176ZM479.1,416C461.43,416 448,430.33 448,447.1C448,464.77 462.33,478.2 479.1,478.2C495.87,478.2 510.2,463.87 510.2,447.1C511.1,430.3 497.7,416 479.1,416ZM479.1,128C461.43,128 448,142.33 448,159.1C448,176.77 462.33,190.2 479.1,190.2C495.87,190.2 510.2,175.87 510.2,159.1C511.1,142.3 497.7,128 479.1,128Z" style="fill:url(#_Linear3);fill-rule:nonzero;"/>
                </g>
            </g>
        </g>
    </g>
    <defs>
        <linearGradient id="_Linear2" x1="0" y1="0" x2="1" y2="0" gradientUnits="userSpaceOnUse" gradientTransform="matrix(0.662747,575.432,-575.432,0.662747,303.621,15.9053)"><stop offset="0" style="stop-color:rgb(245,196,72);stop-opacity:1"/><stop offset="1" style="stop-color:rgb(238,147,67);stop-opacity:1"/></linearGradient>
        <linearGradient id="_Linear3" x1="0" y1="0" x2="1" y2="0" gradientUnits="userSpaceOnUse" gradientTransform="matrix(0.52987,512,-513.974,0.52982,256.023,0)"><stop offset="0" style="stop-color:white;stop-opacity:1"/><stop offset="1" style="stop-color:rgb(255,233,209);stop-opacity:1"/></linearGradient>
    </defs>
</svg>
