# MagicaVoxel @ Ephtracy

# group
g map-12

# material
mtllib map-12.mtl
usemtl palette

# normals
vn -1 0 0
vn 1 0 0
vn 0 0 1
vn 0 0 -1
vn 0 -1 0
vn 0 1 0

# texcoords
vt 0.00195312 0.5
vt 0.916016 0.5
vt 0.955078 0.5

# verts
v -3.5 4 1
v -3.5 4 -1
v -3.5 6 1
v -3.5 6 -1
v -2.5 0 2
v -2.5 0 -2
v -2.5 1 2
v -2.5 1 -2
v -2.5 3 2
v -2.5 3 -2
v -1.5 0 3
v -1.5 0 2
v -1.5 0 -2
v -1.5 0 -3
v -1.5 1 3
v -1.5 1 2
v -1.5 1 -2
v -1.5 1 -3
v -1.5 3 3
v -1.5 3 2
v -1.5 3 1
v -1.5 3 -1
v -1.5 3 -2
v -1.5 3 -3
v -1.5 5 1
v -1.5 5 -1
v -0.5 3 2
v -0.5 3 1
v -0.5 3 -1
v -0.5 3 -2
v -0.5 5 2
v -0.5 5 1
v -0.5 5 -1
v -0.5 5 -2
v -0.5 6 2
v -0.5 6 1
v -0.5 6 -1
v -0.5 6 -2
v -2.5 4 1
v -2.5 4 -1
v -2.5 5 1
v -2.5 5 -1
v 1.5 3 2
v 1.5 3 1
v 1.5 3 -1
v 1.5 3 -2
v 1.5 5 2
v 1.5 5 1
v 1.5 5 -1
v 1.5 5 -2
v 1.5 6 2
v 1.5 6 1
v 1.5 6 -1
v 1.5 6 -2
v 2.5 0 3
v 2.5 0 2
v 2.5 0 -2
v 2.5 0 -3
v 2.5 1 3
v 2.5 1 2
v 2.5 1 -2
v 2.5 1 -3
v 2.5 3 3
v 2.5 3 2
v 2.5 3 1
v 2.5 3 -1
v 2.5 3 -2
v 2.5 3 -3
v 2.5 5 1
v 2.5 5 -1
v 2.5 6 1
v 2.5 6 -1
v 3.5 0 2
v 3.5 0 -2
v 3.5 1 2
v 3.5 1 -2
v 3.5 3 2
v 3.5 3 -2
v -1.5 0 3
v -1.5 1 3
v -1.5 3 3
v 2.5 0 3
v 2.5 1 3
v 2.5 3 3
v -2.5 0 2
v -2.5 1 2
v -2.5 3 2
v -1.5 0 2
v -1.5 1 2
v -1.5 3 2
v -0.5 3 2
v -0.5 5 2
v -0.5 6 2
v 1.5 3 2
v 1.5 5 2
v 1.5 6 2
v 2.5 0 2
v 2.5 1 2
v 2.5 3 2
v 3.5 0 2
v 3.5 1 2
v 3.5 3 2
v -3.5 4 1
v -3.5 6 1
v -2.5 4 1
v -2.5 5 1
v -1.5 3 1
v -1.5 5 1
v -0.5 3 1
v -0.5 5 1
v -0.5 6 1
v 1.5 3 1
v 1.5 5 1
v 1.5 6 1
v 2.5 3 1
v 2.5 5 1
v 2.5 6 1
v -3.5 4 -1
v -3.5 6 -1
v -2.5 4 -1
v -2.5 5 -1
v -1.5 3 -1
v -1.5 5 -1
v -0.5 3 -1
v -0.5 5 -1
v -0.5 6 -1
v 1.5 3 -1
v 1.5 5 -1
v 1.5 6 -1
v 2.5 3 -1
v 2.5 5 -1
v 2.5 6 -1
v -2.5 0 -2
v -2.5 1 -2
v -2.5 3 -2
v -1.5 0 -2
v -1.5 1 -2
v -1.5 3 -2
v -0.5 3 -2
v -0.5 5 -2
v -0.5 6 -2
v 1.5 3 -2
v 1.5 5 -2
v 1.5 6 -2
v 2.5 0 -2
v 2.5 1 -2
v 2.5 3 -2
v 3.5 0 -2
v 3.5 1 -2
v 3.5 3 -2
v -1.5 0 -3
v -1.5 1 -3
v -1.5 3 -3
v 2.5 0 -3
v 2.5 1 -3
v 2.5 3 -3
v -1.5 0 3
v 2.5 0 3
v -2.5 0 2
v -1.5 0 2
v 2.5 0 2
v 3.5 0 2
v -2.5 0 -2
v -1.5 0 -2
v 2.5 0 -2
v 3.5 0 -2
v -1.5 0 -3
v 2.5 0 -3
v -3.5 4 1
v -2.5 4 1
v -3.5 4 -1
v -2.5 4 -1
v -2.5 5 1
v -1.5 5 1
v -2.5 5 -1
v -1.5 5 -1
v -1.5 3 3
v 2.5 3 3
v -2.5 3 2
v -1.5 3 2
v -0.5 3 2
v 1.5 3 2
v 2.5 3 2
v 3.5 3 2
v -1.5 3 1
v -0.5 3 1
v 1.5 3 1
v 2.5 3 1
v -1.5 3 -1
v -0.5 3 -1
v 1.5 3 -1
v 2.5 3 -1
v -2.5 3 -2
v -1.5 3 -2
v -0.5 3 -2
v 1.5 3 -2
v 2.5 3 -2
v 3.5 3 -2
v -1.5 3 -3
v 2.5 3 -3
v -0.5 6 2
v 1.5 6 2
v -3.5 6 1
v -0.5 6 1
v 1.5 6 1
v 2.5 6 1
v -3.5 6 -1
v -0.5 6 -1
v 1.5 6 -1
v 2.5 6 -1
v -0.5 6 -2
v 1.5 6 -2

# faces
f 3/1/1 2/1/1 1/1/1
f 4/1/1 2/1/1 3/1/1
f 7/2/1 6/2/1 5/2/1
f 8/2/1 6/2/1 7/2/1
f 9/3/1 8/3/1 7/3/1
f 10/3/1 8/3/1 9/3/1
f 15/2/1 12/2/1 11/2/1
f 16/2/1 12/2/1 15/2/1
f 17/2/1 14/2/1 13/2/1
f 18/2/1 14/2/1 17/2/1
f 19/3/1 16/3/1 15/3/1
f 20/3/1 16/3/1 19/3/1
f 23/3/1 18/3/1 17/3/1
f 24/3/1 18/3/1 23/3/1
f 25/3/1 22/3/1 21/3/1
f 26/3/1 22/3/1 25/3/1
f 31/3/1 28/3/1 27/3/1
f 32/3/1 28/3/1 31/3/1
f 33/3/1 30/3/1 29/3/1
f 34/3/1 30/3/1 33/3/1
f 35/1/1 32/1/1 31/1/1
f 36/1/1 32/1/1 35/1/1
f 37/1/1 34/1/1 33/1/1
f 38/1/1 34/1/1 37/1/1
f 39/1/2 40/1/2 41/1/2
f 41/1/2 40/1/2 42/1/2
f 43/3/2 44/3/2 47/3/2
f 47/3/2 44/3/2 48/3/2
f 45/3/2 46/3/2 49/3/2
f 49/3/2 46/3/2 50/3/2
f 47/1/2 48/1/2 51/1/2
f 51/1/2 48/1/2 52/1/2
f 49/1/2 50/1/2 53/1/2
f 53/1/2 50/1/2 54/1/2
f 55/2/2 56/2/2 59/2/2
f 59/2/2 56/2/2 60/2/2
f 57/2/2 58/2/2 61/2/2
f 61/2/2 58/2/2 62/2/2
f 59/3/2 60/3/2 63/3/2
f 63/3/2 60/3/2 64/3/2
f 61/3/2 62/3/2 67/3/2
f 67/3/2 62/3/2 68/3/2
f 65/3/2 66/3/2 69/3/2
f 69/3/2 66/3/2 70/3/2
f 69/1/2 70/1/2 71/1/2
f 71/1/2 70/1/2 72/1/2
f 73/2/2 74/2/2 75/2/2
f 75/2/2 74/2/2 76/2/2
f 75/3/2 76/3/2 77/3/2
f 77/3/2 76/3/2 78/3/2
f 82/2/3 80/2/3 79/2/3
f 83/3/3 81/3/3 80/3/3
f 83/2/3 80/2/3 82/2/3
f 84/3/3 81/3/3 83/3/3
f 88/2/3 86/2/3 85/2/3
f 89/3/3 87/3/3 86/3/3
f 89/2/3 86/2/3 88/2/3
f 90/3/3 87/3/3 89/3/3
f 94/3/3 92/3/3 91/3/3
f 95/1/3 93/1/3 92/1/3
f 95/3/3 92/3/3 94/3/3
f 96/1/3 93/1/3 95/1/3
f 100/2/3 98/2/3 97/2/3
f 101/3/3 99/3/3 98/3/3
f 101/2/3 98/2/3 100/2/3
f 102/3/3 99/3/3 101/3/3
f 105/1/3 104/1/3 103/1/3
f 106/1/3 104/1/3 105/1/3
f 108/1/3 104/1/3 106/1/3
f 109/3/3 108/3/3 107/3/3
f 110/1/3 104/1/3 108/1/3
f 110/3/3 108/3/3 109/3/3
f 111/1/3 104/1/3 110/1/3
f 115/3/3 113/3/3 112/3/3
f 116/1/3 114/1/3 113/1/3
f 116/3/3 113/3/3 115/3/3
f 117/1/3 114/1/3 116/1/3
f 118/1/4 119/1/4 120/1/4
f 120/1/4 119/1/4 121/1/4
f 121/1/4 119/1/4 123/1/4
f 122/3/4 123/3/4 124/3/4
f 123/1/4 119/1/4 125/1/4
f 124/3/4 123/3/4 125/3/4
f 125/1/4 119/1/4 126/1/4
f 127/3/4 128/3/4 130/3/4
f 128/1/4 129/1/4 131/1/4
f 130/3/4 128/3/4 131/3/4
f 131/1/4 129/1/4 132/1/4
f 133/2/4 134/2/4 136/2/4
f 134/3/4 135/3/4 137/3/4
f 136/2/4 134/2/4 137/2/4
f 137/3/4 135/3/4 138/3/4
f 139/3/4 140/3/4 142/3/4
f 140/1/4 141/1/4 143/1/4
f 142/3/4 140/3/4 143/3/4
f 143/1/4 141/1/4 144/1/4
f 145/2/4 146/2/4 148/2/4
f 146/3/4 147/3/4 149/3/4
f 148/2/4 146/2/4 149/2/4
f 149/3/4 147/3/4 150/3/4
f 151/2/4 152/2/4 154/2/4
f 152/3/4 153/3/4 155/3/4
f 154/2/4 152/2/4 155/2/4
f 155/3/4 153/3/4 156/3/4
f 160/2/5 158/2/5 157/2/5
f 161/2/5 158/2/5 160/2/5
f 163/2/5 160/2/5 159/2/5
f 163/2/5 162/2/5 161/2/5
f 163/2/5 161/2/5 160/2/5
f 164/2/5 162/2/5 163/2/5
f 165/2/5 162/2/5 164/2/5
f 166/2/5 162/2/5 165/2/5
f 167/2/5 165/2/5 164/2/5
f 168/2/5 165/2/5 167/2/5
f 171/1/5 170/1/5 169/1/5
f 172/1/5 170/1/5 171/1/5
f 175/1/5 174/1/5 173/1/5
f 176/1/5 174/1/5 175/1/5
f 177/3/6 178/3/6 180/3/6
f 180/3/6 178/3/6 181/3/6
f 181/3/6 178/3/6 182/3/6
f 182/3/6 178/3/6 183/3/6
f 179/3/6 180/3/6 185/3/6
f 180/3/6 181/3/6 185/3/6
f 185/3/6 181/3/6 186/3/6
f 183/3/6 184/3/6 187/3/6
f 182/3/6 183/3/6 187/3/6
f 187/3/6 184/3/6 188/3/6
f 179/3/6 185/3/6 189/3/6
f 188/3/6 184/3/6 192/3/6
f 189/3/6 190/3/6 193/3/6
f 179/3/6 189/3/6 193/3/6
f 193/3/6 190/3/6 194/3/6
f 194/3/6 190/3/6 195/3/6
f 191/3/6 192/3/6 196/3/6
f 192/3/6 184/3/6 197/3/6
f 196/3/6 192/3/6 197/3/6
f 197/3/6 184/3/6 198/3/6
f 194/3/6 195/3/6 199/3/6
f 195/3/6 196/3/6 199/3/6
f 196/3/6 197/3/6 199/3/6
f 199/3/6 197/3/6 200/3/6
f 201/1/6 202/1/6 204/1/6
f 204/1/6 202/1/6 205/1/6
f 203/1/6 204/1/6 207/1/6
f 205/1/6 206/1/6 207/1/6
f 204/1/6 205/1/6 207/1/6
f 207/1/6 206/1/6 208/1/6
f 208/1/6 206/1/6 209/1/6
f 209/1/6 206/1/6 210/1/6
f 208/1/6 209/1/6 211/1/6
f 211/1/6 209/1/6 212/1/6
