# MagicaVoxel @ Ephtracy

# group
g map-43

# material
mtllib map-43.mtl
usemtl palette

# normals
vn -1 0 0
vn 1 0 0
vn 0 0 1
vn 0 0 -1
vn 0 -1 0
vn 0 1 0

# texcoords
vt 0.169922 0.5
vt 0.197266 0.5
vt 0.919922 0.5
vt 0.955078 0.5
vt 0.986328 0.5

# verts
v -7 7 2
v -7 7 -2
v -7 8 2
v -7 8 -2
v -6 6 4
v -6 6 -4
v -6 7 2
v -6 7 -2
v -6 8 2
v -6 8 -2
v -6 9 4
v -6 9 -4
v -5 0 6
v -5 0 -6
v -5 6 4
v -5 6 -4
v -5 9 4
v -5 9 -4
v -5 11 6
v -5 11 -6
v -5 12 6
v -5 12 -6
v 3 9 3
v 3 9 2
v 3 9 -2
v 3 9 -3
v 3 10 4
v 3 10 3
v 3 10 2
v 3 10 -2
v 3 10 -3
v 3 10 -4
v 3 12 4
v 3 12 3
v 3 12 -3
v 3 12 -4
v 3 14 1
v 3 14 -1
v 3 15 1
v 3 15 -1
v 4 9 2
v 4 9 -2
v 4 10 3
v 4 10 2
v 4 10 -2
v 4 10 -3
v 4 12 3
v 4 12 2
v 4 12 -2
v 4 12 -3
v 4 13 3
v 4 13 2
v 4 13 -2
v 4 13 -3
v 5 10 2
v 5 10 -2
v 5 12 2
v 5 12 1
v 5 12 -1
v 5 12 -2
v 5 14 1
v 5 14 -1
v -3 10 2
v -3 10 -2
v -3 12 2
v -3 12 -2
v -2 9 2
v -2 9 -2
v -2 10 3
v -2 10 2
v -2 10 -2
v -2 10 -3
v -2 12 3
v -2 12 2
v -2 12 -2
v -2 12 -3
v -1 9 3
v -1 9 2
v -1 9 -2
v -1 9 -3
v -1 10 4
v -1 10 3
v -1 10 2
v -1 10 -2
v -1 10 -3
v -1 10 -4
v -1 12 4
v -1 12 3
v -1 12 -3
v -1 12 -4
v 5 12 3
v 5 12 2
v 5 12 -2
v 5 12 -3
v 5 13 3
v 5 13 2
v 5 13 -2
v 5 13 -3
v 6 12 1
v 6 12 -1
v 6 15 1
v 6 15 -1
v 7 0 6
v 7 0 -6
v 7 7 -2
v 7 7 -3
v 7 8 4
v 7 8 3
v 7 9 3
v 7 9 -2
v 7 9 -3
v 7 9 -5
v 7 10 3
v 7 10 -2
v 7 10 -4
v 7 10 -5
v 7 11 6
v 7 11 4
v 7 11 3
v 7 11 -2
v 7 11 -4
v 7 11 -6
v 7 12 6
v 7 12 -6
v -5 0 6
v -5 11 6
v -5 12 6
v 7 0 6
v 7 11 6
v 7 12 6
v -6 6 4
v -6 9 4
v -5 6 4
v -5 9 4
v 4 12 3
v 4 13 3
v 5 12 3
v 5 13 3
v -7 7 2
v -7 8 2
v -6 7 2
v -6 8 2
v 3 14 1
v 3 15 1
v 5 12 1
v 5 14 1
v 6 12 1
v 6 15 1
v -3 10 -2
v -3 12 -2
v -2 9 -2
v -2 10 -2
v -2 12 -2
v -1 9 -2
v -1 10 -2
v 3 9 -2
v 3 10 -2
v 4 9 -2
v 4 10 -2
v 4 12 -2
v 4 13 -2
v 5 10 -2
v 5 12 -2
v 5 13 -2
v -2 10 -3
v -2 12 -3
v -1 9 -3
v -1 10 -3
v -1 12 -3
v 3 9 -3
v 3 10 -3
v 3 12 -3
v 4 10 -3
v 4 12 -3
v -1 10 -4
v -1 12 -4
v 3 10 -4
v 3 12 -4
v -1 10 4
v -1 12 4
v 3 10 4
v 3 12 4
v -2 10 3
v -2 12 3
v -1 9 3
v -1 10 3
v -1 12 3
v 3 9 3
v 3 10 3
v 3 12 3
v 4 10 3
v 4 12 3
v -3 10 2
v -3 12 2
v -2 9 2
v -2 10 2
v -2 12 2
v -1 9 2
v -1 10 2
v 3 9 2
v 3 10 2
v 4 9 2
v 4 10 2
v 4 12 2
v 4 13 2
v 5 10 2
v 5 12 2
v 5 13 2
v 3 14 -1
v 3 15 -1
v 5 12 -1
v 5 14 -1
v 6 12 -1
v 6 15 -1
v -7 7 -2
v -7 8 -2
v -6 7 -2
v -6 8 -2
v 4 12 -3
v 4 13 -3
v 5 12 -3
v 5 13 -3
v -6 6 -4
v -6 9 -4
v -5 6 -4
v -5 9 -4
v -5 0 -6
v -5 11 -6
v -5 12 -6
v 7 0 -6
v 7 11 -6
v 7 12 -6
v -5 0 6
v 7 0 6
v -5 0 -6
v 7 0 -6
v -6 6 4
v -5 6 4
v -6 6 -4
v -5 6 -4
v -7 7 2
v -6 7 2
v -7 7 -2
v -6 7 -2
v 3 14 1
v 5 14 1
v 3 14 -1
v 5 14 -1
v -7 8 2
v -6 8 2
v -7 8 -2
v -6 8 -2
v -6 9 4
v -5 9 4
v -1 9 3
v 3 9 3
v -2 9 2
v -1 9 2
v 3 9 2
v 4 9 2
v -2 9 -2
v -1 9 -2
v 3 9 -2
v 4 9 -2
v -1 9 -3
v 3 9 -3
v -6 9 -4
v -5 9 -4
v -1 10 4
v 3 10 4
v -2 10 3
v -1 10 3
v 3 10 3
v 4 10 3
v -3 10 2
v -2 10 2
v -1 10 2
v 3 10 2
v 4 10 2
v 5 10 2
v -3 10 -2
v -2 10 -2
v -1 10 -2
v 3 10 -2
v 4 10 -2
v 5 10 -2
v -2 10 -3
v -1 10 -3
v 3 10 -3
v 4 10 -3
v -1 10 -4
v 3 10 -4
v -5 12 6
v 7 12 6
v -1 12 4
v 3 12 4
v -2 12 3
v -1 12 3
v 3 12 3
v 4 12 3
v 5 12 3
v -3 12 2
v -2 12 2
v 5 12 2
v 5 12 1
v 6 12 1
v 5 12 -1
v 6 12 -1
v -3 12 -2
v -2 12 -2
v 5 12 -2
v -2 12 -3
v -1 12 -3
v 3 12 -3
v 4 12 -3
v 5 12 -3
v -1 12 -4
v 3 12 -4
v -5 12 -6
v 7 12 -6
v 4 13 3
v 5 13 3
v 4 13 2
v 5 13 2
v 4 13 -2
v 5 13 -2
v 4 13 -3
v 5 13 -3
v 3 15 1
v 6 15 1
v 3 15 -1
v 6 15 -1

# faces
f 3/1/1 2/1/1 1/1/1
f 4/1/1 2/1/1 3/1/1
f 7/4/1 6/4/1 5/4/1
f 8/4/1 6/4/1 7/4/1
f 9/4/1 7/4/1 5/4/1
f 10/4/1 6/4/1 8/4/1
f 11/4/1 9/4/1 5/4/1
f 11/4/1 10/4/1 9/4/1
f 12/4/1 6/4/1 10/4/1
f 12/4/1 10/4/1 11/4/1
f 15/2/1 14/2/1 13/2/1
f 16/2/1 14/2/1 15/2/1
f 17/2/1 15/2/1 13/2/1
f 18/2/1 14/2/1 16/2/1
f 19/2/1 17/2/1 13/2/1
f 19/2/1 18/2/1 17/2/1
f 20/2/1 14/2/1 18/2/1
f 20/2/1 18/2/1 19/2/1
f 21/3/1 20/3/1 19/3/1
f 22/3/1 20/3/1 21/3/1
f 28/3/1 24/3/1 23/3/1
f 29/3/1 24/3/1 28/3/1
f 30/3/1 26/3/1 25/3/1
f 31/3/1 26/3/1 30/3/1
f 33/3/1 28/3/1 27/3/1
f 34/3/1 28/3/1 33/3/1
f 35/3/1 32/3/1 31/3/1
f 36/3/1 32/3/1 35/3/1
f 39/5/1 38/5/1 37/5/1
f 40/5/1 38/5/1 39/5/1
f 44/3/1 42/3/1 41/3/1
f 45/3/1 42/3/1 44/3/1
f 47/3/1 44/3/1 43/3/1
f 48/3/1 44/3/1 47/3/1
f 49/3/1 46/3/1 45/3/1
f 50/3/1 46/3/1 49/3/1
f 51/5/1 48/5/1 47/5/1
f 52/5/1 48/5/1 51/5/1
f 53/5/1 50/5/1 49/5/1
f 54/5/1 50/5/1 53/5/1
f 57/3/1 56/3/1 55/3/1
f 58/3/1 56/3/1 57/3/1
f 59/3/1 56/3/1 58/3/1
f 60/3/1 56/3/1 59/3/1
f 61/5/1 59/5/1 58/5/1
f 62/5/1 59/5/1 61/5/1
f 63/3/2 64/3/2 65/3/2
f 65/3/2 64/3/2 66/3/2
f 67/3/2 68/3/2 70/3/2
f 70/3/2 68/3/2 71/3/2
f 69/3/2 70/3/2 73/3/2
f 73/3/2 70/3/2 74/3/2
f 71/3/2 72/3/2 75/3/2
f 75/3/2 72/3/2 76/3/2
f 77/3/2 78/3/2 82/3/2
f 82/3/2 78/3/2 83/3/2
f 79/3/2 80/3/2 84/3/2
f 84/3/2 80/3/2 85/3/2
f 81/3/2 82/3/2 87/3/2
f 87/3/2 82/3/2 88/3/2
f 85/3/2 86/3/2 89/3/2
f 89/3/2 86/3/2 90/3/2
f 91/5/2 92/5/2 95/5/2
f 95/5/2 92/5/2 96/5/2
f 93/5/2 94/5/2 97/5/2
f 97/5/2 94/5/2 98/5/2
f 99/5/2 100/5/2 101/5/2
f 101/5/2 100/5/2 102/5/2
f 103/2/2 104/2/2 105/2/2
f 105/2/2 104/2/2 106/2/2
f 103/2/2 105/2/2 107/2/2
f 107/2/2 105/2/2 108/2/2
f 107/3/2 108/3/2 109/3/2
f 108/2/2 105/2/2 109/2/2
f 105/3/2 106/3/2 110/3/2
f 109/2/2 105/2/2 110/2/2
f 106/2/2 104/2/2 111/2/2
f 110/3/2 106/3/2 111/3/2
f 111/2/2 104/2/2 112/2/2
f 109/3/2 110/3/2 113/3/2
f 107/3/2 109/3/2 113/3/2
f 111/3/2 112/3/2 113/3/2
f 110/3/2 111/3/2 113/3/2
f 113/3/2 112/3/2 114/3/2
f 114/3/2 112/3/2 115/3/2
f 112/2/2 104/2/2 116/2/2
f 115/3/2 112/3/2 116/3/2
f 103/2/2 107/2/2 117/2/2
f 107/3/2 113/3/2 118/3/2
f 117/2/2 107/2/2 118/2/2
f 113/2/2 114/2/2 119/2/2
f 118/3/2 113/3/2 119/3/2
f 114/3/2 115/3/2 120/3/2
f 119/2/2 114/2/2 120/2/2
f 115/2/2 116/2/2 121/2/2
f 120/3/2 115/3/2 121/3/2
f 116/2/2 104/2/2 122/2/2
f 121/2/2 116/2/2 122/2/2
f 118/3/2 119/3/2 123/3/2
f 120/3/2 121/3/2 123/3/2
f 121/3/2 122/3/2 123/3/2
f 119/3/2 120/3/2 123/3/2
f 117/3/2 118/3/2 123/3/2
f 123/3/2 122/3/2 124/3/2
f 128/2/3 126/2/3 125/2/3
f 129/3/3 127/3/3 126/3/3
f 129/2/3 126/2/3 128/2/3
f 130/3/3 127/3/3 129/3/3
f 133/4/3 132/4/3 131/4/3
f 134/4/3 132/4/3 133/4/3
f 137/5/3 136/5/3 135/5/3
f 138/5/3 136/5/3 137/5/3
f 141/1/3 140/1/3 139/1/3
f 142/1/3 140/1/3 141/1/3
f 146/5/3 144/5/3 143/5/3
f 147/5/3 146/5/3 145/5/3
f 148/5/3 144/5/3 146/5/3
f 148/5/3 146/5/3 147/5/3
f 152/3/3 150/3/3 149/3/3
f 153/3/3 150/3/3 152/3/3
f 154/3/3 152/3/3 151/3/3
f 155/3/3 152/3/3 154/3/3
f 158/3/3 157/3/3 156/3/3
f 159/3/3 157/3/3 158/3/3
f 162/3/3 160/3/3 159/3/3
f 163/5/3 161/5/3 160/5/3
f 163/3/3 160/3/3 162/3/3
f 164/5/3 161/5/3 163/5/3
f 168/3/3 166/3/3 165/3/3
f 169/3/3 166/3/3 168/3/3
f 170/3/3 168/3/3 167/3/3
f 171/3/3 168/3/3 170/3/3
f 173/3/3 172/3/3 171/3/3
f 174/3/3 172/3/3 173/3/3
f 177/3/3 176/3/3 175/3/3
f 178/3/3 176/3/3 177/3/3
f 179/3/4 180/3/4 181/3/4
f 181/3/4 180/3/4 182/3/4
f 183/3/4 184/3/4 186/3/4
f 186/3/4 184/3/4 187/3/4
f 185/3/4 186/3/4 188/3/4
f 188/3/4 186/3/4 189/3/4
f 189/3/4 190/3/4 191/3/4
f 191/3/4 190/3/4 192/3/4
f 193/3/4 194/3/4 196/3/4
f 196/3/4 194/3/4 197/3/4
f 195/3/4 196/3/4 198/3/4
f 198/3/4 196/3/4 199/3/4
f 200/3/4 201/3/4 202/3/4
f 202/3/4 201/3/4 203/3/4
f 203/3/4 204/3/4 206/3/4
f 204/5/4 205/5/4 207/5/4
f 206/3/4 204/3/4 207/3/4
f 207/5/4 205/5/4 208/5/4
f 209/5/4 210/5/4 212/5/4
f 211/5/4 212/5/4 213/5/4
f 212/5/4 210/5/4 214/5/4
f 213/5/4 212/5/4 214/5/4
f 215/1/4 216/1/4 217/1/4
f 217/1/4 216/1/4 218/1/4
f 219/5/4 220/5/4 221/5/4
f 221/5/4 220/5/4 222/5/4
f 223/4/4 224/4/4 225/4/4
f 225/4/4 224/4/4 226/4/4
f 227/2/4 228/2/4 230/2/4
f 228/3/4 229/3/4 231/3/4
f 230/2/4 228/2/4 231/2/4
f 231/3/4 229/3/4 232/3/4
f 235/2/5 234/2/5 233/2/5
f 236/2/5 234/2/5 235/2/5
f 239/4/5 238/4/5 237/4/5
f 240/4/5 238/4/5 239/4/5
f 243/1/5 242/1/5 241/1/5
f 244/1/5 242/1/5 243/1/5
f 247/5/5 246/5/5 245/5/5
f 248/5/5 246/5/5 247/5/5
f 249/1/6 250/1/6 251/1/6
f 251/1/6 250/1/6 252/1/6
f 255/3/6 256/3/6 258/3/6
f 258/3/6 256/3/6 259/3/6
f 257/3/6 258/3/6 261/3/6
f 259/3/6 260/3/6 261/3/6
f 258/3/6 259/3/6 261/3/6
f 261/3/6 260/3/6 262/3/6
f 262/3/6 260/3/6 263/3/6
f 263/3/6 260/3/6 264/3/6
f 262/3/6 263/3/6 265/3/6
f 265/3/6 263/3/6 266/3/6
f 253/4/6 254/4/6 267/4/6
f 267/4/6 254/4/6 268/4/6
f 269/3/6 270/3/6 272/3/6
f 272/3/6 270/3/6 273/3/6
f 271/3/6 272/3/6 276/3/6
f 276/3/6 272/3/6 277/3/6
f 273/3/6 274/3/6 278/3/6
f 278/3/6 274/3/6 279/3/6
f 275/3/6 276/3/6 281/3/6
f 281/3/6 276/3/6 282/3/6
f 279/3/6 280/3/6 285/3/6
f 285/3/6 280/3/6 286/3/6
f 282/3/6 283/3/6 287/3/6
f 287/3/6 283/3/6 288/3/6
f 284/3/6 285/3/6 289/3/6
f 289/3/6 285/3/6 290/3/6
f 288/3/6 289/3/6 291/3/6
f 291/3/6 289/3/6 292/3/6
f 293/3/6 294/3/6 295/3/6
f 295/3/6 294/3/6 296/3/6
f 293/3/6 295/3/6 297/3/6
f 297/3/6 295/3/6 298/3/6
f 296/3/6 294/3/6 299/3/6
f 299/3/6 294/3/6 300/3/6
f 300/3/6 294/3/6 301/3/6
f 293/3/6 297/3/6 302/3/6
f 302/3/6 297/3/6 303/3/6
f 301/3/6 294/3/6 304/3/6
f 304/3/6 294/3/6 305/3/6
f 305/3/6 294/3/6 306/3/6
f 306/3/6 294/3/6 308/3/6
f 293/3/6 302/3/6 309/3/6
f 307/3/6 308/3/6 311/3/6
f 309/3/6 310/3/6 312/3/6
f 311/3/6 308/3/6 316/3/6
f 312/3/6 313/3/6 317/3/6
f 314/3/6 315/3/6 318/3/6
f 315/3/6 316/3/6 318/3/6
f 312/3/6 317/3/6 319/3/6
f 317/3/6 318/3/6 319/3/6
f 293/3/6 309/3/6 319/3/6
f 309/3/6 312/3/6 319/3/6
f 318/3/6 316/3/6 320/3/6
f 319/3/6 318/3/6 320/3/6
f 308/3/6 294/3/6 320/3/6
f 316/3/6 308/3/6 320/3/6
f 321/5/6 322/5/6 323/5/6
f 323/5/6 322/5/6 324/5/6
f 325/5/6 326/5/6 327/5/6
f 327/5/6 326/5/6 328/5/6
f 329/5/6 330/5/6 331/5/6
f 331/5/6 330/5/6 332/5/6
