# MagicaVoxel @ Ephtracy

# group
g map-71

# material
mtllib map-71.mtl
usemtl palette

# normals
vn -1 0 0
vn 1 0 0
vn 0 0 1
vn 0 0 -1
vn 0 -1 0
vn 0 1 0

# texcoords
vt 0.310547 0.5
vt 0.505859 0.5
vt 0.533203 0.5
vt 0.564453 0.5
vt 0.705078 0.5
vt 0.958984 0.5
vt 0.962891 0.5

# verts
v -17 0 8.5
v -17 0 6.5
v -17 0 -6.5
v -17 0 -8.5
v -17 4 8.5
v -17 4 6.5
v -17 4 -6.5
v -17 4 -8.5
v -17 8 8.5
v -17 8 5.5
v -17 8 4.5
v -17 8 -4.5
v -17 8 -5.5
v -17 8 -8.5
v -17 11 5.5
v -17 11 4.5
v -17 11 -4.5
v -17 11 -5.5
v -10 8 8.5
v -10 8 -8.5
v -10 9 8.5
v -10 9 -8.5
v 12 9 8.5
v 12 9 -8.5
v 12 10 8.5
v 12 10 -8.5
v 14 0 8.5
v 14 0 6.5
v 14 0 -6.5
v 14 0 -8.5
v 14 4 8.5
v 14 4 7.5
v 14 4 6.5
v 14 4 -6.5
v 14 4 -7.5
v 14 4 -8.5
v -15 0 8.5
v -15 0 6.5
v -15 0 -6.5
v -15 0 -8.5
v -15 4 8.5
v -15 4 7.5
v -15 4 6.5
v -15 4 -6.5
v -15 4 -7.5
v -15 4 -8.5
v -11 8 5.5
v -11 8 4.5
v -11 8 -4.5
v -11 8 -5.5
v -11 11 5.5
v -11 11 4.5
v -11 11 -4.5
v -11 11 -5.5
v 16 0 8.5
v 16 0 6.5
v 16 0 -6.5
v 16 0 -8.5
v 16 4 8.5
v 16 4 6.5
v 16 4 -6.5
v 16 4 -8.5
v 16 9 8.5
v 16 9 -8.5
v 16 10 8.5
v 16 10 -8.5
v 17 4 8.5
v 17 4 -8.5
v 17 9 8.5
v 17 9 -8.5
v -17 0 8.5
v -17 4 8.5
v -17 8 8.5
v -15 0 8.5
v -15 4 8.5
v -10 8 8.5
v -10 9 8.5
v -7 8 8.5
v -7 9 8.5
v -5 8 8.5
v -5 9 8.5
v -3 8 8.5
v -3 9 8.5
v 12 9 8.5
v 12 10 8.5
v 14 0 8.5
v 14 4 8.5
v 16 0 8.5
v 16 4 8.5
v 16 8 8.5
v 16 9 8.5
v 16 10 8.5
v 17 4 8.5
v 17 9 8.5
v -17 8 5.5
v -17 11 5.5
v -16 8 5.5
v -16 10 5.5
v -12 8 5.5
v -12 10 5.5
v -11 8 5.5
v -11 11 5.5
v -17 0 -6.5
v -17 4 -6.5
v -16 4 -6.5
v -15 0 -6.5
v -15 4 -6.5
v 14 0 -6.5
v 14 4 -6.5
v 15 4 -6.5
v 16 0 -6.5
v 16 4 -6.5
v -17 0 6.5
v -17 4 6.5
v -16 4 6.5
v -15 0 6.5
v -15 4 6.5
v 14 0 6.5
v 14 4 6.5
v 15 4 6.5
v 16 0 6.5
v 16 4 6.5
v -17 8 -5.5
v -17 11 -5.5
v -16 8 -5.5
v -16 10 -5.5
v -12 8 -5.5
v -12 10 -5.5
v -11 8 -5.5
v -11 11 -5.5
v -17 0 -8.5
v -17 4 -8.5
v -17 8 -8.5
v -15 0 -8.5
v -15 4 -8.5
v -10 8 -8.5
v -10 9 -8.5
v -7 8 -8.5
v -7 9 -8.5
v -5 8 -8.5
v -5 9 -8.5
v -3 8 -8.5
v -3 9 -8.5
v 12 9 -8.5
v 12 10 -8.5
v 14 0 -8.5
v 14 4 -8.5
v 16 0 -8.5
v 16 4 -8.5
v 16 8 -8.5
v 16 9 -8.5
v 16 10 -8.5
v 17 4 -8.5
v 17 9 -8.5
v -17 0 8.5
v -15 0 8.5
v 14 0 8.5
v 16 0 8.5
v -17 0 6.5
v -15 0 6.5
v 14 0 6.5
v 16 0 6.5
v -17 0 -6.5
v -15 0 -6.5
v 14 0 -6.5
v 16 0 -6.5
v -17 0 -8.5
v -15 0 -8.5
v 14 0 -8.5
v 16 0 -8.5
v -15 4 8.5
v 14 4 8.5
v 16 4 8.5
v 17 4 8.5
v -15 4 7.5
v 14 4 7.5
v -17 4 6.5
v -16 4 6.5
v -15 4 6.5
v 14 4 6.5
v 15 4 6.5
v 16 4 6.5
v -17 4 -6.5
v -16 4 -6.5
v -15 4 -6.5
v 14 4 -6.5
v 15 4 -6.5
v 16 4 -6.5
v -15 4 -7.5
v 14 4 -7.5
v -15 4 -8.5
v 14 4 -8.5
v 16 4 -8.5
v 17 4 -8.5
v -17 8 8.5
v -10 8 8.5
v -17 8 5.5
v -16 8 5.5
v -12 8 5.5
v -11 8 5.5
v -11 8 4.5
v -11 8 -4.5
v -17 8 -5.5
v -16 8 -5.5
v -12 8 -5.5
v -11 8 -5.5
v -17 8 -8.5
v -10 8 -8.5
v -10 9 8.5
v -7 9 8.5
v -5 9 8.5
v -3 9 8.5
v 12 9 8.5
v 16 9 8.5
v 17 9 8.5
v -10 9 -8.5
v -7 9 -8.5
v -5 9 -8.5
v -3 9 -8.5
v 12 9 -8.5
v 16 9 -8.5
v 17 9 -8.5
v 12 10 8.5
v 16 10 8.5
v 12 10 -8.5
v 16 10 -8.5
v -17 11 5.5
v -11 11 5.5
v -17 11 4.5
v -11 11 4.5
v -17 11 -4.5
v -11 11 -4.5
v -17 11 -5.5
v -11 11 -5.5

# faces
f 5/1/1 2/1/1 1/1/1
f 6/1/1 2/1/1 5/1/1
f 7/1/1 4/1/1 3/1/1
f 8/1/1 4/1/1 7/1/1
f 9/7/1 6/7/1 5/7/1
f 9/7/1 7/7/1 6/7/1
f 9/7/1 8/7/1 7/7/1
f 10/7/1 8/7/1 9/7/1
f 11/7/1 8/7/1 10/7/1
f 12/7/1 8/7/1 11/7/1
f 13/7/1 8/7/1 12/7/1
f 14/7/1 8/7/1 13/7/1
f 15/4/1 11/4/1 10/4/1
f 16/6/1 12/6/1 11/6/1
f 16/4/1 11/4/1 15/4/1
f 17/4/1 13/4/1 12/4/1
f 17/6/1 12/6/1 16/6/1
f 18/4/1 13/4/1 17/4/1
f 21/6/1 20/6/1 19/6/1
f 22/6/1 20/6/1 21/6/1
f 25/4/1 24/4/1 23/4/1
f 26/4/1 24/4/1 25/4/1
f 31/1/1 28/1/1 27/1/1
f 32/1/1 28/1/1 31/1/1
f 33/1/1 28/1/1 32/1/1
f 34/1/1 30/1/1 29/1/1
f 35/1/1 30/1/1 34/1/1
f 36/1/1 30/1/1 35/1/1
f 37/1/2 38/1/2 41/1/2
f 41/1/2 38/1/2 42/1/2
f 42/1/2 38/1/2 43/1/2
f 39/1/2 40/1/2 44/1/2
f 44/1/2 40/1/2 45/1/2
f 45/1/2 40/1/2 46/1/2
f 47/4/2 48/4/2 51/4/2
f 48/6/2 49/6/2 52/6/2
f 51/4/2 48/4/2 52/4/2
f 49/4/2 50/4/2 53/4/2
f 52/6/2 49/6/2 53/6/2
f 53/4/2 50/4/2 54/4/2
f 55/1/2 56/1/2 59/1/2
f 59/1/2 56/1/2 60/1/2
f 57/1/2 58/1/2 61/1/2
f 61/1/2 58/1/2 62/1/2
f 63/4/2 64/4/2 65/4/2
f 65/4/2 64/4/2 66/4/2
f 67/2/2 68/2/2 69/2/2
f 69/2/2 68/2/2 70/2/2
f 74/1/3 72/1/3 71/1/3
f 75/7/3 73/7/3 72/7/3
f 75/1/3 72/1/3 74/1/3
f 76/7/3 73/7/3 75/7/3
f 78/7/3 76/7/3 75/7/3
f 78/6/3 77/6/3 76/6/3
f 79/6/3 77/6/3 78/6/3
f 80/7/3 78/7/3 75/7/3
f 80/2/3 79/2/3 78/2/3
f 81/2/3 79/2/3 80/2/3
f 82/7/3 80/7/3 75/7/3
f 82/3/3 81/3/3 80/3/3
f 83/3/3 81/3/3 82/3/3
f 84/2/3 83/2/3 82/2/3
f 87/7/3 82/7/3 75/7/3
f 88/1/3 87/1/3 86/1/3
f 89/7/3 82/7/3 87/7/3
f 89/1/3 87/1/3 88/1/3
f 90/2/3 84/2/3 82/2/3
f 90/7/3 82/7/3 89/7/3
f 91/4/3 85/4/3 84/4/3
f 91/2/3 84/2/3 90/2/3
f 92/4/3 85/4/3 91/4/3
f 93/2/3 90/2/3 89/2/3
f 93/2/3 91/2/3 90/2/3
f 94/2/3 91/2/3 93/2/3
f 97/4/3 96/4/3 95/4/3
f 98/4/3 96/4/3 97/4/3
f 99/6/3 98/6/3 97/6/3
f 100/4/3 96/4/3 98/4/3
f 100/6/3 98/6/3 99/6/3
f 101/4/3 100/4/3 99/4/3
f 102/4/3 96/4/3 100/4/3
f 102/4/3 100/4/3 101/4/3
f 105/1/3 104/1/3 103/1/3
f 106/1/3 105/1/3 103/1/3
f 107/1/3 105/1/3 106/1/3
f 110/1/3 109/1/3 108/1/3
f 111/1/3 110/1/3 108/1/3
f 112/1/3 110/1/3 111/1/3
f 113/1/4 114/1/4 115/1/4
f 113/1/4 115/1/4 116/1/4
f 116/1/4 115/1/4 117/1/4
f 118/1/4 119/1/4 120/1/4
f 118/1/4 120/1/4 121/1/4
f 121/1/4 120/1/4 122/1/4
f 123/4/4 124/4/4 125/4/4
f 125/4/4 124/4/4 126/4/4
f 125/6/4 126/6/4 127/6/4
f 126/4/4 124/4/4 128/4/4
f 127/6/4 126/6/4 128/6/4
f 127/4/4 128/4/4 129/4/4
f 128/4/4 124/4/4 130/4/4
f 129/4/4 128/4/4 130/4/4
f 131/1/4 132/1/4 134/1/4
f 132/7/4 133/7/4 135/7/4
f 134/1/4 132/1/4 135/1/4
f 135/7/4 133/7/4 136/7/4
f 135/7/4 136/7/4 138/7/4
f 136/6/4 137/6/4 138/6/4
f 138/6/4 137/6/4 139/6/4
f 135/7/4 138/7/4 140/7/4
f 138/2/4 139/2/4 140/2/4
f 140/2/4 139/2/4 141/2/4
f 135/7/4 140/7/4 142/7/4
f 140/3/4 141/3/4 142/3/4
f 142/3/4 141/3/4 143/3/4
f 142/2/4 143/2/4 144/2/4
f 135/7/4 142/7/4 147/7/4
f 146/1/4 147/1/4 148/1/4
f 147/7/4 142/7/4 149/7/4
f 148/1/4 147/1/4 149/1/4
f 142/2/4 144/2/4 150/2/4
f 149/7/4 142/7/4 150/7/4
f 144/4/4 145/4/4 151/4/4
f 150/2/4 144/2/4 151/2/4
f 151/4/4 145/4/4 152/4/4
f 149/2/4 150/2/4 153/2/4
f 150/2/4 151/2/4 153/2/4
f 153/2/4 151/2/4 154/2/4
f 159/1/5 156/1/5 155/1/5
f 160/1/5 156/1/5 159/1/5
f 161/1/5 158/1/5 157/1/5
f 162/1/5 158/1/5 161/1/5
f 167/1/5 164/1/5 163/1/5
f 168/1/5 164/1/5 167/1/5
f 169/1/5 166/1/5 165/1/5
f 170/1/5 166/1/5 169/1/5
f 175/7/5 172/7/5 171/7/5
f 176/7/5 172/7/5 175/7/5
f 179/5/5 176/5/5 175/5/5
f 180/5/5 176/5/5 179/5/5
f 182/2/5 174/2/5 173/2/5
f 183/7/5 178/7/5 177/7/5
f 184/5/5 181/5/5 180/5/5
f 184/7/5 178/7/5 183/7/5
f 184/5/5 180/5/5 179/5/5
f 184/5/5 179/5/5 178/5/5
f 185/5/5 181/5/5 184/5/5
f 186/5/5 181/5/5 185/5/5
f 187/7/5 182/7/5 181/7/5
f 187/5/5 181/5/5 186/5/5
f 188/2/5 174/2/5 182/2/5
f 188/7/5 182/7/5 187/7/5
f 189/5/5 186/5/5 185/5/5
f 190/5/5 186/5/5 189/5/5
f 191/7/5 190/7/5 189/7/5
f 192/7/5 190/7/5 191/7/5
f 193/2/5 174/2/5 188/2/5
f 194/2/5 174/2/5 193/2/5
f 195/7/6 196/7/6 197/7/6
f 197/7/6 196/7/6 198/7/6
f 198/7/6 196/7/6 199/7/6
f 199/7/6 196/7/6 200/7/6
f 200/7/6 196/7/6 201/7/6
f 201/7/6 196/7/6 202/7/6
f 202/7/6 196/7/6 206/7/6
f 204/7/6 205/7/6 207/7/6
f 205/7/6 206/7/6 207/7/6
f 203/7/6 204/7/6 207/7/6
f 206/7/6 196/7/6 208/7/6
f 207/7/6 206/7/6 208/7/6
f 209/6/6 210/6/6 216/6/6
f 210/2/6 211/2/6 217/2/6
f 216/6/6 210/6/6 217/6/6
f 211/3/6 212/3/6 218/3/6
f 217/2/6 211/2/6 218/2/6
f 212/2/6 213/2/6 219/2/6
f 218/3/6 212/3/6 219/3/6
f 219/2/6 213/2/6 220/2/6
f 214/2/6 215/2/6 221/2/6
f 221/2/6 215/2/6 222/2/6
f 223/4/6 224/4/6 225/4/6
f 225/4/6 224/4/6 226/4/6
f 227/4/6 228/4/6 229/4/6
f 229/4/6 228/4/6 230/4/6
f 229/6/6 230/6/6 231/6/6
f 231/6/6 230/6/6 232/6/6
f 231/4/6 232/4/6 233/4/6
f 233/4/6 232/4/6 234/4/6
