# MagicaVoxel @ Ephtracy

# group
g map-41

# material
mtllib map-41.mtl
usemtl palette

# normals
vn -1 0 0
vn 1 0 0
vn 0 0 1
vn 0 0 -1
vn 0 -1 0
vn 0 1 0

# texcoords
vt 0.919922 0.5
vt 0.923828 0.5
vt 0.958984 0.5
vt 0.970703 0.5
vt 0.986328 0.5
vt 0.990234 0.5

# verts
v -2 0 2
v -2 0 -5
v -2 1 2
v -2 1 -2
v -2 1 -5
v -2 2 -1
v -2 2 -2
v -2 3 -1
v -2 3 -2
v -2 5 -1
v -2 5 -2
v -2 6 -1
v -2 6 -2
v -2 8 -1
v -2 8 -2
v -2 9 -1
v -2 9 -2
v -2 11 -1
v -2 11 -2
v -2 12 -1
v -2 12 -2
v -2 14 -1
v -2 14 -2
v -2 15 -1
v -2 15 -2
v -2 17 -1
v -2 17 -2
v -2 18 -1
v -2 18 -2
v -2 20 -1
v -2 20 -2
v -2 21 -1
v -2 21 -2
v -2 23 -1
v -2 23 -2
v -2 24 -1
v -2 24 -2
v -2 26 -1
v -2 26 -2
v -2 27 -1
v -2 27 -2
v -2 29 -1
v -2 29 -2
v -2 30 -1
v -2 30 -2
v -2 32 -1
v -2 32 -2
v -2 33 -1
v -2 33 -2
v -2 37 2
v -2 37 1
v -2 37 -2
v -2 37 -3
v -2 38 2
v -2 38 1
v -2 38 -2
v -2 38 -3
v -1 34 -2
v -1 34 -3
v -1 36 -2
v -1 36 -3
v -1 37 -2
v -1 37 -3
v -1 37 -5
v -1 38 -3
v -1 38 -5
v 1 34 -2
v 1 34 -3
v 1 36 -2
v 1 36 -3
v 1 37 -2
v 1 37 -3
v 1 37 -5
v 1 38 -3
v 1 38 -5
v 2 0 2
v 2 0 -5
v 2 1 2
v 2 1 -2
v 2 1 -5
v 2 2 -1
v 2 2 -2
v 2 3 -1
v 2 3 -2
v 2 5 -1
v 2 5 -2
v 2 6 -1
v 2 6 -2
v 2 8 -1
v 2 8 -2
v 2 9 -1
v 2 9 -2
v 2 11 -1
v 2 11 -2
v 2 12 -1
v 2 12 -2
v 2 14 -1
v 2 14 -2
v 2 15 -1
v 2 15 -2
v 2 17 -1
v 2 17 -2
v 2 18 -1
v 2 18 -2
v 2 20 -1
v 2 20 -2
v 2 21 -1
v 2 21 -2
v 2 23 -1
v 2 23 -2
v 2 24 -1
v 2 24 -2
v 2 26 -1
v 2 26 -2
v 2 27 -1
v 2 27 -2
v 2 29 -1
v 2 29 -2
v 2 30 -1
v 2 30 -2
v 2 32 -1
v 2 32 -2
v 2 33 -1
v 2 33 -2
v 2 37 2
v 2 37 1
v 2 37 -2
v 2 37 -3
v 2 38 2
v 2 38 1
v 2 38 -2
v 2 38 -3
v -2 0 2
v -2 1 2
v -2 37 2
v -2 38 2
v 2 0 2
v 2 1 2
v 2 37 2
v 2 38 2
v -2 1 -2
v -2 2 -2
v -2 3 -2
v -2 5 -2
v -2 6 -2
v -2 8 -2
v -2 9 -2
v -2 11 -2
v -2 12 -2
v -2 14 -2
v -2 15 -2
v -2 17 -2
v -2 18 -2
v -2 20 -2
v -2 21 -2
v -2 23 -2
v -2 24 -2
v -2 26 -2
v -2 27 -2
v -2 29 -2
v -2 30 -2
v -2 32 -2
v -2 33 -2
v -2 37 -2
v -1 34 -2
v -1 36 -2
v -1 37 -2
v 1 34 -2
v 1 36 -2
v 1 37 -2
v 2 1 -2
v 2 2 -2
v 2 3 -2
v 2 5 -2
v 2 6 -2
v 2 8 -2
v 2 9 -2
v 2 11 -2
v 2 12 -2
v 2 14 -2
v 2 15 -2
v 2 17 -2
v 2 18 -2
v 2 20 -2
v 2 21 -2
v 2 23 -2
v 2 24 -2
v 2 26 -2
v 2 27 -2
v 2 29 -2
v 2 30 -2
v 2 32 -2
v 2 33 -2
v 2 37 -2
v -2 37 -3
v -2 38 -3
v -1 34 -3
v -1 36 -3
v -1 37 -3
v -1 38 -3
v 1 34 -3
v 1 36 -3
v 1 37 -3
v 1 38 -3
v 2 37 -3
v 2 38 -3
v -2 0 -5
v -2 1 -5
v -1 37 -5
v -1 38 -5
v 1 37 -5
v 1 38 -5
v 2 0 -5
v 2 1 -5
v -2 0 2
v 2 0 2
v -2 0 -5
v 2 0 -5
v -1 34 -2
v 1 34 -2
v -1 34 -3
v 1 34 -3
v -2 37 -2
v -1 37 -2
v 1 37 -2
v 2 37 -2
v -2 37 -3
v -1 37 -3
v 1 37 -3
v 2 37 -3
v -1 37 -5
v 1 37 -5
v -2 1 -2
v 2 1 -2
v -2 1 -5
v 2 1 -5
v -2 38 2
v 2 38 2
v -2 38 1
v 2 38 1
v -2 38 -2
v 2 38 -2
v -2 38 -3
v -1 38 -3
v 1 38 -3
v 2 38 -3
v -1 38 -5
v 1 38 -5

# faces
f 3/4/1 2/4/1 1/4/1
f 4/4/1 2/4/1 3/4/1
f 5/4/1 2/4/1 4/4/1
f 6/5/1 4/5/1 3/5/1
f 7/5/1 4/5/1 6/5/1
f 8/5/1 6/5/1 3/5/1
f 8/6/1 7/6/1 6/6/1
f 9/6/1 7/6/1 8/6/1
f 10/5/1 8/5/1 3/5/1
f 10/5/1 9/5/1 8/5/1
f 11/5/1 9/5/1 10/5/1
f 12/5/1 10/5/1 3/5/1
f 12/6/1 11/6/1 10/6/1
f 13/6/1 11/6/1 12/6/1
f 14/5/1 12/5/1 3/5/1
f 14/5/1 13/5/1 12/5/1
f 15/5/1 13/5/1 14/5/1
f 16/5/1 14/5/1 3/5/1
f 16/6/1 15/6/1 14/6/1
f 17/6/1 15/6/1 16/6/1
f 18/5/1 16/5/1 3/5/1
f 18/5/1 17/5/1 16/5/1
f 19/5/1 17/5/1 18/5/1
f 20/5/1 18/5/1 3/5/1
f 20/6/1 19/6/1 18/6/1
f 21/6/1 19/6/1 20/6/1
f 22/5/1 20/5/1 3/5/1
f 22/5/1 21/5/1 20/5/1
f 23/5/1 21/5/1 22/5/1
f 24/5/1 22/5/1 3/5/1
f 24/6/1 23/6/1 22/6/1
f 25/6/1 23/6/1 24/6/1
f 26/5/1 24/5/1 3/5/1
f 26/5/1 25/5/1 24/5/1
f 27/5/1 25/5/1 26/5/1
f 28/5/1 26/5/1 3/5/1
f 28/6/1 27/6/1 26/6/1
f 29/6/1 27/6/1 28/6/1
f 30/5/1 28/5/1 3/5/1
f 30/5/1 29/5/1 28/5/1
f 31/5/1 29/5/1 30/5/1
f 32/5/1 30/5/1 3/5/1
f 32/6/1 31/6/1 30/6/1
f 33/6/1 31/6/1 32/6/1
f 34/5/1 32/5/1 3/5/1
f 34/5/1 33/5/1 32/5/1
f 35/5/1 33/5/1 34/5/1
f 36/5/1 34/5/1 3/5/1
f 36/6/1 35/6/1 34/6/1
f 37/6/1 35/6/1 36/6/1
f 38/5/1 36/5/1 3/5/1
f 38/5/1 37/5/1 36/5/1
f 39/5/1 37/5/1 38/5/1
f 40/5/1 38/5/1 3/5/1
f 40/6/1 39/6/1 38/6/1
f 41/6/1 39/6/1 40/6/1
f 42/5/1 40/5/1 3/5/1
f 42/5/1 41/5/1 40/5/1
f 43/5/1 41/5/1 42/5/1
f 44/5/1 42/5/1 3/5/1
f 44/6/1 43/6/1 42/6/1
f 45/6/1 43/6/1 44/6/1
f 46/5/1 44/5/1 3/5/1
f 46/5/1 45/5/1 44/5/1
f 47/5/1 45/5/1 46/5/1
f 48/5/1 46/5/1 3/5/1
f 48/6/1 47/6/1 46/6/1
f 49/6/1 47/6/1 48/6/1
f 50/5/1 48/5/1 3/5/1
f 50/5/1 49/5/1 48/5/1
f 51/5/1 49/5/1 50/5/1
f 52/5/1 49/5/1 51/5/1
f 54/3/1 51/3/1 50/3/1
f 55/5/1 52/5/1 51/5/1
f 55/3/1 51/3/1 54/3/1
f 56/1/1 53/1/1 52/1/1
f 56/5/1 52/5/1 55/5/1
f 57/1/1 53/1/1 56/1/1
f 60/1/1 59/1/1 58/1/1
f 61/1/1 59/1/1 60/1/1
f 62/2/1 61/2/1 60/2/1
f 63/2/1 61/2/1 62/2/1
f 65/1/1 64/1/1 63/1/1
f 66/1/1 64/1/1 65/1/1
f 67/1/2 68/1/2 69/1/2
f 69/1/2 68/1/2 70/1/2
f 69/2/2 70/2/2 71/2/2
f 71/2/2 70/2/2 72/2/2
f 72/1/2 73/1/2 74/1/2
f 74/1/2 73/1/2 75/1/2
f 76/4/2 77/4/2 78/4/2
f 78/4/2 77/4/2 79/4/2
f 79/4/2 77/4/2 80/4/2
f 78/5/2 79/5/2 81/5/2
f 81/5/2 79/5/2 82/5/2
f 78/5/2 81/5/2 83/5/2
f 81/6/2 82/6/2 83/6/2
f 83/6/2 82/6/2 84/6/2
f 78/5/2 83/5/2 85/5/2
f 83/5/2 84/5/2 85/5/2
f 85/5/2 84/5/2 86/5/2
f 78/5/2 85/5/2 87/5/2
f 85/6/2 86/6/2 87/6/2
f 87/6/2 86/6/2 88/6/2
f 78/5/2 87/5/2 89/5/2
f 87/5/2 88/5/2 89/5/2
f 89/5/2 88/5/2 90/5/2
f 78/5/2 89/5/2 91/5/2
f 89/6/2 90/6/2 91/6/2
f 91/6/2 90/6/2 92/6/2
f 78/5/2 91/5/2 93/5/2
f 91/5/2 92/5/2 93/5/2
f 93/5/2 92/5/2 94/5/2
f 78/5/2 93/5/2 95/5/2
f 93/6/2 94/6/2 95/6/2
f 95/6/2 94/6/2 96/6/2
f 78/5/2 95/5/2 97/5/2
f 95/5/2 96/5/2 97/5/2
f 97/5/2 96/5/2 98/5/2
f 78/5/2 97/5/2 99/5/2
f 97/6/2 98/6/2 99/6/2
f 99/6/2 98/6/2 100/6/2
f 78/5/2 99/5/2 101/5/2
f 99/5/2 100/5/2 101/5/2
f 101/5/2 100/5/2 102/5/2
f 78/5/2 101/5/2 103/5/2
f 101/6/2 102/6/2 103/6/2
f 103/6/2 102/6/2 104/6/2
f 78/5/2 103/5/2 105/5/2
f 103/5/2 104/5/2 105/5/2
f 105/5/2 104/5/2 106/5/2
f 78/5/2 105/5/2 107/5/2
f 105/6/2 106/6/2 107/6/2
f 107/6/2 106/6/2 108/6/2
f 78/5/2 107/5/2 109/5/2
f 107/5/2 108/5/2 109/5/2
f 109/5/2 108/5/2 110/5/2
f 78/5/2 109/5/2 111/5/2
f 109/6/2 110/6/2 111/6/2
f 111/6/2 110/6/2 112/6/2
f 78/5/2 111/5/2 113/5/2
f 111/5/2 112/5/2 113/5/2
f 113/5/2 112/5/2 114/5/2
f 78/5/2 113/5/2 115/5/2
f 113/6/2 114/6/2 115/6/2
f 115/6/2 114/6/2 116/6/2
f 78/5/2 115/5/2 117/5/2
f 115/5/2 116/5/2 117/5/2
f 117/5/2 116/5/2 118/5/2
f 78/5/2 117/5/2 119/5/2
f 117/6/2 118/6/2 119/6/2
f 119/6/2 118/6/2 120/6/2
f 78/5/2 119/5/2 121/5/2
f 119/5/2 120/5/2 121/5/2
f 121/5/2 120/5/2 122/5/2
f 78/5/2 121/5/2 123/5/2
f 121/6/2 122/6/2 123/6/2
f 123/6/2 122/6/2 124/6/2
f 78/5/2 123/5/2 125/5/2
f 123/5/2 124/5/2 125/5/2
f 125/5/2 124/5/2 126/5/2
f 126/5/2 124/5/2 127/5/2
f 125/3/2 126/3/2 129/3/2
f 126/5/2 127/5/2 130/5/2
f 129/3/2 126/3/2 130/3/2
f 127/1/2 128/1/2 131/1/2
f 130/5/2 127/5/2 131/5/2
f 131/1/2 128/1/2 132/1/2
f 137/4/3 134/4/3 133/4/3
f 138/5/3 135/5/3 134/5/3
f 138/4/3 134/4/3 137/4/3
f 139/3/3 136/3/3 135/3/3
f 139/5/3 135/5/3 138/5/3
f 140/3/3 136/3/3 139/3/3
f 163/5/4 164/5/4 165/5/4
f 165/5/4 164/5/4 166/5/4
f 166/5/4 164/5/4 167/5/4
f 163/5/4 165/5/4 168/5/4
f 141/5/4 142/5/4 171/5/4
f 142/6/4 143/6/4 172/6/4
f 171/5/4 142/5/4 172/5/4
f 143/5/4 144/5/4 173/5/4
f 172/6/4 143/6/4 173/6/4
f 144/6/4 145/6/4 174/6/4
f 173/5/4 144/5/4 174/5/4
f 145/5/4 146/5/4 175/5/4
f 174/6/4 145/6/4 175/6/4
f 146/6/4 147/6/4 176/6/4
f 175/5/4 146/5/4 176/5/4
f 147/5/4 148/5/4 177/5/4
f 176/6/4 147/6/4 177/6/4
f 148/6/4 149/6/4 178/6/4
f 177/5/4 148/5/4 178/5/4
f 149/5/4 150/5/4 179/5/4
f 178/6/4 149/6/4 179/6/4
f 150/6/4 151/6/4 180/6/4
f 179/5/4 150/5/4 180/5/4
f 151/5/4 152/5/4 181/5/4
f 180/6/4 151/6/4 181/6/4
f 152/6/4 153/6/4 182/6/4
f 181/5/4 152/5/4 182/5/4
f 153/5/4 154/5/4 183/5/4
f 182/6/4 153/6/4 183/6/4
f 154/6/4 155/6/4 184/6/4
f 183/5/4 154/5/4 184/5/4
f 155/5/4 156/5/4 185/5/4
f 184/6/4 155/6/4 185/6/4
f 156/6/4 157/6/4 186/6/4
f 185/5/4 156/5/4 186/5/4
f 157/5/4 158/5/4 187/5/4
f 186/6/4 157/6/4 187/6/4
f 158/6/4 159/6/4 188/6/4
f 187/5/4 158/5/4 188/5/4
f 159/5/4 160/5/4 189/5/4
f 188/6/4 159/6/4 189/6/4
f 160/6/4 161/6/4 190/6/4
f 189/5/4 160/5/4 190/5/4
f 161/5/4 162/5/4 191/5/4
f 190/6/4 161/6/4 191/6/4
f 162/6/4 163/6/4 192/6/4
f 191/5/4 162/5/4 192/5/4
f 169/5/4 170/5/4 193/5/4
f 192/6/4 163/6/4 193/6/4
f 163/5/4 168/5/4 193/5/4
f 168/5/4 169/5/4 193/5/4
f 193/5/4 170/5/4 194/5/4
f 195/1/4 196/1/4 199/1/4
f 199/1/4 196/1/4 200/1/4
f 197/1/4 198/1/4 201/1/4
f 198/2/4 199/2/4 202/2/4
f 201/1/4 198/1/4 202/1/4
f 202/2/4 199/2/4 203/2/4
f 203/1/4 204/1/4 205/1/4
f 205/1/4 204/1/4 206/1/4
f 209/1/4 210/1/4 211/1/4
f 211/1/4 210/1/4 212/1/4
f 207/4/4 208/4/4 213/4/4
f 213/4/4 208/4/4 214/4/4
f 217/4/5 216/4/5 215/4/5
f 218/4/5 216/4/5 217/4/5
f 221/1/5 220/1/5 219/1/5
f 222/1/5 220/1/5 221/1/5
f 227/1/5 224/1/5 223/1/5
f 228/1/5 224/1/5 227/1/5
f 229/1/5 226/1/5 225/1/5
f 230/1/5 226/1/5 229/1/5
f 231/1/5 229/1/5 228/1/5
f 232/1/5 229/1/5 231/1/5
f 233/4/6 234/4/6 235/4/6
f 235/4/6 234/4/6 236/4/6
f 237/3/6 238/3/6 239/3/6
f 239/3/6 238/3/6 240/3/6
f 239/5/6 240/5/6 241/5/6
f 241/5/6 240/5/6 242/5/6
f 241/1/6 242/1/6 243/1/6
f 243/1/6 242/1/6 244/1/6
f 244/1/6 242/1/6 245/1/6
f 245/1/6 242/1/6 246/1/6
f 244/1/6 245/1/6 247/1/6
f 247/1/6 245/1/6 248/1/6
