# MagicaVoxel @ Ephtracy

# group
g map-92

# material
mtllib map-92.mtl
usemtl palette

# normals
vn -1 0 0
vn 1 0 0
vn 0 0 1
vn 0 0 -1
vn 0 -1 0
vn 0 1 0

# texcoords
vt 0.287109 0.5
vt 0.353516 0.5
vt 0.412109 0.5
vt 0.478516 0.5
vt 0.482422 0.5
vt 0.576172 0.5
vt 0.587891 0.5
vt 0.599609 0.5
vt 0.615234 0.5
vt 0.654297 0.5
vt 0.677734 0.5
vt 0.791016 0.5
vt 0.947266 0.5
vt 0.958984 0.5
vt 0.990234 0.5
vt 0.994141 0.5

# verts
v -1 0 12
v -1 0 2
v -1 0 1
v -1 0 -1
v -1 0 -2
v -1 0 -12
v -1 1 2
v -1 1 1
v -1 1 -1
v -1 1 -2
v -1 15 12
v -1 15 -12
v 1 0 12
v 1 0 -12
v 1 1 11
v 1 1 8
v 1 1 5
v 1 1 4
v 1 1 3
v 1 1 -0
v 1 1 -3
v 1 1 -5
v 1 1 -7
v 1 1 -9
v 1 1 -11
v 1 2 8
v 1 2 7
v 1 2 5
v 1 2 4
v 1 2 3
v 1 2 1
v 1 2 -0
v 1 2 -1
v 1 2 -2
v 1 2 -5
v 1 2 -6
v 1 2 -7
v 1 3 11
v 1 3 10
v 1 3 7
v 1 3 6
v 1 3 2
v 1 3 1
v 1 3 -1
v 1 3 -2
v 1 3 -3
v 1 3 -4
v 1 3 -5
v 1 3 -6
v 1 3 -7
v 1 3 -8
v 1 3 -9
v 1 3 -10
v 1 3 -11
v 1 4 10
v 1 4 8
v 1 4 6
v 1 4 5
v 1 4 4
v 1 4 3
v 1 4 2
v 1 4 -1
v 1 4 -2
v 1 4 -3
v 1 4 -4
v 1 4 -8
v 1 4 -9
v 1 4 -10
v 1 4 -11
v 1 5 8
v 1 5 7
v 1 5 5
v 1 5 4
v 1 5 3
v 1 5 2
v 1 5 1
v 1 5 -0
v 1 5 -1
v 1 5 -2
v 1 5 -3
v 1 5 -9
v 1 5 -10
v 1 6 7
v 1 6 6
v 1 6 5
v 1 6 4
v 1 6 3
v 1 6 2
v 1 6 1
v 1 6 -0
v 1 6 -3
v 1 6 -4
v 1 6 -5
v 1 6 -7
v 1 6 -8
v 1 6 -9
v 1 7 6
v 1 7 5
v 1 7 3
v 1 7 2
v 1 7 -4
v 1 7 -5
v 1 7 -7
v 1 7 -8
v 1 8 11
v 1 8 10
v 1 8 6
v 1 8 5
v 1 8 3
v 1 8 2
v 1 8 -3
v 1 8 -4
v 1 8 -5
v 1 8 -7
v 1 8 -8
v 1 8 -9
v 1 8 -11
v 1 9 5
v 1 9 4
v 1 9 3
v 1 9 2
v 1 9 -3
v 1 9 -4
v 1 9 -5
v 1 9 -6
v 1 9 -7
v 1 9 -8
v 1 9 -9
v 1 10 6
v 1 10 5
v 1 10 4
v 1 10 3
v 1 10 2
v 1 10 -3
v 1 10 -4
v 1 10 -5
v 1 10 -6
v 1 10 -7
v 1 10 -8
v 1 10 -9
v 1 11 6
v 1 11 5
v 1 11 3
v 1 11 2
v 1 11 -2
v 1 11 -3
v 1 11 -4
v 1 11 -5
v 1 11 -7
v 1 11 -8
v 1 11 -9
v 1 11 -10
v 1 12 5
v 1 12 3
v 1 12 -2
v 1 12 -3
v 1 12 -5
v 1 12 -7
v 1 12 -9
v 1 12 -10
v 1 13 -4
v 1 13 -5
v 1 13 -7
v 1 13 -8
v 1 14 11
v 1 14 -3
v 1 14 -4
v 1 14 -5
v 1 14 -7
v 1 14 -8
v 1 14 -9
v 1 14 -11
v 1 15 12
v 1 15 -12
v -1 0 12
v -1 15 12
v 1 0 12
v 1 15 12
v -1 0 -12
v -1 15 -12
v 1 0 -12
v 1 15 -12
v -1 0 12
v 1 0 12
v -1 0 2
v 0 0 2
v -1 0 1
v 0 0 1
v -1 0 -1
v 0 0 -1
v -1 0 -2
v 0 0 -2
v -1 0 -12
v 1 0 -12
v -1 15 12
v 1 15 12
v -1 15 -12
v 1 15 -12

# faces
f 7/16/1 2/16/1 1/16/1
f 7/14/1 3/14/1 2/14/1
f 8/5/1 4/5/1 3/5/1
f 8/14/1 3/14/1 7/14/1
f 9/14/1 5/14/1 4/14/1
f 9/5/1 4/5/1 8/5/1
f 10/16/1 6/16/1 5/16/1
f 10/14/1 5/14/1 9/14/1
f 11/16/1 9/16/1 8/16/1
f 11/16/1 8/16/1 7/16/1
f 11/16/1 10/16/1 9/16/1
f 11/16/1 7/16/1 1/16/1
f 12/16/1 6/16/1 10/16/1
f 12/16/1 10/16/1 11/16/1
f 13/16/2 14/16/2 15/16/2
f 15/16/2 14/16/2 16/16/2
f 16/16/2 14/16/2 17/16/2
f 17/16/2 14/16/2 18/16/2
f 18/16/2 14/16/2 19/16/2
f 19/16/2 14/16/2 20/16/2
f 20/16/2 14/16/2 21/16/2
f 21/16/2 14/16/2 22/16/2
f 22/16/2 14/16/2 23/16/2
f 23/16/2 14/16/2 24/16/2
f 24/16/2 14/16/2 25/16/2
f 15/7/2 16/7/2 26/7/2
f 16/12/2 17/12/2 26/12/2
f 26/12/2 17/12/2 27/12/2
f 17/7/2 18/7/2 28/7/2
f 27/12/2 17/12/2 28/12/2
f 18/9/2 19/9/2 29/9/2
f 28/7/2 18/7/2 29/7/2
f 19/12/2 20/12/2 30/12/2
f 29/9/2 19/9/2 30/9/2
f 30/12/2 20/12/2 31/12/2
f 20/7/2 21/7/2 32/7/2
f 31/12/2 20/12/2 32/12/2
f 32/7/2 21/7/2 33/7/2
f 33/7/2 21/7/2 34/7/2
f 21/14/2 22/14/2 35/14/2
f 22/13/2 23/13/2 35/13/2
f 35/13/2 23/13/2 36/13/2
f 23/14/2 24/14/2 37/14/2
f 36/13/2 23/13/2 37/13/2
f 13/16/2 15/16/2 38/16/2
f 26/7/2 27/7/2 38/7/2
f 15/7/2 26/7/2 38/7/2
f 38/7/2 27/7/2 39/7/2
f 27/12/2 28/12/2 40/12/2
f 39/7/2 27/7/2 40/7/2
f 28/12/2 29/12/2 40/12/2
f 30/12/2 31/12/2 40/12/2
f 29/12/2 30/12/2 40/12/2
f 40/12/2 31/12/2 41/12/2
f 41/12/2 31/12/2 42/12/2
f 32/7/2 33/7/2 43/7/2
f 42/12/2 31/12/2 43/12/2
f 31/7/2 32/7/2 43/7/2
f 33/3/2 34/3/2 44/3/2
f 43/7/2 33/7/2 44/7/2
f 34/7/2 21/7/2 45/7/2
f 44/3/2 34/3/2 45/3/2
f 21/14/2 35/14/2 46/14/2
f 45/7/2 21/7/2 46/7/2
f 46/14/2 35/14/2 47/14/2
f 35/16/2 36/16/2 48/16/2
f 47/14/2 35/14/2 48/14/2
f 36/4/2 37/4/2 49/4/2
f 48/16/2 36/16/2 49/16/2
f 37/14/2 24/14/2 50/14/2
f 49/4/2 37/4/2 50/4/2
f 50/14/2 24/14/2 51/14/2
f 24/7/2 25/7/2 52/7/2
f 51/14/2 24/14/2 52/14/2
f 52/7/2 25/7/2 53/7/2
f 25/16/2 14/16/2 54/16/2
f 53/7/2 25/7/2 54/7/2
f 38/6/2 39/6/2 55/6/2
f 40/9/2 41/9/2 55/9/2
f 39/9/2 40/9/2 55/9/2
f 55/9/2 41/9/2 56/9/2
f 41/5/2 42/5/2 57/5/2
f 56/9/2 41/9/2 57/9/2
f 57/5/2 42/5/2 58/5/2
f 58/5/2 42/5/2 59/5/2
f 59/5/2 42/5/2 60/5/2
f 43/9/2 44/9/2 61/9/2
f 60/5/2 42/5/2 61/5/2
f 42/9/2 43/9/2 61/9/2
f 44/14/2 45/14/2 62/14/2
f 61/9/2 44/9/2 62/9/2
f 45/14/2 46/14/2 62/14/2
f 62/14/2 46/14/2 63/14/2
f 46/9/2 47/9/2 64/9/2
f 63/14/2 46/14/2 64/14/2
f 47/14/2 48/14/2 65/14/2
f 64/9/2 47/9/2 65/9/2
f 50/14/2 51/14/2 66/14/2
f 51/9/2 52/9/2 66/9/2
f 52/14/2 53/14/2 67/14/2
f 66/9/2 52/9/2 67/9/2
f 53/3/2 54/3/2 68/3/2
f 67/14/2 53/14/2 68/14/2
f 54/16/2 14/16/2 69/16/2
f 68/3/2 54/3/2 69/3/2
f 55/8/2 56/8/2 70/8/2
f 57/1/2 58/1/2 70/1/2
f 56/1/2 57/1/2 70/1/2
f 70/1/2 58/1/2 71/1/2
f 58/5/2 59/5/2 72/5/2
f 71/1/2 58/1/2 72/1/2
f 59/15/2 60/15/2 73/15/2
f 72/5/2 59/5/2 73/5/2
f 60/5/2 61/5/2 74/5/2
f 73/15/2 60/15/2 74/15/2
f 61/1/2 62/1/2 75/1/2
f 74/5/2 61/5/2 75/5/2
f 75/1/2 62/1/2 76/1/2
f 76/1/2 62/1/2 77/1/2
f 62/8/2 63/8/2 78/8/2
f 77/1/2 62/1/2 78/1/2
f 63/14/2 64/14/2 79/14/2
f 78/8/2 63/8/2 79/8/2
f 64/14/2 65/14/2 79/14/2
f 79/14/2 65/14/2 80/14/2
f 67/14/2 68/14/2 81/14/2
f 66/14/2 67/14/2 81/14/2
f 68/8/2 69/8/2 82/8/2
f 81/14/2 68/14/2 82/14/2
f 71/5/2 72/5/2 83/5/2
f 70/8/2 71/8/2 83/8/2
f 83/5/2 72/5/2 84/5/2
f 72/1/2 73/1/2 85/1/2
f 84/5/2 72/5/2 85/5/2
f 73/15/2 74/15/2 86/15/2
f 85/1/2 73/1/2 86/1/2
f 74/1/2 75/1/2 87/1/2
f 86/15/2 74/15/2 87/15/2
f 75/5/2 76/5/2 88/5/2
f 87/1/2 75/1/2 88/1/2
f 76/1/2 77/1/2 89/1/2
f 88/5/2 76/5/2 89/5/2
f 77/8/2 78/8/2 90/8/2
f 89/1/2 77/1/2 90/1/2
f 79/8/2 80/8/2 90/8/2
f 78/8/2 79/8/2 90/8/2
f 80/14/2 65/14/2 91/14/2
f 90/8/2 80/8/2 91/8/2
f 65/14/2 48/14/2 92/14/2
f 91/14/2 65/14/2 92/14/2
f 48/10/2 49/10/2 93/10/2
f 92/14/2 48/14/2 93/14/2
f 49/10/2 50/10/2 93/10/2
f 50/14/2 66/14/2 94/14/2
f 93/10/2 50/10/2 94/10/2
f 66/14/2 81/14/2 94/14/2
f 94/14/2 81/14/2 95/14/2
f 81/8/2 82/8/2 96/8/2
f 95/14/2 81/14/2 96/14/2
f 87/5/2 88/5/2 97/5/2
f 83/8/2 84/8/2 97/8/2
f 86/5/2 87/5/2 97/5/2
f 85/5/2 86/5/2 97/5/2
f 84/5/2 85/5/2 97/5/2
f 97/5/2 88/5/2 98/5/2
f 98/5/2 88/5/2 99/5/2
f 91/8/2 92/8/2 100/8/2
f 99/5/2 88/5/2 100/5/2
f 90/8/2 91/8/2 100/8/2
f 88/8/2 89/8/2 100/8/2
f 89/8/2 90/8/2 100/8/2
f 92/14/2 93/14/2 101/14/2
f 100/8/2 92/8/2 101/8/2
f 94/14/2 95/14/2 101/14/2
f 93/14/2 94/14/2 101/14/2
f 101/14/2 95/14/2 102/14/2
f 102/14/2 95/14/2 103/14/2
f 95/8/2 96/8/2 104/8/2
f 103/14/2 95/14/2 104/14/2
f 38/6/2 55/6/2 105/6/2
f 13/16/2 38/16/2 105/16/2
f 97/8/2 98/8/2 106/8/2
f 105/6/2 55/6/2 106/6/2
f 83/8/2 97/8/2 106/8/2
f 55/8/2 70/8/2 106/8/2
f 70/8/2 83/8/2 106/8/2
f 106/8/2 98/8/2 107/8/2
f 98/1/2 99/1/2 108/1/2
f 107/8/2 98/8/2 108/8/2
f 99/8/2 100/8/2 109/8/2
f 108/1/2 99/1/2 109/1/2
f 100/8/2 101/8/2 109/8/2
f 109/8/2 101/8/2 110/8/2
f 110/8/2 101/8/2 111/8/2
f 101/6/2 102/6/2 112/6/2
f 111/8/2 101/8/2 112/8/2
f 102/3/2 103/3/2 113/3/2
f 112/6/2 102/6/2 113/6/2
f 103/8/2 104/8/2 114/8/2
f 113/3/2 103/3/2 114/3/2
f 104/8/2 96/8/2 115/8/2
f 114/8/2 104/8/2 115/8/2
f 96/8/2 82/8/2 116/8/2
f 115/8/2 96/8/2 116/8/2
f 69/16/2 14/16/2 117/16/2
f 116/8/2 82/8/2 117/8/2
f 82/8/2 69/8/2 117/8/2
f 107/1/2 108/1/2 118/1/2
f 109/1/2 110/1/2 118/1/2
f 108/1/2 109/1/2 118/1/2
f 118/1/2 110/1/2 119/1/2
f 119/1/2 110/1/2 120/1/2
f 110/2/2 111/2/2 121/2/2
f 120/1/2 110/1/2 121/1/2
f 111/11/2 112/11/2 122/11/2
f 121/2/2 111/2/2 122/2/2
f 113/3/2 114/3/2 123/3/2
f 122/11/2 112/11/2 123/11/2
f 112/3/2 113/3/2 123/3/2
f 114/3/2 115/3/2 123/3/2
f 123/3/2 115/3/2 124/3/2
f 124/3/2 115/3/2 125/3/2
f 125/3/2 115/3/2 126/3/2
f 115/11/2 116/11/2 127/11/2
f 126/3/2 115/3/2 127/3/2
f 116/2/2 117/2/2 128/2/2
f 127/11/2 116/11/2 128/11/2
f 106/2/2 107/2/2 129/2/2
f 105/2/2 106/2/2 129/2/2
f 107/1/2 118/1/2 129/1/2
f 118/14/2 119/14/2 130/14/2
f 129/1/2 118/1/2 130/1/2
f 119/1/2 120/1/2 131/1/2
f 130/14/2 119/14/2 131/14/2
f 120/14/2 121/14/2 132/14/2
f 131/1/2 120/1/2 132/1/2
f 121/2/2 122/2/2 133/2/2
f 132/14/2 121/14/2 133/14/2
f 122/2/2 123/2/2 133/2/2
f 133/2/2 123/2/2 134/2/2
f 123/14/2 124/14/2 135/14/2
f 134/2/2 123/2/2 135/2/2
f 124/3/2 125/3/2 136/3/2
f 135/14/2 124/14/2 136/14/2
f 125/14/2 126/14/2 137/14/2
f 136/3/2 125/3/2 137/3/2
f 126/3/2 127/3/2 138/3/2
f 137/14/2 126/14/2 138/14/2
f 127/2/2 128/2/2 139/2/2
f 138/3/2 127/3/2 139/3/2
f 128/2/2 117/2/2 140/2/2
f 139/2/2 128/2/2 140/2/2
f 129/13/2 130/13/2 141/13/2
f 105/2/2 129/2/2 141/2/2
f 131/1/2 132/1/2 142/1/2
f 141/13/2 130/13/2 142/13/2
f 130/1/2 131/1/2 142/1/2
f 132/13/2 133/13/2 143/13/2
f 142/1/2 132/1/2 143/1/2
f 133/2/2 134/2/2 144/2/2
f 143/13/2 133/13/2 144/13/2
f 144/2/2 134/2/2 145/2/2
f 134/11/2 135/11/2 146/11/2
f 145/2/2 134/2/2 146/2/2
f 138/3/2 139/3/2 147/3/2
f 146/11/2 135/11/2 147/11/2
f 135/3/2 136/3/2 147/3/2
f 136/3/2 137/3/2 147/3/2
f 137/3/2 138/3/2 147/3/2
f 147/3/2 139/3/2 148/3/2
f 148/3/2 139/3/2 149/3/2
f 139/11/2 140/11/2 150/11/2
f 149/3/2 139/3/2 150/3/2
f 140/2/2 117/2/2 151/2/2
f 150/11/2 140/11/2 151/11/2
f 151/2/2 117/2/2 152/2/2
f 142/13/2 143/13/2 153/13/2
f 141/2/2 142/2/2 153/2/2
f 143/2/2 144/2/2 154/2/2
f 153/13/2 143/13/2 154/13/2
f 144/2/2 145/2/2 154/2/2
f 145/11/2 146/11/2 155/11/2
f 154/2/2 145/2/2 155/2/2
f 146/11/2 147/11/2 155/11/2
f 147/11/2 148/11/2 155/11/2
f 155/11/2 148/11/2 156/11/2
f 148/3/2 149/3/2 157/3/2
f 156/11/2 148/11/2 157/11/2
f 149/11/2 150/11/2 158/11/2
f 157/3/2 149/3/2 158/3/2
f 151/11/2 152/11/2 158/11/2
f 150/11/2 151/11/2 158/11/2
f 158/11/2 152/11/2 159/11/2
f 152/2/2 117/2/2 160/2/2
f 159/11/2 152/11/2 160/11/2
f 156/11/2 157/11/2 161/11/2
f 158/11/2 159/11/2 161/11/2
f 157/11/2 158/11/2 161/11/2
f 161/11/2 159/11/2 162/11/2
f 162/11/2 159/11/2 163/11/2
f 163/11/2 159/11/2 164/11/2
f 153/2/2 154/2/2 165/2/2
f 13/16/2 105/16/2 165/16/2
f 105/2/2 141/2/2 165/2/2
f 155/2/2 156/2/2 165/2/2
f 141/2/2 153/2/2 165/2/2
f 154/2/2 155/2/2 165/2/2
f 156/11/2 161/11/2 166/11/2
f 165/2/2 156/2/2 166/2/2
f 161/2/2 162/2/2 167/2/2
f 166/11/2 161/11/2 167/11/2
f 162/11/2 163/11/2 168/11/2
f 167/2/2 162/2/2 168/2/2
f 163/2/2 164/2/2 169/2/2
f 168/11/2 163/11/2 169/11/2
f 164/11/2 159/11/2 170/11/2
f 169/2/2 164/2/2 170/2/2
f 159/2/2 160/2/2 171/2/2
f 170/11/2 159/11/2 171/11/2
f 117/16/2 14/16/2 172/16/2
f 171/2/2 160/2/2 172/2/2
f 160/2/2 117/2/2 172/2/2
f 168/16/2 169/16/2 173/16/2
f 170/16/2 171/16/2 173/16/2
f 171/16/2 172/16/2 173/16/2
f 13/16/2 165/16/2 173/16/2
f 165/16/2 166/16/2 173/16/2
f 166/16/2 167/16/2 173/16/2
f 169/16/2 170/16/2 173/16/2
f 167/16/2 168/16/2 173/16/2
f 172/16/2 14/16/2 174/16/2
f 173/16/2 172/16/2 174/16/2
f 177/16/3 176/16/3 175/16/3
f 178/16/3 176/16/3 177/16/3
f 179/16/4 180/16/4 181/16/4
f 181/16/4 180/16/4 182/16/4
f 185/16/5 184/16/5 183/16/5
f 186/16/5 184/16/5 185/16/5
f 187/14/5 186/14/5 185/14/5
f 188/16/5 184/16/5 186/16/5
f 188/14/5 186/14/5 187/14/5
f 189/5/5 188/5/5 187/5/5
f 190/16/5 184/16/5 188/16/5
f 190/5/5 188/5/5 189/5/5
f 191/14/5 190/14/5 189/14/5
f 192/16/5 184/16/5 190/16/5
f 192/14/5 190/14/5 191/14/5
f 193/16/5 192/16/5 191/16/5
f 194/16/5 184/16/5 192/16/5
f 194/16/5 192/16/5 193/16/5
f 195/16/6 196/16/6 197/16/6
f 197/16/6 196/16/6 198/16/6
