# MagicaVoxel @ Ephtracy

# group
g map-74

# material
mtllib map-74.mtl
usemtl palette

# normals
vn -1 0 0
vn 1 0 0
vn 0 0 1
vn 0 0 -1
vn 0 -1 0
vn 0 1 0

# texcoords
vt 0.916016 0.5
vt 0.958984 0.5
vt 0.970703 0.5
vt 0.982422 0.5
vt 0.986328 0.5
vt 0.994141 0.5

# verts
v -5 0 2
v -5 0 -1
v -5 0 -2
v -5 0 -5
v -5 1 2
v -5 1 -1
v -5 1 -2
v -5 1 -5
v -5 37 2
v -5 37 -5
v -5 38 2
v -5 38 -5
v -2 1 2
v -2 1 -1
v -2 1 -2
v -2 7 2
v -2 7 -2
v -2 33 2
v -2 33 -2
v -2 37 2
v -2 37 -2
v 0 7 1
v 0 7 -1
v 0 16 2
v 0 16 1
v 0 17 2
v 0 17 1
v 0 23 2
v 0 23 1
v 0 24 2
v 0 24 1
v 0 33 1
v 0 33 -1
v 2 37 3
v 2 37 2
v 2 38 3
v 2 38 2
v 2 0 2
v 2 0 -5
v 2 1 2
v 2 1 -1
v 2 1 -2
v 2 1 -5
v 2 7 2
v 2 7 1
v 2 7 -1
v 2 7 -2
v 2 16 2
v 2 16 1
v 2 17 2
v 2 17 1
v 2 23 2
v 2 23 1
v 2 24 2
v 2 24 1
v 2 33 2
v 2 33 1
v 2 33 -1
v 2 33 -2
v 2 36 2
v 2 36 1
v 2 37 2
v 2 37 1
v 2 37 -1
v 2 37 -2
v 2 37 -5
v 2 38 2
v 2 38 -5
v 3 37 3
v 3 37 2
v 3 38 3
v 3 38 2
v 2 37 3
v 2 38 3
v 3 37 3
v 3 38 3
v -5 0 2
v -5 1 2
v -5 37 2
v -5 38 2
v -2 1 2
v -2 7 2
v -2 33 2
v -2 37 2
v -1 1 2
v -1 7 2
v -1 33 2
v -1 37 2
v 0 16 2
v 0 17 2
v 0 23 2
v 0 24 2
v 1 36 2
v 1 37 2
v 2 0 2
v 2 1 2
v 2 7 2
v 2 16 2
v 2 17 2
v 2 23 2
v 2 24 2
v 2 33 2
v 2 36 2
v 2 37 2
v 2 38 2
v 0 7 1
v 0 16 1
v 0 17 1
v 0 23 1
v 0 24 1
v 0 33 1
v 2 7 1
v 2 16 1
v 2 17 1
v 2 23 1
v 2 24 1
v 2 33 1
v 2 37 2
v 2 38 2
v 3 37 2
v 3 38 2
v 0 7 -1
v 0 33 -1
v 2 7 -1
v 2 33 -1
v -2 1 -2
v -2 7 -2
v -2 33 -2
v -2 37 -2
v -1 1 -2
v 2 1 -2
v 2 7 -2
v 2 33 -2
v 2 37 -2
v -5 0 -5
v -5 1 -5
v -5 37 -5
v -5 38 -5
v -2 0 -5
v -2 1 -5
v -1 0 -5
v -1 1 -5
v 2 0 -5
v 2 1 -5
v 2 37 -5
v 2 38 -5
v -5 0 2
v 2 0 2
v -5 0 -1
v -1 0 -1
v -5 0 -2
v -2 0 -2
v -5 0 -5
v -2 0 -5
v -1 0 -5
v 2 0 -5
v 0 16 2
v 2 16 2
v 0 16 1
v 2 16 1
v 0 23 2
v 2 23 2
v 0 23 1
v 2 23 1
v -2 33 2
v -1 33 2
v 2 33 2
v 0 33 1
v 2 33 1
v -1 33 -1
v 0 33 -1
v 2 33 -1
v -2 33 -2
v 2 33 -2
v 2 37 3
v 3 37 3
v -5 37 2
v -2 37 2
v 2 37 2
v 3 37 2
v -2 37 -2
v 2 37 -2
v -5 37 -5
v 2 37 -5
v -5 1 2
v -2 1 2
v -5 1 -1
v -2 1 -1
v -5 1 -2
v -2 1 -2
v -1 1 -2
v 2 1 -2
v -5 1 -5
v -2 1 -5
v -1 1 -5
v 2 1 -5
v -2 7 2
v -1 7 2
v 2 7 2
v 0 7 1
v 2 7 1
v -1 7 -1
v 0 7 -1
v 2 7 -1
v -2 7 -2
v 2 7 -2
v 0 17 2
v 2 17 2
v 0 17 1
v 2 17 1
v 0 24 2
v 2 24 2
v 0 24 1
v 2 24 1
v 2 38 3
v 3 38 3
v -5 38 2
v 2 38 2
v 3 38 2
v -5 38 -5
v 2 38 -5

# faces
f 5/3/1 2/3/1 1/3/1
f 6/4/1 3/4/1 2/4/1
f 6/3/1 2/3/1 5/3/1
f 7/3/1 4/3/1 3/3/1
f 7/4/1 3/4/1 6/4/1
f 8/3/1 4/3/1 7/3/1
f 11/1/1 10/1/1 9/1/1
f 12/1/1 10/1/1 11/1/1
f 16/1/1 14/1/1 13/1/1
f 16/1/1 15/1/1 14/1/1
f 17/1/1 15/1/1 16/1/1
f 20/1/1 19/1/1 18/1/1
f 21/1/1 19/1/1 20/1/1
f 25/6/1 23/6/1 22/6/1
f 26/6/1 25/6/1 24/6/1
f 27/6/1 23/6/1 25/6/1
f 27/6/1 25/6/1 26/6/1
f 29/6/1 23/6/1 27/6/1
f 30/6/1 29/6/1 28/6/1
f 31/6/1 23/6/1 29/6/1
f 31/6/1 29/6/1 30/6/1
f 32/6/1 23/6/1 31/6/1
f 33/6/1 23/6/1 32/6/1
f 36/2/1 35/2/1 34/2/1
f 37/2/1 35/2/1 36/2/1
f 38/3/2 39/3/2 40/3/2
f 40/3/2 39/3/2 41/3/2
f 41/3/2 39/3/2 42/3/2
f 42/3/2 39/3/2 43/3/2
f 40/5/2 41/5/2 44/5/2
f 44/5/2 41/5/2 45/5/2
f 41/1/2 42/1/2 46/1/2
f 45/5/2 41/5/2 46/5/2
f 46/1/2 42/1/2 47/1/2
f 45/6/2 46/6/2 49/6/2
f 48/6/2 49/6/2 50/6/2
f 49/6/2 46/6/2 51/6/2
f 50/6/2 49/6/2 51/6/2
f 51/6/2 46/6/2 53/6/2
f 52/6/2 53/6/2 54/6/2
f 53/6/2 46/6/2 55/6/2
f 54/6/2 53/6/2 55/6/2
f 55/6/2 46/6/2 57/6/2
f 57/6/2 46/6/2 58/6/2
f 56/5/2 57/5/2 60/5/2
f 57/5/2 58/5/2 60/5/2
f 60/5/2 58/5/2 61/5/2
f 60/2/2 61/2/2 62/2/2
f 61/5/2 58/5/2 63/5/2
f 62/2/2 61/2/2 63/2/2
f 58/1/2 59/1/2 64/1/2
f 63/5/2 58/5/2 64/5/2
f 64/1/2 59/1/2 65/1/2
f 64/1/2 65/1/2 67/1/2
f 65/1/2 66/1/2 67/1/2
f 63/1/2 64/1/2 67/1/2
f 62/1/2 63/1/2 67/1/2
f 67/1/2 66/1/2 68/1/2
f 69/2/2 70/2/2 71/2/2
f 71/2/2 70/2/2 72/2/2
f 75/2/3 74/2/3 73/2/3
f 76/2/3 74/2/3 75/2/3
f 81/3/3 78/3/3 77/3/3
f 84/1/3 80/1/3 79/1/3
f 85/1/3 82/1/3 81/1/3
f 85/3/3 81/3/3 77/3/3
f 86/1/3 82/1/3 85/1/3
f 87/1/3 84/1/3 83/1/3
f 88/1/3 80/1/3 84/1/3
f 88/1/3 84/1/3 87/1/3
f 93/5/3 88/5/3 87/5/3
f 94/1/3 80/1/3 88/1/3
f 94/5/3 88/5/3 93/5/3
f 95/3/3 85/3/3 77/3/3
f 96/5/3 86/5/3 85/5/3
f 96/3/3 85/3/3 95/3/3
f 97/5/3 86/5/3 96/5/3
f 98/6/3 90/6/3 89/6/3
f 99/6/3 90/6/3 98/6/3
f 100/6/3 92/6/3 91/6/3
f 101/6/3 92/6/3 100/6/3
f 102/5/3 93/5/3 87/5/3
f 103/2/3 94/2/3 93/2/3
f 103/5/3 93/5/3 102/5/3
f 104/1/3 80/1/3 94/1/3
f 104/2/3 94/2/3 103/2/3
f 105/1/3 80/1/3 104/1/3
f 112/6/3 107/6/3 106/6/3
f 113/6/3 107/6/3 112/6/3
f 114/6/3 109/6/3 108/6/3
f 115/6/3 109/6/3 114/6/3
f 116/6/3 111/6/3 110/6/3
f 117/6/3 111/6/3 116/6/3
f 118/2/4 119/2/4 120/2/4
f 120/2/4 119/2/4 121/2/4
f 122/6/4 123/6/4 124/6/4
f 124/6/4 123/6/4 125/6/4
f 126/1/4 127/1/4 130/1/4
f 130/1/4 127/1/4 131/1/4
f 131/1/4 127/1/4 132/1/4
f 128/1/4 129/1/4 133/1/4
f 133/1/4 129/1/4 134/1/4
f 135/3/4 136/3/4 139/3/4
f 139/3/4 136/3/4 140/3/4
f 139/4/4 140/4/4 141/4/4
f 141/4/4 140/4/4 142/4/4
f 141/3/4 142/3/4 143/3/4
f 143/3/4 142/3/4 144/3/4
f 137/1/4 138/1/4 145/1/4
f 145/1/4 138/1/4 146/1/4
f 149/3/5 148/3/5 147/3/5
f 150/3/5 148/3/5 149/3/5
f 151/4/5 150/4/5 149/4/5
f 152/4/5 150/4/5 151/4/5
f 153/3/5 152/3/5 151/3/5
f 154/4/5 150/4/5 152/4/5
f 154/3/5 152/3/5 153/3/5
f 155/3/5 148/3/5 150/3/5
f 155/4/5 150/4/5 154/4/5
f 156/3/5 148/3/5 155/3/5
f 159/6/5 158/6/5 157/6/5
f 160/6/5 158/6/5 159/6/5
f 163/6/5 162/6/5 161/6/5
f 164/6/5 162/6/5 163/6/5
f 168/5/5 167/5/5 166/5/5
f 169/5/5 167/5/5 168/5/5
f 170/1/5 166/1/5 165/1/5
f 170/5/5 168/5/5 166/5/5
f 171/5/5 168/5/5 170/5/5
f 173/1/5 170/1/5 165/1/5
f 173/1/5 172/1/5 171/1/5
f 173/1/5 171/1/5 170/1/5
f 174/1/5 172/1/5 173/1/5
f 179/2/5 176/2/5 175/2/5
f 180/2/5 176/2/5 179/2/5
f 181/1/5 178/1/5 177/1/5
f 183/1/5 181/1/5 177/1/5
f 183/1/5 182/1/5 181/1/5
f 184/1/5 182/1/5 183/1/5
f 185/3/6 186/3/6 187/3/6
f 187/3/6 186/3/6 188/3/6
f 187/4/6 188/4/6 189/4/6
f 189/4/6 188/4/6 190/4/6
f 189/3/6 190/3/6 193/3/6
f 190/4/6 191/4/6 194/4/6
f 193/3/6 190/3/6 194/3/6
f 191/3/6 192/3/6 195/3/6
f 194/4/6 191/4/6 195/4/6
f 195/3/6 192/3/6 196/3/6
f 198/5/6 199/5/6 200/5/6
f 200/5/6 199/5/6 201/5/6
f 197/1/6 198/1/6 202/1/6
f 198/5/6 200/5/6 202/5/6
f 202/5/6 200/5/6 203/5/6
f 197/1/6 202/1/6 205/1/6
f 203/1/6 204/1/6 205/1/6
f 202/1/6 203/1/6 205/1/6
f 205/1/6 204/1/6 206/1/6
f 207/6/6 208/6/6 209/6/6
f 209/6/6 208/6/6 210/6/6
f 211/6/6 212/6/6 213/6/6
f 213/6/6 212/6/6 214/6/6
f 215/2/6 216/2/6 218/2/6
f 218/2/6 216/2/6 219/2/6
f 217/1/6 218/1/6 220/1/6
f 220/1/6 218/1/6 221/1/6
