# MagicaVoxel @ Ephtracy

# group
g map-191

# material
mtllib map-191.mtl
usemtl palette

# normals
vn -1 0 0
vn 1 0 0
vn 0 0 1
vn 0 0 -1
vn 0 -1 0
vn 0 1 0

# texcoords
vt 0.103516 0.5
vt 0.142578 0.5
vt 0.177734 0.5

# verts
v -2 0 10
v -2 0 7
v -2 0 6
v -2 0 2
v -2 0 1
v -2 0 -4
v -2 0 -5
v -2 0 -9
v -2 0 -10
v -2 3 10
v -2 3 7
v -2 3 6
v -2 3 2
v -2 3 1
v -2 3 -4
v -2 3 -5
v -2 3 -9
v -2 4 10
v -2 4 5
v -2 4 4
v -2 4 -1
v -2 4 -2
v -2 4 -7
v -2 4 -8
v -2 4 -10
v -2 7 10
v -2 7 5
v -2 7 4
v -2 7 -1
v -2 7 -2
v -2 7 -7
v -2 7 -8
v -2 7 -10
v -2 8 10
v -2 8 8
v -2 8 7
v -2 8 3
v -2 8 2
v -2 8 -3
v -2 8 -4
v -2 8 -9
v -2 11 10
v -2 11 8
v -2 11 7
v -2 11 3
v -2 11 2
v -2 11 -3
v -2 11 -4
v -2 11 -9
v -2 12 9
v -2 12 -9
v -2 14 9
v -2 14 -9
v -2 15 10
v -2 15 -10
v 2 0 10
v 2 0 9
v 2 0 2
v 2 0 1
v 2 0 -4
v 2 0 -5
v 2 0 -9
v 2 0 -10
v 2 3 9
v 2 3 2
v 2 3 1
v 2 3 -4
v 2 3 -5
v 2 3 -9
v 2 4 10
v 2 4 4
v 2 4 3
v 2 4 -3
v 2 4 -4
v 2 4 -10
v 2 7 10
v 2 7 4
v 2 7 3
v 2 7 -3
v 2 7 -4
v 2 7 -10
v 2 8 10
v 2 8 8
v 2 8 7
v 2 8 -0
v 2 8 -1
v 2 8 -7
v 2 8 -8
v 2 8 -10
v 2 11 10
v 2 11 8
v 2 11 7
v 2 11 -0
v 2 11 -1
v 2 11 -7
v 2 11 -8
v 2 11 -10
v 2 12 9
v 2 12 -9
v 2 14 9
v 2 14 -9
v 2 15 10
v 2 15 -10
v -2 0 10
v -2 3 10
v -2 4 10
v -2 7 10
v -2 8 10
v -2 11 10
v -2 15 10
v -1 4 10
v -1 7 10
v 0 4 10
v 0 7 10
v 1 0 10
v 1 3 10
v 2 0 10
v 2 4 10
v 2 7 10
v 2 8 10
v 2 11 10
v 2 15 10
v -2 0 -10
v -2 4 -10
v -2 7 -10
v -2 15 -10
v -1 1 -10
v -1 3 -10
v -1 8 -10
v -1 11 -10
v 0 4 -10
v 0 7 -10
v 1 1 -10
v 1 3 -10
v 1 4 -10
v 1 7 -10
v 2 0 -10
v 2 4 -10
v 2 7 -10
v 2 8 -10
v 2 11 -10
v 2 15 -10
v -2 0 10
v 1 0 10
v 2 0 10
v 1 0 9
v 2 0 9
v -2 0 7
v -1 0 7
v -2 0 6
v -1 0 6
v -2 0 2
v -1 0 2
v 1 0 2
v 2 0 2
v -2 0 1
v -1 0 1
v 1 0 1
v 2 0 1
v -2 0 -4
v 2 0 -4
v -2 0 -5
v 2 0 -5
v -2 0 -9
v 2 0 -9
v -2 0 -10
v 2 0 -10
v -2 15 10
v 2 15 10
v -1 15 9
v 1 15 9
v -1 15 7
v 1 15 7
v -1 15 -7
v 1 15 -7
v -1 15 -9
v 1 15 -9
v -2 15 -10
v 2 15 -10

# faces
f 10/2/1 2/2/1 1/2/1
f 11/1/1 3/1/1 2/1/1
f 11/2/1 2/2/1 10/2/1
f 12/2/1 4/2/1 3/2/1
f 12/1/1 3/1/1 11/1/1
f 13/1/1 5/1/1 4/1/1
f 13/2/1 4/2/1 12/2/1
f 14/2/1 6/2/1 5/2/1
f 14/1/1 5/1/1 13/1/1
f 15/1/1 7/1/1 6/1/1
f 15/2/1 6/2/1 14/2/1
f 16/2/1 8/2/1 7/2/1
f 16/1/1 7/1/1 15/1/1
f 17/1/1 9/1/1 8/1/1
f 17/2/1 8/2/1 16/2/1
f 18/1/1 16/1/1 15/1/1
f 18/1/1 11/1/1 10/1/1
f 18/1/1 17/1/1 16/1/1
f 18/1/1 15/1/1 14/1/1
f 18/1/1 14/1/1 13/1/1
f 18/1/1 13/1/1 12/1/1
f 18/1/1 12/1/1 11/1/1
f 19/1/1 17/1/1 18/1/1
f 20/1/1 17/1/1 19/1/1
f 21/1/1 17/1/1 20/1/1
f 22/1/1 17/1/1 21/1/1
f 23/1/1 17/1/1 22/1/1
f 24/1/1 17/1/1 23/1/1
f 25/1/1 9/1/1 17/1/1
f 25/1/1 17/1/1 24/1/1
f 26/2/1 19/2/1 18/2/1
f 27/1/1 20/1/1 19/1/1
f 27/2/1 19/2/1 26/2/1
f 28/2/1 21/2/1 20/2/1
f 28/1/1 20/1/1 27/1/1
f 29/1/1 22/1/1 21/1/1
f 29/2/1 21/2/1 28/2/1
f 30/2/1 23/2/1 22/2/1
f 30/1/1 22/1/1 29/1/1
f 31/1/1 24/1/1 23/1/1
f 31/2/1 23/2/1 30/2/1
f 32/2/1 25/2/1 24/2/1
f 32/1/1 24/1/1 31/1/1
f 33/2/1 25/2/1 32/2/1
f 34/1/1 30/1/1 29/1/1
f 34/1/1 27/1/1 26/1/1
f 34/1/1 33/1/1 32/1/1
f 34/1/1 32/1/1 31/1/1
f 34/1/1 31/1/1 30/1/1
f 34/1/1 29/1/1 28/1/1
f 34/1/1 28/1/1 27/1/1
f 35/1/1 33/1/1 34/1/1
f 36/1/1 33/1/1 35/1/1
f 37/1/1 33/1/1 36/1/1
f 38/1/1 33/1/1 37/1/1
f 39/1/1 33/1/1 38/1/1
f 40/1/1 33/1/1 39/1/1
f 41/1/1 33/1/1 40/1/1
f 42/2/1 35/2/1 34/2/1
f 43/1/1 36/1/1 35/1/1
f 43/2/1 35/2/1 42/2/1
f 44/2/1 37/2/1 36/2/1
f 44/1/1 36/1/1 43/1/1
f 45/1/1 38/1/1 37/1/1
f 45/2/1 37/2/1 44/2/1
f 46/2/1 39/2/1 38/2/1
f 46/1/1 38/1/1 45/1/1
f 47/1/1 40/1/1 39/1/1
f 47/2/1 39/2/1 46/2/1
f 48/2/1 41/2/1 40/2/1
f 48/1/1 40/1/1 47/1/1
f 49/1/1 33/1/1 41/1/1
f 49/2/1 41/2/1 48/2/1
f 50/1/1 48/1/1 47/1/1
f 50/1/1 43/1/1 42/1/1
f 50/1/1 49/1/1 48/1/1
f 50/1/1 47/1/1 46/1/1
f 50/1/1 46/1/1 45/1/1
f 50/1/1 45/1/1 44/1/1
f 50/1/1 44/1/1 43/1/1
f 51/1/1 33/1/1 49/1/1
f 51/1/1 49/1/1 50/1/1
f 52/1/1 50/1/1 42/1/1
f 52/2/1 51/2/1 50/2/1
f 53/1/1 33/1/1 51/1/1
f 53/2/1 51/2/1 52/2/1
f 54/1/1 52/1/1 42/1/1
f 54/1/1 53/1/1 52/1/1
f 55/1/1 33/1/1 53/1/1
f 55/1/1 53/1/1 54/1/1
f 56/1/2 57/1/2 64/1/2
f 57/2/2 58/2/2 64/2/2
f 58/1/2 59/1/2 65/1/2
f 64/2/2 58/2/2 65/2/2
f 59/2/2 60/2/2 66/2/2
f 65/1/2 59/1/2 66/1/2
f 60/1/2 61/1/2 67/1/2
f 66/2/2 60/2/2 67/2/2
f 61/2/2 62/2/2 68/2/2
f 67/1/2 61/1/2 68/1/2
f 62/1/2 63/1/2 69/1/2
f 68/2/2 62/2/2 69/2/2
f 67/1/2 68/1/2 70/1/2
f 66/1/2 67/1/2 70/1/2
f 68/1/2 69/1/2 70/1/2
f 65/1/2 66/1/2 70/1/2
f 64/1/2 65/1/2 70/1/2
f 56/1/2 64/1/2 70/1/2
f 70/1/2 69/1/2 71/1/2
f 71/1/2 69/1/2 72/1/2
f 72/1/2 69/1/2 73/1/2
f 73/1/2 69/1/2 74/1/2
f 69/1/2 63/1/2 75/1/2
f 74/1/2 69/1/2 75/1/2
f 70/2/2 71/2/2 76/2/2
f 71/1/2 72/1/2 77/1/2
f 76/2/2 71/2/2 77/2/2
f 72/2/2 73/2/2 78/2/2
f 77/1/2 72/1/2 78/1/2
f 73/1/2 74/1/2 79/1/2
f 78/2/2 73/2/2 79/2/2
f 74/2/2 75/2/2 80/2/2
f 79/1/2 74/1/2 80/1/2
f 80/2/2 75/2/2 81/2/2
f 77/1/2 78/1/2 82/1/2
f 76/1/2 77/1/2 82/1/2
f 80/1/2 81/1/2 82/1/2
f 79/1/2 80/1/2 82/1/2
f 78/1/2 79/1/2 82/1/2
f 82/1/2 81/1/2 83/1/2
f 83/1/2 81/1/2 84/1/2
f 84/1/2 81/1/2 85/1/2
f 85/1/2 81/1/2 86/1/2
f 86/1/2 81/1/2 87/1/2
f 87/1/2 81/1/2 88/1/2
f 88/1/2 81/1/2 89/1/2
f 82/2/2 83/2/2 90/2/2
f 83/1/2 84/1/2 91/1/2
f 90/2/2 83/2/2 91/2/2
f 84/2/2 85/2/2 92/2/2
f 91/1/2 84/1/2 92/1/2
f 85/1/2 86/1/2 93/1/2
f 92/2/2 85/2/2 93/2/2
f 86/2/2 87/2/2 94/2/2
f 93/1/2 86/1/2 94/1/2
f 87/1/2 88/1/2 95/1/2
f 94/2/2 87/2/2 95/2/2
f 88/2/2 89/2/2 96/2/2
f 95/1/2 88/1/2 96/1/2
f 96/2/2 89/2/2 97/2/2
f 90/1/2 91/1/2 98/1/2
f 91/1/2 92/1/2 98/1/2
f 96/1/2 97/1/2 98/1/2
f 95/1/2 96/1/2 98/1/2
f 94/1/2 95/1/2 98/1/2
f 93/1/2 94/1/2 98/1/2
f 92/1/2 93/1/2 98/1/2
f 98/1/2 97/1/2 99/1/2
f 90/1/2 98/1/2 100/1/2
f 98/2/2 99/2/2 100/2/2
f 99/1/2 97/1/2 101/1/2
f 100/2/2 99/2/2 101/2/2
f 90/1/2 100/1/2 102/1/2
f 100/1/2 101/1/2 102/1/2
f 101/1/2 97/1/2 103/1/2
f 102/1/2 101/1/2 103/1/2
f 111/1/3 106/1/3 105/1/3
f 111/2/3 107/2/3 106/2/3
f 112/1/3 108/1/3 107/1/3
f 112/2/3 107/2/3 111/2/3
f 113/1/3 111/1/3 105/1/3
f 113/1/3 112/1/3 111/1/3
f 114/1/3 108/1/3 112/1/3
f 114/1/3 112/1/3 113/1/3
f 115/2/3 105/2/3 104/2/3
f 116/1/3 113/1/3 105/1/3
f 116/2/3 105/2/3 115/2/3
f 117/1/3 116/1/3 115/1/3
f 118/2/3 114/2/3 113/2/3
f 118/1/3 116/1/3 117/1/3
f 118/1/3 113/1/3 116/1/3
f 119/1/3 108/1/3 114/1/3
f 119/2/3 114/2/3 118/2/3
f 120/2/3 109/2/3 108/2/3
f 120/1/3 108/1/3 119/1/3
f 121/1/3 110/1/3 109/1/3
f 121/2/3 109/2/3 120/2/3
f 122/1/3 110/1/3 121/1/3
f 123/1/4 124/1/4 127/1/4
f 127/1/4 124/1/4 128/1/4
f 125/1/4 126/1/4 129/1/4
f 129/1/4 126/1/4 130/1/4
f 128/1/4 124/1/4 131/1/4
f 124/2/4 125/2/4 131/2/4
f 125/1/4 129/1/4 132/1/4
f 131/2/4 125/2/4 132/2/4
f 123/1/4 127/1/4 133/1/4
f 127/2/4 128/2/4 133/2/4
f 131/1/4 132/1/4 134/1/4
f 133/2/4 128/2/4 134/2/4
f 128/1/4 131/1/4 134/1/4
f 134/1/4 132/1/4 135/1/4
f 132/1/4 129/1/4 136/1/4
f 135/1/4 132/1/4 136/1/4
f 134/1/4 135/1/4 137/1/4
f 123/1/4 133/1/4 137/1/4
f 133/1/4 134/1/4 137/1/4
f 135/2/4 136/2/4 138/2/4
f 137/1/4 135/1/4 138/1/4
f 136/1/4 129/1/4 139/1/4
f 138/2/4 136/2/4 139/2/4
f 129/2/4 130/2/4 140/2/4
f 139/1/4 129/1/4 140/1/4
f 130/1/4 126/1/4 141/1/4
f 140/2/4 130/2/4 141/2/4
f 141/1/4 126/1/4 142/1/4
f 146/2/5 144/2/5 143/2/5
f 146/1/5 145/1/5 144/1/5
f 147/1/5 145/1/5 146/1/5
f 148/2/5 146/2/5 143/2/5
f 148/2/5 147/2/5 146/2/5
f 149/2/5 147/2/5 148/2/5
f 150/1/5 149/1/5 148/1/5
f 151/2/5 147/2/5 149/2/5
f 151/1/5 149/1/5 150/1/5
f 152/2/5 151/2/5 150/2/5
f 153/2/5 147/2/5 151/2/5
f 153/2/5 151/2/5 152/2/5
f 154/2/5 147/2/5 153/2/5
f 155/2/5 147/2/5 154/2/5
f 156/1/5 153/1/5 152/1/5
f 157/2/5 154/2/5 153/2/5
f 157/1/5 153/1/5 156/1/5
f 158/1/5 155/1/5 154/1/5
f 158/2/5 154/2/5 157/2/5
f 159/1/5 155/1/5 158/1/5
f 160/2/5 157/2/5 156/2/5
f 160/2/5 158/2/5 157/2/5
f 160/2/5 159/2/5 158/2/5
f 161/2/5 159/2/5 160/2/5
f 162/1/5 161/1/5 160/1/5
f 163/1/5 161/1/5 162/1/5
f 164/2/5 163/2/5 162/2/5
f 165/2/5 163/2/5 164/2/5
f 166/1/5 165/1/5 164/1/5
f 167/1/5 165/1/5 166/1/5
f 168/1/6 169/1/6 170/1/6
f 170/1/6 169/1/6 171/1/6
f 168/1/6 170/1/6 172/1/6
f 170/3/6 171/3/6 172/3/6
f 171/1/6 169/1/6 173/1/6
f 172/3/6 171/3/6 173/3/6
f 168/1/6 172/1/6 174/1/6
f 172/2/6 173/2/6 174/2/6
f 173/1/6 169/1/6 175/1/6
f 174/2/6 173/2/6 175/2/6
f 168/1/6 174/1/6 176/1/6
f 174/3/6 175/3/6 176/3/6
f 175/1/6 169/1/6 177/1/6
f 176/3/6 175/3/6 177/3/6
f 168/1/6 176/1/6 178/1/6
f 176/1/6 177/1/6 178/1/6
f 177/1/6 169/1/6 179/1/6
f 178/1/6 177/1/6 179/1/6
