# MagicaVoxel @ Ephtracy

# group
g map-174

# material
mtllib map-174.mtl
usemtl palette

# normals
vn -1 0 0
vn 1 0 0
vn 0 0 1
vn 0 0 -1
vn 0 -1 0
vn 0 1 0

# texcoords
vt 0.271484 0.5
vt 0.443359 0.5
vt 0.447266 0.5

# verts
v -4 5 4.5
v -4 5 -4.5
v -4 6 4.5
v -4 6 -4.5
v -3 6 3.5
v -3 6 -3.5
v -3 7 3.5
v -3 7 -3.5
v -2 0 4.5
v -2 0 3.5
v -2 0 -3.5
v -2 0 -4.5
v -2 1 4.5
v -2 1 3.5
v -2 1 -3.5
v -2 1 -4.5
v -1 1 4.5
v -1 1 3.5
v -1 1 -3.5
v -1 1 -4.5
v -1 2 4.5
v -1 2 3.5
v -1 2 -3.5
v -1 2 -4.5
v 0 2 4.5
v 0 2 3.5
v 0 2 -3.5
v 0 2 -4.5
v 0 3 4.5
v 0 3 3.5
v 0 3 -3.5
v 0 3 -4.5
v 1 3 4.5
v 1 3 3.5
v 1 3 -3.5
v 1 3 -4.5
v 1 4 4.5
v 1 4 3.5
v 1 4 -3.5
v 1 4 -4.5
v 2 4 4.5
v 2 4 3.5
v 2 4 -3.5
v 2 4 -4.5
v 2 5 4.5
v 2 5 3.5
v 2 5 -3.5
v 2 5 -4.5
v 2 8 3.5
v 2 8 -3.5
v 2 10 3.5
v 2 10 2.5
v 2 10 -2.5
v 2 10 -3.5
v 2 11 2.5
v 2 11 -2.5
v 3 0 4.5
v 3 0 3.5
v 3 0 -3.5
v 3 0 -4.5
v 3 3 4.5
v 3 3 3.5
v 3 3 -3.5
v 3 3 -4.5
v 3 6 4.5
v 3 6 3.5
v 3 6 -3.5
v 3 6 -4.5
v 3 7 3.5
v 3 7 -3.5
v 3 8 3.5
v 3 8 -3.5
v 3 10 3.5
v 3 10 2.5
v 3 10 -2.5
v 3 10 -3.5
v 3 11 4.5
v 3 11 3.5
v 3 11 2.5
v 3 11 -2.5
v 3 11 -3.5
v 3 11 -4.5
v 3 12 3.5
v 3 12 -3.5
v 0 0 4.5
v 0 0 3.5
v 0 0 -3.5
v 0 0 -4.5
v 0 1 4.5
v 0 1 3.5
v 0 1 -3.5
v 0 1 -4.5
v 1 1 4.5
v 1 1 3.5
v 1 1 -3.5
v 1 1 -4.5
v 1 2 4.5
v 1 2 3.5
v 1 2 -3.5
v 1 2 -4.5
v 2 2 4.5
v 2 2 3.5
v 2 2 -3.5
v 2 2 -4.5
v 2 3 4.5
v 2 3 3.5
v 2 3 -3.5
v 2 3 -4.5
v 3 6 3.5
v 3 6 -3.5
v 3 7 3.5
v 3 7 -3.5
v 4 0 4.5
v 4 0 3.5
v 4 0 -3.5
v 4 0 -4.5
v 4 5 3.5
v 4 5 -3.5
v 4 6 3.5
v 4 6 -3.5
v 4 8 3.5
v 4 8 -3.5
v 4 11 4.5
v 4 11 3.5
v 4 11 -3.5
v 4 11 -4.5
v 4 12 3.5
v 4 12 -3.5
v -4 5 4.5
v -4 6 4.5
v -2 0 4.5
v -2 1 4.5
v -1 1 4.5
v -1 2 4.5
v 0 0 4.5
v 0 1 4.5
v 0 2 4.5
v 0 3 4.5
v 1 1 4.5
v 1 2 4.5
v 1 3 4.5
v 1 4 4.5
v 2 2 4.5
v 2 3 4.5
v 2 4 4.5
v 2 5 4.5
v 3 0 4.5
v 3 3 4.5
v 3 6 4.5
v 3 11 4.5
v 4 0 4.5
v 4 11 4.5
v -3 6 3.5
v -3 7 3.5
v 2 8 3.5
v 2 10 3.5
v 3 6 3.5
v 3 7 3.5
v 3 8 3.5
v 3 10 3.5
v 3 11 3.5
v 3 12 3.5
v 4 11 3.5
v 4 12 3.5
v 2 10 2.5
v 2 11 2.5
v 3 10 2.5
v 3 11 2.5
v -2 0 -3.5
v -2 1 -3.5
v -1 1 -3.5
v -1 2 -3.5
v 0 0 -3.5
v 0 1 -3.5
v 0 2 -3.5
v 0 3 -3.5
v 1 1 -3.5
v 1 2 -3.5
v 1 3 -3.5
v 1 4 -3.5
v 2 2 -3.5
v 2 3 -3.5
v 2 4 -3.5
v 2 5 -3.5
v 3 0 -3.5
v 3 3 -3.5
v 3 5 -3.5
v 3 6 -3.5
v 3 7 -3.5
v 3 8 -3.5
v 4 0 -3.5
v 4 5 -3.5
v 4 6 -3.5
v 4 8 -3.5
v -2 0 3.5
v -2 1 3.5
v -1 1 3.5
v -1 2 3.5
v 0 0 3.5
v 0 1 3.5
v 0 2 3.5
v 0 3 3.5
v 1 1 3.5
v 1 2 3.5
v 1 3 3.5
v 1 4 3.5
v 2 2 3.5
v 2 3 3.5
v 2 4 3.5
v 2 5 3.5
v 3 0 3.5
v 3 3 3.5
v 3 5 3.5
v 3 6 3.5
v 3 7 3.5
v 3 8 3.5
v 4 0 3.5
v 4 5 3.5
v 4 6 3.5
v 4 8 3.5
v 2 10 -2.5
v 2 11 -2.5
v 3 10 -2.5
v 3 11 -2.5
v -3 6 -3.5
v -3 7 -3.5
v 2 8 -3.5
v 2 10 -3.5
v 3 6 -3.5
v 3 7 -3.5
v 3 8 -3.5
v 3 10 -3.5
v 3 11 -3.5
v 3 12 -3.5
v 4 11 -3.5
v 4 12 -3.5
v -4 5 -4.5
v -4 6 -4.5
v -2 0 -4.5
v -2 1 -4.5
v -1 1 -4.5
v -1 2 -4.5
v 0 0 -4.5
v 0 1 -4.5
v 0 2 -4.5
v 0 3 -4.5
v 1 1 -4.5
v 1 2 -4.5
v 1 3 -4.5
v 1 4 -4.5
v 2 2 -4.5
v 2 3 -4.5
v 2 4 -4.5
v 2 5 -4.5
v 3 0 -4.5
v 3 3 -4.5
v 3 6 -4.5
v 3 11 -4.5
v 4 0 -4.5
v 4 11 -4.5
v -2 0 4.5
v 0 0 4.5
v 3 0 4.5
v 4 0 4.5
v -2 0 3.5
v 0 0 3.5
v 3 0 3.5
v 4 0 3.5
v -2 0 -3.5
v 0 0 -3.5
v 3 0 -3.5
v 4 0 -3.5
v -2 0 -4.5
v 0 0 -4.5
v 3 0 -4.5
v 4 0 -4.5
v 0 1 4.5
v 1 1 4.5
v 0 1 3.5
v 1 1 3.5
v 0 1 -3.5
v 1 1 -3.5
v 0 1 -4.5
v 1 1 -4.5
v 1 2 4.5
v 2 2 4.5
v 1 2 3.5
v 2 2 3.5
v 1 2 -3.5
v 2 2 -3.5
v 1 2 -4.5
v 2 2 -4.5
v 2 3 4.5
v 3 3 4.5
v 2 3 3.5
v 3 3 3.5
v 2 3 -3.5
v 3 3 -3.5
v 2 3 -4.5
v 3 3 -4.5
v -4 5 4.5
v 2 5 4.5
v -3 5 3.5
v 2 5 3.5
v 3 5 3.5
v 4 5 3.5
v -3 5 -3.5
v 2 5 -3.5
v 3 5 -3.5
v 4 5 -3.5
v -4 5 -4.5
v 2 5 -4.5
v 2 8 3.5
v 3 8 3.5
v 4 8 3.5
v 2 8 -3.5
v 3 8 -3.5
v 4 8 -3.5
v -2 1 4.5
v -1 1 4.5
v -2 1 3.5
v -1 1 3.5
v -2 1 -3.5
v -1 1 -3.5
v -2 1 -4.5
v -1 1 -4.5
v -1 2 4.5
v 0 2 4.5
v -1 2 3.5
v 0 2 3.5
v -1 2 -3.5
v 0 2 -3.5
v -1 2 -4.5
v 0 2 -4.5
v 0 3 4.5
v 1 3 4.5
v 0 3 3.5
v 1 3 3.5
v 0 3 -3.5
v 1 3 -3.5
v 0 3 -4.5
v 1 3 -4.5
v 1 4 4.5
v 2 4 4.5
v 1 4 3.5
v 2 4 3.5
v 1 4 -3.5
v 2 4 -3.5
v 1 4 -4.5
v 2 4 -4.5
v -4 6 4.5
v 3 6 4.5
v -3 6 3.5
v 3 6 3.5
v 4 6 3.5
v -3 6 -3.5
v 3 6 -3.5
v 4 6 -3.5
v -4 6 -4.5
v 3 6 -4.5
v -3 7 3.5
v 3 7 3.5
v -3 7 -3.5
v 3 7 -3.5
v 2 10 3.5
v 3 10 3.5
v 2 10 2.5
v 3 10 2.5
v 2 10 -2.5
v 3 10 -2.5
v 2 10 -3.5
v 3 10 -3.5
v 3 11 4.5
v 4 11 4.5
v 3 11 3.5
v 4 11 3.5
v 2 11 2.5
v 3 11 2.5
v 2 11 -2.5
v 3 11 -2.5
v 3 11 -3.5
v 4 11 -3.5
v 3 11 -4.5
v 4 11 -4.5
v 3 12 3.5
v 4 12 3.5
v 3 12 -3.5
v 4 12 -3.5

# faces
f 3/3/1 2/3/1 1/3/1
f 4/3/1 2/3/1 3/3/1
f 7/2/1 6/2/1 5/2/1
f 8/2/1 6/2/1 7/2/1
f 13/3/1 10/3/1 9/3/1
f 14/3/1 10/3/1 13/3/1
f 15/3/1 12/3/1 11/3/1
f 16/3/1 12/3/1 15/3/1
f 21/3/1 18/3/1 17/3/1
f 22/3/1 18/3/1 21/3/1
f 23/3/1 20/3/1 19/3/1
f 24/3/1 20/3/1 23/3/1
f 29/3/1 26/3/1 25/3/1
f 30/3/1 26/3/1 29/3/1
f 31/3/1 28/3/1 27/3/1
f 32/3/1 28/3/1 31/3/1
f 37/3/1 34/3/1 33/3/1
f 38/3/1 34/3/1 37/3/1
f 39/3/1 36/3/1 35/3/1
f 40/3/1 36/3/1 39/3/1
f 45/3/1 42/3/1 41/3/1
f 46/3/1 42/3/1 45/3/1
f 47/3/1 44/3/1 43/3/1
f 48/3/1 44/3/1 47/3/1
f 51/2/1 50/2/1 49/2/1
f 52/2/1 50/2/1 51/2/1
f 53/2/1 50/2/1 52/2/1
f 54/2/1 50/2/1 53/2/1
f 55/2/1 53/2/1 52/2/1
f 56/2/1 53/2/1 55/2/1
f 61/3/1 58/3/1 57/3/1
f 62/3/1 58/3/1 61/3/1
f 63/3/1 60/3/1 59/3/1
f 64/3/1 60/3/1 63/3/1
f 69/3/1 66/3/1 65/3/1
f 70/3/1 68/3/1 67/3/1
f 71/3/1 69/3/1 65/3/1
f 72/3/1 68/3/1 70/3/1
f 73/3/1 71/3/1 65/3/1
f 76/3/1 68/3/1 72/3/1
f 77/3/1 74/3/1 73/3/1
f 77/3/1 73/3/1 65/3/1
f 78/3/1 74/3/1 77/3/1
f 79/3/1 74/3/1 78/3/1
f 80/3/1 76/3/1 75/3/1
f 81/3/1 68/3/1 76/3/1
f 81/3/1 76/3/1 80/3/1
f 82/3/1 68/3/1 81/3/1
f 83/3/1 79/3/1 78/3/1
f 83/3/1 80/3/1 79/3/1
f 83/3/1 81/3/1 80/3/1
f 84/3/1 81/3/1 83/3/1
f 85/3/2 86/3/2 89/3/2
f 89/3/2 86/3/2 90/3/2
f 87/3/2 88/3/2 91/3/2
f 91/3/2 88/3/2 92/3/2
f 93/3/2 94/3/2 97/3/2
f 97/3/2 94/3/2 98/3/2
f 95/3/2 96/3/2 99/3/2
f 99/3/2 96/3/2 100/3/2
f 101/3/2 102/3/2 105/3/2
f 105/3/2 102/3/2 106/3/2
f 103/3/2 104/3/2 107/3/2
f 107/3/2 104/3/2 108/3/2
f 109/2/2 110/2/2 111/2/2
f 111/2/2 110/2/2 112/2/2
f 113/3/2 114/3/2 117/3/2
f 115/3/2 116/3/2 118/3/2
f 113/3/2 117/3/2 119/3/2
f 117/3/2 118/3/2 119/3/2
f 118/3/2 116/3/2 120/3/2
f 119/3/2 118/3/2 120/3/2
f 113/3/2 119/3/2 121/3/2
f 120/3/2 116/3/2 122/3/2
f 113/3/2 121/3/2 123/3/2
f 121/3/2 122/3/2 123/3/2
f 123/3/2 122/3/2 124/3/2
f 122/3/2 116/3/2 125/3/2
f 124/3/2 122/3/2 125/3/2
f 125/3/2 116/3/2 126/3/2
f 124/3/2 125/3/2 127/3/2
f 127/3/2 125/3/2 128/3/2
f 133/3/3 132/3/3 131/3/3
f 135/3/3 133/3/3 131/3/3
f 135/3/3 134/3/3 133/3/3
f 136/3/3 134/3/3 135/3/3
f 137/3/3 134/3/3 136/3/3
f 139/3/3 138/3/3 137/3/3
f 139/3/3 137/3/3 136/3/3
f 140/3/3 138/3/3 139/3/3
f 141/3/3 138/3/3 140/3/3
f 143/3/3 142/3/3 141/3/3
f 143/3/3 141/3/3 140/3/3
f 144/3/3 142/3/3 143/3/3
f 145/3/3 142/3/3 144/3/3
f 146/3/3 130/3/3 129/3/3
f 148/3/3 145/3/3 144/3/3
f 148/3/3 146/3/3 145/3/3
f 149/3/3 130/3/3 146/3/3
f 149/3/3 146/3/3 148/3/3
f 151/3/3 148/3/3 147/3/3
f 151/3/3 150/3/3 149/3/3
f 151/3/3 149/3/3 148/3/3
f 152/3/3 150/3/3 151/3/3
f 157/2/3 154/2/3 153/2/3
f 158/2/3 154/2/3 157/2/3
f 159/2/3 156/2/3 155/2/3
f 160/2/3 156/2/3 159/2/3
f 163/3/3 162/3/3 161/3/3
f 164/3/3 162/3/3 163/3/3
f 167/2/3 166/2/3 165/2/3
f 168/2/3 166/2/3 167/2/3
f 171/3/3 170/3/3 169/3/3
f 173/3/3 171/3/3 169/3/3
f 173/3/3 172/3/3 171/3/3
f 174/3/3 172/3/3 173/3/3
f 175/3/3 172/3/3 174/3/3
f 177/3/3 176/3/3 175/3/3
f 177/3/3 175/3/3 174/3/3
f 178/3/3 176/3/3 177/3/3
f 179/3/3 176/3/3 178/3/3
f 181/3/3 180/3/3 179/3/3
f 181/3/3 179/3/3 178/3/3
f 182/3/3 180/3/3 181/3/3
f 183/3/3 180/3/3 182/3/3
f 186/3/3 184/3/3 183/3/3
f 186/3/3 183/3/3 182/3/3
f 187/3/3 184/3/3 186/3/3
f 191/3/3 186/3/3 185/3/3
f 191/3/3 187/3/3 186/3/3
f 192/3/3 187/3/3 191/3/3
f 193/3/3 190/3/3 189/3/3
f 193/3/3 189/3/3 188/3/3
f 194/3/3 190/3/3 193/3/3
f 195/3/4 196/3/4 197/3/4
f 195/3/4 197/3/4 199/3/4
f 197/3/4 198/3/4 199/3/4
f 199/3/4 198/3/4 200/3/4
f 200/3/4 198/3/4 201/3/4
f 201/3/4 202/3/4 203/3/4
f 200/3/4 201/3/4 203/3/4
f 203/3/4 202/3/4 204/3/4
f 204/3/4 202/3/4 205/3/4
f 205/3/4 206/3/4 207/3/4
f 204/3/4 205/3/4 207/3/4
f 207/3/4 206/3/4 208/3/4
f 208/3/4 206/3/4 209/3/4
f 209/3/4 210/3/4 212/3/4
f 208/3/4 209/3/4 212/3/4
f 212/3/4 210/3/4 213/3/4
f 211/3/4 212/3/4 217/3/4
f 212/3/4 213/3/4 217/3/4
f 217/3/4 213/3/4 218/3/4
f 215/3/4 216/3/4 219/3/4
f 214/3/4 215/3/4 219/3/4
f 219/3/4 216/3/4 220/3/4
f 221/2/4 222/2/4 223/2/4
f 223/2/4 222/2/4 224/2/4
f 225/2/4 226/2/4 229/2/4
f 229/2/4 226/2/4 230/2/4
f 227/2/4 228/2/4 231/2/4
f 231/2/4 228/2/4 232/2/4
f 233/3/4 234/3/4 235/3/4
f 235/3/4 234/3/4 236/3/4
f 239/3/4 240/3/4 241/3/4
f 239/3/4 241/3/4 243/3/4
f 241/3/4 242/3/4 243/3/4
f 243/3/4 242/3/4 244/3/4
f 244/3/4 242/3/4 245/3/4
f 245/3/4 246/3/4 247/3/4
f 244/3/4 245/3/4 247/3/4
f 247/3/4 246/3/4 248/3/4
f 248/3/4 246/3/4 249/3/4
f 249/3/4 250/3/4 251/3/4
f 248/3/4 249/3/4 251/3/4
f 251/3/4 250/3/4 252/3/4
f 252/3/4 250/3/4 253/3/4
f 237/3/4 238/3/4 254/3/4
f 252/3/4 253/3/4 256/3/4
f 253/3/4 254/3/4 256/3/4
f 254/3/4 238/3/4 257/3/4
f 256/3/4 254/3/4 257/3/4
f 255/3/4 256/3/4 259/3/4
f 257/3/4 258/3/4 259/3/4
f 256/3/4 257/3/4 259/3/4
f 259/3/4 258/3/4 260/3/4
f 265/3/5 262/3/5 261/3/5
f 266/3/5 262/3/5 265/3/5
f 267/3/5 264/3/5 263/3/5
f 268/3/5 264/3/5 267/3/5
f 273/3/5 270/3/5 269/3/5
f 274/3/5 270/3/5 273/3/5
f 275/3/5 272/3/5 271/3/5
f 276/3/5 272/3/5 275/3/5
f 279/3/5 278/3/5 277/3/5
f 280/3/5 278/3/5 279/3/5
f 283/3/5 282/3/5 281/3/5
f 284/3/5 282/3/5 283/3/5
f 287/3/5 286/3/5 285/3/5
f 288/3/5 286/3/5 287/3/5
f 291/3/5 290/3/5 289/3/5
f 292/3/5 290/3/5 291/3/5
f 295/3/5 294/3/5 293/3/5
f 296/3/5 294/3/5 295/3/5
f 299/3/5 298/3/5 297/3/5
f 300/3/5 298/3/5 299/3/5
f 303/3/5 302/3/5 301/3/5
f 304/3/5 302/3/5 303/3/5
f 307/3/5 303/3/5 301/3/5
f 307/1/5 304/1/5 303/1/5
f 307/1/5 305/1/5 304/1/5
f 308/1/5 305/1/5 307/1/5
f 309/3/5 306/3/5 305/3/5
f 309/1/5 305/1/5 308/1/5
f 310/3/5 306/3/5 309/3/5
f 311/3/5 308/3/5 307/3/5
f 311/3/5 307/3/5 301/3/5
f 312/3/5 308/3/5 311/3/5
f 316/2/5 314/2/5 313/2/5
f 317/3/5 315/3/5 314/3/5
f 317/2/5 314/2/5 316/2/5
f 318/3/5 315/3/5 317/3/5
f 319/3/6 320/3/6 321/3/6
f 321/3/6 320/3/6 322/3/6
f 323/3/6 324/3/6 325/3/6
f 325/3/6 324/3/6 326/3/6
f 327/3/6 328/3/6 329/3/6
f 329/3/6 328/3/6 330/3/6
f 331/3/6 332/3/6 333/3/6
f 333/3/6 332/3/6 334/3/6
f 335/3/6 336/3/6 337/3/6
f 337/3/6 336/3/6 338/3/6
f 339/3/6 340/3/6 341/3/6
f 341/3/6 340/3/6 342/3/6
f 343/3/6 344/3/6 345/3/6
f 345/3/6 344/3/6 346/3/6
f 347/3/6 348/3/6 349/3/6
f 349/3/6 348/3/6 350/3/6
f 351/3/6 352/3/6 353/3/6
f 353/3/6 352/3/6 354/3/6
f 351/3/6 353/3/6 356/3/6
f 354/3/6 355/3/6 357/3/6
f 357/3/6 355/3/6 358/3/6
f 351/3/6 356/3/6 359/3/6
f 356/3/6 357/3/6 359/3/6
f 359/3/6 357/3/6 360/3/6
f 361/2/6 362/2/6 363/2/6
f 363/2/6 362/2/6 364/2/6
f 365/2/6 366/2/6 367/2/6
f 367/2/6 366/2/6 368/2/6
f 369/2/6 370/2/6 371/2/6
f 371/2/6 370/2/6 372/2/6
f 373/3/6 374/3/6 375/3/6
f 375/3/6 374/3/6 376/3/6
f 377/2/6 378/2/6 379/2/6
f 379/2/6 378/2/6 380/2/6
f 381/3/6 382/3/6 383/3/6
f 383/3/6 382/3/6 384/3/6
f 385/3/6 386/3/6 387/3/6
f 387/3/6 386/3/6 388/3/6
