# MagicaVoxel @ Ephtracy

# group
g map-129

# material
mtllib map-129.mtl
usemtl palette

# normals
vn -1 0 0
vn 1 0 0
vn 0 0 1
vn 0 0 -1
vn 0 -1 0
vn 0 1 0

# texcoords
vt 0.310547 0.5
vt 0.705078 0.5
vt 0.916016 0.5
vt 0.923828 0.5
vt 0.958984 0.5
vt 0.962891 0.5
vt 0.994141 0.5

# verts
v -17.5 0 8.5
v -17.5 0 -8.5
v -17.5 15 8.5
v -17.5 15 -8.5
v -9.5 8 8.5
v -9.5 8 7.5
v -9.5 8 -8.5
v -9.5 9 8.5
v -9.5 9 -8.5
v 14.5 0 8.5
v 14.5 0 6.5
v 14.5 0 -6.5
v 14.5 0 -8.5
v 14.5 2 8.5
v 14.5 2 6.5
v 14.5 2 -6.5
v 14.5 2 -8.5
v 16.5 0 6.5
v 16.5 0 -6.5
v 16.5 2 6.5
v 16.5 2 -6.5
v -16.5 0 6.5
v -16.5 0 -6.5
v -16.5 2 6.5
v -16.5 2 -6.5
v -16.5 8 8.5
v -16.5 8 7.5
v -16.5 8 5.5
v -16.5 8 -5.5
v -16.5 8 -8.5
v -16.5 11 5.5
v -16.5 11 -5.5
v -16.5 15 8.5
v -16.5 15 -8.5
v -14.5 0 8.5
v -14.5 0 6.5
v -14.5 0 -6.5
v -14.5 0 -8.5
v -14.5 2 8.5
v -14.5 2 6.5
v -14.5 2 -6.5
v -14.5 2 -8.5
v -10.5 8 5.5
v -10.5 8 -5.5
v -10.5 11 5.5
v -10.5 11 -5.5
v 17.5 0 8.5
v 17.5 0 -8.5
v 17.5 9 8.5
v 17.5 9 -8.5
v -17.5 0 8.5
v -17.5 15 8.5
v -16.5 8 8.5
v -16.5 15 8.5
v -14.5 0 8.5
v -14.5 2 8.5
v -9.5 8 8.5
v -9.5 9 8.5
v -6.5 8 8.5
v -6.5 9 8.5
v 14.5 0 8.5
v 14.5 2 8.5
v 16.5 8 8.5
v 16.5 9 8.5
v 17.5 0 8.5
v 17.5 9 8.5
v -16.5 8 5.5
v -16.5 11 5.5
v -15.5 8 5.5
v -15.5 10 5.5
v -11.5 8 5.5
v -11.5 10 5.5
v -10.5 8 5.5
v -10.5 11 5.5
v -16.5 0 -6.5
v -16.5 2 -6.5
v -14.5 0 -6.5
v -14.5 2 -6.5
v 14.5 0 -6.5
v 14.5 2 -6.5
v 16.5 0 -6.5
v 16.5 2 -6.5
v -16.5 0 6.5
v -16.5 2 6.5
v -15.5 0 6.5
v -15.5 2 6.5
v -14.5 0 6.5
v -14.5 2 6.5
v 14.5 0 6.5
v 14.5 2 6.5
v 16.5 0 6.5
v 16.5 2 6.5
v -16.5 8 -5.5
v -16.5 11 -5.5
v -10.5 8 -5.5
v -10.5 11 -5.5
v -17.5 0 -8.5
v -17.5 15 -8.5
v -16.5 7 -8.5
v -16.5 8 -8.5
v -16.5 15 -8.5
v -14.5 0 -8.5
v -14.5 2 -8.5
v -9.5 7 -8.5
v -9.5 8 -8.5
v -9.5 9 -8.5
v -6.5 8 -8.5
v -6.5 9 -8.5
v 14.5 0 -8.5
v 14.5 2 -8.5
v 16.5 8 -8.5
v 16.5 9 -8.5
v 17.5 0 -8.5
v 17.5 9 -8.5
v -17.5 0 8.5
v -14.5 0 8.5
v 14.5 0 8.5
v 17.5 0 8.5
v -16.5 0 7.5
v -15.5 0 7.5
v -16.5 0 6.5
v -15.5 0 6.5
v -14.5 0 6.5
v 14.5 0 6.5
v 16.5 0 6.5
v -16.5 0 -6.5
v -14.5 0 -6.5
v 14.5 0 -6.5
v 16.5 0 -6.5
v -17.5 0 -8.5
v -14.5 0 -8.5
v 14.5 0 -8.5
v 17.5 0 -8.5
v -14.5 2 8.5
v 14.5 2 8.5
v -16.5 2 6.5
v -15.5 2 6.5
v -14.5 2 6.5
v 14.5 2 6.5
v 16.5 2 6.5
v -16.5 2 -6.5
v -14.5 2 -6.5
v 14.5 2 -6.5
v 16.5 2 -6.5
v -14.5 2 -8.5
v 14.5 2 -8.5
v -16.5 8 8.5
v -9.5 8 8.5
v -16.5 8 7.5
v -9.5 8 7.5
v -16.5 8 5.5
v -15.5 8 5.5
v -11.5 8 5.5
v -10.5 8 5.5
v -16.5 8 -5.5
v -10.5 8 -5.5
v -16.5 8 -8.5
v -9.5 8 -8.5
v -9.5 9 8.5
v -6.5 9 8.5
v 16.5 9 8.5
v 17.5 9 8.5
v -9.5 9 -8.5
v -6.5 9 -8.5
v 16.5 9 -8.5
v 17.5 9 -8.5
v -16.5 11 5.5
v -10.5 11 5.5
v -16.5 11 -5.5
v -10.5 11 -5.5
v -17.5 15 8.5
v -16.5 15 8.5
v -17.5 15 -8.5
v -16.5 15 -8.5

# faces
f 3/7/1 2/7/1 1/7/1
f 4/7/1 2/7/1 3/7/1
f 8/4/1 6/4/1 5/4/1
f 8/4/1 7/4/1 6/4/1
f 9/4/1 7/4/1 8/4/1
f 14/7/1 11/7/1 10/7/1
f 15/7/1 11/7/1 14/7/1
f 16/7/1 13/7/1 12/7/1
f 17/7/1 13/7/1 16/7/1
f 20/7/1 19/7/1 18/7/1
f 21/7/1 19/7/1 20/7/1
f 22/7/2 23/7/2 24/7/2
f 24/7/2 23/7/2 25/7/2
f 27/7/2 28/7/2 31/7/2
f 26/7/2 27/7/2 31/7/2
f 29/7/2 30/7/2 32/7/2
f 26/7/2 31/7/2 33/7/2
f 31/7/2 32/7/2 33/7/2
f 32/7/2 30/7/2 34/7/2
f 33/7/2 32/7/2 34/7/2
f 35/7/2 36/7/2 39/7/2
f 39/7/2 36/7/2 40/7/2
f 37/7/2 38/7/2 41/7/2
f 41/7/2 38/7/2 42/7/2
f 43/4/2 44/4/2 45/4/2
f 45/4/2 44/4/2 46/4/2
f 47/7/2 48/7/2 49/7/2
f 49/7/2 48/7/2 50/7/2
f 53/7/3 52/7/3 51/7/3
f 54/7/3 52/7/3 53/7/3
f 55/7/3 53/7/3 51/7/3
f 56/7/3 53/7/3 55/7/3
f 57/7/3 53/7/3 56/7/3
f 59/7/3 57/7/3 56/7/3
f 59/4/3 58/4/3 57/4/3
f 60/4/3 58/4/3 59/4/3
f 62/7/3 59/7/3 56/7/3
f 63/3/3 60/3/3 59/3/3
f 63/7/3 62/7/3 61/7/3
f 63/7/3 59/7/3 62/7/3
f 64/3/3 60/3/3 63/3/3
f 65/7/3 63/7/3 61/7/3
f 65/7/3 64/7/3 63/7/3
f 66/7/3 64/7/3 65/7/3
f 69/4/3 68/4/3 67/4/3
f 70/4/3 68/4/3 69/4/3
f 71/5/3 70/5/3 69/5/3
f 72/4/3 68/4/3 70/4/3
f 72/5/3 70/5/3 71/5/3
f 73/4/3 72/4/3 71/4/3
f 74/4/3 68/4/3 72/4/3
f 74/4/3 72/4/3 73/4/3
f 77/7/3 76/7/3 75/7/3
f 78/7/3 76/7/3 77/7/3
f 81/7/3 80/7/3 79/7/3
f 82/7/3 80/7/3 81/7/3
f 83/1/4 84/1/4 85/1/4
f 85/1/4 84/1/4 86/1/4
f 85/7/4 86/7/4 87/7/4
f 87/7/4 86/7/4 88/7/4
f 89/7/4 90/7/4 91/7/4
f 91/7/4 90/7/4 92/7/4
f 93/4/4 94/4/4 95/4/4
f 95/4/4 94/4/4 96/4/4
f 97/7/4 98/7/4 99/7/4
f 99/7/4 98/7/4 100/7/4
f 100/7/4 98/7/4 101/7/4
f 97/7/4 99/7/4 102/7/4
f 102/7/4 99/7/4 103/7/4
f 99/4/4 100/4/4 104/4/4
f 103/7/4 99/7/4 104/7/4
f 104/4/4 100/4/4 105/4/4
f 104/7/4 105/7/4 107/7/4
f 105/4/4 106/4/4 107/4/4
f 107/4/4 106/4/4 108/4/4
f 103/7/4 104/7/4 110/7/4
f 104/7/4 107/7/4 110/7/4
f 107/3/4 108/3/4 111/3/4
f 109/7/4 110/7/4 111/7/4
f 110/7/4 107/7/4 111/7/4
f 111/3/4 108/3/4 112/3/4
f 109/7/4 111/7/4 113/7/4
f 111/7/4 112/7/4 113/7/4
f 113/7/4 112/7/4 114/7/4
f 119/7/5 116/7/5 115/7/5
f 120/7/5 116/7/5 119/7/5
f 121/7/5 119/7/5 115/7/5
f 121/1/5 120/1/5 119/1/5
f 122/7/5 116/7/5 120/7/5
f 122/1/5 120/1/5 121/1/5
f 123/7/5 116/7/5 122/7/5
f 124/7/5 118/7/5 117/7/5
f 125/7/5 118/7/5 124/7/5
f 126/7/5 121/7/5 115/7/5
f 129/7/5 118/7/5 125/7/5
f 130/7/5 127/7/5 126/7/5
f 130/7/5 126/7/5 115/7/5
f 131/7/5 127/7/5 130/7/5
f 132/7/5 129/7/5 128/7/5
f 133/7/5 118/7/5 129/7/5
f 133/7/5 129/7/5 132/7/5
f 138/7/5 135/7/5 134/7/5
f 139/7/5 135/7/5 138/7/5
f 141/7/5 137/7/5 136/7/5
f 141/7/5 140/7/5 139/7/5
f 141/7/5 139/7/5 138/7/5
f 141/7/5 138/7/5 137/7/5
f 142/7/5 140/7/5 141/7/5
f 143/7/5 140/7/5 142/7/5
f 144/7/5 140/7/5 143/7/5
f 145/7/5 143/7/5 142/7/5
f 146/7/5 143/7/5 145/7/5
f 147/7/6 148/7/6 149/7/6
f 149/7/6 148/7/6 150/7/6
f 149/4/6 150/4/6 151/4/6
f 151/4/6 150/4/6 152/4/6
f 152/4/6 150/4/6 153/4/6
f 153/4/6 150/4/6 154/4/6
f 154/4/6 150/4/6 156/4/6
f 155/4/6 156/4/6 157/4/6
f 156/4/6 150/4/6 158/4/6
f 157/4/6 156/4/6 158/4/6
f 159/4/6 160/4/6 163/4/6
f 160/3/6 161/3/6 164/3/6
f 163/4/6 160/4/6 164/4/6
f 161/7/6 162/7/6 165/7/6
f 164/3/6 161/3/6 165/3/6
f 165/7/6 162/7/6 166/7/6
f 167/4/6 168/4/6 169/4/6
f 169/4/6 168/4/6 170/4/6
f 171/7/6 172/7/6 173/7/6
f 173/7/6 172/7/6 174/7/6
