# MagicaVoxel @ Ephtracy

# group
g map-78

# material
mtllib map-78.mtl
usemtl palette

# normals
vn -1 0 0
vn 1 0 0
vn 0 0 1
vn 0 0 -1
vn 0 -1 0
vn 0 1 0

# texcoords
vt 0.482422 0.5
vt 0.572266 0.5
vt 0.947266 0.5
vt 0.958984 0.5

# verts
v -3 0 2
v -3 0 -2
v -3 1 3
v -3 1 2
v -3 1 -2
v -3 1 -3
v -3 4 3
v -3 4 -3
v -2 4 1
v -2 4 -1
v -2 8 1
v -2 8 -1
v -1 4 2
v -1 4 1
v -1 4 -1
v -1 4 -2
v -1 8 2
v -1 8 1
v -1 8 -1
v -1 8 -2
v -1 9 1
v -1 9 -1
v 1 4 2
v 1 4 1
v 1 4 -1
v 1 4 -2
v 1 8 2
v 1 8 1
v 1 8 -1
v 1 8 -2
v 1 9 1
v 1 9 -1
v 2 4 1
v 2 4 -1
v 2 8 1
v 2 8 -1
v 3 0 2
v 3 0 -2
v 3 1 3
v 3 1 2
v 3 1 -2
v 3 1 -3
v 3 4 3
v 3 4 -3
v -3 1 3
v -3 4 3
v 3 1 3
v 3 4 3
v -3 0 2
v -3 1 2
v -1 4 2
v -1 8 2
v 1 4 2
v 1 8 2
v 3 0 2
v 3 1 2
v -2 4 1
v -2 8 1
v -1 4 1
v -1 8 1
v -1 9 1
v 1 4 1
v 1 8 1
v 1 9 1
v 2 4 1
v 2 8 1
v -2 4 -1
v -2 8 -1
v -1 4 -1
v -1 8 -1
v -1 9 -1
v 1 4 -1
v 1 8 -1
v 1 9 -1
v 2 4 -1
v 2 8 -1
v -3 0 -2
v -3 1 -2
v -1 4 -2
v -1 8 -2
v 1 4 -2
v 1 8 -2
v 3 0 -2
v 3 1 -2
v -3 1 -3
v -3 4 -3
v 3 1 -3
v 3 4 -3
v -3 0 2
v 3 0 2
v -1 0 1
v 0 0 1
v -1 0 -1
v 0 0 -1
v -3 0 -2
v 3 0 -2
v -3 1 3
v 3 1 3
v -3 1 2
v 3 1 2
v -3 1 -2
v 3 1 -2
v -3 1 -3
v 3 1 -3
v -3 4 3
v 3 4 3
v -1 4 2
v 1 4 2
v -2 4 1
v -1 4 1
v 1 4 1
v 2 4 1
v -2 4 -1
v -1 4 -1
v 1 4 -1
v 2 4 -1
v -1 4 -2
v 1 4 -2
v -3 4 -3
v 3 4 -3
v -1 8 2
v 1 8 2
v -2 8 1
v -1 8 1
v 1 8 1
v 2 8 1
v -2 8 -1
v -1 8 -1
v 1 8 -1
v 2 8 -1
v -1 8 -2
v 1 8 -2
v -1 9 1
v 1 9 1
v -1 9 -1
v 1 9 -1

# faces
f 4/4/1 2/4/1 1/4/1
f 5/4/1 2/4/1 4/4/1
f 7/4/1 4/4/1 3/4/1
f 7/4/1 6/4/1 5/4/1
f 7/4/1 5/4/1 4/4/1
f 8/4/1 6/4/1 7/4/1
f 11/2/1 10/2/1 9/2/1
f 12/2/1 10/2/1 11/2/1
f 17/2/1 14/2/1 13/2/1
f 18/2/1 14/2/1 17/2/1
f 19/2/1 16/2/1 15/2/1
f 20/2/1 16/2/1 19/2/1
f 21/2/1 19/2/1 18/2/1
f 22/2/1 19/2/1 21/2/1
f 23/2/2 24/2/2 27/2/2
f 27/2/2 24/2/2 28/2/2
f 25/2/2 26/2/2 29/2/2
f 29/2/2 26/2/2 30/2/2
f 28/2/2 29/2/2 31/2/2
f 31/2/2 29/2/2 32/2/2
f 33/2/2 34/2/2 35/2/2
f 35/2/2 34/2/2 36/2/2
f 37/4/2 38/4/2 40/4/2
f 40/4/2 38/4/2 41/4/2
f 39/4/2 40/4/2 43/4/2
f 41/4/2 42/4/2 43/4/2
f 40/4/2 41/4/2 43/4/2
f 43/4/2 42/4/2 44/4/2
f 47/4/3 46/4/3 45/4/3
f 48/4/3 46/4/3 47/4/3
f 53/2/3 52/2/3 51/2/3
f 54/2/3 52/2/3 53/2/3
f 55/4/3 50/4/3 49/4/3
f 56/4/3 50/4/3 55/4/3
f 59/2/3 58/2/3 57/2/3
f 60/2/3 58/2/3 59/2/3
f 63/2/3 61/2/3 60/2/3
f 64/2/3 61/2/3 63/2/3
f 65/2/3 63/2/3 62/2/3
f 66/2/3 63/2/3 65/2/3
f 67/2/4 68/2/4 69/2/4
f 69/2/4 68/2/4 70/2/4
f 70/2/4 71/2/4 73/2/4
f 73/2/4 71/2/4 74/2/4
f 72/2/4 73/2/4 75/2/4
f 75/2/4 73/2/4 76/2/4
f 79/2/4 80/2/4 81/2/4
f 81/2/4 80/2/4 82/2/4
f 77/4/4 78/4/4 83/4/4
f 83/4/4 78/4/4 84/4/4
f 85/4/4 86/4/4 87/4/4
f 87/4/4 86/4/4 88/4/4
f 91/4/5 90/4/5 89/4/5
f 92/4/5 90/4/5 91/4/5
f 93/4/5 91/4/5 89/4/5
f 93/1/5 92/1/5 91/1/5
f 94/4/5 90/4/5 92/4/5
f 94/1/5 92/1/5 93/1/5
f 95/4/5 93/4/5 89/4/5
f 95/4/5 94/4/5 93/4/5
f 96/4/5 90/4/5 94/4/5
f 96/4/5 94/4/5 95/4/5
f 99/4/5 98/4/5 97/4/5
f 100/4/5 98/4/5 99/4/5
f 103/4/5 102/4/5 101/4/5
f 104/4/5 102/4/5 103/4/5
f 105/4/6 106/4/6 107/4/6
f 107/4/6 106/4/6 108/4/6
f 105/4/6 107/4/6 109/4/6
f 109/4/6 107/4/6 110/4/6
f 108/4/6 106/4/6 111/4/6
f 111/4/6 106/4/6 112/4/6
f 105/4/6 109/4/6 113/4/6
f 112/4/6 106/4/6 116/4/6
f 113/4/6 114/4/6 117/4/6
f 115/4/6 116/4/6 118/4/6
f 113/4/6 117/4/6 119/4/6
f 117/4/6 118/4/6 119/4/6
f 105/4/6 113/4/6 119/4/6
f 118/4/6 116/4/6 120/4/6
f 119/4/6 118/4/6 120/4/6
f 116/4/6 106/4/6 120/4/6
f 121/2/6 122/2/6 124/2/6
f 124/2/6 122/2/6 125/2/6
f 123/2/6 124/2/6 127/2/6
f 127/2/6 124/2/6 128/2/6
f 125/2/6 126/2/6 129/2/6
f 129/2/6 126/2/6 130/2/6
f 128/2/6 129/2/6 131/2/6
f 131/2/6 129/2/6 132/2/6
f 133/2/6 134/2/6 135/2/6
f 135/2/6 134/2/6 136/2/6
