# MagicaVoxel @ Ephtracy

# group
g map-188

# material
mtllib map-188.mtl
usemtl palette

# normals
vn -1 0 0
vn 1 0 0
vn 0 0 1
vn 0 0 -1
vn 0 -1 0
vn 0 1 0

# texcoords
vt 0.982422 0.5
vt 0.990234 0.5

# verts
v -2 0 6.5
v -2 0 -5.5
v -2 18 6.5
v -2 18 4.5
v -2 18 -4.5
v -2 18 -5.5
v -2 19 4.5
v -2 19 3.5
v -2 19 -3.5
v -2 19 -4.5
v -2 20 3.5
v -2 20 2.5
v -2 20 -2.5
v -2 20 -3.5
v -2 21 2.5
v -2 21 -2.5
v -1 0 7.5
v -1 0 6.5
v -1 0 -5.5
v -1 0 -7.5
v -1 18 7.5
v -1 18 6.5
v -1 18 -5.5
v -1 18 -7.5
v 0 8 4.5
v 0 8 3.5
v 0 8 0.5
v 0 8 -0.5
v 0 8 -1.5
v 0 8 -2.5
v 0 8 -3.5
v 0 8 -4.5
v 0 11 4.5
v 0 11 3.5
v 0 11 0.5
v 0 11 -0.5
v 0 11 -1.5
v 0 11 -2.5
v 0 11 -3.5
v 0 11 -4.5
v 1 0 2.5
v 1 0 -2.5
v 1 1 6.5
v 1 1 5.5
v 1 1 3.5
v 1 1 2.5
v 1 1 -2.5
v 1 1 -3.5
v 1 1 -5.5
v 1 1 -6.5
v 1 5 6.5
v 1 5 5.5
v 1 5 -5.5
v 1 5 -6.5
v 1 6 7.5
v 1 6 5.5
v 1 6 3.5
v 1 6 2.5
v 1 6 0.5
v 1 6 -0.5
v 1 6 -2.5
v 1 6 -3.5
v 1 6 -5.5
v 1 6 -7.5
v 1 7 2.5
v 1 7 0.5
v 1 7 -0.5
v 1 7 -2.5
v 1 8 2.5
v 1 8 1.5
v 1 11 2.5
v 1 11 1.5
v 1 13 4.5
v 1 13 3.5
v 1 13 2.5
v 1 13 1.5
v 1 13 0.5
v 1 13 -0.5
v 1 13 -1.5
v 1 13 -2.5
v 1 14 3.5
v 1 14 2.5
v 1 14 1.5
v 1 14 -2.5
v 1 14 -4.5
v 1 15 3.5
v 1 15 2.5
v 1 15 1.5
v 1 15 -2.5
v 1 15 -3.5
v 1 16 3.5
v 1 16 2.5
v 1 16 -2.5
v 1 16 -3.5
v 1 17 4.5
v 1 17 1.5
v 1 17 0.5
v 1 17 -0.5
v 1 17 -1.5
v 1 17 -4.5
v 1 18 7.5
v 1 18 5.5
v 1 18 -5.5
v 1 18 -7.5
v 2 0 7.5
v 2 0 2.5
v 2 0 -2.5
v 2 0 -7.5
v 2 1 6.5
v 2 1 5.5
v 2 1 3.5
v 2 1 2.5
v 2 1 -2.5
v 2 1 -3.5
v 2 1 -5.5
v 2 1 -6.5
v 2 5 6.5
v 2 5 5.5
v 2 5 -5.5
v 2 5 -6.5
v 2 6 7.5
v 2 6 5.5
v 2 6 3.5
v 2 6 2.5
v 2 6 0.5
v 2 6 -0.5
v 2 6 -2.5
v 2 6 -3.5
v 2 6 -5.5
v 2 6 -7.5
v 2 7 2.5
v 2 7 0.5
v 2 7 -0.5
v 2 7 -2.5
v 2 8 4.5
v 2 8 3.5
v 2 8 2.5
v 2 8 1.5
v 2 8 0.5
v 2 8 -0.5
v 2 8 -1.5
v 2 8 -2.5
v 2 8 -3.5
v 2 8 -4.5
v 2 11 4.5
v 2 11 3.5
v 2 11 2.5
v 2 11 1.5
v 2 11 0.5
v 2 11 -0.5
v 2 11 -1.5
v 2 11 -2.5
v 2 11 -3.5
v 2 11 -4.5
v 2 13 4.5
v 2 13 3.5
v 2 13 2.5
v 2 13 1.5
v 2 13 0.5
v 2 13 -0.5
v 2 13 -1.5
v 2 13 -2.5
v 2 14 3.5
v 2 14 2.5
v 2 14 1.5
v 2 14 -2.5
v 2 14 -4.5
v 2 15 3.5
v 2 15 2.5
v 2 15 1.5
v 2 15 -2.5
v 2 15 -3.5
v 2 16 3.5
v 2 16 2.5
v 2 16 -2.5
v 2 16 -3.5
v 2 17 4.5
v 2 17 1.5
v 2 17 0.5
v 2 17 -0.5
v 2 17 -1.5
v 2 17 -4.5
v 2 18 5.5
v 2 18 4.5
v 2 18 -4.5
v 2 18 -5.5
v 2 19 4.5
v 2 19 3.5
v 2 19 -3.5
v 2 19 -4.5
v 2 20 3.5
v 2 20 2.5
v 2 20 -2.5
v 2 20 -3.5
v 2 21 2.5
v 2 21 -2.5
v -1 0 7.5
v -1 18 7.5
v 1 6 7.5
v 1 18 7.5
v 2 0 7.5
v 2 6 7.5
v -2 0 6.5
v -2 18 6.5
v -1 0 6.5
v -1 18 6.5
v 1 1 5.5
v 1 5 5.5
v 1 6 5.5
v 1 18 5.5
v 2 1 5.5
v 2 5 5.5
v 2 6 5.5
v 2 18 5.5
v -2 18 4.5
v -2 19 4.5
v 2 18 4.5
v 2 19 4.5
v -2 19 3.5
v -2 20 3.5
v 0 8 3.5
v 0 11 3.5
v 1 13 3.5
v 1 14 3.5
v 1 15 3.5
v 1 16 3.5
v 2 8 3.5
v 2 11 3.5
v 2 13 3.5
v 2 14 3.5
v 2 15 3.5
v 2 16 3.5
v 2 19 3.5
v 2 20 3.5
v -2 20 2.5
v -2 21 2.5
v 1 14 2.5
v 1 15 2.5
v 2 14 2.5
v 2 15 2.5
v 2 20 2.5
v 2 21 2.5
v 1 8 1.5
v 1 11 1.5
v 1 13 1.5
v 1 14 1.5
v 1 15 1.5
v 1 17 1.5
v 2 8 1.5
v 2 11 1.5
v 2 13 1.5
v 2 14 1.5
v 2 15 1.5
v 2 17 1.5
v 1 6 0.5
v 1 7 0.5
v 2 6 0.5
v 2 7 0.5
v 0 8 -0.5
v 0 11 -0.5
v 1 13 -0.5
v 1 17 -0.5
v 2 8 -0.5
v 2 11 -0.5
v 2 13 -0.5
v 2 17 -0.5
v 0 8 -2.5
v 0 11 -2.5
v 1 0 -2.5
v 1 1 -2.5
v 1 6 -2.5
v 1 7 -2.5
v 1 13 -2.5
v 1 14 -2.5
v 1 15 -2.5
v 1 16 -2.5
v 2 0 -2.5
v 2 1 -2.5
v 2 6 -2.5
v 2 7 -2.5
v 2 8 -2.5
v 2 11 -2.5
v 2 13 -2.5
v 2 14 -2.5
v 2 15 -2.5
v 2 16 -2.5
v 1 1 -3.5
v 1 6 -3.5
v 2 1 -3.5
v 2 6 -3.5
v 0 8 -4.5
v 0 11 -4.5
v 1 14 -4.5
v 1 17 -4.5
v 2 8 -4.5
v 2 11 -4.5
v 2 14 -4.5
v 2 17 -4.5
v 1 1 -6.5
v 1 5 -6.5
v 2 1 -6.5
v 2 5 -6.5
v 1 1 6.5
v 1 5 6.5
v 2 1 6.5
v 2 5 6.5
v 0 8 4.5
v 0 11 4.5
v 1 13 4.5
v 1 17 4.5
v 2 8 4.5
v 2 11 4.5
v 2 13 4.5
v 2 17 4.5
v 1 1 3.5
v 1 6 3.5
v 2 1 3.5
v 2 6 3.5
v 1 0 2.5
v 1 1 2.5
v 1 6 2.5
v 1 7 2.5
v 1 8 2.5
v 1 11 2.5
v 1 13 2.5
v 1 14 2.5
v 1 15 2.5
v 1 16 2.5
v 2 0 2.5
v 2 1 2.5
v 2 6 2.5
v 2 7 2.5
v 2 8 2.5
v 2 11 2.5
v 2 13 2.5
v 2 14 2.5
v 2 15 2.5
v 2 16 2.5
v 0 8 0.5
v 0 11 0.5
v 1 13 0.5
v 1 17 0.5
v 2 8 0.5
v 2 11 0.5
v 2 13 0.5
v 2 17 0.5
v 1 6 -0.5
v 1 7 -0.5
v 2 6 -0.5
v 2 7 -0.5
v 0 8 -1.5
v 0 11 -1.5
v 1 13 -1.5
v 1 17 -1.5
v 2 8 -1.5
v 2 11 -1.5
v 2 13 -1.5
v 2 17 -1.5
v -2 20 -2.5
v -2 21 -2.5
v 2 20 -2.5
v 2 21 -2.5
v -2 19 -3.5
v -2 20 -3.5
v 0 8 -3.5
v 0 11 -3.5
v 1 15 -3.5
v 1 16 -3.5
v 2 8 -3.5
v 2 11 -3.5
v 2 15 -3.5
v 2 16 -3.5
v 2 19 -3.5
v 2 20 -3.5
v -2 18 -4.5
v -2 19 -4.5
v 2 18 -4.5
v 2 19 -4.5
v -2 0 -5.5
v -2 18 -5.5
v -1 0 -5.5
v -1 18 -5.5
v 1 1 -5.5
v 1 5 -5.5
v 1 6 -5.5
v 1 18 -5.5
v 2 1 -5.5
v 2 5 -5.5
v 2 6 -5.5
v 2 18 -5.5
v -1 0 -7.5
v -1 18 -7.5
v 1 6 -7.5
v 1 18 -7.5
v 2 0 -7.5
v 2 6 -7.5
v -1 0 7.5
v 2 0 7.5
v -2 0 6.5
v -1 0 6.5
v 1 0 2.5
v 2 0 2.5
v 1 0 -2.5
v 2 0 -2.5
v -2 0 -5.5
v -1 0 -5.5
v -1 0 -7.5
v 2 0 -7.5
v 1 5 6.5
v 2 5 6.5
v 1 5 5.5
v 2 5 5.5
v 1 5 -5.5
v 2 5 -5.5
v 1 5 -6.5
v 2 5 -6.5
v 1 6 3.5
v 2 6 3.5
v 1 6 2.5
v 2 6 2.5
v 1 6 0.5
v 2 6 0.5
v 1 6 -0.5
v 2 6 -0.5
v 1 6 -2.5
v 2 6 -2.5
v 1 6 -3.5
v 2 6 -3.5
v 1 7 2.5
v 2 7 2.5
v 1 7 0.5
v 2 7 0.5
v 1 7 -0.5
v 2 7 -0.5
v 1 7 -2.5
v 2 7 -2.5
v 0 11 4.5
v 2 11 4.5
v 0 11 3.5
v 2 11 3.5
v 1 11 2.5
v 2 11 2.5
v 1 11 1.5
v 2 11 1.5
v 0 11 0.5
v 2 11 0.5
v 0 11 -0.5
v 2 11 -0.5
v 0 11 -1.5
v 2 11 -1.5
v 0 11 -2.5
v 2 11 -2.5
v 0 11 -3.5
v 2 11 -3.5
v 0 11 -4.5
v 2 11 -4.5
v 1 14 2.5
v 2 14 2.5
v 1 14 1.5
v 2 14 1.5
v 1 15 3.5
v 2 15 3.5
v 1 15 2.5
v 2 15 2.5
v 1 15 -2.5
v 2 15 -2.5
v 1 15 -3.5
v 2 15 -3.5
v 1 17 4.5
v 2 17 4.5
v 1 17 1.5
v 2 17 1.5
v 1 17 0.5
v 2 17 0.5
v 1 17 -0.5
v 2 17 -0.5
v 1 17 -1.5
v 2 17 -1.5
v 1 17 -4.5
v 2 17 -4.5
v 1 1 6.5
v 2 1 6.5
v 1 1 5.5
v 2 1 5.5
v 1 1 3.5
v 2 1 3.5
v 1 1 2.5
v 2 1 2.5
v 1 1 -2.5
v 2 1 -2.5
v 1 1 -3.5
v 2 1 -3.5
v 1 1 -5.5
v 2 1 -5.5
v 1 1 -6.5
v 2 1 -6.5
v 1 6 7.5
v 2 6 7.5
v 1 6 5.5
v 2 6 5.5
v 1 6 -5.5
v 2 6 -5.5
v 1 6 -7.5
v 2 6 -7.5
v 0 8 4.5
v 2 8 4.5
v 0 8 3.5
v 2 8 3.5
v 1 8 2.5
v 2 8 2.5
v 1 8 1.5
v 2 8 1.5
v 0 8 0.5
v 2 8 0.5
v 0 8 -0.5
v 2 8 -0.5
v 0 8 -1.5
v 2 8 -1.5
v 0 8 -2.5
v 2 8 -2.5
v 0 8 -3.5
v 2 8 -3.5
v 0 8 -4.5
v 2 8 -4.5
v 1 13 4.5
v 2 13 4.5
v 1 13 3.5
v 2 13 3.5
v 1 13 2.5
v 2 13 2.5
v 1 13 1.5
v 2 13 1.5
v 1 13 0.5
v 2 13 0.5
v 1 13 -0.5
v 2 13 -0.5
v 1 13 -1.5
v 2 13 -1.5
v 1 13 -2.5
v 2 13 -2.5
v 1 14 3.5
v 2 14 3.5
v 1 14 2.5
v 2 14 2.5
v 1 14 -2.5
v 2 14 -2.5
v 1 14 -4.5
v 2 14 -4.5
v 1 15 2.5
v 2 15 2.5
v 1 15 1.5
v 2 15 1.5
v 1 16 3.5
v 2 16 3.5
v 1 16 2.5
v 2 16 2.5
v 1 16 -2.5
v 2 16 -2.5
v 1 16 -3.5
v 2 16 -3.5
v -1 18 7.5
v 1 18 7.5
v -2 18 6.5
v -1 18 6.5
v 1 18 5.5
v 2 18 5.5
v -2 18 4.5
v 2 18 4.5
v -2 18 -4.5
v 2 18 -4.5
v -2 18 -5.5
v -1 18 -5.5
v 1 18 -5.5
v 2 18 -5.5
v -1 18 -7.5
v 1 18 -7.5
v -2 19 4.5
v 2 19 4.5
v -2 19 3.5
v 2 19 3.5
v -2 19 -3.5
v 2 19 -3.5
v -2 19 -4.5
v 2 19 -4.5
v -2 20 3.5
v 2 20 3.5
v -2 20 2.5
v 2 20 2.5
v -2 20 -2.5
v 2 20 -2.5
v -2 20 -3.5
v 2 20 -3.5
v -2 21 2.5
v 2 21 2.5
v -2 21 -2.5
v 2 21 -2.5

# faces
f 3/1/1 2/1/1 1/1/1
f 4/1/1 2/1/1 3/1/1
f 5/1/1 2/1/1 4/1/1
f 6/1/1 2/1/1 5/1/1
f 7/1/1 5/1/1 4/1/1
f 8/1/1 5/1/1 7/1/1
f 9/1/1 5/1/1 8/1/1
f 10/1/1 5/1/1 9/1/1
f 11/1/1 9/1/1 8/1/1
f 12/1/1 9/1/1 11/1/1
f 13/1/1 9/1/1 12/1/1
f 14/1/1 9/1/1 13/1/1
f 15/1/1 13/1/1 12/1/1
f 16/1/1 13/1/1 15/1/1
f 21/1/1 18/1/1 17/1/1
f 22/1/1 18/1/1 21/1/1
f 23/1/1 20/1/1 19/1/1
f 24/1/1 20/1/1 23/1/1
f 25/1/2 26/1/2 33/1/2
f 33/1/2 26/1/2 34/1/2
f 27/1/2 28/1/2 35/1/2
f 35/1/2 28/1/2 36/1/2
f 29/1/2 30/1/2 37/1/2
f 37/1/2 30/1/2 38/1/2
f 31/1/2 32/1/2 39/1/2
f 39/1/2 32/1/2 40/1/2
f 41/1/2 42/1/2 46/1/2
f 46/1/2 42/1/2 47/1/2
f 43/1/2 44/1/2 51/1/2
f 51/1/2 44/1/2 52/1/2
f 49/1/2 50/1/2 53/1/2
f 53/1/2 50/1/2 54/1/2
f 45/1/2 46/1/2 57/1/2
f 46/1/2 47/1/2 57/1/2
f 47/1/2 48/1/2 57/1/2
f 57/1/2 48/1/2 58/1/2
f 58/1/2 48/1/2 59/1/2
f 59/1/2 48/1/2 60/1/2
f 60/1/2 48/1/2 61/1/2
f 61/1/2 48/1/2 62/1/2
f 58/1/2 59/1/2 65/1/2
f 65/1/2 59/1/2 66/1/2
f 60/1/2 61/1/2 67/1/2
f 67/1/2 61/1/2 68/1/2
f 69/1/2 70/1/2 71/1/2
f 71/1/2 70/1/2 72/1/2
f 73/2/2 74/2/2 81/2/2
f 75/2/2 76/2/2 82/2/2
f 82/2/2 76/2/2 83/2/2
f 79/2/2 80/2/2 84/2/2
f 73/2/2 81/2/2 86/2/2
f 81/2/2 82/2/2 86/2/2
f 86/2/2 82/2/2 87/2/2
f 79/2/2 84/2/2 89/2/2
f 84/2/2 85/2/2 89/2/2
f 89/2/2 85/2/2 90/2/2
f 73/2/2 86/2/2 91/2/2
f 87/2/2 88/2/2 92/2/2
f 79/2/2 89/2/2 93/2/2
f 90/2/2 85/2/2 94/2/2
f 73/2/2 91/2/2 95/2/2
f 91/2/2 92/2/2 95/2/2
f 92/2/2 88/2/2 96/2/2
f 95/2/2 92/2/2 96/2/2
f 77/2/2 78/2/2 97/2/2
f 97/2/2 78/2/2 98/2/2
f 93/2/2 94/2/2 99/2/2
f 79/2/2 93/2/2 99/2/2
f 94/2/2 85/2/2 100/2/2
f 99/2/2 94/2/2 100/2/2
f 55/1/2 56/1/2 101/1/2
f 101/1/2 56/1/2 102/1/2
f 63/1/2 64/1/2 103/1/2
f 103/1/2 64/1/2 104/1/2
f 105/1/2 106/1/2 109/1/2
f 109/1/2 106/1/2 110/1/2
f 110/1/2 106/1/2 111/1/2
f 111/1/2 106/1/2 112/1/2
f 107/1/2 108/1/2 113/1/2
f 113/1/2 108/1/2 114/1/2
f 114/1/2 108/1/2 115/1/2
f 115/1/2 108/1/2 116/1/2
f 105/1/2 109/1/2 117/1/2
f 110/1/2 111/1/2 118/1/2
f 114/1/2 115/1/2 119/1/2
f 116/1/2 108/1/2 120/1/2
f 117/1/2 118/1/2 121/1/2
f 105/1/2 117/1/2 121/1/2
f 118/1/2 111/1/2 122/1/2
f 121/1/2 118/1/2 122/1/2
f 122/1/2 111/1/2 123/1/2
f 114/1/2 119/1/2 128/1/2
f 119/1/2 120/1/2 128/1/2
f 128/1/2 120/1/2 129/1/2
f 120/1/2 108/1/2 130/1/2
f 129/1/2 120/1/2 130/1/2
f 123/1/2 124/1/2 131/1/2
f 122/1/2 123/1/2 131/1/2
f 125/1/2 126/1/2 132/1/2
f 132/1/2 126/1/2 133/1/2
f 128/1/2 129/1/2 134/1/2
f 127/1/2 128/1/2 134/1/2
f 122/1/2 131/1/2 135/1/2
f 133/1/2 134/1/2 135/1/2
f 132/1/2 133/1/2 135/1/2
f 131/1/2 132/1/2 135/1/2
f 135/1/2 134/1/2 136/1/2
f 136/1/2 134/1/2 137/1/2
f 137/1/2 134/1/2 138/1/2
f 138/1/2 134/1/2 139/1/2
f 139/1/2 134/1/2 140/1/2
f 140/1/2 134/1/2 141/1/2
f 134/1/2 129/1/2 142/1/2
f 141/1/2 134/1/2 142/1/2
f 142/1/2 129/1/2 143/1/2
f 143/1/2 129/1/2 144/1/2
f 122/1/2 135/1/2 145/1/2
f 136/1/2 137/1/2 146/1/2
f 146/1/2 137/1/2 147/1/2
f 138/1/2 139/1/2 148/1/2
f 148/1/2 139/1/2 149/1/2
f 140/1/2 141/1/2 150/1/2
f 150/1/2 141/1/2 151/1/2
f 142/1/2 143/1/2 152/1/2
f 152/1/2 143/1/2 153/1/2
f 144/1/2 129/1/2 154/1/2
f 148/1/2 149/1/2 155/1/2
f 153/1/2 154/1/2 155/1/2
f 152/1/2 153/1/2 155/1/2
f 150/1/2 151/1/2 155/1/2
f 151/1/2 152/1/2 155/1/2
f 122/1/2 145/1/2 155/1/2
f 149/1/2 150/1/2 155/1/2
f 146/1/2 147/1/2 155/1/2
f 147/1/2 148/1/2 155/1/2
f 145/1/2 146/1/2 155/1/2
f 155/1/2 154/1/2 156/1/2
f 156/1/2 154/1/2 157/1/2
f 157/1/2 154/1/2 158/1/2
f 158/1/2 154/1/2 159/1/2
f 159/1/2 154/1/2 160/1/2
f 160/1/2 154/1/2 161/1/2
f 161/1/2 154/1/2 162/1/2
f 156/1/2 157/1/2 163/1/2
f 163/1/2 157/1/2 164/1/2
f 158/1/2 159/1/2 165/1/2
f 162/1/2 154/1/2 166/1/2
f 154/1/2 129/1/2 167/1/2
f 166/1/2 154/1/2 167/1/2
f 164/1/2 165/1/2 169/1/2
f 165/1/2 159/1/2 170/1/2
f 169/1/2 165/1/2 170/1/2
f 168/1/2 169/1/2 173/1/2
f 173/1/2 169/1/2 174/1/2
f 171/1/2 172/1/2 175/1/2
f 175/1/2 172/1/2 176/1/2
f 122/1/2 155/1/2 177/1/2
f 170/1/2 159/1/2 178/1/2
f 178/1/2 159/1/2 179/1/2
f 160/1/2 161/1/2 180/1/2
f 180/1/2 161/1/2 181/1/2
f 167/1/2 129/1/2 182/1/2
f 180/1/2 181/1/2 183/1/2
f 181/1/2 182/1/2 183/1/2
f 178/1/2 179/1/2 183/1/2
f 179/1/2 180/1/2 183/1/2
f 122/1/2 177/1/2 183/1/2
f 177/1/2 178/1/2 183/1/2
f 183/1/2 182/1/2 184/1/2
f 182/1/2 129/1/2 185/1/2
f 184/1/2 182/1/2 185/1/2
f 185/1/2 129/1/2 186/1/2
f 184/1/2 185/1/2 187/1/2
f 187/1/2 185/1/2 188/1/2
f 188/1/2 185/1/2 189/1/2
f 189/1/2 185/1/2 190/1/2
f 188/1/2 189/1/2 191/1/2
f 191/1/2 189/1/2 192/1/2
f 192/1/2 189/1/2 193/1/2
f 193/1/2 189/1/2 194/1/2
f 192/1/2 193/1/2 195/1/2
f 195/1/2 193/1/2 196/1/2
f 199/1/3 198/1/3 197/1/3
f 200/1/3 198/1/3 199/1/3
f 201/1/3 199/1/3 197/1/3
f 202/1/3 199/1/3 201/1/3
f 205/1/3 204/1/3 203/1/3
f 206/1/3 204/1/3 205/1/3
f 211/1/3 208/1/3 207/1/3
f 212/1/3 208/1/3 211/1/3
f 213/1/3 210/1/3 209/1/3
f 214/1/3 210/1/3 213/1/3
f 217/1/3 216/1/3 215/1/3
f 218/1/3 216/1/3 217/1/3
f 227/1/3 222/1/3 221/1/3
f 228/1/3 222/1/3 227/1/3
f 229/1/3 224/1/3 223/1/3
f 230/1/3 224/1/3 229/1/3
f 231/1/3 226/1/3 225/1/3
f 232/1/3 226/1/3 231/1/3
f 233/1/3 220/1/3 219/1/3
f 234/1/3 220/1/3 233/1/3
f 239/1/3 238/1/3 237/1/3
f 240/1/3 238/1/3 239/1/3
f 241/1/3 236/1/3 235/1/3
f 242/1/3 236/1/3 241/1/3
f 249/1/3 244/1/3 243/1/3
f 250/1/3 244/1/3 249/1/3
f 251/1/3 246/1/3 245/1/3
f 252/1/3 246/1/3 251/1/3
f 253/1/3 248/1/3 247/1/3
f 254/1/3 248/1/3 253/1/3
f 257/1/3 256/1/3 255/1/3
f 258/1/3 256/1/3 257/1/3
f 263/1/3 260/1/3 259/1/3
f 264/1/3 260/1/3 263/1/3
f 265/1/3 262/1/3 261/1/3
f 266/1/3 262/1/3 265/1/3
f 277/1/3 270/1/3 269/1/3
f 278/1/3 270/1/3 277/1/3
f 279/1/3 272/1/3 271/1/3
f 280/1/3 272/1/3 279/1/3
f 281/1/3 268/1/3 267/1/3
f 282/1/3 268/1/3 281/1/3
f 283/1/3 274/1/3 273/1/3
f 284/1/3 274/1/3 283/1/3
f 285/1/3 276/1/3 275/1/3
f 286/1/3 276/1/3 285/1/3
f 289/1/3 288/1/3 287/1/3
f 290/1/3 288/1/3 289/1/3
f 295/1/3 292/1/3 291/1/3
f 296/1/3 292/1/3 295/1/3
f 297/1/3 294/1/3 293/1/3
f 298/1/3 294/1/3 297/1/3
f 301/1/3 300/1/3 299/1/3
f 302/1/3 300/1/3 301/1/3
f 303/1/4 304/1/4 305/1/4
f 305/1/4 304/1/4 306/1/4
f 307/1/4 308/1/4 311/1/4
f 311/1/4 308/1/4 312/1/4
f 309/1/4 310/1/4 313/1/4
f 313/1/4 310/1/4 314/1/4
f 315/1/4 316/1/4 317/1/4
f 317/1/4 316/1/4 318/1/4
f 319/1/4 320/1/4 329/1/4
f 329/1/4 320/1/4 330/1/4
f 321/1/4 322/1/4 331/1/4
f 331/1/4 322/1/4 332/1/4
f 323/1/4 324/1/4 333/1/4
f 333/1/4 324/1/4 334/1/4
f 325/1/4 326/1/4 335/1/4
f 335/1/4 326/1/4 336/1/4
f 327/1/4 328/1/4 337/1/4
f 337/1/4 328/1/4 338/1/4
f 339/1/4 340/1/4 343/1/4
f 343/1/4 340/1/4 344/1/4
f 341/1/4 342/1/4 345/1/4
f 345/1/4 342/1/4 346/1/4
f 347/1/4 348/1/4 349/1/4
f 349/1/4 348/1/4 350/1/4
f 351/1/4 352/1/4 355/1/4
f 355/1/4 352/1/4 356/1/4
f 353/1/4 354/1/4 357/1/4
f 357/1/4 354/1/4 358/1/4
f 359/1/4 360/1/4 361/1/4
f 361/1/4 360/1/4 362/1/4
f 365/1/4 366/1/4 369/1/4
f 369/1/4 366/1/4 370/1/4
f 367/1/4 368/1/4 371/1/4
f 371/1/4 368/1/4 372/1/4
f 363/1/4 364/1/4 373/1/4
f 373/1/4 364/1/4 374/1/4
f 375/1/4 376/1/4 377/1/4
f 377/1/4 376/1/4 378/1/4
f 379/1/4 380/1/4 381/1/4
f 381/1/4 380/1/4 382/1/4
f 383/1/4 384/1/4 387/1/4
f 387/1/4 384/1/4 388/1/4
f 385/1/4 386/1/4 389/1/4
f 389/1/4 386/1/4 390/1/4
f 391/1/4 392/1/4 393/1/4
f 393/1/4 392/1/4 394/1/4
f 391/1/4 393/1/4 395/1/4
f 395/1/4 393/1/4 396/1/4
f 400/1/5 398/1/5 397/1/5
f 401/1/5 398/1/5 400/1/5
f 401/1/5 400/1/5 399/1/5
f 402/1/5 398/1/5 401/1/5
f 403/1/5 401/1/5 399/1/5
f 405/1/5 403/1/5 399/1/5
f 405/1/5 404/1/5 403/1/5
f 406/1/5 404/1/5 405/1/5
f 407/1/5 404/1/5 406/1/5
f 408/1/5 404/1/5 407/1/5
f 411/1/5 410/1/5 409/1/5
f 412/1/5 410/1/5 411/1/5
f 415/1/5 414/1/5 413/1/5
f 416/1/5 414/1/5 415/1/5
f 419/1/5 418/1/5 417/1/5
f 420/1/5 418/1/5 419/1/5
f 423/1/5 422/1/5 421/1/5
f 424/1/5 422/1/5 423/1/5
f 427/1/5 426/1/5 425/1/5
f 428/1/5 426/1/5 427/1/5
f 431/1/5 430/1/5 429/1/5
f 432/1/5 430/1/5 431/1/5
f 435/1/5 434/1/5 433/1/5
f 436/1/5 434/1/5 435/1/5
f 439/1/5 438/1/5 437/1/5
f 440/1/5 438/1/5 439/1/5
f 443/1/5 442/1/5 441/1/5
f 444/1/5 442/1/5 443/1/5
f 447/1/5 446/1/5 445/1/5
f 448/1/5 446/1/5 447/1/5
f 451/1/5 450/1/5 449/1/5
f 452/1/5 450/1/5 451/1/5
f 455/1/5 454/1/5 453/1/5
f 456/1/5 454/1/5 455/1/5
f 459/1/5 458/1/5 457/1/5
f 460/1/5 458/1/5 459/1/5
f 463/1/5 462/1/5 461/1/5
f 464/1/5 462/1/5 463/1/5
f 467/1/5 466/1/5 465/1/5
f 468/1/5 466/1/5 467/1/5
f 471/1/5 470/1/5 469/1/5
f 472/1/5 470/1/5 471/1/5
f 475/1/5 474/1/5 473/1/5
f 476/1/5 474/1/5 475/1/5
f 479/1/5 478/1/5 477/1/5
f 480/1/5 478/1/5 479/1/5
f 481/1/6 482/1/6 483/1/6
f 483/1/6 482/1/6 484/1/6
f 485/1/6 486/1/6 487/1/6
f 487/1/6 486/1/6 488/1/6
f 489/1/6 490/1/6 491/1/6
f 491/1/6 490/1/6 492/1/6
f 493/1/6 494/1/6 495/1/6
f 495/1/6 494/1/6 496/1/6
f 497/1/6 498/1/6 499/1/6
f 499/1/6 498/1/6 500/1/6
f 501/1/6 502/1/6 503/1/6
f 503/1/6 502/1/6 504/1/6
f 505/1/6 506/1/6 507/1/6
f 507/1/6 506/1/6 508/1/6
f 509/1/6 510/1/6 511/1/6
f 511/1/6 510/1/6 512/1/6
f 513/1/6 514/1/6 515/1/6
f 515/1/6 514/1/6 516/1/6
f 517/1/6 518/1/6 519/1/6
f 519/1/6 518/1/6 520/1/6
f 521/1/6 522/1/6 523/1/6
f 523/1/6 522/1/6 524/1/6
f 525/1/6 526/1/6 527/1/6
f 527/1/6 526/1/6 528/1/6
f 529/1/6 530/1/6 531/1/6
f 531/1/6 530/1/6 532/1/6
f 533/1/6 534/1/6 535/1/6
f 535/1/6 534/1/6 536/1/6
f 537/1/6 538/1/6 539/1/6
f 539/1/6 538/1/6 540/1/6
f 541/1/6 542/1/6 543/1/6
f 543/1/6 542/1/6 544/1/6
f 545/1/6 546/1/6 547/1/6
f 547/1/6 546/1/6 548/1/6
f 549/1/6 550/1/6 551/1/6
f 551/1/6 550/1/6 552/1/6
f 553/1/6 554/1/6 555/1/6
f 555/1/6 554/1/6 556/1/6
f 557/1/6 558/1/6 559/1/6
f 559/1/6 558/1/6 560/1/6
f 561/1/6 562/1/6 564/1/6
f 564/1/6 562/1/6 565/1/6
f 563/1/6 564/1/6 565/1/6
f 563/1/6 565/1/6 567/1/6
f 565/1/6 566/1/6 567/1/6
f 567/1/6 566/1/6 568/1/6
f 569/1/6 570/1/6 571/1/6
f 571/1/6 570/1/6 572/1/6
f 572/1/6 570/1/6 573/1/6
f 573/1/6 570/1/6 574/1/6
f 572/1/6 573/1/6 575/1/6
f 575/1/6 573/1/6 576/1/6
f 577/1/6 578/1/6 579/1/6
f 579/1/6 578/1/6 580/1/6
f 581/1/6 582/1/6 583/1/6
f 583/1/6 582/1/6 584/1/6
f 585/1/6 586/1/6 587/1/6
f 587/1/6 586/1/6 588/1/6
f 589/1/6 590/1/6 591/1/6
f 591/1/6 590/1/6 592/1/6
f 593/1/6 594/1/6 595/1/6
f 595/1/6 594/1/6 596/1/6
