# MagicaVoxel @ Ephtracy

# group
g map-66

# material
mtllib map-66.mtl
usemtl palette

# normals
vn -1 0 0
vn 1 0 0
vn 0 0 1
vn 0 0 -1
vn 0 -1 0
vn 0 1 0

# texcoords
vt 0.189453 0.5
vt 0.197266 0.5
vt 0.919922 0.5

# verts
v -6 0 6
v -6 0 -6
v -6 11 6
v -6 11 5
v -6 11 4
v -6 11 3
v -6 11 2
v -6 11 1
v -6 11 -0
v -6 11 -1
v -6 11 -2
v -6 11 -3
v -6 11 -4
v -6 11 -5
v -6 11 -6
v -6 12 6
v -6 12 5
v -6 12 4
v -6 12 3
v -6 12 2
v -6 12 1
v -6 12 -0
v -6 12 -1
v -6 12 -2
v -6 12 -3
v -6 12 -4
v -6 12 -5
v -6 12 -6
v 6 0 6
v 6 0 -6
v 6 11 6
v 6 11 5
v 6 11 4
v 6 11 3
v 6 11 2
v 6 11 1
v 6 11 -0
v 6 11 -1
v 6 11 -2
v 6 11 -3
v 6 11 -4
v 6 11 -5
v 6 11 -6
v 6 12 6
v 6 12 5
v 6 12 4
v 6 12 3
v 6 12 2
v 6 12 1
v 6 12 -0
v 6 12 -1
v 6 12 -2
v 6 12 -3
v 6 12 -4
v 6 12 -5
v 6 12 -6
v -6 0 6
v -6 11 6
v -6 12 6
v -4 11 6
v -4 12 6
v -3 11 6
v -3 12 6
v 1 11 6
v 1 12 6
v 2 11 6
v 2 12 6
v 6 0 6
v 6 11 6
v 6 12 6
v -6 0 -6
v -6 11 -6
v -6 12 -6
v 6 0 -6
v 6 11 -6
v 6 12 -6
v -6 0 6
v 6 0 6
v -5 0 5
v 5 0 5
v -5 0 -5
v 5 0 -5
v -6 0 -6
v 6 0 -6
v -6 12 6
v -4 12 6
v -3 12 6
v 1 12 6
v 2 12 6
v 6 12 6
v -6 12 5
v -4 12 5
v -3 12 5
v 1 12 5
v 2 12 5
v 6 12 5
v -6 12 4
v 3 12 4
v 4 12 4
v 6 12 4
v -6 12 3
v 3 12 3
v 4 12 3
v 6 12 3
v -6 12 2
v -4 12 2
v -3 12 2
v 6 12 2
v -6 12 1
v -4 12 1
v -3 12 1
v 6 12 1
v -6 12 -0
v 1 12 -0
v 2 12 -0
v 6 12 -0
v -6 12 -1
v 1 12 -1
v 2 12 -1
v 6 12 -1
v -6 12 -2
v -5 12 -2
v -4 12 -2
v 4 12 -2
v 5 12 -2
v 6 12 -2
v -6 12 -3
v -5 12 -3
v -4 12 -3
v 4 12 -3
v 5 12 -3
v 6 12 -3
v -6 12 -4
v 0 12 -4
v 1 12 -4
v 6 12 -4
v -6 12 -5
v 0 12 -5
v 1 12 -5
v 6 12 -5
v -6 12 -6
v 6 12 -6

# faces
f 3/3/1 2/3/1 1/3/1
f 4/3/1 2/3/1 3/3/1
f 5/3/1 2/3/1 4/3/1
f 6/3/1 2/3/1 5/3/1
f 7/3/1 2/3/1 6/3/1
f 8/3/1 2/3/1 7/3/1
f 9/3/1 2/3/1 8/3/1
f 10/3/1 2/3/1 9/3/1
f 11/3/1 2/3/1 10/3/1
f 12/3/1 2/3/1 11/3/1
f 13/3/1 2/3/1 12/3/1
f 14/3/1 2/3/1 13/3/1
f 15/3/1 2/3/1 14/3/1
f 16/1/1 4/1/1 3/1/1
f 17/2/1 5/2/1 4/2/1
f 17/1/1 4/1/1 16/1/1
f 18/1/1 6/1/1 5/1/1
f 18/2/1 5/2/1 17/2/1
f 19/2/1 7/2/1 6/2/1
f 19/1/1 6/1/1 18/1/1
f 20/1/1 8/1/1 7/1/1
f 20/2/1 7/2/1 19/2/1
f 21/2/1 9/2/1 8/2/1
f 21/1/1 8/1/1 20/1/1
f 22/1/1 10/1/1 9/1/1
f 22/2/1 9/2/1 21/2/1
f 23/2/1 11/2/1 10/2/1
f 23/1/1 10/1/1 22/1/1
f 24/1/1 12/1/1 11/1/1
f 24/2/1 11/2/1 23/2/1
f 25/2/1 13/2/1 12/2/1
f 25/1/1 12/1/1 24/1/1
f 26/1/1 14/1/1 13/1/1
f 26/2/1 13/2/1 25/2/1
f 27/2/1 15/2/1 14/2/1
f 27/1/1 14/1/1 26/1/1
f 28/2/1 15/2/1 27/2/1
f 29/3/2 30/3/2 31/3/2
f 31/3/2 30/3/2 32/3/2
f 32/3/2 30/3/2 33/3/2
f 33/3/2 30/3/2 34/3/2
f 34/3/2 30/3/2 35/3/2
f 35/3/2 30/3/2 36/3/2
f 36/3/2 30/3/2 37/3/2
f 37/3/2 30/3/2 38/3/2
f 38/3/2 30/3/2 39/3/2
f 39/3/2 30/3/2 40/3/2
f 40/3/2 30/3/2 41/3/2
f 41/3/2 30/3/2 42/3/2
f 42/3/2 30/3/2 43/3/2
f 31/1/2 32/1/2 44/1/2
f 32/2/2 33/2/2 45/2/2
f 44/1/2 32/1/2 45/1/2
f 33/1/2 34/1/2 46/1/2
f 45/2/2 33/2/2 46/2/2
f 34/2/2 35/2/2 47/2/2
f 46/1/2 34/1/2 47/1/2
f 35/1/2 36/1/2 48/1/2
f 47/2/2 35/2/2 48/2/2
f 36/2/2 37/2/2 49/2/2
f 48/1/2 36/1/2 49/1/2
f 37/1/2 38/1/2 50/1/2
f 49/2/2 37/2/2 50/2/2
f 38/2/2 39/2/2 51/2/2
f 50/1/2 38/1/2 51/1/2
f 39/1/2 40/1/2 52/1/2
f 51/2/2 39/2/2 52/2/2
f 40/2/2 41/2/2 53/2/2
f 52/1/2 40/1/2 53/1/2
f 41/1/2 42/1/2 54/1/2
f 53/2/2 41/2/2 54/2/2
f 42/2/2 43/2/2 55/2/2
f 54/1/2 42/1/2 55/1/2
f 55/2/2 43/2/2 56/2/2
f 60/3/3 58/3/3 57/3/3
f 60/1/3 59/1/3 58/1/3
f 61/1/3 59/1/3 60/1/3
f 62/3/3 60/3/3 57/3/3
f 62/2/3 61/2/3 60/2/3
f 63/2/3 61/2/3 62/2/3
f 64/3/3 62/3/3 57/3/3
f 64/1/3 63/1/3 62/1/3
f 65/1/3 63/1/3 64/1/3
f 66/3/3 64/3/3 57/3/3
f 66/2/3 65/2/3 64/2/3
f 67/2/3 65/2/3 66/2/3
f 68/3/3 66/3/3 57/3/3
f 69/1/3 67/1/3 66/1/3
f 69/3/3 66/3/3 68/3/3
f 70/1/3 67/1/3 69/1/3
f 71/3/4 72/3/4 74/3/4
f 72/2/4 73/2/4 75/2/4
f 74/3/4 72/3/4 75/3/4
f 75/2/4 73/2/4 76/2/4
f 79/3/5 78/3/5 77/3/5
f 80/3/5 78/3/5 79/3/5
f 81/3/5 79/3/5 77/3/5
f 81/2/5 80/2/5 79/2/5
f 82/3/5 78/3/5 80/3/5
f 82/2/5 80/2/5 81/2/5
f 83/3/5 81/3/5 77/3/5
f 83/3/5 82/3/5 81/3/5
f 84/3/5 78/3/5 82/3/5
f 84/3/5 82/3/5 83/3/5
f 85/1/6 86/1/6 91/1/6
f 86/2/6 87/2/6 92/2/6
f 91/1/6 86/1/6 92/1/6
f 87/1/6 88/1/6 93/1/6
f 92/2/6 87/2/6 93/2/6
f 88/2/6 89/2/6 94/2/6
f 93/1/6 88/1/6 94/1/6
f 89/1/6 90/1/6 95/1/6
f 94/2/6 89/2/6 95/2/6
f 95/1/6 90/1/6 96/1/6
f 93/2/6 94/2/6 97/2/6
f 91/2/6 92/2/6 97/2/6
f 95/2/6 96/2/6 97/2/6
f 94/2/6 95/2/6 97/2/6
f 92/2/6 93/2/6 97/2/6
f 97/2/6 96/2/6 98/2/6
f 98/2/6 96/2/6 99/2/6
f 99/2/6 96/2/6 100/2/6
f 97/1/6 98/1/6 101/1/6
f 98/2/6 99/2/6 102/2/6
f 101/1/6 98/1/6 102/1/6
f 99/1/6 100/1/6 103/1/6
f 102/2/6 99/2/6 103/2/6
f 103/1/6 100/1/6 104/1/6
f 101/2/6 102/2/6 105/2/6
f 102/2/6 103/2/6 105/2/6
f 103/2/6 104/2/6 105/2/6
f 105/2/6 104/2/6 106/2/6
f 106/2/6 104/2/6 107/2/6
f 107/2/6 104/2/6 108/2/6
f 105/1/6 106/1/6 109/1/6
f 106/2/6 107/2/6 110/2/6
f 109/1/6 106/1/6 110/1/6
f 107/1/6 108/1/6 111/1/6
f 110/2/6 107/2/6 111/2/6
f 111/1/6 108/1/6 112/1/6
f 109/2/6 110/2/6 113/2/6
f 110/2/6 111/2/6 113/2/6
f 111/2/6 112/2/6 113/2/6
f 113/2/6 112/2/6 114/2/6
f 114/2/6 112/2/6 115/2/6
f 115/2/6 112/2/6 116/2/6
f 113/1/6 114/1/6 117/1/6
f 114/2/6 115/2/6 118/2/6
f 117/1/6 114/1/6 118/1/6
f 115/1/6 116/1/6 119/1/6
f 118/2/6 115/2/6 119/2/6
f 119/1/6 116/1/6 120/1/6
f 117/2/6 118/2/6 121/2/6
f 118/2/6 119/2/6 121/2/6
f 119/2/6 120/2/6 121/2/6
f 121/2/6 120/2/6 122/2/6
f 122/2/6 120/2/6 123/2/6
f 123/2/6 120/2/6 124/2/6
f 124/2/6 120/2/6 125/2/6
f 125/2/6 120/2/6 126/2/6
f 121/1/6 122/1/6 127/1/6
f 122/2/6 123/2/6 128/2/6
f 127/1/6 122/1/6 128/1/6
f 123/1/6 124/1/6 129/1/6
f 128/2/6 123/2/6 129/2/6
f 124/2/6 125/2/6 130/2/6
f 129/1/6 124/1/6 130/1/6
f 125/1/6 126/1/6 131/1/6
f 130/2/6 125/2/6 131/2/6
f 131/1/6 126/1/6 132/1/6
f 127/2/6 128/2/6 133/2/6
f 128/2/6 129/2/6 133/2/6
f 131/2/6 132/2/6 133/2/6
f 130/2/6 131/2/6 133/2/6
f 129/2/6 130/2/6 133/2/6
f 133/2/6 132/2/6 134/2/6
f 134/2/6 132/2/6 135/2/6
f 135/2/6 132/2/6 136/2/6
f 133/1/6 134/1/6 137/1/6
f 134/2/6 135/2/6 138/2/6
f 137/1/6 134/1/6 138/1/6
f 135/1/6 136/1/6 139/1/6
f 138/2/6 135/2/6 139/2/6
f 139/1/6 136/1/6 140/1/6
f 137/2/6 138/2/6 141/2/6
f 138/2/6 139/2/6 141/2/6
f 139/2/6 140/2/6 141/2/6
f 141/2/6 140/2/6 142/2/6
