# MagicaVoxel @ Ephtracy

# group
g map-203

# material
mtllib map-203.mtl
usemtl palette

# normals
vn -1 0 0
vn 1 0 0
vn 0 0 1
vn 0 0 -1
vn 0 -1 0
vn 0 1 0

# texcoords
vt 0.00195312 0.5
vt 0.287109 0.5
vt 0.310547 0.5
vt 0.435547 0.5
vt 0.521484 0.5
vt 0.611328 0.5
vt 0.736328 0.5
vt 0.916016 0.5
vt 0.962891 0.5
vt 0.986328 0.5
vt 0.990234 0.5
vt 0.994141 0.5

# verts
v -6 8 5
v -6 8 3
v -6 8 1
v -6 10 9
v -6 10 5
v -6 10 3
v -6 10 1
v -6 12 9
v -6 12 3
v -6 20 -0
v -6 20 -1
v -6 23 -0
v -6 23 -1
v -5 2 1
v -5 2 -7
v -5 6 1
v -5 6 -1
v -5 8 1
v -5 8 -1
v -5 10 1
v -5 11 1
v -5 11 -1
v -5 11 -6
v -5 11 -7
v -5 12 -1
v -5 12 -4
v -5 13 -4
v -5 13 -6
v -5 16 1
v -5 16 -0
v -5 19 1
v -5 19 -0
v -5 20 -0
v -5 20 -1
v -5 21 1
v -5 21 -0
v -5 21 -1
v -5 21 -7
v -4 0 -0
v -4 0 -4
v -4 1 -0
v -4 1 -2
v -4 2 -2
v -4 2 -4
v -1 14 3
v -1 14 2
v -1 14 1
v -1 16 3
v -1 16 2
v -1 16 1
v 2 0 -1
v 2 0 -4
v 2 1 -1
v 2 1 -2
v 2 2 -2
v 2 2 -4
v 3 7 9
v 3 7 8
v 3 8 8
v 3 8 7
v 3 10 8
v 3 10 7
v 3 11 9
v 3 11 8
v 3 21 -0
v 3 21 -1
v 3 23 -0
v 3 23 -1
v 4 7 8
v 4 7 7
v 4 8 8
v 4 8 7
v 4 8 1
v 4 10 8
v 4 10 7
v 4 10 1
v 4 11 8
v 4 11 7
v -4 8 5
v -4 8 3
v -4 8 1
v -4 10 9
v -4 10 5
v -4 10 3
v -4 10 1
v -4 12 9
v -4 12 3
v -3 21 -0
v -3 21 -1
v -3 23 -0
v -3 23 -1
v -2 0 -0
v -2 0 -4
v -2 1 -0
v -2 1 -2
v -2 2 -2
v -2 2 -3
v -2 2 -4
v 1 14 3
v 1 14 2
v 1 14 1
v 1 16 3
v 1 16 2
v 1 16 1
v 4 0 -1
v 4 0 -4
v 4 1 -1
v 4 1 -2
v 4 2 -2
v 4 2 -4
v 5 2 1
v 5 2 -7
v 5 6 1
v 5 6 -1
v 5 8 1
v 5 8 -1
v 5 10 1
v 5 10 -0
v 5 11 -0
v 5 11 -2
v 5 13 -6
v 5 13 -7
v 5 14 -2
v 5 14 -6
v 5 16 1
v 5 16 -0
v 5 19 1
v 5 19 -0
v 5 20 -0
v 5 20 -1
v 5 21 1
v 5 21 -0
v 5 21 -1
v 5 21 -7
v 6 7 8
v 6 7 7
v 6 8 8
v 6 8 7
v 6 8 1
v 6 10 8
v 6 10 7
v 6 10 1
v 6 11 8
v 6 11 7
v 6 20 -0
v 6 20 -1
v 6 23 -0
v 6 23 -1
v 7 7 9
v 7 7 8
v 7 8 8
v 7 8 7
v 7 10 8
v 7 10 7
v 7 11 9
v 7 11 8
v -6 10 9
v -6 12 9
v -4 10 9
v -4 12 9
v 3 7 9
v 3 11 9
v 4 8 9
v 4 10 9
v 6 8 9
v 6 10 9
v 7 7 9
v 7 11 9
v -6 8 5
v -6 10 5
v -4 8 5
v -4 10 5
v -1 14 3
v -1 16 3
v 1 14 3
v 1 16 3
v -5 2 1
v -5 6 1
v -5 8 1
v -5 10 1
v -5 11 1
v -5 16 1
v -5 19 1
v -5 21 1
v -4 8 1
v -4 10 1
v -4 11 1
v -4 16 1
v -4 18 1
v -4 19 1
v -4 20 1
v -3 5 1
v -3 6 1
v -2 2 1
v -2 5 1
v -2 16 1
v -2 18 1
v -2 19 1
v -2 20 1
v -1 12 1
v -1 13 1
v -1 14 1
v -1 16 1
v 1 2 1
v 1 5 1
v 1 12 1
v 1 13 1
v 1 14 1
v 1 16 1
v 2 5 1
v 2 6 1
v 2 16 1
v 2 18 1
v 2 19 1
v 2 20 1
v 4 8 1
v 4 10 1
v 4 16 1
v 4 18 1
v 4 19 1
v 4 20 1
v 5 2 1
v 5 6 1
v 5 8 1
v 5 10 1
v 5 16 1
v 5 19 1
v 5 21 1
v -6 20 -0
v -6 23 -0
v -5 20 -0
v -5 21 -0
v -4 0 -0
v -4 1 -0
v -3 21 -0
v -3 23 -0
v -2 0 -0
v -2 1 -0
v 3 21 -0
v 3 23 -0
v 5 20 -0
v 5 21 -0
v 6 20 -0
v 6 23 -0
v 2 0 -1
v 2 1 -1
v 4 0 -1
v 4 1 -1
v -4 1 -2
v -4 2 -2
v -2 1 -2
v -2 2 -2
v 2 1 -2
v 2 2 -2
v 4 1 -2
v 4 2 -2
v 3 7 8
v 3 8 8
v 3 10 8
v 3 11 8
v 4 7 8
v 4 8 8
v 4 10 8
v 4 11 8
v 6 7 8
v 6 8 8
v 6 10 8
v 6 11 8
v 7 7 8
v 7 8 8
v 7 10 8
v 7 11 8
v 3 8 7
v 3 10 7
v 4 7 7
v 4 8 7
v 4 10 7
v 4 11 7
v 6 7 7
v 6 8 7
v 6 10 7
v 6 11 7
v 7 8 7
v 7 10 7
v -6 10 3
v -6 12 3
v -4 10 3
v -4 12 3
v -6 8 1
v -6 10 1
v -5 8 1
v -5 10 1
v 5 8 1
v 5 10 1
v 6 8 1
v 6 10 1
v -6 20 -1
v -6 23 -1
v -5 20 -1
v -5 21 -1
v -3 21 -1
v -3 23 -1
v 3 21 -1
v 3 23 -1
v 5 20 -1
v 5 21 -1
v 6 20 -1
v 6 23 -1
v -4 0 -4
v -4 2 -4
v -2 0 -4
v -2 2 -4
v 2 0 -4
v 2 2 -4
v 4 0 -4
v 4 2 -4
v -5 2 -7
v -5 11 -7
v -5 21 -7
v -4 9 -7
v -4 11 -7
v -3 6 -7
v -3 9 -7
v -2 2 -7
v -2 6 -7
v 2 2 -7
v 2 7 -7
v 3 7 -7
v 3 9 -7
v 4 9 -7
v 4 13 -7
v 5 2 -7
v 5 13 -7
v 5 21 -7
v -4 0 -0
v -2 0 -0
v 2 0 -1
v 4 0 -1
v -4 0 -4
v -2 0 -4
v 2 0 -4
v 4 0 -4
v -5 2 1
v -2 2 1
v 1 2 1
v 5 2 1
v -2 2 -0
v -1 2 -0
v 0 2 -1
v 1 2 -1
v -4 2 -2
v -2 2 -2
v 0 2 -2
v 1 2 -2
v 2 2 -2
v 4 2 -2
v -2 2 -3
v -1 2 -3
v -4 2 -4
v -2 2 -4
v 2 2 -4
v 4 2 -4
v 1 2 -6
v 2 2 -6
v -5 2 -7
v -2 2 -7
v 2 2 -7
v 5 2 -7
v 3 7 9
v 7 7 9
v 3 7 8
v 4 7 8
v 6 7 8
v 7 7 8
v 4 7 7
v 6 7 7
v 3 8 8
v 4 8 8
v 6 8 8
v 7 8 8
v 3 8 7
v 4 8 7
v 6 8 7
v 7 8 7
v -6 8 5
v -4 8 5
v -6 8 3
v -4 8 3
v -6 8 1
v -5 8 1
v -4 8 1
v 4 8 1
v 5 8 1
v 6 8 1
v -6 10 9
v -4 10 9
v -6 10 5
v -4 10 5
v -1 14 3
v 1 14 3
v -1 14 2
v 1 14 2
v -1 14 1
v 1 14 1
v -6 20 -0
v -5 20 -0
v 5 20 -0
v 6 20 -0
v -6 20 -1
v -5 20 -1
v 5 20 -1
v 6 20 -1
v -4 1 -0
v -2 1 -0
v 2 1 -1
v 4 1 -1
v -4 1 -2
v -2 1 -2
v 2 1 -2
v 4 1 -2
v 3 10 8
v 4 10 8
v 6 10 8
v 7 10 8
v 3 10 7
v 4 10 7
v 6 10 7
v 7 10 7
v -6 10 3
v -4 10 3
v -6 10 1
v -5 10 1
v -4 10 1
v 4 10 1
v 5 10 1
v 6 10 1
v 3 11 9
v 7 11 9
v 3 11 8
v 4 11 8
v 6 11 8
v 7 11 8
v 4 11 7
v 6 11 7
v -6 12 9
v -4 12 9
v -6 12 3
v -4 12 3
v -1 16 3
v 1 16 3
v -1 16 2
v 1 16 2
v -1 16 1
v 1 16 1
v -5 21 1
v 5 21 1
v -5 21 -0
v -3 21 -0
v 3 21 -0
v 5 21 -0
v -5 21 -1
v -3 21 -1
v 3 21 -1
v 5 21 -1
v -5 21 -7
v 5 21 -7
v -6 23 -0
v -3 23 -0
v 3 23 -0
v 6 23 -0
v -6 23 -1
v -3 23 -1
v 3 23 -1
v 6 23 -1

# faces
f 5/11/1 2/11/1 1/11/1
f 6/12/1 3/12/1 2/12/1
f 6/11/1 2/11/1 5/11/1
f 7/12/1 3/12/1 6/12/1
f 8/11/1 5/11/1 4/11/1
f 8/11/1 6/11/1 5/11/1
f 9/11/1 6/11/1 8/11/1
f 12/12/1 11/12/1 10/12/1
f 13/12/1 11/12/1 12/12/1
f 16/12/1 15/12/1 14/12/1
f 17/12/1 15/12/1 16/12/1
f 18/8/1 17/8/1 16/8/1
f 19/12/1 15/12/1 17/12/1
f 19/8/1 17/8/1 18/8/1
f 20/12/1 19/12/1 18/12/1
f 21/12/1 19/12/1 20/12/1
f 22/12/1 15/12/1 19/12/1
f 22/12/1 19/12/1 21/12/1
f 23/12/1 15/12/1 22/12/1
f 24/12/1 15/12/1 23/12/1
f 25/8/1 22/8/1 21/8/1
f 25/12/1 23/12/1 22/12/1
f 26/12/1 23/12/1 25/12/1
f 27/8/1 26/8/1 25/8/1
f 27/12/1 23/12/1 26/12/1
f 28/8/1 24/8/1 23/8/1
f 28/12/1 23/12/1 27/12/1
f 29/8/1 27/8/1 25/8/1
f 29/8/1 25/8/1 21/8/1
f 29/8/1 28/8/1 27/8/1
f 30/8/1 28/8/1 29/8/1
f 31/12/1 30/12/1 29/12/1
f 32/8/1 28/8/1 30/8/1
f 32/12/1 30/12/1 31/12/1
f 33/8/1 32/8/1 31/8/1
f 33/8/1 28/8/1 32/8/1
f 34/8/1 28/8/1 33/8/1
f 35/8/1 33/8/1 31/8/1
f 36/8/1 33/8/1 35/8/1
f 37/8/1 28/8/1 34/8/1
f 38/8/1 24/8/1 28/8/1
f 38/8/1 28/8/1 37/8/1
f 41/12/1 40/12/1 39/12/1
f 42/12/1 40/12/1 41/12/1
f 43/12/1 40/12/1 42/12/1
f 44/12/1 40/12/1 43/12/1
f 48/12/1 46/12/1 45/12/1
f 49/8/1 47/8/1 46/8/1
f 49/12/1 46/12/1 48/12/1
f 50/8/1 47/8/1 49/8/1
f 53/12/1 52/12/1 51/12/1
f 54/12/1 52/12/1 53/12/1
f 55/12/1 52/12/1 54/12/1
f 56/12/1 52/12/1 55/12/1
f 59/12/1 58/12/1 57/12/1
f 61/12/1 59/12/1 57/12/1
f 61/12/1 60/12/1 59/12/1
f 62/12/1 60/12/1 61/12/1
f 63/12/1 61/12/1 57/12/1
f 64/12/1 61/12/1 63/12/1
f 67/12/1 66/12/1 65/12/1
f 68/12/1 66/12/1 67/12/1
f 71/12/1 70/12/1 69/12/1
f 72/12/1 70/12/1 71/12/1
f 75/12/1 73/12/1 72/12/1
f 76/12/1 73/12/1 75/12/1
f 77/12/1 75/12/1 74/12/1
f 78/12/1 75/12/1 77/12/1
f 79/11/2 80/11/2 83/11/2
f 80/12/2 81/12/2 84/12/2
f 83/11/2 80/11/2 84/11/2
f 84/12/2 81/12/2 85/12/2
f 82/11/2 83/11/2 86/11/2
f 83/11/2 84/11/2 86/11/2
f 86/11/2 84/11/2 87/11/2
f 88/12/2 89/12/2 90/12/2
f 90/12/2 89/12/2 91/12/2
f 92/12/2 93/12/2 94/12/2
f 94/12/2 93/12/2 95/12/2
f 95/12/2 93/12/2 96/12/2
f 96/12/2 93/12/2 97/12/2
f 97/12/2 93/12/2 98/12/2
f 99/12/2 100/12/2 102/12/2
f 100/8/2 101/8/2 103/8/2
f 102/12/2 100/12/2 103/12/2
f 103/8/2 101/8/2 104/8/2
f 105/12/2 106/12/2 107/12/2
f 107/12/2 106/12/2 108/12/2
f 108/12/2 106/12/2 109/12/2
f 109/12/2 106/12/2 110/12/2
f 111/12/2 112/12/2 113/12/2
f 113/12/2 112/12/2 114/12/2
f 113/8/2 114/8/2 115/8/2
f 114/12/2 112/12/2 116/12/2
f 115/8/2 114/8/2 116/8/2
f 115/12/2 116/12/2 117/12/2
f 117/12/2 116/12/2 118/12/2
f 117/8/2 118/8/2 119/8/2
f 118/12/2 116/12/2 119/12/2
f 116/12/2 112/12/2 120/12/2
f 119/12/2 116/12/2 120/12/2
f 120/12/2 112/12/2 121/12/2
f 121/12/2 112/12/2 122/12/2
f 119/8/2 120/8/2 123/8/2
f 120/12/2 121/12/2 123/12/2
f 121/8/2 122/8/2 124/8/2
f 123/12/2 121/12/2 124/12/2
f 117/8/2 119/8/2 125/8/2
f 119/8/2 123/8/2 125/8/2
f 123/8/2 124/8/2 125/8/2
f 125/8/2 124/8/2 126/8/2
f 125/12/2 126/12/2 127/12/2
f 126/8/2 124/8/2 128/8/2
f 127/12/2 126/12/2 128/12/2
f 127/8/2 128/8/2 129/8/2
f 128/8/2 124/8/2 129/8/2
f 129/8/2 124/8/2 130/8/2
f 127/8/2 129/8/2 131/8/2
f 131/8/2 129/8/2 132/8/2
f 130/8/2 124/8/2 133/8/2
f 124/8/2 122/8/2 134/8/2
f 133/8/2 124/8/2 134/8/2
f 135/12/2 136/12/2 137/12/2
f 137/12/2 136/12/2 138/12/2
f 138/12/2 139/12/2 141/12/2
f 141/12/2 139/12/2 142/12/2
f 140/12/2 141/12/2 143/12/2
f 143/12/2 141/12/2 144/12/2
f 145/12/2 146/12/2 147/12/2
f 147/12/2 146/12/2 148/12/2
f 149/12/2 150/12/2 151/12/2
f 149/12/2 151/12/2 153/12/2
f 151/12/2 152/12/2 153/12/2
f 153/12/2 152/12/2 154/12/2
f 149/12/2 153/12/2 155/12/2
f 155/12/2 153/12/2 156/12/2
f 159/11/3 158/11/3 157/11/3
f 160/11/3 158/11/3 159/11/3
f 163/12/3 162/12/3 161/12/3
f 164/12/3 162/12/3 163/12/3
f 165/12/3 163/12/3 161/12/3
f 165/4/3 164/4/3 163/4/3
f 166/12/3 162/12/3 164/12/3
f 166/4/3 164/4/3 165/4/3
f 167/12/3 165/12/3 161/12/3
f 167/12/3 166/12/3 165/12/3
f 168/12/3 162/12/3 166/12/3
f 168/12/3 166/12/3 167/12/3
f 171/11/3 170/11/3 169/11/3
f 172/11/3 170/11/3 171/11/3
f 175/12/3 174/12/3 173/12/3
f 176/12/3 174/12/3 175/12/3
f 185/8/3 179/8/3 178/8/3
f 186/12/3 181/12/3 180/12/3
f 187/8/3 182/8/3 181/8/3
f 187/12/3 181/12/3 186/12/3
f 188/12/3 183/12/3 182/12/3
f 188/8/3 182/8/3 187/8/3
f 189/12/3 183/12/3 188/12/3
f 190/8/3 184/8/3 183/8/3
f 190/12/3 183/12/3 189/12/3
f 191/8/3 184/8/3 190/8/3
f 192/12/3 178/12/3 177/12/3
f 193/8/3 185/8/3 178/8/3
f 193/12/3 178/12/3 192/12/3
f 193/8/3 186/8/3 185/8/3
f 193/8/3 187/8/3 186/8/3
f 193/8/3 188/8/3 187/8/3
f 194/12/3 192/12/3 177/12/3
f 195/8/3 193/8/3 192/8/3
f 195/12/3 192/12/3 194/12/3
f 196/7/3 189/7/3 188/7/3
f 196/8/3 193/8/3 195/8/3
f 196/8/3 188/8/3 193/8/3
f 197/12/3 190/12/3 189/12/3
f 197/7/3 189/7/3 196/7/3
f 198/9/3 191/9/3 190/9/3
f 198/12/3 190/12/3 197/12/3
f 199/8/3 184/8/3 191/8/3
f 199/9/3 191/9/3 198/9/3
f 200/8/3 198/8/3 197/8/3
f 200/8/3 195/8/3 194/8/3
f 200/8/3 199/8/3 198/8/3
f 200/8/3 197/8/3 196/8/3
f 200/8/3 196/8/3 195/8/3
f 201/8/3 199/8/3 200/8/3
f 202/8/3 199/8/3 201/8/3
f 203/8/3 199/8/3 202/8/3
f 204/8/3 200/8/3 194/8/3
f 205/8/3 200/8/3 204/8/3
f 206/12/3 201/12/3 200/12/3
f 206/8/3 200/8/3 205/8/3
f 207/8/3 202/8/3 201/8/3
f 207/12/3 201/12/3 206/12/3
f 208/8/3 202/8/3 207/8/3
f 209/8/3 199/8/3 203/8/3
f 210/8/3 208/8/3 207/8/3
f 210/8/3 209/8/3 208/8/3
f 210/12/3 205/12/3 204/12/3
f 210/8/3 206/8/3 205/8/3
f 210/8/3 207/8/3 206/8/3
f 211/8/3 209/8/3 210/8/3
f 212/8/3 199/8/3 209/8/3
f 212/8/3 209/8/3 211/8/3
f 213/8/3 199/8/3 212/8/3
f 214/8/3 199/8/3 213/8/3
f 215/8/3 184/8/3 199/8/3
f 215/8/3 199/8/3 214/8/3
f 216/8/3 212/8/3 211/8/3
f 217/8/3 212/8/3 216/8/3
f 218/7/3 213/7/3 212/7/3
f 218/8/3 212/8/3 217/8/3
f 219/12/3 214/12/3 213/12/3
f 219/7/3 213/7/3 218/7/3
f 220/9/3 215/9/3 214/9/3
f 220/12/3 214/12/3 219/12/3
f 221/8/3 184/8/3 215/8/3
f 221/9/3 215/9/3 220/9/3
f 222/12/3 211/12/3 210/12/3
f 222/12/3 210/12/3 204/12/3
f 223/8/3 216/8/3 211/8/3
f 223/12/3 211/12/3 222/12/3
f 224/8/3 216/8/3 223/8/3
f 225/8/3 218/8/3 217/8/3
f 226/12/3 220/12/3 219/12/3
f 226/8/3 218/8/3 225/8/3
f 226/12/3 219/12/3 218/12/3
f 227/8/3 221/8/3 220/8/3
f 227/12/3 220/12/3 226/12/3
f 228/8/3 184/8/3 221/8/3
f 228/8/3 221/8/3 227/8/3
f 231/12/3 230/12/3 229/12/3
f 232/12/3 230/12/3 231/12/3
f 235/12/3 230/12/3 232/12/3
f 236/12/3 230/12/3 235/12/3
f 237/12/3 234/12/3 233/12/3
f 238/12/3 234/12/3 237/12/3
f 242/12/3 240/12/3 239/12/3
f 243/12/3 242/12/3 241/12/3
f 244/12/3 240/12/3 242/12/3
f 244/12/3 242/12/3 243/12/3
f 247/12/3 246/12/3 245/12/3
f 248/12/3 246/12/3 247/12/3
f 251/12/3 250/12/3 249/12/3
f 252/12/3 250/12/3 251/12/3
f 255/12/3 254/12/3 253/12/3
f 256/12/3 254/12/3 255/12/3
f 257/12/4 258/12/4 261/12/4
f 261/12/4 258/12/4 262/12/4
f 259/12/4 260/12/4 263/12/4
f 263/12/4 260/12/4 264/12/4
f 265/12/4 266/12/4 269/12/4
f 269/12/4 266/12/4 270/12/4
f 267/12/4 268/12/4 271/12/4
f 271/12/4 268/12/4 272/12/4
f 273/12/4 274/12/4 276/12/4
f 276/12/4 274/12/4 277/12/4
f 275/12/4 276/12/4 279/12/4
f 279/12/4 276/12/4 280/12/4
f 277/12/4 278/12/4 281/12/4
f 281/12/4 278/12/4 282/12/4
f 280/12/4 281/12/4 283/12/4
f 283/12/4 281/12/4 284/12/4
f 285/11/4 286/11/4 287/11/4
f 287/11/4 286/11/4 288/11/4
f 289/12/4 290/12/4 291/12/4
f 291/12/4 290/12/4 292/12/4
f 293/12/4 294/12/4 295/12/4
f 295/12/4 294/12/4 296/12/4
f 297/12/4 298/12/4 299/12/4
f 299/12/4 298/12/4 300/12/4
f 300/12/4 298/12/4 301/12/4
f 301/12/4 298/12/4 302/12/4
f 303/12/4 304/12/4 306/12/4
f 305/12/4 306/12/4 307/12/4
f 306/12/4 304/12/4 308/12/4
f 307/12/4 306/12/4 308/12/4
f 309/12/4 310/12/4 311/12/4
f 311/12/4 310/12/4 312/12/4
f 313/12/4 314/12/4 315/12/4
f 315/12/4 314/12/4 316/12/4
f 317/12/4 318/12/4 320/12/4
f 318/8/4 319/8/4 321/8/4
f 320/12/4 318/12/4 321/12/4
f 317/12/4 320/12/4 322/12/4
f 320/8/4 321/8/4 323/8/4
f 322/12/4 320/12/4 323/12/4
f 317/12/4 322/12/4 324/12/4
f 322/8/4 323/8/4 325/8/4
f 324/12/4 322/12/4 325/12/4
f 324/8/4 325/8/4 326/8/4
f 325/8/4 323/8/4 327/8/4
f 326/8/4 325/8/4 327/8/4
f 326/12/4 327/12/4 328/12/4
f 327/8/4 323/8/4 328/8/4
f 323/8/4 321/8/4 329/8/4
f 328/8/4 323/8/4 329/8/4
f 328/12/4 329/12/4 330/12/4
f 329/8/4 321/8/4 330/8/4
f 321/8/4 319/8/4 331/8/4
f 330/8/4 321/8/4 331/8/4
f 328/12/4 330/12/4 332/12/4
f 326/12/4 328/12/4 332/12/4
f 330/12/4 331/12/4 332/12/4
f 331/8/4 319/8/4 333/8/4
f 332/12/4 331/12/4 333/12/4
f 333/8/4 319/8/4 334/8/4
f 339/12/5 336/12/5 335/12/5
f 340/12/5 336/12/5 339/12/5
f 341/12/5 338/12/5 337/12/5
f 342/12/5 338/12/5 341/12/5
f 347/12/5 344/12/5 343/12/5
f 347/8/5 345/8/5 344/8/5
f 348/8/5 345/8/5 347/8/5
f 349/8/5 345/8/5 348/8/5
f 350/12/5 346/12/5 345/12/5
f 350/8/5 345/8/5 349/8/5
f 351/12/5 347/12/5 343/12/5
f 351/12/5 348/12/5 347/12/5
f 352/12/5 348/12/5 351/12/5
f 353/8/5 349/8/5 348/8/5
f 353/12/5 350/12/5 349/12/5
f 354/12/5 346/12/5 350/12/5
f 354/12/5 350/12/5 353/12/5
f 355/12/5 346/12/5 354/12/5
f 356/12/5 346/12/5 355/12/5
f 357/12/5 348/12/5 352/12/5
f 358/8/5 353/8/5 348/8/5
f 358/12/5 348/12/5 357/12/5
f 358/8/5 354/8/5 353/8/5
f 359/12/5 351/12/5 343/12/5
f 360/8/5 358/8/5 357/8/5
f 361/12/5 355/12/5 354/12/5
f 362/12/5 346/12/5 356/12/5
f 363/12/5 361/12/5 354/12/5
f 363/12/5 362/12/5 361/12/5
f 363/8/5 354/8/5 358/8/5
f 363/8/5 358/8/5 360/8/5
f 364/12/5 362/12/5 363/12/5
f 365/12/5 360/12/5 359/12/5
f 365/12/5 359/12/5 343/12/5
f 366/8/5 364/8/5 363/8/5
f 366/12/5 360/12/5 365/12/5
f 366/8/5 363/8/5 360/8/5
f 367/12/5 362/12/5 364/12/5
f 367/8/5 364/8/5 366/8/5
f 368/12/5 346/12/5 362/12/5
f 368/12/5 362/12/5 367/12/5
f 371/12/5 370/12/5 369/12/5
f 372/12/5 370/12/5 371/12/5
f 373/12/5 370/12/5 372/12/5
f 374/12/5 370/12/5 373/12/5
f 375/12/5 373/12/5 372/12/5
f 376/12/5 373/12/5 375/12/5
f 381/12/5 378/12/5 377/12/5
f 382/12/5 378/12/5 381/12/5
f 383/12/5 380/12/5 379/12/5
f 384/12/5 380/12/5 383/12/5
f 387/11/5 386/11/5 385/11/5
f 388/11/5 386/11/5 387/11/5
f 389/12/5 388/12/5 387/12/5
f 390/12/5 388/12/5 389/12/5
f 391/12/5 388/12/5 390/12/5
f 392/12/5 383/12/5 382/12/5
f 393/12/5 383/12/5 392/12/5
f 394/12/5 383/12/5 393/12/5
f 397/11/5 396/11/5 395/11/5
f 398/11/5 396/11/5 397/11/5
f 401/12/5 400/12/5 399/12/5
f 402/12/5 400/12/5 401/12/5
f 403/8/5 402/8/5 401/8/5
f 404/8/5 402/8/5 403/8/5
f 409/12/5 406/12/5 405/12/5
f 410/12/5 406/12/5 409/12/5
f 411/12/5 408/12/5 407/12/5
f 412/12/5 408/12/5 411/12/5
f 413/12/6 414/12/6 417/12/6
f 417/12/6 414/12/6 418/12/6
f 415/12/6 416/12/6 419/12/6
f 419/12/6 416/12/6 420/12/6
f 421/12/6 422/12/6 425/12/6
f 425/12/6 422/12/6 426/12/6
f 423/12/6 424/12/6 427/12/6
f 427/12/6 424/12/6 428/12/6
f 429/12/6 430/12/6 431/12/6
f 431/12/6 430/12/6 432/12/6
f 432/12/6 430/12/6 433/12/6
f 426/12/6 427/12/6 434/12/6
f 434/12/6 427/12/6 435/12/6
f 435/12/6 427/12/6 436/12/6
f 437/12/6 438/12/6 439/12/6
f 439/12/6 438/12/6 440/12/6
f 440/12/6 438/12/6 441/12/6
f 441/12/6 438/12/6 442/12/6
f 440/12/6 441/12/6 443/12/6
f 443/12/6 441/12/6 444/12/6
f 445/11/6 446/11/6 447/11/6
f 447/11/6 446/11/6 448/11/6
f 449/12/6 450/12/6 451/12/6
f 451/12/6 450/12/6 452/12/6
f 451/8/6 452/8/6 453/8/6
f 453/8/6 452/8/6 454/8/6
f 455/8/6 456/8/6 457/8/6
f 457/8/6 456/8/6 458/8/6
f 458/8/6 456/8/6 459/8/6
f 459/8/6 456/8/6 460/8/6
f 458/8/6 459/8/6 462/8/6
f 462/8/6 459/8/6 463/8/6
f 461/8/6 462/8/6 465/8/6
f 463/8/6 464/8/6 465/8/6
f 462/8/6 463/8/6 465/8/6
f 465/8/6 464/8/6 466/8/6
f 467/12/6 468/12/6 471/12/6
f 471/12/6 468/12/6 472/12/6
f 469/12/6 470/12/6 473/12/6
f 473/12/6 470/12/6 474/12/6
