# MagicaVoxel @ Ephtracy

# group
g map-29

# material
mtllib map-29.mtl
usemtl palette

# normals
vn -1 0 0
vn 1 0 0
vn 0 0 1
vn 0 0 -1
vn 0 -1 0
vn 0 1 0

# texcoords
vt 0.0566406 0.5
vt 0.771484 0.5
vt 0.916016 0.5
vt 0.958984 0.5

# verts
v -11 14 0.5
v -11 14 -0.5
v -11 15 0.5
v -11 15 -0.5
v -11 16 0.5
v -11 16 -0.5
v -11 17 0.5
v -11 17 -0.5
v -11 18 0.5
v -11 18 -0.5
v -11 19 0.5
v -11 19 -0.5
v -11 20 0.5
v -11 20 -0.5
v -11 21 0.5
v -11 21 -0.5
v -11 22 0.5
v -11 22 -0.5
v -11 23 0.5
v -11 23 -0.5
v -11 24 0.5
v -11 24 -0.5
v -11 25 0.5
v -11 25 -0.5
v -11 26 0.5
v -11 26 -0.5
v -11 27 0.5
v -11 27 -0.5
v 11 14 0.5
v 11 14 -0.5
v 11 15 0.5
v 11 15 -0.5
v 11 16 0.5
v 11 16 -0.5
v 11 17 0.5
v 11 17 -0.5
v 11 18 0.5
v 11 18 -0.5
v 11 19 0.5
v 11 19 -0.5
v 11 20 0.5
v 11 20 -0.5
v 11 27 0.5
v 11 27 -0.5
v -11 14 0.5
v -11 15 0.5
v -11 16 0.5
v -11 17 0.5
v -11 18 0.5
v -11 19 0.5
v -11 20 0.5
v -11 21 0.5
v -11 22 0.5
v -11 23 0.5
v -11 24 0.5
v -11 25 0.5
v -11 26 0.5
v -11 27 0.5
v 2 20 0.5
v 2 21 0.5
v 2 22 0.5
v 2 23 0.5
v 2 24 0.5
v 2 25 0.5
v 2 26 0.5
v 2 27 0.5
v 3 21 0.5
v 3 22 0.5
v 3 25 0.5
v 3 26 0.5
v 4 21 0.5
v 4 22 0.5
v 4 23 0.5
v 4 24 0.5
v 4 25 0.5
v 4 26 0.5
v 5 21 0.5
v 5 22 0.5
v 5 23 0.5
v 5 24 0.5
v 5 25 0.5
v 5 26 0.5
v 6 21 0.5
v 6 22 0.5
v 6 23 0.5
v 6 24 0.5
v 6 25 0.5
v 6 26 0.5
v 7 21 0.5
v 7 22 0.5
v 7 23 0.5
v 7 24 0.5
v 7 25 0.5
v 7 26 0.5
v 8 21 0.5
v 8 22 0.5
v 8 23 0.5
v 8 24 0.5
v 8 25 0.5
v 8 26 0.5
v 9 21 0.5
v 9 22 0.5
v 9 23 0.5
v 9 24 0.5
v 9 25 0.5
v 9 26 0.5
v 10 21 0.5
v 10 22 0.5
v 10 25 0.5
v 10 26 0.5
v 11 14 0.5
v 11 15 0.5
v 11 16 0.5
v 11 17 0.5
v 11 18 0.5
v 11 19 0.5
v 11 20 0.5
v 11 27 0.5
v -11 14 -0.5
v -11 15 -0.5
v -11 16 -0.5
v -11 17 -0.5
v -11 18 -0.5
v -11 19 -0.5
v -11 20 -0.5
v -11 21 -0.5
v -11 22 -0.5
v -11 23 -0.5
v -11 24 -0.5
v -11 25 -0.5
v -11 26 -0.5
v -11 27 -0.5
v 2 20 -0.5
v 2 21 -0.5
v 2 22 -0.5
v 2 23 -0.5
v 2 24 -0.5
v 2 25 -0.5
v 2 26 -0.5
v 2 27 -0.5
v 3 21 -0.5
v 3 22 -0.5
v 3 25 -0.5
v 3 26 -0.5
v 4 21 -0.5
v 4 22 -0.5
v 4 23 -0.5
v 4 24 -0.5
v 4 25 -0.5
v 4 26 -0.5
v 5 21 -0.5
v 5 22 -0.5
v 5 23 -0.5
v 5 24 -0.5
v 5 25 -0.5
v 5 26 -0.5
v 6 21 -0.5
v 6 22 -0.5
v 6 23 -0.5
v 6 24 -0.5
v 6 25 -0.5
v 6 26 -0.5
v 7 21 -0.5
v 7 22 -0.5
v 7 23 -0.5
v 7 24 -0.5
v 7 25 -0.5
v 7 26 -0.5
v 8 21 -0.5
v 8 22 -0.5
v 8 23 -0.5
v 8 24 -0.5
v 8 25 -0.5
v 8 26 -0.5
v 9 21 -0.5
v 9 22 -0.5
v 9 23 -0.5
v 9 24 -0.5
v 9 25 -0.5
v 9 26 -0.5
v 10 21 -0.5
v 10 22 -0.5
v 10 25 -0.5
v 10 26 -0.5
v 11 14 -0.5
v 11 15 -0.5
v 11 16 -0.5
v 11 17 -0.5
v 11 18 -0.5
v 11 19 -0.5
v 11 20 -0.5
v 11 27 -0.5
v -11 14 0.5
v 11 14 0.5
v -11 14 -0.5
v 11 14 -0.5
v -11 27 0.5
v 2 27 0.5
v 11 27 0.5
v -11 27 -0.5
v 2 27 -0.5
v 11 27 -0.5

# faces
f 3/1/1 2/1/1 1/1/1
f 4/1/1 2/1/1 3/1/1
f 5/4/1 4/4/1 3/4/1
f 6/4/1 4/4/1 5/4/1
f 7/1/1 6/1/1 5/1/1
f 8/1/1 6/1/1 7/1/1
f 9/4/1 8/4/1 7/4/1
f 10/4/1 8/4/1 9/4/1
f 11/1/1 10/1/1 9/1/1
f 12/1/1 10/1/1 11/1/1
f 13/4/1 12/4/1 11/4/1
f 14/4/1 12/4/1 13/4/1
f 15/1/1 14/1/1 13/1/1
f 16/1/1 14/1/1 15/1/1
f 17/4/1 16/4/1 15/4/1
f 18/4/1 16/4/1 17/4/1
f 19/1/1 18/1/1 17/1/1
f 20/1/1 18/1/1 19/1/1
f 21/4/1 20/4/1 19/4/1
f 22/4/1 20/4/1 21/4/1
f 23/1/1 22/1/1 21/1/1
f 24/1/1 22/1/1 23/1/1
f 25/3/1 24/3/1 23/3/1
f 26/3/1 24/3/1 25/3/1
f 27/1/1 26/1/1 25/1/1
f 28/1/1 26/1/1 27/1/1
f 29/1/2 30/1/2 31/1/2
f 31/1/2 30/1/2 32/1/2
f 31/4/2 32/4/2 33/4/2
f 33/4/2 32/4/2 34/4/2
f 33/1/2 34/1/2 35/1/2
f 35/1/2 34/1/2 36/1/2
f 35/4/2 36/4/2 37/4/2
f 37/4/2 36/4/2 38/4/2
f 37/1/2 38/1/2 39/1/2
f 39/1/2 38/1/2 40/1/2
f 39/4/2 40/4/2 41/4/2
f 41/4/2 40/4/2 42/4/2
f 41/2/2 42/2/2 43/2/2
f 43/2/2 42/2/2 44/2/2
f 59/4/3 51/4/3 50/4/3
f 59/1/3 52/1/3 51/1/3
f 60/4/3 53/4/3 52/4/3
f 60/1/3 52/1/3 59/1/3
f 61/1/3 54/1/3 53/1/3
f 61/4/3 53/4/3 60/4/3
f 62/4/3 55/4/3 54/4/3
f 62/1/3 54/1/3 61/1/3
f 63/1/3 56/1/3 55/1/3
f 63/4/3 55/4/3 62/4/3
f 64/3/3 57/3/3 56/3/3
f 64/1/3 56/1/3 63/1/3
f 65/1/3 58/1/3 57/1/3
f 65/3/3 57/3/3 64/3/3
f 66/1/3 58/1/3 65/1/3
f 67/2/3 64/2/3 63/2/3
f 67/2/3 63/2/3 62/2/3
f 67/2/3 66/2/3 65/2/3
f 67/2/3 65/2/3 64/2/3
f 67/2/3 62/2/3 61/2/3
f 67/2/3 61/2/3 60/2/3
f 67/2/3 60/2/3 59/2/3
f 68/2/3 66/2/3 67/2/3
f 69/2/3 66/2/3 68/2/3
f 70/2/3 66/2/3 69/2/3
f 71/2/3 67/2/3 59/2/3
f 71/4/3 68/4/3 67/4/3
f 72/2/3 69/2/3 68/2/3
f 72/4/3 68/4/3 71/4/3
f 73/2/3 69/2/3 72/2/3
f 74/2/3 69/2/3 73/2/3
f 75/4/3 70/4/3 69/4/3
f 75/2/3 69/2/3 74/2/3
f 76/2/3 66/2/3 70/2/3
f 76/4/3 70/4/3 75/4/3
f 77/2/3 71/2/3 59/2/3
f 77/2/3 72/2/3 71/2/3
f 77/2/3 73/2/3 72/2/3
f 78/2/3 73/2/3 77/2/3
f 79/4/3 74/4/3 73/4/3
f 79/2/3 73/2/3 78/2/3
f 80/2/3 75/2/3 74/2/3
f 80/4/3 74/4/3 79/4/3
f 80/2/3 76/2/3 75/2/3
f 81/2/3 76/2/3 80/2/3
f 82/2/3 66/2/3 76/2/3
f 82/2/3 76/2/3 81/2/3
f 83/4/3 78/4/3 77/4/3
f 83/2/3 77/2/3 59/2/3
f 84/2/3 79/2/3 78/2/3
f 84/4/3 78/4/3 83/4/3
f 84/2/3 81/2/3 80/2/3
f 84/2/3 80/2/3 79/2/3
f 85/2/3 81/2/3 84/2/3
f 86/2/3 81/2/3 85/2/3
f 87/4/3 82/4/3 81/4/3
f 87/2/3 81/2/3 86/2/3
f 88/2/3 66/2/3 82/2/3
f 88/4/3 82/4/3 87/4/3
f 89/2/3 83/2/3 59/2/3
f 89/2/3 84/2/3 83/2/3
f 89/2/3 85/2/3 84/2/3
f 90/2/3 85/2/3 89/2/3
f 91/4/3 86/4/3 85/4/3
f 91/2/3 85/2/3 90/2/3
f 92/2/3 87/2/3 86/2/3
f 92/4/3 86/4/3 91/4/3
f 92/2/3 88/2/3 87/2/3
f 93/2/3 88/2/3 92/2/3
f 94/2/3 66/2/3 88/2/3
f 94/2/3 88/2/3 93/2/3
f 95/4/3 90/4/3 89/4/3
f 95/2/3 89/2/3 59/2/3
f 96/2/3 93/2/3 92/2/3
f 96/4/3 90/4/3 95/4/3
f 96/2/3 91/2/3 90/2/3
f 96/2/3 92/2/3 91/2/3
f 97/2/3 93/2/3 96/2/3
f 98/2/3 93/2/3 97/2/3
f 99/4/3 94/4/3 93/4/3
f 99/2/3 93/2/3 98/2/3
f 100/2/3 66/2/3 94/2/3
f 100/4/3 94/4/3 99/4/3
f 101/2/3 95/2/3 59/2/3
f 101/2/3 96/2/3 95/2/3
f 101/2/3 97/2/3 96/2/3
f 102/2/3 97/2/3 101/2/3
f 103/4/3 98/4/3 97/4/3
f 103/2/3 97/2/3 102/2/3
f 104/2/3 99/2/3 98/2/3
f 104/4/3 98/4/3 103/4/3
f 104/2/3 100/2/3 99/2/3
f 105/2/3 100/2/3 104/2/3
f 106/2/3 66/2/3 100/2/3
f 106/2/3 100/2/3 105/2/3
f 107/4/3 102/4/3 101/4/3
f 107/2/3 101/2/3 59/2/3
f 108/2/3 105/2/3 104/2/3
f 108/4/3 102/4/3 107/4/3
f 108/2/3 103/2/3 102/2/3
f 108/2/3 104/2/3 103/2/3
f 109/4/3 106/4/3 105/4/3
f 109/2/3 105/2/3 108/2/3
f 110/2/3 66/2/3 106/2/3
f 110/4/3 106/4/3 109/4/3
f 111/1/3 46/1/3 45/1/3
f 112/4/3 47/4/3 46/4/3
f 112/1/3 46/1/3 111/1/3
f 113/1/3 48/1/3 47/1/3
f 113/4/3 47/4/3 112/4/3
f 114/4/3 49/4/3 48/4/3
f 114/1/3 48/1/3 113/1/3
f 115/1/3 50/1/3 49/1/3
f 115/4/3 49/4/3 114/4/3
f 116/4/3 59/4/3 50/4/3
f 116/1/3 50/1/3 115/1/3
f 117/2/3 107/2/3 59/2/3
f 117/4/3 59/4/3 116/4/3
f 117/2/3 109/2/3 108/2/3
f 117/2/3 110/2/3 109/2/3
f 117/2/3 108/2/3 107/2/3
f 118/2/3 66/2/3 110/2/3
f 118/2/3 110/2/3 117/2/3
f 124/4/4 125/4/4 133/4/4
f 125/1/4 126/1/4 133/1/4
f 126/4/4 127/4/4 134/4/4
f 133/1/4 126/1/4 134/1/4
f 127/1/4 128/1/4 135/1/4
f 134/4/4 127/4/4 135/4/4
f 128/4/4 129/4/4 136/4/4
f 135/1/4 128/1/4 136/1/4
f 129/1/4 130/1/4 137/1/4
f 136/4/4 129/4/4 137/4/4
f 130/3/4 131/3/4 138/3/4
f 137/1/4 130/1/4 138/1/4
f 131/1/4 132/1/4 139/1/4
f 138/3/4 131/3/4 139/3/4
f 139/1/4 132/1/4 140/1/4
f 137/2/4 138/2/4 141/2/4
f 136/2/4 137/2/4 141/2/4
f 139/2/4 140/2/4 141/2/4
f 138/2/4 139/2/4 141/2/4
f 135/2/4 136/2/4 141/2/4
f 134/2/4 135/2/4 141/2/4
f 133/2/4 134/2/4 141/2/4
f 141/2/4 140/2/4 142/2/4
f 142/2/4 140/2/4 143/2/4
f 143/2/4 140/2/4 144/2/4
f 133/2/4 141/2/4 145/2/4
f 141/4/4 142/4/4 145/4/4
f 142/2/4 143/2/4 146/2/4
f 145/4/4 142/4/4 146/4/4
f 146/2/4 143/2/4 147/2/4
f 147/2/4 143/2/4 148/2/4
f 143/4/4 144/4/4 149/4/4
f 148/2/4 143/2/4 149/2/4
f 144/2/4 140/2/4 150/2/4
f 149/4/4 144/4/4 150/4/4
f 133/2/4 145/2/4 151/2/4
f 145/2/4 146/2/4 151/2/4
f 146/2/4 147/2/4 151/2/4
f 151/2/4 147/2/4 152/2/4
f 147/4/4 148/4/4 153/4/4
f 152/2/4 147/2/4 153/2/4
f 148/2/4 149/2/4 154/2/4
f 153/4/4 148/4/4 154/4/4
f 149/2/4 150/2/4 154/2/4
f 154/2/4 150/2/4 155/2/4
f 150/2/4 140/2/4 156/2/4
f 155/2/4 150/2/4 156/2/4
f 151/4/4 152/4/4 157/4/4
f 133/2/4 151/2/4 157/2/4
f 152/2/4 153/2/4 158/2/4
f 157/4/4 152/4/4 158/4/4
f 154/2/4 155/2/4 158/2/4
f 153/2/4 154/2/4 158/2/4
f 158/2/4 155/2/4 159/2/4
f 159/2/4 155/2/4 160/2/4
f 155/4/4 156/4/4 161/4/4
f 160/2/4 155/2/4 161/2/4
f 156/2/4 140/2/4 162/2/4
f 161/4/4 156/4/4 162/4/4
f 133/2/4 157/2/4 163/2/4
f 157/2/4 158/2/4 163/2/4
f 158/2/4 159/2/4 163/2/4
f 163/2/4 159/2/4 164/2/4
f 159/4/4 160/4/4 165/4/4
f 164/2/4 159/2/4 165/2/4
f 160/2/4 161/2/4 166/2/4
f 165/4/4 160/4/4 166/4/4
f 161/2/4 162/2/4 166/2/4
f 166/2/4 162/2/4 167/2/4
f 162/2/4 140/2/4 168/2/4
f 167/2/4 162/2/4 168/2/4
f 163/4/4 164/4/4 169/4/4
f 133/2/4 163/2/4 169/2/4
f 166/2/4 167/2/4 170/2/4
f 169/4/4 164/4/4 170/4/4
f 164/2/4 165/2/4 170/2/4
f 165/2/4 166/2/4 170/2/4
f 170/2/4 167/2/4 171/2/4
f 171/2/4 167/2/4 172/2/4
f 167/4/4 168/4/4 173/4/4
f 172/2/4 167/2/4 173/2/4
f 168/2/4 140/2/4 174/2/4
f 173/4/4 168/4/4 174/4/4
f 133/2/4 169/2/4 175/2/4
f 169/2/4 170/2/4 175/2/4
f 170/2/4 171/2/4 175/2/4
f 175/2/4 171/2/4 176/2/4
f 171/4/4 172/4/4 177/4/4
f 176/2/4 171/2/4 177/2/4
f 172/2/4 173/2/4 178/2/4
f 177/4/4 172/4/4 178/4/4
f 173/2/4 174/2/4 178/2/4
f 178/2/4 174/2/4 179/2/4
f 174/2/4 140/2/4 180/2/4
f 179/2/4 174/2/4 180/2/4
f 175/4/4 176/4/4 181/4/4
f 133/2/4 175/2/4 181/2/4
f 178/2/4 179/2/4 182/2/4
f 181/4/4 176/4/4 182/4/4
f 176/2/4 177/2/4 182/2/4
f 177/2/4 178/2/4 182/2/4
f 179/4/4 180/4/4 183/4/4
f 182/2/4 179/2/4 183/2/4
f 180/2/4 140/2/4 184/2/4
f 183/4/4 180/4/4 184/4/4
f 119/1/4 120/1/4 185/1/4
f 120/4/4 121/4/4 186/4/4
f 185/1/4 120/1/4 186/1/4
f 121/1/4 122/1/4 187/1/4
f 186/4/4 121/4/4 187/4/4
f 122/4/4 123/4/4 188/4/4
f 187/1/4 122/1/4 188/1/4
f 123/1/4 124/1/4 189/1/4
f 188/4/4 123/4/4 189/4/4
f 124/4/4 133/4/4 190/4/4
f 189/1/4 124/1/4 190/1/4
f 133/2/4 181/2/4 191/2/4
f 190/4/4 133/4/4 191/4/4
f 182/2/4 183/2/4 191/2/4
f 183/2/4 184/2/4 191/2/4
f 181/2/4 182/2/4 191/2/4
f 184/2/4 140/2/4 192/2/4
f 191/2/4 184/2/4 192/2/4
f 195/1/5 194/1/5 193/1/5
f 196/1/5 194/1/5 195/1/5
f 197/1/6 198/1/6 200/1/6
f 198/2/6 199/2/6 201/2/6
f 200/1/6 198/1/6 201/1/6
f 201/2/6 199/2/6 202/2/6
