# MagicaVoxel @ Ephtracy

# group
g map-10

# material
mtllib map-10.mtl
usemtl palette

# normals
vn -1 0 0
vn 1 0 0
vn 0 0 1
vn 0 0 -1
vn 0 -1 0
vn 0 1 0

# texcoords
vt 0.302734 0.5
vt 0.310547 0.5
vt 0.583984 0.5
vt 0.634766 0.5

# verts
v -4 0 2
v -4 0 -2
v -4 8 2
v -4 8 -2
v -4 20 2
v -4 20 -2
v -4 24 2
v -4 24 -2
v -3 0 3
v -3 0 2
v -3 0 -2
v -3 0 -3
v -3 8 3
v -3 8 2
v -3 8 -2
v -3 8 -3
v -3 16 2
v -3 16 -2
v -3 20 3
v -3 20 2
v -3 20 -2
v -3 20 -3
v -3 24 3
v -3 24 2
v -3 24 -2
v -3 24 -3
v -3 26 2
v -3 26 -2
v -2 0 4
v -2 0 3
v -2 0 -3
v -2 0 -4
v -2 8 4
v -2 8 3
v -2 8 -3
v -2 8 -4
v -2 14 1
v -2 14 -1
v -2 16 3
v -2 16 2
v -2 16 1
v -2 16 -1
v -2 16 -2
v -2 16 -3
v -2 20 4
v -2 20 3
v -2 20 2
v -2 20 -2
v -2 20 -3
v -2 20 -4
v -2 24 4
v -2 24 3
v -2 24 2
v -2 24 -2
v -2 24 -3
v -2 24 -4
v -2 26 3
v -2 26 2
v -2 26 1
v -2 26 -1
v -2 26 -2
v -2 26 -3
v -2 27 1
v -2 27 -1
v -1 8 1
v -1 8 -1
v -1 14 2
v -1 14 1
v -1 14 -1
v -1 14 -2
v -1 16 2
v -1 16 1
v -1 16 -1
v -1 16 -2
v -1 26 2
v -1 26 1
v -1 26 -1
v -1 26 -2
v -1 27 2
v -1 27 1
v -1 27 -1
v -1 27 -2
v -1 28 1
v -1 28 -1
v 1 8 1
v 1 8 -1
v 1 14 2
v 1 14 1
v 1 14 -1
v 1 14 -2
v 1 16 2
v 1 16 1
v 1 16 -1
v 1 16 -2
v 1 26 2
v 1 26 1
v 1 26 -1
v 1 26 -2
v 1 27 2
v 1 27 1
v 1 27 -1
v 1 27 -2
v 1 28 1
v 1 28 -1
v 2 0 4
v 2 0 3
v 2 0 -3
v 2 0 -4
v 2 8 4
v 2 8 3
v 2 8 -3
v 2 8 -4
v 2 14 1
v 2 14 -1
v 2 16 3
v 2 16 2
v 2 16 1
v 2 16 -1
v 2 16 -2
v 2 16 -3
v 2 20 4
v 2 20 3
v 2 20 2
v 2 20 -2
v 2 20 -3
v 2 20 -4
v 2 24 4
v 2 24 3
v 2 24 2
v 2 24 -2
v 2 24 -3
v 2 24 -4
v 2 26 3
v 2 26 2
v 2 26 1
v 2 26 -1
v 2 26 -2
v 2 26 -3
v 2 27 1
v 2 27 -1
v 3 0 3
v 3 0 2
v 3 0 -2
v 3 0 -3
v 3 8 3
v 3 8 2
v 3 8 -2
v 3 8 -3
v 3 16 2
v 3 16 -2
v 3 20 3
v 3 20 2
v 3 20 -2
v 3 20 -3
v 3 24 3
v 3 24 2
v 3 24 -2
v 3 24 -3
v 3 26 2
v 3 26 -2
v 4 0 2
v 4 0 -2
v 4 8 2
v 4 8 -2
v 4 20 2
v 4 20 -2
v 4 24 2
v 4 24 -2
v -2 0 4
v -2 8 4
v -2 20 4
v -2 24 4
v 2 0 4
v 2 8 4
v 2 20 4
v 2 24 4
v -3 0 3
v -3 8 3
v -3 20 3
v -3 24 3
v -2 0 3
v -2 8 3
v -2 16 3
v -2 20 3
v -2 24 3
v -2 26 3
v 2 0 3
v 2 8 3
v 2 16 3
v 2 20 3
v 2 24 3
v 2 26 3
v 3 0 3
v 3 8 3
v 3 20 3
v 3 24 3
v -4 0 2
v -4 8 2
v -4 20 2
v -4 24 2
v -3 0 2
v -3 8 2
v -3 16 2
v -3 20 2
v -3 24 2
v -3 26 2
v -2 16 2
v -2 20 2
v -2 24 2
v -2 26 2
v -1 14 2
v -1 16 2
v -1 26 2
v -1 27 2
v 1 14 2
v 1 16 2
v 1 26 2
v 1 27 2
v 2 16 2
v 2 20 2
v 2 24 2
v 2 26 2
v 3 0 2
v 3 8 2
v 3 16 2
v 3 20 2
v 3 24 2
v 3 26 2
v 4 0 2
v 4 8 2
v 4 20 2
v 4 24 2
v -2 14 1
v -2 16 1
v -2 26 1
v -2 27 1
v -1 8 1
v -1 14 1
v -1 16 1
v -1 26 1
v -1 27 1
v -1 28 1
v 1 8 1
v 1 14 1
v 1 16 1
v 1 26 1
v 1 27 1
v 1 28 1
v 2 14 1
v 2 16 1
v 2 26 1
v 2 27 1
v -2 14 -1
v -2 16 -1
v -2 26 -1
v -2 27 -1
v -1 8 -1
v -1 14 -1
v -1 16 -1
v -1 26 -1
v -1 27 -1
v -1 28 -1
v 1 8 -1
v 1 14 -1
v 1 16 -1
v 1 26 -1
v 1 27 -1
v 1 28 -1
v 2 14 -1
v 2 16 -1
v 2 26 -1
v 2 27 -1
v -4 0 -2
v -4 8 -2
v -4 20 -2
v -4 24 -2
v -3 0 -2
v -3 8 -2
v -3 16 -2
v -3 20 -2
v -3 24 -2
v -3 26 -2
v -2 16 -2
v -2 20 -2
v -2 24 -2
v -2 26 -2
v -1 14 -2
v -1 16 -2
v -1 26 -2
v -1 27 -2
v 1 14 -2
v 1 16 -2
v 1 26 -2
v 1 27 -2
v 2 16 -2
v 2 20 -2
v 2 24 -2
v 2 26 -2
v 3 0 -2
v 3 8 -2
v 3 16 -2
v 3 20 -2
v 3 24 -2
v 3 26 -2
v 4 0 -2
v 4 8 -2
v 4 20 -2
v 4 24 -2
v -3 0 -3
v -3 8 -3
v -3 20 -3
v -3 24 -3
v -2 0 -3
v -2 8 -3
v -2 16 -3
v -2 20 -3
v -2 24 -3
v -2 26 -3
v 2 0 -3
v 2 8 -3
v 2 16 -3
v 2 20 -3
v 2 24 -3
v 2 26 -3
v 3 0 -3
v 3 8 -3
v 3 20 -3
v 3 24 -3
v -2 0 -4
v -2 8 -4
v -2 20 -4
v -2 24 -4
v 2 0 -4
v 2 8 -4
v 2 20 -4
v 2 24 -4
v -2 0 4
v 2 0 4
v -3 0 3
v -2 0 3
v 2 0 3
v 3 0 3
v -4 0 2
v -3 0 2
v 3 0 2
v 4 0 2
v -4 0 -2
v -3 0 -2
v 3 0 -2
v 4 0 -2
v -3 0 -3
v -2 0 -3
v 2 0 -3
v 3 0 -3
v -2 0 -4
v 2 0 -4
v -1 14 2
v 1 14 2
v -2 14 1
v -1 14 1
v 1 14 1
v 2 14 1
v -2 14 -1
v -1 14 -1
v 1 14 -1
v 2 14 -1
v -1 14 -2
v 1 14 -2
v -2 16 3
v 2 16 3
v -3 16 2
v -2 16 2
v -1 16 2
v 1 16 2
v 2 16 2
v 3 16 2
v -2 16 1
v -1 16 1
v 1 16 1
v 2 16 1
v -2 16 -1
v -1 16 -1
v 1 16 -1
v 2 16 -1
v -3 16 -2
v -2 16 -2
v -1 16 -2
v 1 16 -2
v 2 16 -2
v 3 16 -2
v -2 16 -3
v 2 16 -3
v -2 20 4
v 2 20 4
v -3 20 3
v -2 20 3
v 2 20 3
v 3 20 3
v -4 20 2
v -3 20 2
v -2 20 2
v 2 20 2
v 3 20 2
v 4 20 2
v -4 20 -2
v -3 20 -2
v -2 20 -2
v 2 20 -2
v 3 20 -2
v 4 20 -2
v -3 20 -3
v -2 20 -3
v 2 20 -3
v 3 20 -3
v -2 20 -4
v 2 20 -4
v -2 8 4
v 2 8 4
v -3 8 3
v -2 8 3
v 2 8 3
v 3 8 3
v -4 8 2
v -3 8 2
v -2 8 2
v 2 8 2
v 3 8 2
v 4 8 2
v -1 8 1
v 1 8 1
v -1 8 -1
v 1 8 -1
v -4 8 -2
v -3 8 -2
v -2 8 -2
v 2 8 -2
v 3 8 -2
v 4 8 -2
v -3 8 -3
v -2 8 -3
v 2 8 -3
v 3 8 -3
v -2 8 -4
v 2 8 -4
v -2 24 4
v 2 24 4
v -3 24 3
v -2 24 3
v 2 24 3
v 3 24 3
v -4 24 2
v -3 24 2
v -2 24 2
v 2 24 2
v 3 24 2
v 4 24 2
v -4 24 -2
v -3 24 -2
v -2 24 -2
v 2 24 -2
v 3 24 -2
v 4 24 -2
v -3 24 -3
v -2 24 -3
v 2 24 -3
v 3 24 -3
v -2 24 -4
v 2 24 -4
v -2 26 3
v 2 26 3
v -3 26 2
v -2 26 2
v -1 26 2
v 1 26 2
v 2 26 2
v 3 26 2
v -2 26 1
v -1 26 1
v 1 26 1
v 2 26 1
v -2 26 -1
v -1 26 -1
v 1 26 -1
v 2 26 -1
v -3 26 -2
v -2 26 -2
v -1 26 -2
v 1 26 -2
v 2 26 -2
v 3 26 -2
v -2 26 -3
v 2 26 -3
v -1 27 2
v 1 27 2
v -2 27 1
v -1 27 1
v 1 27 1
v 2 27 1
v -2 27 -1
v -1 27 -1
v 1 27 -1
v 2 27 -1
v -1 27 -2
v 1 27 -2
v -1 28 1
v 1 28 1
v -1 28 -1
v 1 28 -1

# faces
f 3/4/1 2/4/1 1/4/1
f 4/4/1 2/4/1 3/4/1
f 7/3/1 6/3/1 5/3/1
f 8/3/1 6/3/1 7/3/1
f 13/4/1 10/4/1 9/4/1
f 14/4/1 10/4/1 13/4/1
f 15/4/1 12/4/1 11/4/1
f 16/4/1 12/4/1 15/4/1
f 20/3/1 18/3/1 17/3/1
f 21/3/1 18/3/1 20/3/1
f 23/3/1 20/3/1 19/3/1
f 24/3/1 20/3/1 23/3/1
f 25/3/1 22/3/1 21/3/1
f 26/3/1 22/3/1 25/3/1
f 27/3/1 25/3/1 24/3/1
f 28/3/1 25/3/1 27/3/1
f 33/4/1 30/4/1 29/4/1
f 34/4/1 30/4/1 33/4/1
f 35/4/1 32/4/1 31/4/1
f 36/4/1 32/4/1 35/4/1
f 41/3/1 38/3/1 37/3/1
f 42/3/1 38/3/1 41/3/1
f 46/3/1 40/3/1 39/3/1
f 47/3/1 40/3/1 46/3/1
f 48/3/1 44/3/1 43/3/1
f 49/3/1 44/3/1 48/3/1
f 51/3/1 46/3/1 45/3/1
f 52/3/1 46/3/1 51/3/1
f 55/3/1 50/3/1 49/3/1
f 56/3/1 50/3/1 55/3/1
f 57/3/1 53/3/1 52/3/1
f 58/3/1 53/3/1 57/3/1
f 61/3/1 55/3/1 54/3/1
f 62/3/1 55/3/1 61/3/1
f 63/3/1 60/3/1 59/3/1
f 64/3/1 60/3/1 63/3/1
f 68/1/1 66/1/1 65/1/1
f 69/1/1 66/1/1 68/1/1
f 71/3/1 68/3/1 67/3/1
f 72/3/1 68/3/1 71/3/1
f 73/3/1 70/3/1 69/3/1
f 74/3/1 70/3/1 73/3/1
f 79/3/1 76/3/1 75/3/1
f 80/3/1 76/3/1 79/3/1
f 81/3/1 78/3/1 77/3/1
f 82/3/1 78/3/1 81/3/1
f 83/3/1 81/3/1 80/3/1
f 84/3/1 81/3/1 83/3/1
f 85/1/2 86/1/2 88/1/2
f 88/1/2 86/1/2 89/1/2
f 87/3/2 88/3/2 91/3/2
f 91/3/2 88/3/2 92/3/2
f 89/3/2 90/3/2 93/3/2
f 93/3/2 90/3/2 94/3/2
f 95/3/2 96/3/2 99/3/2
f 99/3/2 96/3/2 100/3/2
f 97/3/2 98/3/2 101/3/2
f 101/3/2 98/3/2 102/3/2
f 100/3/2 101/3/2 103/3/2
f 103/3/2 101/3/2 104/3/2
f 105/4/2 106/4/2 109/4/2
f 109/4/2 106/4/2 110/4/2
f 107/4/2 108/4/2 111/4/2
f 111/4/2 108/4/2 112/4/2
f 113/3/2 114/3/2 117/3/2
f 117/3/2 114/3/2 118/3/2
f 115/3/2 116/3/2 122/3/2
f 122/3/2 116/3/2 123/3/2
f 119/3/2 120/3/2 124/3/2
f 124/3/2 120/3/2 125/3/2
f 121/3/2 122/3/2 127/3/2
f 127/3/2 122/3/2 128/3/2
f 125/3/2 126/3/2 131/3/2
f 131/3/2 126/3/2 132/3/2
f 128/3/2 129/3/2 133/3/2
f 133/3/2 129/3/2 134/3/2
f 130/3/2 131/3/2 137/3/2
f 137/3/2 131/3/2 138/3/2
f 135/3/2 136/3/2 139/3/2
f 139/3/2 136/3/2 140/3/2
f 141/4/2 142/4/2 145/4/2
f 145/4/2 142/4/2 146/4/2
f 143/4/2 144/4/2 147/4/2
f 147/4/2 144/4/2 148/4/2
f 149/3/2 150/3/2 152/3/2
f 152/3/2 150/3/2 153/3/2
f 151/3/2 152/3/2 155/3/2
f 155/3/2 152/3/2 156/3/2
f 153/3/2 154/3/2 157/3/2
f 157/3/2 154/3/2 158/3/2
f 156/3/2 157/3/2 159/3/2
f 159/3/2 157/3/2 160/3/2
f 161/4/2 162/4/2 163/4/2
f 163/4/2 162/4/2 164/4/2
f 165/3/2 166/3/2 167/3/2
f 167/3/2 166/3/2 168/3/2
f 173/4/3 170/4/3 169/4/3
f 174/4/3 170/4/3 173/4/3
f 175/3/3 172/3/3 171/3/3
f 176/3/3 172/3/3 175/3/3
f 181/4/3 178/4/3 177/4/3
f 182/4/3 178/4/3 181/4/3
f 184/3/3 180/3/3 179/3/3
f 185/3/3 180/3/3 184/3/3
f 189/3/3 184/3/3 183/3/3
f 190/3/3 184/3/3 189/3/3
f 191/3/3 186/3/3 185/3/3
f 192/3/3 186/3/3 191/3/3
f 193/4/3 188/4/3 187/4/3
f 194/4/3 188/4/3 193/4/3
f 195/3/3 191/3/3 190/3/3
f 196/3/3 191/3/3 195/3/3
f 201/4/3 198/4/3 197/4/3
f 202/4/3 198/4/3 201/4/3
f 204/3/3 200/3/3 199/3/3
f 205/3/3 200/3/3 204/3/3
f 207/3/3 204/3/3 203/3/3
f 208/3/3 204/3/3 207/3/3
f 209/3/3 206/3/3 205/3/3
f 210/3/3 206/3/3 209/3/3
f 215/3/3 212/3/3 211/3/3
f 216/3/3 212/3/3 215/3/3
f 217/3/3 214/3/3 213/3/3
f 218/3/3 214/3/3 217/3/3
f 225/3/3 220/3/3 219/3/3
f 226/3/3 220/3/3 225/3/3
f 227/3/3 222/3/3 221/3/3
f 228/3/3 222/3/3 227/3/3
f 229/4/3 224/4/3 223/4/3
f 230/4/3 224/4/3 229/4/3
f 231/3/3 227/3/3 226/3/3
f 232/3/3 227/3/3 231/3/3
f 238/3/3 234/3/3 233/3/3
f 239/3/3 234/3/3 238/3/3
f 240/3/3 236/3/3 235/3/3
f 241/3/3 236/3/3 240/3/3
f 243/1/3 238/1/3 237/1/3
f 244/1/3 238/1/3 243/1/3
f 247/3/3 242/3/3 241/3/3
f 248/3/3 242/3/3 247/3/3
f 249/3/3 245/3/3 244/3/3
f 250/3/3 245/3/3 249/3/3
f 251/3/3 247/3/3 246/3/3
f 252/3/3 247/3/3 251/3/3
f 253/3/4 254/3/4 258/3/4
f 258/3/4 254/3/4 259/3/4
f 255/3/4 256/3/4 260/3/4
f 260/3/4 256/3/4 261/3/4
f 257/1/4 258/1/4 263/1/4
f 263/1/4 258/1/4 264/1/4
f 261/3/4 262/3/4 267/3/4
f 267/3/4 262/3/4 268/3/4
f 264/3/4 265/3/4 269/3/4
f 269/3/4 265/3/4 270/3/4
f 266/3/4 267/3/4 271/3/4
f 271/3/4 267/3/4 272/3/4
f 273/4/4 274/4/4 277/4/4
f 277/4/4 274/4/4 278/4/4
f 275/3/4 276/3/4 280/3/4
f 280/3/4 276/3/4 281/3/4
f 279/3/4 280/3/4 283/3/4
f 283/3/4 280/3/4 284/3/4
f 281/3/4 282/3/4 285/3/4
f 285/3/4 282/3/4 286/3/4
f 287/3/4 288/3/4 291/3/4
f 291/3/4 288/3/4 292/3/4
f 289/3/4 290/3/4 293/3/4
f 293/3/4 290/3/4 294/3/4
f 295/3/4 296/3/4 301/3/4
f 301/3/4 296/3/4 302/3/4
f 297/3/4 298/3/4 303/3/4
f 303/3/4 298/3/4 304/3/4
f 299/4/4 300/4/4 305/4/4
f 305/4/4 300/4/4 306/4/4
f 302/3/4 303/3/4 307/3/4
f 307/3/4 303/3/4 308/3/4
f 309/4/4 310/4/4 313/4/4
f 313/4/4 310/4/4 314/4/4
f 311/3/4 312/3/4 316/3/4
f 316/3/4 312/3/4 317/3/4
f 315/3/4 316/3/4 321/3/4
f 321/3/4 316/3/4 322/3/4
f 317/3/4 318/3/4 323/3/4
f 323/3/4 318/3/4 324/3/4
f 319/4/4 320/4/4 325/4/4
f 325/4/4 320/4/4 326/4/4
f 322/3/4 323/3/4 327/3/4
f 327/3/4 323/3/4 328/3/4
f 329/4/4 330/4/4 333/4/4
f 333/4/4 330/4/4 334/4/4
f 331/3/4 332/3/4 335/3/4
f 335/3/4 332/3/4 336/3/4
f 340/4/5 338/4/5 337/4/5
f 341/4/5 338/4/5 340/4/5
f 344/4/5 340/4/5 339/4/5
f 344/4/5 342/4/5 341/4/5
f 344/4/5 341/4/5 340/4/5
f 345/4/5 342/4/5 344/4/5
f 347/4/5 344/4/5 343/4/5
f 347/4/5 346/4/5 345/4/5
f 347/4/5 345/4/5 344/4/5
f 348/4/5 346/4/5 347/4/5
f 349/4/5 346/4/5 348/4/5
f 350/4/5 346/4/5 349/4/5
f 351/4/5 349/4/5 348/4/5
f 352/4/5 349/4/5 351/4/5
f 353/4/5 349/4/5 352/4/5
f 354/4/5 349/4/5 353/4/5
f 355/4/5 353/4/5 352/4/5
f 356/4/5 353/4/5 355/4/5
f 360/3/5 358/3/5 357/3/5
f 361/3/5 358/3/5 360/3/5
f 363/3/5 360/3/5 359/3/5
f 364/3/5 360/3/5 363/3/5
f 365/3/5 362/3/5 361/3/5
f 366/3/5 362/3/5 365/3/5
f 367/3/5 365/3/5 364/3/5
f 368/3/5 365/3/5 367/3/5
f 372/3/5 370/3/5 369/3/5
f 373/3/5 370/3/5 372/3/5
f 374/3/5 370/3/5 373/3/5
f 375/3/5 370/3/5 374/3/5
f 377/3/5 372/3/5 371/3/5
f 377/3/5 373/3/5 372/3/5
f 378/3/5 373/3/5 377/3/5
f 379/3/5 376/3/5 375/3/5
f 379/3/5 375/3/5 374/3/5
f 380/3/5 376/3/5 379/3/5
f 381/3/5 377/3/5 371/3/5
f 384/3/5 376/3/5 380/3/5
f 385/3/5 382/3/5 381/3/5
f 385/3/5 381/3/5 371/3/5
f 386/3/5 382/3/5 385/3/5
f 387/3/5 382/3/5 386/3/5
f 388/3/5 384/3/5 383/3/5
f 389/3/5 376/3/5 384/3/5
f 389/3/5 384/3/5 388/3/5
f 390/3/5 376/3/5 389/3/5
f 391/3/5 387/3/5 386/3/5
f 391/3/5 388/3/5 387/3/5
f 391/3/5 389/3/5 388/3/5
f 392/3/5 389/3/5 391/3/5
f 396/3/5 394/3/5 393/3/5
f 397/3/5 394/3/5 396/3/5
f 400/3/5 396/3/5 395/3/5
f 401/3/5 396/3/5 400/3/5
f 402/3/5 398/3/5 397/3/5
f 403/3/5 398/3/5 402/3/5
f 405/3/5 400/3/5 399/3/5
f 406/3/5 400/3/5 405/3/5
f 409/3/5 404/3/5 403/3/5
f 410/3/5 404/3/5 409/3/5
f 411/3/5 407/3/5 406/3/5
f 412/3/5 407/3/5 411/3/5
f 413/3/5 409/3/5 408/3/5
f 414/3/5 409/3/5 413/3/5
f 415/3/5 413/3/5 412/3/5
f 416/3/5 413/3/5 415/3/5
f 417/4/6 418/4/6 420/4/6
f 420/4/6 418/4/6 421/4/6
f 419/4/6 420/4/6 424/4/6
f 420/2/6 421/2/6 425/2/6
f 424/4/6 420/4/6 425/4/6
f 421/4/6 422/4/6 426/4/6
f 425/2/6 421/2/6 426/2/6
f 426/4/6 422/4/6 427/4/6
f 424/2/6 425/2/6 429/2/6
f 425/2/6 426/2/6 429/2/6
f 426/2/6 427/2/6 429/2/6
f 429/2/6 427/2/6 430/2/6
f 424/2/6 429/2/6 431/2/6
f 430/2/6 427/2/6 432/2/6
f 423/4/6 424/4/6 433/4/6
f 431/2/6 432/2/6 434/2/6
f 433/4/6 424/4/6 434/4/6
f 424/2/6 431/2/6 434/2/6
f 434/2/6 432/2/6 435/2/6
f 432/2/6 427/2/6 436/2/6
f 435/2/6 432/2/6 436/2/6
f 427/4/6 428/4/6 437/4/6
f 436/2/6 427/2/6 437/2/6
f 437/4/6 428/4/6 438/4/6
f 434/4/6 435/4/6 439/4/6
f 435/2/6 436/2/6 440/2/6
f 439/4/6 435/4/6 440/4/6
f 436/4/6 437/4/6 441/4/6
f 440/2/6 436/2/6 441/2/6
f 441/4/6 437/4/6 442/4/6
f 440/4/6 441/4/6 443/4/6
f 443/4/6 441/4/6 444/4/6
f 445/3/6 446/3/6 448/3/6
f 448/3/6 446/3/6 449/3/6
f 447/3/6 448/3/6 452/3/6
f 452/3/6 448/3/6 453/3/6
f 449/3/6 450/3/6 454/3/6
f 454/3/6 450/3/6 455/3/6
f 451/3/6 452/3/6 457/3/6
f 457/3/6 452/3/6 458/3/6
f 455/3/6 456/3/6 461/3/6
f 461/3/6 456/3/6 462/3/6
f 458/3/6 459/3/6 463/3/6
f 463/3/6 459/3/6 464/3/6
f 460/3/6 461/3/6 465/3/6
f 465/3/6 461/3/6 466/3/6
f 464/3/6 465/3/6 467/3/6
f 467/3/6 465/3/6 468/3/6
f 469/3/6 470/3/6 472/3/6
f 472/3/6 470/3/6 473/3/6
f 473/3/6 470/3/6 474/3/6
f 474/3/6 470/3/6 475/3/6
f 471/3/6 472/3/6 477/3/6
f 472/3/6 473/3/6 477/3/6
f 477/3/6 473/3/6 478/3/6
f 475/3/6 476/3/6 479/3/6
f 474/3/6 475/3/6 479/3/6
f 479/3/6 476/3/6 480/3/6
f 471/3/6 477/3/6 481/3/6
f 480/3/6 476/3/6 484/3/6
f 481/3/6 482/3/6 485/3/6
f 471/3/6 481/3/6 485/3/6
f 485/3/6 482/3/6 486/3/6
f 486/3/6 482/3/6 487/3/6
f 483/3/6 484/3/6 488/3/6
f 484/3/6 476/3/6 489/3/6
f 488/3/6 484/3/6 489/3/6
f 489/3/6 476/3/6 490/3/6
f 486/3/6 487/3/6 491/3/6
f 487/3/6 488/3/6 491/3/6
f 488/3/6 489/3/6 491/3/6
f 491/3/6 489/3/6 492/3/6
f 493/3/6 494/3/6 496/3/6
f 496/3/6 494/3/6 497/3/6
f 495/3/6 496/3/6 499/3/6
f 499/3/6 496/3/6 500/3/6
f 497/3/6 498/3/6 501/3/6
f 501/3/6 498/3/6 502/3/6
f 500/3/6 501/3/6 503/3/6
f 503/3/6 501/3/6 504/3/6
f 505/3/6 506/3/6 507/3/6
f 507/3/6 506/3/6 508/3/6
