# MagicaVoxel @ Ephtracy

# group
g map-176

# material
mtllib map-176.mtl
usemtl palette

# normals
vn -1 0 0
vn 1 0 0
vn 0 0 1
vn 0 0 -1
vn 0 -1 0
vn 0 1 0

# texcoords
vt 0.0644531 0.5
vt 0.115234 0.5
vt 0.173828 0.5
vt 0.267578 0.5
vt 0.287109 0.5
vt 0.318359 0.5
vt 0.412109 0.5
vt 0.478516 0.5
vt 0.482422 0.5
vt 0.541016 0.5
vt 0.642578 0.5
vt 0.728516 0.5
vt 0.763672 0.5
vt 0.857422 0.5
vt 0.892578 0.5
vt 0.916016 0.5
vt 0.947266 0.5
vt 0.994141 0.5

# verts
v -0.5 19 9
v -0.5 19 8
v -0.5 19 7
v -0.5 19 -9
v -0.5 20 9
v -0.5 20 8
v -0.5 20 7
v -0.5 20 6
v -0.5 20 4
v -0.5 20 2
v -0.5 20 1
v -0.5 20 -0
v -0.5 20 -1
v -0.5 20 -2
v -0.5 20 -5
v -0.5 21 7
v -0.5 21 6
v -0.5 21 4
v -0.5 21 3
v -0.5 21 1
v -0.5 21 -0
v -0.5 21 -6
v -0.5 21 -8
v -0.5 21 -9
v -0.5 22 8
v -0.5 22 7
v -0.5 22 6
v -0.5 22 5
v -0.5 22 4
v -0.5 22 3
v -0.5 22 2
v -0.5 22 1
v -0.5 22 -0
v -0.5 22 -1
v -0.5 22 -2
v -0.5 22 -4
v -0.5 22 -6
v -0.5 22 -7
v -0.5 22 -8
v -0.5 22 -9
v -0.5 23 8
v -0.5 23 7
v -0.5 23 6
v -0.5 23 5
v -0.5 23 4
v -0.5 23 3
v -0.5 23 -0
v -0.5 23 -2
v -0.5 23 -3
v -0.5 23 -6
v -0.5 23 -7
v -0.5 24 7
v -0.5 24 6
v -0.5 24 5
v -0.5 24 4
v -0.5 24 3
v -0.5 24 2
v -0.5 24 1
v -0.5 24 -0
v -0.5 24 -2
v -0.5 24 -3
v -0.5 24 -4
v -0.5 24 -5
v -0.5 24 -6
v -0.5 24 -7
v -0.5 24 -8
v -0.5 24 -9
v -0.5 25 8
v -0.5 25 7
v -0.5 25 6
v -0.5 25 5
v -0.5 25 3
v -0.5 25 2
v -0.5 25 1
v -0.5 25 -2
v -0.5 25 -3
v -0.5 25 -4
v -0.5 25 -5
v -0.5 25 -7
v -0.5 25 -8
v -0.5 25 -9
v -0.5 26 7
v -0.5 26 6
v -0.5 26 2
v -0.5 26 1
v -0.5 26 -3
v -0.5 26 -4
v -0.5 26 -7
v -0.5 26 -8
v -0.5 26 -9
v -0.5 27 9
v -0.5 27 8
v -0.5 27 7
v -0.5 27 6
v -0.5 27 5
v -0.5 27 1
v -0.5 27 -0
v -0.5 28 8
v -0.5 28 7
v -0.5 28 6
v -0.5 28 4
v -0.5 28 2
v -0.5 28 1
v -0.5 28 -0
v -0.5 28 -3
v -0.5 28 -4
v -0.5 28 -6
v -0.5 29 3
v -0.5 29 2
v -0.5 29 1
v -0.5 29 -0
v -0.5 29 -1
v -0.5 29 -2
v -0.5 29 -3
v -0.5 29 -4
v -0.5 29 -5
v -0.5 30 6
v -0.5 30 4
v -0.5 30 3
v -0.5 30 2
v -0.5 30 1
v -0.5 30 -0
v -0.5 30 -1
v -0.5 30 -2
v -0.5 30 -3
v -0.5 30 -4
v -0.5 30 -5
v -0.5 30 -6
v -0.5 31 9
v -0.5 31 -9
v 0.5 19 9
v 0.5 19 8
v 0.5 19 7
v 0.5 19 -9
v 0.5 20 9
v 0.5 20 8
v 0.5 20 7
v 0.5 20 6
v 0.5 20 4
v 0.5 20 2
v 0.5 20 1
v 0.5 20 -0
v 0.5 20 -1
v 0.5 20 -2
v 0.5 20 -5
v 0.5 21 7
v 0.5 21 6
v 0.5 21 4
v 0.5 21 3
v 0.5 21 1
v 0.5 21 -0
v 0.5 21 -6
v 0.5 21 -8
v 0.5 21 -9
v 0.5 22 8
v 0.5 22 7
v 0.5 22 6
v 0.5 22 5
v 0.5 22 4
v 0.5 22 3
v 0.5 22 2
v 0.5 22 1
v 0.5 22 -0
v 0.5 22 -1
v 0.5 22 -2
v 0.5 22 -4
v 0.5 22 -6
v 0.5 22 -7
v 0.5 22 -8
v 0.5 22 -9
v 0.5 23 8
v 0.5 23 7
v 0.5 23 6
v 0.5 23 5
v 0.5 23 4
v 0.5 23 3
v 0.5 23 -0
v 0.5 23 -2
v 0.5 23 -3
v 0.5 23 -6
v 0.5 23 -7
v 0.5 24 7
v 0.5 24 6
v 0.5 24 5
v 0.5 24 4
v 0.5 24 3
v 0.5 24 2
v 0.5 24 1
v 0.5 24 -0
v 0.5 24 -2
v 0.5 24 -3
v 0.5 24 -4
v 0.5 24 -5
v 0.5 24 -6
v 0.5 24 -7
v 0.5 24 -8
v 0.5 24 -9
v 0.5 25 8
v 0.5 25 7
v 0.5 25 6
v 0.5 25 5
v 0.5 25 3
v 0.5 25 2
v 0.5 25 1
v 0.5 25 -2
v 0.5 25 -3
v 0.5 25 -4
v 0.5 25 -5
v 0.5 25 -7
v 0.5 25 -8
v 0.5 25 -9
v 0.5 26 7
v 0.5 26 6
v 0.5 26 2
v 0.5 26 1
v 0.5 26 -3
v 0.5 26 -4
v 0.5 26 -7
v 0.5 26 -8
v 0.5 26 -9
v 0.5 27 9
v 0.5 27 8
v 0.5 27 7
v 0.5 27 6
v 0.5 27 5
v 0.5 27 1
v 0.5 27 -0
v 0.5 28 8
v 0.5 28 7
v 0.5 28 6
v 0.5 28 4
v 0.5 28 2
v 0.5 28 1
v 0.5 28 -0
v 0.5 28 -3
v 0.5 28 -4
v 0.5 28 -6
v 0.5 29 3
v 0.5 29 2
v 0.5 29 1
v 0.5 29 -0
v 0.5 29 -1
v 0.5 29 -2
v 0.5 29 -3
v 0.5 29 -4
v 0.5 29 -5
v 0.5 30 6
v 0.5 30 4
v 0.5 30 3
v 0.5 30 2
v 0.5 30 1
v 0.5 30 -0
v 0.5 30 -1
v 0.5 30 -2
v 0.5 30 -3
v 0.5 30 -4
v 0.5 30 -5
v 0.5 30 -6
v 0.5 31 9
v 0.5 31 -9
v -0.5 19 9
v -0.5 20 9
v -0.5 27 9
v -0.5 31 9
v 0.5 19 9
v 0.5 20 9
v 0.5 27 9
v 0.5 31 9
v -0.5 19 -9
v -0.5 21 -9
v -0.5 22 -9
v -0.5 24 -9
v -0.5 25 -9
v -0.5 26 -9
v -0.5 31 -9
v 0.5 19 -9
v 0.5 21 -9
v 0.5 22 -9
v 0.5 24 -9
v 0.5 25 -9
v 0.5 26 -9
v 0.5 31 -9
v -0.5 19 9
v 0.5 19 9
v -0.5 19 8
v 0.5 19 8
v -0.5 19 7
v 0.5 19 7
v -0.5 19 -9
v 0.5 19 -9
v -0.5 31 9
v 0.5 31 9
v -0.5 31 -9
v 0.5 31 -9

# faces
f 5/13/1 2/13/1 1/13/1
f 6/11/1 3/11/1 2/11/1
f 6/13/1 2/13/1 5/13/1
f 7/13/1 4/13/1 3/13/1
f 7/11/1 3/11/1 6/11/1
f 8/13/1 4/13/1 7/13/1
f 9/13/1 4/13/1 8/13/1
f 10/13/1 4/13/1 9/13/1
f 11/13/1 4/13/1 10/13/1
f 12/13/1 4/13/1 11/13/1
f 13/13/1 4/13/1 12/13/1
f 14/13/1 4/13/1 13/13/1
f 15/13/1 4/13/1 14/13/1
f 16/3/1 7/3/1 6/3/1
f 16/13/1 8/13/1 7/13/1
f 17/3/1 9/3/1 8/3/1
f 17/13/1 8/13/1 16/13/1
f 18/13/1 10/13/1 9/13/1
f 18/3/1 9/3/1 17/3/1
f 19/13/1 10/13/1 18/13/1
f 20/4/1 11/4/1 10/4/1
f 20/13/1 12/13/1 11/13/1
f 21/4/1 13/4/1 12/4/1
f 21/13/1 12/13/1 20/13/1
f 22/13/1 4/13/1 15/13/1
f 23/13/1 4/13/1 22/13/1
f 24/13/1 4/13/1 23/13/1
f 25/11/1 6/11/1 5/11/1
f 25/3/1 16/3/1 6/3/1
f 25/3/1 17/3/1 16/3/1
f 25/3/1 19/3/1 18/3/1
f 25/3/1 18/3/1 17/3/1
f 26/3/1 19/3/1 25/3/1
f 27/3/1 19/3/1 26/3/1
f 28/3/1 19/3/1 27/3/1
f 29/3/1 19/3/1 28/3/1
f 30/13/1 10/13/1 19/13/1
f 30/3/1 19/3/1 29/3/1
f 31/4/1 20/4/1 10/4/1
f 31/13/1 10/13/1 30/13/1
f 31/4/1 21/4/1 20/4/1
f 32/4/1 21/4/1 31/4/1
f 33/4/1 13/4/1 21/4/1
f 33/4/1 21/4/1 32/4/1
f 34/13/1 14/13/1 13/13/1
f 34/4/1 13/4/1 33/4/1
f 35/12/1 15/12/1 14/12/1
f 35/13/1 14/13/1 34/13/1
f 36/12/1 15/12/1 35/12/1
f 37/16/1 23/16/1 22/16/1
f 37/13/1 22/13/1 15/13/1
f 38/16/1 23/16/1 37/16/1
f 39/14/1 24/14/1 23/14/1
f 39/16/1 23/16/1 38/16/1
f 40/14/1 24/14/1 39/14/1
f 41/11/1 25/11/1 5/11/1
f 41/16/1 26/16/1 25/16/1
f 42/13/1 27/13/1 26/13/1
f 42/16/1 26/16/1 41/16/1
f 43/16/1 28/16/1 27/16/1
f 43/13/1 27/13/1 42/13/1
f 44/13/1 29/13/1 28/13/1
f 44/16/1 28/16/1 43/16/1
f 45/16/1 30/16/1 29/16/1
f 45/13/1 29/13/1 44/13/1
f 46/13/1 31/13/1 30/13/1
f 46/16/1 30/16/1 45/16/1
f 47/17/1 34/17/1 33/17/1
f 47/18/1 33/18/1 32/18/1
f 47/17/1 35/17/1 34/17/1
f 48/16/1 36/16/1 35/16/1
f 48/17/1 35/17/1 47/17/1
f 49/16/1 36/16/1 48/16/1
f 50/15/1 38/15/1 37/15/1
f 50/13/1 37/13/1 15/13/1
f 51/10/1 39/10/1 38/10/1
f 51/15/1 38/15/1 50/15/1
f 52/16/1 43/16/1 42/16/1
f 52/3/1 42/3/1 41/3/1
f 53/13/1 44/13/1 43/13/1
f 53/16/1 43/16/1 52/16/1
f 54/16/1 45/16/1 44/16/1
f 54/13/1 44/13/1 53/13/1
f 55/13/1 46/13/1 45/13/1
f 55/16/1 45/16/1 54/16/1
f 56/13/1 31/13/1 46/13/1
f 56/13/1 46/13/1 55/13/1
f 57/9/1 32/9/1 31/9/1
f 57/13/1 31/13/1 56/13/1
f 58/18/1 47/18/1 32/18/1
f 58/9/1 32/9/1 57/9/1
f 59/13/1 49/13/1 48/13/1
f 59/18/1 47/18/1 58/18/1
f 59/13/1 48/13/1 47/13/1
f 60/13/1 49/13/1 59/13/1
f 61/16/1 36/16/1 49/16/1
f 61/13/1 49/13/1 60/13/1
f 62/12/1 15/12/1 36/12/1
f 62/16/1 36/16/1 61/16/1
f 63/13/1 50/13/1 15/13/1
f 63/12/1 15/12/1 62/12/1
f 64/5/1 51/5/1 50/5/1
f 64/13/1 50/13/1 63/13/1
f 65/10/1 39/10/1 51/10/1
f 65/5/1 51/5/1 64/5/1
f 66/1/1 40/1/1 39/1/1
f 66/10/1 39/10/1 65/10/1
f 67/1/1 40/1/1 66/1/1
f 68/3/1 56/3/1 55/3/1
f 68/3/1 55/3/1 54/3/1
f 68/3/1 52/3/1 41/3/1
f 68/3/1 54/3/1 53/3/1
f 68/11/1 41/11/1 5/11/1
f 68/3/1 53/3/1 52/3/1
f 69/3/1 56/3/1 68/3/1
f 70/3/1 56/3/1 69/3/1
f 71/3/1 56/3/1 70/3/1
f 72/13/1 57/13/1 56/13/1
f 72/3/1 56/3/1 71/3/1
f 73/5/1 58/5/1 57/5/1
f 73/13/1 57/13/1 72/13/1
f 74/13/1 60/13/1 59/13/1
f 74/5/1 58/5/1 73/5/1
f 74/13/1 59/13/1 58/13/1
f 75/16/1 61/16/1 60/16/1
f 75/13/1 60/13/1 74/13/1
f 76/7/1 62/7/1 61/7/1
f 76/16/1 61/16/1 75/16/1
f 77/16/1 63/16/1 62/16/1
f 77/7/1 62/7/1 76/7/1
f 78/13/1 64/13/1 63/13/1
f 78/16/1 63/16/1 77/16/1
f 78/13/1 65/13/1 64/13/1
f 79/5/1 67/5/1 66/5/1
f 79/13/1 65/13/1 78/13/1
f 79/5/1 66/5/1 65/5/1
f 80/5/1 67/5/1 79/5/1
f 81/5/1 67/5/1 80/5/1
f 82/8/1 70/8/1 69/8/1
f 82/2/1 69/2/1 68/2/1
f 83/3/1 71/3/1 70/3/1
f 83/8/1 70/8/1 82/8/1
f 84/13/1 73/13/1 72/13/1
f 84/17/1 74/17/1 73/17/1
f 84/13/1 72/13/1 71/13/1
f 85/13/1 76/13/1 75/13/1
f 85/17/1 74/17/1 84/17/1
f 85/13/1 75/13/1 74/13/1
f 86/16/1 77/16/1 76/16/1
f 86/13/1 76/13/1 85/13/1
f 87/13/1 78/13/1 77/13/1
f 87/16/1 77/16/1 86/16/1
f 87/13/1 79/13/1 78/13/1
f 88/6/1 80/6/1 79/6/1
f 88/13/1 79/13/1 87/13/1
f 89/8/1 81/8/1 80/8/1
f 89/6/1 80/6/1 88/6/1
f 90/8/1 81/8/1 89/8/1
f 91/11/1 68/11/1 5/11/1
f 92/2/1 83/2/1 82/2/1
f 92/11/1 68/11/1 91/11/1
f 92/2/1 82/2/1 68/2/1
f 93/2/1 83/2/1 92/2/1
f 94/3/1 71/3/1 83/3/1
f 94/2/1 83/2/1 93/2/1
f 95/13/1 86/13/1 85/13/1
f 95/3/1 71/3/1 94/3/1
f 95/13/1 85/13/1 84/13/1
f 95/13/1 90/13/1 89/13/1
f 95/13/1 89/13/1 88/13/1
f 95/13/1 87/13/1 86/13/1
f 95/13/1 88/13/1 87/13/1
f 95/13/1 84/13/1 71/13/1
f 96/13/1 90/13/1 95/13/1
f 97/13/1 90/13/1 96/13/1
f 98/11/1 93/11/1 92/11/1
f 98/13/1 92/13/1 91/13/1
f 99/3/1 94/3/1 93/3/1
f 99/11/1 93/11/1 98/11/1
f 100/13/1 95/13/1 94/13/1
f 100/3/1 94/3/1 99/3/1
f 100/13/1 96/13/1 95/13/1
f 101/13/1 96/13/1 100/13/1
f 102/13/1 96/13/1 101/13/1
f 103/12/1 97/12/1 96/12/1
f 103/13/1 96/13/1 102/13/1
f 104/13/1 90/13/1 97/13/1
f 104/12/1 97/12/1 103/12/1
f 105/13/1 90/13/1 104/13/1
f 106/13/1 90/13/1 105/13/1
f 107/13/1 90/13/1 106/13/1
f 108/13/1 102/13/1 101/13/1
f 109/12/1 103/12/1 102/12/1
f 109/13/1 102/13/1 108/13/1
f 110/13/1 104/13/1 103/13/1
f 110/12/1 103/12/1 109/12/1
f 111/12/1 105/12/1 104/12/1
f 111/13/1 104/13/1 110/13/1
f 112/12/1 105/12/1 111/12/1
f 113/12/1 105/12/1 112/12/1
f 114/13/1 106/13/1 105/13/1
f 114/12/1 105/12/1 113/12/1
f 115/12/1 107/12/1 106/12/1
f 115/13/1 106/13/1 114/13/1
f 116/12/1 107/12/1 115/12/1
f 117/13/1 99/13/1 98/13/1
f 117/13/1 100/13/1 99/13/1
f 117/3/1 101/3/1 100/3/1
f 118/13/1 108/13/1 101/13/1
f 118/3/1 101/3/1 117/3/1
f 119/12/1 109/12/1 108/12/1
f 119/13/1 108/13/1 118/13/1
f 120/13/1 110/13/1 109/13/1
f 120/12/1 109/12/1 119/12/1
f 121/12/1 111/12/1 110/12/1
f 121/13/1 110/13/1 120/13/1
f 122/13/1 112/13/1 111/13/1
f 122/12/1 111/12/1 121/12/1
f 123/12/1 113/12/1 112/12/1
f 123/13/1 112/13/1 122/13/1
f 124/13/1 114/13/1 113/13/1
f 124/12/1 113/12/1 123/12/1
f 125/12/1 115/12/1 114/12/1
f 125/13/1 114/13/1 124/13/1
f 126/13/1 116/13/1 115/13/1
f 126/12/1 115/12/1 125/12/1
f 127/12/1 107/12/1 116/12/1
f 127/13/1 116/13/1 126/13/1
f 128/13/1 90/13/1 107/13/1
f 128/12/1 107/12/1 127/12/1
f 129/13/1 98/13/1 91/13/1
f 129/13/1 117/13/1 98/13/1
f 129/13/1 128/13/1 127/13/1
f 129/13/1 121/13/1 120/13/1
f 129/13/1 120/13/1 119/13/1
f 129/13/1 123/13/1 122/13/1
f 129/13/1 122/13/1 121/13/1
f 129/13/1 119/13/1 118/13/1
f 129/13/1 118/13/1 117/13/1
f 129/13/1 124/13/1 123/13/1
f 129/13/1 125/13/1 124/13/1
f 129/13/1 126/13/1 125/13/1
f 129/13/1 127/13/1 126/13/1
f 130/13/1 90/13/1 128/13/1
f 130/13/1 128/13/1 129/13/1
f 131/13/2 132/13/2 135/13/2
f 132/11/2 133/11/2 136/11/2
f 135/13/2 132/13/2 136/13/2
f 133/13/2 134/13/2 137/13/2
f 136/11/2 133/11/2 137/11/2
f 137/13/2 134/13/2 138/13/2
f 138/13/2 134/13/2 139/13/2
f 139/13/2 134/13/2 140/13/2
f 140/13/2 134/13/2 141/13/2
f 141/13/2 134/13/2 142/13/2
f 142/13/2 134/13/2 143/13/2
f 143/13/2 134/13/2 144/13/2
f 144/13/2 134/13/2 145/13/2
f 136/3/2 137/3/2 146/3/2
f 137/13/2 138/13/2 146/13/2
f 138/3/2 139/3/2 147/3/2
f 146/13/2 138/13/2 147/13/2
f 139/13/2 140/13/2 148/13/2
f 147/3/2 139/3/2 148/3/2
f 148/13/2 140/13/2 149/13/2
f 140/4/2 141/4/2 150/4/2
f 141/13/2 142/13/2 150/13/2
f 142/4/2 143/4/2 151/4/2
f 150/13/2 142/13/2 151/13/2
f 145/13/2 134/13/2 152/13/2
f 152/13/2 134/13/2 153/13/2
f 153/13/2 134/13/2 154/13/2
f 135/11/2 136/11/2 155/11/2
f 136/3/2 146/3/2 155/3/2
f 146/3/2 147/3/2 155/3/2
f 148/3/2 149/3/2 155/3/2
f 147/3/2 148/3/2 155/3/2
f 155/3/2 149/3/2 156/3/2
f 156/3/2 149/3/2 157/3/2
f 157/3/2 149/3/2 158/3/2
f 158/3/2 149/3/2 159/3/2
f 149/13/2 140/13/2 160/13/2
f 159/3/2 149/3/2 160/3/2
f 140/4/2 150/4/2 161/4/2
f 160/13/2 140/13/2 161/13/2
f 150/4/2 151/4/2 161/4/2
f 161/4/2 151/4/2 162/4/2
f 151/4/2 143/4/2 163/4/2
f 162/4/2 151/4/2 163/4/2
f 143/13/2 144/13/2 164/13/2
f 163/4/2 143/4/2 164/4/2
f 144/12/2 145/12/2 165/12/2
f 164/13/2 144/13/2 165/13/2
f 165/12/2 145/12/2 166/12/2
f 152/16/2 153/16/2 167/16/2
f 145/13/2 152/13/2 167/13/2
f 167/16/2 153/16/2 168/16/2
f 153/14/2 154/14/2 169/14/2
f 168/16/2 153/16/2 169/16/2
f 169/14/2 154/14/2 170/14/2
f 135/11/2 155/11/2 171/11/2
f 155/16/2 156/16/2 171/16/2
f 156/13/2 157/13/2 172/13/2
f 171/16/2 156/16/2 172/16/2
f 157/16/2 158/16/2 173/16/2
f 172/13/2 157/13/2 173/13/2
f 158/13/2 159/13/2 174/13/2
f 173/16/2 158/16/2 174/16/2
f 159/16/2 160/16/2 175/16/2
f 174/13/2 159/13/2 175/13/2
f 160/13/2 161/13/2 176/13/2
f 175/16/2 160/16/2 176/16/2
f 163/17/2 164/17/2 177/17/2
f 162/18/2 163/18/2 177/18/2
f 164/17/2 165/17/2 177/17/2
f 165/16/2 166/16/2 178/16/2
f 177/17/2 165/17/2 178/17/2
f 178/16/2 166/16/2 179/16/2
f 167/15/2 168/15/2 180/15/2
f 145/13/2 167/13/2 180/13/2
f 168/10/2 169/10/2 181/10/2
f 180/15/2 168/15/2 181/15/2
f 172/16/2 173/16/2 182/16/2
f 171/3/2 172/3/2 182/3/2
f 173/13/2 174/13/2 183/13/2
f 182/16/2 173/16/2 183/16/2
f 174/16/2 175/16/2 184/16/2
f 183/13/2 174/13/2 184/13/2
f 175/13/2 176/13/2 185/13/2
f 184/16/2 175/16/2 185/16/2
f 176/13/2 161/13/2 186/13/2
f 185/13/2 176/13/2 186/13/2
f 161/9/2 162/9/2 187/9/2
f 186/13/2 161/13/2 187/13/2
f 162/18/2 177/18/2 188/18/2
f 187/9/2 162/9/2 188/9/2
f 178/13/2 179/13/2 189/13/2
f 188/18/2 177/18/2 189/18/2
f 177/13/2 178/13/2 189/13/2
f 189/13/2 179/13/2 190/13/2
f 179/16/2 166/16/2 191/16/2
f 190/13/2 179/13/2 191/13/2
f 166/12/2 145/12/2 192/12/2
f 191/16/2 166/16/2 192/16/2
f 145/13/2 180/13/2 193/13/2
f 192/12/2 145/12/2 193/12/2
f 180/5/2 181/5/2 194/5/2
f 193/13/2 180/13/2 194/13/2
f 181/10/2 169/10/2 195/10/2
f 194/5/2 181/5/2 195/5/2
f 169/1/2 170/1/2 196/1/2
f 195/10/2 169/10/2 196/10/2
f 196/1/2 170/1/2 197/1/2
f 185/3/2 186/3/2 198/3/2
f 184/3/2 185/3/2 198/3/2
f 171/3/2 182/3/2 198/3/2
f 183/3/2 184/3/2 198/3/2
f 135/11/2 171/11/2 198/11/2
f 182/3/2 183/3/2 198/3/2
f 198/3/2 186/3/2 199/3/2
f 199/3/2 186/3/2 200/3/2
f 200/3/2 186/3/2 201/3/2
f 186/13/2 187/13/2 202/13/2
f 201/3/2 186/3/2 202/3/2
f 187/5/2 188/5/2 203/5/2
f 202/13/2 187/13/2 203/13/2
f 189/13/2 190/13/2 204/13/2
f 203/5/2 188/5/2 204/5/2
f 188/13/2 189/13/2 204/13/2
f 190/16/2 191/16/2 205/16/2
f 204/13/2 190/13/2 205/13/2
f 191/7/2 192/7/2 206/7/2
f 205/16/2 191/16/2 206/16/2
f 192/16/2 193/16/2 207/16/2
f 206/7/2 192/7/2 207/7/2
f 193/13/2 194/13/2 208/13/2
f 207/16/2 193/16/2 208/16/2
f 194/13/2 195/13/2 208/13/2
f 196/5/2 197/5/2 209/5/2
f 208/13/2 195/13/2 209/13/2
f 195/5/2 196/5/2 209/5/2
f 209/5/2 197/5/2 210/5/2
f 210/5/2 197/5/2 211/5/2
f 199/8/2 200/8/2 212/8/2
f 198/2/2 199/2/2 212/2/2
f 200/3/2 201/3/2 213/3/2
f 212/8/2 200/8/2 213/8/2
f 202/13/2 203/13/2 214/13/2
f 203/17/2 204/17/2 214/17/2
f 201/13/2 202/13/2 214/13/2
f 205/13/2 206/13/2 215/13/2
f 214/17/2 204/17/2 215/17/2
f 204/13/2 205/13/2 215/13/2
f 206/16/2 207/16/2 216/16/2
f 215/13/2 206/13/2 216/13/2
f 207/13/2 208/13/2 217/13/2
f 216/16/2 207/16/2 217/16/2
f 208/13/2 209/13/2 217/13/2
f 209/6/2 210/6/2 218/6/2
f 217/13/2 209/13/2 218/13/2
f 210/8/2 211/8/2 219/8/2
f 218/6/2 210/6/2 219/6/2
f 219/8/2 211/8/2 220/8/2
f 135/11/2 198/11/2 221/11/2
f 212/2/2 213/2/2 222/2/2
f 221/11/2 198/11/2 222/11/2
f 198/2/2 212/2/2 222/2/2
f 222/2/2 213/2/2 223/2/2
f 213/3/2 201/3/2 224/3/2
f 223/2/2 213/2/2 224/2/2
f 215/13/2 216/13/2 225/13/2
f 224/3/2 201/3/2 225/3/2
f 214/13/2 215/13/2 225/13/2
f 219/13/2 220/13/2 225/13/2
f 218/13/2 219/13/2 225/13/2
f 216/13/2 217/13/2 225/13/2
f 217/13/2 218/13/2 225/13/2
f 201/13/2 214/13/2 225/13/2
f 225/13/2 220/13/2 226/13/2
f 226/13/2 220/13/2 227/13/2
f 222/11/2 223/11/2 228/11/2
f 221/13/2 222/13/2 228/13/2
f 223/3/2 224/3/2 229/3/2
f 228/11/2 223/11/2 229/11/2
f 224/13/2 225/13/2 230/13/2
f 229/3/2 224/3/2 230/3/2
f 225/13/2 226/13/2 230/13/2
f 230/13/2 226/13/2 231/13/2
f 231/13/2 226/13/2 232/13/2
f 226/12/2 227/12/2 233/12/2
f 232/13/2 226/13/2 233/13/2
f 227/13/2 220/13/2 234/13/2
f 233/12/2 227/12/2 234/12/2
f 234/13/2 220/13/2 235/13/2
f 235/13/2 220/13/2 236/13/2
f 236/13/2 220/13/2 237/13/2
f 231/13/2 232/13/2 238/13/2
f 232/12/2 233/12/2 239/12/2
f 238/13/2 232/13/2 239/13/2
f 233/13/2 234/13/2 240/13/2
f 239/12/2 233/12/2 240/12/2
f 234/12/2 235/12/2 241/12/2
f 240/13/2 234/13/2 241/13/2
f 241/12/2 235/12/2 242/12/2
f 242/12/2 235/12/2 243/12/2
f 235/13/2 236/13/2 244/13/2
f 243/12/2 235/12/2 244/12/2
f 236/12/2 237/12/2 245/12/2
f 244/13/2 236/13/2 245/13/2
f 245/12/2 237/12/2 246/12/2
f 228/13/2 229/13/2 247/13/2
f 229/13/2 230/13/2 247/13/2
f 230/3/2 231/3/2 247/3/2
f 231/13/2 238/13/2 248/13/2
f 247/3/2 231/3/2 248/3/2
f 238/12/2 239/12/2 249/12/2
f 248/13/2 238/13/2 249/13/2
f 239/13/2 240/13/2 250/13/2
f 249/12/2 239/12/2 250/12/2
f 240/12/2 241/12/2 251/12/2
f 250/13/2 240/13/2 251/13/2
f 241/13/2 242/13/2 252/13/2
f 251/12/2 241/12/2 252/12/2
f 242/12/2 243/12/2 253/12/2
f 252/13/2 242/13/2 253/13/2
f 243/13/2 244/13/2 254/13/2
f 253/12/2 243/12/2 254/12/2
f 244/12/2 245/12/2 255/12/2
f 254/13/2 244/13/2 255/13/2
f 245/13/2 246/13/2 256/13/2
f 255/12/2 245/12/2 256/12/2
f 246/12/2 237/12/2 257/12/2
f 256/13/2 246/13/2 257/13/2
f 237/13/2 220/13/2 258/13/2
f 257/12/2 237/12/2 258/12/2
f 221/13/2 228/13/2 259/13/2
f 228/13/2 247/13/2 259/13/2
f 257/13/2 258/13/2 259/13/2
f 250/13/2 251/13/2 259/13/2
f 249/13/2 250/13/2 259/13/2
f 252/13/2 253/13/2 259/13/2
f 251/13/2 252/13/2 259/13/2
f 248/13/2 249/13/2 259/13/2
f 247/13/2 248/13/2 259/13/2
f 253/13/2 254/13/2 259/13/2
f 254/13/2 255/13/2 259/13/2
f 255/13/2 256/13/2 259/13/2
f 256/13/2 257/13/2 259/13/2
f 258/13/2 220/13/2 260/13/2
f 259/13/2 258/13/2 260/13/2
f 265/13/3 262/13/3 261/13/3
f 266/11/3 263/11/3 262/11/3
f 266/13/3 262/13/3 265/13/3
f 267/13/3 264/13/3 263/13/3
f 267/11/3 263/11/3 266/11/3
f 268/13/3 264/13/3 267/13/3
f 269/13/4 270/13/4 276/13/4
f 270/14/4 271/14/4 277/14/4
f 276/13/4 270/13/4 277/13/4
f 271/1/4 272/1/4 278/1/4
f 277/14/4 271/14/4 278/14/4
f 272/5/4 273/5/4 279/5/4
f 278/1/4 272/1/4 279/1/4
f 273/8/4 274/8/4 280/8/4
f 279/5/4 273/5/4 280/5/4
f 274/13/4 275/13/4 281/13/4
f 280/8/4 274/8/4 281/8/4
f 281/13/4 275/13/4 282/13/4
f 285/13/5 284/13/5 283/13/5
f 286/13/5 284/13/5 285/13/5
f 287/11/5 286/11/5 285/11/5
f 288/11/5 286/11/5 287/11/5
f 289/13/5 288/13/5 287/13/5
f 290/13/5 288/13/5 289/13/5
f 291/13/6 292/13/6 293/13/6
f 293/13/6 292/13/6 294/13/6
