# MagicaVoxel @ Ephtracy

# group
g map-169

# material
mtllib map-169.mtl
usemtl palette

# normals
vn -1 0 0
vn 1 0 0
vn 0 0 1
vn 0 0 -1
vn 0 -1 0
vn 0 1 0

# texcoords
vt 0.310547 0.5
vt 0.326172 0.5
vt 0.353516 0.5
vt 0.412109 0.5
vt 0.451172 0.5
vt 0.705078 0.5
vt 0.720703 0.5
vt 0.775391 0.5
vt 0.912109 0.5
vt 0.916016 0.5
vt 0.958984 0.5
vt 0.962891 0.5
vt 0.986328 0.5
vt 0.994141 0.5

# verts
v -17.5 0 8.5
v -17.5 0 -8.5
v -17.5 8 6.5
v -17.5 8 5.5
v -17.5 8 -5.5
v -17.5 8 -6.5
v -17.5 12 6.5
v -17.5 12 5.5
v -17.5 12 4.5
v -17.5 12 -4.5
v -17.5 12 -5.5
v -17.5 12 -6.5
v -17.5 13 6.5
v -17.5 13 5.5
v -17.5 13 4.5
v -17.5 13 -4.5
v -17.5 13 -5.5
v -17.5 13 -6.5
v -17.5 14 5.5
v -17.5 14 4.5
v -17.5 14 -4.5
v -17.5 14 -5.5
v -17.5 15 8.5
v -17.5 15 6.5
v -17.5 15 4.5
v -17.5 15 -4.5
v -17.5 15 -6.5
v -17.5 15 -8.5
v -15.5 0 8.5
v -15.5 0 6.5
v -15.5 0 -6.5
v -15.5 0 -8.5
v -15.5 2 8.5
v -15.5 2 7.5
v -15.5 2 6.5
v -15.5 2 -6.5
v -15.5 2 -7.5
v -15.5 2 -8.5
v -9.5 8 8.5
v -9.5 8 -8.5
v -9.5 9 8.5
v -9.5 9 -8.5
v 11.5 9 8.5
v 11.5 9 -8.5
v 11.5 11 8.5
v 11.5 11 -8.5
v 16.5 0 8.5
v 16.5 0 7.5
v 16.5 0 -7.5
v 16.5 0 -8.5
v 16.5 2 8.5
v 16.5 2 7.5
v 16.5 2 -7.5
v 16.5 2 -8.5
v -16.5 0 8.5
v -16.5 0 -8.5
v -16.5 2 8.5
v -16.5 2 7.5
v -16.5 2 6.5
v -16.5 2 -7.5
v -16.5 2 -8.5
v -16.5 8 8.5
v -16.5 8 6.5
v -16.5 8 5.5
v -16.5 8 -5.5
v -16.5 8 -6.5
v -16.5 8 -8.5
v -16.5 11 5.5
v -16.5 11 -5.5
v -16.5 12 6.5
v -16.5 12 5.5
v -16.5 12 4.5
v -16.5 12 -4.5
v -16.5 12 -5.5
v -16.5 12 -6.5
v -16.5 13 6.5
v -16.5 13 5.5
v -16.5 13 4.5
v -16.5 13 -4.5
v -16.5 13 -5.5
v -16.5 13 -6.5
v -16.5 14 5.5
v -16.5 14 4.5
v -16.5 14 -4.5
v -16.5 14 -5.5
v -16.5 15 8.5
v -16.5 15 6.5
v -16.5 15 4.5
v -16.5 15 -4.5
v -16.5 15 -6.5
v -16.5 15 -8.5
v -14.5 0 8.5
v -14.5 0 6.5
v -14.5 0 -6.5
v -14.5 0 -8.5
v -14.5 2 8.5
v -14.5 2 7.5
v -14.5 2 6.5
v -14.5 2 -6.5
v -14.5 2 -7.5
v -14.5 2 -8.5
v -10.5 8 5.5
v -10.5 8 -5.5
v -10.5 11 5.5
v -10.5 11 -5.5
v 17.5 0 8.5
v 17.5 0 7.5
v 17.5 0 -7.5
v 17.5 0 -8.5
v 17.5 2 8.5
v 17.5 2 7.5
v 17.5 2 -7.5
v 17.5 2 -8.5
v 17.5 8 7.5
v 17.5 8 -7.5
v 17.5 9 8.5
v 17.5 9 -8.5
v 17.5 11 8.5
v 17.5 11 -8.5
v -17.5 0 8.5
v -17.5 15 8.5
v -16.5 0 8.5
v -16.5 2 8.5
v -16.5 8 8.5
v -16.5 15 8.5
v -15.5 0 8.5
v -15.5 2 8.5
v -14.5 0 8.5
v -14.5 2 8.5
v -9.5 2 8.5
v -9.5 8 8.5
v -9.5 9 8.5
v -6.5 2 8.5
v -6.5 9 8.5
v -4.5 2 8.5
v -4.5 9 8.5
v -2.5 2 8.5
v -2.5 9 8.5
v -0.5 2 8.5
v -0.5 9 8.5
v 1.5 2 8.5
v 1.5 9 8.5
v 3.5 2 8.5
v 3.5 9 8.5
v 5.5 2 8.5
v 5.5 9 8.5
v 7.5 2 8.5
v 7.5 9 8.5
v 9.5 2 8.5
v 9.5 9 8.5
v 11.5 2 8.5
v 11.5 9 8.5
v 11.5 11 8.5
v 13.5 2 8.5
v 13.5 9 8.5
v 15.5 2 8.5
v 15.5 9 8.5
v 16.5 0 8.5
v 16.5 2 8.5
v 17.5 0 8.5
v 17.5 2 8.5
v 17.5 9 8.5
v 17.5 11 8.5
v -17.5 13 5.5
v -17.5 14 5.5
v -16.5 8 5.5
v -16.5 11 5.5
v -16.5 13 5.5
v -16.5 14 5.5
v -15.5 8 5.5
v -15.5 10 5.5
v -11.5 8 5.5
v -11.5 10 5.5
v -10.5 8 5.5
v -10.5 11 5.5
v -17.5 14 4.5
v -17.5 15 4.5
v -16.5 14 4.5
v -16.5 15 4.5
v -17.5 13 -6.5
v -17.5 15 -6.5
v -16.5 13 -6.5
v -16.5 15 -6.5
v -15.5 0 -6.5
v -15.5 2 -6.5
v -14.5 0 -6.5
v -14.5 2 -6.5
v 16.5 0 -7.5
v 16.5 2 -7.5
v 17.5 0 -7.5
v 17.5 2 -7.5
v 16.5 0 7.5
v 16.5 2 7.5
v 17.5 0 7.5
v 17.5 2 7.5
v -17.5 13 6.5
v -17.5 15 6.5
v -16.5 13 6.5
v -16.5 15 6.5
v -15.5 0 6.5
v -15.5 2 6.5
v -14.5 0 6.5
v -14.5 2 6.5
v -17.5 14 -4.5
v -17.5 15 -4.5
v -16.5 14 -4.5
v -16.5 15 -4.5
v -17.5 13 -5.5
v -17.5 14 -5.5
v -16.5 8 -5.5
v -16.5 11 -5.5
v -16.5 13 -5.5
v -16.5 14 -5.5
v -10.5 8 -5.5
v -10.5 11 -5.5
v -17.5 0 -8.5
v -17.5 15 -8.5
v -16.5 0 -8.5
v -16.5 2 -8.5
v -16.5 8 -8.5
v -16.5 15 -8.5
v -15.5 0 -8.5
v -15.5 2 -8.5
v -14.5 0 -8.5
v -14.5 2 -8.5
v -9.5 2 -8.5
v -9.5 8 -8.5
v -9.5 9 -8.5
v -6.5 2 -8.5
v -6.5 9 -8.5
v -4.5 2 -8.5
v -4.5 9 -8.5
v -2.5 2 -8.5
v -2.5 9 -8.5
v -0.5 2 -8.5
v -0.5 9 -8.5
v 1.5 2 -8.5
v 1.5 9 -8.5
v 3.5 2 -8.5
v 3.5 9 -8.5
v 5.5 2 -8.5
v 5.5 9 -8.5
v 7.5 2 -8.5
v 7.5 9 -8.5
v 9.5 2 -8.5
v 9.5 9 -8.5
v 11.5 2 -8.5
v 11.5 9 -8.5
v 11.5 11 -8.5
v 13.5 2 -8.5
v 13.5 9 -8.5
v 15.5 2 -8.5
v 15.5 9 -8.5
v 16.5 0 -8.5
v 16.5 2 -8.5
v 17.5 0 -8.5
v 17.5 2 -8.5
v 17.5 9 -8.5
v 17.5 11 -8.5
v -17.5 0 8.5
v -16.5 0 8.5
v -15.5 0 8.5
v -14.5 0 8.5
v 16.5 0 8.5
v 17.5 0 8.5
v 16.5 0 7.5
v 17.5 0 7.5
v -15.5 0 6.5
v -14.5 0 6.5
v -15.5 0 -6.5
v -14.5 0 -6.5
v 16.5 0 -7.5
v 17.5 0 -7.5
v -17.5 0 -8.5
v -16.5 0 -8.5
v -15.5 0 -8.5
v -14.5 0 -8.5
v 16.5 0 -8.5
v 17.5 0 -8.5
v -16.5 2 8.5
v -15.5 2 8.5
v -14.5 2 8.5
v -9.5 2 8.5
v -6.5 2 8.5
v -4.5 2 8.5
v -2.5 2 8.5
v -0.5 2 8.5
v 1.5 2 8.5
v 3.5 2 8.5
v 5.5 2 8.5
v 7.5 2 8.5
v 9.5 2 8.5
v 11.5 2 8.5
v 13.5 2 8.5
v 15.5 2 8.5
v 16.5 2 8.5
v -16.5 2 7.5
v -15.5 2 7.5
v -14.5 2 7.5
v -9.5 2 7.5
v -6.5 2 7.5
v -4.5 2 7.5
v -2.5 2 7.5
v -0.5 2 7.5
v 1.5 2 7.5
v 3.5 2 7.5
v 5.5 2 7.5
v 7.5 2 7.5
v 9.5 2 7.5
v 11.5 2 7.5
v 13.5 2 7.5
v 15.5 2 7.5
v 16.5 2 7.5
v 17.5 2 7.5
v -16.5 2 6.5
v -15.5 2 6.5
v -14.5 2 6.5
v -15.5 2 -6.5
v -14.5 2 -6.5
v -16.5 2 -7.5
v -15.5 2 -7.5
v -14.5 2 -7.5
v -9.5 2 -7.5
v -6.5 2 -7.5
v -4.5 2 -7.5
v -2.5 2 -7.5
v -0.5 2 -7.5
v 1.5 2 -7.5
v 3.5 2 -7.5
v 5.5 2 -7.5
v 7.5 2 -7.5
v 9.5 2 -7.5
v 11.5 2 -7.5
v 13.5 2 -7.5
v 15.5 2 -7.5
v 16.5 2 -7.5
v 17.5 2 -7.5
v -16.5 2 -8.5
v -15.5 2 -8.5
v -14.5 2 -8.5
v -9.5 2 -8.5
v -6.5 2 -8.5
v -4.5 2 -8.5
v -2.5 2 -8.5
v -0.5 2 -8.5
v 1.5 2 -8.5
v 3.5 2 -8.5
v 5.5 2 -8.5
v 7.5 2 -8.5
v 9.5 2 -8.5
v 11.5 2 -8.5
v 13.5 2 -8.5
v 15.5 2 -8.5
v 16.5 2 -8.5
v -16.5 8 8.5
v -9.5 8 8.5
v -16.5 8 6.5
v -16.5 8 5.5
v -15.5 8 5.5
v -11.5 8 5.5
v -10.5 8 5.5
v -16.5 8 -5.5
v -10.5 8 -5.5
v -16.5 8 -6.5
v -16.5 8 -8.5
v -9.5 8 -8.5
v -9.5 9 8.5
v -6.5 9 8.5
v -4.5 9 8.5
v -2.5 9 8.5
v -0.5 9 8.5
v 1.5 9 8.5
v 3.5 9 8.5
v 5.5 9 8.5
v 7.5 9 8.5
v 9.5 9 8.5
v 11.5 9 8.5
v -9.5 9 -8.5
v -6.5 9 -8.5
v -4.5 9 -8.5
v -2.5 9 -8.5
v -0.5 9 -8.5
v 1.5 9 -8.5
v 3.5 9 -8.5
v 5.5 9 -8.5
v 7.5 9 -8.5
v 9.5 9 -8.5
v 11.5 9 -8.5
v 11.5 11 8.5
v 17.5 11 8.5
v -16.5 11 5.5
v -10.5 11 5.5
v -16.5 11 -5.5
v -10.5 11 -5.5
v 11.5 11 -8.5
v 17.5 11 -8.5
v -17.5 13 6.5
v -16.5 13 6.5
v -17.5 13 5.5
v -16.5 13 5.5
v -17.5 13 -5.5
v -16.5 13 -5.5
v -17.5 13 -6.5
v -16.5 13 -6.5
v -17.5 14 5.5
v -16.5 14 5.5
v -17.5 14 4.5
v -16.5 14 4.5
v -17.5 14 -4.5
v -16.5 14 -4.5
v -17.5 14 -5.5
v -16.5 14 -5.5
v -17.5 15 8.5
v -16.5 15 8.5
v -17.5 15 6.5
v -16.5 15 6.5
v -17.5 15 4.5
v -16.5 15 4.5
v -17.5 15 -4.5
v -16.5 15 -4.5
v -17.5 15 -6.5
v -16.5 15 -6.5
v -17.5 15 -8.5
v -16.5 15 -8.5

# faces
f 3/2/1 2/2/1 1/2/1
f 4/2/1 2/2/1 3/2/1
f 5/2/1 2/2/1 4/2/1
f 6/2/1 2/2/1 5/2/1
f 7/2/1 3/2/1 1/2/1
f 7/3/1 4/3/1 3/3/1
f 8/2/1 5/2/1 4/2/1
f 8/3/1 4/3/1 7/3/1
f 9/2/1 5/2/1 8/2/1
f 10/2/1 5/2/1 9/2/1
f 11/3/1 6/3/1 5/3/1
f 11/2/1 5/2/1 10/2/1
f 12/2/1 2/2/1 6/2/1
f 12/3/1 6/3/1 11/3/1
f 13/2/1 7/2/1 1/2/1
f 13/2/1 8/2/1 7/2/1
f 14/3/1 9/3/1 8/3/1
f 14/2/1 8/2/1 13/2/1
f 15/2/1 10/2/1 9/2/1
f 15/3/1 9/3/1 14/3/1
f 16/3/1 11/3/1 10/3/1
f 16/2/1 10/2/1 15/2/1
f 17/2/1 12/2/1 11/2/1
f 17/3/1 11/3/1 16/3/1
f 18/2/1 2/2/1 12/2/1
f 18/2/1 12/2/1 17/2/1
f 19/2/1 15/2/1 14/2/1
f 20/3/1 16/3/1 15/3/1
f 20/2/1 15/2/1 19/2/1
f 21/2/1 17/2/1 16/2/1
f 21/3/1 16/3/1 20/3/1
f 22/2/1 17/2/1 21/2/1
f 23/2/1 13/2/1 1/2/1
f 24/2/1 13/2/1 23/2/1
f 25/2/1 21/2/1 20/2/1
f 26/2/1 21/2/1 25/2/1
f 27/2/1 2/2/1 18/2/1
f 28/2/1 2/2/1 27/2/1
f 33/14/1 30/14/1 29/14/1
f 34/14/1 30/14/1 33/14/1
f 35/14/1 30/14/1 34/14/1
f 36/14/1 32/14/1 31/14/1
f 37/14/1 32/14/1 36/14/1
f 38/14/1 32/14/1 37/14/1
f 41/13/1 40/13/1 39/13/1
f 42/13/1 40/13/1 41/13/1
f 45/13/1 44/13/1 43/13/1
f 46/13/1 44/13/1 45/13/1
f 51/14/1 48/14/1 47/14/1
f 52/14/1 48/14/1 51/14/1
f 53/14/1 50/14/1 49/14/1
f 54/14/1 50/14/1 53/14/1
f 55/2/2 56/2/2 57/2/2
f 57/2/2 56/2/2 58/2/2
f 58/2/2 56/2/2 59/2/2
f 59/2/2 56/2/2 60/2/2
f 60/2/2 56/2/2 61/2/2
f 63/3/2 64/3/2 68/3/2
f 65/3/2 66/3/2 69/3/2
f 62/2/2 63/2/2 70/2/2
f 63/3/2 68/3/2 70/3/2
f 68/2/2 69/2/2 71/2/2
f 70/3/2 68/3/2 71/3/2
f 71/2/2 69/2/2 72/2/2
f 72/2/2 69/2/2 73/2/2
f 69/3/2 66/3/2 74/3/2
f 73/2/2 69/2/2 74/2/2
f 66/2/2 67/2/2 75/2/2
f 74/3/2 66/3/2 75/3/2
f 62/2/2 70/2/2 76/2/2
f 70/2/2 71/2/2 76/2/2
f 71/3/2 72/3/2 77/3/2
f 76/2/2 71/2/2 77/2/2
f 72/2/2 73/2/2 78/2/2
f 77/3/2 72/3/2 78/3/2
f 73/3/2 74/3/2 79/3/2
f 78/2/2 73/2/2 79/2/2
f 74/2/2 75/2/2 80/2/2
f 79/3/2 74/3/2 80/3/2
f 75/2/2 67/2/2 81/2/2
f 80/2/2 75/2/2 81/2/2
f 77/2/2 78/2/2 82/2/2
f 78/3/2 79/3/2 83/3/2
f 82/2/2 78/2/2 83/2/2
f 79/2/2 80/2/2 84/2/2
f 83/3/2 79/3/2 84/3/2
f 84/2/2 80/2/2 85/2/2
f 62/2/2 76/2/2 86/2/2
f 86/2/2 76/2/2 87/2/2
f 83/2/2 84/2/2 88/2/2
f 88/2/2 84/2/2 89/2/2
f 81/2/2 67/2/2 90/2/2
f 90/2/2 67/2/2 91/2/2
f 92/14/2 93/14/2 96/14/2
f 96/14/2 93/14/2 97/14/2
f 97/14/2 93/14/2 98/14/2
f 94/14/2 95/14/2 99/14/2
f 99/14/2 95/14/2 100/14/2
f 100/14/2 95/14/2 101/14/2
f 102/8/2 103/8/2 104/8/2
f 104/8/2 103/8/2 105/8/2
f 106/14/2 107/14/2 110/14/2
f 110/14/2 107/14/2 111/14/2
f 108/14/2 109/14/2 112/14/2
f 112/14/2 109/14/2 113/14/2
f 110/4/2 111/4/2 114/4/2
f 111/10/2 112/10/2 114/10/2
f 112/4/2 113/4/2 115/4/2
f 114/10/2 112/10/2 115/10/2
f 110/4/2 114/4/2 116/4/2
f 114/4/2 115/4/2 116/4/2
f 115/4/2 113/4/2 117/4/2
f 116/4/2 115/4/2 117/4/2
f 116/13/2 117/13/2 118/13/2
f 118/13/2 117/13/2 119/13/2
f 122/2/3 121/2/3 120/2/3
f 123/2/3 121/2/3 122/2/3
f 124/2/3 121/2/3 123/2/3
f 125/2/3 121/2/3 124/2/3
f 127/9/3 124/9/3 123/9/3
f 128/14/3 127/14/3 126/14/3
f 129/9/3 124/9/3 127/9/3
f 129/14/3 127/14/3 128/14/3
f 130/9/3 124/9/3 129/9/3
f 131/9/3 124/9/3 130/9/3
f 133/13/3 131/13/3 130/13/3
f 133/13/3 132/13/3 131/13/3
f 134/13/3 132/13/3 133/13/3
f 135/5/3 134/5/3 133/5/3
f 136/5/3 134/5/3 135/5/3
f 137/7/3 136/7/3 135/7/3
f 138/7/3 136/7/3 137/7/3
f 139/4/3 138/4/3 137/4/3
f 140/4/3 138/4/3 139/4/3
f 141/5/3 140/5/3 139/5/3
f 142/5/3 140/5/3 141/5/3
f 143/7/3 142/7/3 141/7/3
f 144/7/3 142/7/3 143/7/3
f 145/4/3 144/4/3 143/4/3
f 146/4/3 144/4/3 145/4/3
f 147/5/3 146/5/3 145/5/3
f 148/5/3 146/5/3 147/5/3
f 149/7/3 148/7/3 147/7/3
f 150/7/3 148/7/3 149/7/3
f 151/4/3 150/4/3 149/4/3
f 152/4/3 150/4/3 151/4/3
f 154/5/3 152/5/3 151/5/3
f 155/13/3 153/13/3 152/13/3
f 155/5/3 152/5/3 154/5/3
f 156/7/3 155/7/3 154/7/3
f 157/13/3 153/13/3 155/13/3
f 157/7/3 155/7/3 156/7/3
f 159/4/3 157/4/3 156/4/3
f 160/14/3 159/14/3 158/14/3
f 161/4/3 157/4/3 159/4/3
f 161/14/3 159/14/3 160/14/3
f 162/13/3 153/13/3 157/13/3
f 162/4/3 157/4/3 161/4/3
f 163/13/3 153/13/3 162/13/3
f 168/2/3 165/2/3 164/2/3
f 169/2/3 165/2/3 168/2/3
f 170/8/3 167/8/3 166/8/3
f 171/8/3 167/8/3 170/8/3
f 172/11/3 171/11/3 170/11/3
f 173/8/3 167/8/3 171/8/3
f 173/11/3 171/11/3 172/11/3
f 174/8/3 173/8/3 172/8/3
f 175/8/3 167/8/3 173/8/3
f 175/8/3 173/8/3 174/8/3
f 178/2/3 177/2/3 176/2/3
f 179/2/3 177/2/3 178/2/3
f 182/2/3 181/2/3 180/2/3
f 183/2/3 181/2/3 182/2/3
f 186/14/3 185/14/3 184/14/3
f 187/14/3 185/14/3 186/14/3
f 190/14/3 189/14/3 188/14/3
f 191/14/3 189/14/3 190/14/3
f 192/14/4 193/14/4 194/14/4
f 194/14/4 193/14/4 195/14/4
f 196/2/4 197/2/4 198/2/4
f 198/2/4 197/2/4 199/2/4
f 200/14/4 201/14/4 202/14/4
f 202/14/4 201/14/4 203/14/4
f 204/2/4 205/2/4 206/2/4
f 206/2/4 205/2/4 207/2/4
f 208/2/4 209/2/4 212/2/4
f 212/2/4 209/2/4 213/2/4
f 210/8/4 211/8/4 214/8/4
f 214/8/4 211/8/4 215/8/4
f 216/2/4 217/2/4 218/2/4
f 218/2/4 217/2/4 219/2/4
f 219/2/4 217/2/4 220/2/4
f 220/2/4 217/2/4 221/2/4
f 219/9/4 220/9/4 223/9/4
f 222/14/4 223/14/4 224/14/4
f 223/9/4 220/9/4 225/9/4
f 224/14/4 223/14/4 225/14/4
f 225/9/4 220/9/4 226/9/4
f 226/9/4 220/9/4 227/9/4
f 226/13/4 227/13/4 229/13/4
f 227/13/4 228/13/4 229/13/4
f 229/13/4 228/13/4 230/13/4
f 229/5/4 230/5/4 231/5/4
f 231/5/4 230/5/4 232/5/4
f 231/7/4 232/7/4 233/7/4
f 233/7/4 232/7/4 234/7/4
f 233/4/4 234/4/4 235/4/4
f 235/4/4 234/4/4 236/4/4
f 235/5/4 236/5/4 237/5/4
f 237/5/4 236/5/4 238/5/4
f 237/7/4 238/7/4 239/7/4
f 239/7/4 238/7/4 240/7/4
f 239/4/4 240/4/4 241/4/4
f 241/4/4 240/4/4 242/4/4
f 241/5/4 242/5/4 243/5/4
f 243/5/4 242/5/4 244/5/4
f 243/7/4 244/7/4 245/7/4
f 245/7/4 244/7/4 246/7/4
f 245/4/4 246/4/4 247/4/4
f 247/4/4 246/4/4 248/4/4
f 247/5/4 248/5/4 250/5/4
f 248/13/4 249/13/4 251/13/4
f 250/5/4 248/5/4 251/5/4
f 250/7/4 251/7/4 252/7/4
f 251/13/4 249/13/4 253/13/4
f 252/7/4 251/7/4 253/7/4
f 252/4/4 253/4/4 255/4/4
f 254/14/4 255/14/4 256/14/4
f 255/4/4 253/4/4 257/4/4
f 256/14/4 255/14/4 257/14/4
f 253/13/4 249/13/4 258/13/4
f 257/4/4 253/4/4 258/4/4
f 258/13/4 249/13/4 259/13/4
f 266/14/5 265/14/5 264/14/5
f 267/14/5 265/14/5 266/14/5
f 268/14/5 263/14/5 262/14/5
f 269/14/5 263/14/5 268/14/5
f 274/2/5 261/2/5 260/2/5
f 275/2/5 261/2/5 274/2/5
f 276/14/5 271/14/5 270/14/5
f 277/14/5 271/14/5 276/14/5
f 278/14/5 273/14/5 272/14/5
f 279/14/5 273/14/5 278/14/5
f 297/9/5 281/9/5 280/9/5
f 298/9/5 281/9/5 297/9/5
f 299/9/5 283/9/5 282/9/5
f 300/13/5 284/13/5 283/13/5
f 300/9/5 283/9/5 299/9/5
f 301/5/5 285/5/5 284/5/5
f 301/13/5 284/13/5 300/13/5
f 302/7/5 286/7/5 285/7/5
f 302/5/5 285/5/5 301/5/5
f 303/4/5 287/4/5 286/4/5
f 303/7/5 286/7/5 302/7/5
f 304/5/5 288/5/5 287/5/5
f 304/4/5 287/4/5 303/4/5
f 305/7/5 289/7/5 288/7/5
f 305/5/5 288/5/5 304/5/5
f 306/4/5 290/4/5 289/4/5
f 306/7/5 289/7/5 305/7/5
f 307/5/5 291/5/5 290/5/5
f 307/4/5 290/4/5 306/4/5
f 308/7/5 292/7/5 291/7/5
f 308/5/5 291/5/5 307/5/5
f 309/4/5 293/4/5 292/4/5
f 309/7/5 292/7/5 308/7/5
f 310/5/5 294/5/5 293/5/5
f 310/4/5 293/4/5 309/4/5
f 311/7/5 295/7/5 294/7/5
f 311/5/5 294/5/5 310/5/5
f 312/4/5 296/4/5 295/4/5
f 312/7/5 295/7/5 311/7/5
f 313/4/5 296/4/5 312/4/5
f 315/1/5 298/1/5 297/1/5
f 316/1/5 298/1/5 315/1/5
f 317/14/5 311/14/5 310/14/5
f 317/14/5 300/14/5 299/14/5
f 317/14/5 301/14/5 300/14/5
f 317/14/5 313/14/5 312/14/5
f 317/14/5 312/14/5 311/14/5
f 317/14/5 302/14/5 301/14/5
f 317/14/5 310/14/5 309/14/5
f 317/14/5 309/14/5 308/14/5
f 317/14/5 308/14/5 307/14/5
f 317/14/5 307/14/5 306/14/5
f 317/14/5 306/14/5 305/14/5
f 317/14/5 305/14/5 304/14/5
f 317/14/5 304/14/5 303/14/5
f 317/14/5 303/14/5 302/14/5
f 318/14/5 316/14/5 315/14/5
f 318/14/5 317/14/5 316/14/5
f 319/14/5 313/14/5 317/14/5
f 319/14/5 317/14/5 318/14/5
f 320/14/5 318/14/5 315/14/5
f 321/14/5 318/14/5 320/14/5
f 322/14/5 313/14/5 319/14/5
f 323/14/5 313/14/5 322/14/5
f 324/14/5 313/14/5 323/14/5
f 325/14/5 313/14/5 324/14/5
f 326/14/5 313/14/5 325/14/5
f 327/14/5 313/14/5 326/14/5
f 328/14/5 313/14/5 327/14/5
f 329/14/5 313/14/5 328/14/5
f 330/14/5 313/14/5 329/14/5
f 331/14/5 313/14/5 330/14/5
f 332/14/5 313/14/5 331/14/5
f 333/14/5 313/14/5 332/14/5
f 334/14/5 313/14/5 333/14/5
f 335/14/5 313/14/5 334/14/5
f 336/10/5 314/10/5 313/10/5
f 336/14/5 313/14/5 335/14/5
f 337/10/5 314/10/5 336/10/5
f 338/9/5 321/9/5 320/9/5
f 339/9/5 321/9/5 338/9/5
f 340/9/5 323/9/5 322/9/5
f 341/13/5 324/13/5 323/13/5
f 341/9/5 323/9/5 340/9/5
f 342/5/5 325/5/5 324/5/5
f 342/13/5 324/13/5 341/13/5
f 343/7/5 326/7/5 325/7/5
f 343/5/5 325/5/5 342/5/5
f 344/4/5 327/4/5 326/4/5
f 344/7/5 326/7/5 343/7/5
f 345/5/5 328/5/5 327/5/5
f 345/4/5 327/4/5 344/4/5
f 346/7/5 329/7/5 328/7/5
f 346/5/5 328/5/5 345/5/5
f 347/4/5 330/4/5 329/4/5
f 347/7/5 329/7/5 346/7/5
f 348/5/5 331/5/5 330/5/5
f 348/4/5 330/4/5 347/4/5
f 349/7/5 332/7/5 331/7/5
f 349/5/5 331/5/5 348/5/5
f 350/4/5 333/4/5 332/4/5
f 350/7/5 332/7/5 349/7/5
f 351/5/5 334/5/5 333/5/5
f 351/4/5 333/4/5 350/4/5
f 352/7/5 335/7/5 334/7/5
f 352/5/5 334/5/5 351/5/5
f 353/4/5 336/4/5 335/4/5
f 353/7/5 335/7/5 352/7/5
f 354/4/5 336/4/5 353/4/5
f 355/9/6 356/9/6 357/9/6
f 357/9/6 356/9/6 358/9/6
f 358/9/6 356/9/6 359/9/6
f 359/9/6 356/9/6 360/9/6
f 360/9/6 356/9/6 361/9/6
f 361/9/6 356/9/6 363/9/6
f 362/9/6 363/9/6 364/9/6
f 364/9/6 363/9/6 365/9/6
f 363/9/6 356/9/6 366/9/6
f 365/9/6 363/9/6 366/9/6
f 367/13/6 368/13/6 378/13/6
f 368/5/6 369/5/6 379/5/6
f 378/13/6 368/13/6 379/13/6
f 369/7/6 370/7/6 380/7/6
f 379/5/6 369/5/6 380/5/6
f 370/4/6 371/4/6 381/4/6
f 380/7/6 370/7/6 381/7/6
f 371/5/6 372/5/6 382/5/6
f 381/4/6 371/4/6 382/4/6
f 372/7/6 373/7/6 383/7/6
f 382/5/6 372/5/6 383/5/6
f 373/4/6 374/4/6 384/4/6
f 383/7/6 373/7/6 384/7/6
f 374/5/6 375/5/6 385/5/6
f 384/4/6 374/4/6 385/4/6
f 375/7/6 376/7/6 386/7/6
f 385/5/6 375/5/6 386/5/6
f 376/4/6 377/4/6 387/4/6
f 386/7/6 376/7/6 387/7/6
f 387/4/6 377/4/6 388/4/6
f 391/8/6 392/8/6 393/8/6
f 393/8/6 392/8/6 394/8/6
f 389/13/6 390/13/6 395/13/6
f 395/13/6 390/13/6 396/13/6
f 397/2/6 398/2/6 399/2/6
f 399/2/6 398/2/6 400/2/6
f 401/2/6 402/2/6 403/2/6
f 403/2/6 402/2/6 404/2/6
f 405/2/6 406/2/6 407/2/6
f 407/2/6 406/2/6 408/2/6
f 409/2/6 410/2/6 411/2/6
f 411/2/6 410/2/6 412/2/6
f 413/2/6 414/2/6 415/2/6
f 415/2/6 414/2/6 416/2/6
f 417/2/6 418/2/6 419/2/6
f 419/2/6 418/2/6 420/2/6
f 421/2/6 422/2/6 423/2/6
f 423/2/6 422/2/6 424/2/6
