# MagicaVoxel @ Ephtracy

# group
g map-113

# material
mtllib map-113.mtl
usemtl palette

# normals
vn -1 0 0
vn 1 0 0
vn 0 0 1
vn 0 0 -1
vn 0 -1 0
vn 0 1 0

# texcoords
vt 0.310547 0.5
vt 0.912109 0.5
vt 0.916016 0.5
vt 0.955078 0.5
vt 0.958984 0.5
vt 0.970703 0.5
vt 0.982422 0.5
vt 0.986328 0.5
vt 0.994141 0.5

# verts
v -56 0 2
v -56 0 1
v -56 0 -5
v -56 1 1
v -56 1 -1
v -56 1 -2
v -56 1 -5
v -56 34 1
v -56 34 -1
v -56 37 2
v -56 37 1
v -56 37 -2
v -56 37 -4
v -56 38 2
v -56 38 -4
v -55 37 3
v -55 37 2
v -55 37 -4
v -55 37 -5
v -55 38 3
v -55 38 2
v -55 38 -4
v -55 38 -5
v -45 32 -0
v -45 32 -1
v -45 33 -0
v -45 33 -1
v -43 32 -0
v -43 32 -1
v -43 33 -0
v -43 33 -1
v -11 32 3
v -11 32 2
v -11 33 3
v -11 33 2
v -11 34 3
v -11 34 2
v -11 35 3
v -11 35 2
v -11 36 3
v -11 36 2
v -46 32 -0
v -46 32 -1
v -46 33 -0
v -46 33 -1
v -44 32 -0
v -44 32 -1
v -44 33 -0
v -44 33 -1
v -11 7 2
v -11 7 -1
v -11 7 -2
v -11 16 2
v -11 16 -0
v -11 17 2
v -11 17 -0
v -11 23 2
v -11 23 -0
v -11 24 2
v -11 24 -0
v -11 32 2
v -11 33 2
v -11 33 -1
v -11 33 -2
v 55 37 3
v 55 37 2
v 55 37 -2
v 55 37 -5
v 55 38 3
v 55 38 2
v 55 38 -2
v 55 38 -5
v 56 0 2
v 56 0 1
v 56 0 -5
v 56 1 1
v 56 1 -1
v 56 1 -2
v 56 1 -5
v 56 7 2
v 56 7 -1
v 56 7 -2
v 56 16 2
v 56 16 -0
v 56 17 2
v 56 17 -0
v 56 23 2
v 56 23 -0
v 56 24 2
v 56 24 -0
v 56 32 3
v 56 32 2
v 56 33 3
v 56 33 2
v 56 33 -1
v 56 33 -2
v 56 34 3
v 56 34 2
v 56 34 1
v 56 34 -1
v 56 35 3
v 56 35 2
v 56 36 3
v 56 36 2
v 56 37 2
v 56 37 1
v 56 38 2
v 56 38 -2
v -55 37 3
v -55 38 3
v -11 32 3
v -11 33 3
v -11 34 3
v -11 35 3
v -11 36 3
v 55 37 3
v 55 38 3
v 56 32 3
v 56 33 3
v 56 34 3
v 56 35 3
v 56 36 3
v -56 0 2
v -56 37 2
v -56 38 2
v -55 37 2
v -55 38 2
v -11 7 2
v -11 16 2
v -11 17 2
v -11 23 2
v -11 24 2
v -11 32 2
v -11 33 2
v -11 34 2
v -11 35 2
v -11 36 2
v 55 37 2
v 55 38 2
v 56 0 2
v 56 7 2
v 56 16 2
v 56 17 2
v 56 23 2
v 56 24 2
v 56 36 2
v 56 37 2
v 56 38 2
v -46 32 -1
v -46 33 -1
v -45 32 -1
v -45 33 -1
v -44 32 -1
v -44 33 -1
v -43 32 -1
v -43 33 -1
v -11 32 2
v -11 33 2
v 56 32 2
v 56 33 2
v -46 32 -0
v -46 33 -0
v -45 32 -0
v -45 33 -0
v -44 32 -0
v -44 33 -0
v -43 32 -0
v -43 33 -0
v -11 16 -0
v -11 17 -0
v -11 23 -0
v -11 24 -0
v 56 16 -0
v 56 17 -0
v 56 23 -0
v 56 24 -0
v -56 1 -2
v -56 37 -2
v -55 1 -2
v -54 1 -2
v -49 1 -2
v -48 1 -2
v -43 1 -2
v -42 1 -2
v -37 1 -2
v -36 1 -2
v -31 1 -2
v -30 1 -2
v -25 1 -2
v -24 1 -2
v -19 1 -2
v -18 1 -2
v -13 1 -2
v -12 1 -2
v -11 7 -2
v -11 33 -2
v -7 1 -2
v -6 1 -2
v -1 1 -2
v 0 1 -2
v 5 1 -2
v 6 1 -2
v 11 1 -2
v 12 1 -2
v 17 1 -2
v 18 1 -2
v 23 1 -2
v 24 1 -2
v 29 1 -2
v 30 1 -2
v 35 1 -2
v 36 1 -2
v 41 1 -2
v 42 1 -2
v 47 1 -2
v 48 1 -2
v 53 1 -2
v 54 1 -2
v 55 37 -2
v 55 38 -2
v 56 1 -2
v 56 7 -2
v 56 33 -2
v 56 38 -2
v -56 37 -4
v -56 38 -4
v -55 37 -4
v -55 38 -4
v -56 0 -5
v -56 1 -5
v -55 0 -5
v -55 1 -5
v -55 37 -5
v -55 38 -5
v -54 0 -5
v -54 1 -5
v -49 0 -5
v -49 1 -5
v -48 0 -5
v -48 1 -5
v -43 0 -5
v -43 1 -5
v -42 0 -5
v -42 1 -5
v -37 0 -5
v -37 1 -5
v -36 0 -5
v -36 1 -5
v -31 0 -5
v -31 1 -5
v -30 0 -5
v -30 1 -5
v -25 0 -5
v -25 1 -5
v -24 0 -5
v -24 1 -5
v -19 0 -5
v -19 1 -5
v -18 0 -5
v -18 1 -5
v -13 0 -5
v -13 1 -5
v -12 0 -5
v -12 1 -5
v -7 0 -5
v -7 1 -5
v -6 0 -5
v -6 1 -5
v -1 0 -5
v -1 1 -5
v 0 0 -5
v 0 1 -5
v 5 0 -5
v 5 1 -5
v 6 0 -5
v 6 1 -5
v 11 0 -5
v 11 1 -5
v 12 0 -5
v 12 1 -5
v 17 0 -5
v 17 1 -5
v 18 0 -5
v 18 1 -5
v 23 0 -5
v 23 1 -5
v 24 0 -5
v 24 1 -5
v 29 0 -5
v 29 1 -5
v 30 0 -5
v 30 1 -5
v 35 0 -5
v 35 1 -5
v 36 0 -5
v 36 1 -5
v 41 0 -5
v 41 1 -5
v 42 0 -5
v 42 1 -5
v 47 0 -5
v 47 1 -5
v 48 0 -5
v 48 1 -5
v 53 0 -5
v 53 1 -5
v 54 0 -5
v 54 1 -5
v 55 37 -5
v 55 38 -5
v 56 0 -5
v 56 1 -5
v -56 0 2
v 56 0 2
v -56 0 1
v 56 0 1
v -55 0 -2
v -54 0 -2
v -49 0 -2
v -48 0 -2
v -43 0 -2
v -42 0 -2
v -37 0 -2
v -36 0 -2
v -31 0 -2
v -30 0 -2
v -25 0 -2
v -24 0 -2
v -19 0 -2
v -18 0 -2
v -13 0 -2
v -12 0 -2
v -7 0 -2
v -6 0 -2
v -1 0 -2
v 0 0 -2
v 5 0 -2
v 6 0 -2
v 11 0 -2
v 12 0 -2
v 17 0 -2
v 18 0 -2
v 23 0 -2
v 24 0 -2
v 29 0 -2
v 30 0 -2
v 35 0 -2
v 36 0 -2
v 41 0 -2
v 42 0 -2
v 47 0 -2
v 48 0 -2
v 53 0 -2
v 54 0 -2
v -56 0 -5
v -55 0 -5
v -54 0 -5
v -49 0 -5
v -48 0 -5
v -43 0 -5
v -42 0 -5
v -37 0 -5
v -36 0 -5
v -31 0 -5
v -30 0 -5
v -25 0 -5
v -24 0 -5
v -19 0 -5
v -18 0 -5
v -13 0 -5
v -12 0 -5
v -7 0 -5
v -6 0 -5
v -1 0 -5
v 0 0 -5
v 5 0 -5
v 6 0 -5
v 11 0 -5
v 12 0 -5
v 17 0 -5
v 18 0 -5
v 23 0 -5
v 24 0 -5
v 29 0 -5
v 30 0 -5
v 35 0 -5
v 36 0 -5
v 41 0 -5
v 42 0 -5
v 47 0 -5
v 48 0 -5
v 53 0 -5
v 54 0 -5
v 56 0 -5
v -11 16 2
v 56 16 2
v -11 16 -0
v 56 16 -0
v -11 23 2
v 56 23 2
v -11 23 -0
v 56 23 -0
v -11 32 3
v 56 32 3
v -11 32 2
v 56 32 2
v -11 33 2
v 56 33 2
v -46 33 -0
v -45 33 -0
v -44 33 -0
v -43 33 -0
v -46 33 -1
v -45 33 -1
v -44 33 -1
v -43 33 -1
v -11 33 -1
v 56 33 -1
v -11 33 -2
v 56 33 -2
v -55 37 3
v 55 37 3
v -55 37 2
v 55 37 2
v -56 37 -2
v 55 37 -2
v -56 37 -4
v -55 37 -4
v -55 37 -5
v 55 37 -5
v -56 1 -2
v -55 1 -2
v -54 1 -2
v -49 1 -2
v -48 1 -2
v -43 1 -2
v -42 1 -2
v -37 1 -2
v -36 1 -2
v -31 1 -2
v -30 1 -2
v -25 1 -2
v -24 1 -2
v -19 1 -2
v -18 1 -2
v -13 1 -2
v -12 1 -2
v -7 1 -2
v -6 1 -2
v -1 1 -2
v 0 1 -2
v 5 1 -2
v 6 1 -2
v 11 1 -2
v 12 1 -2
v 17 1 -2
v 18 1 -2
v 23 1 -2
v 24 1 -2
v 29 1 -2
v 30 1 -2
v 35 1 -2
v 36 1 -2
v 41 1 -2
v 42 1 -2
v 47 1 -2
v 48 1 -2
v 53 1 -2
v 54 1 -2
v 56 1 -2
v -56 1 -5
v -55 1 -5
v -54 1 -5
v -49 1 -5
v -48 1 -5
v -43 1 -5
v -42 1 -5
v -37 1 -5
v -36 1 -5
v -31 1 -5
v -30 1 -5
v -25 1 -5
v -24 1 -5
v -19 1 -5
v -18 1 -5
v -13 1 -5
v -12 1 -5
v -7 1 -5
v -6 1 -5
v -1 1 -5
v 0 1 -5
v 5 1 -5
v 6 1 -5
v 11 1 -5
v 12 1 -5
v 17 1 -5
v 18 1 -5
v 23 1 -5
v 24 1 -5
v 29 1 -5
v 30 1 -5
v 35 1 -5
v 36 1 -5
v 41 1 -5
v 42 1 -5
v 47 1 -5
v 48 1 -5
v 53 1 -5
v 54 1 -5
v 56 1 -5
v -11 7 2
v 56 7 2
v -11 7 -1
v 56 7 -1
v -11 7 -2
v 56 7 -2
v -11 17 2
v 56 17 2
v -11 17 -0
v 56 17 -0
v -11 24 2
v 56 24 2
v -11 24 -0
v 56 24 -0
v -46 32 -0
v -45 32 -0
v -44 32 -0
v -43 32 -0
v -46 32 -1
v -45 32 -1
v -44 32 -1
v -43 32 -1
v -11 36 3
v 56 36 3
v -11 36 2
v 56 36 2
v -55 38 3
v 55 38 3
v -56 38 2
v -55 38 2
v 55 38 2
v 56 38 2
v 55 38 -2
v 56 38 -2
v -56 38 -4
v -55 38 -4
v -55 38 -5
v 55 38 -5

# faces
f 4/8/1 2/8/1 1/8/1
f 4/6/1 3/6/1 2/6/1
f 5/6/1 3/6/1 4/6/1
f 6/6/1 3/6/1 5/6/1
f 7/6/1 3/6/1 6/6/1
f 8/8/1 4/8/1 1/8/1
f 8/8/1 5/8/1 4/8/1
f 9/3/1 6/3/1 5/3/1
f 9/8/1 5/8/1 8/8/1
f 10/8/1 8/8/1 1/8/1
f 11/3/1 9/3/1 8/3/1
f 11/8/1 8/8/1 10/8/1
f 12/3/1 6/3/1 9/3/1
f 12/3/1 9/3/1 11/3/1
f 14/3/1 11/3/1 10/3/1
f 14/3/1 13/3/1 12/3/1
f 14/3/1 12/3/1 11/3/1
f 15/3/1 13/3/1 14/3/1
f 20/3/1 17/3/1 16/3/1
f 21/3/1 17/3/1 20/3/1
f 22/3/1 19/3/1 18/3/1
f 23/3/1 19/3/1 22/3/1
f 26/1/1 25/1/1 24/1/1
f 27/1/1 25/1/1 26/1/1
f 30/1/1 29/1/1 28/1/1
f 31/1/1 29/1/1 30/1/1
f 34/5/1 33/5/1 32/5/1
f 35/5/1 33/5/1 34/5/1
f 36/2/1 35/2/1 34/2/1
f 37/2/1 35/2/1 36/2/1
f 38/5/1 37/5/1 36/5/1
f 39/5/1 37/5/1 38/5/1
f 40/4/1 39/4/1 38/4/1
f 41/4/1 39/4/1 40/4/1
f 42/8/2 43/8/2 44/8/2
f 44/8/2 43/8/2 45/8/2
f 46/1/2 47/1/2 48/1/2
f 48/1/2 47/1/2 49/1/2
f 50/8/2 51/8/2 53/8/2
f 53/8/2 51/8/2 54/8/2
f 54/8/2 51/8/2 56/8/2
f 55/8/2 56/8/2 57/8/2
f 56/8/2 51/8/2 58/8/2
f 57/8/2 56/8/2 58/8/2
f 58/8/2 51/8/2 60/8/2
f 59/8/2 60/8/2 61/8/2
f 61/8/2 60/8/2 62/8/2
f 51/3/2 52/3/2 63/3/2
f 62/8/2 60/8/2 63/8/2
f 60/8/2 51/8/2 63/8/2
f 63/3/2 52/3/2 64/3/2
f 65/3/2 66/3/2 69/3/2
f 69/3/2 66/3/2 70/3/2
f 67/3/2 68/3/2 71/3/2
f 71/3/2 68/3/2 72/3/2
f 73/8/2 74/8/2 76/8/2
f 74/6/2 75/6/2 76/6/2
f 76/6/2 75/6/2 77/6/2
f 77/6/2 75/6/2 78/6/2
f 78/6/2 75/6/2 79/6/2
f 73/8/2 76/8/2 80/8/2
f 76/8/2 77/8/2 80/8/2
f 77/3/2 78/3/2 81/3/2
f 80/8/2 77/8/2 81/8/2
f 81/3/2 78/3/2 82/3/2
f 83/9/2 84/9/2 85/9/2
f 85/9/2 84/9/2 86/9/2
f 87/9/2 88/9/2 89/9/2
f 89/9/2 88/9/2 90/9/2
f 91/5/2 92/5/2 93/5/2
f 93/5/2 92/5/2 94/5/2
f 93/2/2 94/2/2 97/2/2
f 94/8/2 95/8/2 98/8/2
f 97/2/2 94/2/2 98/2/2
f 98/8/2 95/8/2 99/8/2
f 95/3/2 96/3/2 100/3/2
f 99/8/2 95/8/2 100/8/2
f 97/5/2 98/5/2 101/5/2
f 98/8/2 99/8/2 102/8/2
f 101/5/2 98/5/2 102/5/2
f 101/4/2 102/4/2 103/4/2
f 102/8/2 99/8/2 104/8/2
f 103/4/2 102/4/2 104/4/2
f 104/8/2 99/8/2 105/8/2
f 99/3/2 100/3/2 106/3/2
f 105/8/2 99/8/2 106/8/2
f 105/3/2 106/3/2 107/3/2
f 100/3/2 96/3/2 108/3/2
f 107/3/2 106/3/2 108/3/2
f 106/3/2 100/3/2 108/3/2
f 116/3/3 110/3/3 109/3/3
f 117/3/3 110/3/3 116/3/3
f 118/5/3 112/5/3 111/5/3
f 119/2/3 113/2/3 112/2/3
f 119/5/3 112/5/3 118/5/3
f 120/5/3 114/5/3 113/5/3
f 120/2/3 113/2/3 119/2/3
f 121/4/3 115/4/3 114/4/3
f 121/5/3 114/5/3 120/5/3
f 122/4/3 115/4/3 121/4/3
f 126/8/3 124/8/3 123/8/3
f 126/3/3 125/3/3 124/3/3
f 127/3/3 125/3/3 126/3/3
f 128/8/3 126/8/3 123/8/3
f 129/8/3 126/8/3 128/8/3
f 130/8/3 126/8/3 129/8/3
f 131/8/3 126/8/3 130/8/3
f 132/8/3 126/8/3 131/8/3
f 133/8/3 126/8/3 132/8/3
f 134/8/3 126/8/3 133/8/3
f 135/8/3 126/8/3 134/8/3
f 136/8/3 126/8/3 135/8/3
f 137/8/3 126/8/3 136/8/3
f 138/8/3 126/8/3 137/8/3
f 140/8/3 128/8/3 123/8/3
f 141/8/3 128/8/3 140/8/3
f 142/9/3 130/9/3 129/9/3
f 143/9/3 130/9/3 142/9/3
f 144/9/3 132/9/3 131/9/3
f 145/9/3 132/9/3 144/9/3
f 146/8/3 138/8/3 137/8/3
f 147/3/3 139/3/3 138/3/3
f 147/8/3 138/8/3 146/8/3
f 148/3/3 139/3/3 147/3/3
f 151/3/3 150/3/3 149/3/3
f 152/3/3 150/3/3 151/3/3
f 155/3/3 154/3/3 153/3/3
f 156/3/3 154/3/3 155/3/3
f 157/5/4 158/5/4 159/5/4
f 159/5/4 158/5/4 160/5/4
f 161/1/4 162/1/4 163/1/4
f 163/1/4 162/1/4 164/1/4
f 165/1/4 166/1/4 167/1/4
f 167/1/4 166/1/4 168/1/4
f 169/9/4 170/9/4 173/9/4
f 173/9/4 170/9/4 174/9/4
f 171/9/4 172/9/4 175/9/4
f 175/9/4 172/9/4 176/9/4
f 177/3/4 178/3/4 179/3/4
f 179/3/4 178/3/4 180/3/4
f 180/3/4 178/3/4 181/3/4
f 181/3/4 178/3/4 182/3/4
f 182/3/4 178/3/4 183/3/4
f 183/3/4 178/3/4 184/3/4
f 184/3/4 178/3/4 185/3/4
f 185/3/4 178/3/4 186/3/4
f 186/3/4 178/3/4 187/3/4
f 187/3/4 178/3/4 188/3/4
f 188/3/4 178/3/4 189/3/4
f 189/3/4 178/3/4 190/3/4
f 190/3/4 178/3/4 191/3/4
f 191/3/4 178/3/4 192/3/4
f 192/3/4 178/3/4 193/3/4
f 193/3/4 178/3/4 194/3/4
f 194/3/4 178/3/4 195/3/4
f 195/3/4 178/3/4 196/3/4
f 194/3/4 195/3/4 197/3/4
f 197/3/4 195/3/4 198/3/4
f 198/3/4 195/3/4 199/3/4
f 199/3/4 195/3/4 200/3/4
f 200/3/4 195/3/4 201/3/4
f 201/3/4 195/3/4 202/3/4
f 202/3/4 195/3/4 203/3/4
f 203/3/4 195/3/4 204/3/4
f 204/3/4 195/3/4 205/3/4
f 205/3/4 195/3/4 206/3/4
f 206/3/4 195/3/4 207/3/4
f 207/3/4 195/3/4 208/3/4
f 208/3/4 195/3/4 209/3/4
f 209/3/4 195/3/4 210/3/4
f 210/3/4 195/3/4 211/3/4
f 211/3/4 195/3/4 212/3/4
f 212/3/4 195/3/4 213/3/4
f 213/3/4 195/3/4 214/3/4
f 214/3/4 195/3/4 215/3/4
f 215/3/4 195/3/4 216/3/4
f 216/3/4 195/3/4 217/3/4
f 217/3/4 195/3/4 218/3/4
f 196/3/4 178/3/4 219/3/4
f 218/3/4 195/3/4 221/3/4
f 221/3/4 195/3/4 222/3/4
f 219/3/4 220/3/4 223/3/4
f 196/3/4 219/3/4 223/3/4
f 223/3/4 220/3/4 224/3/4
f 225/3/4 226/3/4 227/3/4
f 227/3/4 226/3/4 228/3/4
f 229/6/4 230/6/4 231/6/4
f 231/6/4 230/6/4 232/6/4
f 231/7/4 232/7/4 235/7/4
f 235/7/4 232/7/4 236/7/4
f 235/6/4 236/6/4 237/6/4
f 237/6/4 236/6/4 238/6/4
f 237/7/4 238/7/4 239/7/4
f 239/7/4 238/7/4 240/7/4
f 239/6/4 240/6/4 241/6/4
f 241/6/4 240/6/4 242/6/4
f 241/7/4 242/7/4 243/7/4
f 243/7/4 242/7/4 244/7/4
f 243/6/4 244/6/4 245/6/4
f 245/6/4 244/6/4 246/6/4
f 245/7/4 246/7/4 247/7/4
f 247/7/4 246/7/4 248/7/4
f 247/6/4 248/6/4 249/6/4
f 249/6/4 248/6/4 250/6/4
f 249/7/4 250/7/4 251/7/4
f 251/7/4 250/7/4 252/7/4
f 251/6/4 252/6/4 253/6/4
f 253/6/4 252/6/4 254/6/4
f 253/7/4 254/7/4 255/7/4
f 255/7/4 254/7/4 256/7/4
f 255/6/4 256/6/4 257/6/4
f 257/6/4 256/6/4 258/6/4
f 257/7/4 258/7/4 259/7/4
f 259/7/4 258/7/4 260/7/4
f 259/6/4 260/6/4 261/6/4
f 261/6/4 260/6/4 262/6/4
f 261/7/4 262/7/4 263/7/4
f 263/7/4 262/7/4 264/7/4
f 263/6/4 264/6/4 265/6/4
f 265/6/4 264/6/4 266/6/4
f 265/7/4 266/7/4 267/7/4
f 267/7/4 266/7/4 268/7/4
f 267/6/4 268/6/4 269/6/4
f 269/6/4 268/6/4 270/6/4
f 269/7/4 270/7/4 271/7/4
f 271/7/4 270/7/4 272/7/4
f 271/6/4 272/6/4 273/6/4
f 273/6/4 272/6/4 274/6/4
f 273/7/4 274/7/4 275/7/4
f 275/7/4 274/7/4 276/7/4
f 275/6/4 276/6/4 277/6/4
f 277/6/4 276/6/4 278/6/4
f 277/7/4 278/7/4 279/7/4
f 279/7/4 278/7/4 280/7/4
f 279/6/4 280/6/4 281/6/4
f 281/6/4 280/6/4 282/6/4
f 281/7/4 282/7/4 283/7/4
f 283/7/4 282/7/4 284/7/4
f 283/6/4 284/6/4 285/6/4
f 285/6/4 284/6/4 286/6/4
f 285/7/4 286/7/4 287/7/4
f 287/7/4 286/7/4 288/7/4
f 287/6/4 288/6/4 289/6/4
f 289/6/4 288/6/4 290/6/4
f 289/7/4 290/7/4 291/7/4
f 291/7/4 290/7/4 292/7/4
f 291/6/4 292/6/4 293/6/4
f 293/6/4 292/6/4 294/6/4
f 293/7/4 294/7/4 295/7/4
f 295/7/4 294/7/4 296/7/4
f 295/6/4 296/6/4 297/6/4
f 297/6/4 296/6/4 298/6/4
f 297/7/4 298/7/4 299/7/4
f 299/7/4 298/7/4 300/7/4
f 299/6/4 300/6/4 301/6/4
f 301/6/4 300/6/4 302/6/4
f 301/7/4 302/7/4 303/7/4
f 303/7/4 302/7/4 304/7/4
f 303/6/4 304/6/4 305/6/4
f 305/6/4 304/6/4 306/6/4
f 305/7/4 306/7/4 307/7/4
f 307/7/4 306/7/4 308/7/4
f 233/3/4 234/3/4 309/3/4
f 309/3/4 234/3/4 310/3/4
f 307/6/4 308/6/4 311/6/4
f 311/6/4 308/6/4 312/6/4
f 315/8/5 314/8/5 313/8/5
f 316/8/5 314/8/5 315/8/5
f 317/6/5 316/6/5 315/6/5
f 318/6/5 316/6/5 317/6/5
f 319/6/5 316/6/5 318/6/5
f 320/6/5 316/6/5 319/6/5
f 321/6/5 316/6/5 320/6/5
f 322/6/5 316/6/5 321/6/5
f 323/6/5 316/6/5 322/6/5
f 324/6/5 316/6/5 323/6/5
f 325/6/5 316/6/5 324/6/5
f 326/6/5 316/6/5 325/6/5
f 327/6/5 316/6/5 326/6/5
f 328/6/5 316/6/5 327/6/5
f 329/6/5 316/6/5 328/6/5
f 330/6/5 316/6/5 329/6/5
f 331/6/5 316/6/5 330/6/5
f 332/6/5 316/6/5 331/6/5
f 333/6/5 316/6/5 332/6/5
f 334/6/5 316/6/5 333/6/5
f 335/6/5 316/6/5 334/6/5
f 336/6/5 316/6/5 335/6/5
f 337/6/5 316/6/5 336/6/5
f 338/6/5 316/6/5 337/6/5
f 339/6/5 316/6/5 338/6/5
f 340/6/5 316/6/5 339/6/5
f 341/6/5 316/6/5 340/6/5
f 342/6/5 316/6/5 341/6/5
f 343/6/5 316/6/5 342/6/5
f 344/6/5 316/6/5 343/6/5
f 345/6/5 316/6/5 344/6/5
f 346/6/5 316/6/5 345/6/5
f 347/6/5 316/6/5 346/6/5
f 348/6/5 316/6/5 347/6/5
f 349/6/5 316/6/5 348/6/5
f 350/6/5 316/6/5 349/6/5
f 351/6/5 316/6/5 350/6/5
f 352/6/5 316/6/5 351/6/5
f 353/6/5 316/6/5 352/6/5
f 354/6/5 316/6/5 353/6/5
f 355/6/5 317/6/5 315/6/5
f 356/7/5 318/7/5 317/7/5
f 356/6/5 317/6/5 355/6/5
f 357/6/5 319/6/5 318/6/5
f 357/7/5 318/7/5 356/7/5
f 358/7/5 320/7/5 319/7/5
f 358/6/5 319/6/5 357/6/5
f 359/6/5 321/6/5 320/6/5
f 359/7/5 320/7/5 358/7/5
f 360/7/5 322/7/5 321/7/5
f 360/6/5 321/6/5 359/6/5
f 361/6/5 323/6/5 322/6/5
f 361/7/5 322/7/5 360/7/5
f 362/7/5 324/7/5 323/7/5
f 362/6/5 323/6/5 361/6/5
f 363/6/5 325/6/5 324/6/5
f 363/7/5 324/7/5 362/7/5
f 364/7/5 326/7/5 325/7/5
f 364/6/5 325/6/5 363/6/5
f 365/6/5 327/6/5 326/6/5
f 365/7/5 326/7/5 364/7/5
f 366/7/5 328/7/5 327/7/5
f 366/6/5 327/6/5 365/6/5
f 367/6/5 329/6/5 328/6/5
f 367/7/5 328/7/5 366/7/5
f 368/7/5 330/7/5 329/7/5
f 368/6/5 329/6/5 367/6/5
f 369/6/5 331/6/5 330/6/5
f 369/7/5 330/7/5 368/7/5
f 370/7/5 332/7/5 331/7/5
f 370/6/5 331/6/5 369/6/5
f 371/6/5 333/6/5 332/6/5
f 371/7/5 332/7/5 370/7/5
f 372/7/5 334/7/5 333/7/5
f 372/6/5 333/6/5 371/6/5
f 373/6/5 335/6/5 334/6/5
f 373/7/5 334/7/5 372/7/5
f 374/7/5 336/7/5 335/7/5
f 374/6/5 335/6/5 373/6/5
f 375/6/5 337/6/5 336/6/5
f 375/7/5 336/7/5 374/7/5
f 376/7/5 338/7/5 337/7/5
f 376/6/5 337/6/5 375/6/5
f 377/6/5 339/6/5 338/6/5
f 377/7/5 338/7/5 376/7/5
f 378/7/5 340/7/5 339/7/5
f 378/6/5 339/6/5 377/6/5
f 379/6/5 341/6/5 340/6/5
f 379/7/5 340/7/5 378/7/5
f 380/7/5 342/7/5 341/7/5
f 380/6/5 341/6/5 379/6/5
f 381/6/5 343/6/5 342/6/5
f 381/7/5 342/7/5 380/7/5
f 382/7/5 344/7/5 343/7/5
f 382/6/5 343/6/5 381/6/5
f 383/6/5 345/6/5 344/6/5
f 383/7/5 344/7/5 382/7/5
f 384/7/5 346/7/5 345/7/5
f 384/6/5 345/6/5 383/6/5
f 385/6/5 347/6/5 346/6/5
f 385/7/5 346/7/5 384/7/5
f 386/7/5 348/7/5 347/7/5
f 386/6/5 347/6/5 385/6/5
f 387/6/5 349/6/5 348/6/5
f 387/7/5 348/7/5 386/7/5
f 388/7/5 350/7/5 349/7/5
f 388/6/5 349/6/5 387/6/5
f 389/6/5 351/6/5 350/6/5
f 389/7/5 350/7/5 388/7/5
f 390/7/5 352/7/5 351/7/5
f 390/6/5 351/6/5 389/6/5
f 391/6/5 353/6/5 352/6/5
f 391/7/5 352/7/5 390/7/5
f 392/7/5 354/7/5 353/7/5
f 392/6/5 353/6/5 391/6/5
f 393/6/5 316/6/5 354/6/5
f 393/7/5 354/7/5 392/7/5
f 394/6/5 316/6/5 393/6/5
f 397/9/5 396/9/5 395/9/5
f 398/9/5 396/9/5 397/9/5
f 401/9/5 400/9/5 399/9/5
f 402/9/5 400/9/5 401/9/5
f 405/5/5 404/5/5 403/5/5
f 406/5/5 404/5/5 405/5/5
f 413/8/5 410/8/5 409/8/5
f 414/8/5 410/8/5 413/8/5
f 415/8/5 412/8/5 411/8/5
f 416/8/5 412/8/5 415/8/5
f 417/8/5 408/8/5 407/8/5
f 418/8/5 408/8/5 417/8/5
f 419/3/5 418/3/5 417/3/5
f 420/3/5 418/3/5 419/3/5
f 423/3/5 422/3/5 421/3/5
f 424/3/5 422/3/5 423/3/5
f 427/3/5 426/3/5 425/3/5
f 428/3/5 426/3/5 427/3/5
f 429/3/5 426/3/5 428/3/5
f 430/3/5 426/3/5 429/3/5
f 431/6/6 432/6/6 471/6/6
f 432/7/6 433/7/6 472/7/6
f 471/6/6 432/6/6 472/6/6
f 433/6/6 434/6/6 473/6/6
f 472/7/6 433/7/6 473/7/6
f 434/7/6 435/7/6 474/7/6
f 473/6/6 434/6/6 474/6/6
f 435/6/6 436/6/6 475/6/6
f 474/7/6 435/7/6 475/7/6
f 436/7/6 437/7/6 476/7/6
f 475/6/6 436/6/6 476/6/6
f 437/6/6 438/6/6 477/6/6
f 476/7/6 437/7/6 477/7/6
f 438/7/6 439/7/6 478/7/6
f 477/6/6 438/6/6 478/6/6
f 439/6/6 440/6/6 479/6/6
f 478/7/6 439/7/6 479/7/6
f 440/7/6 441/7/6 480/7/6
f 479/6/6 440/6/6 480/6/6
f 441/6/6 442/6/6 481/6/6
f 480/7/6 441/7/6 481/7/6
f 442/7/6 443/7/6 482/7/6
f 481/6/6 442/6/6 482/6/6
f 443/6/6 444/6/6 483/6/6
f 482/7/6 443/7/6 483/7/6
f 444/7/6 445/7/6 484/7/6
f 483/6/6 444/6/6 484/6/6
f 445/6/6 446/6/6 485/6/6
f 484/7/6 445/7/6 485/7/6
f 446/7/6 447/7/6 486/7/6
f 485/6/6 446/6/6 486/6/6
f 447/6/6 448/6/6 487/6/6
f 486/7/6 447/7/6 487/7/6
f 448/7/6 449/7/6 488/7/6
f 487/6/6 448/6/6 488/6/6
f 449/6/6 450/6/6 489/6/6
f 488/7/6 449/7/6 489/7/6
f 450/7/6 451/7/6 490/7/6
f 489/6/6 450/6/6 490/6/6
f 451/6/6 452/6/6 491/6/6
f 490/7/6 451/7/6 491/7/6
f 452/7/6 453/7/6 492/7/6
f 491/6/6 452/6/6 492/6/6
f 453/6/6 454/6/6 493/6/6
f 492/7/6 453/7/6 493/7/6
f 454/7/6 455/7/6 494/7/6
f 493/6/6 454/6/6 494/6/6
f 455/6/6 456/6/6 495/6/6
f 494/7/6 455/7/6 495/7/6
f 456/7/6 457/7/6 496/7/6
f 495/6/6 456/6/6 496/6/6
f 457/6/6 458/6/6 497/6/6
f 496/7/6 457/7/6 497/7/6
f 458/7/6 459/7/6 498/7/6
f 497/6/6 458/6/6 498/6/6
f 459/6/6 460/6/6 499/6/6
f 498/7/6 459/7/6 499/7/6
f 460/7/6 461/7/6 500/7/6
f 499/6/6 460/6/6 500/6/6
f 461/6/6 462/6/6 501/6/6
f 500/7/6 461/7/6 501/7/6
f 462/7/6 463/7/6 502/7/6
f 501/6/6 462/6/6 502/6/6
f 463/6/6 464/6/6 503/6/6
f 502/7/6 463/7/6 503/7/6
f 464/7/6 465/7/6 504/7/6
f 503/6/6 464/6/6 504/6/6
f 465/6/6 466/6/6 505/6/6
f 504/7/6 465/7/6 505/7/6
f 466/7/6 467/7/6 506/7/6
f 505/6/6 466/6/6 506/6/6
f 467/6/6 468/6/6 507/6/6
f 506/7/6 467/7/6 507/7/6
f 468/7/6 469/7/6 508/7/6
f 507/6/6 468/6/6 508/6/6
f 469/6/6 470/6/6 509/6/6
f 508/7/6 469/7/6 509/7/6
f 509/6/6 470/6/6 510/6/6
f 511/8/6 512/8/6 513/8/6
f 513/8/6 512/8/6 514/8/6
f 513/3/6 514/3/6 515/3/6
f 515/3/6 514/3/6 516/3/6
f 517/9/6 518/9/6 519/9/6
f 519/9/6 518/9/6 520/9/6
f 521/9/6 522/9/6 523/9/6
f 523/9/6 522/9/6 524/9/6
f 525/1/6 526/1/6 529/1/6
f 529/1/6 526/1/6 530/1/6
f 527/8/6 528/8/6 531/8/6
f 531/8/6 528/8/6 532/8/6
f 533/4/6 534/4/6 535/4/6
f 535/4/6 534/4/6 536/4/6
f 537/3/6 538/3/6 540/3/6
f 540/3/6 538/3/6 541/3/6
f 539/3/6 540/3/6 543/3/6
f 541/3/6 542/3/6 543/3/6
f 540/3/6 541/3/6 543/3/6
f 543/3/6 542/3/6 544/3/6
f 539/3/6 543/3/6 545/3/6
f 545/3/6 543/3/6 546/3/6
f 546/3/6 543/3/6 547/3/6
f 547/3/6 543/3/6 548/3/6
