# MagicaVoxel @ Ephtracy

# group
g map-151

# material
mtllib map-151.mtl
usemtl palette

# normals
vn -1 0 0
vn 1 0 0
vn 0 0 1
vn 0 0 -1
vn 0 -1 0
vn 0 1 0

# texcoords
vt 0.197266 0.5
vt 0.435547 0.5
vt 0.927734 0.5
vt 0.958984 0.5
vt 0.966797 0.5

# verts
v -7 3 -4
v -7 3 -5
v -7 4 -4
v -7 4 -5
v -6 0 5
v -6 0 -5
v -6 2 5
v -6 2 -5
v -6 3 5
v -6 3 -4
v -6 4 4
v -6 4 -4
v -6 4 -5
v -6 9 4
v -6 9 -4
v -6 10 5
v -6 10 -5
v -5 2 5
v -5 2 -5
v -5 3 5
v -5 3 -5
v -5 4 4
v -5 4 -4
v -5 9 4
v -5 9 -4
v 5 1 4
v 5 1 -4
v 5 2 4
v 5 2 -4
v -5 0 4
v -5 0 -4
v -5 1 4
v -5 1 -4
v -4 0 5
v -4 0 4
v -4 0 -4
v -4 0 -5
v -4 1 5
v -4 1 4
v -4 1 -4
v -4 1 -5
v -4 2 4
v -4 2 -4
v 7 1 5
v 7 1 -5
v 7 2 5
v 7 2 -5
v 7 10 5
v 7 10 -5
v -6 0 5
v -6 2 5
v -6 3 5
v -6 10 5
v -5 2 5
v -5 3 5
v -4 0 5
v -4 1 5
v -4 2 5
v -4 3 5
v -4 9 5
v 6 2 5
v 6 3 5
v 6 9 5
v 7 1 5
v 7 2 5
v 7 10 5
v -7 3 -4
v -7 4 -4
v -6 3 -4
v -6 4 -4
v -6 9 -4
v -5 0 -4
v -5 1 -4
v -5 4 -4
v -5 9 -4
v -4 0 -4
v -4 1 -4
v -4 2 -4
v 5 1 -4
v 5 2 -4
v -6 4 4
v -6 9 4
v -5 0 4
v -5 1 4
v -5 4 4
v -5 9 4
v -4 0 4
v -4 1 4
v -4 2 4
v 5 1 4
v 5 2 4
v -7 3 -5
v -7 4 -5
v -6 0 -5
v -6 2 -5
v -6 3 -5
v -6 4 -5
v -6 10 -5
v -5 2 -5
v -5 3 -5
v -4 0 -5
v -4 1 -5
v 7 1 -5
v 7 2 -5
v 7 10 -5
v -6 0 5
v -4 0 5
v -5 0 4
v -4 0 4
v -5 0 -4
v -4 0 -4
v -6 0 -5
v -4 0 -5
v -4 1 5
v 7 1 5
v -5 1 4
v -4 1 4
v 5 1 4
v 6 1 4
v -5 1 -4
v -4 1 -4
v 5 1 -4
v 6 1 -4
v -4 1 -5
v 7 1 -5
v -4 2 4
v 5 2 4
v -4 2 -4
v 5 2 -4
v -6 3 5
v -5 3 5
v -7 3 -4
v -6 3 -4
v -7 3 -5
v -6 3 -5
v -5 3 -5
v -6 9 4
v -5 9 4
v -6 9 -4
v -5 9 -4
v -6 2 5
v -5 2 5
v -6 2 -5
v -5 2 -5
v -6 4 4
v -5 4 4
v -7 4 -4
v -6 4 -4
v -5 4 -4
v -7 4 -5
v -6 4 -5
v -6 10 5
v 7 10 5
v -6 10 -5
v 7 10 -5

# faces
f 3/3/1 2/3/1 1/3/1
f 4/3/1 2/3/1 3/3/1
f 7/5/1 6/5/1 5/5/1
f 8/5/1 6/5/1 7/5/1
f 11/4/1 10/4/1 9/4/1
f 12/4/1 10/4/1 11/4/1
f 14/4/1 11/4/1 9/4/1
f 15/4/1 13/4/1 12/4/1
f 16/4/1 14/4/1 9/4/1
f 16/4/1 15/4/1 14/4/1
f 17/4/1 13/4/1 15/4/1
f 17/4/1 15/4/1 16/4/1
f 20/4/1 19/4/1 18/4/1
f 21/4/1 19/4/1 20/4/1
f 24/4/1 23/4/1 22/4/1
f 25/4/1 23/4/1 24/4/1
f 28/2/1 27/2/1 26/2/1
f 29/2/1 27/2/1 28/2/1
f 30/5/2 31/5/2 32/5/2
f 32/5/2 31/5/2 33/5/2
f 34/5/2 35/5/2 38/5/2
f 38/5/2 35/5/2 39/5/2
f 36/5/2 37/5/2 40/5/2
f 40/5/2 37/5/2 41/5/2
f 39/5/2 40/5/2 42/5/2
f 42/5/2 40/5/2 43/5/2
f 44/5/2 45/5/2 46/5/2
f 46/5/2 45/5/2 47/5/2
f 46/4/2 47/4/2 48/4/2
f 48/4/2 47/4/2 49/4/2
f 54/5/3 51/5/3 50/5/3
f 55/4/3 53/4/3 52/4/3
f 56/5/3 54/5/3 50/5/3
f 57/5/3 54/5/3 56/5/3
f 58/4/3 55/4/3 54/4/3
f 58/5/3 54/5/3 57/5/3
f 59/4/3 53/4/3 55/4/3
f 59/4/3 55/4/3 58/4/3
f 60/4/3 53/4/3 59/4/3
f 61/5/3 58/5/3 57/5/3
f 61/3/3 59/3/3 58/3/3
f 62/1/3 60/1/3 59/1/3
f 62/3/3 59/3/3 61/3/3
f 63/4/3 53/4/3 60/4/3
f 63/1/3 60/1/3 62/1/3
f 64/5/3 61/5/3 57/5/3
f 65/4/3 62/4/3 61/4/3
f 65/5/3 61/5/3 64/5/3
f 65/4/3 63/4/3 62/4/3
f 66/4/3 53/4/3 63/4/3
f 66/4/3 63/4/3 65/4/3
f 69/3/3 68/3/3 67/3/3
f 70/3/3 68/3/3 69/3/3
f 74/4/3 71/4/3 70/4/3
f 75/4/3 71/4/3 74/4/3
f 76/5/3 73/5/3 72/5/3
f 77/5/3 73/5/3 76/5/3
f 79/5/3 78/5/3 77/5/3
f 80/5/3 78/5/3 79/5/3
f 81/4/4 82/4/4 85/4/4
f 85/4/4 82/4/4 86/4/4
f 83/5/4 84/5/4 87/5/4
f 87/5/4 84/5/4 88/5/4
f 88/5/4 89/5/4 90/5/4
f 90/5/4 89/5/4 91/5/4
f 92/3/4 93/3/4 96/3/4
f 96/3/4 93/3/4 97/3/4
f 94/5/4 95/5/4 99/5/4
f 97/4/4 98/4/4 100/4/4
f 96/4/4 97/4/4 100/4/4
f 94/5/4 99/5/4 101/5/4
f 101/5/4 99/5/4 102/5/4
f 102/5/4 99/5/4 103/5/4
f 99/4/4 100/4/4 104/4/4
f 103/5/4 99/5/4 104/5/4
f 100/4/4 98/4/4 105/4/4
f 104/4/4 100/4/4 105/4/4
f 108/5/5 107/5/5 106/5/5
f 109/5/5 107/5/5 108/5/5
f 110/5/5 108/5/5 106/5/5
f 112/5/5 110/5/5 106/5/5
f 112/5/5 111/5/5 110/5/5
f 113/5/5 111/5/5 112/5/5
f 117/5/5 115/5/5 114/5/5
f 118/5/5 115/5/5 117/5/5
f 119/5/5 115/5/5 118/5/5
f 120/5/5 117/5/5 116/5/5
f 121/5/5 117/5/5 120/5/5
f 122/2/5 119/2/5 118/2/5
f 123/5/5 115/5/5 119/5/5
f 123/2/5 119/2/5 122/2/5
f 124/5/5 122/5/5 121/5/5
f 124/5/5 123/5/5 122/5/5
f 125/5/5 115/5/5 123/5/5
f 125/5/5 123/5/5 124/5/5
f 128/3/5 127/3/5 126/3/5
f 129/3/5 127/3/5 128/3/5
f 133/4/5 131/4/5 130/4/5
f 134/3/5 133/3/5 132/3/5
f 135/4/5 131/4/5 133/4/5
f 135/3/5 133/3/5 134/3/5
f 136/4/5 131/4/5 135/4/5
f 139/4/5 138/4/5 137/4/5
f 140/4/5 138/4/5 139/4/5
f 141/5/6 142/5/6 143/5/6
f 143/5/6 142/5/6 144/5/6
f 145/4/6 146/4/6 148/4/6
f 148/4/6 146/4/6 149/4/6
f 147/3/6 148/3/6 150/3/6
f 150/3/6 148/3/6 151/3/6
f 152/4/6 153/4/6 154/4/6
f 154/4/6 153/4/6 155/4/6
