# MagicaVoxel @ Ephtracy

# group
g map-206

# material
mtllib map-206.mtl
usemtl palette

# normals
vn -1 0 0
vn 1 0 0
vn 0 0 1
vn 0 0 -1
vn 0 -1 0
vn 0 1 0

# texcoords
vt 0.958984 0.5
vt 0.994141 0.5

# verts
v -11 15 0.5
v -11 15 -0.5
v -11 27 0.5
v -11 27 -0.5
v 11 15 0.5
v 11 15 -0.5
v 11 27 0.5
v 11 27 -0.5
v -11 15 0.5
v -11 27 0.5
v -8 21 0.5
v -8 22 0.5
v -7 20 0.5
v -7 21 0.5
v -7 22 0.5
v -7 23 0.5
v -6 19 0.5
v -6 20 0.5
v -6 21 0.5
v -6 22 0.5
v -6 23 0.5
v -6 24 0.5
v -5 18 0.5
v -5 19 0.5
v -5 20 0.5
v -5 23 0.5
v -5 24 0.5
v -5 25 0.5
v -4 18 0.5
v -4 19 0.5
v -4 20 0.5
v -4 21 0.5
v -4 22 0.5
v -4 23 0.5
v -4 24 0.5
v -4 25 0.5
v -3 19 0.5
v -3 20 0.5
v -3 21 0.5
v -3 22 0.5
v -3 23 0.5
v -3 24 0.5
v -2 19 0.5
v -2 20 0.5
v -2 21 0.5
v -2 22 0.5
v -2 23 0.5
v -2 24 0.5
v -1 18 0.5
v -1 19 0.5
v -1 20 0.5
v -1 21 0.5
v -1 22 0.5
v -1 23 0.5
v -1 24 0.5
v -1 25 0.5
v 0 18 0.5
v 0 19 0.5
v 0 20 0.5
v 0 21 0.5
v 0 22 0.5
v 0 23 0.5
v 0 24 0.5
v 0 25 0.5
v 1 19 0.5
v 1 20 0.5
v 1 21 0.5
v 1 22 0.5
v 1 23 0.5
v 1 24 0.5
v 2 19 0.5
v 2 20 0.5
v 2 21 0.5
v 2 22 0.5
v 2 23 0.5
v 2 24 0.5
v 3 18 0.5
v 3 19 0.5
v 3 20 0.5
v 3 21 0.5
v 3 22 0.5
v 3 23 0.5
v 3 24 0.5
v 3 25 0.5
v 4 18 0.5
v 4 19 0.5
v 4 20 0.5
v 4 23 0.5
v 4 24 0.5
v 4 25 0.5
v 5 19 0.5
v 5 20 0.5
v 5 21 0.5
v 5 22 0.5
v 5 23 0.5
v 5 24 0.5
v 6 20 0.5
v 6 21 0.5
v 6 22 0.5
v 6 23 0.5
v 7 21 0.5
v 7 22 0.5
v 11 15 0.5
v 11 27 0.5
v -11 15 -0.5
v -11 27 -0.5
v -8 21 -0.5
v -8 22 -0.5
v -7 20 -0.5
v -7 21 -0.5
v -7 22 -0.5
v -7 23 -0.5
v -6 19 -0.5
v -6 20 -0.5
v -6 21 -0.5
v -6 22 -0.5
v -6 23 -0.5
v -6 24 -0.5
v -5 18 -0.5
v -5 19 -0.5
v -5 20 -0.5
v -5 23 -0.5
v -5 24 -0.5
v -5 25 -0.5
v -4 18 -0.5
v -4 19 -0.5
v -4 20 -0.5
v -4 21 -0.5
v -4 22 -0.5
v -4 23 -0.5
v -4 24 -0.5
v -4 25 -0.5
v -3 19 -0.5
v -3 20 -0.5
v -3 21 -0.5
v -3 22 -0.5
v -3 23 -0.5
v -3 24 -0.5
v -2 19 -0.5
v -2 20 -0.5
v -2 21 -0.5
v -2 22 -0.5
v -2 23 -0.5
v -2 24 -0.5
v -1 18 -0.5
v -1 19 -0.5
v -1 20 -0.5
v -1 21 -0.5
v -1 22 -0.5
v -1 23 -0.5
v -1 24 -0.5
v -1 25 -0.5
v 0 18 -0.5
v 0 19 -0.5
v 0 20 -0.5
v 0 21 -0.5
v 0 22 -0.5
v 0 23 -0.5
v 0 24 -0.5
v 0 25 -0.5
v 1 19 -0.5
v 1 20 -0.5
v 1 21 -0.5
v 1 22 -0.5
v 1 23 -0.5
v 1 24 -0.5
v 2 19 -0.5
v 2 20 -0.5
v 2 21 -0.5
v 2 22 -0.5
v 2 23 -0.5
v 2 24 -0.5
v 3 18 -0.5
v 3 19 -0.5
v 3 20 -0.5
v 3 21 -0.5
v 3 22 -0.5
v 3 23 -0.5
v 3 24 -0.5
v 3 25 -0.5
v 4 18 -0.5
v 4 19 -0.5
v 4 20 -0.5
v 4 23 -0.5
v 4 24 -0.5
v 4 25 -0.5
v 5 19 -0.5
v 5 20 -0.5
v 5 21 -0.5
v 5 22 -0.5
v 5 23 -0.5
v 5 24 -0.5
v 6 20 -0.5
v 6 21 -0.5
v 6 22 -0.5
v 6 23 -0.5
v 7 21 -0.5
v 7 22 -0.5
v 11 15 -0.5
v 11 27 -0.5
v -11 15 0.5
v 11 15 0.5
v -11 15 -0.5
v 11 15 -0.5
v -11 27 0.5
v 11 27 0.5
v -11 27 -0.5
v 11 27 -0.5

# faces
f 3/2/1 2/2/1 1/2/1
f 4/2/1 2/2/1 3/2/1
f 5/2/2 6/2/2 7/2/2
f 7/2/2 6/2/2 8/2/2
f 11/2/3 10/2/3 9/2/3
f 12/2/3 10/2/3 11/2/3
f 13/2/3 11/2/3 9/2/3
f 14/1/3 12/1/3 11/1/3
f 14/2/3 11/2/3 13/2/3
f 15/2/3 10/2/3 12/2/3
f 15/1/3 12/1/3 14/1/3
f 16/2/3 10/2/3 15/2/3
f 17/2/3 13/2/3 9/2/3
f 18/1/3 14/1/3 13/1/3
f 18/2/3 13/2/3 17/2/3
f 19/2/3 15/2/3 14/2/3
f 19/1/3 14/1/3 18/1/3
f 20/1/3 16/1/3 15/1/3
f 20/2/3 15/2/3 19/2/3
f 21/2/3 10/2/3 16/2/3
f 21/1/3 16/1/3 20/1/3
f 22/2/3 10/2/3 21/2/3
f 23/2/3 17/2/3 9/2/3
f 24/1/3 18/1/3 17/1/3
f 24/2/3 17/2/3 23/2/3
f 25/2/3 20/2/3 19/2/3
f 25/1/3 18/1/3 24/1/3
f 25/2/3 19/2/3 18/2/3
f 25/2/3 21/2/3 20/2/3
f 26/1/3 22/1/3 21/1/3
f 26/2/3 21/2/3 25/2/3
f 27/2/3 10/2/3 22/2/3
f 27/1/3 22/1/3 26/1/3
f 28/2/3 10/2/3 27/2/3
f 29/1/3 24/1/3 23/1/3
f 29/2/3 23/2/3 9/2/3
f 30/2/3 26/2/3 25/2/3
f 30/1/3 24/1/3 29/1/3
f 30/2/3 25/2/3 24/2/3
f 30/2/3 27/2/3 26/2/3
f 31/2/3 27/2/3 30/2/3
f 32/2/3 27/2/3 31/2/3
f 33/2/3 27/2/3 32/2/3
f 34/2/3 27/2/3 33/2/3
f 35/1/3 28/1/3 27/1/3
f 35/2/3 27/2/3 34/2/3
f 36/2/3 10/2/3 28/2/3
f 36/1/3 28/1/3 35/1/3
f 37/2/3 30/2/3 29/2/3
f 37/1/3 31/1/3 30/1/3
f 38/2/3 32/2/3 31/2/3
f 38/1/3 31/1/3 37/1/3
f 39/1/3 33/1/3 32/1/3
f 39/2/3 32/2/3 38/2/3
f 40/2/3 34/2/3 33/2/3
f 40/1/3 33/1/3 39/1/3
f 41/1/3 35/1/3 34/1/3
f 41/2/3 34/2/3 40/2/3
f 42/2/3 36/2/3 35/2/3
f 42/1/3 35/1/3 41/1/3
f 43/2/3 37/2/3 29/2/3
f 43/2/3 38/2/3 37/2/3
f 44/1/3 39/1/3 38/1/3
f 44/2/3 38/2/3 43/2/3
f 45/2/3 40/2/3 39/2/3
f 45/1/3 39/1/3 44/1/3
f 46/1/3 41/1/3 40/1/3
f 46/2/3 40/2/3 45/2/3
f 47/2/3 42/2/3 41/2/3
f 47/1/3 41/1/3 46/1/3
f 48/2/3 36/2/3 42/2/3
f 48/2/3 42/2/3 47/2/3
f 49/2/3 29/2/3 9/2/3
f 49/2/3 43/2/3 29/2/3
f 50/1/3 44/1/3 43/1/3
f 50/2/3 43/2/3 49/2/3
f 51/2/3 45/2/3 44/2/3
f 51/1/3 44/1/3 50/1/3
f 52/1/3 46/1/3 45/1/3
f 52/2/3 45/2/3 51/2/3
f 53/2/3 47/2/3 46/2/3
f 53/1/3 46/1/3 52/1/3
f 54/1/3 48/1/3 47/1/3
f 54/2/3 47/2/3 53/2/3
f 55/2/3 36/2/3 48/2/3
f 55/1/3 48/1/3 54/1/3
f 56/2/3 10/2/3 36/2/3
f 56/2/3 36/2/3 55/2/3
f 57/2/3 49/2/3 9/2/3
f 57/1/3 50/1/3 49/1/3
f 58/2/3 54/2/3 53/2/3
f 58/1/3 50/1/3 57/1/3
f 58/2/3 53/2/3 52/2/3
f 58/2/3 51/2/3 50/2/3
f 58/2/3 52/2/3 51/2/3
f 58/2/3 55/2/3 54/2/3
f 59/2/3 55/2/3 58/2/3
f 60/2/3 55/2/3 59/2/3
f 61/2/3 55/2/3 60/2/3
f 62/2/3 55/2/3 61/2/3
f 63/1/3 56/1/3 55/1/3
f 63/2/3 55/2/3 62/2/3
f 64/2/3 10/2/3 56/2/3
f 64/1/3 56/1/3 63/1/3
f 65/2/3 58/2/3 57/2/3
f 65/1/3 59/1/3 58/1/3
f 66/2/3 60/2/3 59/2/3
f 66/1/3 59/1/3 65/1/3
f 67/1/3 61/1/3 60/1/3
f 67/2/3 60/2/3 66/2/3
f 68/2/3 62/2/3 61/2/3
f 68/1/3 61/1/3 67/1/3
f 69/1/3 63/1/3 62/1/3
f 69/2/3 62/2/3 68/2/3
f 70/2/3 64/2/3 63/2/3
f 70/1/3 63/1/3 69/1/3
f 71/2/3 65/2/3 57/2/3
f 71/2/3 66/2/3 65/2/3
f 72/1/3 67/1/3 66/1/3
f 72/2/3 66/2/3 71/2/3
f 73/2/3 68/2/3 67/2/3
f 73/1/3 67/1/3 72/1/3
f 74/1/3 69/1/3 68/1/3
f 74/2/3 68/2/3 73/2/3
f 75/2/3 70/2/3 69/2/3
f 75/1/3 69/1/3 74/1/3
f 76/2/3 64/2/3 70/2/3
f 76/2/3 70/2/3 75/2/3
f 77/2/3 57/2/3 9/2/3
f 77/2/3 71/2/3 57/2/3
f 78/1/3 72/1/3 71/1/3
f 78/2/3 71/2/3 77/2/3
f 79/2/3 73/2/3 72/2/3
f 79/1/3 72/1/3 78/1/3
f 80/1/3 74/1/3 73/1/3
f 80/2/3 73/2/3 79/2/3
f 81/2/3 75/2/3 74/2/3
f 81/1/3 74/1/3 80/1/3
f 82/1/3 76/1/3 75/1/3
f 82/2/3 75/2/3 81/2/3
f 83/2/3 64/2/3 76/2/3
f 83/1/3 76/1/3 82/1/3
f 84/2/3 10/2/3 64/2/3
f 84/2/3 64/2/3 83/2/3
f 85/2/3 77/2/3 9/2/3
f 85/1/3 78/1/3 77/1/3
f 86/2/3 82/2/3 81/2/3
f 86/1/3 78/1/3 85/1/3
f 86/2/3 81/2/3 80/2/3
f 86/2/3 79/2/3 78/2/3
f 86/2/3 80/2/3 79/2/3
f 86/2/3 83/2/3 82/2/3
f 87/2/3 83/2/3 86/2/3
f 88/2/3 83/2/3 87/2/3
f 89/1/3 84/1/3 83/1/3
f 89/2/3 83/2/3 88/2/3
f 90/2/3 10/2/3 84/2/3
f 90/1/3 84/1/3 89/1/3
f 91/2/3 86/2/3 85/2/3
f 91/1/3 87/1/3 86/1/3
f 92/2/3 88/2/3 87/2/3
f 92/1/3 87/1/3 91/1/3
f 93/2/3 88/2/3 92/2/3
f 94/2/3 88/2/3 93/2/3
f 95/1/3 89/1/3 88/1/3
f 95/2/3 88/2/3 94/2/3
f 96/2/3 90/2/3 89/2/3
f 96/1/3 89/1/3 95/1/3
f 97/2/3 92/2/3 91/2/3
f 97/1/3 93/1/3 92/1/3
f 98/2/3 94/2/3 93/2/3
f 98/1/3 93/1/3 97/1/3
f 99/1/3 95/1/3 94/1/3
f 99/2/3 94/2/3 98/2/3
f 100/2/3 96/2/3 95/2/3
f 100/1/3 95/1/3 99/1/3
f 101/2/3 98/2/3 97/2/3
f 101/1/3 99/1/3 98/1/3
f 102/2/3 100/2/3 99/2/3
f 102/1/3 99/1/3 101/1/3
f 103/2/3 85/2/3 9/2/3
f 103/2/3 97/2/3 91/2/3
f 103/2/3 102/2/3 101/2/3
f 103/2/3 101/2/3 97/2/3
f 103/2/3 91/2/3 85/2/3
f 104/2/3 100/2/3 102/2/3
f 104/2/3 102/2/3 103/2/3
f 104/2/3 90/2/3 96/2/3
f 104/2/3 10/2/3 90/2/3
f 104/2/3 96/2/3 100/2/3
f 105/2/4 106/2/4 107/2/4
f 107/2/4 106/2/4 108/2/4
f 105/2/4 107/2/4 109/2/4
f 107/1/4 108/1/4 110/1/4
f 109/2/4 107/2/4 110/2/4
f 108/2/4 106/2/4 111/2/4
f 110/1/4 108/1/4 111/1/4
f 111/2/4 106/2/4 112/2/4
f 105/2/4 109/2/4 113/2/4
f 109/1/4 110/1/4 114/1/4
f 113/2/4 109/2/4 114/2/4
f 110/2/4 111/2/4 115/2/4
f 114/1/4 110/1/4 115/1/4
f 111/1/4 112/1/4 116/1/4
f 115/2/4 111/2/4 116/2/4
f 112/2/4 106/2/4 117/2/4
f 116/1/4 112/1/4 117/1/4
f 117/2/4 106/2/4 118/2/4
f 105/2/4 113/2/4 119/2/4
f 113/1/4 114/1/4 120/1/4
f 119/2/4 113/2/4 120/2/4
f 115/2/4 116/2/4 121/2/4
f 120/1/4 114/1/4 121/1/4
f 114/2/4 115/2/4 121/2/4
f 116/2/4 117/2/4 121/2/4
f 117/1/4 118/1/4 122/1/4
f 121/2/4 117/2/4 122/2/4
f 118/2/4 106/2/4 123/2/4
f 122/1/4 118/1/4 123/1/4
f 123/2/4 106/2/4 124/2/4
f 119/1/4 120/1/4 125/1/4
f 105/2/4 119/2/4 125/2/4
f 121/2/4 122/2/4 126/2/4
f 125/1/4 120/1/4 126/1/4
f 120/2/4 121/2/4 126/2/4
f 122/2/4 123/2/4 126/2/4
f 126/2/4 123/2/4 127/2/4
f 127/2/4 123/2/4 128/2/4
f 128/2/4 123/2/4 129/2/4
f 129/2/4 123/2/4 130/2/4
f 123/1/4 124/1/4 131/1/4
f 130/2/4 123/2/4 131/2/4
f 124/2/4 106/2/4 132/2/4
f 131/1/4 124/1/4 132/1/4
f 125/2/4 126/2/4 133/2/4
f 126/1/4 127/1/4 133/1/4
f 127/2/4 128/2/4 134/2/4
f 133/1/4 127/1/4 134/1/4
f 128/1/4 129/1/4 135/1/4
f 134/2/4 128/2/4 135/2/4
f 129/2/4 130/2/4 136/2/4
f 135/1/4 129/1/4 136/1/4
f 130/1/4 131/1/4 137/1/4
f 136/2/4 130/2/4 137/2/4
f 131/2/4 132/2/4 138/2/4
f 137/1/4 131/1/4 138/1/4
f 125/2/4 133/2/4 139/2/4
f 133/2/4 134/2/4 139/2/4
f 134/1/4 135/1/4 140/1/4
f 139/2/4 134/2/4 140/2/4
f 135/2/4 136/2/4 141/2/4
f 140/1/4 135/1/4 141/1/4
f 136/1/4 137/1/4 142/1/4
f 141/2/4 136/2/4 142/2/4
f 137/2/4 138/2/4 143/2/4
f 142/1/4 137/1/4 143/1/4
f 138/2/4 132/2/4 144/2/4
f 143/2/4 138/2/4 144/2/4
f 105/2/4 125/2/4 145/2/4
f 125/2/4 139/2/4 145/2/4
f 139/1/4 140/1/4 146/1/4
f 145/2/4 139/2/4 146/2/4
f 140/2/4 141/2/4 147/2/4
f 146/1/4 140/1/4 147/1/4
f 141/1/4 142/1/4 148/1/4
f 147/2/4 141/2/4 148/2/4
f 142/2/4 143/2/4 149/2/4
f 148/1/4 142/1/4 149/1/4
f 143/1/4 144/1/4 150/1/4
f 149/2/4 143/2/4 150/2/4
f 144/2/4 132/2/4 151/2/4
f 150/1/4 144/1/4 151/1/4
f 132/2/4 106/2/4 152/2/4
f 151/2/4 132/2/4 152/2/4
f 105/2/4 145/2/4 153/2/4
f 145/1/4 146/1/4 153/1/4
f 149/2/4 150/2/4 154/2/4
f 153/1/4 146/1/4 154/1/4
f 148/2/4 149/2/4 154/2/4
f 146/2/4 147/2/4 154/2/4
f 147/2/4 148/2/4 154/2/4
f 150/2/4 151/2/4 154/2/4
f 154/2/4 151/2/4 155/2/4
f 155/2/4 151/2/4 156/2/4
f 156/2/4 151/2/4 157/2/4
f 157/2/4 151/2/4 158/2/4
f 151/1/4 152/1/4 159/1/4
f 158/2/4 151/2/4 159/2/4
f 152/2/4 106/2/4 160/2/4
f 159/1/4 152/1/4 160/1/4
f 153/2/4 154/2/4 161/2/4
f 154/1/4 155/1/4 161/1/4
f 155/2/4 156/2/4 162/2/4
f 161/1/4 155/1/4 162/1/4
f 156/1/4 157/1/4 163/1/4
f 162/2/4 156/2/4 163/2/4
f 157/2/4 158/2/4 164/2/4
f 163/1/4 157/1/4 164/1/4
f 158/1/4 159/1/4 165/1/4
f 164/2/4 158/2/4 165/2/4
f 159/2/4 160/2/4 166/2/4
f 165/1/4 159/1/4 166/1/4
f 153/2/4 161/2/4 167/2/4
f 161/2/4 162/2/4 167/2/4
f 162/1/4 163/1/4 168/1/4
f 167/2/4 162/2/4 168/2/4
f 163/2/4 164/2/4 169/2/4
f 168/1/4 163/1/4 169/1/4
f 164/1/4 165/1/4 170/1/4
f 169/2/4 164/2/4 170/2/4
f 165/2/4 166/2/4 171/2/4
f 170/1/4 165/1/4 171/1/4
f 166/2/4 160/2/4 172/2/4
f 171/2/4 166/2/4 172/2/4
f 105/2/4 153/2/4 173/2/4
f 153/2/4 167/2/4 173/2/4
f 167/1/4 168/1/4 174/1/4
f 173/2/4 167/2/4 174/2/4
f 168/2/4 169/2/4 175/2/4
f 174/1/4 168/1/4 175/1/4
f 169/1/4 170/1/4 176/1/4
f 175/2/4 169/2/4 176/2/4
f 170/2/4 171/2/4 177/2/4
f 176/1/4 170/1/4 177/1/4
f 171/1/4 172/1/4 178/1/4
f 177/2/4 171/2/4 178/2/4
f 172/2/4 160/2/4 179/2/4
f 178/1/4 172/1/4 179/1/4
f 160/2/4 106/2/4 180/2/4
f 179/2/4 160/2/4 180/2/4
f 105/2/4 173/2/4 181/2/4
f 173/1/4 174/1/4 181/1/4
f 177/2/4 178/2/4 182/2/4
f 181/1/4 174/1/4 182/1/4
f 176/2/4 177/2/4 182/2/4
f 174/2/4 175/2/4 182/2/4
f 175/2/4 176/2/4 182/2/4
f 178/2/4 179/2/4 182/2/4
f 182/2/4 179/2/4 183/2/4
f 183/2/4 179/2/4 184/2/4
f 179/1/4 180/1/4 185/1/4
f 184/2/4 179/2/4 185/2/4
f 180/2/4 106/2/4 186/2/4
f 185/1/4 180/1/4 186/1/4
f 181/2/4 182/2/4 187/2/4
f 182/1/4 183/1/4 187/1/4
f 183/2/4 184/2/4 188/2/4
f 187/1/4 183/1/4 188/1/4
f 188/2/4 184/2/4 189/2/4
f 189/2/4 184/2/4 190/2/4
f 184/1/4 185/1/4 191/1/4
f 190/2/4 184/2/4 191/2/4
f 185/2/4 186/2/4 192/2/4
f 191/1/4 185/1/4 192/1/4
f 187/2/4 188/2/4 193/2/4
f 188/1/4 189/1/4 193/1/4
f 189/2/4 190/2/4 194/2/4
f 193/1/4 189/1/4 194/1/4
f 190/1/4 191/1/4 195/1/4
f 194/2/4 190/2/4 195/2/4
f 191/2/4 192/2/4 196/2/4
f 195/1/4 191/1/4 196/1/4
f 193/2/4 194/2/4 197/2/4
f 194/1/4 195/1/4 197/1/4
f 195/2/4 196/2/4 198/2/4
f 197/1/4 195/1/4 198/1/4
f 105/2/4 181/2/4 199/2/4
f 187/2/4 193/2/4 199/2/4
f 197/2/4 198/2/4 199/2/4
f 193/2/4 197/2/4 199/2/4
f 181/2/4 187/2/4 199/2/4
f 198/2/4 196/2/4 200/2/4
f 199/2/4 198/2/4 200/2/4
f 192/2/4 186/2/4 200/2/4
f 186/2/4 106/2/4 200/2/4
f 196/2/4 192/2/4 200/2/4
f 203/2/5 202/2/5 201/2/5
f 204/2/5 202/2/5 203/2/5
f 205/2/6 206/2/6 207/2/6
f 207/2/6 206/2/6 208/2/6
