# MagicaVoxel @ Ephtracy

# group
g map-24

# material
mtllib map-24.mtl
usemtl palette

# normals
vn -1 0 0
vn 1 0 0
vn 0 0 1
vn 0 0 -1
vn 0 -1 0
vn 0 1 0

# texcoords
vt 0.224609 0.5
vt 0.287109 0.5
vt 0.318359 0.5
vt 0.482422 0.5
vt 0.541016 0.5
vt 0.888672 0.5
vt 0.958984 0.5

# verts
v -0.5 15 6
v -0.5 15 -6
v -0.5 16 5
v -0.5 16 3
v -0.5 16 -2
v -0.5 16 -5
v -0.5 17 -3
v -0.5 17 -5
v -0.5 19 3
v -0.5 19 -2
v -0.5 19 -3
v -0.5 19 -4
v -0.5 19 -5
v -0.5 20 2
v -0.5 20 -1
v -0.5 20 -3
v -0.5 20 -4
v -0.5 21 -3
v -0.5 21 -4
v -0.5 21 -5
v -0.5 22 -3
v -0.5 22 -4
v -0.5 22 -5
v -0.5 23 2
v -0.5 23 -1
v -0.5 23 -3
v -0.5 23 -4
v -0.5 23 -5
v -0.5 24 -4
v -0.5 24 -5
v -0.5 26 5
v -0.5 26 -5
v -0.5 27 6
v -0.5 27 -6
v 0.5 15 6
v 0.5 15 -6
v 0.5 16 5
v 0.5 16 3
v 0.5 16 -2
v 0.5 16 -5
v 0.5 17 -3
v 0.5 17 -5
v 0.5 19 3
v 0.5 19 -2
v 0.5 19 -3
v 0.5 19 -4
v 0.5 19 -5
v 0.5 20 2
v 0.5 20 -1
v 0.5 20 -3
v 0.5 20 -4
v 0.5 21 -3
v 0.5 21 -4
v 0.5 21 -5
v 0.5 22 -3
v 0.5 22 -4
v 0.5 22 -5
v 0.5 23 2
v 0.5 23 -1
v 0.5 23 -3
v 0.5 23 -4
v 0.5 23 -5
v 0.5 24 -4
v 0.5 24 -5
v 0.5 26 5
v 0.5 26 -5
v 0.5 27 6
v 0.5 27 -6
v -0.5 15 6
v -0.5 27 6
v 0.5 15 6
v 0.5 27 6
v -0.5 15 -6
v -0.5 27 -6
v 0.5 15 -6
v 0.5 27 -6
v -0.5 15 6
v 0.5 15 6
v -0.5 15 -6
v 0.5 15 -6
v -0.5 27 6
v 0.5 27 6
v -0.5 27 -6
v 0.5 27 -6

# faces
f 3/3/1 2/3/1 1/3/1
f 4/3/1 2/3/1 3/3/1
f 5/3/1 2/3/1 4/3/1
f 6/3/1 2/3/1 5/3/1
f 7/7/1 6/7/1 5/7/1
f 8/3/1 2/3/1 6/3/1
f 8/7/1 6/7/1 7/7/1
f 9/7/1 4/7/1 3/7/1
f 9/1/1 5/1/1 4/1/1
f 10/7/1 7/7/1 5/7/1
f 10/1/1 5/1/1 9/1/1
f 11/2/1 8/2/1 7/2/1
f 11/7/1 7/7/1 10/7/1
f 12/2/1 8/2/1 11/2/1
f 13/3/1 2/3/1 8/3/1
f 13/2/1 8/2/1 12/2/1
f 14/7/1 12/7/1 11/7/1
f 14/7/1 10/7/1 9/7/1
f 14/7/1 11/7/1 10/7/1
f 15/7/1 12/7/1 14/7/1
f 16/7/1 12/7/1 15/7/1
f 17/5/1 13/5/1 12/5/1
f 17/7/1 12/7/1 16/7/1
f 18/7/1 16/7/1 15/7/1
f 18/5/1 17/5/1 16/5/1
f 19/5/1 13/5/1 17/5/1
f 19/5/1 17/5/1 18/5/1
f 20/3/1 2/3/1 13/3/1
f 20/5/1 13/5/1 19/5/1
f 21/7/1 19/7/1 18/7/1
f 21/7/1 18/7/1 15/7/1
f 22/6/1 20/6/1 19/6/1
f 22/7/1 19/7/1 21/7/1
f 23/3/1 2/3/1 20/3/1
f 23/6/1 20/6/1 22/6/1
f 24/7/1 14/7/1 9/7/1
f 24/2/1 15/2/1 14/2/1
f 25/7/1 21/7/1 15/7/1
f 25/2/1 15/2/1 24/2/1
f 26/6/1 22/6/1 21/6/1
f 26/7/1 21/7/1 25/7/1
f 27/4/1 23/4/1 22/4/1
f 27/6/1 22/6/1 26/6/1
f 28/3/1 2/3/1 23/3/1
f 28/4/1 23/4/1 27/4/1
f 29/7/1 25/7/1 24/7/1
f 29/7/1 27/7/1 26/7/1
f 29/6/1 28/6/1 27/6/1
f 29/7/1 26/7/1 25/7/1
f 30/3/1 2/3/1 28/3/1
f 30/6/1 28/6/1 29/6/1
f 31/3/1 3/3/1 1/3/1
f 31/7/1 29/7/1 24/7/1
f 31/7/1 30/7/1 29/7/1
f 31/7/1 9/7/1 3/7/1
f 31/7/1 24/7/1 9/7/1
f 32/3/1 2/3/1 30/3/1
f 32/7/1 30/7/1 31/7/1
f 33/3/1 31/3/1 1/3/1
f 33/3/1 32/3/1 31/3/1
f 34/3/1 2/3/1 32/3/1
f 34/3/1 32/3/1 33/3/1
f 35/3/2 36/3/2 37/3/2
f 37/3/2 36/3/2 38/3/2
f 38/3/2 36/3/2 39/3/2
f 39/3/2 36/3/2 40/3/2
f 39/7/2 40/7/2 41/7/2
f 40/3/2 36/3/2 42/3/2
f 41/7/2 40/7/2 42/7/2
f 37/7/2 38/7/2 43/7/2
f 38/1/2 39/1/2 43/1/2
f 39/7/2 41/7/2 44/7/2
f 43/1/2 39/1/2 44/1/2
f 41/2/2 42/2/2 45/2/2
f 44/7/2 41/7/2 45/7/2
f 45/2/2 42/2/2 46/2/2
f 42/3/2 36/3/2 47/3/2
f 46/2/2 42/2/2 47/2/2
f 45/7/2 46/7/2 48/7/2
f 43/7/2 44/7/2 48/7/2
f 44/7/2 45/7/2 48/7/2
f 48/7/2 46/7/2 49/7/2
f 49/7/2 46/7/2 50/7/2
f 46/5/2 47/5/2 51/5/2
f 50/7/2 46/7/2 51/7/2
f 49/7/2 50/7/2 52/7/2
f 50/5/2 51/5/2 52/5/2
f 51/5/2 47/5/2 53/5/2
f 52/5/2 51/5/2 53/5/2
f 47/3/2 36/3/2 54/3/2
f 53/5/2 47/5/2 54/5/2
f 52/7/2 53/7/2 55/7/2
f 49/7/2 52/7/2 55/7/2
f 53/6/2 54/6/2 56/6/2
f 55/7/2 53/7/2 56/7/2
f 54/3/2 36/3/2 57/3/2
f 56/6/2 54/6/2 57/6/2
f 43/7/2 48/7/2 58/7/2
f 48/2/2 49/2/2 58/2/2
f 49/7/2 55/7/2 59/7/2
f 58/2/2 49/2/2 59/2/2
f 55/6/2 56/6/2 60/6/2
f 59/7/2 55/7/2 60/7/2
f 56/4/2 57/4/2 61/4/2
f 60/6/2 56/6/2 61/6/2
f 57/3/2 36/3/2 62/3/2
f 61/4/2 57/4/2 62/4/2
f 58/7/2 59/7/2 63/7/2
f 60/7/2 61/7/2 63/7/2
f 61/6/2 62/6/2 63/6/2
f 59/7/2 60/7/2 63/7/2
f 62/3/2 36/3/2 64/3/2
f 63/6/2 62/6/2 64/6/2
f 35/3/2 37/3/2 65/3/2
f 58/7/2 63/7/2 65/7/2
f 63/7/2 64/7/2 65/7/2
f 37/7/2 43/7/2 65/7/2
f 43/7/2 58/7/2 65/7/2
f 64/3/2 36/3/2 66/3/2
f 65/7/2 64/7/2 66/7/2
f 35/3/2 65/3/2 67/3/2
f 65/3/2 66/3/2 67/3/2
f 66/3/2 36/3/2 68/3/2
f 67/3/2 66/3/2 68/3/2
f 71/3/3 70/3/3 69/3/3
f 72/3/3 70/3/3 71/3/3
f 73/3/4 74/3/4 75/3/4
f 75/3/4 74/3/4 76/3/4
f 79/3/5 78/3/5 77/3/5
f 80/3/5 78/3/5 79/3/5
f 81/3/6 82/3/6 83/3/6
f 83/3/6 82/3/6 84/3/6
