# MagicaVoxel @ Ephtracy

# group
g map-17

# material
mtllib map-17.mtl
usemtl palette

# normals
vn -1 0 0
vn 1 0 0
vn 0 0 1
vn 0 0 -1
vn 0 -1 0
vn 0 1 0

# texcoords
vt 0.353516 0.5
vt 0.357422 0.5

# verts
v -56 0 56
v -56 0 -56
v -56 1 56
v -56 1 -56
v 56 0 56
v 56 0 -56
v 56 1 56
v 56 1 -56
v -56 0 56
v -56 1 56
v -52 0 56
v -52 1 56
v -48 0 56
v -48 1 56
v -44 0 56
v -44 1 56
v -40 0 56
v -40 1 56
v -36 0 56
v -36 1 56
v -32 0 56
v -32 1 56
v -28 0 56
v -28 1 56
v -24 0 56
v -24 1 56
v -20 0 56
v -20 1 56
v -16 0 56
v -16 1 56
v -12 0 56
v -12 1 56
v -8 0 56
v -8 1 56
v -4 0 56
v -4 1 56
v 0 0 56
v 0 1 56
v 4 0 56
v 4 1 56
v 8 0 56
v 8 1 56
v 12 0 56
v 12 1 56
v 16 0 56
v 16 1 56
v 20 0 56
v 20 1 56
v 24 0 56
v 24 1 56
v 28 0 56
v 28 1 56
v 32 0 56
v 32 1 56
v 36 0 56
v 36 1 56
v 40 0 56
v 40 1 56
v 44 0 56
v 44 1 56
v 48 0 56
v 48 1 56
v 52 0 56
v 52 1 56
v 56 0 56
v 56 1 56
v -56 0 -56
v -56 1 -56
v -52 0 -56
v -52 1 -56
v -48 0 -56
v -48 1 -56
v -44 0 -56
v -44 1 -56
v -40 0 -56
v -40 1 -56
v -36 0 -56
v -36 1 -56
v -32 0 -56
v -32 1 -56
v -28 0 -56
v -28 1 -56
v -24 0 -56
v -24 1 -56
v -20 0 -56
v -20 1 -56
v -16 0 -56
v -16 1 -56
v -12 0 -56
v -12 1 -56
v -8 0 -56
v -8 1 -56
v -4 0 -56
v -4 1 -56
v 0 0 -56
v 0 1 -56
v 4 0 -56
v 4 1 -56
v 8 0 -56
v 8 1 -56
v 12 0 -56
v 12 1 -56
v 16 0 -56
v 16 1 -56
v 20 0 -56
v 20 1 -56
v 24 0 -56
v 24 1 -56
v 28 0 -56
v 28 1 -56
v 32 0 -56
v 32 1 -56
v 36 0 -56
v 36 1 -56
v 40 0 -56
v 40 1 -56
v 44 0 -56
v 44 1 -56
v 48 0 -56
v 48 1 -56
v 52 0 -56
v 52 1 -56
v 56 0 -56
v 56 1 -56
v -56 0 56
v -52 0 56
v -48 0 56
v -44 0 56
v -40 0 56
v -36 0 56
v -32 0 56
v -28 0 56
v -24 0 56
v -20 0 56
v -16 0 56
v -12 0 56
v -8 0 56
v -4 0 56
v 0 0 56
v 4 0 56
v 8 0 56
v 12 0 56
v 16 0 56
v 20 0 56
v 24 0 56
v 28 0 56
v 32 0 56
v 36 0 56
v 40 0 56
v 44 0 56
v 48 0 56
v 52 0 56
v 56 0 56
v -56 0 -56
v -52 0 -56
v -48 0 -56
v -44 0 -56
v -40 0 -56
v -36 0 -56
v -32 0 -56
v -28 0 -56
v -24 0 -56
v -20 0 -56
v -16 0 -56
v -12 0 -56
v -8 0 -56
v -4 0 -56
v 0 0 -56
v 4 0 -56
v 8 0 -56
v 12 0 -56
v 16 0 -56
v 20 0 -56
v 24 0 -56
v 28 0 -56
v 32 0 -56
v 36 0 -56
v 40 0 -56
v 44 0 -56
v 48 0 -56
v 52 0 -56
v 56 0 -56
v -56 1 56
v -52 1 56
v -48 1 56
v -44 1 56
v -40 1 56
v -36 1 56
v -32 1 56
v -28 1 56
v -24 1 56
v -20 1 56
v -16 1 56
v -12 1 56
v -8 1 56
v -4 1 56
v 0 1 56
v 4 1 56
v 8 1 56
v 12 1 56
v 16 1 56
v 20 1 56
v 24 1 56
v 28 1 56
v 32 1 56
v 36 1 56
v 40 1 56
v 44 1 56
v 48 1 56
v 52 1 56
v 56 1 56
v -56 1 -56
v -52 1 -56
v -48 1 -56
v -44 1 -56
v -40 1 -56
v -36 1 -56
v -32 1 -56
v -28 1 -56
v -24 1 -56
v -20 1 -56
v -16 1 -56
v -12 1 -56
v -8 1 -56
v -4 1 -56
v 0 1 -56
v 4 1 -56
v 8 1 -56
v 12 1 -56
v 16 1 -56
v 20 1 -56
v 24 1 -56
v 28 1 -56
v 32 1 -56
v 36 1 -56
v 40 1 -56
v 44 1 -56
v 48 1 -56
v 52 1 -56
v 56 1 -56

# faces
f 3/1/1 2/1/1 1/1/1
f 4/1/1 2/1/1 3/1/1
f 5/2/2 6/2/2 7/2/2
f 7/2/2 6/2/2 8/2/2
f 11/1/3 10/1/3 9/1/3
f 12/1/3 10/1/3 11/1/3
f 13/2/3 12/2/3 11/2/3
f 14/2/3 12/2/3 13/2/3
f 15/1/3 14/1/3 13/1/3
f 16/1/3 14/1/3 15/1/3
f 17/2/3 16/2/3 15/2/3
f 18/2/3 16/2/3 17/2/3
f 19/1/3 18/1/3 17/1/3
f 20/1/3 18/1/3 19/1/3
f 21/2/3 20/2/3 19/2/3
f 22/2/3 20/2/3 21/2/3
f 23/1/3 22/1/3 21/1/3
f 24/1/3 22/1/3 23/1/3
f 25/2/3 24/2/3 23/2/3
f 26/2/3 24/2/3 25/2/3
f 27/1/3 26/1/3 25/1/3
f 28/1/3 26/1/3 27/1/3
f 29/2/3 28/2/3 27/2/3
f 30/2/3 28/2/3 29/2/3
f 31/1/3 30/1/3 29/1/3
f 32/1/3 30/1/3 31/1/3
f 33/2/3 32/2/3 31/2/3
f 34/2/3 32/2/3 33/2/3
f 35/1/3 34/1/3 33/1/3
f 36/1/3 34/1/3 35/1/3
f 37/2/3 36/2/3 35/2/3
f 38/2/3 36/2/3 37/2/3
f 39/1/3 38/1/3 37/1/3
f 40/1/3 38/1/3 39/1/3
f 41/2/3 40/2/3 39/2/3
f 42/2/3 40/2/3 41/2/3
f 43/1/3 42/1/3 41/1/3
f 44/1/3 42/1/3 43/1/3
f 45/2/3 44/2/3 43/2/3
f 46/2/3 44/2/3 45/2/3
f 47/1/3 46/1/3 45/1/3
f 48/1/3 46/1/3 47/1/3
f 49/2/3 48/2/3 47/2/3
f 50/2/3 48/2/3 49/2/3
f 51/1/3 50/1/3 49/1/3
f 52/1/3 50/1/3 51/1/3
f 53/2/3 52/2/3 51/2/3
f 54/2/3 52/2/3 53/2/3
f 55/1/3 54/1/3 53/1/3
f 56/1/3 54/1/3 55/1/3
f 57/2/3 56/2/3 55/2/3
f 58/2/3 56/2/3 57/2/3
f 59/1/3 58/1/3 57/1/3
f 60/1/3 58/1/3 59/1/3
f 61/2/3 60/2/3 59/2/3
f 62/2/3 60/2/3 61/2/3
f 63/1/3 62/1/3 61/1/3
f 64/1/3 62/1/3 63/1/3
f 65/2/3 64/2/3 63/2/3
f 66/2/3 64/2/3 65/2/3
f 67/1/4 68/1/4 69/1/4
f 69/1/4 68/1/4 70/1/4
f 69/2/4 70/2/4 71/2/4
f 71/2/4 70/2/4 72/2/4
f 71/1/4 72/1/4 73/1/4
f 73/1/4 72/1/4 74/1/4
f 73/2/4 74/2/4 75/2/4
f 75/2/4 74/2/4 76/2/4
f 75/1/4 76/1/4 77/1/4
f 77/1/4 76/1/4 78/1/4
f 77/2/4 78/2/4 79/2/4
f 79/2/4 78/2/4 80/2/4
f 79/1/4 80/1/4 81/1/4
f 81/1/4 80/1/4 82/1/4
f 81/2/4 82/2/4 83/2/4
f 83/2/4 82/2/4 84/2/4
f 83/1/4 84/1/4 85/1/4
f 85/1/4 84/1/4 86/1/4
f 85/2/4 86/2/4 87/2/4
f 87/2/4 86/2/4 88/2/4
f 87/1/4 88/1/4 89/1/4
f 89/1/4 88/1/4 90/1/4
f 89/2/4 90/2/4 91/2/4
f 91/2/4 90/2/4 92/2/4
f 91/1/4 92/1/4 93/1/4
f 93/1/4 92/1/4 94/1/4
f 93/2/4 94/2/4 95/2/4
f 95/2/4 94/2/4 96/2/4
f 95/1/4 96/1/4 97/1/4
f 97/1/4 96/1/4 98/1/4
f 97/2/4 98/2/4 99/2/4
f 99/2/4 98/2/4 100/2/4
f 99/1/4 100/1/4 101/1/4
f 101/1/4 100/1/4 102/1/4
f 101/2/4 102/2/4 103/2/4
f 103/2/4 102/2/4 104/2/4
f 103/1/4 104/1/4 105/1/4
f 105/1/4 104/1/4 106/1/4
f 105/2/4 106/2/4 107/2/4
f 107/2/4 106/2/4 108/2/4
f 107/1/4 108/1/4 109/1/4
f 109/1/4 108/1/4 110/1/4
f 109/2/4 110/2/4 111/2/4
f 111/2/4 110/2/4 112/2/4
f 111/1/4 112/1/4 113/1/4
f 113/1/4 112/1/4 114/1/4
f 113/2/4 114/2/4 115/2/4
f 115/2/4 114/2/4 116/2/4
f 115/1/4 116/1/4 117/1/4
f 117/1/4 116/1/4 118/1/4
f 117/2/4 118/2/4 119/2/4
f 119/2/4 118/2/4 120/2/4
f 119/1/4 120/1/4 121/1/4
f 121/1/4 120/1/4 122/1/4
f 121/2/4 122/2/4 123/2/4
f 123/2/4 122/2/4 124/2/4
f 154/1/5 126/1/5 125/1/5
f 155/2/5 127/2/5 126/2/5
f 155/1/5 126/1/5 154/1/5
f 156/1/5 128/1/5 127/1/5
f 156/2/5 127/2/5 155/2/5
f 157/2/5 129/2/5 128/2/5
f 157/1/5 128/1/5 156/1/5
f 158/1/5 130/1/5 129/1/5
f 158/2/5 129/2/5 157/2/5
f 159/2/5 131/2/5 130/2/5
f 159/1/5 130/1/5 158/1/5
f 160/1/5 132/1/5 131/1/5
f 160/2/5 131/2/5 159/2/5
f 161/2/5 133/2/5 132/2/5
f 161/1/5 132/1/5 160/1/5
f 162/1/5 134/1/5 133/1/5
f 162/2/5 133/2/5 161/2/5
f 163/2/5 135/2/5 134/2/5
f 163/1/5 134/1/5 162/1/5
f 164/1/5 136/1/5 135/1/5
f 164/2/5 135/2/5 163/2/5
f 165/2/5 137/2/5 136/2/5
f 165/1/5 136/1/5 164/1/5
f 166/1/5 138/1/5 137/1/5
f 166/2/5 137/2/5 165/2/5
f 167/2/5 139/2/5 138/2/5
f 167/1/5 138/1/5 166/1/5
f 168/1/5 140/1/5 139/1/5
f 168/2/5 139/2/5 167/2/5
f 169/2/5 141/2/5 140/2/5
f 169/1/5 140/1/5 168/1/5
f 170/1/5 142/1/5 141/1/5
f 170/2/5 141/2/5 169/2/5
f 171/2/5 143/2/5 142/2/5
f 171/1/5 142/1/5 170/1/5
f 172/1/5 144/1/5 143/1/5
f 172/2/5 143/2/5 171/2/5
f 173/2/5 145/2/5 144/2/5
f 173/1/5 144/1/5 172/1/5
f 174/1/5 146/1/5 145/1/5
f 174/2/5 145/2/5 173/2/5
f 175/2/5 147/2/5 146/2/5
f 175/1/5 146/1/5 174/1/5
f 176/1/5 148/1/5 147/1/5
f 176/2/5 147/2/5 175/2/5
f 177/2/5 149/2/5 148/2/5
f 177/1/5 148/1/5 176/1/5
f 178/1/5 150/1/5 149/1/5
f 178/2/5 149/2/5 177/2/5
f 179/2/5 151/2/5 150/2/5
f 179/1/5 150/1/5 178/1/5
f 180/1/5 152/1/5 151/1/5
f 180/2/5 151/2/5 179/2/5
f 181/2/5 153/2/5 152/2/5
f 181/1/5 152/1/5 180/1/5
f 182/2/5 153/2/5 181/2/5
f 183/1/6 184/1/6 212/1/6
f 184/2/6 185/2/6 213/2/6
f 212/1/6 184/1/6 213/1/6
f 185/1/6 186/1/6 214/1/6
f 213/2/6 185/2/6 214/2/6
f 186/2/6 187/2/6 215/2/6
f 214/1/6 186/1/6 215/1/6
f 187/1/6 188/1/6 216/1/6
f 215/2/6 187/2/6 216/2/6
f 188/2/6 189/2/6 217/2/6
f 216/1/6 188/1/6 217/1/6
f 189/1/6 190/1/6 218/1/6
f 217/2/6 189/2/6 218/2/6
f 190/2/6 191/2/6 219/2/6
f 218/1/6 190/1/6 219/1/6
f 191/1/6 192/1/6 220/1/6
f 219/2/6 191/2/6 220/2/6
f 192/2/6 193/2/6 221/2/6
f 220/1/6 192/1/6 221/1/6
f 193/1/6 194/1/6 222/1/6
f 221/2/6 193/2/6 222/2/6
f 194/2/6 195/2/6 223/2/6
f 222/1/6 194/1/6 223/1/6
f 195/1/6 196/1/6 224/1/6
f 223/2/6 195/2/6 224/2/6
f 196/2/6 197/2/6 225/2/6
f 224/1/6 196/1/6 225/1/6
f 197/1/6 198/1/6 226/1/6
f 225/2/6 197/2/6 226/2/6
f 198/2/6 199/2/6 227/2/6
f 226/1/6 198/1/6 227/1/6
f 199/1/6 200/1/6 228/1/6
f 227/2/6 199/2/6 228/2/6
f 200/2/6 201/2/6 229/2/6
f 228/1/6 200/1/6 229/1/6
f 201/1/6 202/1/6 230/1/6
f 229/2/6 201/2/6 230/2/6
f 202/2/6 203/2/6 231/2/6
f 230/1/6 202/1/6 231/1/6
f 203/1/6 204/1/6 232/1/6
f 231/2/6 203/2/6 232/2/6
f 204/2/6 205/2/6 233/2/6
f 232/1/6 204/1/6 233/1/6
f 205/1/6 206/1/6 234/1/6
f 233/2/6 205/2/6 234/2/6
f 206/2/6 207/2/6 235/2/6
f 234/1/6 206/1/6 235/1/6
f 207/1/6 208/1/6 236/1/6
f 235/2/6 207/2/6 236/2/6
f 208/2/6 209/2/6 237/2/6
f 236/1/6 208/1/6 237/1/6
f 209/1/6 210/1/6 238/1/6
f 237/2/6 209/2/6 238/2/6
f 210/2/6 211/2/6 239/2/6
f 238/1/6 210/1/6 239/1/6
f 239/2/6 211/2/6 240/2/6
