# MagicaVoxel @ Ephtracy

# group
g map-33

# material
mtllib map-33.mtl
usemtl palette

# normals
vn -1 0 0
vn 1 0 0
vn 0 0 1
vn 0 0 -1
vn 0 -1 0
vn 0 1 0

# texcoords
vt 0.916016 0.5
vt 0.919922 0.5
vt 0.923828 0.5
vt 0.958984 0.5
vt 0.970703 0.5
vt 0.982422 0.5
vt 0.986328 0.5
vt 0.990234 0.5

# verts
v -5 0 2
v -5 0 -1
v -5 0 -2
v -5 0 -5
v -5 1 2
v -5 1 -1
v -5 1 -2
v -5 1 -5
v -5 37 1
v -5 37 -1
v -5 38 1
v -5 38 -1
v -3 1 2
v -3 1 1
v -3 3 2
v -3 3 1
v -3 34 1
v -3 34 -1
v -3 36 2
v -3 36 1
v -3 36 -1
v -3 37 2
v -3 37 1
v -3 37 -1
v -3 37 -3
v -3 38 2
v -3 38 1
v -3 38 -1
v -3 38 -3
v -2 1 1
v -2 1 -1
v -2 1 -2
v -2 2 1
v -2 2 -2
v -2 3 1
v -2 3 -2
v -2 5 1
v -2 5 -2
v -2 6 1
v -2 6 -2
v -2 8 1
v -2 8 -2
v -2 9 1
v -2 9 -2
v -2 11 1
v -2 11 -2
v -2 12 1
v -2 12 -2
v -2 14 1
v -2 14 -2
v -2 15 1
v -2 15 -2
v -2 17 1
v -2 17 -2
v -2 18 1
v -2 18 -2
v -2 20 1
v -2 20 -2
v -2 21 1
v -2 21 -2
v -2 23 1
v -2 23 -2
v -2 24 1
v -2 24 -2
v -2 26 1
v -2 26 -2
v -2 27 1
v -2 27 -2
v -2 29 1
v -2 29 -2
v -2 30 1
v -2 30 -2
v -2 32 1
v -2 32 -2
v -2 33 1
v -2 33 -2
v -2 34 1
v -2 34 -1
v -2 36 -1
v -2 37 -1
v -2 37 -2
v -1 34 -2
v -1 34 -3
v -1 36 -2
v -1 36 -3
v -1 37 -2
v -1 37 -3
v -1 37 -5
v -1 38 -3
v -1 38 -5
v 2 37 3
v 2 37 2
v 2 38 3
v 2 38 2
v 1 34 -2
v 1 34 -3
v 1 36 -2
v 1 36 -3
v 1 37 -2
v 1 37 -3
v 1 37 -5
v 1 38 -3
v 1 38 -5
v 2 0 2
v 2 0 -5
v 2 1 2
v 2 1 -2
v 2 1 -5
v 2 2 -1
v 2 2 -2
v 2 3 -1
v 2 3 -2
v 2 5 -1
v 2 5 -2
v 2 6 -1
v 2 6 -2
v 2 8 -1
v 2 8 -2
v 2 9 -1
v 2 9 -2
v 2 11 -1
v 2 11 -2
v 2 12 -1
v 2 12 -2
v 2 14 -1
v 2 14 -2
v 2 15 -1
v 2 15 -2
v 2 17 -1
v 2 17 -2
v 2 18 -1
v 2 18 -2
v 2 20 -1
v 2 20 -2
v 2 21 -1
v 2 21 -2
v 2 23 -1
v 2 23 -2
v 2 24 -1
v 2 24 -2
v 2 26 -1
v 2 26 -2
v 2 27 -1
v 2 27 -2
v 2 29 -1
v 2 29 -2
v 2 30 -1
v 2 30 -2
v 2 32 -1
v 2 32 -2
v 2 33 -1
v 2 33 -2
v 2 36 2
v 2 36 1
v 2 37 2
v 2 37 -2
v 2 37 -3
v 2 38 2
v 2 38 1
v 2 38 -2
v 2 38 -3
v 3 37 3
v 3 37 2
v 3 38 3
v 3 38 2
v 2 37 3
v 2 38 3
v 3 37 3
v 3 38 3
v -5 0 2
v -5 1 2
v -3 1 2
v -3 3 2
v -3 36 2
v -3 37 2
v -3 38 2
v -2 1 2
v -2 2 2
v -2 3 2
v -2 5 2
v -2 6 2
v -2 8 2
v -2 9 2
v -2 11 2
v -2 12 2
v -2 14 2
v -2 15 2
v -2 17 2
v -2 18 2
v -2 20 2
v -2 21 2
v -2 23 2
v -2 24 2
v -2 26 2
v -2 27 2
v -2 29 2
v -2 30 2
v -2 32 2
v -2 33 2
v -2 36 2
v -2 37 2
v -2 38 2
v -1 2 2
v -1 3 2
v -1 5 2
v -1 6 2
v -1 8 2
v -1 9 2
v -1 11 2
v -1 12 2
v -1 14 2
v -1 15 2
v -1 17 2
v -1 18 2
v -1 20 2
v -1 21 2
v -1 23 2
v -1 24 2
v -1 26 2
v -1 27 2
v -1 29 2
v -1 30 2
v -1 32 2
v -1 33 2
v 1 36 2
v 1 38 2
v 2 0 2
v 2 1 2
v 2 36 2
v 2 37 2
v 2 38 2
v -5 37 1
v -5 38 1
v -3 37 1
v -3 38 1
v 2 37 2
v 2 38 2
v 3 37 2
v 3 38 2
v -3 1 1
v -3 3 1
v -3 34 1
v -2 1 1
v -2 2 1
v -2 3 1
v -2 5 1
v -2 6 1
v -2 8 1
v -2 9 1
v -2 11 1
v -2 12 1
v -2 14 1
v -2 15 1
v -2 17 1
v -2 18 1
v -2 20 1
v -2 21 1
v -2 23 1
v -2 24 1
v -2 26 1
v -2 27 1
v -2 29 1
v -2 30 1
v -2 32 1
v -2 33 1
v -2 34 1
v -5 37 -1
v -5 38 -1
v -3 34 -1
v -3 36 -1
v -3 37 -1
v -3 38 -1
v -2 34 -1
v -2 36 -1
v -2 37 -1
v -2 1 -2
v -2 2 -2
v -2 3 -2
v -2 5 -2
v -2 6 -2
v -2 8 -2
v -2 9 -2
v -2 11 -2
v -2 12 -2
v -2 14 -2
v -2 15 -2
v -2 17 -2
v -2 18 -2
v -2 20 -2
v -2 21 -2
v -2 23 -2
v -2 24 -2
v -2 26 -2
v -2 27 -2
v -2 29 -2
v -2 30 -2
v -2 32 -2
v -2 33 -2
v -2 37 -2
v -1 1 -2
v -1 34 -2
v -1 36 -2
v -1 37 -2
v 1 34 -2
v 1 36 -2
v 1 37 -2
v 2 1 -2
v 2 2 -2
v 2 3 -2
v 2 5 -2
v 2 6 -2
v 2 8 -2
v 2 9 -2
v 2 11 -2
v 2 12 -2
v 2 14 -2
v 2 15 -2
v 2 17 -2
v 2 18 -2
v 2 20 -2
v 2 21 -2
v 2 23 -2
v 2 24 -2
v 2 26 -2
v 2 27 -2
v 2 29 -2
v 2 30 -2
v 2 32 -2
v 2 33 -2
v 2 37 -2
v -3 37 -3
v -3 38 -3
v -1 34 -3
v -1 36 -3
v -1 37 -3
v -1 38 -3
v 1 34 -3
v 1 36 -3
v 1 37 -3
v 1 38 -3
v 2 37 -3
v 2 38 -3
v -5 0 -5
v -5 1 -5
v -2 0 -5
v -2 1 -5
v -1 0 -5
v -1 1 -5
v -1 37 -5
v -1 38 -5
v 1 37 -5
v 1 38 -5
v 2 0 -5
v 2 1 -5
v -5 0 2
v 2 0 2
v -5 0 -1
v -1 0 -1
v -5 0 -2
v -2 0 -2
v -5 0 -5
v -2 0 -5
v -1 0 -5
v 2 0 -5
v -3 34 1
v -2 34 1
v -3 34 -1
v -2 34 -1
v -1 34 -2
v 1 34 -2
v -1 34 -3
v 1 34 -3
v 2 37 3
v 3 37 3
v 2 37 2
v 3 37 2
v -5 37 1
v -3 37 1
v -5 37 -1
v -3 37 -1
v -2 37 -1
v -2 37 -2
v -1 37 -2
v 1 37 -2
v 2 37 -2
v -3 37 -3
v -1 37 -3
v 1 37 -3
v 2 37 -3
v -1 37 -5
v 1 37 -5
v -5 1 2
v -3 1 2
v -3 1 1
v -2 1 1
v -5 1 -1
v -2 1 -1
v -5 1 -2
v -2 1 -2
v -1 1 -2
v 2 1 -2
v -5 1 -5
v -2 1 -5
v -1 1 -5
v 2 1 -5
v 2 38 3
v 3 38 3
v -3 38 2
v -2 38 2
v 1 38 2
v 2 38 2
v 3 38 2
v -5 38 1
v -3 38 1
v 1 38 1
v 2 38 1
v -5 38 -1
v -3 38 -1
v -2 38 -2
v 2 38 -2
v -3 38 -3
v -1 38 -3
v 1 38 -3
v 2 38 -3
v -1 38 -5
v 1 38 -5

# faces
f 5/5/1 2/5/1 1/5/1
f 6/6/1 3/6/1 2/6/1
f 6/5/1 2/5/1 5/5/1
f 7/5/1 4/5/1 3/5/1
f 7/6/1 3/6/1 6/6/1
f 8/5/1 4/5/1 7/5/1
f 11/2/1 10/2/1 9/2/1
f 12/2/1 10/2/1 11/2/1
f 15/1/1 14/1/1 13/1/1
f 16/1/1 14/1/1 15/1/1
f 17/7/1 16/7/1 15/7/1
f 19/7/1 17/7/1 15/7/1
f 20/2/1 18/2/1 17/2/1
f 20/7/1 17/7/1 19/7/1
f 21/2/1 18/2/1 20/2/1
f 22/1/1 20/1/1 19/1/1
f 23/3/1 21/3/1 20/3/1
f 23/1/1 20/1/1 22/1/1
f 24/3/1 21/3/1 23/3/1
f 26/2/1 23/2/1 22/2/1
f 27/2/1 23/2/1 26/2/1
f 28/2/1 25/2/1 24/2/1
f 29/2/1 25/2/1 28/2/1
f 33/7/1 31/7/1 30/7/1
f 33/7/1 32/7/1 31/7/1
f 34/7/1 32/7/1 33/7/1
f 35/8/1 34/8/1 33/8/1
f 36/8/1 34/8/1 35/8/1
f 37/7/1 36/7/1 35/7/1
f 38/7/1 36/7/1 37/7/1
f 39/8/1 38/8/1 37/8/1
f 40/8/1 38/8/1 39/8/1
f 41/7/1 40/7/1 39/7/1
f 42/7/1 40/7/1 41/7/1
f 43/8/1 42/8/1 41/8/1
f 44/8/1 42/8/1 43/8/1
f 45/7/1 44/7/1 43/7/1
f 46/7/1 44/7/1 45/7/1
f 47/8/1 46/8/1 45/8/1
f 48/8/1 46/8/1 47/8/1
f 49/7/1 48/7/1 47/7/1
f 50/7/1 48/7/1 49/7/1
f 51/8/1 50/8/1 49/8/1
f 52/8/1 50/8/1 51/8/1
f 53/7/1 52/7/1 51/7/1
f 54/7/1 52/7/1 53/7/1
f 55/8/1 54/8/1 53/8/1
f 56/8/1 54/8/1 55/8/1
f 57/7/1 56/7/1 55/7/1
f 58/7/1 56/7/1 57/7/1
f 59/8/1 58/8/1 57/8/1
f 60/8/1 58/8/1 59/8/1
f 61/7/1 60/7/1 59/7/1
f 62/7/1 60/7/1 61/7/1
f 63/8/1 62/8/1 61/8/1
f 64/8/1 62/8/1 63/8/1
f 65/7/1 64/7/1 63/7/1
f 66/7/1 64/7/1 65/7/1
f 67/8/1 66/8/1 65/8/1
f 68/8/1 66/8/1 67/8/1
f 69/7/1 68/7/1 67/7/1
f 70/7/1 68/7/1 69/7/1
f 71/8/1 70/8/1 69/8/1
f 72/8/1 70/8/1 71/8/1
f 73/7/1 72/7/1 71/7/1
f 74/7/1 72/7/1 73/7/1
f 75/8/1 74/8/1 73/8/1
f 76/8/1 74/8/1 75/8/1
f 77/7/1 76/7/1 75/7/1
f 78/7/1 76/7/1 77/7/1
f 79/7/1 76/7/1 78/7/1
f 80/7/1 76/7/1 79/7/1
f 81/7/1 76/7/1 80/7/1
f 84/2/1 83/2/1 82/2/1
f 85/2/1 83/2/1 84/2/1
f 86/3/1 85/3/1 84/3/1
f 87/3/1 85/3/1 86/3/1
f 89/2/1 88/2/1 87/2/1
f 90/2/1 88/2/1 89/2/1
f 93/4/1 92/4/1 91/4/1
f 94/4/1 92/4/1 93/4/1
f 95/2/2 96/2/2 97/2/2
f 97/2/2 96/2/2 98/2/2
f 97/3/2 98/3/2 99/3/2
f 99/3/2 98/3/2 100/3/2
f 100/2/2 101/2/2 102/2/2
f 102/2/2 101/2/2 103/2/2
f 104/5/2 105/5/2 106/5/2
f 106/5/2 105/5/2 107/5/2
f 107/5/2 105/5/2 108/5/2
f 106/7/2 107/7/2 109/7/2
f 109/7/2 107/7/2 110/7/2
f 106/7/2 109/7/2 111/7/2
f 109/8/2 110/8/2 111/8/2
f 111/8/2 110/8/2 112/8/2
f 106/7/2 111/7/2 113/7/2
f 111/7/2 112/7/2 113/7/2
f 113/7/2 112/7/2 114/7/2
f 106/7/2 113/7/2 115/7/2
f 113/8/2 114/8/2 115/8/2
f 115/8/2 114/8/2 116/8/2
f 106/7/2 115/7/2 117/7/2
f 115/7/2 116/7/2 117/7/2
f 117/7/2 116/7/2 118/7/2
f 106/7/2 117/7/2 119/7/2
f 117/8/2 118/8/2 119/8/2
f 119/8/2 118/8/2 120/8/2
f 106/7/2 119/7/2 121/7/2
f 119/7/2 120/7/2 121/7/2
f 121/7/2 120/7/2 122/7/2
f 106/7/2 121/7/2 123/7/2
f 121/8/2 122/8/2 123/8/2
f 123/8/2 122/8/2 124/8/2
f 106/7/2 123/7/2 125/7/2
f 123/7/2 124/7/2 125/7/2
f 125/7/2 124/7/2 126/7/2
f 106/7/2 125/7/2 127/7/2
f 125/8/2 126/8/2 127/8/2
f 127/8/2 126/8/2 128/8/2
f 106/7/2 127/7/2 129/7/2
f 127/7/2 128/7/2 129/7/2
f 129/7/2 128/7/2 130/7/2
f 106/7/2 129/7/2 131/7/2
f 129/8/2 130/8/2 131/8/2
f 131/8/2 130/8/2 132/8/2
f 106/7/2 131/7/2 133/7/2
f 131/7/2 132/7/2 133/7/2
f 133/7/2 132/7/2 134/7/2
f 106/7/2 133/7/2 135/7/2
f 133/8/2 134/8/2 135/8/2
f 135/8/2 134/8/2 136/8/2
f 106/7/2 135/7/2 137/7/2
f 135/7/2 136/7/2 137/7/2
f 137/7/2 136/7/2 138/7/2
f 106/7/2 137/7/2 139/7/2
f 137/8/2 138/8/2 139/8/2
f 139/8/2 138/8/2 140/8/2
f 106/7/2 139/7/2 141/7/2
f 139/7/2 140/7/2 141/7/2
f 141/7/2 140/7/2 142/7/2
f 106/7/2 141/7/2 143/7/2
f 141/8/2 142/8/2 143/8/2
f 143/8/2 142/8/2 144/8/2
f 106/7/2 143/7/2 145/7/2
f 143/7/2 144/7/2 145/7/2
f 145/7/2 144/7/2 146/7/2
f 106/7/2 145/7/2 147/7/2
f 145/8/2 146/8/2 147/8/2
f 147/8/2 146/8/2 148/8/2
f 106/7/2 147/7/2 149/7/2
f 147/7/2 148/7/2 149/7/2
f 149/7/2 148/7/2 150/7/2
f 106/7/2 149/7/2 151/7/2
f 149/8/2 150/8/2 151/8/2
f 151/8/2 150/8/2 152/8/2
f 106/7/2 151/7/2 153/7/2
f 151/7/2 152/7/2 153/7/2
f 153/7/2 152/7/2 154/7/2
f 153/4/2 154/4/2 155/4/2
f 154/7/2 152/7/2 156/7/2
f 155/4/2 154/4/2 158/4/2
f 154/7/2 156/7/2 159/7/2
f 158/4/2 154/4/2 159/4/2
f 156/2/2 157/2/2 160/2/2
f 159/7/2 156/7/2 160/7/2
f 160/2/2 157/2/2 161/2/2
f 162/4/2 163/4/2 164/4/2
f 164/4/2 163/4/2 165/4/2
f 168/4/3 167/4/3 166/4/3
f 169/4/3 167/4/3 168/4/3
f 172/5/3 171/5/3 170/5/3
f 177/5/3 172/5/3 170/5/3
f 177/1/3 173/1/3 172/1/3
f 178/1/3 173/1/3 177/1/3
f 179/7/3 174/7/3 173/7/3
f 179/1/3 173/1/3 178/1/3
f 180/7/3 174/7/3 179/7/3
f 181/7/3 174/7/3 180/7/3
f 182/7/3 174/7/3 181/7/3
f 183/7/3 174/7/3 182/7/3
f 184/7/3 174/7/3 183/7/3
f 185/7/3 174/7/3 184/7/3
f 186/7/3 174/7/3 185/7/3
f 187/7/3 174/7/3 186/7/3
f 188/7/3 174/7/3 187/7/3
f 189/7/3 174/7/3 188/7/3
f 190/7/3 174/7/3 189/7/3
f 191/7/3 174/7/3 190/7/3
f 192/7/3 174/7/3 191/7/3
f 193/7/3 174/7/3 192/7/3
f 194/7/3 174/7/3 193/7/3
f 195/7/3 174/7/3 194/7/3
f 196/7/3 174/7/3 195/7/3
f 197/7/3 174/7/3 196/7/3
f 198/7/3 174/7/3 197/7/3
f 199/7/3 174/7/3 198/7/3
f 200/1/3 175/1/3 174/1/3
f 200/7/3 174/7/3 199/7/3
f 201/2/3 176/2/3 175/2/3
f 201/1/3 175/1/3 200/1/3
f 202/2/3 176/2/3 201/2/3
f 203/7/3 178/7/3 177/7/3
f 203/8/3 179/8/3 178/8/3
f 204/7/3 180/7/3 179/7/3
f 204/8/3 179/8/3 203/8/3
f 205/8/3 181/8/3 180/8/3
f 205/7/3 180/7/3 204/7/3
f 206/7/3 182/7/3 181/7/3
f 206/8/3 181/8/3 205/8/3
f 207/8/3 183/8/3 182/8/3
f 207/7/3 182/7/3 206/7/3
f 208/7/3 184/7/3 183/7/3
f 208/8/3 183/8/3 207/8/3
f 209/8/3 185/8/3 184/8/3
f 209/7/3 184/7/3 208/7/3
f 210/7/3 186/7/3 185/7/3
f 210/8/3 185/8/3 209/8/3
f 211/8/3 187/8/3 186/8/3
f 211/7/3 186/7/3 210/7/3
f 212/7/3 188/7/3 187/7/3
f 212/8/3 187/8/3 211/8/3
f 213/8/3 189/8/3 188/8/3
f 213/7/3 188/7/3 212/7/3
f 214/7/3 190/7/3 189/7/3
f 214/8/3 189/8/3 213/8/3
f 215/8/3 191/8/3 190/8/3
f 215/7/3 190/7/3 214/7/3
f 216/7/3 192/7/3 191/7/3
f 216/8/3 191/8/3 215/8/3
f 217/8/3 193/8/3 192/8/3
f 217/7/3 192/7/3 216/7/3
f 218/7/3 194/7/3 193/7/3
f 218/8/3 193/8/3 217/8/3
f 219/8/3 195/8/3 194/8/3
f 219/7/3 194/7/3 218/7/3
f 220/7/3 196/7/3 195/7/3
f 220/8/3 195/8/3 219/8/3
f 221/8/3 197/8/3 196/8/3
f 221/7/3 196/7/3 220/7/3
f 222/7/3 198/7/3 197/7/3
f 222/8/3 197/8/3 221/8/3
f 223/8/3 199/8/3 198/8/3
f 223/7/3 198/7/3 222/7/3
f 224/7/3 200/7/3 199/7/3
f 224/8/3 199/8/3 223/8/3
f 224/7/3 202/7/3 201/7/3
f 224/7/3 201/7/3 200/7/3
f 225/7/3 223/7/3 222/7/3
f 225/7/3 202/7/3 224/7/3
f 225/7/3 224/7/3 223/7/3
f 225/7/3 220/7/3 219/7/3
f 225/7/3 219/7/3 218/7/3
f 225/7/3 218/7/3 217/7/3
f 225/7/3 217/7/3 216/7/3
f 225/7/3 216/7/3 215/7/3
f 225/7/3 215/7/3 214/7/3
f 225/7/3 214/7/3 213/7/3
f 225/7/3 213/7/3 212/7/3
f 225/7/3 212/7/3 211/7/3
f 225/7/3 211/7/3 210/7/3
f 225/7/3 210/7/3 209/7/3
f 225/7/3 209/7/3 208/7/3
f 225/7/3 208/7/3 207/7/3
f 225/7/3 207/7/3 206/7/3
f 225/7/3 206/7/3 205/7/3
f 225/7/3 205/7/3 204/7/3
f 225/7/3 204/7/3 203/7/3
f 225/7/3 222/7/3 221/7/3
f 225/7/3 221/7/3 220/7/3
f 226/7/3 202/7/3 225/7/3
f 227/5/3 177/5/3 170/5/3
f 228/7/3 203/7/3 177/7/3
f 228/5/3 177/5/3 227/5/3
f 228/7/3 225/7/3 203/7/3
f 229/4/3 226/4/3 225/4/3
f 229/7/3 225/7/3 228/7/3
f 230/4/3 226/4/3 229/4/3
f 231/4/3 226/4/3 230/4/3
f 234/2/3 233/2/3 232/2/3
f 235/2/3 233/2/3 234/2/3
f 236/4/4 237/4/4 238/4/4
f 238/4/4 237/4/4 239/4/4
f 240/1/4 241/1/4 243/1/4
f 243/1/4 241/1/4 244/1/4
f 241/7/4 242/7/4 245/7/4
f 244/1/4 241/1/4 245/1/4
f 245/7/4 242/7/4 246/7/4
f 246/7/4 242/7/4 247/7/4
f 247/7/4 242/7/4 248/7/4
f 248/7/4 242/7/4 249/7/4
f 249/7/4 242/7/4 250/7/4
f 250/7/4 242/7/4 251/7/4
f 251/7/4 242/7/4 252/7/4
f 252/7/4 242/7/4 253/7/4
f 253/7/4 242/7/4 254/7/4
f 254/7/4 242/7/4 255/7/4
f 255/7/4 242/7/4 256/7/4
f 256/7/4 242/7/4 257/7/4
f 257/7/4 242/7/4 258/7/4
f 258/7/4 242/7/4 259/7/4
f 259/7/4 242/7/4 260/7/4
f 260/7/4 242/7/4 261/7/4
f 261/7/4 242/7/4 262/7/4
f 262/7/4 242/7/4 263/7/4
f 263/7/4 242/7/4 264/7/4
f 264/7/4 242/7/4 265/7/4
f 265/7/4 242/7/4 266/7/4
f 267/2/4 268/2/4 271/2/4
f 271/2/4 268/2/4 272/2/4
f 269/2/4 270/2/4 273/2/4
f 270/3/4 271/3/4 274/3/4
f 273/2/4 270/2/4 274/2/4
f 274/3/4 271/3/4 275/3/4
f 276/7/4 277/7/4 300/7/4
f 298/7/4 299/7/4 301/7/4
f 301/7/4 299/7/4 302/7/4
f 302/7/4 299/7/4 303/7/4
f 298/7/4 301/7/4 304/7/4
f 300/7/4 277/7/4 307/7/4
f 277/8/4 278/8/4 308/8/4
f 307/7/4 277/7/4 308/7/4
f 278/7/4 279/7/4 309/7/4
f 308/8/4 278/8/4 309/8/4
f 279/8/4 280/8/4 310/8/4
f 309/7/4 279/7/4 310/7/4
f 280/7/4 281/7/4 311/7/4
f 310/8/4 280/8/4 311/8/4
f 281/8/4 282/8/4 312/8/4
f 311/7/4 281/7/4 312/7/4
f 282/7/4 283/7/4 313/7/4
f 312/8/4 282/8/4 313/8/4
f 283/8/4 284/8/4 314/8/4
f 313/7/4 283/7/4 314/7/4
f 284/7/4 285/7/4 315/7/4
f 314/8/4 284/8/4 315/8/4
f 285/8/4 286/8/4 316/8/4
f 315/7/4 285/7/4 316/7/4
f 286/7/4 287/7/4 317/7/4
f 316/8/4 286/8/4 317/8/4
f 287/8/4 288/8/4 318/8/4
f 317/7/4 287/7/4 318/7/4
f 288/7/4 289/7/4 319/7/4
f 318/8/4 288/8/4 319/8/4
f 289/8/4 290/8/4 320/8/4
f 319/7/4 289/7/4 320/7/4
f 290/7/4 291/7/4 321/7/4
f 320/8/4 290/8/4 321/8/4
f 291/8/4 292/8/4 322/8/4
f 321/7/4 291/7/4 322/7/4
f 292/7/4 293/7/4 323/7/4
f 322/8/4 292/8/4 323/8/4
f 293/8/4 294/8/4 324/8/4
f 323/7/4 293/7/4 324/7/4
f 294/7/4 295/7/4 325/7/4
f 324/8/4 294/8/4 325/8/4
f 295/8/4 296/8/4 326/8/4
f 325/7/4 295/7/4 326/7/4
f 296/7/4 297/7/4 327/7/4
f 326/8/4 296/8/4 327/8/4
f 297/8/4 298/8/4 328/8/4
f 327/7/4 297/7/4 328/7/4
f 305/7/4 306/7/4 329/7/4
f 328/8/4 298/8/4 329/8/4
f 298/7/4 304/7/4 329/7/4
f 304/7/4 305/7/4 329/7/4
f 329/7/4 306/7/4 330/7/4
f 331/2/4 332/2/4 335/2/4
f 335/2/4 332/2/4 336/2/4
f 333/2/4 334/2/4 337/2/4
f 334/3/4 335/3/4 338/3/4
f 337/2/4 334/2/4 338/2/4
f 338/3/4 335/3/4 339/3/4
f 339/2/4 340/2/4 341/2/4
f 341/2/4 340/2/4 342/2/4
f 343/5/4 344/5/4 345/5/4
f 345/5/4 344/5/4 346/5/4
f 345/6/4 346/6/4 347/6/4
f 347/6/4 346/6/4 348/6/4
f 349/2/4 350/2/4 351/2/4
f 351/2/4 350/2/4 352/2/4
f 347/5/4 348/5/4 353/5/4
f 353/5/4 348/5/4 354/5/4
f 357/5/5 356/5/5 355/5/5
f 358/5/5 356/5/5 357/5/5
f 359/6/5 358/6/5 357/6/5
f 360/6/5 358/6/5 359/6/5
f 361/5/5 360/5/5 359/5/5
f 362/6/5 358/6/5 360/6/5
f 362/5/5 360/5/5 361/5/5
f 363/5/5 356/5/5 358/5/5
f 363/6/5 358/6/5 362/6/5
f 364/5/5 356/5/5 363/5/5
f 367/2/5 366/2/5 365/2/5
f 368/2/5 366/2/5 367/2/5
f 371/2/5 370/2/5 369/2/5
f 372/2/5 370/2/5 371/2/5
f 375/4/5 374/4/5 373/4/5
f 376/4/5 374/4/5 375/4/5
f 379/2/5 378/2/5 377/2/5
f 380/2/5 378/2/5 379/2/5
f 382/2/5 381/2/5 380/2/5
f 386/2/5 382/2/5 380/2/5
f 386/2/5 383/2/5 382/2/5
f 387/2/5 383/2/5 386/2/5
f 388/2/5 385/2/5 384/2/5
f 389/2/5 385/2/5 388/2/5
f 390/2/5 388/2/5 387/2/5
f 391/2/5 388/2/5 390/2/5
f 392/5/6 393/5/6 394/5/6
f 392/5/6 394/5/6 396/5/6
f 394/5/6 395/5/6 396/5/6
f 396/5/6 395/5/6 397/5/6
f 396/6/6 397/6/6 398/6/6
f 398/6/6 397/6/6 399/6/6
f 398/5/6 399/5/6 402/5/6
f 399/6/6 400/6/6 403/6/6
f 402/5/6 399/5/6 403/5/6
f 400/5/6 401/5/6 404/5/6
f 403/6/6 400/6/6 404/6/6
f 404/5/6 401/5/6 405/5/6
f 406/4/6 407/4/6 411/4/6
f 411/4/6 407/4/6 412/4/6
f 408/2/6 409/2/6 414/2/6
f 409/7/6 410/7/6 415/7/6
f 410/4/6 411/4/6 415/4/6
f 415/4/6 411/4/6 416/4/6
f 413/2/6 414/2/6 417/2/6
f 414/2/6 409/2/6 418/2/6
f 417/2/6 414/2/6 418/2/6
f 409/7/6 415/7/6 419/7/6
f 418/2/6 409/2/6 419/2/6
f 415/7/6 416/7/6 419/7/6
f 419/7/6 416/7/6 420/7/6
f 418/2/6 419/2/6 421/2/6
f 419/2/6 420/2/6 421/2/6
f 421/2/6 420/2/6 422/2/6
f 422/2/6 420/2/6 423/2/6
f 423/2/6 420/2/6 424/2/6
f 422/2/6 423/2/6 425/2/6
f 425/2/6 423/2/6 426/2/6
