# MagicaVoxel @ Ephtracy

# group
g map-156

# material
mtllib map-156.mtl
usemtl palette

# normals
vn -1 0 0
vn 1 0 0
vn 0 0 1
vn 0 0 -1
vn 0 -1 0
vn 0 1 0

# texcoords
vt 0.361328 0.5
vt 0.994141 0.5

# verts
v -12.5 0 3
v -12.5 0 2
v -12.5 0 -2
v -12.5 0 -3
v -12.5 1 2
v -12.5 1 -2
v -12.5 2 2
v -12.5 2 -2
v -12.5 6 3
v -12.5 6 2
v -12.5 6 -2
v -12.5 6 -3
v -12.5 9 3
v -12.5 9 -3
v 11.5 0 3
v 11.5 0 2
v 11.5 0 -2
v 11.5 0 -3
v 11.5 1 3
v 11.5 1 2
v 11.5 1 -2
v 11.5 1 -3
v 11.5 2 3
v 11.5 2 2
v 11.5 2 -2
v 11.5 2 -3
v 11.5 6 3
v 11.5 6 2
v 11.5 6 -2
v 11.5 6 -3
v -11.5 0 3
v -11.5 0 2
v -11.5 0 -2
v -11.5 0 -3
v -11.5 1 3
v -11.5 1 2
v -11.5 1 -2
v -11.5 1 -3
v -11.5 2 3
v -11.5 2 2
v -11.5 2 -2
v -11.5 2 -3
v -11.5 6 3
v -11.5 6 2
v -11.5 6 -2
v -11.5 6 -3
v 11.5 1 2
v 11.5 1 -2
v 11.5 2 2
v 11.5 2 -2
v 12.5 0 3
v 12.5 0 2
v 12.5 0 -2
v 12.5 0 -3
v 12.5 6 3
v 12.5 6 2
v 12.5 6 -2
v 12.5 6 -3
v 12.5 9 3
v 12.5 9 -3
v -12.5 0 3
v -12.5 6 3
v -12.5 9 3
v -11.5 0 3
v -11.5 1 3
v -11.5 2 3
v -11.5 6 3
v -0.5 6 3
v -0.5 9 3
v 0.5 6 3
v 0.5 9 3
v 11.5 0 3
v 11.5 1 3
v 11.5 2 3
v 11.5 6 3
v 12.5 0 3
v 12.5 6 3
v 12.5 9 3
v -12.5 0 -2
v -12.5 1 -2
v -12.5 2 -2
v -12.5 6 -2
v -11.5 0 -2
v -11.5 1 -2
v -11.5 2 -2
v -11.5 6 -2
v 11.5 0 -2
v 11.5 1 -2
v 11.5 2 -2
v 11.5 6 -2
v 12.5 0 -2
v 12.5 6 -2
v -12.5 0 2
v -12.5 1 2
v -12.5 2 2
v -12.5 6 2
v -11.5 0 2
v -11.5 1 2
v -11.5 2 2
v -11.5 6 2
v 11.5 0 2
v 11.5 1 2
v 11.5 2 2
v 11.5 6 2
v 12.5 0 2
v 12.5 6 2
v -12.5 0 -3
v -12.5 6 -3
v -12.5 9 -3
v -11.5 0 -3
v -11.5 1 -3
v -11.5 2 -3
v -11.5 6 -3
v 11.5 0 -3
v 11.5 1 -3
v 11.5 2 -3
v 11.5 6 -3
v 12.5 0 -3
v 12.5 6 -3
v 12.5 9 -3
v -12.5 0 3
v -11.5 0 3
v 11.5 0 3
v 12.5 0 3
v -12.5 0 2
v -11.5 0 2
v 11.5 0 2
v 12.5 0 2
v -12.5 0 -2
v -11.5 0 -2
v 11.5 0 -2
v 12.5 0 -2
v -12.5 0 -3
v -11.5 0 -3
v 11.5 0 -3
v 12.5 0 -3
v -11.5 1 3
v 11.5 1 3
v -12.5 1 2
v -11.5 1 2
v 11.5 1 2
v -12.5 1 -2
v -11.5 1 -2
v 11.5 1 -2
v -11.5 1 -3
v 11.5 1 -3
v -11.5 6 3
v -0.5 6 3
v 0.5 6 3
v 11.5 6 3
v -12.5 6 2
v -11.5 6 2
v -0.5 6 2
v 0.5 6 2
v 11.5 6 2
v 12.5 6 2
v -12.5 6 -2
v -11.5 6 -2
v 11.5 6 -2
v 12.5 6 -2
v -11.5 6 -3
v 11.5 6 -3
v -11.5 2 3
v 11.5 2 3
v -12.5 2 2
v -11.5 2 2
v 11.5 2 2
v -12.5 2 -2
v -11.5 2 -2
v 11.5 2 -2
v -11.5 2 -3
v 11.5 2 -3
v -12.5 9 3
v -0.5 9 3
v 0.5 9 3
v 12.5 9 3
v -0.5 9 2
v 0.5 9 2
v -12.5 9 -3
v 12.5 9 -3

# faces
f 5/2/1 2/2/1 1/2/1
f 6/2/1 4/2/1 3/2/1
f 7/2/1 5/2/1 1/2/1
f 7/2/1 6/2/1 5/2/1
f 8/2/1 4/2/1 6/2/1
f 8/2/1 6/2/1 7/2/1
f 9/2/1 7/2/1 1/2/1
f 10/2/1 7/2/1 9/2/1
f 11/2/1 4/2/1 8/2/1
f 12/2/1 4/2/1 11/2/1
f 13/1/1 10/1/1 9/1/1
f 13/1/1 11/1/1 10/1/1
f 13/1/1 12/1/1 11/1/1
f 14/1/1 12/1/1 13/1/1
f 19/2/1 16/2/1 15/2/1
f 20/2/1 16/2/1 19/2/1
f 21/2/1 18/2/1 17/2/1
f 22/2/1 18/2/1 21/2/1
f 27/2/1 24/2/1 23/2/1
f 28/2/1 24/2/1 27/2/1
f 29/2/1 26/2/1 25/2/1
f 30/2/1 26/2/1 29/2/1
f 31/2/2 32/2/2 35/2/2
f 35/2/2 32/2/2 36/2/2
f 33/2/2 34/2/2 37/2/2
f 37/2/2 34/2/2 38/2/2
f 39/2/2 40/2/2 43/2/2
f 43/2/2 40/2/2 44/2/2
f 41/2/2 42/2/2 45/2/2
f 45/2/2 42/2/2 46/2/2
f 47/2/2 48/2/2 49/2/2
f 49/2/2 48/2/2 50/2/2
f 51/2/2 52/2/2 55/2/2
f 55/2/2 52/2/2 56/2/2
f 53/2/2 54/2/2 57/2/2
f 57/2/2 54/2/2 58/2/2
f 55/1/2 56/1/2 59/1/2
f 56/1/2 57/1/2 59/1/2
f 57/1/2 58/1/2 59/1/2
f 59/1/2 58/1/2 60/1/2
f 64/2/3 62/2/3 61/2/3
f 65/2/3 62/2/3 64/2/3
f 66/2/3 62/2/3 65/2/3
f 67/1/3 63/1/3 62/1/3
f 67/2/3 62/2/3 66/2/3
f 68/1/3 63/1/3 67/1/3
f 69/1/3 63/1/3 68/1/3
f 70/2/3 69/2/3 68/2/3
f 71/2/3 69/2/3 70/2/3
f 73/2/3 66/2/3 65/2/3
f 74/2/3 66/2/3 73/2/3
f 75/1/3 71/1/3 70/1/3
f 76/2/3 74/2/3 73/2/3
f 76/2/3 75/2/3 74/2/3
f 76/2/3 73/2/3 72/2/3
f 77/1/3 71/1/3 75/1/3
f 77/2/3 75/2/3 76/2/3
f 78/1/3 71/1/3 77/1/3
f 83/2/3 80/2/3 79/2/3
f 84/2/3 80/2/3 83/2/3
f 85/2/3 82/2/3 81/2/3
f 86/2/3 82/2/3 85/2/3
f 91/2/3 88/2/3 87/2/3
f 91/2/3 90/2/3 89/2/3
f 91/2/3 89/2/3 88/2/3
f 92/2/3 90/2/3 91/2/3
f 93/2/4 94/2/4 97/2/4
f 97/2/4 94/2/4 98/2/4
f 95/2/4 96/2/4 99/2/4
f 99/2/4 96/2/4 100/2/4
f 101/2/4 102/2/4 105/2/4
f 103/2/4 104/2/4 105/2/4
f 102/2/4 103/2/4 105/2/4
f 105/2/4 104/2/4 106/2/4
f 107/2/4 108/2/4 110/2/4
f 110/2/4 108/2/4 111/2/4
f 111/2/4 108/2/4 112/2/4
f 108/1/4 109/1/4 113/1/4
f 112/2/4 108/2/4 113/2/4
f 111/2/4 112/2/4 115/2/4
f 115/2/4 112/2/4 116/2/4
f 113/1/4 109/1/4 117/1/4
f 115/2/4 116/2/4 118/2/4
f 116/2/4 117/2/4 118/2/4
f 114/2/4 115/2/4 118/2/4
f 117/1/4 109/1/4 119/1/4
f 118/2/4 117/2/4 119/2/4
f 119/1/4 109/1/4 120/1/4
f 125/2/5 122/2/5 121/2/5
f 126/2/5 122/2/5 125/2/5
f 127/2/5 124/2/5 123/2/5
f 128/2/5 124/2/5 127/2/5
f 133/2/5 130/2/5 129/2/5
f 134/2/5 130/2/5 133/2/5
f 135/2/5 132/2/5 131/2/5
f 136/2/5 132/2/5 135/2/5
f 140/2/5 138/2/5 137/2/5
f 141/2/5 138/2/5 140/2/5
f 142/2/5 140/2/5 139/2/5
f 142/2/5 141/2/5 140/2/5
f 143/2/5 141/2/5 142/2/5
f 144/2/5 141/2/5 143/2/5
f 145/2/5 144/2/5 143/2/5
f 146/2/5 144/2/5 145/2/5
f 152/1/5 148/1/5 147/1/5
f 153/2/5 149/2/5 148/2/5
f 153/1/5 148/1/5 152/1/5
f 154/1/5 150/1/5 149/1/5
f 154/2/5 149/2/5 153/2/5
f 155/1/5 150/1/5 154/1/5
f 157/1/5 153/1/5 152/1/5
f 157/1/5 156/1/5 155/1/5
f 157/1/5 155/1/5 154/1/5
f 157/1/5 154/1/5 153/1/5
f 157/1/5 152/1/5 151/1/5
f 158/1/5 156/1/5 157/1/5
f 159/1/5 156/1/5 158/1/5
f 160/1/5 156/1/5 159/1/5
f 161/1/5 159/1/5 158/1/5
f 162/1/5 159/1/5 161/1/5
f 163/2/6 164/2/6 166/2/6
f 166/2/6 164/2/6 167/2/6
f 165/2/6 166/2/6 168/2/6
f 166/2/6 167/2/6 168/2/6
f 168/2/6 167/2/6 169/2/6
f 169/2/6 167/2/6 170/2/6
f 169/2/6 170/2/6 171/2/6
f 171/2/6 170/2/6 172/2/6
f 173/1/6 174/1/6 177/1/6
f 174/2/6 175/2/6 177/2/6
f 175/1/6 176/1/6 178/1/6
f 177/2/6 175/2/6 178/2/6
f 173/1/6 177/1/6 179/1/6
f 177/1/6 178/1/6 179/1/6
f 178/1/6 176/1/6 180/1/6
f 179/1/6 178/1/6 180/1/6
