# MagicaVoxel @ Ephtracy

# group
g map-40

# material
mtllib map-40.mtl
usemtl palette

# normals
vn -1 0 0
vn 1 0 0
vn 0 0 1
vn 0 0 -1
vn 0 -1 0
vn 0 1 0

# texcoords
vt 0.0488281 0.5
vt 0.435547 0.5
vt 0.482422 0.5
vt 0.728516 0.5

# verts
v -3 1 2
v -3 1 -2
v -3 4 2
v -3 4 -2
v -3 6 2
v -3 6 -2
v -3 7 2
v -3 7 -2
v -2 0 1
v -2 0 -1
v -2 1 3
v -2 1 2
v -2 1 1
v -2 1 -1
v -2 1 -2
v -2 1 -3
v -2 4 3
v -2 4 2
v -2 4 1
v -2 4 -1
v -2 4 -2
v -2 4 -3
v -2 5 1
v -2 5 -1
v -2 6 3
v -2 6 2
v -2 6 -2
v -2 6 -3
v -2 7 3
v -2 7 2
v -2 7 1
v -2 7 -1
v -2 7 -2
v -2 7 -3
v -2 9 1
v -2 9 -1
v -1 0 2
v -1 0 1
v -1 0 -1
v -1 0 -2
v -1 1 2
v -1 1 1
v -1 1 -1
v -1 1 -2
v -1 4 2
v -1 4 1
v -1 4 -1
v -1 4 -2
v -1 5 2
v -1 5 1
v -1 5 -1
v -1 5 -2
v -1 6 1
v -1 6 -1
v -1 7 2
v -1 7 1
v -1 7 -1
v -1 7 -2
v -1 9 2
v -1 9 1
v -1 9 -1
v -1 9 -2
v -1 10 1
v -1 10 -1
v 1 0 2
v 1 0 1
v 1 0 -1
v 1 0 -2
v 1 1 2
v 1 1 1
v 1 1 -1
v 1 1 -2
v 1 4 2
v 1 4 1
v 1 4 -1
v 1 4 -2
v 1 5 2
v 1 5 1
v 1 5 -1
v 1 5 -2
v 1 6 1
v 1 6 -1
v 1 7 2
v 1 7 1
v 1 7 -1
v 1 7 -2
v 1 9 2
v 1 9 1
v 1 9 -1
v 1 9 -2
v 1 10 1
v 1 10 -1
v 2 0 1
v 2 0 -1
v 2 1 3
v 2 1 2
v 2 1 1
v 2 1 -1
v 2 1 -2
v 2 1 -3
v 2 4 3
v 2 4 2
v 2 4 1
v 2 4 -1
v 2 4 -2
v 2 4 -3
v 2 5 1
v 2 5 -1
v 2 6 3
v 2 6 2
v 2 6 -2
v 2 6 -3
v 2 7 3
v 2 7 2
v 2 7 1
v 2 7 -1
v 2 7 -2
v 2 7 -3
v 2 9 1
v 2 9 -1
v 3 1 2
v 3 1 -2
v 3 4 2
v 3 4 -2
v 3 6 2
v 3 6 -2
v 3 7 2
v 3 7 -2
v -2 1 3
v -2 4 3
v -2 6 3
v -2 7 3
v 2 1 3
v 2 4 3
v 2 6 3
v 2 7 3
v -3 1 2
v -3 4 2
v -3 6 2
v -3 7 2
v -2 1 2
v -2 4 2
v -2 6 2
v -2 7 2
v -1 0 2
v -1 1 2
v -1 4 2
v -1 5 2
v -1 7 2
v -1 9 2
v 1 0 2
v 1 1 2
v 1 4 2
v 1 5 2
v 1 7 2
v 1 9 2
v 2 1 2
v 2 4 2
v 2 6 2
v 2 7 2
v 3 1 2
v 3 4 2
v 3 6 2
v 3 7 2
v -2 0 1
v -2 1 1
v -2 4 1
v -2 5 1
v -2 7 1
v -2 9 1
v -1 0 1
v -1 1 1
v -1 4 1
v -1 5 1
v -1 6 1
v -1 7 1
v -1 9 1
v -1 10 1
v 1 0 1
v 1 1 1
v 1 4 1
v 1 5 1
v 1 6 1
v 1 7 1
v 1 9 1
v 1 10 1
v 2 0 1
v 2 1 1
v 2 4 1
v 2 5 1
v 2 7 1
v 2 9 1
v -2 0 -1
v -2 1 -1
v -2 4 -1
v -2 5 -1
v -2 7 -1
v -2 9 -1
v -1 0 -1
v -1 1 -1
v -1 4 -1
v -1 5 -1
v -1 6 -1
v -1 7 -1
v -1 9 -1
v -1 10 -1
v 1 0 -1
v 1 1 -1
v 1 4 -1
v 1 5 -1
v 1 6 -1
v 1 7 -1
v 1 9 -1
v 1 10 -1
v 2 0 -1
v 2 1 -1
v 2 4 -1
v 2 5 -1
v 2 7 -1
v 2 9 -1
v -3 1 -2
v -3 4 -2
v -3 6 -2
v -3 7 -2
v -2 1 -2
v -2 4 -2
v -2 6 -2
v -2 7 -2
v -1 0 -2
v -1 1 -2
v -1 4 -2
v -1 5 -2
v -1 7 -2
v -1 9 -2
v 1 0 -2
v 1 1 -2
v 1 4 -2
v 1 5 -2
v 1 7 -2
v 1 9 -2
v 2 1 -2
v 2 4 -2
v 2 6 -2
v 2 7 -2
v 3 1 -2
v 3 4 -2
v 3 6 -2
v 3 7 -2
v -2 1 -3
v -2 4 -3
v -2 6 -3
v -2 7 -3
v 2 1 -3
v 2 4 -3
v 2 6 -3
v 2 7 -3
v -1 0 2
v 1 0 2
v -2 0 1
v -1 0 1
v 1 0 1
v 2 0 1
v -2 0 -1
v -1 0 -1
v 1 0 -1
v 2 0 -1
v -1 0 -2
v 1 0 -2
v -2 1 3
v 2 1 3
v -3 1 2
v -2 1 2
v -1 1 2
v 1 1 2
v 2 1 2
v 3 1 2
v -2 1 1
v -1 1 1
v 1 1 1
v 2 1 1
v -2 1 -1
v -1 1 -1
v 1 1 -1
v 2 1 -1
v -3 1 -2
v -2 1 -2
v -1 1 -2
v 1 1 -2
v 2 1 -2
v 3 1 -2
v -2 1 -3
v 2 1 -3
v -2 6 3
v 2 6 3
v -3 6 2
v -2 6 2
v 2 6 2
v 3 6 2
v -1 6 1
v 1 6 1
v -1 6 -1
v 1 6 -1
v -3 6 -2
v -2 6 -2
v 2 6 -2
v 3 6 -2
v -2 6 -3
v 2 6 -3
v -2 4 3
v 2 4 3
v -3 4 2
v -2 4 2
v -1 4 2
v 1 4 2
v 2 4 2
v 3 4 2
v -2 4 1
v -1 4 1
v 1 4 1
v 2 4 1
v -2 4 -1
v -1 4 -1
v 1 4 -1
v 2 4 -1
v -3 4 -2
v -2 4 -2
v -1 4 -2
v 1 4 -2
v 2 4 -2
v 3 4 -2
v -2 4 -3
v 2 4 -3
v -1 5 2
v 1 5 2
v -2 5 1
v -1 5 1
v 1 5 1
v 2 5 1
v -2 5 -1
v -1 5 -1
v 1 5 -1
v 2 5 -1
v -1 5 -2
v 1 5 -2
v -2 7 3
v 2 7 3
v -3 7 2
v -2 7 2
v -1 7 2
v 1 7 2
v 2 7 2
v 3 7 2
v -2 7 1
v -1 7 1
v 1 7 1
v 2 7 1
v -2 7 -1
v -1 7 -1
v 1 7 -1
v 2 7 -1
v -3 7 -2
v -2 7 -2
v -1 7 -2
v 1 7 -2
v 2 7 -2
v 3 7 -2
v -2 7 -3
v 2 7 -3
v -1 9 2
v 1 9 2
v -2 9 1
v -1 9 1
v 1 9 1
v 2 9 1
v -2 9 -1
v -1 9 -1
v 1 9 -1
v 2 9 -1
v -1 9 -2
v 1 9 -2
v -1 10 1
v 1 10 1
v -1 10 -1
v 1 10 -1

# faces
f 3/4/1 2/4/1 1/4/1
f 4/4/1 2/4/1 3/4/1
f 7/2/1 6/2/1 5/2/1
f 8/2/1 6/2/1 7/2/1
f 13/3/1 10/3/1 9/3/1
f 14/3/1 10/3/1 13/3/1
f 17/4/1 12/4/1 11/4/1
f 18/4/1 12/4/1 17/4/1
f 21/4/1 16/4/1 15/4/1
f 22/4/1 16/4/1 21/4/1
f 23/4/1 20/4/1 19/4/1
f 24/4/1 20/4/1 23/4/1
f 29/2/1 26/2/1 25/2/1
f 30/2/1 26/2/1 29/2/1
f 33/2/1 28/2/1 27/2/1
f 34/2/1 28/2/1 33/2/1
f 35/2/1 32/2/1 31/2/1
f 36/2/1 32/2/1 35/2/1
f 41/3/1 38/3/1 37/3/1
f 42/3/1 38/3/1 41/3/1
f 43/3/1 40/3/1 39/3/1
f 44/3/1 40/3/1 43/3/1
f 49/4/1 46/4/1 45/4/1
f 50/4/1 46/4/1 49/4/1
f 51/4/1 48/4/1 47/4/1
f 52/4/1 48/4/1 51/4/1
f 53/4/1 51/4/1 50/4/1
f 54/4/1 51/4/1 53/4/1
f 59/2/1 56/2/1 55/2/1
f 60/2/1 56/2/1 59/2/1
f 61/2/1 58/2/1 57/2/1
f 62/2/1 58/2/1 61/2/1
f 63/2/1 61/2/1 60/2/1
f 64/2/1 61/2/1 63/2/1
f 65/3/2 66/3/2 69/3/2
f 69/3/2 66/3/2 70/3/2
f 67/3/2 68/3/2 71/3/2
f 71/3/2 68/3/2 72/3/2
f 73/4/2 74/4/2 77/4/2
f 77/4/2 74/4/2 78/4/2
f 75/4/2 76/4/2 79/4/2
f 79/4/2 76/4/2 80/4/2
f 78/4/2 79/4/2 81/4/2
f 81/4/2 79/4/2 82/4/2
f 83/2/2 84/2/2 87/2/2
f 87/2/2 84/2/2 88/2/2
f 85/2/2 86/2/2 89/2/2
f 89/2/2 86/2/2 90/2/2
f 88/2/2 89/2/2 91/2/2
f 91/2/2 89/2/2 92/2/2
f 93/3/2 94/3/2 97/3/2
f 97/3/2 94/3/2 98/3/2
f 95/4/2 96/4/2 101/4/2
f 101/4/2 96/4/2 102/4/2
f 99/4/2 100/4/2 105/4/2
f 105/4/2 100/4/2 106/4/2
f 103/4/2 104/4/2 107/4/2
f 107/4/2 104/4/2 108/4/2
f 109/2/2 110/2/2 113/2/2
f 113/2/2 110/2/2 114/2/2
f 111/2/2 112/2/2 117/2/2
f 117/2/2 112/2/2 118/2/2
f 115/2/2 116/2/2 119/2/2
f 119/2/2 116/2/2 120/2/2
f 121/4/2 122/4/2 123/4/2
f 123/4/2 122/4/2 124/4/2
f 125/2/2 126/2/2 127/2/2
f 127/2/2 126/2/2 128/2/2
f 133/4/3 130/4/3 129/4/3
f 134/4/3 130/4/3 133/4/3
f 135/2/3 132/2/3 131/2/3
f 136/2/3 132/2/3 135/2/3
f 141/4/3 138/4/3 137/4/3
f 142/4/3 138/4/3 141/4/3
f 143/2/3 140/2/3 139/2/3
f 144/2/3 140/2/3 143/2/3
f 151/3/3 146/3/3 145/3/3
f 152/3/3 146/3/3 151/3/3
f 153/4/3 148/4/3 147/4/3
f 154/4/3 148/4/3 153/4/3
f 155/2/3 150/2/3 149/2/3
f 156/2/3 150/2/3 155/2/3
f 161/4/3 158/4/3 157/4/3
f 162/4/3 158/4/3 161/4/3
f 163/2/3 160/2/3 159/2/3
f 164/2/3 160/2/3 163/2/3
f 171/3/3 166/3/3 165/3/3
f 172/3/3 166/3/3 171/3/3
f 173/4/3 168/4/3 167/4/3
f 174/4/3 168/4/3 173/4/3
f 176/2/3 170/2/3 169/2/3
f 177/2/3 170/2/3 176/2/3
f 182/4/3 175/4/3 174/4/3
f 183/4/3 175/4/3 182/4/3
f 185/2/3 178/2/3 177/2/3
f 186/2/3 178/2/3 185/2/3
f 187/3/3 180/3/3 179/3/3
f 188/3/3 180/3/3 187/3/3
f 189/4/3 182/4/3 181/4/3
f 190/4/3 182/4/3 189/4/3
f 191/2/3 185/2/3 184/2/3
f 192/2/3 185/2/3 191/2/3
f 193/3/4 194/3/4 199/3/4
f 199/3/4 194/3/4 200/3/4
f 195/4/4 196/4/4 201/4/4
f 201/4/4 196/4/4 202/4/4
f 197/2/4 198/2/4 204/2/4
f 204/2/4 198/2/4 205/2/4
f 202/4/4 203/4/4 210/4/4
f 210/4/4 203/4/4 211/4/4
f 205/2/4 206/2/4 213/2/4
f 213/2/4 206/2/4 214/2/4
f 207/3/4 208/3/4 215/3/4
f 215/3/4 208/3/4 216/3/4
f 209/4/4 210/4/4 217/4/4
f 217/4/4 210/4/4 218/4/4
f 212/2/4 213/2/4 219/2/4
f 219/2/4 213/2/4 220/2/4
f 221/4/4 222/4/4 225/4/4
f 225/4/4 222/4/4 226/4/4
f 223/2/4 224/2/4 227/2/4
f 227/2/4 224/2/4 228/2/4
f 229/3/4 230/3/4 235/3/4
f 235/3/4 230/3/4 236/3/4
f 231/4/4 232/4/4 237/4/4
f 237/4/4 232/4/4 238/4/4
f 233/2/4 234/2/4 239/2/4
f 239/2/4 234/2/4 240/2/4
f 241/4/4 242/4/4 245/4/4
f 245/4/4 242/4/4 246/4/4
f 243/2/4 244/2/4 247/2/4
f 247/2/4 244/2/4 248/2/4
f 249/4/4 250/4/4 253/4/4
f 253/4/4 250/4/4 254/4/4
f 251/2/4 252/2/4 255/2/4
f 255/2/4 252/2/4 256/2/4
f 260/3/5 258/3/5 257/3/5
f 261/3/5 258/3/5 260/3/5
f 263/3/5 260/3/5 259/3/5
f 263/3/5 262/3/5 261/3/5
f 263/3/5 261/3/5 260/3/5
f 264/3/5 262/3/5 263/3/5
f 265/3/5 262/3/5 264/3/5
f 266/3/5 262/3/5 265/3/5
f 267/3/5 265/3/5 264/3/5
f 268/3/5 265/3/5 267/3/5
f 272/4/5 270/4/5 269/4/5
f 273/4/5 270/4/5 272/4/5
f 274/4/5 270/4/5 273/4/5
f 275/4/5 270/4/5 274/4/5
f 277/4/5 272/4/5 271/4/5
f 277/3/5 273/3/5 272/3/5
f 278/3/5 273/3/5 277/3/5
f 279/3/5 275/3/5 274/3/5
f 280/4/5 276/4/5 275/4/5
f 280/3/5 275/3/5 279/3/5
f 281/4/5 277/4/5 271/4/5
f 284/4/5 276/4/5 280/4/5
f 285/4/5 281/4/5 271/4/5
f 286/3/5 282/3/5 281/3/5
f 286/4/5 281/4/5 285/4/5
f 287/3/5 282/3/5 286/3/5
f 288/3/5 284/3/5 283/3/5
f 289/4/5 276/4/5 284/4/5
f 289/3/5 284/3/5 288/3/5
f 290/4/5 276/4/5 289/4/5
f 291/4/5 287/4/5 286/4/5
f 291/4/5 288/4/5 287/4/5
f 291/4/5 289/4/5 288/4/5
f 292/4/5 289/4/5 291/4/5
f 296/2/5 294/2/5 293/2/5
f 297/2/5 294/2/5 296/2/5
f 299/2/5 296/2/5 295/2/5
f 299/2/5 298/2/5 297/2/5
f 299/2/5 297/2/5 296/2/5
f 300/2/5 298/2/5 299/2/5
f 301/2/5 299/2/5 295/2/5
f 302/2/5 298/2/5 300/2/5
f 303/2/5 301/2/5 295/2/5
f 303/2/5 302/2/5 301/2/5
f 304/2/5 302/2/5 303/2/5
f 305/2/5 298/2/5 302/2/5
f 305/2/5 302/2/5 304/2/5
f 306/2/5 298/2/5 305/2/5
f 307/2/5 305/2/5 304/2/5
f 308/2/5 305/2/5 307/2/5
f 309/4/6 310/4/6 312/4/6
f 312/4/6 310/4/6 313/4/6
f 313/4/6 310/4/6 314/4/6
f 314/4/6 310/4/6 315/4/6
f 311/4/6 312/4/6 317/4/6
f 312/4/6 313/4/6 317/4/6
f 317/4/6 313/4/6 318/4/6
f 315/4/6 316/4/6 319/4/6
f 314/4/6 315/4/6 319/4/6
f 319/4/6 316/4/6 320/4/6
f 311/4/6 317/4/6 321/4/6
f 320/4/6 316/4/6 324/4/6
f 321/4/6 322/4/6 325/4/6
f 311/4/6 321/4/6 325/4/6
f 325/4/6 322/4/6 326/4/6
f 326/4/6 322/4/6 327/4/6
f 323/4/6 324/4/6 328/4/6
f 324/4/6 316/4/6 329/4/6
f 328/4/6 324/4/6 329/4/6
f 329/4/6 316/4/6 330/4/6
f 326/4/6 327/4/6 331/4/6
f 327/4/6 328/4/6 331/4/6
f 328/4/6 329/4/6 331/4/6
f 331/4/6 329/4/6 332/4/6
f 333/4/6 334/4/6 336/4/6
f 336/4/6 334/4/6 337/4/6
f 335/4/6 336/4/6 339/4/6
f 339/4/6 336/4/6 340/4/6
f 337/4/6 338/4/6 341/4/6
f 341/4/6 338/4/6 342/4/6
f 340/4/6 341/4/6 343/4/6
f 343/4/6 341/4/6 344/4/6
f 345/2/6 346/2/6 348/2/6
f 348/2/6 346/2/6 349/2/6
f 349/2/6 346/2/6 350/2/6
f 350/2/6 346/2/6 351/2/6
f 347/2/6 348/2/6 353/2/6
f 348/2/6 349/2/6 353/2/6
f 353/2/6 349/2/6 354/2/6
f 351/2/6 352/2/6 355/2/6
f 350/2/6 351/2/6 355/2/6
f 355/2/6 352/2/6 356/2/6
f 347/2/6 353/2/6 357/2/6
f 356/2/6 352/2/6 360/2/6
f 357/2/6 358/2/6 361/2/6
f 347/2/6 357/2/6 361/2/6
f 361/2/6 358/2/6 362/2/6
f 362/2/6 358/2/6 363/2/6
f 359/2/6 360/2/6 364/2/6
f 360/2/6 352/2/6 365/2/6
f 364/2/6 360/2/6 365/2/6
f 365/2/6 352/2/6 366/2/6
f 362/2/6 363/2/6 367/2/6
f 363/2/6 364/2/6 367/2/6
f 364/2/6 365/2/6 367/2/6
f 367/2/6 365/2/6 368/2/6
f 369/2/6 370/2/6 372/2/6
f 372/2/6 370/2/6 373/2/6
f 371/2/6 372/2/6 375/2/6
f 375/2/6 372/2/6 376/2/6
f 373/2/6 374/2/6 377/2/6
f 377/2/6 374/2/6 378/2/6
f 376/2/6 377/2/6 379/2/6
f 379/2/6 377/2/6 380/2/6
f 381/2/6 382/2/6 383/2/6
f 383/2/6 382/2/6 384/2/6
