# MagicaVoxel @ Ephtracy

# group
g map-16

# material
mtllib map-16.mtl
usemtl palette

# normals
vn -1 0 0
vn 1 0 0
vn 0 0 1
vn 0 0 -1
vn 0 -1 0
vn 0 1 0

# texcoords
vt 0.197266 0.5
vt 0.990234 0.5

# verts
v -6 0 6
v -6 0 -6
v -6 11 6
v -6 11 -6
v -6 12 6
v -6 12 -6
v 6 0 6
v 6 0 -6
v 6 11 6
v 6 11 -6
v 6 12 6
v 6 12 -6
v -6 0 6
v -6 11 6
v -6 12 6
v 6 0 6
v 6 11 6
v 6 12 6
v -6 0 -6
v -6 11 -6
v -6 12 -6
v 6 0 -6
v 6 11 -6
v 6 12 -6
v -6 0 6
v 6 0 6
v -6 0 -6
v 6 0 -6
v -6 12 6
v 6 12 6
v -6 12 -6
v 6 12 -6

# faces
f 3/1/1 2/1/1 1/1/1
f 4/1/1 2/1/1 3/1/1
f 5/2/1 4/2/1 3/2/1
f 6/2/1 4/2/1 5/2/1
f 7/1/2 8/1/2 9/1/2
f 9/1/2 8/1/2 10/1/2
f 9/2/2 10/2/2 11/2/2
f 11/2/2 10/2/2 12/2/2
f 16/1/3 14/1/3 13/1/3
f 17/2/3 15/2/3 14/2/3
f 17/1/3 14/1/3 16/1/3
f 18/2/3 15/2/3 17/2/3
f 19/1/4 20/1/4 22/1/4
f 20/2/4 21/2/4 23/2/4
f 22/1/4 20/1/4 23/1/4
f 23/2/4 21/2/4 24/2/4
f 27/1/5 26/1/5 25/1/5
f 28/1/5 26/1/5 27/1/5
f 29/2/6 30/2/6 31/2/6
f 31/2/6 30/2/6 32/2/6
