# MagicaVoxel @ Ephtracy

# group
g map-117

# material
mtllib map-117.mtl
usemtl palette

# normals
vn -1 0 0
vn 1 0 0
vn 0 0 1
vn 0 0 -1
vn 0 -1 0
vn 0 1 0

# texcoords
vt 0.373047 0.5
vt 0.728516 0.5
vt 0.986328 0.5

# verts
v -7 0 7.5
v -7 0 -8.5
v -7 25 7.5
v -7 25 -8.5
v -4 18 8.5
v -4 18 7.5
v -4 18 5.5
v -4 19 7.5
v -4 19 5.5
v -4 20 7.5
v -4 21 7.5
v -4 22 7.5
v -4 22 5.5
v -4 23 8.5
v -4 23 7.5
v -4 23 5.5
v 6 1 7.5
v 6 1 5.5
v 6 4 7.5
v 6 4 5.5
v 6 5 7.5
v 6 5 5.5
v 6 8 7.5
v 6 8 5.5
v 6 9 7.5
v 6 9 5.5
v 6 12 7.5
v 6 12 5.5
v 6 13 7.5
v 6 13 5.5
v 6 16 7.5
v 6 16 5.5
v 6 17 7.5
v 6 17 5.5
v 6 20 7.5
v 6 20 5.5
v 6 21 7.5
v 6 21 5.5
v 6 24 7.5
v 6 24 5.5
v -6 1 7.5
v -6 1 5.5
v -6 4 7.5
v -6 4 5.5
v -6 5 7.5
v -6 5 5.5
v -6 8 7.5
v -6 8 5.5
v -6 9 7.5
v -6 9 5.5
v -6 12 7.5
v -6 12 5.5
v -6 13 7.5
v -6 13 5.5
v -6 16 7.5
v -6 16 5.5
v -6 17 7.5
v -6 17 5.5
v -6 20 7.5
v -6 20 5.5
v -6 21 7.5
v -6 21 5.5
v -6 24 7.5
v -6 24 5.5
v -2 18 8.5
v -2 18 7.5
v -2 18 5.5
v -2 19 7.5
v -2 19 5.5
v -2 20 7.5
v -2 21 7.5
v -2 22 7.5
v -2 22 5.5
v -2 23 8.5
v -2 23 7.5
v -2 23 5.5
v 7 0 7.5
v 7 0 -8.5
v 7 25 7.5
v 7 25 -8.5
v -4 18 8.5
v -4 23 8.5
v -3 18 8.5
v -3 23 8.5
v -2 18 8.5
v -2 23 8.5
v -7 0 7.5
v -7 25 7.5
v -6 1 7.5
v -6 4 7.5
v -6 5 7.5
v -6 8 7.5
v -6 9 7.5
v -6 12 7.5
v -6 13 7.5
v -6 16 7.5
v -6 17 7.5
v -6 20 7.5
v -6 21 7.5
v -6 24 7.5
v -4 20 7.5
v -4 21 7.5
v -2 20 7.5
v -2 21 7.5
v 6 1 7.5
v 6 4 7.5
v 6 5 7.5
v 6 8 7.5
v 6 9 7.5
v 6 12 7.5
v 6 13 7.5
v 6 16 7.5
v 6 17 7.5
v 6 20 7.5
v 6 21 7.5
v 6 24 7.5
v 7 0 7.5
v 7 25 7.5
v -6 1 5.5
v -6 4 5.5
v -6 5 5.5
v -6 8 5.5
v -6 9 5.5
v -6 12 5.5
v -6 13 5.5
v -6 16 5.5
v -6 17 5.5
v -6 20 5.5
v -6 21 5.5
v -6 24 5.5
v -4 18 5.5
v -4 19 5.5
v -4 22 5.5
v -4 23 5.5
v -2 18 5.5
v -2 19 5.5
v -2 22 5.5
v -2 23 5.5
v 6 1 5.5
v 6 4 5.5
v 6 5 5.5
v 6 8 5.5
v 6 9 5.5
v 6 12 5.5
v 6 13 5.5
v 6 16 5.5
v 6 17 5.5
v 6 20 5.5
v 6 21 5.5
v 6 24 5.5
v -4 19 7.5
v -4 20 7.5
v -4 21 7.5
v -4 22 7.5
v -3 19 7.5
v -3 20 7.5
v -3 21 7.5
v -3 22 7.5
v -2 19 7.5
v -2 20 7.5
v -2 21 7.5
v -2 22 7.5
v -7 0 -8.5
v -7 25 -8.5
v 7 0 -8.5
v 7 25 -8.5
v -7 0 7.5
v 7 0 7.5
v -7 0 -8.5
v 7 0 -8.5
v -6 4 7.5
v 6 4 7.5
v -6 4 5.5
v 6 4 5.5
v -6 8 7.5
v 6 8 7.5
v -6 8 5.5
v 6 8 5.5
v -6 12 7.5
v 6 12 7.5
v -6 12 5.5
v 6 12 5.5
v -6 16 7.5
v 6 16 7.5
v -6 16 5.5
v 6 16 5.5
v -4 18 8.5
v -3 18 8.5
v -2 18 8.5
v -4 18 7.5
v -3 18 7.5
v -2 18 7.5
v -4 18 5.5
v -2 18 5.5
v -6 20 7.5
v -4 20 7.5
v -3 20 7.5
v -2 20 7.5
v 6 20 7.5
v -6 20 5.5
v 6 20 5.5
v -4 22 7.5
v -3 22 7.5
v -2 22 7.5
v -4 22 5.5
v -2 22 5.5
v -6 24 7.5
v 6 24 7.5
v -6 24 5.5
v 6 24 5.5
v -6 1 7.5
v 6 1 7.5
v -6 1 5.5
v 6 1 5.5
v -6 5 7.5
v 6 5 7.5
v -6 5 5.5
v 6 5 5.5
v -6 9 7.5
v 6 9 7.5
v -6 9 5.5
v 6 9 5.5
v -6 13 7.5
v 6 13 7.5
v -6 13 5.5
v 6 13 5.5
v -6 17 7.5
v 6 17 7.5
v -6 17 5.5
v 6 17 5.5
v -4 19 7.5
v -3 19 7.5
v -2 19 7.5
v -4 19 5.5
v -2 19 5.5
v -6 21 7.5
v -4 21 7.5
v -3 21 7.5
v -2 21 7.5
v 6 21 7.5
v -6 21 5.5
v 6 21 5.5
v -4 23 8.5
v -3 23 8.5
v -2 23 8.5
v -4 23 7.5
v -3 23 7.5
v -2 23 7.5
v -4 23 5.5
v -2 23 5.5
v -7 25 7.5
v 7 25 7.5
v -7 25 -8.5
v 7 25 -8.5

# faces
f 3/3/1 2/3/1 1/3/1
f 4/3/1 2/3/1 3/3/1
f 8/1/1 6/1/1 5/1/1
f 8/3/1 7/3/1 6/3/1
f 9/3/1 7/3/1 8/3/1
f 10/1/1 8/1/1 5/1/1
f 11/1/1 10/1/1 5/1/1
f 12/1/1 11/1/1 5/1/1
f 14/1/1 12/1/1 5/1/1
f 15/3/1 13/3/1 12/3/1
f 15/1/1 12/1/1 14/1/1
f 16/3/1 13/3/1 15/3/1
f 19/3/1 18/3/1 17/3/1
f 20/3/1 18/3/1 19/3/1
f 23/3/1 22/3/1 21/3/1
f 24/3/1 22/3/1 23/3/1
f 27/3/1 26/3/1 25/3/1
f 28/3/1 26/3/1 27/3/1
f 31/3/1 30/3/1 29/3/1
f 32/3/1 30/3/1 31/3/1
f 35/3/1 34/3/1 33/3/1
f 36/3/1 34/3/1 35/3/1
f 39/3/1 38/3/1 37/3/1
f 40/3/1 38/3/1 39/3/1
f 41/3/2 42/3/2 43/3/2
f 43/3/2 42/3/2 44/3/2
f 45/3/2 46/3/2 47/3/2
f 47/3/2 46/3/2 48/3/2
f 49/3/2 50/3/2 51/3/2
f 51/3/2 50/3/2 52/3/2
f 53/3/2 54/3/2 55/3/2
f 55/3/2 54/3/2 56/3/2
f 57/3/2 58/3/2 59/3/2
f 59/3/2 58/3/2 60/3/2
f 61/3/2 62/3/2 63/3/2
f 63/3/2 62/3/2 64/3/2
f 65/2/2 66/2/2 68/2/2
f 66/3/2 67/3/2 68/3/2
f 68/3/2 67/3/2 69/3/2
f 65/2/2 68/2/2 70/2/2
f 65/2/2 70/2/2 71/2/2
f 65/2/2 71/2/2 72/2/2
f 65/2/2 72/2/2 74/2/2
f 72/3/2 73/3/2 75/3/2
f 74/2/2 72/2/2 75/2/2
f 75/3/2 73/3/2 76/3/2
f 77/3/2 78/3/2 79/3/2
f 79/3/2 78/3/2 80/3/2
f 83/1/3 82/1/3 81/1/3
f 84/1/3 82/1/3 83/1/3
f 85/2/3 84/2/3 83/2/3
f 86/2/3 84/2/3 85/2/3
f 89/3/3 88/3/3 87/3/3
f 90/3/3 88/3/3 89/3/3
f 91/3/3 88/3/3 90/3/3
f 92/3/3 88/3/3 91/3/3
f 93/3/3 88/3/3 92/3/3
f 94/3/3 88/3/3 93/3/3
f 95/3/3 88/3/3 94/3/3
f 96/3/3 88/3/3 95/3/3
f 97/3/3 88/3/3 96/3/3
f 98/3/3 88/3/3 97/3/3
f 99/3/3 88/3/3 98/3/3
f 100/3/3 88/3/3 99/3/3
f 101/3/3 99/3/3 98/3/3
f 102/3/3 99/3/3 101/3/3
f 105/3/3 89/3/3 87/3/3
f 106/3/3 91/3/3 90/3/3
f 107/3/3 91/3/3 106/3/3
f 108/3/3 93/3/3 92/3/3
f 109/3/3 93/3/3 108/3/3
f 110/3/3 95/3/3 94/3/3
f 111/3/3 95/3/3 110/3/3
f 112/3/3 97/3/3 96/3/3
f 113/3/3 97/3/3 112/3/3
f 114/3/3 104/3/3 103/3/3
f 115/3/3 104/3/3 114/3/3
f 116/3/3 88/3/3 100/3/3
f 117/3/3 113/3/3 112/3/3
f 117/3/3 116/3/3 115/3/3
f 117/3/3 115/3/3 114/3/3
f 117/3/3 105/3/3 87/3/3
f 117/3/3 111/3/3 110/3/3
f 117/3/3 112/3/3 111/3/3
f 117/3/3 107/3/3 106/3/3
f 117/3/3 110/3/3 109/3/3
f 117/3/3 109/3/3 108/3/3
f 117/3/3 108/3/3 107/3/3
f 117/3/3 114/3/3 113/3/3
f 117/3/3 106/3/3 105/3/3
f 118/3/3 88/3/3 116/3/3
f 118/3/3 116/3/3 117/3/3
f 131/3/3 128/3/3 127/3/3
f 132/3/3 128/3/3 131/3/3
f 133/3/3 130/3/3 129/3/3
f 134/3/3 130/3/3 133/3/3
f 135/3/3 131/3/3 127/3/3
f 136/3/3 128/3/3 132/3/3
f 137/3/3 133/3/3 129/3/3
f 138/3/3 130/3/3 134/3/3
f 139/3/3 120/3/3 119/3/3
f 140/3/3 120/3/3 139/3/3
f 141/3/3 122/3/3 121/3/3
f 142/3/3 122/3/3 141/3/3
f 143/3/3 124/3/3 123/3/3
f 144/3/3 124/3/3 143/3/3
f 145/3/3 126/3/3 125/3/3
f 146/3/3 126/3/3 145/3/3
f 147/3/3 135/3/3 127/3/3
f 147/3/3 136/3/3 135/3/3
f 148/3/3 128/3/3 136/3/3
f 148/3/3 136/3/3 147/3/3
f 149/3/3 138/3/3 137/3/3
f 149/3/3 137/3/3 129/3/3
f 150/3/3 130/3/3 138/3/3
f 150/3/3 138/3/3 149/3/3
f 151/1/4 152/1/4 155/1/4
f 155/1/4 152/1/4 156/1/4
f 153/1/4 154/1/4 157/1/4
f 157/1/4 154/1/4 158/1/4
f 155/2/4 156/2/4 159/2/4
f 159/2/4 156/2/4 160/2/4
f 157/2/4 158/2/4 161/2/4
f 161/2/4 158/2/4 162/2/4
f 163/3/4 164/3/4 165/3/4
f 165/3/4 164/3/4 166/3/4
f 169/3/5 168/3/5 167/3/5
f 170/3/5 168/3/5 169/3/5
f 173/3/5 172/3/5 171/3/5
f 174/3/5 172/3/5 173/3/5
f 177/3/5 176/3/5 175/3/5
f 178/3/5 176/3/5 177/3/5
f 181/3/5 180/3/5 179/3/5
f 182/3/5 180/3/5 181/3/5
f 185/3/5 184/3/5 183/3/5
f 186/3/5 184/3/5 185/3/5
f 190/1/5 188/1/5 187/1/5
f 191/2/5 189/2/5 188/2/5
f 191/1/5 188/1/5 190/1/5
f 192/2/5 189/2/5 191/2/5
f 193/3/5 191/3/5 190/3/5
f 193/3/5 192/3/5 191/3/5
f 194/3/5 192/3/5 193/3/5
f 200/3/5 196/3/5 195/3/5
f 200/3/5 199/3/5 198/3/5
f 200/3/5 198/3/5 197/3/5
f 200/3/5 197/3/5 196/3/5
f 201/3/5 199/3/5 200/3/5
f 205/3/5 203/3/5 202/3/5
f 205/3/5 204/3/5 203/3/5
f 206/3/5 204/3/5 205/3/5
f 209/3/5 208/3/5 207/3/5
f 210/3/5 208/3/5 209/3/5
f 211/3/6 212/3/6 213/3/6
f 213/3/6 212/3/6 214/3/6
f 215/3/6 216/3/6 217/3/6
f 217/3/6 216/3/6 218/3/6
f 219/3/6 220/3/6 221/3/6
f 221/3/6 220/3/6 222/3/6
f 223/3/6 224/3/6 225/3/6
f 225/3/6 224/3/6 226/3/6
f 227/3/6 228/3/6 229/3/6
f 229/3/6 228/3/6 230/3/6
f 231/3/6 232/3/6 234/3/6
f 232/3/6 233/3/6 234/3/6
f 234/3/6 233/3/6 235/3/6
f 236/3/6 237/3/6 241/3/6
f 239/3/6 240/3/6 241/3/6
f 238/3/6 239/3/6 241/3/6
f 237/3/6 238/3/6 241/3/6
f 241/3/6 240/3/6 242/3/6
f 243/1/6 244/1/6 246/1/6
f 244/2/6 245/2/6 247/2/6
f 246/1/6 244/1/6 247/1/6
f 247/2/6 245/2/6 248/2/6
f 246/3/6 247/3/6 249/3/6
f 247/3/6 248/3/6 249/3/6
f 249/3/6 248/3/6 250/3/6
f 251/3/6 252/3/6 253/3/6
f 253/3/6 252/3/6 254/3/6
