# MagicaVoxel @ Ephtracy

# group
g map-75

# material
mtllib map-75.mtl
usemtl palette

# normals
vn -1 0 0
vn 1 0 0
vn 0 0 1
vn 0 0 -1
vn 0 -1 0
vn 0 1 0

# texcoords
vt 0.353516 0.5
vt 0.919922 0.5

# verts
v -56 0 56
v -56 0 -56
v -56 1 56
v -56 1 -56
v 56 0 56
v 56 0 3
v 56 0 -56
v 56 1 56
v 56 1 3
v 56 1 -56
v -56 0 56
v -56 1 56
v 56 0 56
v 56 1 56
v -56 0 -56
v -56 1 -56
v 11 0 -56
v 11 1 -56
v 56 0 -56
v 56 1 -56
v -56 0 56
v 56 0 56
v 11 0 3
v 56 0 3
v -56 0 -56
v 11 0 -56
v 56 0 -56
v -56 1 56
v 56 1 56
v 11 1 3
v 56 1 3
v -56 1 -56
v 11 1 -56
v 56 1 -56

# faces
f 3/1/1 2/1/1 1/1/1
f 4/1/1 2/1/1 3/1/1
f 5/1/2 6/1/2 8/1/2
f 6/2/2 7/2/2 9/2/2
f 8/1/2 6/1/2 9/1/2
f 9/2/2 7/2/2 10/2/2
f 13/1/3 12/1/3 11/1/3
f 14/1/3 12/1/3 13/1/3
f 15/1/4 16/1/4 17/1/4
f 17/1/4 16/1/4 18/1/4
f 17/2/4 18/2/4 19/2/4
f 19/2/4 18/2/4 20/2/4
f 23/1/5 22/1/5 21/1/5
f 24/1/5 22/1/5 23/1/5
f 25/1/5 23/1/5 21/1/5
f 26/2/5 24/2/5 23/2/5
f 26/1/5 23/1/5 25/1/5
f 27/2/5 24/2/5 26/2/5
f 28/1/6 29/1/6 30/1/6
f 30/1/6 29/1/6 31/1/6
f 28/1/6 30/1/6 32/1/6
f 30/2/6 31/2/6 33/2/6
f 32/1/6 30/1/6 33/1/6
f 33/2/6 31/2/6 34/2/6
