# MagicaVoxel @ Ephtracy

# group
g map-81

# material
mtllib map-81.mtl
usemtl palette

# normals
vn -1 0 0
vn 1 0 0
vn 0 0 1
vn 0 0 -1
vn 0 -1 0
vn 0 1 0

# texcoords
vt 0.478516 0.5
vt 0.916016 0.5

# verts
v -7.5 7 1.5
v -7.5 7 -2.5
v -7.5 9 1.5
v -7.5 9 -2.5
v -6.5 3 1.5
v -6.5 3 -2.5
v -6.5 7 3.5
v -6.5 7 1.5
v -6.5 7 -2.5
v -6.5 7 -4.5
v -6.5 9 3.5
v -6.5 9 1.5
v -6.5 9 -2.5
v -6.5 9 -4.5
v -5.5 0 1.5
v -5.5 0 -2.5
v -5.5 3 3.5
v -5.5 3 1.5
v -5.5 3 -2.5
v -5.5 3 -4.5
v -5.5 7 4.5
v -5.5 7 3.5
v -5.5 7 1.5
v -5.5 7 -2.5
v -5.5 7 -4.5
v -5.5 7 -5.5
v -5.5 9 4.5
v -5.5 9 3.5
v -5.5 9 -4.5
v -5.5 9 -5.5
v -4.5 0 2.5
v -4.5 0 1.5
v -4.5 0 -2.5
v -4.5 0 -3.5
v -4.5 3 2.5
v -4.5 3 1.5
v -4.5 3 -2.5
v -4.5 3 -3.5
v -3.5 0 3.5
v -3.5 0 2.5
v -3.5 0 -3.5
v -3.5 0 -4.5
v -3.5 3 4.5
v -3.5 3 3.5
v -3.5 3 2.5
v -3.5 3 -3.5
v -3.5 3 -4.5
v -3.5 3 -5.5
v -3.5 7 5.5
v -3.5 7 4.5
v -3.5 7 3.5
v -3.5 7 -4.5
v -3.5 7 -5.5
v -3.5 7 -6.5
v -3.5 9 5.5
v -3.5 9 4.5
v -3.5 9 -5.5
v -3.5 9 -6.5
v 2.5 0 4.5
v 2.5 0 1.5
v 2.5 0 -2.5
v 2.5 0 -5.5
v 2.5 3 3.5
v 2.5 3 1.5
v 2.5 3 -2.5
v 2.5 3 -4.5
v 2.5 5 6.5
v 2.5 5 4.5
v 2.5 5 -5.5
v 2.5 5 -7.5
v 2.5 7 4.5
v 2.5 7 3.5
v 2.5 7 -4.5
v 2.5 7 -5.5
v 2.5 9 4.5
v 2.5 9 -5.5
v 2.5 12 6.5
v 2.5 12 -7.5
v 2.5 13 6.5
v 2.5 13 -7.5
v 2.5 15 6.5
v 2.5 15 -7.5
v 3.5 12 8.5
v 3.5 12 7.5
v 3.5 12 5.5
v 3.5 12 -6.5
v 3.5 13 8.5
v 3.5 13 7.5
v 3.5 13 5.5
v 3.5 13 -6.5
v 4.5 12 7.5
v 4.5 12 6.5
v 4.5 12 5.5
v 4.5 12 -6.5
v 4.5 12 -7.5
v 4.5 13 7.5
v 4.5 13 6.5
v 4.5 13 5.5
v 4.5 13 -6.5
v 4.5 13 -7.5
v 0.5 0 3.5
v 0.5 0 2.5
v 0.5 0 -3.5
v 0.5 0 -4.5
v 0.5 3 4.5
v 0.5 3 3.5
v 0.5 3 2.5
v 0.5 3 -3.5
v 0.5 3 -4.5
v 0.5 3 -5.5
v 0.5 7 5.5
v 0.5 7 4.5
v 0.5 7 3.5
v 0.5 7 -4.5
v 0.5 7 -5.5
v 0.5 7 -6.5
v 0.5 9 5.5
v 0.5 9 4.5
v 0.5 9 -5.5
v 0.5 9 -6.5
v 1.5 0 2.5
v 1.5 0 1.5
v 1.5 0 -2.5
v 1.5 0 -3.5
v 1.5 3 2.5
v 1.5 3 1.5
v 1.5 3 -2.5
v 1.5 3 -3.5
v 5.5 12 8.5
v 5.5 12 6.5
v 5.5 13 8.5
v 5.5 13 6.5
v 7.5 0 4.5
v 7.5 0 -5.5
v 7.5 5 6.5
v 7.5 5 4.5
v 7.5 5 -5.5
v 7.5 5 -7.5
v 7.5 15 6.5
v 7.5 15 -7.5
v 3.5 12 8.5
v 3.5 13 8.5
v 5.5 12 8.5
v 5.5 13 8.5
v 2.5 5 6.5
v 2.5 12 6.5
v 2.5 13 6.5
v 2.5 15 6.5
v 4.5 12 6.5
v 4.5 13 6.5
v 5.5 12 6.5
v 5.5 13 6.5
v 7.5 5 6.5
v 7.5 15 6.5
v -3.5 7 5.5
v -3.5 9 5.5
v 0.5 7 5.5
v 0.5 9 5.5
v 3.5 12 5.5
v 3.5 13 5.5
v 4.5 12 5.5
v 4.5 13 5.5
v -5.5 7 4.5
v -5.5 9 4.5
v -3.5 3 4.5
v -3.5 7 4.5
v -3.5 9 4.5
v 0.5 3 4.5
v 0.5 7 4.5
v 0.5 9 4.5
v 2.5 0 4.5
v 2.5 5 4.5
v 2.5 7 4.5
v 2.5 9 4.5
v 7.5 0 4.5
v 7.5 5 4.5
v -6.5 7 3.5
v -6.5 9 3.5
v -5.5 3 3.5
v -5.5 7 3.5
v -5.5 9 3.5
v -3.5 0 3.5
v -3.5 3 3.5
v -3.5 7 3.5
v 0.5 0 3.5
v 0.5 3 3.5
v 0.5 7 3.5
v 2.5 3 3.5
v 2.5 7 3.5
v -4.5 0 2.5
v -4.5 3 2.5
v -3.5 0 2.5
v -3.5 3 2.5
v 0.5 0 2.5
v 0.5 3 2.5
v 1.5 0 2.5
v 1.5 3 2.5
v -7.5 7 1.5
v -7.5 9 1.5
v -6.5 3 1.5
v -6.5 7 1.5
v -6.5 9 1.5
v -5.5 0 1.5
v -5.5 3 1.5
v -5.5 7 1.5
v -4.5 0 1.5
v -4.5 3 1.5
v 1.5 0 1.5
v 1.5 3 1.5
v 2.5 0 1.5
v 2.5 3 1.5
v 3.5 12 7.5
v 3.5 13 7.5
v 4.5 12 7.5
v 4.5 13 7.5
v -7.5 7 -2.5
v -7.5 9 -2.5
v -6.5 3 -2.5
v -6.5 7 -2.5
v -6.5 9 -2.5
v -5.5 0 -2.5
v -5.5 3 -2.5
v -5.5 7 -2.5
v -4.5 0 -2.5
v -4.5 3 -2.5
v 1.5 0 -2.5
v 1.5 3 -2.5
v 2.5 0 -2.5
v 2.5 3 -2.5
v -4.5 0 -3.5
v -4.5 3 -3.5
v -3.5 0 -3.5
v -3.5 3 -3.5
v 0.5 0 -3.5
v 0.5 3 -3.5
v 1.5 0 -3.5
v 1.5 3 -3.5
v -6.5 7 -4.5
v -6.5 9 -4.5
v -5.5 3 -4.5
v -5.5 7 -4.5
v -5.5 9 -4.5
v -3.5 0 -4.5
v -3.5 3 -4.5
v -3.5 7 -4.5
v 0.5 0 -4.5
v 0.5 3 -4.5
v 0.5 7 -4.5
v 2.5 3 -4.5
v 2.5 7 -4.5
v -5.5 7 -5.5
v -5.5 9 -5.5
v -3.5 3 -5.5
v -3.5 7 -5.5
v -3.5 9 -5.5
v 0.5 3 -5.5
v 0.5 7 -5.5
v 0.5 9 -5.5
v 2.5 0 -5.5
v 2.5 5 -5.5
v 2.5 7 -5.5
v 2.5 9 -5.5
v 7.5 0 -5.5
v 7.5 5 -5.5
v -3.5 7 -6.5
v -3.5 9 -6.5
v 0.5 7 -6.5
v 0.5 9 -6.5
v 3.5 12 -6.5
v 3.5 13 -6.5
v 4.5 12 -6.5
v 4.5 13 -6.5
v 2.5 5 -7.5
v 2.5 12 -7.5
v 2.5 13 -7.5
v 2.5 15 -7.5
v 4.5 12 -7.5
v 4.5 13 -7.5
v 7.5 5 -7.5
v 7.5 15 -7.5
v 2.5 0 4.5
v 7.5 0 4.5
v -3.5 0 3.5
v 0.5 0 3.5
v -4.5 0 2.5
v -3.5 0 2.5
v 0.5 0 2.5
v 1.5 0 2.5
v -5.5 0 1.5
v -4.5 0 1.5
v 1.5 0 1.5
v 2.5 0 1.5
v -5.5 0 -2.5
v -4.5 0 -2.5
v 1.5 0 -2.5
v 2.5 0 -2.5
v -4.5 0 -3.5
v -3.5 0 -3.5
v 0.5 0 -3.5
v 1.5 0 -3.5
v -3.5 0 -4.5
v 0.5 0 -4.5
v 2.5 0 -5.5
v 7.5 0 -5.5
v -3.5 3 4.5
v 0.5 3 4.5
v -5.5 3 3.5
v -3.5 3 3.5
v 0.5 3 3.5
v 2.5 3 3.5
v -4.5 3 2.5
v -3.5 3 2.5
v 0.5 3 2.5
v 1.5 3 2.5
v -6.5 3 1.5
v -5.5 3 1.5
v -4.5 3 1.5
v 1.5 3 1.5
v 2.5 3 1.5
v -6.5 3 -2.5
v -5.5 3 -2.5
v -4.5 3 -2.5
v 1.5 3 -2.5
v 2.5 3 -2.5
v -4.5 3 -3.5
v -3.5 3 -3.5
v 0.5 3 -3.5
v 1.5 3 -3.5
v -5.5 3 -4.5
v -3.5 3 -4.5
v 0.5 3 -4.5
v 2.5 3 -4.5
v -3.5 3 -5.5
v 0.5 3 -5.5
v 2.5 5 6.5
v 7.5 5 6.5
v 2.5 5 4.5
v 7.5 5 4.5
v 2.5 5 -5.5
v 7.5 5 -5.5
v 2.5 5 -7.5
v 7.5 5 -7.5
v -3.5 7 5.5
v 0.5 7 5.5
v -5.5 7 4.5
v -3.5 7 4.5
v 0.5 7 4.5
v 2.5 7 4.5
v -6.5 7 3.5
v -5.5 7 3.5
v -3.5 7 3.5
v 0.5 7 3.5
v 2.5 7 3.5
v -7.5 7 1.5
v -6.5 7 1.5
v -5.5 7 1.5
v -7.5 7 -2.5
v -6.5 7 -2.5
v -5.5 7 -2.5
v -6.5 7 -4.5
v -5.5 7 -4.5
v -3.5 7 -4.5
v 0.5 7 -4.5
v 2.5 7 -4.5
v -5.5 7 -5.5
v -3.5 7 -5.5
v 0.5 7 -5.5
v 2.5 7 -5.5
v -3.5 7 -6.5
v 0.5 7 -6.5
v 3.5 12 8.5
v 5.5 12 8.5
v 3.5 12 7.5
v 4.5 12 7.5
v 4.5 12 6.5
v 5.5 12 6.5
v 2.5 13 6.5
v 4.5 13 6.5
v 3.5 13 5.5
v 4.5 13 5.5
v 3.5 13 -6.5
v 4.5 13 -6.5
v 2.5 13 -7.5
v 4.5 13 -7.5
v -3.5 9 5.5
v 0.5 9 5.5
v -5.5 9 4.5
v -3.5 9 4.5
v 0.5 9 4.5
v 2.5 9 4.5
v -6.5 9 3.5
v -5.5 9 3.5
v -7.5 9 1.5
v -6.5 9 1.5
v -7.5 9 -2.5
v -6.5 9 -2.5
v -6.5 9 -4.5
v -5.5 9 -4.5
v -5.5 9 -5.5
v -3.5 9 -5.5
v 0.5 9 -5.5
v 2.5 9 -5.5
v -3.5 9 -6.5
v 0.5 9 -6.5
v 2.5 12 6.5
v 4.5 12 6.5
v 3.5 12 5.5
v 4.5 12 5.5
v 3.5 12 -6.5
v 4.5 12 -6.5
v 2.5 12 -7.5
v 4.5 12 -7.5
v 3.5 13 8.5
v 5.5 13 8.5
v 3.5 13 7.5
v 4.5 13 7.5
v 4.5 13 6.5
v 5.5 13 6.5
v 2.5 15 6.5
v 7.5 15 6.5
v 2.5 15 -7.5
v 7.5 15 -7.5

# faces
f 3/2/1 2/2/1 1/2/1
f 4/2/1 2/2/1 3/2/1
f 8/2/1 6/2/1 5/2/1
f 9/2/1 6/2/1 8/2/1
f 11/2/1 8/2/1 7/2/1
f 12/2/1 8/2/1 11/2/1
f 13/2/1 10/2/1 9/2/1
f 14/2/1 10/2/1 13/2/1
f 18/2/1 16/2/1 15/2/1
f 19/2/1 16/2/1 18/2/1
f 22/2/1 18/2/1 17/2/1
f 23/2/1 18/2/1 22/2/1
f 24/2/1 20/2/1 19/2/1
f 25/2/1 20/2/1 24/2/1
f 27/2/1 22/2/1 21/2/1
f 28/2/1 22/2/1 27/2/1
f 29/2/1 26/2/1 25/2/1
f 30/2/1 26/2/1 29/2/1
f 35/2/1 32/2/1 31/2/1
f 36/2/1 32/2/1 35/2/1
f 37/2/1 34/2/1 33/2/1
f 38/2/1 34/2/1 37/2/1
f 44/2/1 40/2/1 39/2/1
f 45/2/1 40/2/1 44/2/1
f 46/2/1 42/2/1 41/2/1
f 47/2/1 42/2/1 46/2/1
f 50/2/1 44/2/1 43/2/1
f 51/2/1 44/2/1 50/2/1
f 52/2/1 48/2/1 47/2/1
f 53/2/1 48/2/1 52/2/1
f 55/2/1 50/2/1 49/2/1
f 56/2/1 50/2/1 55/2/1
f 57/2/1 54/2/1 53/2/1
f 58/2/1 54/2/1 57/2/1
f 63/2/1 60/2/1 59/2/1
f 64/2/1 60/2/1 63/2/1
f 65/2/1 62/2/1 61/2/1
f 66/2/1 62/2/1 65/2/1
f 68/2/1 63/2/1 59/2/1
f 69/2/1 62/2/1 66/2/1
f 71/2/1 68/2/1 67/2/1
f 71/2/1 63/2/1 68/2/1
f 72/2/1 63/2/1 71/2/1
f 73/2/1 70/2/1 69/2/1
f 73/2/1 69/2/1 66/2/1
f 74/2/1 70/2/1 73/2/1
f 75/2/1 71/2/1 67/2/1
f 76/2/1 70/2/1 74/2/1
f 77/2/1 75/2/1 67/2/1
f 77/2/1 76/2/1 75/2/1
f 78/2/1 70/2/1 76/2/1
f 78/2/1 76/2/1 77/2/1
f 81/2/1 80/2/1 79/2/1
f 82/2/1 80/2/1 81/2/1
f 87/1/1 84/1/1 83/1/1
f 88/1/1 84/1/1 87/1/1
f 89/2/1 86/2/1 85/2/1
f 90/2/1 86/2/1 89/2/1
f 96/1/1 92/1/1 91/1/1
f 97/2/1 93/2/1 92/2/1
f 97/1/1 92/1/1 96/1/1
f 98/2/1 93/2/1 97/2/1
f 99/2/1 95/2/1 94/2/1
f 100/2/1 95/2/1 99/2/1
f 101/2/2 102/2/2 106/2/2
f 106/2/2 102/2/2 107/2/2
f 103/2/2 104/2/2 108/2/2
f 108/2/2 104/2/2 109/2/2
f 105/2/2 106/2/2 112/2/2
f 112/2/2 106/2/2 113/2/2
f 109/2/2 110/2/2 114/2/2
f 114/2/2 110/2/2 115/2/2
f 111/2/2 112/2/2 117/2/2
f 117/2/2 112/2/2 118/2/2
f 115/2/2 116/2/2 119/2/2
f 119/2/2 116/2/2 120/2/2
f 121/2/2 122/2/2 125/2/2
f 125/2/2 122/2/2 126/2/2
f 123/2/2 124/2/2 127/2/2
f 127/2/2 124/2/2 128/2/2
f 129/1/2 130/1/2 131/1/2
f 131/1/2 130/1/2 132/1/2
f 133/2/2 134/2/2 136/2/2
f 136/2/2 134/2/2 137/2/2
f 135/2/2 136/2/2 139/2/2
f 137/2/2 138/2/2 139/2/2
f 136/2/2 137/2/2 139/2/2
f 139/2/2 138/2/2 140/2/2
f 143/1/3 142/1/3 141/1/3
f 144/1/3 142/1/3 143/1/3
f 149/2/3 146/2/3 145/2/3
f 150/2/3 148/2/3 147/2/3
f 151/2/3 149/2/3 145/2/3
f 152/2/3 148/2/3 150/2/3
f 153/2/3 151/2/3 145/2/3
f 153/2/3 152/2/3 151/2/3
f 154/2/3 148/2/3 152/2/3
f 154/2/3 152/2/3 153/2/3
f 157/2/3 156/2/3 155/2/3
f 158/2/3 156/2/3 157/2/3
f 161/2/3 160/2/3 159/2/3
f 162/2/3 160/2/3 161/2/3
f 166/2/3 164/2/3 163/2/3
f 167/2/3 164/2/3 166/2/3
f 168/2/3 166/2/3 165/2/3
f 169/2/3 166/2/3 168/2/3
f 173/2/3 170/2/3 169/2/3
f 174/2/3 170/2/3 173/2/3
f 175/2/3 172/2/3 171/2/3
f 176/2/3 172/2/3 175/2/3
f 180/2/3 178/2/3 177/2/3
f 181/2/3 178/2/3 180/2/3
f 183/2/3 180/2/3 179/2/3
f 184/2/3 180/2/3 183/2/3
f 185/2/3 183/2/3 182/2/3
f 186/2/3 183/2/3 185/2/3
f 188/2/3 187/2/3 186/2/3
f 189/2/3 187/2/3 188/2/3
f 192/2/3 191/2/3 190/2/3
f 193/2/3 191/2/3 192/2/3
f 196/2/3 195/2/3 194/2/3
f 197/2/3 195/2/3 196/2/3
f 201/2/3 199/2/3 198/2/3
f 202/2/3 199/2/3 201/2/3
f 204/2/3 201/2/3 200/2/3
f 205/2/3 201/2/3 204/2/3
f 206/2/3 204/2/3 203/2/3
f 207/2/3 204/2/3 206/2/3
f 210/2/3 209/2/3 208/2/3
f 211/2/3 209/2/3 210/2/3
f 212/1/4 213/1/4 214/1/4
f 214/1/4 213/1/4 215/1/4
f 216/2/4 217/2/4 219/2/4
f 219/2/4 217/2/4 220/2/4
f 218/2/4 219/2/4 222/2/4
f 222/2/4 219/2/4 223/2/4
f 221/2/4 222/2/4 224/2/4
f 224/2/4 222/2/4 225/2/4
f 226/2/4 227/2/4 228/2/4
f 228/2/4 227/2/4 229/2/4
f 230/2/4 231/2/4 232/2/4
f 232/2/4 231/2/4 233/2/4
f 234/2/4 235/2/4 236/2/4
f 236/2/4 235/2/4 237/2/4
f 238/2/4 239/2/4 241/2/4
f 241/2/4 239/2/4 242/2/4
f 240/2/4 241/2/4 244/2/4
f 244/2/4 241/2/4 245/2/4
f 243/2/4 244/2/4 246/2/4
f 246/2/4 244/2/4 247/2/4
f 247/2/4 248/2/4 249/2/4
f 249/2/4 248/2/4 250/2/4
f 251/2/4 252/2/4 254/2/4
f 254/2/4 252/2/4 255/2/4
f 253/2/4 254/2/4 256/2/4
f 256/2/4 254/2/4 257/2/4
f 257/2/4 258/2/4 261/2/4
f 261/2/4 258/2/4 262/2/4
f 259/2/4 260/2/4 263/2/4
f 263/2/4 260/2/4 264/2/4
f 265/2/4 266/2/4 267/2/4
f 267/2/4 266/2/4 268/2/4
f 269/2/4 270/2/4 271/2/4
f 271/2/4 270/2/4 272/2/4
f 273/2/4 274/2/4 277/2/4
f 275/2/4 276/2/4 278/2/4
f 273/2/4 277/2/4 279/2/4
f 277/2/4 278/2/4 279/2/4
f 278/2/4 276/2/4 280/2/4
f 279/2/4 278/2/4 280/2/4
f 286/2/5 284/2/5 283/2/5
f 287/2/5 284/2/5 286/2/5
f 290/2/5 286/2/5 285/2/5
f 290/2/5 288/2/5 287/2/5
f 290/2/5 287/2/5 286/2/5
f 291/2/5 288/2/5 290/2/5
f 292/2/5 282/2/5 281/2/5
f 293/2/5 291/2/5 290/2/5
f 293/2/5 292/2/5 291/2/5
f 293/2/5 290/2/5 289/2/5
f 294/2/5 292/2/5 293/2/5
f 295/2/5 292/2/5 294/2/5
f 296/2/5 282/2/5 292/2/5
f 296/2/5 292/2/5 295/2/5
f 297/2/5 295/2/5 294/2/5
f 298/2/5 295/2/5 297/2/5
f 299/2/5 295/2/5 298/2/5
f 300/2/5 295/2/5 299/2/5
f 301/2/5 299/2/5 298/2/5
f 302/2/5 299/2/5 301/2/5
f 303/2/5 282/2/5 296/2/5
f 304/2/5 282/2/5 303/2/5
f 308/2/5 306/2/5 305/2/5
f 309/2/5 306/2/5 308/2/5
f 311/2/5 308/2/5 307/2/5
f 312/2/5 308/2/5 311/2/5
f 313/2/5 310/2/5 309/2/5
f 314/2/5 310/2/5 313/2/5
f 316/2/5 311/2/5 307/2/5
f 317/2/5 311/2/5 316/2/5
f 318/2/5 310/2/5 314/2/5
f 319/2/5 310/2/5 318/2/5
f 320/2/5 316/2/5 315/2/5
f 321/2/5 316/2/5 320/2/5
f 325/2/5 322/2/5 321/2/5
f 328/2/5 324/2/5 323/2/5
f 329/2/5 326/2/5 325/2/5
f 329/2/5 325/2/5 321/2/5
f 330/2/5 326/2/5 329/2/5
f 331/2/5 328/2/5 327/2/5
f 332/2/5 324/2/5 328/2/5
f 332/2/5 328/2/5 331/2/5
f 333/2/5 331/2/5 330/2/5
f 334/2/5 331/2/5 333/2/5
f 337/2/5 336/2/5 335/2/5
f 338/2/5 336/2/5 337/2/5
f 341/2/5 340/2/5 339/2/5
f 342/2/5 340/2/5 341/2/5
f 346/2/5 344/2/5 343/2/5
f 347/2/5 344/2/5 346/2/5
f 350/2/5 346/2/5 345/2/5
f 351/2/5 346/2/5 350/2/5
f 352/2/5 348/2/5 347/2/5
f 353/2/5 348/2/5 352/2/5
f 355/2/5 350/2/5 349/2/5
f 356/2/5 350/2/5 355/2/5
f 357/2/5 355/2/5 354/2/5
f 358/2/5 355/2/5 357/2/5
f 360/2/5 359/2/5 358/2/5
f 361/2/5 359/2/5 360/2/5
f 365/2/5 362/2/5 361/2/5
f 366/2/5 362/2/5 365/2/5
f 367/2/5 364/2/5 363/2/5
f 368/2/5 364/2/5 367/2/5
f 369/2/5 367/2/5 366/2/5
f 370/2/5 367/2/5 369/2/5
f 373/1/5 372/1/5 371/1/5
f 374/1/5 372/1/5 373/1/5
f 375/1/5 372/1/5 374/1/5
f 376/1/5 372/1/5 375/1/5
f 379/2/5 378/2/5 377/2/5
f 380/2/5 378/2/5 379/2/5
f 381/2/5 379/2/5 377/2/5
f 383/2/5 381/2/5 377/2/5
f 383/2/5 382/2/5 381/2/5
f 384/2/5 382/2/5 383/2/5
f 385/2/6 386/2/6 388/2/6
f 388/2/6 386/2/6 389/2/6
f 387/2/6 388/2/6 392/2/6
f 389/2/6 390/2/6 392/2/6
f 388/2/6 389/2/6 392/2/6
f 391/2/6 392/2/6 394/2/6
f 393/2/6 394/2/6 395/2/6
f 394/2/6 392/2/6 396/2/6
f 395/2/6 394/2/6 396/2/6
f 396/2/6 392/2/6 397/2/6
f 392/2/6 390/2/6 398/2/6
f 397/2/6 392/2/6 398/2/6
f 398/2/6 390/2/6 399/2/6
f 399/2/6 390/2/6 400/2/6
f 400/2/6 390/2/6 401/2/6
f 401/2/6 390/2/6 402/2/6
f 400/2/6 401/2/6 403/2/6
f 403/2/6 401/2/6 404/2/6
f 405/2/6 406/2/6 407/2/6
f 407/2/6 406/2/6 408/2/6
f 405/2/6 407/2/6 409/2/6
f 405/2/6 409/2/6 411/2/6
f 409/2/6 410/2/6 411/2/6
f 411/2/6 410/2/6 412/2/6
f 413/1/6 414/1/6 415/1/6
f 415/1/6 414/1/6 416/1/6
f 416/1/6 414/1/6 417/1/6
f 417/1/6 414/1/6 418/1/6
f 419/2/6 420/2/6 421/2/6
f 421/2/6 420/2/6 422/2/6
