# MagicaVoxel @ Ephtracy

# group
g map-229

# material
mtllib map-229.mtl
usemtl palette

# normals
vn -1 0 0
vn 1 0 0
vn 0 0 1
vn 0 0 -1
vn 0 -1 0
vn 0 1 0

# texcoords
vt 0.677734 0.5
vt 0.755859 0.5
vt 0.775391 0.5
vt 0.791016 0.5
vt 0.978516 0.5
vt 0.990234 0.5

# verts
v -63 0 63
v -63 0 56
v -63 0 55
v -63 0 -63
v -63 1 55
v -63 1 -63
v -63 35 63
v -63 35 62
v -63 35 61
v -63 36 63
v -63 36 62
v -63 36 61
v -63 37 63
v -63 37 62
v -63 37 61
v -63 38 63
v -63 38 62
v -63 38 61
v -63 39 63
v -63 39 56
v -63 40 63
v -63 40 56
v -62 0 56
v -62 0 55
v -62 1 56
v -62 1 55
v -53 16 63
v -53 16 62
v -53 17 63
v -53 17 62
v 56 1 56
v 56 1 -63
v 56 6 56
v 56 6 -55
v 56 16 56
v 56 16 -55
v 56 17 56
v 56 17 -55
v 56 23 56
v 56 23 -55
v 56 24 56
v 56 24 -55
v 56 32 56
v 56 32 -54
v 56 33 56
v 56 33 -54
v 56 33 -55
v 56 39 56
v 56 39 -63
v 56 40 56
v 56 40 -63
v -54 6 63
v -54 6 62
v -54 33 63
v -54 33 62
v -53 6 62
v -53 6 56
v -53 16 62
v -53 16 56
v -53 17 62
v -53 17 56
v -53 23 62
v -53 23 56
v -53 24 62
v -53 24 56
v -53 32 62
v -53 32 56
v 62 32 62
v 62 32 -54
v 62 33 62
v 62 33 -54
v 62 35 62
v 62 35 -63
v 62 36 62
v 62 36 -63
v 62 37 62
v 62 37 -63
v 62 38 62
v 62 38 -63
v 63 0 63
v 63 0 -63
v 63 6 63
v 63 6 -55
v 63 16 63
v 63 16 -55
v 63 17 63
v 63 17 -55
v 63 23 62
v 63 23 -55
v 63 24 62
v 63 24 -55
v 63 33 63
v 63 33 -55
v 63 35 63
v 63 35 -63
v 63 36 63
v 63 36 -63
v 63 37 63
v 63 37 -63
v 63 38 63
v 63 38 -63
v 63 39 63
v 63 39 -63
v 63 40 63
v 63 40 -63
v -63 0 63
v -63 35 63
v -63 36 63
v -63 37 63
v -63 38 63
v -63 39 63
v -63 40 63
v -54 6 63
v -54 33 63
v -53 16 63
v -53 17 63
v 63 0 63
v 63 6 63
v 63 16 63
v 63 17 63
v 63 33 63
v 63 35 63
v 63 36 63
v 63 37 63
v 63 38 63
v 63 39 63
v 63 40 63
v -63 35 62
v -63 36 62
v -63 37 62
v -63 38 62
v -54 6 62
v -54 33 62
v -53 6 62
v -53 16 62
v -53 17 62
v -53 23 62
v -53 24 62
v -53 32 62
v -53 33 62
v 62 32 62
v 62 33 62
v 62 35 62
v 62 36 62
v 62 37 62
v 62 38 62
v 63 23 62
v 63 24 62
v -63 0 55
v -63 1 55
v -62 0 55
v -62 1 55
v 56 6 -55
v 56 16 -55
v 56 17 -55
v 56 23 -55
v 56 24 -55
v 56 33 -55
v 63 6 -55
v 63 16 -55
v 63 17 -55
v 63 23 -55
v 63 24 -55
v 63 33 -55
v -63 0 56
v -63 39 56
v -63 40 56
v -62 0 56
v -62 1 56
v -53 6 56
v -53 16 56
v -53 17 56
v -53 23 56
v -53 24 56
v -53 32 56
v -53 33 56
v 56 1 56
v 56 6 56
v 56 16 56
v 56 17 56
v 56 23 56
v 56 24 56
v 56 32 56
v 56 33 56
v 56 39 56
v 56 40 56
v 56 32 -54
v 56 33 -54
v 62 32 -54
v 62 33 -54
v -63 0 -63
v -63 1 -63
v 56 0 -63
v 56 1 -63
v 56 39 -63
v 56 40 -63
v 61 35 -63
v 61 36 -63
v 61 37 -63
v 61 38 -63
v 62 35 -63
v 62 36 -63
v 62 37 -63
v 62 38 -63
v 63 0 -63
v 63 35 -63
v 63 36 -63
v 63 37 -63
v 63 38 -63
v 63 39 -63
v 63 40 -63
v -63 0 63
v 63 0 63
v -63 0 56
v -62 0 56
v 57 0 56
v -63 0 55
v -62 0 55
v 56 0 -62
v 57 0 -62
v -63 0 -63
v 56 0 -63
v 63 0 -63
v -53 16 63
v 63 16 63
v -53 16 62
v -53 16 56
v 56 16 56
v 56 16 -55
v 63 16 -55
v -53 23 62
v 63 23 62
v -53 23 56
v 56 23 56
v 56 23 -55
v 63 23 -55
v -53 32 62
v 62 32 62
v -53 32 56
v 56 32 56
v 56 32 -54
v 62 32 -54
v -54 33 63
v 63 33 63
v -54 33 62
v -53 33 62
v 62 33 62
v 56 33 -54
v 62 33 -54
v 56 33 -55
v 63 33 -55
v -63 36 63
v 63 36 63
v -63 36 62
v 62 36 62
v 62 36 -63
v 63 36 -63
v -63 38 63
v 63 38 63
v -63 38 62
v 62 38 62
v 62 38 -63
v 63 38 -63
v -62 1 56
v 56 1 56
v -63 1 55
v -62 1 55
v -63 1 -63
v 56 1 -63
v -54 6 63
v 63 6 63
v -54 6 62
v -53 6 62
v -53 6 56
v 56 6 56
v 56 6 -55
v 63 6 -55
v -53 17 63
v 63 17 63
v -53 17 62
v -53 17 56
v 56 17 56
v 56 17 -55
v 63 17 -55
v -53 24 62
v 63 24 62
v -53 24 56
v 56 24 56
v 56 24 -55
v 63 24 -55
v -63 35 63
v 63 35 63
v -63 35 62
v 62 35 62
v 62 35 -63
v 63 35 -63
v -63 37 63
v 63 37 63
v -63 37 62
v 62 37 62
v 62 37 -63
v 63 37 -63
v -63 40 63
v 63 40 63
v -63 40 56
v 56 40 56
v 56 40 -63
v 63 40 -63

# faces
f 5/5/1 4/5/1 3/5/1
f 6/5/1 4/5/1 5/5/1
f 7/1/1 2/1/1 1/1/1
f 8/1/1 2/1/1 7/1/1
f 9/1/1 2/1/1 8/1/1
f 11/2/1 9/2/1 8/2/1
f 12/1/1 2/1/1 9/1/1
f 12/2/1 9/2/1 11/2/1
f 13/3/1 11/3/1 10/3/1
f 14/1/1 12/1/1 11/1/1
f 14/3/1 11/3/1 13/3/1
f 15/1/1 2/1/1 12/1/1
f 15/1/1 12/1/1 14/1/1
f 17/2/1 15/2/1 14/2/1
f 18/1/1 2/1/1 15/1/1
f 18/2/1 15/2/1 17/2/1
f 19/1/1 17/1/1 16/1/1
f 19/1/1 18/1/1 17/1/1
f 20/1/1 2/1/1 18/1/1
f 20/1/1 18/1/1 19/1/1
f 21/4/1 20/4/1 19/4/1
f 22/4/1 20/4/1 21/4/1
f 25/5/1 24/5/1 23/5/1
f 26/5/1 24/5/1 25/5/1
f 29/6/1 28/6/1 27/6/1
f 30/6/1 28/6/1 29/6/1
f 33/1/1 32/1/1 31/1/1
f 34/1/1 32/1/1 33/1/1
f 36/1/1 32/1/1 34/1/1
f 37/6/1 36/6/1 35/6/1
f 38/1/1 32/1/1 36/1/1
f 38/6/1 36/6/1 37/6/1
f 40/1/1 32/1/1 38/1/1
f 41/6/1 40/6/1 39/6/1
f 42/1/1 32/1/1 40/1/1
f 42/6/1 40/6/1 41/6/1
f 45/6/1 44/6/1 43/6/1
f 46/6/1 44/6/1 45/6/1
f 47/1/1 32/1/1 42/1/1
f 48/1/1 46/1/1 45/1/1
f 48/1/1 47/1/1 46/1/1
f 49/1/1 32/1/1 47/1/1
f 49/1/1 47/1/1 48/1/1
f 50/4/1 49/4/1 48/4/1
f 51/4/1 49/4/1 50/4/1
f 52/1/2 53/1/2 54/1/2
f 54/1/2 53/1/2 55/1/2
f 56/1/2 57/1/2 58/1/2
f 58/1/2 57/1/2 59/1/2
f 60/1/2 61/1/2 62/1/2
f 62/1/2 61/1/2 63/1/2
f 64/1/2 65/1/2 66/1/2
f 66/1/2 65/1/2 67/1/2
f 68/6/2 69/6/2 70/6/2
f 70/6/2 69/6/2 71/6/2
f 72/2/2 73/2/2 74/2/2
f 74/2/2 73/2/2 75/2/2
f 76/2/2 77/2/2 78/2/2
f 78/2/2 77/2/2 79/2/2
f 80/1/2 81/1/2 82/1/2
f 82/1/2 81/1/2 83/1/2
f 83/1/2 81/1/2 85/1/2
f 84/6/2 85/6/2 86/6/2
f 85/1/2 81/1/2 87/1/2
f 86/6/2 85/6/2 87/6/2
f 87/1/2 81/1/2 89/1/2
f 88/6/2 89/6/2 90/6/2
f 89/1/2 81/1/2 91/1/2
f 90/6/2 89/6/2 91/6/2
f 91/1/2 81/1/2 93/1/2
f 92/1/2 93/1/2 94/1/2
f 93/1/2 81/1/2 95/1/2
f 94/1/2 93/1/2 95/1/2
f 96/3/2 97/3/2 98/3/2
f 98/3/2 97/3/2 99/3/2
f 100/1/2 101/1/2 102/1/2
f 102/1/2 101/1/2 103/1/2
f 102/4/2 103/4/2 104/4/2
f 104/4/2 103/4/2 105/4/2
f 113/1/3 107/1/3 106/1/3
f 114/1/3 107/1/3 113/1/3
f 117/1/3 113/1/3 106/1/3
f 118/1/3 113/1/3 117/1/3
f 119/6/3 116/6/3 115/6/3
f 120/6/3 116/6/3 119/6/3
f 121/1/3 107/1/3 114/1/3
f 122/1/3 107/1/3 121/1/3
f 123/3/3 109/3/3 108/3/3
f 124/3/3 109/3/3 123/3/3
f 125/1/3 111/1/3 110/1/3
f 126/4/3 112/4/3 111/4/3
f 126/1/3 111/1/3 125/1/3
f 127/4/3 112/4/3 126/4/3
f 134/1/3 133/1/3 132/1/3
f 135/1/3 133/1/3 134/1/3
f 136/1/3 133/1/3 135/1/3
f 137/1/3 133/1/3 136/1/3
f 138/1/3 133/1/3 137/1/3
f 139/1/3 133/1/3 138/1/3
f 140/1/3 133/1/3 139/1/3
f 141/6/3 140/6/3 139/6/3
f 142/6/3 140/6/3 141/6/3
f 143/2/3 129/2/3 128/2/3
f 144/2/3 129/2/3 143/2/3
f 145/2/3 131/2/3 130/2/3
f 146/2/3 131/2/3 145/2/3
f 147/6/3 138/6/3 137/6/3
f 148/6/3 138/6/3 147/6/3
f 151/5/3 150/5/3 149/5/3
f 152/5/3 150/5/3 151/5/3
f 159/1/3 154/1/3 153/1/3
f 160/1/3 154/1/3 159/1/3
f 161/1/3 156/1/3 155/1/3
f 162/1/3 156/1/3 161/1/3
f 163/1/3 158/1/3 157/1/3
f 164/1/3 158/1/3 163/1/3
f 165/1/4 166/1/4 168/1/4
f 168/1/4 166/1/4 169/1/4
f 169/1/4 166/1/4 170/1/4
f 170/1/4 166/1/4 171/1/4
f 171/1/4 166/1/4 172/1/4
f 172/1/4 166/1/4 173/1/4
f 173/1/4 166/1/4 174/1/4
f 174/1/4 166/1/4 175/1/4
f 175/1/4 166/1/4 176/1/4
f 169/1/4 170/1/4 177/1/4
f 177/1/4 170/1/4 178/1/4
f 171/6/4 172/6/4 179/6/4
f 179/6/4 172/6/4 180/6/4
f 173/6/4 174/6/4 181/6/4
f 181/6/4 174/6/4 182/6/4
f 175/6/4 176/6/4 183/6/4
f 176/1/4 166/1/4 184/1/4
f 183/6/4 176/6/4 184/6/4
f 166/4/4 167/4/4 185/4/4
f 184/1/4 166/1/4 185/1/4
f 185/4/4 167/4/4 186/4/4
f 187/6/4 188/6/4 189/6/4
f 189/6/4 188/6/4 190/6/4
f 191/5/4 192/5/4 193/5/4
f 193/5/4 192/5/4 194/5/4
f 193/1/4 194/1/4 197/1/4
f 194/1/4 195/1/4 197/1/4
f 197/1/4 195/1/4 198/1/4
f 198/1/4 195/1/4 199/1/4
f 199/1/4 195/1/4 200/1/4
f 193/1/4 197/1/4 201/1/4
f 197/2/4 198/2/4 201/2/4
f 198/1/4 199/1/4 202/1/4
f 201/2/4 198/2/4 202/2/4
f 199/2/4 200/2/4 203/2/4
f 202/1/4 199/1/4 203/1/4
f 200/1/4 195/1/4 204/1/4
f 203/2/4 200/2/4 204/2/4
f 193/1/4 201/1/4 205/1/4
f 205/1/4 201/1/4 206/1/4
f 202/3/4 203/3/4 207/3/4
f 207/3/4 203/3/4 208/3/4
f 204/1/4 195/1/4 209/1/4
f 195/4/4 196/4/4 210/4/4
f 209/1/4 195/1/4 210/1/4
f 210/4/4 196/4/4 211/4/4
f 214/1/5 213/1/5 212/1/5
f 215/1/5 213/1/5 214/1/5
f 216/1/5 213/1/5 215/1/5
f 218/5/5 216/5/5 215/5/5
f 219/5/5 216/5/5 218/5/5
f 219/5/5 218/5/5 217/5/5
f 220/1/5 213/1/5 216/1/5
f 220/5/5 216/5/5 219/5/5
f 221/5/5 219/5/5 217/5/5
f 222/1/5 220/1/5 219/1/5
f 222/5/5 219/5/5 221/5/5
f 223/1/5 213/1/5 220/1/5
f 223/1/5 220/1/5 222/1/5
f 226/6/5 225/6/5 224/6/5
f 227/6/5 225/6/5 226/6/5
f 228/6/5 225/6/5 227/6/5
f 229/6/5 225/6/5 228/6/5
f 230/6/5 225/6/5 229/6/5
f 233/6/5 232/6/5 231/6/5
f 234/6/5 232/6/5 233/6/5
f 235/6/5 232/6/5 234/6/5
f 236/6/5 232/6/5 235/6/5
f 239/6/5 238/6/5 237/6/5
f 240/6/5 238/6/5 239/6/5
f 241/6/5 238/6/5 240/6/5
f 242/6/5 238/6/5 241/6/5
f 245/1/5 244/1/5 243/1/5
f 246/1/5 244/1/5 245/1/5
f 247/1/5 244/1/5 246/1/5
f 249/1/5 244/1/5 247/1/5
f 250/1/5 249/1/5 248/1/5
f 251/1/5 244/1/5 249/1/5
f 251/1/5 249/1/5 250/1/5
f 254/3/5 253/3/5 252/3/5
f 255/3/5 253/3/5 254/3/5
f 256/3/5 253/3/5 255/3/5
f 257/3/5 253/3/5 256/3/5
f 260/1/5 259/1/5 258/1/5
f 261/1/5 259/1/5 260/1/5
f 262/1/5 259/1/5 261/1/5
f 263/1/5 259/1/5 262/1/5
f 264/5/6 265/5/6 267/5/6
f 266/5/6 267/5/6 268/5/6
f 267/5/6 265/5/6 269/5/6
f 268/5/6 267/5/6 269/5/6
f 270/1/6 271/1/6 272/1/6
f 272/1/6 271/1/6 273/1/6
f 273/1/6 271/1/6 274/1/6
f 274/1/6 271/1/6 275/1/6
f 275/1/6 271/1/6 276/1/6
f 276/1/6 271/1/6 277/1/6
f 278/6/6 279/6/6 280/6/6
f 280/6/6 279/6/6 281/6/6
f 281/6/6 279/6/6 282/6/6
f 282/6/6 279/6/6 283/6/6
f 283/6/6 279/6/6 284/6/6
f 285/6/6 286/6/6 287/6/6
f 287/6/6 286/6/6 288/6/6
f 288/6/6 286/6/6 289/6/6
f 289/6/6 286/6/6 290/6/6
f 291/1/6 292/1/6 293/1/6
f 293/1/6 292/1/6 294/1/6
f 294/1/6 292/1/6 295/1/6
f 295/1/6 292/1/6 296/1/6
f 297/3/6 298/3/6 299/3/6
f 299/3/6 298/3/6 300/3/6
f 300/3/6 298/3/6 301/3/6
f 301/3/6 298/3/6 302/3/6
f 303/4/6 304/4/6 305/4/6
f 305/4/6 304/4/6 306/4/6
f 306/4/6 304/4/6 307/4/6
f 307/4/6 304/4/6 308/4/6
