# MagicaVoxel @ Ephtracy

# group
g map-4

# material
mtllib map-4.mtl
usemtl palette

# normals
vn -1 0 0
vn 1 0 0
vn 0 0 1
vn 0 0 -1
vn 0 -1 0
vn 0 1 0

# texcoords
vt 0.00195312 0.5
vt 0.197266 0.5
vt 0.912109 0.5
vt 0.986328 0.5
vt 0.990234 0.5

# verts
v -5.5 0 7
v -5.5 0 -4
v -5.5 10 -4
v -5.5 10 -5
v -5.5 12 7
v -5.5 12 -4
v -5.5 12 -5
v -4.5 2 -4
v -4.5 2 -5
v -4.5 6 -5
v -4.5 6 -7
v -4.5 7 -5
v -4.5 7 -7
v -4.5 10 -4
v -4.5 10 -5
v -2.5 10 -4
v -2.5 10 -5
v -2.5 12 -4
v -2.5 12 -5
v 0.5 10 -4
v 0.5 10 -5
v 0.5 12 -4
v 0.5 12 -5
v 3.5 6 -5
v 3.5 6 -6
v 3.5 7 -5
v 3.5 7 -6
v 3.5 10 -4
v 3.5 10 -5
v 3.5 12 -4
v 3.5 12 -5
v -3.5 6 -5
v -3.5 6 -6
v -3.5 7 -5
v -3.5 7 -6
v -3.5 10 -4
v -3.5 10 -5
v -3.5 12 -4
v -3.5 12 -5
v -0.5 10 -4
v -0.5 10 -5
v -0.5 12 -4
v -0.5 12 -5
v 2.5 10 -4
v 2.5 10 -5
v 2.5 12 -4
v 2.5 12 -5
v 4.5 2 -4
v 4.5 2 -5
v 4.5 6 -5
v 4.5 6 -7
v 4.5 7 -5
v 4.5 7 -7
v 4.5 10 -4
v 4.5 10 -5
v 5.5 0 7
v 5.5 0 -4
v 5.5 10 -4
v 5.5 10 -5
v 5.5 12 7
v 5.5 12 -4
v 5.5 12 -5
v -5.5 0 7
v -5.5 12 7
v -4.5 11 7
v -4.5 12 7
v 4.5 11 7
v 4.5 12 7
v 5.5 0 7
v 5.5 12 7
v -3.5 6 -6
v -3.5 7 -6
v 3.5 6 -6
v 3.5 7 -6
v -5.5 0 -4
v -5.5 10 -4
v -4.5 2 -4
v -4.5 10 -4
v -3.5 10 -4
v -3.5 12 -4
v -2.5 10 -4
v -2.5 12 -4
v -0.5 10 -4
v -0.5 12 -4
v 0.5 10 -4
v 0.5 12 -4
v 2.5 10 -4
v 2.5 12 -4
v 3.5 10 -4
v 3.5 12 -4
v 4.5 2 -4
v 4.5 10 -4
v 5.5 0 -4
v 5.5 10 -4
v -5.5 10 -5
v -5.5 12 -5
v -4.5 2 -5
v -4.5 6 -5
v -4.5 7 -5
v -4.5 10 -5
v -3.5 6 -5
v -3.5 7 -5
v -3.5 10 -5
v -3.5 12 -5
v -2.5 10 -5
v -2.5 12 -5
v -0.5 10 -5
v -0.5 12 -5
v 0.5 10 -5
v 0.5 12 -5
v 2.5 10 -5
v 2.5 12 -5
v 3.5 6 -5
v 3.5 7 -5
v 3.5 10 -5
v 3.5 12 -5
v 4.5 2 -5
v 4.5 6 -5
v 4.5 7 -5
v 4.5 10 -5
v 5.5 10 -5
v 5.5 12 -5
v -4.5 6 -7
v -4.5 7 -7
v 4.5 6 -7
v 4.5 7 -7
v -5.5 0 7
v 5.5 0 7
v -4.5 0 6
v 4.5 0 6
v -4.5 0 -3
v 4.5 0 -3
v -5.5 0 -4
v 5.5 0 -4
v -4.5 2 -4
v 4.5 2 -4
v -4.5 2 -5
v 4.5 2 -5
v -4.5 6 -5
v -3.5 6 -5
v 3.5 6 -5
v 4.5 6 -5
v -3.5 6 -6
v 3.5 6 -6
v -4.5 6 -7
v 4.5 6 -7
v -5.5 10 -4
v -4.5 10 -4
v 4.5 10 -4
v 5.5 10 -4
v -5.5 10 -5
v -4.5 10 -5
v 4.5 10 -5
v 5.5 10 -5
v -4.5 7 -5
v -3.5 7 -5
v 3.5 7 -5
v 4.5 7 -5
v -3.5 7 -6
v 3.5 7 -6
v -4.5 7 -7
v 4.5 7 -7
v -3.5 10 -4
v -2.5 10 -4
v -0.5 10 -4
v 0.5 10 -4
v 2.5 10 -4
v 3.5 10 -4
v -3.5 10 -5
v -2.5 10 -5
v -0.5 10 -5
v 0.5 10 -5
v 2.5 10 -5
v 3.5 10 -5
v -5.5 12 7
v -4.5 12 7
v 4.5 12 7
v 5.5 12 7
v -3.5 12 6
v -1.5 12 6
v 1.5 12 6
v 3.5 12 6
v -4.5 12 5
v -3.5 12 5
v -1.5 12 5
v -0.5 12 5
v 0.5 12 5
v 1.5 12 5
v 3.5 12 5
v 4.5 12 5
v -4.5 12 3
v -3.5 12 3
v -1.5 12 3
v -0.5 12 3
v 0.5 12 3
v 1.5 12 3
v 3.5 12 3
v 4.5 12 3
v -3.5 12 2
v -1.5 12 2
v 1.5 12 2
v 3.5 12 2
v -3.5 12 1
v -1.5 12 1
v 1.5 12 1
v 3.5 12 1
v -4.5 12 -0
v -3.5 12 -0
v -1.5 12 -0
v -0.5 12 -0
v 0.5 12 -0
v 1.5 12 -0
v 3.5 12 -0
v 4.5 12 -0
v -4.5 12 -2
v -3.5 12 -2
v -1.5 12 -2
v -0.5 12 -2
v 0.5 12 -2
v 1.5 12 -2
v 3.5 12 -2
v 4.5 12 -2
v -4.5 12 -3
v -3.5 12 -3
v -1.5 12 -3
v 1.5 12 -3
v 3.5 12 -3
v 4.5 12 -3
v -5.5 12 -4
v -3.5 12 -4
v -2.5 12 -4
v -0.5 12 -4
v 0.5 12 -4
v 2.5 12 -4
v 3.5 12 -4
v 5.5 12 -4
v -5.5 12 -5
v -3.5 12 -5
v -2.5 12 -5
v -0.5 12 -5
v 0.5 12 -5
v 2.5 12 -5
v 3.5 12 -5
v 5.5 12 -5

# faces
f 3/1/1 2/1/1 1/1/1
f 5/1/1 3/1/1 1/1/1
f 6/4/1 4/4/1 3/4/1
f 6/1/1 3/1/1 5/1/1
f 7/4/1 4/4/1 6/4/1
f 10/5/1 9/5/1 8/5/1
f 12/5/1 10/5/1 8/5/1
f 12/3/1 11/3/1 10/3/1
f 13/3/1 11/3/1 12/3/1
f 14/5/1 12/5/1 8/5/1
f 15/5/1 12/5/1 14/5/1
f 18/4/1 17/4/1 16/4/1
f 19/4/1 17/4/1 18/4/1
f 22/4/1 21/4/1 20/4/1
f 23/4/1 21/4/1 22/4/1
f 26/3/1 25/3/1 24/3/1
f 27/3/1 25/3/1 26/3/1
f 30/4/1 29/4/1 28/4/1
f 31/4/1 29/4/1 30/4/1
f 32/3/2 33/3/2 34/3/2
f 34/3/2 33/3/2 35/3/2
f 36/4/2 37/4/2 38/4/2
f 38/4/2 37/4/2 39/4/2
f 40/4/2 41/4/2 42/4/2
f 42/4/2 41/4/2 43/4/2
f 44/4/2 45/4/2 46/4/2
f 46/4/2 45/4/2 47/4/2
f 48/5/2 49/5/2 50/5/2
f 48/5/2 50/5/2 52/5/2
f 50/3/2 51/3/2 52/3/2
f 52/3/2 51/3/2 53/3/2
f 48/5/2 52/5/2 54/5/2
f 54/5/2 52/5/2 55/5/2
f 56/1/2 57/1/2 58/1/2
f 56/1/2 58/1/2 60/1/2
f 58/4/2 59/4/2 61/4/2
f 60/1/2 58/1/2 61/1/2
f 61/4/2 59/4/2 62/4/2
f 65/1/3 64/1/3 63/1/3
f 66/1/3 64/1/3 65/1/3
f 67/1/3 65/1/3 63/1/3
f 67/5/3 66/5/3 65/5/3
f 68/5/3 66/5/3 67/5/3
f 69/1/3 67/1/3 63/1/3
f 69/1/3 68/1/3 67/1/3
f 70/1/3 68/1/3 69/1/3
f 73/3/3 72/3/3 71/3/3
f 74/3/3 72/3/3 73/3/3
f 75/1/4 76/1/4 77/1/4
f 77/1/4 76/1/4 78/1/4
f 79/1/4 80/1/4 81/1/4
f 81/1/4 80/1/4 82/1/4
f 83/1/4 84/1/4 85/1/4
f 85/1/4 84/1/4 86/1/4
f 87/1/4 88/1/4 89/1/4
f 89/1/4 88/1/4 90/1/4
f 75/1/4 77/1/4 91/1/4
f 75/1/4 91/1/4 93/1/4
f 91/1/4 92/1/4 93/1/4
f 93/1/4 92/1/4 94/1/4
f 95/4/4 96/4/4 100/4/4
f 97/5/4 98/5/4 101/5/4
f 99/5/4 100/5/4 102/5/4
f 100/4/4 96/4/4 103/4/4
f 102/5/4 100/5/4 103/5/4
f 103/4/4 96/4/4 104/4/4
f 101/5/4 102/5/4 105/5/4
f 102/5/4 103/5/4 105/5/4
f 101/5/4 105/5/4 107/5/4
f 105/4/4 106/4/4 107/4/4
f 107/4/4 106/4/4 108/4/4
f 101/5/4 107/5/4 109/5/4
f 101/5/4 109/5/4 111/5/4
f 109/4/4 110/4/4 111/4/4
f 111/4/4 110/4/4 112/4/4
f 97/5/4 101/5/4 113/5/4
f 101/5/4 111/5/4 113/5/4
f 113/5/4 111/5/4 114/5/4
f 114/5/4 111/5/4 115/5/4
f 97/5/4 113/5/4 117/5/4
f 117/5/4 113/5/4 118/5/4
f 114/5/4 115/5/4 119/5/4
f 115/4/4 116/4/4 120/4/4
f 119/5/4 115/5/4 120/5/4
f 120/4/4 116/4/4 121/4/4
f 121/4/4 116/4/4 122/4/4
f 123/3/4 124/3/4 125/3/4
f 125/3/4 124/3/4 126/3/4
f 129/1/5 128/1/5 127/1/5
f 130/1/5 128/1/5 129/1/5
f 131/1/5 129/1/5 127/1/5
f 131/2/5 130/2/5 129/2/5
f 132/1/5 128/1/5 130/1/5
f 132/2/5 130/2/5 131/2/5
f 133/1/5 131/1/5 127/1/5
f 133/1/5 132/1/5 131/1/5
f 134/1/5 128/1/5 132/1/5
f 134/1/5 132/1/5 133/1/5
f 137/5/5 136/5/5 135/5/5
f 138/5/5 136/5/5 137/5/5
f 143/3/5 140/3/5 139/3/5
f 144/3/5 142/3/5 141/3/5
f 145/3/5 143/3/5 139/3/5
f 145/3/5 144/3/5 143/3/5
f 146/3/5 142/3/5 144/3/5
f 146/3/5 144/3/5 145/3/5
f 151/4/5 148/4/5 147/4/5
f 152/4/5 148/4/5 151/4/5
f 153/4/5 150/4/5 149/4/5
f 154/4/5 150/4/5 153/4/5
f 155/3/6 156/3/6 159/3/6
f 157/3/6 158/3/6 160/3/6
f 155/3/6 159/3/6 161/3/6
f 159/3/6 160/3/6 161/3/6
f 160/3/6 158/3/6 162/3/6
f 161/3/6 160/3/6 162/3/6
f 163/5/6 164/5/6 169/5/6
f 169/5/6 164/5/6 170/5/6
f 165/5/6 166/5/6 171/5/6
f 171/5/6 166/5/6 172/5/6
f 167/5/6 168/5/6 173/5/6
f 173/5/6 168/5/6 174/5/6
f 176/5/6 177/5/6 179/5/6
f 179/5/6 177/5/6 180/5/6
f 180/5/6 177/5/6 181/5/6
f 181/5/6 177/5/6 182/5/6
f 175/1/6 176/1/6 183/1/6
f 176/5/6 179/5/6 183/5/6
f 179/4/6 180/4/6 184/4/6
f 183/5/6 179/5/6 184/5/6
f 180/5/6 181/5/6 185/5/6
f 184/4/6 180/4/6 185/4/6
f 185/5/6 181/5/6 186/5/6
f 186/5/6 181/5/6 187/5/6
f 181/4/6 182/4/6 188/4/6
f 187/5/6 181/5/6 188/5/6
f 182/5/6 177/5/6 189/5/6
f 188/4/6 182/4/6 189/4/6
f 177/1/6 178/1/6 190/1/6
f 189/5/6 177/5/6 190/5/6
f 175/1/6 183/1/6 191/1/6
f 183/4/6 184/4/6 191/4/6
f 184/4/6 185/4/6 191/4/6
f 185/4/6 186/4/6 191/4/6
f 191/4/6 186/4/6 192/4/6
f 192/4/6 186/4/6 193/4/6
f 186/5/6 187/5/6 194/5/6
f 193/4/6 186/4/6 194/4/6
f 187/4/6 188/4/6 195/4/6
f 194/5/6 187/5/6 195/5/6
f 188/4/6 189/4/6 195/4/6
f 189/4/6 190/4/6 195/4/6
f 195/4/6 190/4/6 196/4/6
f 196/4/6 190/4/6 197/4/6
f 190/1/6 178/1/6 198/1/6
f 197/4/6 190/4/6 198/4/6
f 191/5/6 192/5/6 199/5/6
f 192/4/6 193/4/6 199/4/6
f 193/5/6 194/5/6 200/5/6
f 199/4/6 193/4/6 200/4/6
f 194/5/6 195/5/6 200/5/6
f 195/5/6 196/5/6 200/5/6
f 196/4/6 197/4/6 201/4/6
f 200/5/6 196/5/6 201/5/6
f 197/5/6 198/5/6 202/5/6
f 201/4/6 197/4/6 202/4/6
f 191/5/6 199/5/6 203/5/6
f 200/5/6 201/5/6 203/5/6
f 201/5/6 202/5/6 203/5/6
f 199/5/6 200/5/6 203/5/6
f 203/5/6 202/5/6 204/5/6
f 204/5/6 202/5/6 205/5/6
f 202/5/6 198/5/6 206/5/6
f 205/5/6 202/5/6 206/5/6
f 175/1/6 191/1/6 207/1/6
f 191/5/6 203/5/6 207/5/6
f 203/4/6 204/4/6 208/4/6
f 207/5/6 203/5/6 208/5/6
f 204/5/6 205/5/6 209/5/6
f 208/4/6 204/4/6 209/4/6
f 209/5/6 205/5/6 210/5/6
f 210/5/6 205/5/6 211/5/6
f 205/4/6 206/4/6 212/4/6
f 211/5/6 205/5/6 212/5/6
f 206/5/6 198/5/6 213/5/6
f 212/4/6 206/4/6 213/4/6
f 198/1/6 178/1/6 214/1/6
f 213/5/6 198/5/6 214/5/6
f 207/4/6 208/4/6 215/4/6
f 175/1/6 207/1/6 215/1/6
f 208/4/6 209/4/6 215/4/6
f 209/4/6 210/4/6 215/4/6
f 215/4/6 210/4/6 216/4/6
f 216/4/6 210/4/6 217/4/6
f 210/5/6 211/5/6 218/5/6
f 217/4/6 210/4/6 218/4/6
f 212/4/6 213/4/6 219/4/6
f 218/5/6 211/5/6 219/5/6
f 211/4/6 212/4/6 219/4/6
f 213/4/6 214/4/6 219/4/6
f 219/4/6 214/4/6 220/4/6
f 220/4/6 214/4/6 221/4/6
f 214/1/6 178/1/6 222/1/6
f 221/4/6 214/4/6 222/4/6
f 215/5/6 216/5/6 223/5/6
f 175/1/6 215/1/6 223/1/6
f 216/4/6 217/4/6 224/4/6
f 223/5/6 216/5/6 224/5/6
f 217/5/6 218/5/6 225/5/6
f 224/4/6 217/4/6 225/4/6
f 218/5/6 219/5/6 225/5/6
f 219/5/6 220/5/6 225/5/6
f 220/4/6 221/4/6 226/4/6
f 225/5/6 220/5/6 226/5/6
f 221/5/6 222/5/6 227/5/6
f 226/4/6 221/4/6 227/4/6
f 222/1/6 178/1/6 228/1/6
f 227/5/6 222/5/6 228/5/6
f 224/1/6 225/1/6 229/1/6
f 223/1/6 224/1/6 229/1/6
f 227/1/6 228/1/6 229/1/6
f 225/1/6 226/1/6 229/1/6
f 175/1/6 223/1/6 229/1/6
f 226/1/6 227/1/6 229/1/6
f 229/1/6 228/1/6 230/1/6
f 230/1/6 228/1/6 231/1/6
f 231/1/6 228/1/6 232/1/6
f 232/1/6 228/1/6 233/1/6
f 233/1/6 228/1/6 234/1/6
f 234/1/6 228/1/6 235/1/6
f 228/1/6 178/1/6 236/1/6
f 235/1/6 228/1/6 236/1/6
f 229/4/6 230/4/6 237/4/6
f 237/4/6 230/4/6 238/4/6
f 231/4/6 232/4/6 239/4/6
f 239/4/6 232/4/6 240/4/6
f 233/4/6 234/4/6 241/4/6
f 241/4/6 234/4/6 242/4/6
f 235/4/6 236/4/6 243/4/6
f 243/4/6 236/4/6 244/4/6
