# MagicaVoxel @ Ephtracy

# group
g map-47

# material
mtllib map-47.mtl
usemtl palette

# normals
vn -1 0 0
vn 1 0 0
vn 0 0 1
vn 0 0 -1
vn 0 -1 0
vn 0 1 0

# texcoords
vt 0.00195312 0.5
vt 0.294922 0.5
vt 0.416016 0.5
vt 0.478516 0.5
vt 0.677734 0.5
vt 0.728516 0.5
vt 0.755859 0.5
vt 0.779297 0.5
vt 0.990234 0.5

# verts
v -10.5 4 1
v -10.5 4 -1
v -10.5 15 1
v -10.5 15 -1
v -8.5 0 1
v -8.5 0 -1
v -8.5 2 1
v -8.5 2 -1
v -1.5 2 1
v -1.5 2 -1
v -1.5 4 1
v -1.5 4 -1
v 1.5 2 1
v 1.5 2 -1
v 1.5 4 1
v 1.5 4 -1
v 8.5 0 1
v 8.5 0 -1
v 8.5 2 1
v 8.5 2 -1
v 10.5 4 1
v 10.5 4 -1
v 10.5 15 1
v 10.5 15 -1
v -10.5 4 1
v -10.5 15 1
v -8.5 0 1
v -8.5 2 1
v -1.5 2 1
v -1.5 4 1
v 1.5 2 1
v 1.5 4 1
v 8.5 0 1
v 8.5 2 1
v 10.5 4 1
v 10.5 15 1
v -10.5 4 -1
v -10.5 15 -1
v -9.5 5 -1
v -9.5 6 -1
v -9.5 7 -1
v -9.5 8 -1
v -9.5 9 -1
v -9.5 14 -1
v -8.5 0 -1
v -8.5 2 -1
v -8.5 11 -1
v -8.5 12 -1
v -7.5 6 -1
v -7.5 7 -1
v -7.5 8 -1
v -7.5 12 -1
v -7.5 13 -1
v -6.5 7 -1
v -6.5 8 -1
v -5.5 6 -1
v -5.5 7 -1
v -5.5 8 -1
v -5.5 12 -1
v -5.5 13 -1
v -4.5 6 -1
v -4.5 7 -1
v -4.5 8 -1
v -4.5 11 -1
v -4.5 12 -1
v -2.5 9 -1
v -2.5 10 -1
v -2.5 12 -1
v -2.5 13 -1
v -1.5 2 -1
v -1.5 4 -1
v -1.5 6 -1
v -1.5 7 -1
v -1.5 8 -1
v -1.5 10 -1
v -1.5 11 -1
v -1.5 13 -1
v -1.5 14 -1
v -0.5 6 -1
v -0.5 7 -1
v -0.5 8 -1
v 0.5 10 -1
v 0.5 11 -1
v 0.5 13 -1
v 0.5 14 -1
v 1.5 2 -1
v 1.5 4 -1
v 1.5 6 -1
v 1.5 7 -1
v 1.5 8 -1
v 1.5 9 -1
v 1.5 10 -1
v 1.5 12 -1
v 1.5 13 -1
v 3.5 6 -1
v 3.5 7 -1
v 3.5 11 -1
v 3.5 12 -1
v 4.5 7 -1
v 4.5 8 -1
v 4.5 12 -1
v 4.5 13 -1
v 5.5 6 -1
v 5.5 7 -1
v 5.5 8 -1
v 6.5 8 -1
v 6.5 9 -1
v 7.5 12 -1
v 7.5 13 -1
v 8.5 0 -1
v 8.5 2 -1
v 8.5 7 -1
v 8.5 8 -1
v 8.5 9 -1
v 8.5 11 -1
v 8.5 12 -1
v 9.5 5 -1
v 9.5 6 -1
v 9.5 7 -1
v 9.5 9 -1
v 9.5 14 -1
v 10.5 4 -1
v 10.5 15 -1
v -8.5 0 1
v 8.5 0 1
v -8.5 0 -1
v 8.5 0 -1
v -10.5 4 1
v -1.5 4 1
v 1.5 4 1
v 10.5 4 1
v -10.5 4 -1
v -1.5 4 -1
v 1.5 4 -1
v 10.5 4 -1
v -8.5 2 1
v -1.5 2 1
v 1.5 2 1
v 8.5 2 1
v -8.5 2 -1
v -1.5 2 -1
v 1.5 2 -1
v 8.5 2 -1
v -10.5 15 1
v 10.5 15 1
v -10.5 15 -1
v 10.5 15 -1

# faces
f 3/9/1 2/9/1 1/9/1
f 4/9/1 2/9/1 3/9/1
f 7/9/1 6/9/1 5/9/1
f 8/9/1 6/9/1 7/9/1
f 11/9/1 10/9/1 9/9/1
f 12/9/1 10/9/1 11/9/1
f 13/9/2 14/9/2 15/9/2
f 15/9/2 14/9/2 16/9/2
f 17/9/2 18/9/2 19/9/2
f 19/9/2 18/9/2 20/9/2
f 21/9/2 22/9/2 23/9/2
f 23/9/2 22/9/2 24/9/2
f 29/9/3 28/9/3 27/9/3
f 30/9/3 26/9/3 25/9/3
f 31/9/3 29/9/3 27/9/3
f 31/9/3 30/9/3 29/9/3
f 32/9/3 26/9/3 30/9/3
f 32/9/3 30/9/3 31/9/3
f 33/9/3 31/9/3 27/9/3
f 34/9/3 31/9/3 33/9/3
f 35/9/3 26/9/3 32/9/3
f 36/9/3 26/9/3 35/9/3
f 37/9/4 38/9/4 39/9/4
f 39/9/4 38/9/4 40/9/4
f 40/9/4 38/9/4 41/9/4
f 41/9/4 38/9/4 42/9/4
f 42/9/4 38/9/4 43/9/4
f 43/9/4 38/9/4 44/9/4
f 43/7/4 44/7/4 47/7/4
f 47/7/4 44/7/4 48/7/4
f 39/3/4 40/3/4 49/3/4
f 40/2/4 41/2/4 49/2/4
f 41/5/4 42/5/4 50/5/4
f 49/2/4 41/2/4 50/2/4
f 42/6/4 43/6/4 51/6/4
f 50/5/4 42/5/4 51/5/4
f 48/7/4 44/7/4 52/7/4
f 47/1/4 48/1/4 52/1/4
f 52/7/4 44/7/4 53/7/4
f 50/6/4 51/6/4 54/6/4
f 49/5/4 50/5/4 54/5/4
f 51/6/4 43/6/4 55/6/4
f 54/6/4 51/6/4 55/6/4
f 49/5/4 54/5/4 56/5/4
f 39/3/4 49/3/4 56/3/4
f 54/8/4 55/8/4 57/8/4
f 56/5/4 54/5/4 57/5/4
f 55/6/4 43/6/4 58/6/4
f 57/8/4 55/8/4 58/8/4
f 52/1/4 53/1/4 59/1/4
f 47/1/4 52/1/4 59/1/4
f 53/7/4 44/7/4 60/7/4
f 59/1/4 53/1/4 60/1/4
f 56/3/4 57/3/4 61/3/4
f 39/3/4 56/3/4 61/3/4
f 57/6/4 58/6/4 62/6/4
f 61/3/4 57/3/4 62/3/4
f 58/6/4 43/6/4 63/6/4
f 62/6/4 58/6/4 63/6/4
f 47/1/4 59/1/4 64/1/4
f 43/7/4 47/7/4 64/7/4
f 59/7/4 60/7/4 65/7/4
f 64/1/4 59/1/4 65/1/4
f 63/6/4 43/6/4 66/6/4
f 43/7/4 64/7/4 66/7/4
f 64/7/4 65/7/4 66/7/4
f 66/7/4 65/7/4 67/7/4
f 65/7/4 60/7/4 68/7/4
f 67/7/4 65/7/4 68/7/4
f 60/7/4 44/7/4 69/7/4
f 68/7/4 60/7/4 69/7/4
f 45/9/4 46/9/4 70/9/4
f 37/9/4 39/9/4 71/9/4
f 39/3/4 61/3/4 72/3/4
f 61/2/4 62/2/4 72/2/4
f 62/5/4 63/5/4 73/5/4
f 72/2/4 62/2/4 73/2/4
f 63/6/4 66/6/4 74/6/4
f 73/5/4 63/5/4 74/5/4
f 67/7/4 68/7/4 75/7/4
f 66/4/4 67/4/4 75/4/4
f 75/7/4 68/7/4 76/7/4
f 69/7/4 44/7/4 77/7/4
f 68/1/4 69/1/4 77/1/4
f 44/9/4 38/9/4 78/9/4
f 77/7/4 44/7/4 78/7/4
f 39/3/4 72/3/4 79/3/4
f 72/3/4 73/3/4 79/3/4
f 73/8/4 74/8/4 80/8/4
f 79/3/4 73/3/4 80/3/4
f 74/6/4 66/6/4 81/6/4
f 80/8/4 74/8/4 81/8/4
f 75/4/4 76/4/4 82/4/4
f 66/4/4 75/4/4 82/4/4
f 76/7/4 68/7/4 83/7/4
f 82/4/4 76/4/4 83/4/4
f 68/1/4 77/1/4 84/1/4
f 77/1/4 78/1/4 84/1/4
f 78/9/4 38/9/4 85/9/4
f 84/1/4 78/1/4 85/1/4
f 45/9/4 70/9/4 86/9/4
f 70/9/4 71/9/4 86/9/4
f 71/9/4 39/9/4 87/9/4
f 86/9/4 71/9/4 87/9/4
f 79/5/4 80/5/4 88/5/4
f 39/3/4 79/3/4 88/3/4
f 80/6/4 81/6/4 89/6/4
f 88/5/4 80/5/4 89/5/4
f 81/6/4 66/6/4 90/6/4
f 89/6/4 81/6/4 90/6/4
f 66/4/4 82/4/4 91/4/4
f 90/6/4 66/6/4 91/6/4
f 82/7/4 83/7/4 92/7/4
f 91/4/4 82/4/4 92/4/4
f 83/7/4 68/7/4 93/7/4
f 92/7/4 83/7/4 93/7/4
f 68/1/4 84/1/4 93/1/4
f 84/7/4 85/7/4 94/7/4
f 93/1/4 84/1/4 94/1/4
f 39/3/4 88/3/4 95/3/4
f 88/2/4 89/2/4 95/2/4
f 89/5/4 90/5/4 96/5/4
f 95/2/4 89/2/4 96/2/4
f 92/7/4 93/7/4 97/7/4
f 91/7/4 92/7/4 97/7/4
f 93/7/4 94/7/4 97/7/4
f 97/7/4 94/7/4 98/7/4
f 96/5/4 90/5/4 99/5/4
f 95/3/4 96/3/4 99/3/4
f 90/6/4 91/6/4 100/6/4
f 99/5/4 90/5/4 100/5/4
f 98/7/4 94/7/4 101/7/4
f 97/1/4 98/1/4 101/1/4
f 94/7/4 85/7/4 102/7/4
f 101/7/4 94/7/4 102/7/4
f 39/3/4 95/3/4 103/3/4
f 95/3/4 99/3/4 103/3/4
f 99/8/4 100/8/4 104/8/4
f 103/3/4 99/3/4 104/3/4
f 100/6/4 91/6/4 105/6/4
f 104/8/4 100/8/4 105/8/4
f 104/5/4 105/5/4 106/5/4
f 105/6/4 91/6/4 106/6/4
f 91/7/4 97/7/4 107/7/4
f 106/6/4 91/6/4 107/6/4
f 97/1/4 101/1/4 108/1/4
f 101/1/4 102/1/4 108/1/4
f 102/7/4 85/7/4 109/7/4
f 108/1/4 102/1/4 109/1/4
f 45/9/4 86/9/4 110/9/4
f 110/9/4 86/9/4 111/9/4
f 103/2/4 104/2/4 112/2/4
f 104/5/4 106/5/4 112/5/4
f 106/8/4 107/8/4 113/8/4
f 112/5/4 106/5/4 113/5/4
f 107/7/4 97/7/4 114/7/4
f 113/8/4 107/8/4 114/8/4
f 97/1/4 108/1/4 115/1/4
f 114/7/4 97/7/4 115/7/4
f 108/7/4 109/7/4 116/7/4
f 115/1/4 108/1/4 116/1/4
f 87/9/4 39/9/4 117/9/4
f 39/3/4 103/3/4 117/3/4
f 103/2/4 112/2/4 118/2/4
f 117/3/4 103/3/4 118/3/4
f 112/6/4 113/6/4 119/6/4
f 118/2/4 112/2/4 119/2/4
f 113/6/4 114/6/4 119/6/4
f 115/7/4 116/7/4 120/7/4
f 119/6/4 114/6/4 120/6/4
f 114/7/4 115/7/4 120/7/4
f 85/9/4 38/9/4 121/9/4
f 120/7/4 116/7/4 121/7/4
f 116/7/4 109/7/4 121/7/4
f 109/7/4 85/7/4 121/7/4
f 119/9/4 120/9/4 122/9/4
f 117/9/4 118/9/4 122/9/4
f 120/9/4 121/9/4 122/9/4
f 118/9/4 119/9/4 122/9/4
f 87/9/4 117/9/4 122/9/4
f 121/9/4 38/9/4 123/9/4
f 122/9/4 121/9/4 123/9/4
f 126/9/5 125/9/5 124/9/5
f 127/9/5 125/9/5 126/9/5
f 132/9/5 129/9/5 128/9/5
f 133/9/5 129/9/5 132/9/5
f 134/9/5 131/9/5 130/9/5
f 135/9/5 131/9/5 134/9/5
f 136/9/6 137/9/6 140/9/6
f 140/9/6 137/9/6 141/9/6
f 138/9/6 139/9/6 142/9/6
f 142/9/6 139/9/6 143/9/6
f 144/9/6 145/9/6 146/9/6
f 146/9/6 145/9/6 147/9/6
