# MagicaVoxel @ Ephtracy

# group
g map-177

# material
mtllib map-177.mtl
usemtl palette

# normals
vn -1 0 0
vn 1 0 0
vn 0 0 1
vn 0 0 -1
vn 0 -1 0
vn 0 1 0

# texcoords
vt 0.919922 0.5
vt 0.982422 0.5
vt 0.986328 0.5

# verts
v -3.5 13 3
v -3.5 13 -0
v -3.5 18 3
v -3.5 18 -0
v -2.5 0 2
v -2.5 0 -1
v -2.5 1 2
v -2.5 1 -1
v -2.5 12 3
v -2.5 12 -0
v -2.5 13 3
v -2.5 13 -0
v -2.5 18 3
v -2.5 18 -0
v -2.5 19 3
v -2.5 19 -0
v -1.5 0 3
v -1.5 0 2
v -1.5 0 -1
v -1.5 0 -2
v -1.5 1 3
v -1.5 1 2
v -1.5 1 -1
v -1.5 1 -2
v -1.5 14 2
v -1.5 14 -0
v -1.5 15 2
v -1.5 15 -0
v -1.5 16 2
v -1.5 16 -0
v -1.5 17 2
v -1.5 17 -0
v -0.5 1 2
v -0.5 1 -0
v -0.5 11 3
v -0.5 11 2
v -0.5 12 3
v -0.5 12 -0
v -0.5 13 1
v -0.5 13 -0
v -0.5 14 1
v -0.5 14 -0
v -0.5 15 2
v -0.5 15 1
v -0.5 15 -0
v -0.5 16 2
v -0.5 16 1
v -0.5 16 -0
v 0.5 14 2
v 0.5 14 1
v 0.5 15 2
v 0.5 15 1
v 0.5 16 2
v 0.5 16 1
v 0.5 16 -0
v 0.5 17 2
v 0.5 17 -0
v 1.5 13 2
v 1.5 13 -0
v 1.5 14 2
v 1.5 14 -0
v 1.5 17 2
v 1.5 17 -0
v 1.5 18 2
v 1.5 18 -0
v 2.5 13 3
v 2.5 13 2
v 2.5 14 2
v 2.5 14 -0
v 2.5 17 2
v 2.5 17 -0
v 2.5 18 3
v 2.5 18 2
v -2.5 13 3
v -2.5 13 2
v -2.5 14 2
v -2.5 14 -0
v -2.5 17 2
v -2.5 17 -0
v -2.5 18 3
v -2.5 18 2
v -1.5 13 2
v -1.5 13 -0
v -1.5 14 2
v -1.5 14 -0
v -1.5 17 2
v -1.5 17 -0
v -1.5 18 2
v -1.5 18 -0
v -0.5 14 2
v -0.5 14 1
v -0.5 15 2
v -0.5 15 1
v -0.5 16 2
v -0.5 16 1
v -0.5 16 -0
v -0.5 17 2
v -0.5 17 -0
v 0.5 1 2
v 0.5 1 -0
v 0.5 11 3
v 0.5 11 2
v 0.5 12 3
v 0.5 12 -0
v 0.5 13 1
v 0.5 13 -0
v 0.5 14 1
v 0.5 14 -0
v 0.5 15 2
v 0.5 15 1
v 0.5 15 -0
v 0.5 16 2
v 0.5 16 1
v 0.5 16 -0
v 1.5 0 3
v 1.5 0 2
v 1.5 0 -1
v 1.5 0 -2
v 1.5 1 3
v 1.5 1 2
v 1.5 1 -1
v 1.5 1 -2
v 1.5 14 2
v 1.5 14 -0
v 1.5 15 2
v 1.5 15 -0
v 1.5 16 2
v 1.5 16 -0
v 1.5 17 2
v 1.5 17 -0
v 2.5 0 2
v 2.5 0 -1
v 2.5 1 2
v 2.5 1 -1
v 2.5 12 3
v 2.5 12 -0
v 2.5 13 3
v 2.5 13 -0
v 2.5 18 3
v 2.5 18 -0
v 2.5 19 3
v 2.5 19 -0
v 3.5 13 3
v 3.5 13 -0
v 3.5 18 3
v 3.5 18 -0
v -3.5 13 3
v -3.5 18 3
v -2.5 12 3
v -2.5 13 3
v -2.5 18 3
v -2.5 19 3
v -1.5 0 3
v -1.5 1 3
v -0.5 11 3
v -0.5 12 3
v 0.5 11 3
v 0.5 12 3
v 1.5 0 3
v 1.5 1 3
v 2.5 12 3
v 2.5 13 3
v 2.5 18 3
v 2.5 19 3
v 3.5 13 3
v 3.5 18 3
v -2.5 0 2
v -2.5 1 2
v -2.5 13 2
v -2.5 14 2
v -2.5 17 2
v -2.5 18 2
v -1.5 0 2
v -1.5 1 2
v -1.5 13 2
v -1.5 14 2
v -1.5 15 2
v -1.5 16 2
v -1.5 17 2
v -1.5 18 2
v -0.5 1 2
v -0.5 11 2
v -0.5 14 2
v -0.5 15 2
v -0.5 16 2
v -0.5 17 2
v 0.5 1 2
v 0.5 11 2
v 0.5 14 2
v 0.5 15 2
v 0.5 16 2
v 0.5 17 2
v 1.5 0 2
v 1.5 1 2
v 1.5 13 2
v 1.5 14 2
v 1.5 15 2
v 1.5 16 2
v 1.5 17 2
v 1.5 18 2
v 2.5 0 2
v 2.5 1 2
v 2.5 13 2
v 2.5 14 2
v 2.5 17 2
v 2.5 18 2
v -0.5 13 1
v -0.5 14 1
v -0.5 15 1
v 0.5 13 1
v 0.5 14 1
v 0.5 15 1
v -3.5 13 -0
v -3.5 18 -0
v -2.5 12 -0
v -2.5 13 -0
v -2.5 14 -0
v -2.5 17 -0
v -2.5 18 -0
v -2.5 19 -0
v -1.5 13 -0
v -1.5 14 -0
v -1.5 15 -0
v -1.5 16 -0
v -1.5 17 -0
v -1.5 18 -0
v -0.5 1 -0
v -0.5 12 -0
v -0.5 13 -0
v -0.5 14 -0
v -0.5 15 -0
v -0.5 16 -0
v -0.5 17 -0
v 0.5 1 -0
v 0.5 12 -0
v 0.5 13 -0
v 0.5 14 -0
v 0.5 15 -0
v 0.5 16 -0
v 0.5 17 -0
v 1.5 13 -0
v 1.5 14 -0
v 1.5 15 -0
v 1.5 16 -0
v 1.5 17 -0
v 1.5 18 -0
v 2.5 12 -0
v 2.5 13 -0
v 2.5 14 -0
v 2.5 17 -0
v 2.5 18 -0
v 2.5 19 -0
v 3.5 13 -0
v 3.5 18 -0
v -2.5 0 -1
v -2.5 1 -1
v -1.5 0 -1
v -1.5 1 -1
v 1.5 0 -1
v 1.5 1 -1
v 2.5 0 -1
v 2.5 1 -1
v -1.5 0 -2
v -1.5 1 -2
v 1.5 0 -2
v 1.5 1 -2
v -1.5 0 3
v 1.5 0 3
v -2.5 0 2
v -1.5 0 2
v 1.5 0 2
v 2.5 0 2
v -2.5 0 -1
v -1.5 0 -1
v 1.5 0 -1
v 2.5 0 -1
v -1.5 0 -2
v 1.5 0 -2
v -0.5 11 3
v 0.5 11 3
v -0.5 11 2
v 0.5 11 2
v -2.5 12 3
v -0.5 12 3
v 0.5 12 3
v 2.5 12 3
v -2.5 12 -0
v -0.5 12 -0
v 0.5 12 -0
v 2.5 12 -0
v -3.5 13 3
v -2.5 13 3
v 2.5 13 3
v 3.5 13 3
v -3.5 13 -0
v -2.5 13 -0
v 2.5 13 -0
v 3.5 13 -0
v -1.5 14 2
v -0.5 14 2
v 0.5 14 2
v 1.5 14 2
v -0.5 14 1
v 0.5 14 1
v -1.5 14 -0
v -0.5 14 -0
v 0.5 14 -0
v 1.5 14 -0
v -0.5 15 2
v 0.5 15 2
v -0.5 15 1
v 0.5 15 1
v -1.5 16 2
v -0.5 16 2
v 0.5 16 2
v 1.5 16 2
v -0.5 16 1
v 0.5 16 1
v -1.5 16 -0
v -0.5 16 -0
v 0.5 16 -0
v 1.5 16 -0
v -2.5 17 2
v -1.5 17 2
v 1.5 17 2
v 2.5 17 2
v -2.5 17 -0
v -1.5 17 -0
v 1.5 17 -0
v 2.5 17 -0
v -2.5 18 3
v 2.5 18 3
v -2.5 18 2
v -1.5 18 2
v 1.5 18 2
v 2.5 18 2
v -1.5 18 -0
v 1.5 18 -0
v -1.5 1 3
v 1.5 1 3
v -2.5 1 2
v -1.5 1 2
v -0.5 1 2
v 0.5 1 2
v 1.5 1 2
v 2.5 1 2
v -0.5 1 -0
v 0.5 1 -0
v -2.5 1 -1
v -1.5 1 -1
v 1.5 1 -1
v 2.5 1 -1
v -1.5 1 -2
v 1.5 1 -2
v -2.5 13 3
v 2.5 13 3
v -2.5 13 2
v -1.5 13 2
v 1.5 13 2
v 2.5 13 2
v -0.5 13 1
v 0.5 13 1
v -1.5 13 -0
v -0.5 13 -0
v 0.5 13 -0
v 1.5 13 -0
v -2.5 14 2
v -1.5 14 2
v 1.5 14 2
v 2.5 14 2
v -2.5 14 -0
v -1.5 14 -0
v 1.5 14 -0
v 2.5 14 -0
v -1.5 15 2
v -0.5 15 2
v 0.5 15 2
v 1.5 15 2
v -0.5 15 1
v 0.5 15 1
v -1.5 15 -0
v -0.5 15 -0
v 0.5 15 -0
v 1.5 15 -0
v -0.5 16 2
v 0.5 16 2
v -0.5 16 1
v 0.5 16 1
v -0.5 16 -0
v 0.5 16 -0
v -1.5 17 2
v -0.5 17 2
v 0.5 17 2
v 1.5 17 2
v -1.5 17 -0
v -0.5 17 -0
v 0.5 17 -0
v 1.5 17 -0
v -3.5 18 3
v -2.5 18 3
v 2.5 18 3
v 3.5 18 3
v -3.5 18 -0
v -2.5 18 -0
v 2.5 18 -0
v 3.5 18 -0
v -2.5 19 3
v 2.5 19 3
v -2.5 19 -0
v 2.5 19 -0

# faces
f 3/3/1 2/3/1 1/3/1
f 4/3/1 2/3/1 3/3/1
f 7/3/1 6/3/1 5/3/1
f 8/3/1 6/3/1 7/3/1
f 11/3/1 10/3/1 9/3/1
f 12/3/1 10/3/1 11/3/1
f 15/3/1 14/3/1 13/3/1
f 16/3/1 14/3/1 15/3/1
f 21/3/1 18/3/1 17/3/1
f 22/3/1 18/3/1 21/3/1
f 23/3/1 20/3/1 19/3/1
f 24/3/1 20/3/1 23/3/1
f 27/2/1 26/2/1 25/2/1
f 28/2/1 26/2/1 27/2/1
f 31/2/1 30/2/1 29/2/1
f 32/2/1 30/2/1 31/2/1
f 36/3/1 34/3/1 33/3/1
f 37/3/1 36/3/1 35/3/1
f 38/3/1 34/3/1 36/3/1
f 38/3/1 36/3/1 37/3/1
f 41/3/1 40/3/1 39/3/1
f 42/3/1 40/3/1 41/3/1
f 46/1/1 44/1/1 43/1/1
f 47/2/1 45/2/1 44/2/1
f 47/1/1 44/1/1 46/1/1
f 48/2/1 45/2/1 47/2/1
f 51/2/1 50/2/1 49/2/1
f 52/2/1 50/2/1 51/2/1
f 56/2/1 54/2/1 53/2/1
f 56/2/1 55/2/1 54/2/1
f 57/2/1 55/2/1 56/2/1
f 60/3/1 59/3/1 58/3/1
f 61/3/1 59/3/1 60/3/1
f 64/3/1 63/3/1 62/3/1
f 65/3/1 63/3/1 64/3/1
f 68/3/1 67/3/1 66/3/1
f 70/3/1 68/3/1 66/3/1
f 70/3/1 69/3/1 68/3/1
f 71/3/1 69/3/1 70/3/1
f 72/3/1 70/3/1 66/3/1
f 73/3/1 70/3/1 72/3/1
f 74/3/2 75/3/2 76/3/2
f 74/3/2 76/3/2 78/3/2
f 76/3/2 77/3/2 78/3/2
f 78/3/2 77/3/2 79/3/2
f 74/3/2 78/3/2 80/3/2
f 80/3/2 78/3/2 81/3/2
f 82/3/2 83/3/2 84/3/2
f 84/3/2 83/3/2 85/3/2
f 86/3/2 87/3/2 88/3/2
f 88/3/2 87/3/2 89/3/2
f 90/2/2 91/2/2 92/2/2
f 92/2/2 91/2/2 93/2/2
f 94/2/2 95/2/2 97/2/2
f 95/2/2 96/2/2 97/2/2
f 97/2/2 96/2/2 98/2/2
f 99/3/2 100/3/2 102/3/2
f 101/3/2 102/3/2 103/3/2
f 102/3/2 100/3/2 104/3/2
f 103/3/2 102/3/2 104/3/2
f 105/3/2 106/3/2 107/3/2
f 107/3/2 106/3/2 108/3/2
f 109/1/2 110/1/2 112/1/2
f 110/2/2 111/2/2 113/2/2
f 112/1/2 110/1/2 113/1/2
f 113/2/2 111/2/2 114/2/2
f 115/3/2 116/3/2 119/3/2
f 119/3/2 116/3/2 120/3/2
f 117/3/2 118/3/2 121/3/2
f 121/3/2 118/3/2 122/3/2
f 123/2/2 124/2/2 125/2/2
f 125/2/2 124/2/2 126/2/2
f 127/2/2 128/2/2 129/2/2
f 129/2/2 128/2/2 130/2/2
f 131/3/2 132/3/2 133/3/2
f 133/3/2 132/3/2 134/3/2
f 135/3/2 136/3/2 137/3/2
f 137/3/2 136/3/2 138/3/2
f 139/3/2 140/3/2 141/3/2
f 141/3/2 140/3/2 142/3/2
f 143/3/2 144/3/2 145/3/2
f 145/3/2 144/3/2 146/3/2
f 150/3/3 148/3/3 147/3/3
f 151/3/3 148/3/3 150/3/3
f 156/3/3 150/3/3 149/3/3
f 157/3/3 156/3/3 155/3/3
f 158/3/3 150/3/3 156/3/3
f 158/3/3 156/3/3 157/3/3
f 159/3/3 154/3/3 153/3/3
f 160/3/3 154/3/3 159/3/3
f 161/3/3 150/3/3 158/3/3
f 162/3/3 150/3/3 161/3/3
f 163/3/3 152/3/3 151/3/3
f 164/3/3 152/3/3 163/3/3
f 165/3/3 163/3/3 162/3/3
f 166/3/3 163/3/3 165/3/3
f 173/3/3 168/3/3 167/3/3
f 174/3/3 168/3/3 173/3/3
f 175/3/3 170/3/3 169/3/3
f 176/3/3 170/3/3 175/3/3
f 179/3/3 172/3/3 171/3/3
f 180/3/3 172/3/3 179/3/3
f 183/2/3 177/2/3 176/2/3
f 184/2/3 177/2/3 183/2/3
f 185/2/3 179/2/3 178/2/3
f 186/2/3 179/2/3 185/2/3
f 187/3/3 182/3/3 181/3/3
f 188/3/3 182/3/3 187/3/3
f 190/1/3 185/1/3 184/1/3
f 191/1/3 185/1/3 190/1/3
f 196/2/3 190/2/3 189/2/3
f 197/2/3 190/2/3 196/2/3
f 198/2/3 192/2/3 191/2/3
f 199/2/3 192/2/3 198/2/3
f 201/3/3 194/3/3 193/3/3
f 202/3/3 194/3/3 201/3/3
f 203/3/3 196/3/3 195/3/3
f 204/3/3 196/3/3 203/3/3
f 205/3/3 200/3/3 199/3/3
f 206/3/3 200/3/3 205/3/3
f 210/3/3 208/3/3 207/3/3
f 210/3/3 209/3/3 208/3/3
f 211/3/3 209/3/3 210/3/3
f 212/3/3 209/3/3 211/3/3
f 213/3/4 214/3/4 216/3/4
f 216/3/4 214/3/4 217/3/4
f 217/3/4 214/3/4 218/3/4
f 218/3/4 214/3/4 219/3/4
f 215/3/4 216/3/4 221/3/4
f 216/3/4 217/3/4 221/3/4
f 221/3/4 217/3/4 222/3/4
f 219/3/4 220/3/4 225/3/4
f 218/3/4 219/3/4 225/3/4
f 225/3/4 220/3/4 226/3/4
f 215/3/4 221/3/4 228/3/4
f 228/3/4 221/3/4 229/3/4
f 222/2/4 223/2/4 230/2/4
f 230/2/4 223/2/4 231/2/4
f 224/2/4 225/2/4 232/2/4
f 232/2/4 225/2/4 233/2/4
f 228/3/4 229/3/4 234/3/4
f 230/3/4 231/3/4 234/3/4
f 227/3/4 228/3/4 234/3/4
f 229/3/4 230/3/4 234/3/4
f 234/3/4 231/3/4 235/3/4
f 235/3/4 231/3/4 236/3/4
f 236/3/4 231/3/4 237/3/4
f 231/2/4 232/2/4 238/2/4
f 237/3/4 231/3/4 238/3/4
f 238/2/4 232/2/4 239/2/4
f 235/3/4 236/3/4 241/3/4
f 237/2/4 238/2/4 242/2/4
f 242/2/4 238/2/4 243/2/4
f 239/2/4 240/2/4 244/2/4
f 244/2/4 240/2/4 245/2/4
f 226/3/4 220/3/4 246/3/4
f 235/3/4 241/3/4 247/3/4
f 241/3/4 242/3/4 247/3/4
f 247/3/4 242/3/4 248/3/4
f 248/3/4 242/3/4 249/3/4
f 245/3/4 246/3/4 250/3/4
f 246/3/4 220/3/4 251/3/4
f 250/3/4 246/3/4 251/3/4
f 251/3/4 220/3/4 252/3/4
f 248/3/4 249/3/4 253/3/4
f 249/3/4 250/3/4 253/3/4
f 250/3/4 251/3/4 253/3/4
f 253/3/4 251/3/4 254/3/4
f 255/3/4 256/3/4 257/3/4
f 257/3/4 256/3/4 258/3/4
f 259/3/4 260/3/4 261/3/4
f 261/3/4 260/3/4 262/3/4
f 263/3/4 264/3/4 265/3/4
f 265/3/4 264/3/4 266/3/4
f 270/3/5 268/3/5 267/3/5
f 271/3/5 268/3/5 270/3/5
f 273/3/5 270/3/5 269/3/5
f 273/3/5 272/3/5 271/3/5
f 273/3/5 271/3/5 270/3/5
f 274/3/5 272/3/5 273/3/5
f 275/3/5 272/3/5 274/3/5
f 276/3/5 272/3/5 275/3/5
f 277/3/5 275/3/5 274/3/5
f 278/3/5 275/3/5 277/3/5
f 281/3/5 280/3/5 279/3/5
f 282/3/5 280/3/5 281/3/5
f 287/3/5 284/3/5 283/3/5
f 288/3/5 284/3/5 287/3/5
f 289/3/5 286/3/5 285/3/5
f 290/3/5 286/3/5 289/3/5
f 295/3/5 292/3/5 291/3/5
f 296/3/5 292/3/5 295/3/5
f 297/3/5 294/3/5 293/3/5
f 298/3/5 294/3/5 297/3/5
f 303/2/5 300/2/5 299/2/5
f 304/2/5 302/2/5 301/2/5
f 305/2/5 303/2/5 299/2/5
f 306/2/5 303/2/5 305/2/5
f 307/2/5 302/2/5 304/2/5
f 308/2/5 302/2/5 307/2/5
f 311/1/5 310/1/5 309/1/5
f 312/1/5 310/1/5 311/1/5
f 317/2/5 314/2/5 313/2/5
f 318/2/5 316/2/5 315/2/5
f 319/2/5 317/2/5 313/2/5
f 320/2/5 317/2/5 319/2/5
f 321/2/5 316/2/5 318/2/5
f 322/2/5 316/2/5 321/2/5
f 327/3/5 324/3/5 323/3/5
f 328/3/5 324/3/5 327/3/5
f 329/3/5 326/3/5 325/3/5
f 330/3/5 326/3/5 329/3/5
f 333/3/5 332/3/5 331/3/5
f 334/3/5 332/3/5 333/3/5
f 335/3/5 332/3/5 334/3/5
f 336/3/5 332/3/5 335/3/5
f 337/3/5 335/3/5 334/3/5
f 338/3/5 335/3/5 337/3/5
f 339/3/6 340/3/6 342/3/6
f 342/3/6 340/3/6 343/3/6
f 343/3/6 340/3/6 344/3/6
f 344/3/6 340/3/6 345/3/6
f 341/3/6 342/3/6 347/3/6
f 342/3/6 343/3/6 347/3/6
f 345/3/6 346/3/6 348/3/6
f 344/3/6 345/3/6 348/3/6
f 341/3/6 347/3/6 349/3/6
f 347/3/6 348/3/6 349/3/6
f 349/3/6 348/3/6 350/3/6
f 348/3/6 346/3/6 351/3/6
f 350/3/6 348/3/6 351/3/6
f 351/3/6 346/3/6 352/3/6
f 350/3/6 351/3/6 353/3/6
f 353/3/6 351/3/6 354/3/6
f 355/3/6 356/3/6 357/3/6
f 357/3/6 356/3/6 358/3/6
f 358/3/6 356/3/6 359/3/6
f 359/3/6 356/3/6 360/3/6
f 358/3/6 359/3/6 361/3/6
f 361/3/6 359/3/6 362/3/6
f 358/3/6 361/3/6 363/3/6
f 363/3/6 361/3/6 364/3/6
f 362/3/6 359/3/6 365/3/6
f 365/3/6 359/3/6 366/3/6
f 367/3/6 368/3/6 371/3/6
f 371/3/6 368/3/6 372/3/6
f 369/3/6 370/3/6 373/3/6
f 373/3/6 370/3/6 374/3/6
f 375/2/6 376/2/6 379/2/6
f 377/2/6 378/2/6 380/2/6
f 375/2/6 379/2/6 381/2/6
f 381/2/6 379/2/6 382/2/6
f 380/2/6 378/2/6 383/2/6
f 383/2/6 378/2/6 384/2/6
f 385/1/6 386/1/6 387/1/6
f 387/1/6 386/1/6 388/1/6
f 387/2/6 388/2/6 389/2/6
f 389/2/6 388/2/6 390/2/6
f 391/2/6 392/2/6 395/2/6
f 395/2/6 392/2/6 396/2/6
f 393/2/6 394/2/6 397/2/6
f 397/2/6 394/2/6 398/2/6
f 399/3/6 400/3/6 403/3/6
f 403/3/6 400/3/6 404/3/6
f 401/3/6 402/3/6 405/3/6
f 405/3/6 402/3/6 406/3/6
f 407/3/6 408/3/6 409/3/6
f 409/3/6 408/3/6 410/3/6
